<svg width="131" height="125" viewBox="0 0 131 125" fill="none" xmlns="http://www.w3.org/2000/svg">
<path d="M131 94.1888H0V94.2543H131V94.1888Z" fill="#EBEBEB"/>
<path d="M117.874 98.4044H103.403V98.4699H117.874V98.4044Z" fill="#EBEBEB"/>
<path d="M86.5912 97.0315H84.3145V97.097H86.5912V97.0315Z" fill="#EBEBEB"/>
<path d="M102.615 95.973H97.5869V96.0385H102.615V95.973Z" fill="#EBEBEB"/>
<path d="M25.0604 96.4132H13.7446V96.4787H25.0604V96.4132Z" fill="#EBEBEB"/>
<path d="M68.3951 98.1057H56.4165V98.1712H68.3951V98.1057Z" fill="#EBEBEB"/>
<path d="M61.3444 96.9974H36.8003V97.0629H61.3444V96.9974Z" fill="#EBEBEB"/>
<path d="M63.5929 81.0076C63.5929 81.2043 63.5541 81.399 63.4787 81.5807C63.4034 81.7624 63.293 81.9274 63.1538 82.0664C63.0146 82.2053 62.8493 82.3155 62.6675 82.3905C62.4857 82.4655 62.2909 82.504 62.0942 82.5036H11.5046C11.1083 82.5029 10.7285 82.345 10.4485 82.0645C10.1685 81.784 10.0112 81.4039 10.0112 81.0076V9.89295C10.0147 9.49891 10.1735 9.12214 10.4531 8.84449C10.7327 8.56683 11.1106 8.41071 11.5046 8.41003H62.0942C62.491 8.41003 62.8715 8.56765 63.1521 8.84821C63.4326 9.12877 63.5902 9.50928 63.5902 9.90605M63.5247 9.90605C63.5261 9.71719 63.4902 9.52992 63.4189 9.355C63.3477 9.18009 63.2426 9.02097 63.1096 8.88682C62.9767 8.75266 62.8185 8.6461 62.6443 8.57327C62.47 8.50044 62.2831 8.46277 62.0942 8.46243H11.5046C11.1257 8.46313 10.7625 8.61415 10.4948 8.88235C10.2271 9.15055 10.0767 9.51401 10.0767 9.89295V81.0076C10.0767 81.3866 10.2271 81.75 10.4948 82.0182C10.7625 82.2864 11.1257 82.4374 11.5046 82.4381H62.0942C62.4734 82.4374 62.8369 82.2865 63.105 82.0184C63.3731 81.7503 63.524 81.3868 63.5247 81.0076" fill="#EBEBEB"/>
<path d="M118.767 82.5036H68.1752C67.7787 82.5029 67.3986 82.3451 67.1181 82.0647C66.8377 81.7843 66.6799 81.4042 66.6792 81.0076V9.89295C66.6833 9.49867 66.8427 9.12191 67.1227 8.84432C67.4028 8.56674 67.7809 8.4107 68.1752 8.41003H118.767C119.161 8.4114 119.538 8.56782 119.817 8.84541C120.096 9.12299 120.255 9.49937 120.258 9.89295V81.0076C120.258 81.4035 120.101 81.7832 119.822 82.0636C119.542 82.344 119.163 82.5022 118.767 82.5036ZM68.1752 8.46243C67.796 8.46313 67.4326 8.61406 67.1645 8.88219C66.8963 9.15031 66.7454 9.51377 66.7447 9.89295V81.0076C66.7454 81.3868 66.8963 81.7503 67.1645 82.0184C67.4326 82.2865 67.796 82.4374 68.1752 82.4381H118.767C119.147 82.4374 119.51 82.2865 119.778 82.0184C120.046 81.7503 120.197 81.3868 120.198 81.0076V9.89295C120.197 9.51377 120.046 9.15031 119.778 8.88219C119.51 8.61406 119.147 8.46313 118.767 8.46243H68.1752Z" fill="#EBEBEB"/>
<path d="M88.9516 26.6976H71.5679V46.8533H88.9516V26.6976Z" fill="#E6E6E6"/>
<path d="M90.1648 26.6976H71.8301V46.8533H90.1648V26.6976Z" fill="#F0F0F0"/>
<path d="M88.6294 45.3206V28.2356H73.3679V45.3206H88.6294Z" fill="white"/>
<path d="M84.7097 40.6361H80.7482C79.79 40.6347 78.8714 40.2532 78.1941 39.5754C77.5167 38.8975 77.1359 37.9787 77.1353 37.0205V33.0616C77.1353 33.0227 77.1507 32.9854 77.1782 32.9579C77.2057 32.9304 77.2431 32.9149 77.282 32.9149H81.2434C82.2021 32.9156 83.1214 33.2968 83.7993 33.9747C84.4772 34.6526 84.8583 35.5718 84.859 36.5305V40.492C84.8587 40.5112 84.8545 40.5302 84.8468 40.5479C84.8392 40.5656 84.8281 40.5816 84.8142 40.5949C84.8003 40.6083 84.784 40.6188 84.766 40.6259C84.7481 40.633 84.7289 40.6364 84.7097 40.6361ZM77.4287 33.2084V37.0205C77.4301 37.9004 77.7803 38.744 78.4025 39.3662C79.0247 39.9884 79.8683 40.3386 80.7482 40.34H84.563V36.5305C84.5623 35.6503 84.2123 34.8064 83.5899 34.184C82.9675 33.5616 82.1236 33.2117 81.2434 33.211L77.4287 33.2084Z" fill="#F0F0F0"/>
<path d="M114.07 34.2747H94.1655L95.9288 19.6708H112.306L114.07 34.2747Z" fill="#EBEBEB"/>
<path d="M97.4612 34.2721H97.1416V39.8658H97.4612V34.2721Z" fill="#E0E0E0"/>
<path d="M97.3015 40.2483C97.5127 40.2483 97.684 40.0771 97.684 39.8658C97.684 39.6545 97.5127 39.4833 97.3015 39.4833C97.0902 39.4833 96.9189 39.6545 96.9189 39.8658C96.9189 40.0771 97.0902 40.2483 97.3015 40.2483Z" fill="#E0E0E0"/>
<path d="M109.702 34.2747H106.28L105.555 19.6708H108.712L109.702 34.2747Z" fill="#F5F5F5"/>
<path d="M105.114 34.2721H103.123V94.1863H105.114V34.2721Z" fill="#F0F0F0"/>
<path d="M107.268 94.1888H100.967C100.967 93.8328 101.108 93.4913 101.36 93.2393C101.611 92.9873 101.952 92.8454 102.308 92.8447H105.926C106.282 92.8454 106.624 92.9873 106.875 93.2393C107.127 93.4913 107.268 93.8328 107.268 94.1888Z" fill="#F0F0F0"/>
<path d="M105.114 34.2721H103.123V35.4878H105.114V34.2721Z" fill="#E0E0E0"/>
<path d="M101.808 65.8745C101.648 65.8745 101.489 65.8745 101.326 65.8902C100.317 65.9604 99.3357 66.2534 98.4532 66.7479C97.5706 67.2425 96.8086 67.9265 96.2219 68.7507C95.6352 69.5749 95.2384 70.5188 95.06 71.5146C94.8816 72.5104 94.926 73.5334 95.1901 74.51C95.9374 77.4256 96.2986 80.4267 96.2643 83.4364V92.2029C96.2639 92.354 96.2934 92.5038 96.3511 92.6435C96.4088 92.7832 96.4935 92.9101 96.6004 93.017C96.7072 93.1238 96.8342 93.2085 96.9739 93.2662C97.1136 93.3239 97.2633 93.3534 97.4144 93.3531H116.278V65.8745H101.808Z" fill="#F0F0F0"/>
<path d="M123.14 72.7258C123.14 71.7499 122.931 70.7853 122.528 69.8965C122.125 69.0078 121.537 68.2154 120.802 67.5723C120.068 66.9292 119.205 66.4503 118.271 66.1676C117.337 65.8849 116.354 65.805 115.386 65.9331C114.419 66.0612 113.49 66.3945 112.661 66.9106C111.833 67.4267 111.125 68.1137 110.583 68.9257C110.042 69.7377 109.68 70.6559 109.522 71.619C109.365 72.582 109.414 73.5677 109.668 74.51C110.415 77.4256 110.776 80.4267 110.742 83.4364V92.2029C110.742 92.354 110.771 92.5038 110.829 92.6435C110.887 92.7832 110.971 92.9101 111.078 93.017C111.185 93.1238 111.312 93.2085 111.452 93.2662C111.591 93.3239 111.741 93.3534 111.892 93.3531H120.68C120.985 93.3531 121.277 93.2319 121.493 93.0162C121.709 92.8005 121.83 92.5079 121.83 92.2029V82.9229C121.8 80.0998 122.153 77.2857 122.878 74.5572C123.048 73.9615 123.136 73.3454 123.14 72.7258Z" fill="#F5F5F5"/>
<path d="M112.807 76.6689H81.5605V93.3531H112.807V76.6689Z" fill="#F0F0F0"/>
<path d="M93.2299 54.8102H70.1739C69.5094 54.7982 68.85 54.9277 68.2394 55.1902C67.6288 55.4526 67.0811 55.842 66.6326 56.3324C66.184 56.8228 65.845 57.403 65.6379 58.0346C65.4309 58.6661 65.3606 59.3344 65.4317 59.9952L67.1871 80.4312H100.608L98.8524 59.9952C98.7111 58.593 98.061 57.2912 97.025 56.3358C95.989 55.3804 94.6389 54.8377 93.2299 54.8102Z" fill="#E0E0E0"/>
<path d="M100.011 54.8103H76.457C75.8242 54.798 75.196 54.9207 74.6144 55.1703C74.0327 55.4198 73.5109 55.7905 73.0838 56.2576C72.6566 56.7246 72.3339 57.2774 72.1372 57.879C71.9404 58.4805 71.8741 59.1172 71.9428 59.7464L73.7217 80.4444H107.158L105.379 59.7464C105.246 58.4083 104.625 57.1661 103.635 56.2559C102.645 55.3458 101.355 54.8313 100.011 54.8103Z" fill="#F5F5F5"/>
<path d="M82.0743 75.1467H112.278C112.733 75.1467 113.169 75.3275 113.491 75.6494C113.813 75.9712 113.994 76.4077 113.994 76.8628V80.2243C113.994 80.6794 113.813 81.1159 113.491 81.4378C113.169 81.7596 112.733 81.9404 112.278 81.9404H82.0743C81.9353 81.9404 81.802 81.8852 81.7038 81.7869C81.6055 81.6886 81.5503 81.5554 81.5503 81.4164V75.6524C81.555 75.5166 81.6123 75.388 81.7101 75.2937C81.8079 75.1993 81.9384 75.1466 82.0743 75.1467Z" fill="#E0E0E0"/>
<path d="M64.7273 65.8745C64.5666 65.8745 64.4068 65.8798 64.2478 65.8902C63.2389 65.9614 62.2582 66.255 61.3761 66.7498C60.494 67.2446 59.7323 67.9285 59.1456 68.7524C58.5588 69.5762 58.1616 70.5197 57.9825 71.5151C57.8033 72.5105 57.8466 73.5333 58.1092 74.51C58.8578 77.4254 59.219 80.4267 59.1834 83.4364V92.2029C59.1834 92.5079 59.3046 92.8005 59.5203 93.0162C59.736 93.2319 60.0285 93.3531 60.3336 93.3531H79.1976V65.8745H64.7273Z" fill="#F0F0F0"/>
<path d="M86.0511 72.7258C86.048 71.7516 85.8373 70.7892 85.433 69.9028C85.0286 69.0165 84.44 68.2265 83.7063 67.5856C82.9726 66.9446 82.1107 66.4675 81.1781 66.1859C80.2454 65.9044 79.2635 65.8249 78.2977 65.9527C77.3319 66.0806 76.4044 66.4129 75.5772 66.9274C74.7499 67.442 74.0419 68.1269 73.5002 68.9367C72.9586 69.7465 72.5958 70.6624 72.436 71.6235C72.2763 72.5845 72.3232 73.5685 72.5738 74.51C73.3225 77.4253 73.6836 80.4266 73.648 83.4363V92.2028C73.648 92.3541 73.6778 92.5039 73.7358 92.6436C73.7938 92.7833 73.8787 92.9102 73.9858 93.0171C74.0929 93.1239 74.22 93.2086 74.3598 93.2662C74.4997 93.3239 74.6495 93.3534 74.8008 93.353H83.5856C83.7368 93.3534 83.8865 93.3239 84.0262 93.2662C84.1659 93.2085 84.2928 93.1238 84.3997 93.0169C84.5066 92.91 84.5913 92.7831 84.649 92.6434C84.7067 92.5037 84.7362 92.354 84.7358 92.2028V82.9228C84.7111 80.099 85.0689 77.2849 85.7996 74.5571C85.965 73.9607 86.0496 73.3447 86.0511 72.7258Z" fill="#F5F5F5"/>
<path d="M112.802 94.1888H65.2171C64.9955 94.1888 64.7829 94.1008 64.6261 93.944C64.4694 93.7873 64.3813 93.5747 64.3813 93.353H113.637C113.637 93.5747 113.549 93.7873 113.393 93.944C113.236 94.1008 113.023 94.1888 112.802 94.1888Z" fill="#E0E0E0"/>
<path d="M17.8241 17.5355H12.0811V94.1889H17.8241V17.5355Z" fill="#E6E6E6"/>
<path d="M17.8212 94.1888H68.2222L68.2222 17.5355H17.8212L17.8212 94.1888Z" fill="#F5F5F5"/>
<path d="M67.2817 94.1888V18.6647L18.7646 18.6647L18.7646 94.1888H67.2817Z" fill="#E6E6E6"/>
<path d="M22.8252 94.1888L22.8252 18.6647H18.7642L18.7642 94.1888H22.8252Z" fill="#E0E0E0"/>
<path d="M67.7925 80.7246V79.598H18.7644V80.7246H67.7925Z" fill="#F5F5F5"/>
<path d="M67.7925 64.8998V63.7732H18.7644V64.8998H67.7925Z" fill="#F5F5F5"/>
<path d="M67.7925 49.0777V47.9485H18.7644V49.0777H67.7925Z" fill="#F5F5F5"/>
<path d="M67.7925 33.2503V32.1237H18.7644V33.2503H67.7925Z" fill="#F5F5F5"/>
<path d="M23.0874 32.1262H30.3789V21.3764H23.0874V32.1262Z" fill="#FAFAFA"/>
<path d="M31.1543 21.3738H29.7552C29.5352 21.3738 29.3569 21.5521 29.3569 21.772V31.7254C29.3569 31.9453 29.5352 32.1236 29.7552 32.1236H31.1543C31.3742 32.1236 31.5525 31.9453 31.5525 31.7254V21.772C31.5525 21.5521 31.3742 21.3738 31.1543 21.3738Z" fill="#F0F0F0"/>
<path d="M20.6299 32.1262H27.9214V21.3764H20.6299V32.1262Z" fill="#FAFAFA"/>
<path d="M28.7021 21.3738H27.303C27.0831 21.3738 26.9048 21.5521 26.9048 21.772V31.7254C26.9048 31.9453 27.0831 32.1236 27.303 32.1236H28.7021C28.922 32.1236 29.1003 31.9453 29.1003 31.7254V21.772C29.1003 21.5521 28.922 21.3738 28.7021 21.3738Z" fill="#E6E6E6"/>
<path d="M18.7646 21.3738H25.0579L24.5575 32.1263H18.7646V21.3738Z" fill="#FAFAFA"/>
<path d="M25.8697 21.3738H24.3999C24.2929 21.3844 24.1939 21.4351 24.1229 21.5159C24.0519 21.5966 24.0142 21.7012 24.0173 21.8087L23.5562 31.6913C23.5493 31.7426 23.5527 31.7947 23.5664 31.8446C23.58 31.8944 23.6035 31.941 23.6355 31.9816C23.6676 32.0222 23.7074 32.0559 23.7528 32.0808C23.7981 32.1056 23.848 32.1211 23.8994 32.1263H25.3693C25.4758 32.1145 25.574 32.0634 25.6448 31.9829C25.7156 31.9025 25.7537 31.7985 25.7518 31.6913L26.2129 21.8087C26.2202 21.7574 26.217 21.7052 26.2036 21.6551C26.1901 21.6051 26.1666 21.5584 26.1345 21.5177C26.1024 21.477 26.0624 21.4433 26.0169 21.4186C25.9713 21.3938 25.9213 21.3786 25.8697 21.3738Z" fill="#F0F0F0"/>
<path d="M56.8068 32.1237H62.335V23.048H56.8068V32.1237Z" fill="#FAFAFA"/>
<path d="M62.9087 23.0505H61.879C61.7039 23.0505 61.562 23.1925 61.562 23.3676V31.8092C61.562 31.9843 61.7039 32.1262 61.879 32.1262H62.9087C63.0838 32.1262 63.2257 31.9843 63.2257 31.8092V23.3676C63.2257 23.1925 63.0838 23.0505 62.9087 23.0505Z" fill="#F0F0F0"/>
<path d="M54.944 32.1237H60.4722V23.048H54.944V32.1237Z" fill="#FAFAFA"/>
<path d="M61.0488 23.0505H60.0192C59.8441 23.0505 59.7021 23.1925 59.7021 23.3676V31.8092C59.7021 31.9843 59.8441 32.1262 60.0192 32.1262H61.0488C61.2239 32.1262 61.3659 31.9843 61.3659 31.8092V23.3676C61.3659 23.1925 61.2239 23.0505 61.0488 23.0505Z" fill="#E6E6E6"/>
<path d="M53.5293 23.0505H58.3003L57.9204 32.1262H53.5293V23.0505Z" fill="#FAFAFA"/>
<path d="M58.9159 23.0505H57.8024C57.6504 23.0505 57.522 23.2156 57.5115 23.4173L57.1631 31.7594C57.1631 31.9612 57.2705 32.1262 57.4251 32.1262H58.5412C58.6932 32.1262 58.8215 31.9612 58.8294 31.7594L59.1805 23.4173C59.1857 23.2156 59.0678 23.0505 58.9159 23.0505Z" fill="#F0F0F0"/>
<path d="M49.6779 32.1237H55.2061V23.048H49.6779V32.1237Z" fill="#FAFAFA"/>
<path d="M55.7798 23.0505H54.7501C54.575 23.0505 54.4331 23.1925 54.4331 23.3676V31.8092C54.4331 31.9843 54.575 32.1262 54.7501 32.1262H55.7798C55.9549 32.1262 56.0968 31.9843 56.0968 31.8092V23.3676C56.0968 23.1925 55.9549 23.0505 55.7798 23.0505Z" fill="#F0F0F0"/>
<path d="M47.8175 32.1237H53.3457V23.048H47.8175V32.1237Z" fill="#FAFAFA"/>
<path d="M53.9194 23.0505H52.8898C52.7147 23.0505 52.5728 23.1925 52.5728 23.3676V31.8092C52.5728 31.9843 52.7147 32.1262 52.8898 32.1262H53.9194C54.0945 32.1262 54.2365 31.9843 54.2365 31.8092V23.3676C54.2365 23.1925 54.0945 23.0505 53.9194 23.0505Z" fill="#E6E6E6"/>
<path d="M46.4028 23.0505H51.1712L50.794 32.1262H46.4028V23.0505Z" fill="#FAFAFA"/>
<path d="M51.7895 23.0505H50.6734C50.5215 23.0505 50.3931 23.2156 50.3852 23.4173L50.042 31.7594C50.042 31.9612 50.152 32.1262 50.304 32.1262H51.4175C51.5695 32.1262 51.6978 31.9612 51.7083 31.7594L52.0568 23.4173C52.0568 23.2156 51.9415 23.0505 51.7895 23.0505Z" fill="#F0F0F0"/>
<path d="M39.2632 32.1262H43.1172V22.372H39.2632V32.1262Z" fill="#FAFAFA"/>
<path d="M43.4656 22.3694H42.8552C42.7032 22.3694 42.5801 22.4926 42.5801 22.6445V31.8485C42.5801 32.0005 42.7032 32.1236 42.8552 32.1236H43.4656C43.6176 32.1236 43.7407 32.0005 43.7407 31.8485V22.6445C43.7407 22.4926 43.6176 22.3694 43.4656 22.3694Z" fill="#F0F0F0"/>
<path d="M36.0538 32.1262H40.3008V21.3764H36.0538V32.1262Z" fill="#FAFAFA"/>
<path d="M40.6831 21.3738H40.0124C39.8446 21.3738 39.7085 21.5098 39.7085 21.6777V31.8197C39.7085 31.9876 39.8446 32.1236 40.0124 32.1236H40.6831C40.851 32.1236 40.9871 31.9876 40.9871 31.8197V21.6777C40.9871 21.5098 40.851 21.3738 40.6831 21.3738Z" fill="#F5F5F5"/>
<path d="M34.9663 21.3738H38.6317L38.3409 32.1263H34.9663V21.3738Z" fill="#FAFAFA"/>
<path d="M39.1059 21.3738H38.2518C38.1365 21.3738 38.0343 21.5677 38.0291 21.8087L37.7671 31.6913C37.7671 31.9298 37.8483 32.1263 37.9662 32.1263H38.8229C38.9382 32.1263 39.0378 31.9298 39.0457 31.6913L39.3077 21.8087C39.2998 21.5677 39.2212 21.3738 39.1059 21.3738Z" fill="#F0F0F0"/>
<path d="M42.4991 47.951H49.7905V37.2012H42.4991V47.951Z" fill="#FAFAFA"/>
<path d="M50.5688 37.1986H49.1697C48.9498 37.1986 48.7715 37.3769 48.7715 37.5968V47.5502C48.7715 47.7702 48.9498 47.9485 49.1697 47.9485H50.5688C50.7887 47.9485 50.967 47.7702 50.967 47.5502V37.5968C50.967 37.3769 50.7887 37.1986 50.5688 37.1986Z" fill="#F0F0F0"/>
<path d="M40.0469 47.951H47.3384V37.2012H40.0469V47.951Z" fill="#FAFAFA"/>
<path d="M48.1137 37.1986H46.7146C46.4947 37.1986 46.3164 37.3769 46.3164 37.5968V47.5502C46.3164 47.7702 46.4947 47.9485 46.7146 47.9485H48.1137C48.3337 47.9485 48.512 47.7702 48.512 47.5502V37.5968C48.512 37.3769 48.3337 37.1986 48.1137 37.1986Z" fill="#E6E6E6"/>
<path d="M38.1787 37.1986H44.4693L43.9689 47.9511H38.1787V37.1986Z" fill="#FAFAFA"/>
<path d="M45.2843 37.1986H43.8145C43.7075 37.2092 43.6085 37.26 43.5375 37.3407C43.4665 37.4214 43.4288 37.5261 43.4319 37.6335L42.9682 47.5162C42.9609 47.5675 42.964 47.6197 42.9775 47.6697C42.991 47.7197 43.0145 47.7665 43.0466 47.8072C43.0787 47.8479 43.1187 47.8816 43.1642 47.9063C43.2098 47.9311 43.2598 47.9463 43.3114 47.9511H44.7812C44.8877 47.9393 44.986 47.8882 45.0568 47.8078C45.1276 47.7273 45.1657 47.6233 45.1638 47.5162L45.6223 37.6335C45.63 37.5826 45.6272 37.5306 45.6142 37.4808C45.6012 37.4309 45.5782 37.3842 45.5466 37.3435C45.515 37.3028 45.4754 37.269 45.4303 37.2441C45.3852 37.2192 45.3355 37.2037 45.2843 37.1986Z" fill="#F0F0F0"/>
<path d="M53.676 47.9485H58.1431V38.8728H53.676V47.9485Z" fill="#FAFAFA"/>
<path d="M58.578 38.8754H57.8051C57.6474 38.8754 57.5195 39.0032 57.5195 39.1609V47.6655C57.5195 47.8232 57.6474 47.951 57.8051 47.951H58.578C58.7357 47.951 58.8636 47.8232 58.8636 47.6655V39.1609C58.8636 39.0032 58.7357 38.8754 58.578 38.8754Z" fill="#F0F0F0"/>
<path d="M52.1721 47.9485H56.6392V38.8728H52.1721V47.9485Z" fill="#FAFAFA"/>
<path d="M57.0741 38.8754H56.3012C56.1435 38.8754 56.0156 39.0032 56.0156 39.1609V47.6655C56.0156 47.8232 56.1435 47.951 56.3012 47.951H57.0741C57.2318 47.951 57.3597 47.8232 57.3597 47.6655V39.1609C57.3597 39.0032 57.2318 38.8754 57.0741 38.8754Z" fill="#E6E6E6"/>
<path d="M51.0273 38.8754H54.884L54.5774 47.951H51.0273V38.8754Z" fill="#FAFAFA"/>
<path d="M55.3817 38.8754H54.4804C54.3573 38.8754 54.2525 39.0404 54.2473 39.2422L53.9722 47.5842C53.9722 47.786 54.0586 47.951 54.1818 47.951H55.083C55.2062 47.951 55.311 47.786 55.3162 47.5842L55.5992 39.2422C55.5992 39.0404 55.5049 38.8754 55.3817 38.8754Z" fill="#F0F0F0"/>
<path d="M61.1297 47.951H64.8291V40.4343H61.1297V47.951Z" fill="#FAFAFA"/>
<path d="M65.1882 40.4316H64.5463C64.4161 40.4316 64.3105 40.5372 64.3105 40.6674V47.7126C64.3105 47.8428 64.4161 47.9484 64.5463 47.9484H65.1882C65.3185 47.9484 65.424 47.8428 65.424 47.7126V40.6674C65.424 40.5372 65.3185 40.4316 65.1882 40.4316Z" fill="#F0F0F0"/>
<path d="M59.8826 47.951H63.582V40.4343H59.8826V47.951Z" fill="#FAFAFA"/>
<path d="M63.9436 40.4316H63.3017C63.1715 40.4316 63.0659 40.5372 63.0659 40.6674V47.7126C63.0659 47.8428 63.1715 47.9484 63.3017 47.9484H63.9436C64.0738 47.9484 64.1794 47.8428 64.1794 47.7126V40.6674C64.1794 40.5372 64.0738 40.4316 63.9436 40.4316Z" fill="#E6E6E6"/>
<path d="M58.9341 40.4316H62.1279L61.8737 47.951H58.9341V40.4316Z" fill="#FAFAFA"/>
<path d="M62.5419 40.4316H61.7952C61.693 40.4316 61.6066 40.5679 61.6013 40.7356L61.3682 47.6471C61.3682 47.8148 61.4389 47.951 61.5411 47.951H62.2878C62.3873 47.951 62.4764 47.8148 62.4817 47.6471L62.7148 40.7356C62.7201 40.5679 62.6415 40.4316 62.5419 40.4316Z" fill="#F0F0F0"/>
<path d="M30.8112 47.9485H36.3394V38.8728H30.8112V47.9485Z" fill="#FAFAFA"/>
<path d="M36.916 38.8754H35.8864C35.7113 38.8754 35.5693 39.0173 35.5693 39.1924V47.634C35.5693 47.8091 35.7113 47.951 35.8864 47.951H36.916C37.0911 47.951 37.233 47.8091 37.233 47.634V39.1924C37.233 39.0173 37.0911 38.8754 36.916 38.8754Z" fill="#F0F0F0"/>
<path d="M28.9537 47.9485H34.4819V38.8728H28.9537V47.9485Z" fill="#FAFAFA"/>
<path d="M35.0527 38.8754H34.0231C33.848 38.8754 33.7061 39.0173 33.7061 39.1924V47.634C33.7061 47.8091 33.848 47.951 34.0231 47.951H35.0527C35.2278 47.951 35.3698 47.8091 35.3698 47.634V39.1924C35.3698 39.0173 35.2278 38.8754 35.0527 38.8754Z" fill="#E6E6E6"/>
<path d="M27.5361 38.8754H32.3072L31.9273 47.951H27.5361V38.8754Z" fill="#FAFAFA"/>
<path d="M32.9231 38.8754H31.8096C31.7243 38.8895 31.6472 38.9349 31.5935 39.0027C31.5397 39.0705 31.5131 39.1558 31.5188 39.2422L31.1782 47.5842C31.1782 47.786 31.2856 47.951 31.4402 47.951H32.5537C32.6391 47.9369 32.7161 47.8915 32.7699 47.8237C32.8236 47.756 32.8503 47.6706 32.8445 47.5842L33.193 39.2422C33.193 39.0404 33.0751 38.8754 32.9231 38.8754Z" fill="#F0F0F0"/>
<path d="M23.061 47.951H26.915V38.1968H23.061V47.951Z" fill="#FAFAFA"/>
<path d="M27.261 38.1942H26.6506C26.4987 38.1942 26.3755 38.3174 26.3755 38.4693V47.6734C26.3755 47.8253 26.4987 47.9485 26.6506 47.9485H27.261C27.413 47.9485 27.5361 47.8253 27.5361 47.6734V38.4693C27.5361 38.3174 27.413 38.1942 27.261 38.1942Z" fill="#F0F0F0"/>
<path d="M19.8516 47.951H24.0986V37.2012H19.8516V47.951Z" fill="#FAFAFA"/>
<path d="M24.4785 37.1986H23.8078C23.64 37.1986 23.5039 37.3347 23.5039 37.5025V47.6445C23.5039 47.8124 23.64 47.9485 23.8078 47.9485H24.4785C24.6464 47.9485 24.7825 47.8124 24.7825 47.6445V37.5025C24.7825 37.3347 24.6464 37.1986 24.4785 37.1986Z" fill="#F5F5F5"/>
<path d="M18.7646 37.1986H22.43L22.1392 47.9511H18.7646V37.1986Z" fill="#FAFAFA"/>
<path d="M22.9039 37.1986H22.0472C21.9293 37.1986 21.8297 37.3925 21.8245 37.6335L21.5625 47.5162C21.5625 47.7546 21.6463 47.9511 21.7642 47.9511H22.6105C22.7284 47.9511 22.828 47.7546 22.8332 47.5162L23.0952 37.6335C23.1083 37.3925 23.0192 37.1986 22.9039 37.1986Z" fill="#F0F0F0"/>
<path d="M23.0874 63.7759H30.3789V53.026H23.0874V63.7759Z" fill="#FAFAFA"/>
<path d="M31.1543 53.0234H29.7552C29.5352 53.0234 29.3569 53.2017 29.3569 53.4217V63.3751C29.3569 63.595 29.5352 63.7733 29.7552 63.7733H31.1543C31.3742 63.7733 31.5525 63.595 31.5525 63.3751V53.4217C31.5525 53.2017 31.3742 53.0234 31.1543 53.0234Z" fill="#F0F0F0"/>
<path d="M20.6299 63.7759H27.9214V53.026H20.6299V63.7759Z" fill="#FAFAFA"/>
<path d="M28.7021 53.0234H27.303C27.0831 53.0234 26.9048 53.2017 26.9048 53.4217V63.3751C26.9048 63.595 27.0831 63.7733 27.303 63.7733H28.7021C28.922 63.7733 29.1003 63.595 29.1003 63.3751V53.4217C29.1003 53.2017 28.922 53.0234 28.7021 53.0234Z" fill="#E6E6E6"/>
<path d="M18.7646 53.0234H25.0579L24.5575 63.7759H18.7646V53.0234Z" fill="#FAFAFA"/>
<path d="M25.8697 53.0234H24.3999C24.2929 53.034 24.1939 53.0848 24.1229 53.1655C24.0519 53.2462 24.0142 53.3509 24.0173 53.4584L23.5562 63.341C23.5493 63.3922 23.5527 63.4443 23.5664 63.4942C23.58 63.5441 23.6035 63.5907 23.6355 63.6313C23.6676 63.6719 23.7074 63.7056 23.7528 63.7304C23.7981 63.7553 23.848 63.7708 23.8994 63.7759H25.3693C25.4758 63.7642 25.574 63.7131 25.6448 63.6326C25.7156 63.5521 25.7537 63.4481 25.7518 63.341L26.2129 53.4584C26.2202 53.4071 26.217 53.3548 26.2036 53.3048C26.1901 53.2548 26.1666 53.208 26.1345 53.1673C26.1024 53.1267 26.0624 53.0929 26.0169 53.0682C25.9713 53.0435 25.9213 53.0282 25.8697 53.0234Z" fill="#F0F0F0"/>
<path d="M56.8068 63.7732H62.335V54.6975H56.8068V63.7732Z" fill="#FAFAFA"/>
<path d="M62.9087 54.7002H61.879C61.7039 54.7002 61.562 54.8421 61.562 55.0172V63.4589C61.562 63.6339 61.7039 63.7759 61.879 63.7759H62.9087C63.0838 63.7759 63.2257 63.6339 63.2257 63.4589V55.0172C63.2257 54.8421 63.0838 54.7002 62.9087 54.7002Z" fill="#F0F0F0"/>
<path d="M54.944 63.7732H60.4722V54.6975H54.944V63.7732Z" fill="#FAFAFA"/>
<path d="M61.0488 54.7002H60.0192C59.8441 54.7002 59.7021 54.8421 59.7021 55.0172V63.4589C59.7021 63.6339 59.8441 63.7759 60.0192 63.7759H61.0488C61.2239 63.7759 61.3659 63.6339 61.3659 63.4589V55.0172C61.3659 54.8421 61.2239 54.7002 61.0488 54.7002Z" fill="#E6E6E6"/>
<path d="M53.5293 54.7002H58.3003L57.9204 63.7759H53.5293V54.7002Z" fill="#FAFAFA"/>
<path d="M58.9159 54.7002H57.8024C57.6504 54.7002 57.522 54.8653 57.5115 55.067L57.1631 63.4091C57.1631 63.6108 57.2705 63.7759 57.4251 63.7759H58.5412C58.6932 63.7759 58.8215 63.6108 58.8294 63.4091L59.1805 55.067C59.1857 54.8653 59.0678 54.7002 58.9159 54.7002Z" fill="#F0F0F0"/>
<path d="M49.6779 63.7732H55.2061V54.6975H49.6779V63.7732Z" fill="#FAFAFA"/>
<path d="M55.7798 54.7002H54.7501C54.575 54.7002 54.4331 54.8421 54.4331 55.0172V63.4589C54.4331 63.6339 54.575 63.7759 54.7501 63.7759H55.7798C55.9549 63.7759 56.0968 63.6339 56.0968 63.4589V55.0172C56.0968 54.8421 55.9549 54.7002 55.7798 54.7002Z" fill="#F0F0F0"/>
<path d="M47.8175 63.7732H53.3457V54.6975H47.8175V63.7732Z" fill="#FAFAFA"/>
<path d="M53.9194 54.7002H52.8898C52.7147 54.7002 52.5728 54.8421 52.5728 55.0172V63.4589C52.5728 63.6339 52.7147 63.7759 52.8898 63.7759H53.9194C54.0945 63.7759 54.2365 63.6339 54.2365 63.4589V55.0172C54.2365 54.8421 54.0945 54.7002 53.9194 54.7002Z" fill="#E6E6E6"/>
<path d="M46.4028 54.7002H51.1712L50.794 63.7759H46.4028V54.7002Z" fill="#FAFAFA"/>
<path d="M51.7895 54.7002H50.6734C50.5215 54.7002 50.3931 54.8653 50.3852 55.067L50.042 63.4091C50.042 63.6108 50.152 63.7759 50.304 63.7759H51.4175C51.5695 63.7759 51.6978 63.6108 51.7083 63.4091L52.0568 55.067C52.0568 54.8653 51.9415 54.7002 51.7895 54.7002Z" fill="#F0F0F0"/>
<path d="M39.2632 63.7759H43.1172V54.0216H39.2632V63.7759Z" fill="#FAFAFA"/>
<path d="M43.4656 54.019H42.8552C42.7032 54.019 42.5801 54.1422 42.5801 54.2941V63.4982C42.5801 63.6501 42.7032 63.7733 42.8552 63.7733H43.4656C43.6176 63.7733 43.7407 63.6501 43.7407 63.4982V54.2941C43.7407 54.1422 43.6176 54.019 43.4656 54.019Z" fill="#F0F0F0"/>
<path d="M36.0538 63.7759H40.3008V53.026H36.0538V63.7759Z" fill="#FAFAFA"/>
<path d="M40.6831 53.0234H40.0124C39.8446 53.0234 39.7085 53.1595 39.7085 53.3274V63.4694C39.7085 63.6372 39.8446 63.7733 40.0124 63.7733H40.6831C40.851 63.7733 40.9871 63.6372 40.9871 63.4694V53.3274C40.9871 53.1595 40.851 53.0234 40.6831 53.0234Z" fill="#F5F5F5"/>
<path d="M34.9663 53.0234H38.6317L38.3409 63.7759H34.9663V53.0234Z" fill="#FAFAFA"/>
<path d="M39.1059 53.0234H38.2518C38.1365 53.0234 38.0343 53.2173 38.0291 53.4584L37.7671 63.341C37.7671 63.5794 37.8483 63.7759 37.9662 63.7759H38.8229C38.9382 63.7759 39.0378 63.5794 39.0457 63.341L39.3077 53.4584C39.2998 53.2121 39.2212 53.0234 39.1059 53.0234Z" fill="#F0F0F0"/>
<path d="M21.5312 94.1888H26.2026V83.439H21.5312V94.1888Z" fill="#FAFAFA"/>
<path d="M26.6402 83.4364H25.8673C25.6922 83.4364 25.5503 83.5783 25.5503 83.7534V93.8692C25.5503 94.0443 25.6922 94.1863 25.8673 94.1863H26.6402C26.8153 94.1863 26.9572 94.0443 26.9572 93.8692V83.7534C26.9572 83.5783 26.8153 83.4364 26.6402 83.4364Z" fill="#F0F0F0"/>
<path d="M19.9618 94.1888H24.6333V83.439H19.9618V94.1888Z" fill="#FAFAFA"/>
<path d="M25.0679 83.4364H24.295C24.12 83.4364 23.978 83.5783 23.978 83.7534V93.8692C23.978 94.0443 24.12 94.1863 24.295 94.1863H25.0679C25.243 94.1863 25.385 94.0443 25.385 93.8692V83.7534C25.385 83.5783 25.243 83.4364 25.0679 83.4364Z" fill="#E6E6E6"/>
<path d="M18.7646 83.439H22.7942L22.4746 94.1888H18.7646V83.439Z" fill="#FAFAFA"/>
<path d="M23.3179 83.4364H22.3747C22.2463 83.4364 22.1363 83.6329 22.1284 83.8713L21.835 93.754C21.835 93.995 21.9267 94.1889 22.055 94.1889H22.9956C23.124 94.1889 23.234 93.995 23.2419 93.754L23.5353 83.8661C23.5432 83.6329 23.4436 83.4364 23.3179 83.4364Z" fill="#F0F0F0"/>
<path d="M60.6162 94.1888H65.4868V85.1132H60.6162V94.1888Z" fill="#FAFAFA"/>
<path d="M65.9742 85.1132H65.1043C64.9394 85.1132 64.8057 85.2469 64.8057 85.4118V93.8902C64.8057 94.0551 64.9394 94.1888 65.1043 94.1888H65.9742C66.1391 94.1888 66.2729 94.0551 66.2729 93.8902V85.4118C66.2729 85.2469 66.1391 85.1132 65.9742 85.1132Z" fill="#F0F0F0"/>
<path d="M58.9761 94.1888H63.8467V85.1132H58.9761V94.1888Z" fill="#FAFAFA"/>
<path d="M64.334 85.1132H63.4642C63.2993 85.1132 63.1655 85.2469 63.1655 85.4118V93.8902C63.1655 94.0551 63.2993 94.1888 63.4642 94.1888H64.334C64.499 94.1888 64.6327 94.0551 64.6327 93.8902V85.4118C64.6327 85.2469 64.499 85.1132 64.334 85.1132Z" fill="#E6E6E6"/>
<path d="M57.729 85.1132H61.9315L61.5961 94.1888H57.729V85.1132Z" fill="#FAFAFA"/>
<path d="M62.4765 85.1132H61.494C61.3603 85.1132 61.232 85.2782 61.232 85.48L60.9307 93.822C60.9307 94.0238 61.025 94.1888 61.1586 94.1888H62.1411C62.2747 94.1888 62.39 94.0238 62.4031 93.822L62.7096 85.48C62.7123 85.2782 62.6179 85.1132 62.4765 85.1132Z" fill="#F0F0F0"/>
<path d="M54.3335 94.1888H59.2041V85.1132H54.3335V94.1888Z" fill="#FAFAFA"/>
<path d="M59.6915 85.1132H58.8216C58.6567 85.1132 58.5229 85.2469 58.5229 85.4118V93.8902C58.5229 94.0551 58.6567 94.1888 58.8216 94.1888H59.6915C59.8564 94.1888 59.9902 94.0551 59.9902 93.8902V85.4118C59.9902 85.2469 59.8564 85.1132 59.6915 85.1132Z" fill="#F0F0F0"/>
<path d="M52.6934 94.1888H57.564V85.1132H52.6934V94.1888Z" fill="#FAFAFA"/>
<path d="M58.0513 85.1132H57.1815C57.0165 85.1132 56.8828 85.2469 56.8828 85.4118V93.8902C56.8828 94.0551 57.0165 94.1888 57.1815 94.1888H58.0513C58.2163 94.1888 58.35 94.0551 58.35 93.8902V85.4118C58.35 85.2469 58.2163 85.1132 58.0513 85.1132Z" fill="#E6E6E6"/>
<path d="M51.4463 85.1132H55.6488L55.316 94.1888H51.4463V85.1132Z" fill="#FAFAFA"/>
<path d="M56.1937 85.1132H55.2112C55.0776 85.1132 54.9623 85.2782 54.9492 85.48L54.6479 93.822C54.6479 94.0238 54.7423 94.1888 54.8759 94.1888H55.8584C55.992 94.1888 56.1204 94.0238 56.1204 93.822L56.4269 85.48C56.4295 85.2782 56.33 85.1132 56.1937 85.1132Z" fill="#F0F0F0"/>
<path d="M49.332 94.1888H52.7275V84.4346H49.332V94.1888Z" fill="#FAFAFA"/>
<path d="M52.5125 84.4346H53.0182C53.0876 84.4346 53.1543 84.4622 53.2034 84.5113C53.2525 84.5604 53.2802 84.6271 53.2802 84.6966V93.9347C53.2802 94.0042 53.2525 94.0708 53.2034 94.12C53.1543 94.1691 53.0876 94.1967 53.0182 94.1967H52.5125C52.443 94.1967 52.3764 94.1691 52.3272 94.12C52.2781 94.0708 52.2505 94.0042 52.2505 93.9347V84.6913C52.2519 84.6228 52.2801 84.5574 52.3291 84.5094C52.378 84.4614 52.4439 84.4346 52.5125 84.4346Z" fill="#F0F0F0"/>
<path d="M46.5052 94.1888H50.2466V83.439H46.5052V94.1888Z" fill="#FAFAFA"/>
<path d="M50.5632 83.4364H50.0077C49.85 83.4364 49.7222 83.5643 49.7222 83.722V93.9007C49.7222 94.0584 49.85 94.1863 50.0077 94.1863H50.5632C50.7209 94.1863 50.8488 94.0584 50.8488 93.9007V83.722C50.8488 83.5643 50.7209 83.4364 50.5632 83.4364Z" fill="#F5F5F5"/>
<path d="M45.5459 83.439H48.7764L48.5196 94.1888H45.5459V83.439Z" fill="#FAFAFA"/>
<path d="M49.1932 83.4364H48.4387C48.3365 83.4364 48.2474 83.6329 48.2422 83.8713L48.0063 93.754C48.0063 93.995 48.0797 94.1889 48.1819 94.1889H48.9364C49.0386 94.1889 49.1277 93.995 49.1329 93.754L49.3687 83.8713C49.374 83.6329 49.2954 83.4364 49.1932 83.4364Z" fill="#F0F0F0"/>
<path d="M42.4991 79.6007H49.7905V68.8508H42.4991V79.6007Z" fill="#FAFAFA"/>
<path d="M50.5688 68.8481H49.1697C48.9498 68.8481 48.7715 69.0264 48.7715 69.2464V79.1998C48.7715 79.4197 48.9498 79.598 49.1697 79.598H50.5688C50.7887 79.598 50.967 79.4197 50.967 79.1998V69.2464C50.967 69.0264 50.7887 68.8481 50.5688 68.8481Z" fill="#F0F0F0"/>
<path d="M40.0469 79.6007H47.3384V68.8508H40.0469V79.6007Z" fill="#FAFAFA"/>
<path d="M48.1137 68.8481H46.7146C46.4947 68.8481 46.3164 69.0264 46.3164 69.2464V79.1998C46.3164 79.4197 46.4947 79.598 46.7146 79.598H48.1137C48.3337 79.598 48.512 79.4197 48.512 79.1998V69.2464C48.512 69.0264 48.3337 68.8481 48.1137 68.8481Z" fill="#E6E6E6"/>
<path d="M38.1787 68.8481H44.4693L43.9689 79.6006H38.1787V68.8481Z" fill="#FAFAFA"/>
<path d="M45.2843 68.8481H43.8145C43.7077 68.8593 43.6091 68.9103 43.5382 68.9909C43.4673 69.0714 43.4294 69.1758 43.4319 69.2831L42.9682 79.1657C42.9609 79.217 42.964 79.2692 42.9775 79.3193C42.991 79.3693 43.0145 79.4161 43.0466 79.4567C43.0787 79.4974 43.1187 79.5311 43.1642 79.5559C43.2098 79.5806 43.2598 79.5958 43.3114 79.6006H44.7812C44.8877 79.5889 44.986 79.5378 45.0568 79.4573C45.1276 79.3768 45.1657 79.2728 45.1638 79.1657L45.6223 69.2831C45.6296 69.2322 45.6266 69.1803 45.6134 69.1306C45.6003 69.0809 45.5772 69.0344 45.5457 68.9938C45.5141 68.9532 45.4747 68.9194 45.4298 68.8943C45.3849 68.8693 45.3354 68.8536 45.2843 68.8481Z" fill="#F0F0F0"/>
<path d="M53.676 79.598H58.1431V70.5223H53.676V79.598Z" fill="#FAFAFA"/>
<path d="M58.578 70.525H57.8051C57.6474 70.525 57.5195 70.6529 57.5195 70.8106V79.3151C57.5195 79.4729 57.6474 79.6007 57.8051 79.6007H58.578C58.7357 79.6007 58.8636 79.4729 58.8636 79.3151V70.8106C58.8636 70.6529 58.7357 70.525 58.578 70.525Z" fill="#F0F0F0"/>
<path d="M52.1721 79.598H56.6392V70.5223H52.1721V79.598Z" fill="#FAFAFA"/>
<path d="M57.0741 70.525H56.3012C56.1435 70.525 56.0156 70.6529 56.0156 70.8106V79.3151C56.0156 79.4729 56.1435 79.6007 56.3012 79.6007H57.0741C57.2318 79.6007 57.3597 79.4729 57.3597 79.3151V70.8106C57.3597 70.6529 57.2318 70.525 57.0741 70.525Z" fill="#E6E6E6"/>
<path d="M51.0273 70.525H54.884L54.5774 79.6007H51.0273V70.525Z" fill="#FAFAFA"/>
<path d="M55.3817 70.525H54.4804C54.3573 70.525 54.2525 70.6901 54.2473 70.8918L53.9722 79.2339C53.9722 79.4356 54.0586 79.6007 54.1818 79.6007H55.083C55.2062 79.6007 55.311 79.4356 55.3162 79.2339L55.5992 70.8918C55.5992 70.6901 55.5049 70.525 55.3817 70.525Z" fill="#F0F0F0"/>
<path d="M61.1297 79.6007H64.8291V72.0839H61.1297V79.6007Z" fill="#FAFAFA"/>
<path d="M65.1882 72.0813H64.5463C64.4161 72.0813 64.3105 72.1869 64.3105 72.3171V79.3623C64.3105 79.4925 64.4161 79.5981 64.5463 79.5981H65.1882C65.3185 79.5981 65.424 79.4925 65.424 79.3623V72.3171C65.424 72.1869 65.3185 72.0813 65.1882 72.0813Z" fill="#F0F0F0"/>
<path d="M59.8826 79.6007H63.582V72.0839H59.8826V79.6007Z" fill="#FAFAFA"/>
<path d="M63.9436 72.0813H63.3017C63.1715 72.0813 63.0659 72.1869 63.0659 72.3171V79.3623C63.0659 79.4925 63.1715 79.5981 63.3017 79.5981H63.9436C64.0738 79.5981 64.1794 79.4925 64.1794 79.3623V72.3171C64.1794 72.1869 64.0738 72.0813 63.9436 72.0813Z" fill="#E6E6E6"/>
<path d="M58.9341 72.0813H62.1279L61.8737 79.6007H58.9341V72.0813Z" fill="#FAFAFA"/>
<path d="M62.5419 72.076H61.7952C61.693 72.076 61.6066 72.2123 61.6013 72.38L61.3682 79.2915C61.3682 79.4592 61.4389 79.5955 61.5411 79.5955H62.2878C62.3873 79.5955 62.4764 79.4592 62.4817 79.2915L62.7148 72.38C62.7201 72.2175 62.6415 72.076 62.5419 72.076Z" fill="#F0F0F0"/>
<path d="M30.8112 79.598H36.3394V70.5223H30.8112V79.598Z" fill="#FAFAFA"/>
<path d="M36.916 70.525H35.8864C35.7113 70.525 35.5693 70.667 35.5693 70.8421V79.2837C35.5693 79.4588 35.7113 79.6007 35.8864 79.6007H36.916C37.0911 79.6007 37.233 79.4588 37.233 79.2837V70.8421C37.233 70.667 37.0911 70.525 36.916 70.525Z" fill="#F0F0F0"/>
<path d="M28.9537 79.598H34.4819V70.5223H28.9537V79.598Z" fill="#FAFAFA"/>
<path d="M35.0527 70.525H34.0231C33.848 70.525 33.7061 70.667 33.7061 70.8421V79.2837C33.7061 79.4588 33.848 79.6007 34.0231 79.6007H35.0527C35.2278 79.6007 35.3698 79.4588 35.3698 79.2837V70.8421C35.3698 70.667 35.2278 70.525 35.0527 70.525Z" fill="#E6E6E6"/>
<path d="M27.5361 70.525H32.3072L31.9273 79.6007H27.5361V70.525Z" fill="#FAFAFA"/>
<path d="M32.9231 70.525H31.8096C31.7243 70.5391 31.6472 70.5845 31.5935 70.6523C31.5397 70.7201 31.5131 70.8055 31.5188 70.8918L31.1782 79.2339C31.1782 79.4356 31.2856 79.6007 31.4402 79.6007H32.5537C32.6391 79.5866 32.7161 79.5412 32.7699 79.4734C32.8236 79.4056 32.8503 79.3202 32.8445 79.2339L33.193 70.8918C33.193 70.6901 33.0751 70.525 32.9231 70.525Z" fill="#F0F0F0"/>
<path d="M23.061 79.6007H26.915V69.8465H23.061V79.6007Z" fill="#FAFAFA"/>
<path d="M27.261 69.8438H26.6506C26.4987 69.8438 26.3755 69.9669 26.3755 70.1188V79.3229C26.3755 79.4748 26.4987 79.598 26.6506 79.598H27.261C27.413 79.598 27.5361 79.4748 27.5361 79.3229V70.1188C27.5361 69.9669 27.413 69.8438 27.261 69.8438Z" fill="#F0F0F0"/>
<path d="M19.8516 79.6007H24.0986V68.8508H19.8516V79.6007Z" fill="#FAFAFA"/>
<path d="M24.4785 68.8481H23.8078C23.64 68.8481 23.5039 68.9842 23.5039 69.1521V79.2941C23.5039 79.4619 23.64 79.598 23.8078 79.598H24.4785C24.6464 79.598 24.7825 79.4619 24.7825 79.2941V69.1521C24.7825 68.9842 24.6464 68.8481 24.4785 68.8481Z" fill="#F5F5F5"/>
<path d="M18.7646 68.8481H22.43L22.1392 79.6006H18.7646V68.8481Z" fill="#FAFAFA"/>
<path d="M22.9039 68.8481H22.0472C21.9293 68.8481 21.8297 69.0446 21.8245 69.2831L21.5625 79.1657C21.5625 79.4041 21.6463 79.6006 21.7642 79.6006H22.6105C22.7284 79.6006 22.828 79.4041 22.8332 79.1657L23.0952 69.2831C23.1083 69.0446 23.0192 68.8481 22.9039 68.8481Z" fill="#F0F0F0"/>
<path d="M40.4372 94.1888H45.8423V82.577H40.4372V94.1888Z" fill="#FAFAFA"/>
<path d="M46.3581 82.577H45.4437C45.2469 82.577 45.0874 82.7366 45.0874 82.9334V93.8326C45.0874 94.0293 45.2469 94.1889 45.4437 94.1889H46.3581C46.5549 94.1889 46.7144 94.0293 46.7144 93.8326V82.9334C46.7144 82.7366 46.5549 82.577 46.3581 82.577Z" fill="#F0F0F0"/>
<path d="M38.6189 94.1888H44.0239V82.577H38.6189V94.1888Z" fill="#FAFAFA"/>
<path d="M44.5373 82.577H43.6229C43.4261 82.577 43.2666 82.7366 43.2666 82.9334V93.8326C43.2666 94.0293 43.4261 94.1889 43.6229 94.1889H44.5373C44.7341 94.1889 44.8936 94.0293 44.8936 93.8326V82.9334C44.8936 82.7366 44.7341 82.577 44.5373 82.577Z" fill="#E6E6E6"/>
<path d="M37.2329 82.577H41.8965L41.5271 94.1889H37.2329V82.577Z" fill="#FAFAFA"/>
<path d="M42.5017 82.577H41.4118C41.2625 82.577 41.1341 82.7866 41.1262 83.046L40.7856 93.7199C40.7856 93.9819 40.8904 94.1889 41.0476 94.1889H42.1376C42.2869 94.1889 42.3996 93.9793 42.4205 93.7199L42.7611 83.046C42.7637 82.7866 42.6485 82.577 42.5017 82.577Z" fill="#F0F0F0"/>
<path d="M32.3779 94.1888H37.0493V84.0809H32.3779V94.1888Z" fill="#FAFAFA"/>
<path d="M37.4948 84.0809H36.7061C36.5354 84.0809 36.397 84.2193 36.397 84.3901V93.8797C36.397 94.0505 36.5354 94.1889 36.7061 94.1889H37.4948C37.6655 94.1889 37.8039 94.0505 37.8039 93.8797V84.3901C37.8039 84.2193 37.6655 84.0809 37.4948 84.0809Z" fill="#F0F0F0"/>
<path d="M30.8061 94.1888H35.4775V84.0809H30.8061V94.1888Z" fill="#FAFAFA"/>
<path d="M35.923 84.0809H35.1344C34.9636 84.0809 34.8252 84.2193 34.8252 84.3901V93.8797C34.8252 94.0505 34.9636 94.1889 35.1344 94.1889H35.923C36.0937 94.1889 36.2321 94.0505 36.2321 93.8797V84.3901C36.2321 84.2193 36.0937 84.0809 35.923 84.0809Z" fill="#E6E6E6"/>
<path d="M29.6113 84.0809H33.6409L33.3212 94.1889H29.6113V84.0809Z" fill="#FAFAFA"/>
<path d="M34.1619 84.0809H33.2214C33.093 84.0809 32.9829 84.2643 32.9751 84.4897L32.6816 93.7802C32.6816 94.0055 32.7707 94.1889 32.8991 94.1889H33.8423C33.9707 94.1889 34.0807 94.0055 34.086 93.7802L34.382 84.4897C34.3899 84.2643 34.2903 84.0809 34.1619 84.0809Z" fill="#F0F0F0"/>
<path d="M65.4999 106.021C93.5555 106.021 116.299 104.693 116.299 103.055C116.299 101.417 93.5555 100.089 65.4999 100.089C37.4443 100.089 14.7007 101.417 14.7007 103.055C14.7007 104.693 37.4443 106.021 65.4999 106.021Z" fill="#F5F5F5"/>
<path d="M60.2943 102.368C60.3208 102.449 60.3272 102.535 60.313 102.619C60.2988 102.703 60.2644 102.782 60.2129 102.849C60.1613 102.917 60.094 102.971 60.0169 103.007C59.9398 103.043 59.8552 103.059 59.7703 103.055H23.2737C22.134 103.055 22.134 95.6324 23.2737 95.6324H59.7808C59.8654 95.6284 59.9497 95.6449 60.0265 95.6805C60.1033 95.7162 60.1704 95.7699 60.2219 95.8371C60.2734 95.9043 60.3078 95.983 60.3223 96.0665C60.3367 96.1499 60.3307 96.2356 60.3048 96.3163C59.8489 97.7311 59.8489 100.956 60.2943 102.368Z" fill="#407BFF"/>
<path opacity="0.8" d="M60.2416 96.4998H38.0948C37.2223 96.4998 37.2223 102.188 38.0948 102.188H60.2416C59.867 100.76 59.867 97.925 60.2416 96.4998Z" fill="white"/>
<path opacity="0.2" d="M36.992 102.368C37.0185 102.449 37.0249 102.535 37.0107 102.619C36.9965 102.703 36.9622 102.782 36.9106 102.849C36.859 102.917 36.7918 102.971 36.7147 103.007C36.6376 103.043 36.5529 103.059 36.468 103.055H23.2737C22.134 103.055 22.134 95.6324 23.2737 95.6324H36.4785C36.5631 95.6284 36.6474 95.6449 36.7242 95.6805C36.8011 95.7162 36.8681 95.7699 36.9196 95.8371C36.9711 95.9043 37.0056 95.983 37.02 96.0665C37.0345 96.1499 37.0284 96.2356 37.0025 96.3163C36.5466 97.7311 36.5466 100.956 36.992 102.368Z" fill="black"/>
<path d="M28.9016 95.6324H25.886C24.7463 95.6324 24.7463 103.055 25.886 103.055H28.9016C27.7724 103.055 27.7724 95.6324 28.9016 95.6324Z" fill="#407BFF"/>
<path d="M31.2778 95.6324H30.0935C28.9538 95.6324 28.9538 103.055 30.0935 103.055H31.2778C30.1302 103.055 30.1302 95.6324 31.2778 95.6324Z" fill="#407BFF"/>
<path d="M21.1462 95.0168C21.0204 95.3207 21.3296 95.6325 21.7488 95.6325H54.5722C55.911 95.6325 55.911 88.9594 54.5722 88.9594H21.7462C21.327 88.9594 21.0178 89.2685 21.1436 89.5751C21.6676 90.8458 21.6676 93.7461 21.1462 95.0168Z" fill="#263238"/>
<path opacity="0.2" d="M21.1462 95.0168C21.0204 95.3207 21.3296 95.6325 21.7488 95.6325H37.8435C39.1823 95.6325 39.1823 88.9594 37.8435 88.9594H21.7462C21.327 88.9594 21.0178 89.2685 21.1436 89.5751C21.6676 90.8458 21.6676 93.7461 21.1462 95.0168Z" fill="black"/>
<path opacity="0.8" d="M21.2036 89.7374H37.1856C38.21 89.7374 38.21 94.8517 37.1856 94.8517H21.2036C21.6438 93.56 21.6438 91.0212 21.2036 89.7374Z" fill="white"/>
<path opacity="0.2" d="M42.4939 90.4475C42.3944 90.1515 42.6826 89.8633 43.0808 89.8633H52.2691C53.2438 89.8633 53.2438 94.726 52.2691 94.726H43.0808C42.6826 94.726 42.3944 94.4404 42.4939 94.1444C42.8083 92.9321 42.8083 91.6598 42.4939 90.4475Z" fill="white"/>
<path d="M108.921 92.0378C108.95 92.1264 108.959 92.2205 108.946 92.3129C108.933 92.4052 108.899 92.4933 108.846 92.5704C108.794 92.6476 108.725 92.7117 108.644 92.7579C108.563 92.8041 108.472 92.8311 108.379 92.8369H69.8126C68.6074 92.8369 68.6074 84.1909 69.8126 84.1909H108.379C108.471 84.1972 108.559 84.2241 108.639 84.2695C108.719 84.3149 108.787 84.3777 108.84 84.4532C108.892 84.5288 108.926 84.6151 108.94 84.7057C108.954 84.7964 108.948 84.8891 108.921 84.9769C108.452 86.6406 108.452 90.3951 108.921 92.0378Z" fill="#407BFF"/>
<path opacity="0.5" d="M108.921 92.0378C108.95 92.1264 108.959 92.2205 108.946 92.3129C108.933 92.4052 108.899 92.4933 108.846 92.5704C108.794 92.6476 108.725 92.7117 108.644 92.7579C108.563 92.8041 108.472 92.8311 108.379 92.8369H69.8126C68.6074 92.8369 68.6074 84.1909 69.8126 84.1909H108.379C108.471 84.1972 108.559 84.2241 108.639 84.2695C108.719 84.3149 108.787 84.3777 108.84 84.4532C108.892 84.5288 108.926 84.6151 108.94 84.7057C108.954 84.7964 108.948 84.8891 108.921 84.9769C108.452 86.6406 108.452 90.3951 108.921 92.0378Z" fill="white"/>
<path opacity="0.8" d="M108.869 85.2075H85.47C84.5478 85.2075 84.5478 91.8256 85.47 91.8256H108.869C108.468 90.1672 108.468 86.8686 108.869 85.2075Z" fill="white"/>
<path opacity="0.6" d="M84.3038 92.0378C84.3328 92.1264 84.3411 92.2205 84.3281 92.3129C84.3151 92.4052 84.2811 92.4933 84.2287 92.5704C84.1764 92.6476 84.107 92.7117 84.026 92.7579C83.945 92.8041 83.8545 92.8311 83.7615 92.8369H69.8126C68.6074 92.8369 68.6074 84.1909 69.8126 84.1909H83.7615C83.853 84.1972 83.942 84.2241 84.0217 84.2695C84.1014 84.3149 84.1699 84.3777 84.222 84.4532C84.2741 84.5288 84.3086 84.6151 84.3227 84.7057C84.3369 84.7964 84.3304 84.8891 84.3038 84.9769C83.8401 86.6406 83.8401 90.3951 84.3038 92.0378Z" fill="#407BFF"/>
<path opacity="0.5" d="M78.6448 84.8381C78.6721 84.7704 78.6832 84.6973 78.6771 84.6245C78.671 84.5518 78.6479 84.4815 78.6096 84.4193C78.5714 84.3571 78.5191 84.3048 78.457 84.2665C78.3948 84.2282 78.3245 84.205 78.2518 84.1989H72.9332C71.728 84.1989 71.728 92.8449 72.9332 92.8449H78.2518C78.3246 92.8383 78.3949 92.8148 78.457 92.7762C78.5192 92.7376 78.5714 92.685 78.6096 92.6227C78.6478 92.5603 78.6708 92.4899 78.677 92.417C78.6831 92.3441 78.6721 92.2708 78.6448 92.203C78.1077 90.5969 78.1077 86.439 78.6448 84.8381Z" fill="white"/>
<path d="M106.155 102.104C106.186 102.219 106.189 102.339 106.164 102.456C106.139 102.572 106.087 102.681 106.012 102.773C105.937 102.865 105.84 102.938 105.731 102.986C105.622 103.034 105.503 103.055 105.385 103.047H65.3144C63.6035 103.047 63.6009 92.8291 65.3144 92.8291H105.4C105.519 92.8217 105.638 92.8426 105.747 92.8902C105.856 92.9379 105.952 93.0108 106.028 93.103C106.103 93.1952 106.155 93.304 106.18 93.4204C106.205 93.5368 106.202 93.6574 106.171 93.7723C105.487 95.719 105.489 100.16 106.155 102.104Z" fill="#407BFF"/>
<path opacity="0.2" d="M106.155 102.104C106.186 102.219 106.189 102.339 106.164 102.456C106.139 102.572 106.087 102.681 106.012 102.773C105.937 102.865 105.84 102.938 105.731 102.986C105.622 103.034 105.503 103.055 105.385 103.047H65.3144C63.6035 103.047 63.6009 92.8291 65.3144 92.8291H105.4C105.519 92.8217 105.638 92.8426 105.747 92.8902C105.856 92.9379 105.952 93.0108 106.028 93.103C106.103 93.1952 106.155 93.304 106.18 93.4204C106.205 93.5368 106.202 93.6574 106.171 93.7723C105.487 95.719 105.489 100.16 106.155 102.104Z" fill="white"/>
<path opacity="0.8" d="M106.076 94.0238H81.8492C80.5392 94.0238 80.5392 101.852 81.8492 101.852H106.079C105.518 99.89 105.518 95.9888 106.076 94.0238Z" fill="white"/>
<path opacity="0.6" d="M80.1934 102.109C80.2249 102.224 80.2286 102.344 80.2041 102.461C80.1796 102.577 80.1277 102.686 80.0526 102.779C79.9774 102.871 79.8814 102.944 79.7723 102.991C79.6633 103.039 79.5445 103.06 79.4257 103.052H65.3144C63.6035 103.052 63.6009 92.8344 65.3144 92.8344H79.4257C79.5445 92.8269 79.6634 92.8479 79.7724 92.8955C79.8815 92.9431 79.9777 93.016 80.053 93.1082C80.1283 93.2004 80.1805 93.3092 80.2054 93.4256C80.2302 93.542 80.227 93.6626 80.196 93.7775C79.5279 95.7242 79.5279 100.162 80.1934 102.109Z" fill="#407BFF"/>
<path opacity="0.5" d="M71.7412 93.1906C71.7631 93.1532 71.7742 93.1105 71.7733 93.0672C71.7725 93.0239 71.7597 92.9816 71.7364 92.945C71.7132 92.9085 71.6803 92.8791 71.6414 92.86C71.6024 92.8409 71.559 92.833 71.5159 92.8369H69.1186C67.4103 92.8369 67.4103 103.055 69.1186 103.055H71.5264C71.5695 103.059 71.6129 103.051 71.6518 103.032C71.6907 103.013 71.7236 102.983 71.7469 102.947C71.7702 102.91 71.783 102.868 71.7838 102.825C71.7847 102.781 71.7735 102.739 71.7517 102.701C70.7115 101.121 70.7115 94.7679 71.7412 93.1906Z" fill="white"/>
<path opacity="0.5" d="M75.4824 93.1907C75.504 93.153 75.5149 93.1103 75.514 93.0669C75.513 93.0235 75.5003 92.9813 75.4771 92.9446C75.4539 92.908 75.4212 92.8783 75.3824 92.8589C75.3437 92.8395 75.3003 92.831 75.2571 92.8343H72.8598C71.1516 92.8343 71.1516 103.052 72.8598 103.052H75.2571C75.3 103.056 75.3431 103.047 75.3816 103.028C75.4201 103.009 75.4526 102.979 75.4756 102.943C75.4985 102.906 75.511 102.864 75.5118 102.821C75.5125 102.778 75.5015 102.736 75.4798 102.699C74.4528 101.121 74.4528 94.7653 75.4824 93.1907Z" fill="white"/>
<path d="M105.762 78.7623C105.715 78.0346 105.544 77.3203 105.256 76.6506L105.492 76.5353C105.791 77.2334 105.968 77.9779 106.016 78.7361L105.762 78.7623Z" fill="#407BFF"/>
<path d="M104.119 75.5161H97.6108V75.7781H104.119V75.5161Z" fill="#407BFF"/>
<path d="M61.704 83.4835C61.5704 83.8398 61.8979 84.1988 62.3407 84.1988H104.119C105.531 84.1988 105.531 76.4331 104.119 76.4331H62.3407C61.8979 76.4331 61.5704 76.7947 61.704 77.151C62.2542 78.626 62.2542 82.0032 61.704 83.4835Z" fill="#407BFF"/>
<path opacity="0.2" d="M61.704 83.4835C61.5704 83.8398 61.8979 84.1988 62.3407 84.1988H86.4447C87.8595 84.1988 87.8595 76.4331 86.4447 76.4331H62.3407C61.8979 76.4331 61.5704 76.7947 61.704 77.151C62.2542 78.626 62.2542 82.0032 61.704 83.4835Z" fill="black"/>
<path opacity="0.8" d="M61.7666 77.3423H85.7448C86.8295 77.3423 86.8295 83.2923 85.7448 83.2923H61.7666C62.2303 81.7989 62.2303 78.8357 61.7666 77.3423Z" fill="white"/>
<path opacity="0.2" d="M91.3568 78.165C91.252 77.8218 91.5559 77.489 91.9751 77.489H101.685C102.714 77.489 102.714 83.1456 101.685 83.1456H91.9751C91.5559 83.1456 91.252 82.8129 91.3568 82.467C91.7 81.3797 91.7 79.2549 91.3568 78.165Z" fill="white"/>
</svg>
