<svg width="60" height="70" viewBox="0 0 60 70" fill="none" xmlns="http://www.w3.org/2000/svg">
<path d="M29.9231 0L2.2793 15.9603V54.0397L29.9231 69.9996L57.567 54.0397V15.9603L29.9231 0Z" fill="url(#paint0_linear_769_1226)"/>
<path d="M7.27539 51.1533V18.8465L29.9201 5.77283L52.5648 18.8465V51.1533L29.9201 64.2274L7.27539 51.1533Z" fill="url(#paint1_linear_769_1226)"/>
<path d="M8.94189 50.1912V19.8086L29.9202 7.6969L50.8985 19.8086V50.1912L29.9202 62.3032L8.94189 50.1912Z" fill="url(#paint2_linear_769_1226)"/>
<path opacity="0.5" d="M2.96717 16.0613C2.62611 17.0845 5.56339 18.3432 7.63305 17.8944C9.7027 17.4455 29.1579 6.02895 29.6293 5.00765C29.7608 4.72288 29.7819 0.730591 29.6293 0.730591C28.945 0.730591 3.1338 15.5614 2.96717 16.0613Z" fill="white"/>
<path opacity="0.5" d="M56.7413 16.0613C57.0824 17.0845 54.1451 18.3432 52.0755 17.8944C50.0058 17.4455 30.7346 5.92157 30.0792 5.00765C29.7407 4.5355 29.6296 0.730591 30.0792 0.730591C30.7639 0.730591 56.5747 15.5614 56.7413 16.0613Z" fill="white"/>
<path opacity="0.37" d="M2.94128 37.7181C2.75576 38.8568 2.30324 53.2711 2.94128 53.3822C3.57932 53.4932 6.57918 51.438 6.74545 50.4937C6.91209 49.5495 6.96764 39.6623 6.74545 38.718C6.52327 37.7737 3.25049 35.821 2.94128 37.7181Z" fill="url(#paint3_linear_769_1226)"/>
<path opacity="0.37" d="M56.7934 37.7181C56.9789 38.8568 57.4318 53.2711 56.7934 53.3822C56.155 53.4932 53.1555 51.438 52.9888 50.4937C52.8222 49.5495 52.7666 39.6623 52.9888 38.718C53.211 37.7737 56.4842 35.821 56.7934 37.7181Z" fill="url(#paint4_linear_769_1226)"/>
<path opacity="0.37" d="M3.63351 53.7751C3.96827 54.268 28.8641 68.9877 29.2392 68.9877C29.4277 68.9877 29.6776 65.3294 29.6776 64.9214C29.6776 63.7838 7.66098 52.0917 7.27586 51.9832C6.7067 51.8232 3.29431 53.2752 3.63351 53.7751Z" fill="url(#paint5_linear_769_1226)"/>
<path opacity="0.37" d="M56.2511 54.1597C55.9164 54.6526 30.554 69.3238 30.1789 69.3238C30.0974 69.3238 30.0926 64.7712 30.2618 64.6024C31.0665 63.7977 52.063 52.0919 52.4485 51.9834C53.0173 51.8231 56.5907 53.6594 56.2511 54.1597Z" fill="url(#paint6_linear_769_1226)"/>
<path opacity="0.37" d="M9.90518 49.3828C8.42173 40.9643 9.24862 40.4336 19.6913 36.8775C30.134 33.3215 47.7995 24.1527 49.35 28.1335C50.9008 32.1143 50.3687 49.0521 50.0165 49.9787C49.6644 50.9052 31.4282 61.3845 29.9225 61.4093C28.4169 61.4338 10.0718 50.3282 9.90518 49.3828Z" fill="url(#paint7_linear_769_1226)"/>
<path opacity="0.5" d="M50.4474 20.019C50.0789 19.9297 31.1214 8.97306 30.0512 9.05453C29.0362 9.13155 15.8262 15.3094 10.4105 19.9775C8.96626 21.2221 9.49395 39.8101 10.8271 39.4675C12.1602 39.1254 13.1533 31.6133 27.8242 27.3929C42.2703 23.2369 48.5544 26.8326 50.1215 27.4762C50.5644 27.6581 51.2861 20.2219 50.4474 20.019Z" fill="white"/>
<path opacity="0.6" d="M7.27539 51.1533V18.8465L29.9201 5.77283L52.5648 18.8465V51.1533L50.8984 50.1912C50.8984 50.1912 50.9995 22.1082 50.3955 21.2273C48.2414 18.0845 31.4898 10.4431 28.7403 11.2937C25.9271 12.164 11.0325 18.5055 9.36615 21.1717C8.80513 22.0693 8.94215 50.1912 8.94215 50.1912L7.27539 51.1533Z" fill="#D01BDC"/>
<path opacity="0.5" d="M34.1536 23.2572C39.7956 25.829 48.2942 25.8738 49.0718 25.3835C49.8495 24.8932 50.3668 21.2727 49.1448 20.6617C47.9228 20.0507 38.2403 14.8949 35.6852 15.4504C33.1301 16.0058 33.1564 22.8024 34.1536 23.2572Z" fill="white"/>
<path opacity="0.8" d="M2.2793 27.5613C2.2793 27.4761 2.51814 16.8216 2.96955 16.0613C3.42096 15.3011 29.3281 0.934653 30.0813 0.730613C30.8348 0.526574 40.5391 6.12933 40.5391 6.12933L29.9231 0.000366211L2.2793 15.9606V27.5613Z" fill="#700000"/>
<path d="M39.8145 11.4851C39.8145 11.4851 51.9583 18.3943 52.1246 19.172C52.2912 19.9496 52.5645 40.8283 52.5645 40.8283C52.5645 40.8283 52.6793 19.7367 52.5645 18.8465C52.4494 17.9559 39.8145 11.4851 39.8145 11.4851Z" fill="white"/>
<path d="M7.27846 36.5513C7.27846 36.5513 6.87519 19.0857 7.07997 18.5191C7.28475 17.9526 29.9231 5.7724 29.9231 5.7724C29.9231 5.7724 8.06351 18.2692 7.61359 19.0605C7.16329 19.8522 7.27846 36.5513 7.27846 36.5513Z" fill="white"/>
<path opacity="0.8" d="M2.2793 54.0398L29.9231 70L57.567 54.0398V45.3664C57.567 45.3664 57.3359 52.9384 56.7708 53.882C56.2061 54.8255 31.444 69.2264 30.1824 69.3238C28.9207 69.4212 3.60537 54.3819 2.94215 53.3821C2.2793 52.3823 2.2793 34.6353 2.2793 34.6353V54.0398Z" fill="#700000"/>
<path d="M7.27726 42.8839C7.27726 42.8839 7.19912 50.3348 7.61202 50.9603C8.02528 51.5857 18.7668 57.7873 18.7668 57.7873C18.7668 57.7873 7.12913 51.7712 7.02063 51.3824C6.91213 50.9936 7.27726 42.8839 7.27726 42.8839Z" fill="white"/>
<path opacity="0.5" d="M16.629 57.9372C15.8128 57.9395 13.5266 58.8548 14.0209 59.3955C14.4197 59.8317 28.1226 68.1411 29.6772 68.7124C30.1841 68.8987 30.1356 65.6596 29.4553 64.6131C29.1639 64.1651 19.1575 57.9309 16.629 57.9372Z" fill="white"/>
<path d="M39.6567 6.28527C38.9935 6.4645 41.212 9.25699 42.2674 9.50694C43.3227 9.7569 44.7669 9.00666 44.267 8.49304C43.7671 7.97943 40.6843 6.00754 39.6567 6.28527Z" fill="white"/>
<path d="M44.5739 9.05412C43.5681 9.32333 45.4233 13.7352 46.2177 14.5199C47.012 15.3049 54.0667 16.6799 53.9049 15.4086C53.743 14.1373 45.987 8.67603 44.5739 9.05412Z" fill="white"/>
<path opacity="0.3" d="M42.6694 58.0116C42.074 60.6119 42.1695 62.1446 42.5028 62.1613C42.8361 62.178 54.9244 54.9025 55.2543 54.5826C55.5839 54.2626 53.3165 52.1745 52.3833 52.3174C51.4498 52.4604 42.8916 57.04 42.6694 58.0116Z" fill="#D01BDC"/>
<path opacity="0.3" d="M8.74573 19.5886C8.45393 18.7128 7.56001 18.718 7.47854 19.6945C7.39707 20.671 7.25747 38.7735 7.61259 38.8013C7.96772 38.8291 8.71759 37.9403 8.74536 37.5237C8.77351 37.1068 8.8846 20.0052 8.74573 19.5886Z" fill="#D01BDC"/>
<path opacity="0.3" d="M51.101 19.6997C51.0532 20.0445 50.8788 37.1345 51.101 37.1345C51.3232 37.1345 52.323 36.3291 52.323 35.9125C52.323 35.4959 52.073 19.3383 51.9619 19.255C51.8508 19.172 51.1395 19.4209 51.101 19.6997Z" fill="#D01BDC"/>
<path opacity="0.3" d="M29.921 7.41703C29.921 7.7529 20.1801 13.312 19.9508 13.312C19.7216 13.312 19.8049 11.8122 20.1175 11.6037C20.43 11.3952 29.8514 5.72954 29.921 5.91728C29.9906 6.10466 29.921 7.13745 29.921 7.41703Z" fill="#D01BDC"/>
<path d="M50.0282 52.4497C49.406 52.426 47.3049 53.6477 47.4642 54.2454C47.6234 54.843 48.9098 55.4881 49.2513 55.1422C49.5927 54.796 50.4355 52.4653 50.0282 52.4497Z" fill="#CC1F38"/>
<path d="M50.8284 52.8699C50.6147 53.0669 50.1485 53.7671 50.5925 54.1089C51.0361 54.4511 52.3418 53.549 52.1489 53.2839C51.9559 53.0187 51.1046 52.6151 50.8284 52.8699Z" fill="#CC1F38"/>
<path opacity="0.3" d="M47.7705 53.6457C47.2524 54.3474 49.3772 54.8136 49.6542 54.223C49.9312 53.6324 50.3749 52.3881 50.0264 52.45C49.6776 52.5118 48.0527 53.2628 47.7705 53.6457Z" fill="#D01BDC"/>
<path d="M47.4711 54.0737C47.4711 54.0737 47.6444 54.6713 48.2743 55.0409C48.7694 55.3312 49.1956 55.2661 49.3211 55.0509C49.3211 55.0509 48.9345 55.5549 48.2905 55.2546C47.2822 54.7839 47.4711 54.0737 47.4711 54.0737Z" fill="#DAE1EF"/>
<path opacity="0.3" d="M51.064 52.8884C50.5841 53.4053 50.957 54.1508 51.2266 54.1089C51.4962 54.0671 52.2994 53.5361 52.1483 53.2839C51.9972 53.0317 51.1692 52.7755 51.064 52.8884Z" fill="#D01BDC"/>
<path d="M50.8285 52.8699C50.8285 52.8699 50.3875 53.4761 50.5645 53.8253C50.7415 54.1745 50.9918 54.173 50.9918 54.173C50.9918 54.173 50.4212 54.5048 50.316 54.1156C50.1342 53.4424 50.8285 52.8699 50.8285 52.8699Z" fill="#DAE1EF"/>
<path d="M27.0753 7.22798C25.5863 6.83471 24.3828 7.79937 23.7296 8.54072C23.0764 9.28208 23.4408 9.72274 24.2617 9.57684C25.0827 9.4302 27.703 7.39351 27.0753 7.22798Z" fill="#CC1F38"/>
<path opacity="0.3" d="M27.0749 7.22797C26.0676 6.88432 24.7934 7.55161 24.3931 7.90674C23.9928 8.26186 24.7797 9.26873 25.3218 9.05395C25.864 8.83918 27.5341 7.38461 27.0749 7.22797Z" fill="#D01BDC"/>
<path d="M24.1048 8.15601C24.1048 8.15601 22.4221 9.25804 22.611 9.80461C22.7998 10.3508 24.8169 9.35469 24.8169 9.35469C24.8169 9.35469 23.7708 9.69574 23.5338 9.23175C23.2968 8.76701 24.1048 8.15601 24.1048 8.15601Z" fill="white"/>
<path d="M8.24228 51.3751C7.44982 51.5732 9.79831 53.1859 10.3538 53.2692C10.9092 53.3525 10.3616 51.938 10.0923 51.6947C9.89496 51.5162 8.68665 51.264 8.24228 51.3751Z" fill="white"/>
<path d="M29.8986 52.9296L1.36199 36.2869C0.258846 38.8016 0 41.1616 0 41.1616L1.86191 44.3088L29.8986 60.5924L57.9354 44.3088L59.624 41.1616C59.624 41.1616 59.6273 38.8016 58.6019 36.2869L29.8986 52.9296Z" fill="url(#paint8_linear_769_1226)"/>
<path d="M1.86191 44.3092L0 41.1616L29.8986 58.6768L59.624 41.1616L57.9358 44.3092L29.8986 60.5928L1.86191 44.3092Z" fill="url(#paint9_linear_769_1226)"/>
<path opacity="0.6" d="M0 41.1616L1.86191 44.3089L2.28665 44.5707L2.27702 45.5079C2.27702 45.5079 3.87712 46.3233 7.01956 48.0586C7.1262 48.1175 8.99403 50.0905 8.99403 50.0905C8.99403 50.0905 29.191 62.3029 29.9209 62.3029C30.8629 62.3029 50.9003 49.8205 50.9003 49.8205C50.9003 49.8205 52.4608 48.51 52.6163 48.4185L57.5643 45.8275V44.5248L57.9358 44.3092L59.6244 41.162L29.899 58.6753L0 41.1616Z" fill="#D01BDC"/>
<path opacity="0.69" d="M29.8989 52.9296V58.6768L59.6243 41.1616C59.6243 41.1616 59.5054 38.2802 58.6022 36.2869L29.8989 52.9296Z" fill="url(#paint10_linear_769_1226)"/>
<path opacity="0.5" d="M2.83198 37.5495C2.28615 37.5495 2.73348 42.382 4.39209 43.4929C7.02646 45.2575 22.9082 54.6188 23.9484 54.6299C24.6672 54.6377 24.6298 50.5325 24.4135 50.214C24.0043 49.6112 3.64666 37.5495 2.83198 37.5495Z" fill="white"/>
<path opacity="0.5" d="M38.7256 47.9644C38.3804 48.3206 38.4278 52.8373 39.017 52.7029C39.6065 52.5684 48.5831 47.7748 52.8165 44.6668C57.0499 41.5588 57.6472 37.4603 56.6944 37.551C56.6944 37.551 39.4336 47.2334 38.7256 47.9644Z" fill="white"/>
<path d="M15.3613 50.1597C15.3613 50.1597 29.0253 58.3535 29.9003 58.3535C30.7754 58.3535 41.6843 51.7327 41.6843 51.7327C41.6843 51.7327 30.234 58.9923 29.9222 58.9923C29.6793 58.9919 15.3613 50.1597 15.3613 50.1597Z" fill="white"/>
<defs>
<linearGradient id="paint0_linear_769_1226" x1="29.9231" y1="71.2019" x2="29.9231" y2="11.1773" gradientUnits="userSpaceOnUse">
<stop stop-color="#F77F5C"/>
<stop offset="0.3651" stop-color="#E5552F"/>
<stop offset="0.4915" stop-color="#E65A33"/>
<stop offset="0.6449" stop-color="#E9693E"/>
<stop offset="0.8122" stop-color="#EF8150"/>
<stop offset="0.9883" stop-color="#F6A36A"/>
<stop offset="1" stop-color="#F7A66C"/>
</linearGradient>
<linearGradient id="paint1_linear_769_1226" x1="29.92" y1="0.621921" x2="29.92" y2="60.9575" gradientUnits="userSpaceOnUse">
<stop stop-color="#E5552F"/>
<stop offset="0.1992" stop-color="#E65A33"/>
<stop offset="0.4408" stop-color="#E9693E"/>
<stop offset="0.7042" stop-color="#EF8150"/>
<stop offset="0.9816" stop-color="#F6A36A"/>
<stop offset="1" stop-color="#F7A66C"/>
</linearGradient>
<linearGradient id="paint2_linear_769_1226" x1="29.9202" y1="62.3031" x2="29.9202" y2="7.6969" gradientUnits="userSpaceOnUse">
<stop stop-color="#F77F5C"/>
<stop offset="0.3651" stop-color="#E5552F"/>
<stop offset="0.4915" stop-color="#E65A33"/>
<stop offset="0.6449" stop-color="#E9693E"/>
<stop offset="0.8122" stop-color="#EF8150"/>
<stop offset="0.9883" stop-color="#F6A36A"/>
<stop offset="1" stop-color="#F7A66C"/>
</linearGradient>
<linearGradient id="paint3_linear_769_1226" x1="4.75179" y1="36.9187" x2="4.75179" y2="53.3863" gradientUnits="userSpaceOnUse">
<stop stop-color="#C10065"/>
<stop offset="1" stop-color="white"/>
</linearGradient>
<linearGradient id="paint4_linear_769_1226" x1="54.9826" y1="36.9187" x2="54.9826" y2="53.3863" gradientUnits="userSpaceOnUse">
<stop stop-color="#C10065"/>
<stop offset="1" stop-color="white"/>
</linearGradient>
<linearGradient id="paint5_linear_769_1226" x1="16.6439" y1="51.9712" x2="16.6439" y2="68.9879" gradientUnits="userSpaceOnUse">
<stop stop-color="#C10065"/>
<stop offset="1" stop-color="white"/>
</linearGradient>
<linearGradient id="paint6_linear_769_1226" x1="43.199" y1="51.9734" x2="43.199" y2="69.3236" gradientUnits="userSpaceOnUse">
<stop stop-color="#C10065"/>
<stop offset="1" stop-color="white"/>
</linearGradient>
<linearGradient id="paint7_linear_769_1226" x1="29.8673" y1="27.1507" x2="29.8673" y2="61.4091" gradientUnits="userSpaceOnUse">
<stop stop-color="#C10065"/>
<stop offset="1" stop-color="white"/>
</linearGradient>
<linearGradient id="paint8_linear_769_1226" x1="29.8119" y1="8.69917" x2="29.8119" y2="52.2028" gradientUnits="userSpaceOnUse">
<stop stop-color="#F77F5C"/>
<stop offset="0.3651" stop-color="#E5552F"/>
<stop offset="0.4915" stop-color="#E65A33"/>
<stop offset="0.6449" stop-color="#E9693E"/>
<stop offset="0.8122" stop-color="#EF8150"/>
<stop offset="0.9883" stop-color="#F6A36A"/>
<stop offset="1" stop-color="#F7A66C"/>
</linearGradient>
<linearGradient id="paint9_linear_769_1226" x1="29.8119" y1="60.5927" x2="29.8119" y2="41.1618" gradientUnits="userSpaceOnUse">
<stop stop-color="#F1CB3C"/>
<stop offset="1" stop-color="#FFC14F"/>
</linearGradient>
<linearGradient id="paint10_linear_769_1226" x1="44.7616" y1="36.287" x2="44.7616" y2="58.6769" gradientUnits="userSpaceOnUse">
<stop stop-color="#C10065"/>
<stop offset="1" stop-color="white"/>
</linearGradient>
</defs>
</svg>
