<svg width="60" height="70" viewBox="0 0 60 70" fill="none" xmlns="http://www.w3.org/2000/svg">
<path d="M29.9218 0L2.27832 15.9603V54.0397L29.9218 69.9996L57.5656 54.0397V15.9603L29.9218 0Z" fill="url(#paint0_linear_773_2319)"/>
<path d="M7.27637 51.1532V18.8465L29.9207 5.77277L52.5654 18.8465V51.1532L29.9207 64.2273L7.27637 51.1532Z" fill="url(#paint1_linear_773_2319)"/>
<path d="M8.94434 50.1911V19.8084L29.9223 7.69678L50.9006 19.8084V50.1911L29.9223 62.3031L8.94434 50.1911Z" fill="url(#paint2_linear_773_2319)"/>
<path opacity="0.5" d="M2.96668 16.0613C2.62562 17.0845 5.56291 18.3432 7.63256 17.8944C9.70221 17.4455 29.1574 6.02895 29.6288 5.00765C29.7603 4.72288 29.7814 0.730591 29.6288 0.730591C28.9445 0.730591 3.13332 15.5614 2.96668 16.0613Z" fill="white"/>
<path opacity="0.5" d="M56.7413 16.0613C57.0824 17.0845 54.1451 18.3432 52.0755 17.8944C50.0058 17.4455 30.7346 5.92157 30.0792 5.00765C29.7407 4.5355 29.6296 0.730591 30.0792 0.730591C30.7635 0.730591 56.5743 15.5614 56.7413 16.0613Z" fill="white"/>
<path opacity="0.37" d="M2.94079 37.718C2.75527 38.8567 2.30275 53.2709 2.94079 53.382C3.5792 53.4931 6.57869 51.4379 6.74496 50.4936C6.91159 49.5493 6.96714 39.6621 6.74496 38.7178C6.52277 37.7736 3.25 35.8209 2.94079 37.718Z" fill="url(#paint3_linear_773_2319)"/>
<path opacity="0.37" d="M56.7925 37.718C56.978 38.8567 57.4309 53.2709 56.7925 53.382C56.1545 53.4931 53.155 51.4379 52.9883 50.4936C52.8217 49.5493 52.7662 39.6621 52.9883 38.7178C53.2105 37.7736 56.4833 35.8209 56.7925 37.718Z" fill="url(#paint4_linear_773_2319)"/>
<path opacity="0.37" d="M3.63307 53.775C3.96783 54.2679 28.8636 68.9877 29.2387 68.9877C29.4272 68.9877 29.6772 65.3294 29.6772 64.9213C29.6772 63.7837 7.66054 52.0916 7.27542 51.9831C6.70626 51.8232 3.2935 53.2751 3.63307 53.775Z" fill="url(#paint5_linear_773_2319)"/>
<path opacity="0.37" d="M56.2541 54.1596C55.9193 54.6525 30.5569 69.3237 30.1818 69.3237C30.1004 69.3237 30.0955 64.7712 30.2648 64.6023C31.0691 63.7976 52.0659 52.0918 52.4514 51.9833C53.0202 51.823 56.5933 53.6593 56.2541 54.1596Z" fill="url(#paint6_linear_773_2319)"/>
<path opacity="0.37" d="M9.9042 49.3828C8.42075 40.9642 9.24765 40.4336 19.6903 36.8775C30.133 33.3214 47.7985 24.1526 49.349 28.1334C50.8999 32.1142 50.3677 49.0521 50.0156 49.9786C49.6634 50.9051 31.4272 61.3845 29.9216 61.4093C28.4159 61.4337 10.0708 50.3282 9.9042 49.3828Z" fill="url(#paint7_linear_773_2319)"/>
<path opacity="0.5" d="M50.4474 20.0189C50.0789 19.9297 31.1214 8.973 30.0512 9.05447C29.0358 9.13149 15.8262 15.3093 10.4105 19.9774C8.96626 21.222 9.49395 39.81 10.8271 39.4675C12.1602 39.1253 13.1533 31.6132 27.8242 27.3928C42.2703 23.2369 48.5544 26.8326 50.1215 27.4762C50.5644 27.658 51.2861 20.2218 50.4474 20.0189Z" fill="white"/>
<path opacity="0.6" d="M7.27637 51.1532V18.8465L29.9211 5.77277L52.5657 18.8465V51.1532L50.8994 50.1912C50.8994 50.1912 51.0005 22.1082 50.3965 21.2272C48.2424 18.0844 31.4904 10.4431 28.7413 11.2937C25.928 12.1639 11.0335 18.5054 9.36712 21.1716C8.80611 22.0693 8.94312 50.1912 8.94312 50.1912L7.27637 51.1532Z" fill="#D01BDC"/>
<path opacity="0.5" d="M34.1546 23.2572C39.7966 25.829 48.2951 25.8738 49.0728 25.3835C49.8504 24.8932 50.3678 21.2727 49.1457 20.6617C47.9237 20.0507 38.2413 14.8949 35.6862 15.4504C33.131 16.0058 33.1573 22.8024 34.1546 23.2572Z" fill="white"/>
<path opacity="0.8" d="M2.27832 27.5613C2.27832 27.4761 2.51717 16.8216 2.96858 16.0613C3.41998 15.3011 29.3271 0.934653 30.0803 0.730613C30.8335 0.526574 40.5381 6.12933 40.5381 6.12933L29.9222 0.000366211L2.27832 15.9606V27.5613Z" fill="#700000"/>
<path d="M39.8154 11.485C39.8154 11.485 51.9589 18.3942 52.1256 19.1719C52.2922 19.9495 52.5655 40.8282 52.5655 40.8282C52.5655 40.8282 52.6803 19.7366 52.5655 18.8464C52.4507 17.9558 39.8154 11.485 39.8154 11.485Z" fill="white"/>
<path d="M7.27797 36.5512C7.27797 36.5512 6.8747 19.0857 7.07948 18.5191C7.28426 17.9525 29.9227 5.77237 29.9227 5.77237C29.9227 5.77237 8.06303 18.2691 7.6131 19.0605C7.16244 19.8522 7.27797 36.5512 7.27797 36.5512Z" fill="white"/>
<path opacity="0.8" d="M2.27832 54.0397L29.9222 70L57.566 54.0397V45.3664C57.566 45.3664 57.3346 52.9384 56.7698 53.882C56.2051 54.8255 31.4434 69.2264 30.1814 69.3238C28.9197 69.4212 3.6044 54.3819 2.94117 53.3821C2.27832 52.3822 2.27832 34.6352 2.27832 34.6352V54.0397Z" fill="#700000"/>
<path d="M7.27677 42.8838C7.27677 42.8838 7.19826 50.3348 7.61152 50.9602C8.02478 51.5857 18.7663 57.7872 18.7663 57.7872C18.7663 57.7872 7.12865 51.7712 7.02015 51.3824C6.91165 50.9936 7.27677 42.8838 7.27677 42.8838Z" fill="white"/>
<path opacity="0.5" d="M16.6285 57.9372C15.8123 57.9395 13.5261 58.8548 14.0204 59.3955C14.4193 59.8317 28.1221 68.1411 29.6767 68.7124C30.184 68.8987 30.1351 65.6596 29.4549 64.6131C29.1634 64.1651 19.1566 57.9309 16.6285 57.9372Z" fill="white"/>
<path d="M39.6557 6.28524C38.9925 6.46447 41.211 9.25696 42.2664 9.50691C43.3218 9.75687 44.766 9.00663 44.2661 8.49301C43.7661 7.9794 40.6833 6.00751 39.6557 6.28524Z" fill="white"/>
<path d="M44.5729 9.05412C43.5671 9.32333 45.4224 13.7352 46.2167 14.5199C47.0106 15.3049 54.0657 16.6799 53.9039 15.4086C53.7417 14.1373 45.9856 8.67603 44.5729 9.05412Z" fill="white"/>
<path opacity="0.3" d="M42.6694 58.0116C42.074 60.6119 42.1695 62.1446 42.5028 62.1613C42.8361 62.1776 54.9244 54.9025 55.2543 54.5826C55.5839 54.2626 53.3165 52.1745 52.383 52.3174C51.4498 52.4603 42.892 57.0399 42.6694 58.0116Z" fill="#D01BDC"/>
<path opacity="0.3" d="M8.74378 19.5887C8.45198 18.7129 7.55805 18.7181 7.47659 19.6946C7.39512 20.6711 7.25551 38.7736 7.61064 38.8013C7.96576 38.8291 8.71563 37.9404 8.74341 37.5238C8.77155 37.1068 8.88264 20.0053 8.74378 19.5887Z" fill="#D01BDC"/>
<path opacity="0.3" d="M51.1005 19.6996C51.0527 20.0444 50.8783 37.1345 51.1005 37.1345C51.3227 37.1345 52.3225 36.3291 52.3225 35.9125C52.3225 35.4959 52.0725 19.3382 51.9614 19.2549C51.8503 19.172 51.1394 19.4208 51.1005 19.6996Z" fill="#D01BDC"/>
<path opacity="0.3" d="M29.92 7.41691C29.92 7.75278 20.1787 13.3118 19.9499 13.3118C19.7206 13.3118 19.804 11.8121 20.1165 11.6036C20.429 11.3951 29.8504 5.72942 29.92 5.91716C29.9896 6.10454 29.92 7.13733 29.92 7.41691Z" fill="#D01BDC"/>
<path d="M50.0277 52.4499C49.4059 52.4262 47.3044 53.6479 47.4637 54.2455C47.6229 54.8432 48.9093 55.4883 49.2508 55.1424C49.5926 54.7962 50.435 52.4655 50.0277 52.4499Z" fill="#CC1F38"/>
<path d="M50.8275 52.8699C50.6138 53.0669 50.1476 53.7671 50.5912 54.1089C51.0349 54.4511 52.3406 53.549 52.1477 53.2839C51.9551 53.0187 51.1038 52.6151 50.8275 52.8699Z" fill="#CC1F38"/>
<path opacity="0.3" d="M47.7715 53.6456C47.2534 54.3474 49.3782 54.8136 49.6552 54.2229C49.9322 53.6323 50.3758 52.3881 50.0274 52.4499C49.6785 52.5118 48.054 53.2627 47.7715 53.6456Z" fill="#D01BDC"/>
<path d="M47.472 54.0737C47.472 54.0737 47.6453 54.6714 48.2752 55.0409C48.7703 55.3313 49.1965 55.2661 49.322 55.0509C49.322 55.0509 48.9354 55.5549 48.2915 55.2546C47.2835 54.7839 47.472 54.0737 47.472 54.0737Z" fill="#DAE1EF"/>
<path opacity="0.3" d="M51.0635 52.8884C50.5836 53.4053 50.9565 54.1508 51.2261 54.1089C51.4957 54.0671 52.2989 53.5361 52.1478 53.2839C51.9967 53.0317 51.1687 52.7755 51.0635 52.8884Z" fill="#D01BDC"/>
<path d="M50.8278 52.8698C50.8278 52.8698 50.3867 53.476 50.5637 53.8252C50.7407 54.1744 50.9911 54.1729 50.9911 54.1729C50.9911 54.1729 50.4208 54.5047 50.3156 54.1155C50.1334 53.4423 50.8278 52.8698 50.8278 52.8698Z" fill="#DAE1EF"/>
<path d="M27.0744 7.22795C25.5853 6.83468 24.3819 7.79933 23.7286 8.54069C23.0754 9.28205 23.4398 9.72271 24.2608 9.57681C25.0817 9.43017 27.702 7.39348 27.0744 7.22795Z" fill="#CC1F38"/>
<path opacity="0.3" d="M27.0754 7.22797C26.0681 6.88432 24.7939 7.55161 24.3936 7.90674C23.9933 8.26186 24.7802 9.26873 25.3223 9.05395C25.8648 8.83918 27.5345 7.38461 27.0754 7.22797Z" fill="#D01BDC"/>
<path d="M24.1033 8.15594C24.1033 8.15594 22.4207 9.25798 22.6095 9.80455C22.7984 10.3508 24.8154 9.35463 24.8154 9.35463C24.8154 9.35463 23.7693 9.69568 23.5323 9.23169C23.2953 8.76695 24.1033 8.15594 24.1033 8.15594Z" fill="white"/>
<path d="M8.24179 51.375C7.44933 51.5731 9.79782 53.1858 10.3533 53.2691C10.9087 53.3524 10.3611 51.9378 10.0918 51.6945C9.89447 51.5161 8.68616 51.2639 8.24179 51.375Z" fill="white"/>
<path d="M29.8986 52.9296L1.36198 36.2869C0.258837 38.8016 0 41.1616 0 41.1616L1.8619 44.3088L29.8986 60.5924L57.9354 44.3088L59.624 41.1616C59.624 41.1616 59.6273 38.8016 58.6019 36.2869L29.8986 52.9296Z" fill="url(#paint8_linear_773_2319)"/>
<path d="M1.8619 44.3092L0 41.1616L29.8986 58.6767L59.624 41.1616L57.9358 44.3092L29.8986 60.5927L1.8619 44.3092Z" fill="url(#paint9_linear_773_2319)"/>
<path opacity="0.6" d="M0 41.1616L1.8619 44.3088L2.28665 44.5706L2.27702 45.5079C2.27702 45.5079 3.87675 46.3233 7.01955 48.0585C7.1262 48.1174 8.99403 50.0904 8.99403 50.0904C8.99403 50.0904 29.191 62.3028 29.9209 62.3028C30.8629 62.3028 50.9003 49.8205 50.9003 49.8205C50.9003 49.8205 52.4608 48.5099 52.6163 48.4185L57.5643 45.8274V44.5247L57.9358 44.3092L59.6244 41.1619L29.899 58.6753L0 41.1616Z" fill="#D01BDC"/>
<path opacity="0.69" d="M29.8984 52.9296V58.6768L59.6238 41.1616C59.6238 41.1616 59.5049 38.2802 58.6017 36.2869L29.8984 52.9296Z" fill="url(#paint10_linear_773_2319)"/>
<path opacity="0.5" d="M2.83198 37.5495C2.28615 37.5495 2.73349 42.382 4.39209 43.493C7.02646 45.2575 22.9082 54.6189 23.9484 54.63C24.6672 54.6378 24.6298 50.5325 24.4135 50.2141C24.0043 49.6112 3.64666 37.5495 2.83198 37.5495Z" fill="white"/>
<path opacity="0.5" d="M38.725 47.9644C38.3799 48.3207 38.4273 52.8373 39.0168 52.7029C39.6064 52.5685 48.583 47.7748 52.8164 44.6668C57.0497 41.5588 57.647 37.4603 56.6942 37.551C56.6942 37.551 39.4331 47.2334 38.725 47.9644Z" fill="white"/>
<path d="M15.3613 50.1596C15.3613 50.1596 29.0253 58.3534 29.9003 58.3534C30.7754 58.3534 41.6843 51.7327 41.6843 51.7327C41.6843 51.7327 30.234 58.9922 29.9222 58.9922C29.6796 58.9919 15.3613 50.1596 15.3613 50.1596Z" fill="white"/>
<path d="M29.8986 43.6094L1.36198 26.9666C0.258837 29.4814 0 31.8414 0 31.8414L1.8619 34.9886L29.8986 51.2722L57.9354 34.9886L59.624 31.8414C59.624 31.8414 59.6273 29.4814 58.6019 26.9666L29.8986 43.6094Z" fill="url(#paint11_linear_773_2319)"/>
<path d="M1.8619 34.9886L0 31.8413L29.8986 49.3562L59.624 31.8413L57.9358 34.9886L29.8986 51.2721L1.8619 34.9886Z" fill="url(#paint12_linear_773_2319)"/>
<path opacity="0.6" d="M0 31.8413L1.8619 34.9886L2.28665 35.2504L2.27702 36.1876C2.27702 36.1876 3.87675 37.0027 7.01955 38.7383C7.1262 38.7972 8.99403 40.7702 8.99403 40.7702C8.99403 40.7702 29.191 52.9826 29.9209 52.9826C30.8629 52.9826 50.9003 40.5002 50.9003 40.5002C50.9003 40.5002 52.4608 39.1897 52.6163 39.0983L57.5643 36.5072V35.2045L57.9358 34.989L59.6244 31.8417L29.899 49.355L0 31.8413Z" fill="#D01BDC"/>
<path opacity="0.69" d="M29.8984 43.6094V49.3566L59.6238 31.8414C59.6238 31.8414 59.5049 28.96 58.6017 26.9667L29.8984 43.6094Z" fill="url(#paint13_linear_773_2319)"/>
<path opacity="0.5" d="M2.83198 28.2294C2.28615 28.2294 2.73349 33.0619 4.39209 34.1728C7.02646 35.9374 22.9082 45.2987 23.9484 45.3098C24.6672 45.3176 24.6298 41.2124 24.4135 40.8939C24.0043 40.2907 3.64666 28.2294 2.83198 28.2294Z" fill="white"/>
<path opacity="0.5" d="M38.725 38.6443C38.3799 39.0005 38.4273 43.5172 39.0168 43.3828C39.6064 43.2483 48.583 38.4551 52.8164 35.3467C57.0497 32.2387 57.647 28.1402 56.6942 28.2309C56.6942 28.2309 39.4331 37.9129 38.725 38.6443Z" fill="white"/>
<path d="M15.3613 40.8391C15.3613 40.8391 29.0253 49.0328 29.9003 49.0328C30.7754 49.0328 41.6843 42.4121 41.6843 42.4121C41.6843 42.4121 30.234 49.6716 29.9222 49.6716C29.6796 49.6716 15.3613 40.8391 15.3613 40.8391Z" fill="white"/>
<defs>
<linearGradient id="paint0_linear_773_2319" x1="29.9219" y1="71.2019" x2="29.9219" y2="11.1773" gradientUnits="userSpaceOnUse">
<stop stop-color="#F77F5C"/>
<stop offset="0.3651" stop-color="#E5552F"/>
<stop offset="0.4915" stop-color="#E65A33"/>
<stop offset="0.6449" stop-color="#E9693E"/>
<stop offset="0.8122" stop-color="#EF8150"/>
<stop offset="0.9883" stop-color="#F6A36A"/>
<stop offset="1" stop-color="#F7A66C"/>
</linearGradient>
<linearGradient id="paint1_linear_773_2319" x1="29.9207" y1="0.621859" x2="29.9207" y2="60.9574" gradientUnits="userSpaceOnUse">
<stop stop-color="#E5552F"/>
<stop offset="0.1992" stop-color="#E65A33"/>
<stop offset="0.4408" stop-color="#E9693E"/>
<stop offset="0.7042" stop-color="#EF8150"/>
<stop offset="0.9816" stop-color="#F6A36A"/>
<stop offset="1" stop-color="#F7A66C"/>
</linearGradient>
<linearGradient id="paint2_linear_773_2319" x1="29.9223" y1="62.3029" x2="29.9223" y2="7.69678" gradientUnits="userSpaceOnUse">
<stop stop-color="#F77F5C"/>
<stop offset="0.3651" stop-color="#E5552F"/>
<stop offset="0.4915" stop-color="#E65A33"/>
<stop offset="0.6449" stop-color="#E9693E"/>
<stop offset="0.8122" stop-color="#EF8150"/>
<stop offset="0.9883" stop-color="#F6A36A"/>
<stop offset="1" stop-color="#F7A66C"/>
</linearGradient>
<linearGradient id="paint3_linear_773_2319" x1="4.75137" y1="36.9186" x2="4.75137" y2="53.3862" gradientUnits="userSpaceOnUse">
<stop stop-color="#C10065"/>
<stop offset="1" stop-color="white"/>
</linearGradient>
<linearGradient id="paint4_linear_773_2319" x1="54.9819" y1="36.9186" x2="54.9819" y2="53.3862" gradientUnits="userSpaceOnUse">
<stop stop-color="#C10065"/>
<stop offset="1" stop-color="white"/>
</linearGradient>
<linearGradient id="paint5_linear_773_2319" x1="16.6432" y1="51.9711" x2="16.6432" y2="68.9879" gradientUnits="userSpaceOnUse">
<stop stop-color="#C10065"/>
<stop offset="1" stop-color="white"/>
</linearGradient>
<linearGradient id="paint6_linear_773_2319" x1="43.2017" y1="51.9734" x2="43.2017" y2="69.3235" gradientUnits="userSpaceOnUse">
<stop stop-color="#C10065"/>
<stop offset="1" stop-color="white"/>
</linearGradient>
<linearGradient id="paint7_linear_773_2319" x1="29.8664" y1="27.1507" x2="29.8664" y2="61.409" gradientUnits="userSpaceOnUse">
<stop stop-color="#C10065"/>
<stop offset="1" stop-color="white"/>
</linearGradient>
<linearGradient id="paint8_linear_773_2319" x1="29.812" y1="11.6987" x2="29.812" y2="55.2024" gradientUnits="userSpaceOnUse">
<stop stop-color="#F77F5C"/>
<stop offset="0.3651" stop-color="#E5552F"/>
<stop offset="0.4915" stop-color="#E65A33"/>
<stop offset="0.6449" stop-color="#E9693E"/>
<stop offset="0.8122" stop-color="#EF8150"/>
<stop offset="0.9883" stop-color="#F6A36A"/>
<stop offset="1" stop-color="#F7A66C"/>
</linearGradient>
<linearGradient id="paint9_linear_773_2319" x1="29.812" y1="60.5926" x2="29.812" y2="41.1617" gradientUnits="userSpaceOnUse">
<stop stop-color="#F1CB3C"/>
<stop offset="1" stop-color="#FFC14F"/>
</linearGradient>
<linearGradient id="paint10_linear_773_2319" x1="44.7612" y1="36.287" x2="44.7612" y2="58.6769" gradientUnits="userSpaceOnUse">
<stop stop-color="#C10065"/>
<stop offset="1" stop-color="white"/>
</linearGradient>
<linearGradient id="paint11_linear_773_2319" x1="29.812" y1="1.3783" x2="29.812" y2="44.8819" gradientUnits="userSpaceOnUse">
<stop stop-color="#F77F5C"/>
<stop offset="0.3651" stop-color="#E5552F"/>
<stop offset="0.4915" stop-color="#E65A33"/>
<stop offset="0.6449" stop-color="#E9693E"/>
<stop offset="0.8122" stop-color="#EF8150"/>
<stop offset="0.9883" stop-color="#F6A36A"/>
<stop offset="1" stop-color="#F7A66C"/>
</linearGradient>
<linearGradient id="paint12_linear_773_2319" x1="29.812" y1="51.2721" x2="29.812" y2="31.8412" gradientUnits="userSpaceOnUse">
<stop stop-color="#F1CB3C"/>
<stop offset="1" stop-color="#FFC14F"/>
</linearGradient>
<linearGradient id="paint13_linear_773_2319" x1="44.7612" y1="26.9665" x2="44.7612" y2="49.3564" gradientUnits="userSpaceOnUse">
<stop stop-color="#C10065"/>
<stop offset="1" stop-color="white"/>
</linearGradient>
</defs>
</svg>
