<svg width="171" height="200" viewBox="0 0 171 200" fill="none" xmlns="http://www.w3.org/2000/svg">
<path d="M85.49 0L6.50879 45.6007V154.399L85.49 199.999L164.472 154.399V45.6007L85.49 0Z" fill="url(#paint0_linear_773_2199)"/>
<path d="M20.7861 146.152V53.8469L85.4851 16.4934L150.183 53.8469V146.152L85.4851 183.506L20.7861 146.152Z" fill="url(#paint1_linear_773_2199)"/>
<path d="M25.5518 143.403V56.5955L85.4897 21.9908L145.427 56.5955V143.403L85.4897 178.009L25.5518 143.403Z" fill="url(#paint2_linear_773_2199)"/>
<path opacity="0.5" d="M8.47573 45.8895C7.5013 48.8128 15.8935 52.4091 21.8068 51.1267C27.72 49.8444 83.3063 17.2256 84.6532 14.3076C85.0288 13.4939 85.0891 2.0874 84.6532 2.0874C82.6969 2.0874 8.95184 44.4612 8.47573 45.8895Z" fill="white"/>
<path opacity="0.5" d="M162.118 45.8895C163.092 48.8128 154.7 52.4091 148.787 51.1267C142.873 49.8444 87.8129 16.9188 85.9403 14.3076C84.9732 12.9586 84.6558 2.0874 85.9403 2.0874C87.8955 2.0874 161.642 44.4612 162.118 45.8895Z" fill="white"/>
<path opacity="0.37" d="M8.40224 107.766C7.87217 111.019 6.57821 152.203 8.40224 152.52C10.2263 152.837 18.7962 146.965 19.2713 144.267C19.7474 141.57 19.9061 113.32 19.2713 110.622C18.6375 107.924 9.28568 102.345 8.40224 107.766Z" fill="url(#paint3_linear_773_2199)"/>
<path opacity="0.37" d="M162.272 107.766C162.802 111.019 164.095 152.203 162.272 152.52C160.448 152.837 151.878 146.965 151.403 144.267C150.927 141.57 150.768 113.32 151.403 110.622C152.038 107.924 161.389 102.345 162.272 107.766Z" fill="url(#paint4_linear_773_2199)"/>
<path opacity="0.37" d="M10.3797 153.643C11.3362 155.051 82.4669 197.107 83.5387 197.107C84.0772 197.107 84.7913 186.655 84.7913 185.489C84.7913 182.239 21.8867 148.833 20.7864 148.523C19.1602 148.066 9.40952 152.214 10.3797 153.643Z" fill="url(#paint5_linear_773_2199)"/>
<path opacity="0.37" d="M160.717 154.742C159.76 156.15 87.2966 198.068 86.2248 198.068C85.992 198.068 85.9793 185.06 86.4618 184.578C88.7598 182.279 148.751 148.834 149.852 148.524C151.477 148.066 161.686 153.312 160.717 154.742Z" fill="url(#paint6_linear_773_2199)"/>
<path opacity="0.37" d="M28.2945 141.094C24.0561 117.041 26.4186 115.524 56.2548 105.364C86.091 95.2041 136.564 69.0074 140.994 80.3812C145.425 91.7549 143.904 140.149 142.898 142.796C141.892 145.443 89.7888 175.384 85.4869 175.455C81.185 175.526 28.7706 143.795 28.2945 141.094Z" fill="url(#paint7_linear_773_2199)"/>
<path opacity="0.5" d="M144.135 57.1967C143.082 56.9417 88.9179 25.637 85.8602 25.8697C82.9591 26.0898 45.2174 43.7408 29.7439 57.0782C25.6176 60.6342 27.1253 113.743 30.9342 112.764C34.743 111.786 37.5807 90.3234 79.4973 78.2651C120.772 66.3909 138.726 76.6643 143.204 78.5032C144.47 79.0227 146.531 57.7765 144.135 57.1967Z" fill="white"/>
<path opacity="0.6" d="M20.7861 146.152V53.8469L85.4851 16.4934L150.184 53.8469V146.152L145.423 143.403C145.423 143.403 145.712 63.166 143.986 60.6489C137.832 51.6695 89.9701 29.8372 82.1143 32.2675C74.0776 34.7538 31.5208 52.8725 26.7597 60.4902C25.1568 63.0549 25.5483 143.403 25.5483 143.403L20.7861 146.152Z" fill="#D01BDC"/>
<path opacity="0.5" d="M97.5815 66.4491C113.701 73.797 137.983 73.9251 140.205 72.5243C142.427 71.1234 143.905 60.7791 140.413 59.0334C136.922 57.2877 109.258 42.5568 101.957 44.1439C94.6571 45.7309 94.7312 65.1498 97.5815 66.4491Z" fill="white"/>
<path opacity="0.8" d="M6.50879 78.7465C6.50879 78.5031 7.19123 48.0617 8.48095 45.8896C9.77068 43.7175 83.7908 2.67044 85.9429 2.08747C88.0959 1.50449 115.822 17.5124 115.822 17.5124L85.4911 0.00104523L6.50879 45.6018V78.7465Z" fill="#700000"/>
<path d="M113.755 32.8142C113.755 32.8142 148.452 52.5548 148.927 54.7767C149.403 56.9985 150.184 116.652 150.184 116.652C150.184 116.652 150.512 56.3901 150.184 53.8467C149.856 51.3021 113.755 32.8142 113.755 32.8142Z" fill="white"/>
<path d="M20.788 104.432C20.788 104.432 19.6358 54.5304 20.2209 52.9116C20.806 51.2929 85.487 16.4924 85.487 16.4924C85.487 16.4924 23.031 52.1975 21.7455 54.4585C20.459 56.7205 20.788 104.432 20.788 104.432Z" fill="white"/>
<path opacity="0.8" d="M6.50879 154.399L85.4911 200L164.473 154.399V129.618C164.473 129.618 163.813 151.253 162.199 153.949C160.585 156.644 89.8374 197.79 86.2317 198.068C82.627 198.346 10.2976 155.377 8.40372 152.52C6.50986 149.664 6.50985 98.9579 6.50985 98.9579V154.399H6.50879Z" fill="#700000"/>
<path d="M20.7893 122.525C20.7893 122.525 20.565 143.814 21.7468 145.601C22.9275 147.388 53.6175 165.106 53.6175 165.106C53.6175 165.106 20.3671 147.918 20.0571 146.807C19.7471 145.696 20.7893 122.525 20.7893 122.525Z" fill="white"/>
<path opacity="0.5" d="M47.5153 165.535C45.1834 165.541 38.6511 168.157 40.0636 169.702C41.2031 170.948 80.3541 194.689 84.7956 196.321C86.2451 196.854 86.1055 187.599 84.1619 184.609C83.3292 183.329 54.7384 165.517 47.5153 165.535Z" fill="white"/>
<path d="M113.301 17.9577C111.406 18.4698 117.745 26.4484 120.76 27.1625C123.776 27.8767 127.902 25.7331 126.474 24.2657C125.045 22.7982 116.237 17.1642 113.301 17.9577Z" fill="white"/>
<path d="M127.348 25.8689C124.474 26.6381 129.775 39.2434 132.044 41.4853C134.313 43.7283 154.47 47.6568 154.008 44.0246C153.544 40.3924 131.384 24.7887 127.348 25.8689Z" fill="white"/>
<path opacity="0.3" d="M121.912 165.748C120.211 173.177 120.484 177.556 121.436 177.604C122.388 177.65 156.926 156.864 157.869 155.95C158.811 155.036 152.332 149.07 149.666 149.478C146.999 149.887 122.548 162.971 121.912 165.748Z" fill="#D01BDC"/>
<path opacity="0.3" d="M24.9847 55.9677C24.151 53.4655 21.5969 53.4803 21.3642 56.2703C21.1314 59.0603 20.7325 110.782 21.7472 110.861C22.7618 110.94 24.9043 108.401 24.9837 107.211C25.063 106.021 25.3815 57.1579 24.9847 55.9677Z" fill="#D01BDC"/>
<path opacity="0.3" d="M145.995 56.2845C145.859 57.2696 145.36 106.098 145.995 106.098C146.63 106.098 149.487 103.797 149.487 102.607C149.487 101.417 148.772 55.2519 148.455 55.0138C148.138 54.7768 146.105 55.4878 145.995 56.2845Z" fill="#D01BDC"/>
<path opacity="0.3" d="M85.4851 21.1912C85.4851 22.1508 57.6528 38.0338 56.9989 38.0338C56.344 38.0338 56.5821 33.7488 57.475 33.1532C58.368 32.5575 85.2862 16.3698 85.4851 16.9062C85.685 17.4415 85.4851 20.3924 85.4851 21.1912Z" fill="#D01BDC"/>
<path d="M142.935 149.857C141.158 149.789 135.154 153.279 135.61 154.987C136.065 156.695 139.741 158.538 140.716 157.549C141.691 156.56 144.098 149.901 142.935 149.857Z" fill="#CC1F38"/>
<path d="M145.221 151.057C144.611 151.62 143.279 153.62 144.546 154.597C145.814 155.575 149.544 152.997 148.993 152.24C148.442 151.482 146.009 150.329 145.221 151.057Z" fill="#CC1F38"/>
<path opacity="0.3" d="M136.489 153.273C135.009 155.278 141.08 156.61 141.872 154.923C142.663 153.235 143.93 149.68 142.935 149.857C141.939 150.033 137.297 152.179 136.489 153.273Z" fill="#D01BDC"/>
<path d="M135.634 154.496C135.634 154.496 136.129 156.204 137.928 157.26C139.343 158.089 140.561 157.903 140.92 157.288C140.92 157.288 139.815 158.728 137.975 157.87C135.095 156.525 135.634 154.496 135.634 154.496Z" fill="#DAE1EF"/>
<path opacity="0.3" d="M145.895 151.11C144.524 152.587 145.59 154.717 146.36 154.597C147.13 154.477 149.425 152.96 148.993 152.24C148.56 151.519 146.195 150.787 145.895 151.11Z" fill="#D01BDC"/>
<path d="M145.222 151.056C145.222 151.056 143.962 152.788 144.468 153.786C144.974 154.784 145.689 154.78 145.689 154.78C145.689 154.78 144.059 155.728 143.758 154.616C143.239 152.692 145.222 151.056 145.222 151.056Z" fill="#DAE1EF"/>
<path d="M77.3528 20.6512C73.0985 19.5276 69.6599 22.2837 67.7947 24.4019C65.9294 26.52 66.9693 27.7791 69.315 27.3622C71.6596 26.9433 79.1451 21.1241 77.3528 20.6512Z" fill="#CC1F38"/>
<path opacity="0.3" d="M77.3571 20.6513C74.4793 19.6695 70.8387 21.576 69.695 22.5907C68.5512 23.6053 70.7995 26.4821 72.3485 25.8684C73.8974 25.2548 78.668 21.0989 77.3571 20.6513Z" fill="#D01BDC"/>
<path d="M68.8655 23.3025C68.8655 23.3025 64.0578 26.4512 64.5974 28.0128C65.137 29.5734 70.9 26.7273 70.9 26.7273C70.9 26.7273 67.9111 27.7018 67.235 26.3761C66.5569 25.0483 68.8655 23.3025 68.8655 23.3025Z" fill="white"/>
<path d="M23.5475 146.786C21.2833 147.352 27.9933 151.959 29.5803 152.197C31.1674 152.435 29.6026 148.394 28.8334 147.699C28.2684 147.189 24.8171 146.468 23.5475 146.786Z" fill="white"/>
<path d="M85.4245 151.227L3.89138 103.677C0.739533 110.862 0 117.605 0 117.605L5.31971 126.597L85.4245 173.121L165.529 126.597L170.354 117.605C170.354 117.605 170.363 110.862 167.434 103.677L85.4245 151.227Z" fill="url(#paint8_linear_773_2199)"/>
<path d="M5.31971 126.597L0 117.604L85.4256 167.648L170.355 117.604L165.53 126.597L85.4256 173.122L5.31971 126.597Z" fill="url(#paint9_linear_773_2199)"/>
<path opacity="0.6" d="M0 117.604L5.31971 126.596L6.53326 127.344L6.50575 130.022C6.50575 130.022 11.0764 132.352 20.0558 137.31C20.3605 137.478 25.6972 143.115 25.6972 143.115C25.6972 143.115 83.4027 178.008 85.488 178.008C88.1796 178.008 145.429 142.344 145.429 142.344C145.429 142.344 149.888 138.6 150.332 138.338L164.469 130.935V127.213L165.53 126.597L170.355 117.605L85.4256 167.643L0 117.604Z" fill="#D01BDC"/>
<path opacity="0.69" d="M85.4214 151.227V167.648L170.351 117.605C170.351 117.605 170.011 109.372 167.431 103.677L85.4214 151.227Z" fill="url(#paint10_linear_773_2199)"/>
<path opacity="0.5" d="M8.09183 107.284C6.53125 107.284 7.81041 121.092 12.5493 124.266C20.076 129.307 65.4524 156.054 68.4244 156.086C70.478 156.108 70.3711 144.379 69.7533 143.469C68.5841 141.746 10.4195 107.284 8.09183 107.284Z" fill="white"/>
<path opacity="0.5" d="M110.643 137.041C109.657 138.059 109.792 150.964 111.476 150.58C113.161 150.196 138.808 136.5 150.904 127.62C162.999 118.74 164.705 107.029 161.983 107.289C161.983 107.289 112.667 134.953 110.643 137.041Z" fill="white"/>
<path d="M43.8838 143.313C43.8838 143.313 82.9236 166.724 85.4237 166.724C87.9238 166.724 119.092 147.808 119.092 147.808C119.092 147.808 86.377 168.549 85.4862 168.549C84.7932 168.548 43.8838 143.313 43.8838 143.313Z" fill="white"/>
<path d="M85.4245 124.598L3.89138 77.0476C0.739533 84.2327 0 90.9754 0 90.9754L5.31971 99.9676L85.4245 146.492L165.529 99.9676L170.354 90.9754C170.354 90.9754 170.363 84.2327 167.434 77.0476L85.4245 124.598Z" fill="url(#paint11_linear_773_2199)"/>
<path d="M5.31971 99.9677L0 90.9755L85.4256 141.018L170.355 90.9755L165.53 99.9677L85.4256 146.492L5.31971 99.9677Z" fill="url(#paint12_linear_773_2199)"/>
<path opacity="0.6" d="M0 90.9755L5.31971 99.9677L6.53326 100.716L6.50575 103.394C6.50575 103.394 11.0764 105.722 20.0558 110.681C20.3605 110.849 25.6972 116.487 25.6972 116.487C25.6972 116.487 83.4027 151.379 85.488 151.379C88.1796 151.379 145.429 115.715 145.429 115.715C145.429 115.715 149.888 111.971 150.332 111.71L164.469 104.307V100.584L165.53 99.9687L170.355 90.9766L85.4256 141.015L0 90.9755Z" fill="#D01BDC"/>
<path opacity="0.69" d="M85.4214 124.598V141.019L170.351 90.9755C170.351 90.9755 170.011 82.743 167.431 77.0477L85.4214 124.598Z" fill="url(#paint13_linear_773_2199)"/>
<path opacity="0.5" d="M8.09183 80.6557C6.53125 80.6557 7.81041 94.4629 12.5493 97.637C20.076 102.678 65.4524 129.425 68.4244 129.457C70.478 129.479 70.3711 117.75 69.7533 116.84C68.5841 115.117 10.4195 80.6557 8.09183 80.6557Z" fill="white"/>
<path opacity="0.5" d="M110.643 110.413C109.657 111.43 109.792 124.335 111.476 123.951C113.161 123.567 138.808 109.872 150.904 100.991C162.999 92.1109 164.705 80.4007 161.983 80.6599C161.983 80.6599 112.667 108.323 110.643 110.413Z" fill="white"/>
<path d="M43.8838 116.683C43.8838 116.683 82.9236 140.094 85.4237 140.094C87.9238 140.094 119.092 121.178 119.092 121.178C119.092 121.178 86.377 141.919 85.4862 141.919C84.7932 141.919 43.8838 116.683 43.8838 116.683Z" fill="white"/>
<path d="M85.4245 97.9633L3.89138 50.4126C0.739533 57.5976 0 64.3404 0 64.3404L5.31971 73.3325L85.4245 119.857L165.529 73.3325L170.354 64.3404C170.354 64.3404 170.363 57.5976 167.434 50.4126L85.4245 97.9633Z" fill="url(#paint14_linear_773_2199)"/>
<path d="M5.31971 73.3322L0 64.3401L85.4256 114.383L170.355 64.3401L165.53 73.3322L85.4256 119.857L5.31971 73.3322Z" fill="url(#paint15_linear_773_2199)"/>
<path opacity="0.6" d="M0 64.3401L5.31971 73.3322L6.53326 74.0803L6.50575 76.7581C6.50575 76.7581 11.0764 79.0879 20.0558 84.0458C20.3605 84.214 25.6972 89.8511 25.6972 89.8511C25.6972 89.8511 83.4027 124.744 85.488 124.744C88.1796 124.744 145.429 89.0798 145.429 89.0798C145.429 89.0798 149.888 85.3355 150.332 85.0742L164.469 77.6712V73.9491L165.53 73.3322L170.355 64.3401L85.4256 114.378L0 64.3401Z" fill="#D01BDC"/>
<path opacity="0.69" d="M85.4214 97.9633V114.384L170.351 64.3404C170.351 64.3404 170.011 56.1079 167.431 50.4126L85.4214 97.9633Z" fill="url(#paint16_linear_773_2199)"/>
<path opacity="0.5" d="M8.09183 54.0203C6.53125 54.0203 7.81041 67.8275 12.5493 71.0015C20.076 76.043 65.4524 102.79 68.4244 102.822C70.478 102.844 70.3711 91.1145 69.7533 90.2046C68.5841 88.4811 10.4195 54.0203 8.09183 54.0203Z" fill="white"/>
<path opacity="0.5" d="M110.643 83.7772C109.657 84.795 109.792 97.6997 111.476 97.3156C113.161 96.9315 138.808 83.2365 150.904 74.3555C162.999 65.4755 164.705 53.7653 161.983 54.0245C161.983 54.0245 112.667 81.6876 110.643 83.7772Z" fill="white"/>
<path d="M43.8838 90.0481C43.8838 90.0481 82.9236 113.458 85.4237 113.458C87.9238 113.458 119.092 94.5415 119.092 94.5415C119.092 94.5415 86.377 115.283 85.4862 115.283C84.7932 115.284 43.8838 90.0481 43.8838 90.0481Z" fill="white"/>
<defs>
<linearGradient id="paint0_linear_773_2199" x1="85.4904" y1="203.434" x2="85.4904" y2="31.9351" gradientUnits="userSpaceOnUse">
<stop stop-color="#F77F5C"/>
<stop offset="0.3651" stop-color="#E5552F"/>
<stop offset="0.4915" stop-color="#E65A33"/>
<stop offset="0.6449" stop-color="#E9693E"/>
<stop offset="0.8122" stop-color="#EF8150"/>
<stop offset="0.9883" stop-color="#F6A36A"/>
<stop offset="1" stop-color="#F7A66C"/>
</linearGradient>
<linearGradient id="paint1_linear_773_2199" x1="85.4845" y1="1.77656" x2="85.4845" y2="174.164" gradientUnits="userSpaceOnUse">
<stop stop-color="#E5552F"/>
<stop offset="0.1992" stop-color="#E65A33"/>
<stop offset="0.4408" stop-color="#E9693E"/>
<stop offset="0.7042" stop-color="#EF8150"/>
<stop offset="0.9816" stop-color="#F6A36A"/>
<stop offset="1" stop-color="#F7A66C"/>
</linearGradient>
<linearGradient id="paint2_linear_773_2199" x1="85.489" y1="178.008" x2="85.489" y2="21.9908" gradientUnits="userSpaceOnUse">
<stop stop-color="#F77F5C"/>
<stop offset="0.3651" stop-color="#E5552F"/>
<stop offset="0.4915" stop-color="#E65A33"/>
<stop offset="0.6449" stop-color="#E9693E"/>
<stop offset="0.8122" stop-color="#EF8150"/>
<stop offset="0.9883" stop-color="#F6A36A"/>
<stop offset="1" stop-color="#F7A66C"/>
</linearGradient>
<linearGradient id="paint3_linear_773_2199" x1="13.5756" y1="105.482" x2="13.5756" y2="152.532" gradientUnits="userSpaceOnUse">
<stop stop-color="#C10065"/>
<stop offset="1" stop-color="white"/>
</linearGradient>
<linearGradient id="paint4_linear_773_2199" x1="157.099" y1="105.482" x2="157.099" y2="152.532" gradientUnits="userSpaceOnUse">
<stop stop-color="#C10065"/>
<stop offset="1" stop-color="white"/>
</linearGradient>
<linearGradient id="paint5_linear_773_2199" x1="47.5516" y1="148.489" x2="47.5516" y2="197.108" gradientUnits="userSpaceOnUse">
<stop stop-color="#C10065"/>
<stop offset="1" stop-color="white"/>
</linearGradient>
<linearGradient id="paint6_linear_773_2199" x1="123.425" y1="148.495" x2="123.425" y2="198.067" gradientUnits="userSpaceOnUse">
<stop stop-color="#C10065"/>
<stop offset="1" stop-color="white"/>
</linearGradient>
<linearGradient id="paint7_linear_773_2199" x1="85.3296" y1="77.5733" x2="85.3296" y2="175.454" gradientUnits="userSpaceOnUse">
<stop stop-color="#C10065"/>
<stop offset="1" stop-color="white"/>
</linearGradient>
<linearGradient id="paint8_linear_773_2199" x1="85.1764" y1="35.3293" x2="85.1764" y2="159.625" gradientUnits="userSpaceOnUse">
<stop stop-color="#F77F5C"/>
<stop offset="0.3651" stop-color="#E5552F"/>
<stop offset="0.4915" stop-color="#E65A33"/>
<stop offset="0.6449" stop-color="#E9693E"/>
<stop offset="0.8122" stop-color="#EF8150"/>
<stop offset="0.9883" stop-color="#F6A36A"/>
<stop offset="1" stop-color="#F7A66C"/>
</linearGradient>
<linearGradient id="paint9_linear_773_2199" x1="85.1774" y1="173.122" x2="85.1774" y2="117.605" gradientUnits="userSpaceOnUse">
<stop stop-color="#F1CB3C"/>
<stop offset="1" stop-color="#FFC14F"/>
</linearGradient>
<linearGradient id="paint10_linear_773_2199" x1="127.886" y1="103.677" x2="127.886" y2="167.648" gradientUnits="userSpaceOnUse">
<stop stop-color="#C10065"/>
<stop offset="1" stop-color="white"/>
</linearGradient>
<linearGradient id="paint11_linear_773_2199" x1="85.1763" y1="5.84295" x2="85.1763" y2="130.139" gradientUnits="userSpaceOnUse">
<stop stop-color="#F77F5C"/>
<stop offset="0.3651" stop-color="#E5552F"/>
<stop offset="0.4915" stop-color="#E65A33"/>
<stop offset="0.6449" stop-color="#E9693E"/>
<stop offset="0.8122" stop-color="#EF8150"/>
<stop offset="0.9883" stop-color="#F6A36A"/>
<stop offset="1" stop-color="#F7A66C"/>
</linearGradient>
<linearGradient id="paint12_linear_773_2199" x1="85.1774" y1="146.492" x2="85.1774" y2="90.9752" gradientUnits="userSpaceOnUse">
<stop stop-color="#F1CB3C"/>
<stop offset="1" stop-color="#FFC14F"/>
</linearGradient>
<linearGradient id="paint13_linear_773_2199" x1="127.886" y1="77.0472" x2="127.886" y2="141.018" gradientUnits="userSpaceOnUse">
<stop stop-color="#C10065"/>
<stop offset="1" stop-color="white"/>
</linearGradient>
<linearGradient id="paint14_linear_773_2199" x1="85.1763" y1="-24.1244" x2="85.1763" y2="100.172" gradientUnits="userSpaceOnUse">
<stop stop-color="#F77F5C"/>
<stop offset="0.3651" stop-color="#E5552F"/>
<stop offset="0.4915" stop-color="#E65A33"/>
<stop offset="0.6449" stop-color="#E9693E"/>
<stop offset="0.8122" stop-color="#EF8150"/>
<stop offset="0.9883" stop-color="#F6A36A"/>
<stop offset="1" stop-color="#F7A66C"/>
</linearGradient>
<linearGradient id="paint15_linear_773_2199" x1="85.1774" y1="119.857" x2="85.1774" y2="64.34" gradientUnits="userSpaceOnUse">
<stop stop-color="#F1CB3C"/>
<stop offset="1" stop-color="#FFC14F"/>
</linearGradient>
<linearGradient id="paint16_linear_773_2199" x1="127.886" y1="50.4125" x2="127.886" y2="114.384" gradientUnits="userSpaceOnUse">
<stop stop-color="#C10065"/>
<stop offset="1" stop-color="white"/>
</linearGradient>
</defs>
</svg>
