<svg width="231" height="32" viewBox="0 0 231 32" fill="none" xmlns="http://www.w3.org/2000/svg">
<path d="M5.71994 30.28C4.03994 30.28 2.66661 29.4933 1.59994 27.92C0.533275 26.3466 -5.85616e-05 24.1866 -5.85616e-05 21.44C-5.85616e-05 18.9333 0.346608 16.4666 1.03994 14.04C1.73327 11.5866 2.70661 9.38662 3.95994 7.43995C5.21327 5.49328 6.69327 3.93328 8.39994 2.75995C10.1333 1.55995 12.0399 0.959951 14.1199 0.959951C15.4266 0.959951 16.5466 1.46662 17.4799 2.47995C18.4133 3.49328 18.8799 4.85328 18.8799 6.55995V7.03995C18.8799 7.14662 18.8799 7.23995 18.8799 7.31995C18.8799 7.39995 18.8666 7.49328 18.8399 7.59995L13.5999 8.99995C13.2799 8.33328 12.9066 7.99995 12.4799 7.99995C11.8399 7.99995 11.1599 8.51995 10.4399 9.55995C9.74661 10.5999 9.07994 11.84 8.43994 13.28C8.01328 14.24 7.62661 15.2266 7.27994 16.24C6.95994 17.2533 6.70661 18.2 6.51994 19.08C6.33328 19.96 6.23994 20.68 6.23994 21.24C6.23994 22.0666 6.35994 22.6666 6.59994 23.04C6.78661 23.3866 7.07994 23.56 7.47994 23.56C7.87994 23.56 8.31994 23.3733 8.79994 23C9.27994 22.6 9.71994 22.1066 10.1199 21.52C10.5466 20.9333 10.8266 20.3466 10.9599 19.76L15.5199 21.6C14.2133 24.5866 12.6533 26.7866 10.8399 28.2C9.05328 29.5866 7.34661 30.28 5.71994 30.28ZM15.3224 30.28C16.0958 26.5466 16.8158 22.9066 17.4824 19.36C17.8558 17.2 18.2291 15.0133 18.6024 12.7999C19.0024 10.5866 19.3624 8.46662 19.6824 6.43995C20.0024 4.41328 20.2424 2.59995 20.4024 0.99995C21.1224 1.02662 21.7091 1.06662 22.1624 1.11995C22.6424 1.14662 23.0824 1.17328 23.4824 1.19995C23.9091 1.22662 24.3758 1.25328 24.8824 1.27995C25.4158 1.27995 26.0824 1.27995 26.8824 1.27995C26.4291 3.17328 25.9758 5.06662 25.5224 6.95995C25.0958 8.85328 24.6958 10.7599 24.3224 12.68L28.2824 12.2399C28.4691 11.3066 28.6424 10.3866 28.8024 9.47995C28.9891 8.54662 29.1491 7.62662 29.2824 6.71995C29.4158 5.83995 29.5758 4.94662 29.7624 4.03995C29.9758 3.10662 30.2024 2.17328 30.4424 1.23995C31.4024 1.07995 32.3758 0.95995 33.3624 0.87995C34.3491 0.773283 35.1758 0.706616 35.8424 0.67995C36.5091 0.626617 36.8424 0.599951 36.8424 0.599951C36.4958 1.66662 36.1491 2.91995 35.8024 4.35995C35.4558 5.79995 35.1224 7.31995 34.8024 8.91995C34.4824 10.52 34.1758 12.1199 33.8824 13.7199C33.5891 15.2933 33.3224 16.76 33.0824 18.12C32.7891 19.8266 32.5091 21.5466 32.2424 23.28C31.9758 24.9866 31.7091 26.7333 31.4424 28.52L25.2024 29.24C25.3891 28.44 25.5491 27.6533 25.6824 26.88C25.8424 26.08 25.9891 25.3066 26.1224 24.56C26.3891 23.28 26.6558 21.9466 26.9224 20.56C27.2158 19.1733 27.4424 17.9866 27.6024 17L23.7224 17.36C23.6158 17.8666 23.5091 18.4133 23.4024 19C23.3224 19.5866 23.2158 20.2133 23.0824 20.88C22.9491 21.5466 22.8158 22.2 22.6824 22.84C22.5758 23.4533 22.4691 24.0666 22.3624 24.68C22.2291 25.4 22.0824 26.12 21.9224 26.84C21.7624 27.56 21.6158 28.28 21.4824 29L15.3224 30.28ZM43.0187 30.12C43.072 29.6666 43.1254 29.2266 43.1787 28.8C43.232 28.3733 43.2854 27.9466 43.3387 27.52L43.5787 25.28C43.6054 24.9066 43.632 24.56 43.6587 24.24C43.6854 23.92 43.712 23.6266 43.7387 23.36H40.2587L38.6587 29.12C38.072 29.2 37.3787 29.2933 36.5787 29.4C35.7787 29.48 35.032 29.56 34.3387 29.64C33.912 29.6933 33.4854 29.7466 33.0587 29.8C32.6587 29.8533 32.2454 29.9066 31.8187 29.96L34.9787 19.48C35.352 18.2266 35.7787 16.8 36.2587 15.1999C36.7387 13.5999 37.2187 11.9599 37.6987 10.28C38.2054 8.59995 38.672 7.02662 39.0987 5.55995C39.552 4.06662 39.912 2.81328 40.1787 1.79995C41.992 1.66662 43.832 1.50662 45.6987 1.31995C47.592 1.13328 49.432 0.87995 51.2187 0.559949C51.0854 2.05328 50.952 3.74662 50.8187 5.63995C50.712 7.50662 50.6054 9.43995 50.4987 11.44C50.4187 13.44 50.3254 15.4133 50.2187 17.36C50.1654 19.2 50.0987 21.1066 50.0187 23.08C49.9387 25.0266 49.8587 27.0266 49.7787 29.08C49.3787 29.1333 48.9787 29.1866 48.5787 29.24C48.1787 29.2933 47.7787 29.3466 47.3787 29.4C46.712 29.5066 45.9787 29.6266 45.1787 29.76C44.3787 29.8933 43.6587 30.0133 43.0187 30.12ZM41.2187 19.36C41.3787 19.36 41.672 19.3466 42.0987 19.32C42.552 19.2933 42.9787 19.2666 43.3787 19.24C43.7787 19.2133 44.0187 19.2 44.0987 19.2C44.0987 18.8533 44.152 18.1466 44.2587 17.08C44.3654 16.0133 44.472 14.8933 44.5787 13.7199C44.632 13.0266 44.6854 12.32 44.7387 11.5999C44.8187 10.8533 44.8987 10.0933 44.9787 9.31995L45.2187 5.83995L44.6187 5.87995L43.6987 9.31995L41.2187 19.36ZM50.4434 30.28C50.7367 28.1733 51.0434 26.0533 51.3634 23.92C51.71 21.7866 52.0567 19.7333 52.4034 17.76C52.7767 15.76 53.1234 13.96 53.4434 12.36C53.79 10.6266 54.1367 8.86662 54.4834 7.07995C54.83 5.29328 55.19 3.49328 55.5634 1.67995L62.5634 0.759949L60.4834 9.79995C60.11 11.3733 59.7234 13.0666 59.3234 14.88C58.95 16.6666 58.6034 18.4 58.2834 20.08C57.9634 21.76 57.71 23.2533 57.5234 24.56C58.19 24.5066 58.8967 24.48 59.6434 24.48C60.4167 24.4533 61.0967 24.44 61.6834 24.44C61.71 25.0533 61.7634 25.7066 61.8434 26.4C61.9234 27.0666 62.0034 27.6533 62.0834 28.16C62.19 28.64 62.2434 28.9066 62.2434 28.96C62.1367 28.96 62.03 28.96 61.9234 28.96C61.8434 28.96 61.75 28.9466 61.6434 28.92H61.0034C59.9634 28.92 58.8034 28.9733 57.5234 29.08C56.27 29.16 55.0167 29.3066 53.7634 29.52C52.5367 29.7066 51.43 29.96 50.4434 30.28ZM62.5137 30.28C62.807 28.1733 63.1137 26.0533 63.4337 23.92C63.7804 21.7866 64.127 19.7333 64.4737 17.76C64.847 15.76 65.1937 13.96 65.5137 12.36C65.8604 10.6266 66.207 8.86662 66.5537 7.07995C66.9004 5.29328 67.2604 3.49328 67.6337 1.67995L74.6337 0.759949L72.5537 9.79995C72.1804 11.3733 71.7937 13.0666 71.3937 14.88C71.0204 16.6666 70.6737 18.4 70.3537 20.08C70.0337 21.76 69.7804 23.2533 69.5937 24.56C70.2604 24.5066 70.967 24.48 71.7137 24.48C72.487 24.4533 73.167 24.44 73.7537 24.44C73.7804 25.0533 73.8337 25.7066 73.9137 26.4C73.9937 27.0666 74.0737 27.6533 74.1537 28.16C74.2604 28.64 74.3137 28.9066 74.3137 28.96C74.207 28.96 74.1004 28.96 73.9937 28.96C73.9137 28.96 73.8204 28.9466 73.7137 28.92H73.0737C72.0337 28.92 70.8737 28.9733 69.5937 29.08C68.3404 29.16 67.087 29.3066 65.8337 29.52C64.607 29.7066 63.5004 29.96 62.5137 30.28ZM74.424 30.24L79.664 1.79995L92.304 0.719949C92.1173 1.30662 91.9573 1.90662 91.824 2.51995C91.6907 3.02662 91.5573 3.55995 91.424 4.11995C91.3173 4.65328 91.224 5.13328 91.144 5.55995C90.7973 5.58662 90.304 5.61328 89.664 5.63995C89.024 5.63995 88.3707 5.65328 87.704 5.67995C87.0373 5.67995 86.464 5.67995 85.984 5.67995C85.504 5.67995 85.2507 5.67995 85.224 5.67995L83.824 12.84L86.144 12.72C86.4373 12.6933 86.7307 12.68 87.024 12.68C87.344 12.68 87.6507 12.68 87.944 12.68C88.2373 12.68 88.504 12.68 88.744 12.68C88.984 12.68 89.1707 12.6666 89.304 12.64C89.2507 13.0133 89.1973 13.3866 89.144 13.76C89.1173 14.1066 89.0773 14.4666 89.024 14.84L88.664 17.04C88.5307 17.0666 88.3573 17.08 88.144 17.08C87.9307 17.08 87.6773 17.08 87.384 17.08C87.0907 17.1066 86.784 17.12 86.464 17.12C86.144 17.12 85.8373 17.1333 85.544 17.16C85.1973 17.1866 84.8373 17.2 84.464 17.2C84.0907 17.2 83.6907 17.2133 83.264 17.24L81.904 24.6L87.744 23.68L87.344 28.24L74.424 30.24ZM87.9368 30.4C88.7368 26.56 89.4968 22.84 90.2168 19.24C90.8035 15.8533 91.3768 12.6 91.9368 9.47995C92.4968 6.35995 92.8968 3.49328 93.1368 0.87995C93.3235 0.906616 93.4835 0.919949 93.6168 0.919949C93.7768 0.919949 93.9102 0.919949 94.0168 0.919949H94.8568C95.5502 0.919949 96.3235 0.906616 97.1768 0.87995C98.0302 0.826617 98.8168 0.786617 99.5368 0.759949C99.7235 1.69328 99.8968 2.61328 100.057 3.51995C100.243 4.42662 100.403 5.30662 100.537 6.15995C100.67 6.90662 100.817 7.67995 100.977 8.47995C101.137 9.25328 101.297 10.04 101.457 10.84C101.59 11.64 101.723 12.3866 101.857 13.0799C102.017 13.7466 102.15 14.36 102.257 14.92C102.577 13.3466 102.87 11.8 103.137 10.28C103.43 8.75995 103.71 7.38662 103.977 6.15995L105.137 0.799951L110.017 0.199949C109.563 2.22662 109.137 4.21328 108.737 6.15995C108.337 8.10662 107.963 9.98662 107.617 11.8C106.95 15.0533 106.363 18.12 105.857 21C105.35 23.88 104.963 26.3866 104.697 28.52C104.99 28.52 104.937 28.56 104.537 28.64C104.163 28.6933 103.603 28.7866 102.857 28.92C102.11 29.0266 101.31 29.1733 100.457 29.36C99.6035 29.5466 98.8435 29.7733 98.1768 30.04C98.0968 28.9733 98.0168 27.9333 97.9368 26.92C97.8568 25.9066 97.7635 24.92 97.6568 23.96C97.4968 22.2533 97.3102 20.56 97.0968 18.88C96.8835 17.2 96.6702 15.8666 96.4568 14.88C96.2702 16.0533 96.0435 17.4 95.7768 18.92C95.5102 20.4133 95.2168 21.92 94.8968 23.44L93.7768 29.04L87.9368 30.4ZM114.743 31.16C113.756 31.16 112.809 30.9466 111.903 30.52C111.023 30.0933 110.263 29.44 109.623 28.56C108.956 27.7066 108.436 26.6266 108.063 25.32C107.689 24.0133 107.503 22.48 107.503 20.72C107.503 17.28 107.996 14.28 108.983 11.72C109.969 9.15995 111.223 7.02662 112.743 5.31995C114.236 3.61328 115.836 2.34662 117.543 1.51995C119.276 0.693284 120.889 0.27995 122.383 0.27995C123.823 0.27995 124.996 0.59995 125.903 1.23995C126.809 1.85328 127.476 2.67995 127.903 3.71995C128.329 4.75995 128.543 5.91995 128.543 7.19995L123.063 8.23995C122.823 7.17328 122.503 6.41328 122.103 5.95995C121.703 5.50662 121.249 5.27995 120.743 5.27995C120.156 5.27995 119.543 5.59995 118.903 6.23995C118.289 6.87995 117.676 7.74662 117.063 8.83995C116.476 9.90662 115.943 11.1066 115.463 12.4399C114.983 13.7733 114.583 15.1466 114.263 16.56C113.969 17.9733 113.796 19.3066 113.743 20.56C113.743 22.2133 113.983 23.4 114.463 24.12C114.969 24.8133 115.609 25.16 116.383 25.16C117.129 25.16 117.863 24.92 118.583 24.44C119.329 23.96 119.943 23.32 120.423 22.52C120.929 21.6933 121.196 20.7733 121.223 19.76L116.943 20.4L117.703 16.44L121.383 15.96C122.396 15.8266 123.463 15.6666 124.583 15.4799C125.729 15.2933 126.729 15.12 127.583 14.96C127.396 17.68 126.863 20.0666 125.983 22.12C125.129 24.1466 124.063 25.8266 122.783 27.16C121.503 28.4933 120.156 29.4933 118.743 30.16C117.356 30.8266 116.023 31.16 114.743 31.16ZM126.104 30.24L131.344 1.79995L143.984 0.719949C143.797 1.30662 143.637 1.90662 143.504 2.51995C143.37 3.02662 143.237 3.55995 143.104 4.11995C142.997 4.65328 142.904 5.13328 142.824 5.55995C142.477 5.58662 141.984 5.61328 141.344 5.63995C140.704 5.63995 140.05 5.65328 139.384 5.67995C138.717 5.67995 138.144 5.67995 137.664 5.67995C137.184 5.67995 136.93 5.67995 136.904 5.67995L135.504 12.84L137.824 12.72C138.117 12.6933 138.41 12.68 138.704 12.68C139.024 12.68 139.33 12.68 139.624 12.68C139.917 12.68 140.184 12.68 140.424 12.68C140.664 12.68 140.85 12.6666 140.984 12.64C140.93 13.0133 140.877 13.3866 140.824 13.76C140.797 14.1066 140.757 14.4666 140.704 14.84L140.344 17.04C140.21 17.0666 140.037 17.08 139.824 17.08C139.61 17.08 139.357 17.08 139.064 17.08C138.77 17.1066 138.464 17.12 138.144 17.12C137.824 17.12 137.517 17.1333 137.224 17.16C136.877 17.1866 136.517 17.2 136.144 17.2C135.77 17.2 135.37 17.2133 134.944 17.24L133.584 24.6L139.424 23.68L139.024 28.24L126.104 30.24Z" fill="#489EB5"/>
<path d="M147.389 30.24L149.469 19.84C149.789 17.92 150.136 15.9466 150.509 13.92C150.882 11.8933 151.229 9.89328 151.549 7.91995C151.896 5.94662 152.162 4.09328 152.349 2.35995C153.869 1.87995 155.509 1.53328 157.269 1.31995C159.029 1.07995 160.776 0.959951 162.509 0.959951C164.536 0.959951 165.909 1.39995 166.629 2.27995C167.376 3.15995 167.749 4.34662 167.749 5.83995C167.749 7.19995 167.429 8.57328 166.789 9.95995C166.149 11.32 165.309 12.56 164.269 13.68C163.256 14.7733 162.136 15.64 160.909 16.28C161.389 17.3466 161.896 18.52 162.429 19.8C162.989 21.0533 163.509 22.2533 163.989 23.4C164.256 24.0666 164.522 24.7333 164.789 25.4C165.082 26.0666 165.362 26.7333 165.629 27.4L159.429 29.56C159.162 28.6266 158.909 27.7333 158.669 26.88C158.429 26.0266 158.202 25.1866 157.989 24.36C157.722 23.3733 157.469 22.4266 157.229 21.52C156.989 20.5866 156.776 19.76 156.589 19.04C156.429 18.32 156.336 17.8133 156.309 17.52L155.789 17.68C155.629 18.5333 155.429 19.5733 155.189 20.8C154.976 22.0266 154.776 23.2133 154.589 24.36L153.869 28.56L147.389 30.24ZM156.789 12.88C157.269 12.8266 157.856 12.6266 158.549 12.28C159.269 11.9066 159.976 11.4533 160.669 10.92C161.389 10.3866 161.989 9.83995 162.469 9.27995C162.949 8.71995 163.189 8.22662 163.189 7.79995C163.189 7.26662 162.869 6.91995 162.229 6.75995C161.616 6.57328 160.802 6.47995 159.789 6.47995H158.909C158.749 6.50662 158.602 6.51995 158.469 6.51995C158.336 6.51995 158.202 6.51995 158.069 6.51995L156.789 12.88ZM171.266 30.36C169.506 30.36 168.066 29.68 166.946 28.32C165.826 26.96 165.266 24.9066 165.266 22.16C165.266 20.64 165.453 19.04 165.826 17.36C166.199 15.68 166.719 14.0266 167.386 12.4C168.053 10.7733 168.826 9.26662 169.706 7.87995C171.119 5.63995 172.746 3.81328 174.586 2.39995C176.426 0.986616 178.359 0.27995 180.386 0.27995C181.986 0.27995 183.213 0.693284 184.066 1.51995C184.946 2.31995 185.559 3.35995 185.906 4.63995C186.253 5.89328 186.426 7.19995 186.426 8.55995C186.426 11.7333 185.933 14.6933 184.946 17.44C183.986 20.16 182.733 22.4666 181.186 24.36C179.639 26.3066 177.986 27.8 176.226 28.84C174.493 29.8533 172.839 30.36 171.266 30.36ZM173.426 23.76C174.626 23.76 175.679 23.36 176.586 22.56C177.519 21.76 178.306 20.7466 178.946 19.52C179.586 18.2666 180.066 16.96 180.386 15.6C180.706 14.24 180.866 13.0133 180.866 11.92C180.866 11.4933 180.826 11.04 180.746 10.56C180.666 10.0533 180.493 9.61328 180.226 9.23995C179.959 8.86662 179.546 8.67995 178.986 8.67995C177.759 8.67995 176.653 9.13328 175.666 10.04C174.679 10.92 173.853 12.04 173.186 13.4C172.519 14.7866 172.026 16.1466 171.706 17.48C171.386 18.8133 171.226 20.0266 171.226 21.12C171.226 21.68 171.426 22.2666 171.826 22.88C172.226 23.4666 172.759 23.76 173.426 23.76ZM190.992 30.36C189.232 30.36 187.792 29.68 186.672 28.32C185.552 26.96 184.992 24.9066 184.992 22.16C184.992 20.64 185.179 19.04 185.552 17.36C185.926 15.68 186.446 14.0266 187.112 12.4C187.779 10.7733 188.552 9.26662 189.432 7.87995C190.846 5.63995 192.472 3.81328 194.312 2.39995C196.152 0.986616 198.086 0.27995 200.112 0.27995C201.712 0.27995 202.939 0.693284 203.792 1.51995C204.672 2.31995 205.286 3.35995 205.632 4.63995C205.979 5.89328 206.152 7.19995 206.152 8.55995C206.152 11.7333 205.659 14.6933 204.672 17.44C203.712 20.16 202.459 22.4666 200.912 24.36C199.366 26.3066 197.712 27.8 195.952 28.84C194.219 29.8533 192.566 30.36 190.992 30.36ZM193.152 23.76C194.352 23.76 195.406 23.36 196.312 22.56C197.246 21.76 198.032 20.7466 198.672 19.52C199.312 18.2666 199.792 16.96 200.112 15.6C200.432 14.24 200.592 13.0133 200.592 11.92C200.592 11.4933 200.552 11.04 200.472 10.56C200.392 10.0533 200.219 9.61328 199.952 9.23995C199.686 8.86662 199.272 8.67995 198.712 8.67995C197.486 8.67995 196.379 9.13328 195.392 10.04C194.406 10.92 193.579 12.04 192.912 13.4C192.246 14.7866 191.752 16.1466 191.432 17.48C191.112 18.8133 190.952 20.0266 190.952 21.12C190.952 21.68 191.152 22.2666 191.552 22.88C191.952 23.4666 192.486 23.76 193.152 23.76ZM202.006 29.96C203.179 26.3866 204.299 22.9066 205.366 19.52C205.819 18.1333 206.286 16.6533 206.766 15.08C207.246 13.5066 207.726 11.9333 208.206 10.36C208.686 8.75995 209.139 7.22662 209.566 5.75995C209.992 4.29328 210.352 2.98662 210.646 1.83995C212.112 1.83995 213.499 1.75995 214.806 1.59995C215.472 1.51995 216.152 1.43995 216.846 1.35995C217.566 1.27995 218.299 1.21328 219.046 1.15995L218.806 3.11995C218.752 3.49328 218.699 3.87995 218.646 4.27995C218.592 4.65328 218.539 5.03995 218.486 5.43995C218.432 5.83995 218.366 6.25328 218.286 6.67995C218.206 7.07995 218.139 7.49328 218.086 7.91995C217.979 8.74662 217.819 9.90662 217.606 11.4C217.392 12.8666 217.139 14.4666 216.846 16.2H217.366C218.139 14.1733 218.779 12.4933 219.286 11.16C219.792 9.79995 220.206 8.69328 220.526 7.83995C220.979 6.58662 221.472 5.31995 222.006 4.03995C222.539 2.75995 222.979 1.77328 223.326 1.07995C223.966 1.02662 224.726 0.946617 225.606 0.83995C226.512 0.706617 227.419 0.55995 228.326 0.399949C229.259 0.239949 230.059 0.106616 230.726 -5.10216e-05C230.352 2.23995 230.006 4.50662 229.686 6.79995C229.392 9.06662 229.126 11.24 228.886 13.32C228.672 15.3733 228.486 17.2266 228.326 18.88C228.166 20.5333 228.019 22.1733 227.886 23.8C227.752 25.4 227.619 26.9866 227.486 28.56L220.526 29.8C220.526 29.7466 220.566 29.1466 220.646 28C220.726 26.8533 220.859 25.4266 221.046 23.72C221.232 22.0133 221.419 20.4 221.606 18.88C221.792 17.3333 221.979 16.0666 222.166 15.08H221.806C221.139 17.1066 220.326 19.32 219.366 21.72C218.432 24.12 217.512 26.7733 216.606 29.68C215.672 29.7066 214.872 29.7466 214.206 29.8C213.539 29.8266 212.766 29.8666 211.886 29.92L213.166 15.08H212.566C212.539 15.3733 212.419 15.9466 212.206 16.8C211.992 17.6266 211.739 18.5866 211.446 19.68C211.152 20.7466 210.846 21.8133 210.526 22.88C209.326 27.0666 208.686 29.28 208.606 29.52L202.006 29.96Z" fill="#FFA62B"/>
</svg>
