<svg width="24" height="24" viewBox="0 0 24 24" fill="none" xmlns="http://www.w3.org/2000/svg">
<path d="M12.288 24H11.712V22.4H12.288V24ZM20.2816 20.6888L19.1504 19.5576L19.5584 19.1496L20.6896 20.2808L20.2816 20.6888ZM3.7184 20.6888L3.3112 20.2808L4.4424 19.1496L4.8496 19.5576L3.7184 20.6888ZM14 20.288C13.1416 20.288 12.3912 19.812 12 19.1096C11.6088 19.812 10.8592 20.288 10 20.288C8.9664 20.288 8.076 19.588 7.8048 18.6128C6.0896 19.0352 4.5128 17.6816 4.512 16C4.512 15.6736 4.5752 15.3504 4.6992 15.0376C3.6048 14.424 2.912 13.2616 2.912 12C2.912 10.7392 3.6048 9.576 4.6992 8.9624C4.5752 8.6496 4.512 8.3264 4.512 8C4.512 6.3184 6.0784 4.9656 7.8048 5.3864C8.0752 4.412 8.9664 3.712 10 3.712C10.8592 3.712 11.6088 4.188 12 4.8896C12.3912 4.188 13.1416 3.712 14 3.712C15.0336 3.712 15.924 4.412 16.1944 5.3864C17.8976 4.9704 19.488 6.3168 19.488 8C19.488 8.3264 19.4248 8.6488 19.3008 8.9624C20.3952 9.576 21.088 10.7384 21.088 12C21.088 13.2616 20.3952 14.424 19.3008 15.0376C19.4248 15.3512 19.488 15.6736 19.488 16C19.488 17.6816 17.9144 19.0328 16.1944 18.6136C15.924 19.588 15.0336 20.288 14 20.288ZM12.288 18C12.288 18.944 13.056 19.712 14 19.712C14.8568 19.712 15.5832 19.0664 15.6888 18.2104C15.7 18.1232 15.7496 18.0456 15.8248 17.9992C15.9008 17.9544 15.9928 17.9456 16.0744 17.9752C17.5448 18.5176 18.912 17.4032 18.912 16C18.912 15.6744 18.8296 15.3504 18.668 15.0376C18.632 14.968 18.6264 14.8864 18.652 14.8112C18.6776 14.7368 18.7328 14.676 18.804 14.644C19.8416 14.1704 20.5112 13.1328 20.5112 12C20.5112 10.8672 19.8408 9.8304 18.804 9.356C18.732 9.3232 18.6768 9.2624 18.652 9.188C18.6264 9.1136 18.632 9.032 18.6688 8.9616C18.8296 8.6488 18.912 8.3256 18.912 8C18.912 6.5984 17.5616 5.4816 16.0744 6.0248C15.992 6.0544 15.8992 6.0464 15.8248 6C15.7496 5.9544 15.7 5.8768 15.6888 5.7896C15.5832 4.9336 14.8568 4.288 14 4.288C13.056 4.288 12.288 5.056 12.288 6V7.2H11.712V6C11.712 5.056 10.944 4.288 10 4.288C9.1432 4.288 8.4168 4.9336 8.3104 5.7904C8.2992 5.8776 8.2496 5.9552 8.1744 6.0008C8.0992 6.0472 8.0072 6.0552 7.9248 6.0256C6.4432 5.4808 5.088 6.5984 5.088 8C5.088 8.3264 5.1704 8.6496 5.3312 8.9616C5.3528 9.0032 5.3632 9.048 5.3632 9.0944C5.3632 9.1264 5.3584 9.1576 5.3472 9.1888C5.3216 9.2632 5.2664 9.324 5.1944 9.3568C4.1584 9.8304 3.488 10.868 3.488 12C3.488 13.1328 4.1584 14.1704 5.1952 14.644C5.2672 14.6768 5.3224 14.7368 5.348 14.812C5.3584 14.8424 5.364 14.8736 5.364 14.9056C5.364 14.9512 5.3536 14.996 5.332 15.0376C5.1696 15.3504 5.088 15.6744 5.088 16C5.088 17.4032 6.4552 18.5168 7.9248 17.9752C8.0056 17.9448 8.0992 17.9544 8.1744 17.9992C8.2496 18.0456 8.3 18.1224 8.3104 18.2104C8.416 19.0664 9.1432 19.712 10 19.712C10.944 19.712 11.712 18.944 11.712 18V16.8H12.288V18ZM8.504 16.288C8.4296 16.288 8.356 16.2592 8.3008 16.204L7.7968 15.7C7.7056 15.6088 7.6856 15.4672 7.7496 15.3544L8.3672 14.2584C8.4112 14.1792 8.4896 14.1264 8.5792 14.1144C8.6704 14.0976 8.7584 14.132 8.8224 14.1968L9.1088 14.4832L10.5968 12.996L11.004 13.404L9.5152 14.8912L9.804 15.1808C9.868 15.244 9.8976 15.3336 9.8856 15.424C9.8736 15.5128 9.82 15.5912 9.7416 15.6352L8.6456 16.2512C8.6008 16.276 8.552 16.288 8.504 16.288ZM8.3584 15.4472L8.5536 15.6424L9.1288 15.3192L8.6832 14.8728L8.3584 15.4472ZM14.4152 16.2872C13.928 16.2872 13.4464 16.0984 13.0872 15.7384C12.616 15.2664 12.4328 14.5784 12.5984 13.94L10.06 11.4016C9.4224 11.5648 8.7328 11.3848 8.2616 10.912C7.7008 10.3512 7.5536 9.4936 7.8952 8.7776C7.9352 8.6936 8.0144 8.6336 8.1064 8.6176C8.2 8.6008 8.2928 8.632 8.3584 8.6984L9.4168 9.7568C9.5088 9.8472 9.668 9.8464 9.7576 9.7568C9.8512 9.6624 9.8512 9.5096 9.7576 9.416L8.6992 8.3576C8.6328 8.2912 8.6032 8.1976 8.6184 8.1056C8.6344 8.0136 8.6936 7.9352 8.7784 7.8944C9.4944 7.5536 10.352 7.7 10.9128 8.2608C11.3848 8.7328 11.5672 9.4216 11.4016 10.06L13.94 12.5976C14.5776 12.4312 15.2656 12.6144 15.7384 13.0864C16.2992 13.648 16.4464 14.5048 16.1048 15.2208C16.064 15.3048 15.9856 15.3648 15.8928 15.38C15.8048 15.3984 15.7072 15.3656 15.6408 15.3L14.5824 14.2416C14.4888 14.148 14.336 14.148 14.2408 14.2416C14.148 14.3352 14.148 14.4888 14.2416 14.5824L15.3 15.6408C15.3656 15.7072 15.396 15.8008 15.38 15.8928C15.364 15.9848 15.3048 16.064 15.2208 16.1048C14.964 16.228 14.688 16.2872 14.4152 16.2872ZM10.14 10.7872C10.2152 10.7872 10.2888 10.8168 10.3432 10.8712L13.128 13.6552C13.208 13.7352 13.2336 13.8536 13.1944 13.9592C13.0184 14.4344 13.136 14.9728 13.4944 15.3304C13.776 15.6136 14.172 15.7416 14.5488 15.704L13.8336 14.9896C13.516 14.672 13.516 14.1528 13.8336 13.8344C14.1536 13.516 14.6712 13.5168 14.9896 13.8336L15.704 14.5488C15.744 14.1664 15.6136 13.776 15.3304 13.4944C14.972 13.136 14.4328 13.0176 13.9592 13.1944C13.8536 13.232 13.736 13.2072 13.6552 13.128L10.8712 10.344C10.7912 10.2648 10.7656 10.1456 10.8048 10.0408C10.9808 9.5656 10.8632 9.0264 10.5048 8.6688C10.2224 8.3864 9.832 8.256 9.4496 8.2952L10.164 9.0104C10.4824 9.3288 10.4824 9.8472 10.164 10.1656C9.856 10.4736 9.316 10.4736 9.0088 10.1656L8.2944 9.4512C8.2544 9.8336 8.3856 10.224 8.668 10.5064C9.0264 10.8648 9.5648 10.9824 10.0392 10.8064C10.072 10.7936 10.1064 10.7872 10.14 10.7872ZM24 12.288H22.4V11.712H24V12.288ZM1.6 12.288H0V11.712H1.6V12.288ZM13.8968 11.4032L13.4888 10.996L15.6104 8.8736C15.676 8.808 15.7112 8.7224 15.7112 8.6304C15.7112 8.5384 15.676 8.4528 15.6112 8.388C15.48 8.2576 15.256 8.2576 15.1264 8.388L13.0056 10.5096L12.5984 10.1024L14.7192 7.9808C15.0664 7.6328 15.672 7.6328 16.0192 7.9808C16.1928 8.1544 16.2888 8.3848 16.2888 8.6304C16.2888 8.876 16.1928 9.1072 16.0184 9.2808L13.8968 11.4032ZM19.5576 4.8496L19.1496 4.4424L20.2808 3.3112L20.6888 3.7184L19.5576 4.8496ZM4.4424 4.8496L3.3112 3.7184L3.7184 3.3112L4.8496 4.4424L4.4424 4.8496ZM12.288 1.6H11.712V0H12.288V1.6Z" fill="#FFA62B"/>
</svg>
