<svg width="177" height="86" viewBox="0 0 177 86" fill="none" xmlns="http://www.w3.org/2000/svg">
<path d="M7.28 60.08C5.6 60.08 4.22667 59.2933 3.16 57.72C2.09333 56.1467 1.56 53.9867 1.56 51.24C1.56 48.7333 1.90667 46.2667 2.6 43.84C3.29333 41.3867 4.26667 39.1867 5.52 37.24C6.77333 35.2933 8.25333 33.7333 9.96 32.56C11.6933 31.36 13.6 30.76 15.68 30.76C16.9867 30.76 18.1067 31.2667 19.04 32.28C19.9733 33.2933 20.44 34.6533 20.44 36.36V36.84C20.44 36.9467 20.44 37.04 20.44 37.12C20.44 37.2 20.4267 37.2933 20.4 37.4L15.16 38.8C14.84 38.1333 14.4667 37.8 14.04 37.8C13.4 37.8 12.72 38.32 12 39.36C11.3067 40.4 10.64 41.64 10 43.08C9.57333 44.04 9.18667 45.0267 8.84 46.04C8.52 47.0533 8.26667 48 8.08 48.88C7.89333 49.76 7.8 50.48 7.8 51.04C7.8 51.8667 7.92 52.4667 8.16 52.84C8.34667 53.1867 8.64 53.36 9.04 53.36C9.44 53.36 9.88 53.1733 10.36 52.8C10.84 52.4 11.28 51.9067 11.68 51.32C12.1067 50.7333 12.3867 50.1467 12.52 49.56L17.08 51.4C15.7733 54.3867 14.2133 56.5867 12.4 58C10.6133 59.3867 8.90667 60.08 7.28 60.08ZM16.8825 60.08C17.6558 56.3467 18.3758 52.7067 19.0425 49.16C19.4158 47 19.7892 44.8133 20.1625 42.6C20.5625 40.3867 20.9225 38.2667 21.2425 36.24C21.5625 34.2133 21.8025 32.4 21.9625 30.8C22.6825 30.8267 23.2692 30.8667 23.7225 30.92C24.2025 30.9467 24.6425 30.9733 25.0425 31C25.4692 31.0267 25.9358 31.0533 26.4425 31.08C26.9758 31.08 27.6425 31.08 28.4425 31.08C27.9892 32.9733 27.5358 34.8667 27.0825 36.76C26.6558 38.6533 26.2558 40.56 25.8825 42.48L29.8425 42.04C30.0292 41.1067 30.2025 40.1867 30.3625 39.28C30.5492 38.3467 30.7092 37.4267 30.8425 36.52C30.9758 35.64 31.1358 34.7467 31.3225 33.84C31.5358 32.9067 31.7625 31.9733 32.0025 31.04C32.9625 30.88 33.9358 30.76 34.9225 30.68C35.9092 30.5733 36.7358 30.5067 37.4025 30.48C38.0692 30.4267 38.4025 30.4 38.4025 30.4C38.0558 31.4667 37.7092 32.72 37.3625 34.16C37.0158 35.6 36.6825 37.12 36.3625 38.72C36.0425 40.32 35.7358 41.92 35.4425 43.52C35.1492 45.0933 34.8825 46.56 34.6425 47.92C34.3492 49.6267 34.0692 51.3467 33.8025 53.08C33.5358 54.7867 33.2692 56.5333 33.0025 58.32L26.7625 59.04C26.9492 58.24 27.1092 57.4533 27.2425 56.68C27.4025 55.88 27.5492 55.1067 27.6825 54.36C27.9492 53.08 28.2158 51.7467 28.4825 50.36C28.7758 48.9733 29.0025 47.7867 29.1625 46.8L25.2825 47.16C25.1758 47.6667 25.0692 48.2133 24.9625 48.8C24.8825 49.3867 24.7758 50.0133 24.6425 50.68C24.5092 51.3467 24.3758 52 24.2425 52.64C24.1358 53.2533 24.0292 53.8667 23.9225 54.48C23.7892 55.2 23.6425 55.92 23.4825 56.64C23.3225 57.36 23.1758 58.08 23.0425 58.8L16.8825 60.08ZM44.5788 59.92C44.6321 59.4667 44.6854 59.0267 44.7388 58.6C44.7921 58.1733 44.8454 57.7467 44.8988 57.32L45.1388 55.08C45.1654 54.7067 45.1921 54.36 45.2188 54.04C45.2454 53.72 45.2721 53.4267 45.2988 53.16H41.8188L40.2188 58.92C39.6321 59 38.9388 59.0933 38.1388 59.2C37.3388 59.28 36.5921 59.36 35.8988 59.44C35.4721 59.4933 35.0454 59.5467 34.6188 59.6C34.2188 59.6533 33.8054 59.7067 33.3787 59.76L36.5388 49.28C36.9121 48.0267 37.3388 46.6 37.8188 45C38.2988 43.4 38.7788 41.76 39.2588 40.08C39.7654 38.4 40.2321 36.8267 40.6588 35.36C41.1121 33.8667 41.4721 32.6133 41.7388 31.6C43.5521 31.4667 45.3921 31.3067 47.2588 31.12C49.1521 30.9333 50.9921 30.68 52.7788 30.36C52.6454 31.8533 52.5121 33.5467 52.3788 35.44C52.2721 37.3067 52.1654 39.24 52.0588 41.24C51.9788 43.24 51.8854 45.2133 51.7788 47.16C51.7254 49 51.6588 50.9067 51.5788 52.88C51.4988 54.8267 51.4188 56.8267 51.3388 58.88C50.9388 58.9333 50.5388 58.9867 50.1388 59.04C49.7388 59.0933 49.3388 59.1467 48.9388 59.2C48.2721 59.3067 47.5388 59.4267 46.7388 59.56C45.9388 59.6933 45.2188 59.8133 44.5788 59.92ZM42.7788 49.16C42.9388 49.16 43.2321 49.1467 43.6588 49.12C44.1121 49.0933 44.5388 49.0667 44.9388 49.04C45.3388 49.0133 45.5788 49 45.6588 49C45.6588 48.6533 45.7121 47.9467 45.8188 46.88C45.9254 45.8133 46.0321 44.6933 46.1388 43.52C46.1921 42.8267 46.2454 42.12 46.2988 41.4C46.3788 40.6533 46.4588 39.8933 46.5388 39.12L46.7788 35.64L46.1788 35.68L45.2588 39.12L42.7788 49.16ZM55.1234 60.04C55.4168 58.5733 55.7101 57.12 56.0034 55.68C56.3234 54.2133 56.6168 52.7733 56.8834 51.36C57.8968 46.2933 58.7234 41.44 59.3634 36.8C59.0701 36.7467 58.7634 36.72 58.4434 36.72C58.1234 36.6933 57.8168 36.6933 57.5234 36.72C56.8834 36.7733 56.2568 36.6933 55.6434 36.48C55.6701 36.2667 55.6834 36.04 55.6834 35.8C55.6834 35.5333 55.6834 35.2667 55.6834 35C55.6834 34.7067 55.6834 34.4267 55.6834 34.16C55.6834 33.8667 55.6968 33.5867 55.7234 33.32C55.7501 33.0267 55.7634 32.72 55.7634 32.4C55.7634 32.0533 55.7768 31.7067 55.8034 31.36C56.4968 31.4133 57.1901 31.4533 57.8834 31.48C58.5768 31.5067 59.2701 31.52 59.9634 31.52C61.9368 31.52 63.8168 31.4533 65.6034 31.32C67.4168 31.1867 69.0834 31.0267 70.6034 30.84L70.1634 33L69.8034 34.88C69.6701 35.5733 69.5501 36.12 69.4434 36.52C69.1501 36.6 68.8568 36.6667 68.5634 36.72C68.2701 36.7733 67.9768 36.8133 67.6834 36.84C67.3901 36.8667 67.0834 36.9067 66.7634 36.96C66.4701 37.0133 66.1768 37.0667 65.8834 37.12C65.4834 39.0933 65.1501 40.8 64.8834 42.24C64.6434 43.68 64.4168 45.0667 64.2034 46.4C64.0168 47.7067 63.7901 49.1467 63.5234 50.72C63.0701 53.4133 62.6701 56.1467 62.3234 58.92L55.1234 60.04ZM75.4681 60.16L78.5081 31.76C79.1215 31.7333 79.7215 31.6933 80.3081 31.64C80.9215 31.56 81.5081 31.4667 82.0681 31.36C82.6015 31.2533 83.1481 31.1733 83.7081 31.12C84.2681 31.04 84.8148 30.9867 85.3481 30.96L85.2281 31.76C85.2015 32.0267 85.1481 32.3333 85.0681 32.68C85.0148 33 84.9615 33.3733 84.9081 33.8C84.7748 34.7333 84.6148 35.8 84.4281 37C84.2415 38.2 84.0281 39.5333 83.7881 41C83.6281 41.9067 83.4415 43 83.2281 44.28C83.0415 45.56 82.8148 47.0133 82.5481 48.64H83.1481C83.4948 47.4133 83.8148 46.2933 84.1081 45.28C84.4015 44.2667 84.6548 43.3733 84.8681 42.6C85.0815 41.8267 85.2815 41.1333 85.4681 40.52C85.6815 39.88 85.8548 39.3067 85.9881 38.8C86.5481 36.8267 87.0015 35.2133 87.3481 33.96C87.6948 32.7067 87.9215 31.8933 88.0281 31.52H88.3881C89.0815 31.52 89.8015 31.4667 90.5481 31.36C91.3215 31.2533 92.0148 31.1333 92.6281 31C92.6015 31.1067 92.5481 31.5467 92.4681 32.32C92.3881 33.0933 92.2948 34.04 92.1881 35.16C92.0815 36.28 91.9748 37.44 91.8681 38.64C91.6815 40.9067 91.5081 42.88 91.3481 44.56C91.2148 46.24 91.0948 47.6 90.9881 48.64H91.7081L95.5081 31.44L98.1881 31.08C98.5615 31.0267 98.9481 30.9733 99.3481 30.92C99.7481 30.8667 100.161 30.8133 100.588 30.76C101.361 30.6533 102.095 30.5333 102.788 30.4C101.988 32.64 101.188 35.28 100.388 38.32C99.5881 41.36 98.7881 44.44 97.9881 47.56C97.5615 49.2667 97.1348 51 96.7081 52.76C96.3081 54.4933 95.9081 56.2667 95.5081 58.08L86.4681 59.6L88.2281 44.16H87.7481L83.7881 58.68L75.4681 60.16ZM98.0516 59.96C98.4249 58.4133 98.7982 56.6667 99.1716 54.72C99.5449 52.7467 99.9182 50.7067 100.292 48.6C100.665 46.4933 101.012 44.4667 101.332 42.52C101.625 40.8133 101.905 39.08 102.172 37.32C102.465 35.56 102.745 33.7867 103.012 32L109.252 31L107.452 41.52C107.052 44 106.692 46.2267 106.372 48.2C106.078 50.1733 105.785 52.04 105.492 53.8C105.225 55.56 104.945 57.36 104.652 59.2C104.145 59.2 103.532 59.24 102.812 59.32C102.092 59.3733 101.372 59.4533 100.652 59.56C99.9316 59.64 99.3182 59.72 98.8116 59.8C98.3316 59.88 98.0782 59.9333 98.0516 59.96ZM109.538 60.04C109.831 58.5733 110.124 57.12 110.418 55.68C110.738 54.2133 111.031 52.7733 111.298 51.36C112.311 46.2933 113.138 41.44 113.778 36.8C113.484 36.7467 113.178 36.72 112.858 36.72C112.538 36.6933 112.231 36.6933 111.938 36.72C111.298 36.7733 110.671 36.6933 110.058 36.48C110.084 36.2667 110.098 36.04 110.098 35.8C110.098 35.5333 110.098 35.2667 110.098 35C110.098 34.7067 110.098 34.4267 110.098 34.16C110.098 33.8667 110.111 33.5867 110.138 33.32C110.164 33.0267 110.178 32.72 110.178 32.4C110.178 32.0533 110.191 31.7067 110.218 31.36C110.911 31.4133 111.604 31.4533 112.298 31.48C112.991 31.5067 113.684 31.52 114.378 31.52C116.351 31.52 118.231 31.4533 120.018 31.32C121.831 31.1867 123.498 31.0267 125.018 30.84L124.578 33L124.218 34.88C124.084 35.5733 123.964 36.12 123.858 36.52C123.564 36.6 123.271 36.6667 122.978 36.72C122.684 36.7733 122.391 36.8133 122.098 36.84C121.804 36.8667 121.498 36.9067 121.178 36.96C120.884 37.0133 120.591 37.0667 120.298 37.12C119.898 39.0933 119.564 40.8 119.298 42.24C119.058 43.68 118.831 45.0667 118.618 46.4C118.431 47.7067 118.204 49.1467 117.938 50.72C117.484 53.4133 117.084 56.1467 116.738 58.92L109.538 60.04ZM120.75 60.08C121.523 56.3467 122.243 52.7067 122.91 49.16C123.283 47 123.656 44.8133 124.03 42.6C124.43 40.3867 124.79 38.2667 125.11 36.24C125.43 34.2133 125.67 32.4 125.83 30.8C126.55 30.8267 127.136 30.8667 127.59 30.92C128.07 30.9467 128.51 30.9733 128.91 31C129.336 31.0267 129.803 31.0533 130.31 31.08C130.843 31.08 131.51 31.08 132.31 31.08C131.856 32.9733 131.403 34.8667 130.95 36.76C130.523 38.6533 130.123 40.56 129.75 42.48L133.71 42.04C133.896 41.1067 134.07 40.1867 134.23 39.28C134.416 38.3467 134.576 37.4267 134.71 36.52C134.843 35.64 135.003 34.7467 135.19 33.84C135.403 32.9067 135.63 31.9733 135.87 31.04C136.83 30.88 137.803 30.76 138.79 30.68C139.776 30.5733 140.603 30.5067 141.27 30.48C141.936 30.4267 142.27 30.4 142.27 30.4C141.923 31.4667 141.576 32.72 141.23 34.16C140.883 35.6 140.55 37.12 140.23 38.72C139.91 40.32 139.603 41.92 139.31 43.52C139.016 45.0933 138.75 46.56 138.51 47.92C138.216 49.6267 137.936 51.3467 137.67 53.08C137.403 54.7867 137.136 56.5333 136.87 58.32L130.63 59.04C130.816 58.24 130.976 57.4533 131.11 56.68C131.27 55.88 131.416 55.1067 131.55 54.36C131.816 53.08 132.083 51.7467 132.35 50.36C132.643 48.9733 132.87 47.7867 133.03 46.8L129.15 47.16C129.043 47.6667 128.936 48.2133 128.83 48.8C128.75 49.3867 128.643 50.0133 128.51 50.68C128.376 51.3467 128.243 52 128.11 52.64C128.003 53.2533 127.896 53.8667 127.79 54.48C127.656 55.2 127.51 55.92 127.35 56.64C127.19 57.36 127.043 58.08 126.91 58.8L120.75 60.08Z" fill="#489EB5"/>
<path d="M156.258 59.92C156.312 59.4667 156.365 59.0267 156.418 58.6C156.472 58.1733 156.525 57.7467 156.578 57.32L156.818 55.08C156.845 54.7067 156.872 54.36 156.898 54.04C156.925 53.72 156.952 53.4267 156.978 53.16H153.498L151.898 58.92C151.312 59 150.618 59.0933 149.818 59.2C149.018 59.28 148.272 59.36 147.578 59.44C147.152 59.4933 146.725 59.5467 146.298 59.6C145.898 59.6533 145.485 59.7067 145.058 59.76L148.218 49.28C148.592 48.0267 149.018 46.6 149.498 45C149.978 43.4 150.458 41.76 150.938 40.08C151.445 38.4 151.912 36.8267 152.338 35.36C152.792 33.8667 153.152 32.6133 153.418 31.6C155.232 31.4667 157.072 31.3067 158.938 31.12C160.832 30.9333 162.672 30.68 164.458 30.36C164.325 31.8533 164.192 33.5467 164.058 35.44C163.952 37.3067 163.845 39.24 163.738 41.24C163.658 43.24 163.565 45.2133 163.458 47.16C163.405 49 163.338 50.9067 163.258 52.88C163.178 54.8267 163.098 56.8267 163.018 58.88C162.618 58.9333 162.218 58.9867 161.818 59.04C161.418 59.0933 161.018 59.1467 160.618 59.2C159.952 59.3067 159.218 59.4267 158.418 59.56C157.618 59.6933 156.898 59.8133 156.258 59.92ZM154.458 49.16C154.618 49.16 154.912 49.1467 155.338 49.12C155.792 49.0933 156.218 49.0667 156.618 49.04C157.018 49.0133 157.258 49 157.338 49C157.338 48.6533 157.392 47.9467 157.498 46.88C157.605 45.8133 157.712 44.6933 157.818 43.52C157.872 42.8267 157.925 42.12 157.978 41.4C158.058 40.6533 158.138 39.8933 158.218 39.12L158.458 35.64L157.858 35.68L156.938 39.12L154.458 49.16ZM163.403 59.96C163.776 58.4133 164.15 56.6667 164.523 54.72C164.896 52.7467 165.27 50.7067 165.643 48.6C166.016 46.4933 166.363 44.4667 166.683 42.52C166.976 40.8133 167.256 39.08 167.523 37.32C167.816 35.56 168.096 33.7867 168.363 32L174.603 31L172.803 41.52C172.403 44 172.043 46.2267 171.723 48.2C171.43 50.1733 171.136 52.04 170.843 53.8C170.576 55.56 170.296 57.36 170.003 59.2C169.496 59.2 168.883 59.24 168.163 59.32C167.443 59.3733 166.723 59.4533 166.003 59.56C165.283 59.64 164.67 59.72 164.163 59.8C163.683 59.88 163.43 59.9333 163.403 59.96Z" fill="#FFA62B"/>
</svg>
