<svg width="25" height="25" viewBox="0 0 25 25" fill="none" xmlns="http://www.w3.org/2000/svg">
<path d="M4.3 11.125H20.7C21.0167 11.125 21.2917 11.2375 21.525 11.4625C21.7583 11.6875 21.875 11.9667 21.875 12.3V12.7C21.875 13.0333 21.7583 13.3125 21.525 13.5375C21.2917 13.7625 21.0167 13.875 20.7 13.875H4.3C3.98333 13.875 3.70833 13.7625 3.475 13.5375C3.24167 13.3125 3.125 13.0333 3.125 12.7V12.3C3.125 11.9667 3.24167 11.6875 3.475 11.4625C3.70833 11.2375 3.98333 11.125 4.3 11.125ZM4.3 3.625H20.7C21.0167 3.625 21.2917 3.7375 21.525 3.9625C21.7583 4.1875 21.875 4.46667 21.875 4.8V5.35C21.875 5.68333 21.7583 5.96667 21.525 6.2C21.2917 6.43333 21.0167 6.55 20.7 6.55H4.3C3.98333 6.55 3.70833 6.43333 3.475 6.2C3.24167 5.96667 3.125 5.68333 3.125 5.35V4.8C3.125 4.46667 3.24167 4.1875 3.475 3.9625C3.70833 3.7375 3.98333 3.625 4.3 3.625ZM4.3 18.45H20.7C21.0167 18.45 21.2917 18.5667 21.525 18.8C21.7583 19.0333 21.875 19.3167 21.875 19.65V20.2C21.875 20.5333 21.7583 20.8125 21.525 21.0375C21.2917 21.2625 21.0167 21.375 20.7 21.375H4.3C3.98333 21.375 3.70833 21.2625 3.475 21.0375C3.24167 20.8125 3.125 20.5333 3.125 20.2V19.65C3.125 19.3167 3.24167 19.0333 3.475 18.8C3.70833 18.5667 3.98333 18.45 4.3 18.45Z" fill="#FFA62B"/>
</svg>
