<svg width="172" height="200" viewBox="0 0 172 200" fill="none" xmlns="http://www.w3.org/2000/svg">
<path d="M34.6893 74.8871L30.7168 62.4043L34.6557 57.4434L61.3357 41.3544V10.2155L64.7231 7.76767L75.421 0V53.1224L34.6893 74.8871Z" fill="url(#paint0_linear_773_3289)"/>
<path d="M30.7168 62.4045L64.7231 42.9295V7.76786L61.3357 10.2157V41.3546L34.6557 57.4436L30.7168 62.4045Z" fill="url(#paint1_linear_773_3289)"/>
<path opacity="0.4" d="M65.4903 7.76764C65.3142 9.76219 65.6491 34.5068 66.8082 35.086C67.9673 35.6659 73.9674 32.2695 74.4656 30.9073C74.9639 29.5459 74.6693 3.06523 73.8474 3.16189C73.0255 3.25929 65.6132 6.37325 65.4903 7.76764Z" fill="#FFDF66"/>
<path opacity="0.37" d="M65.694 43.385C62.6626 45.88 32.4296 62.4044 32.0175 63.4781C31.4878 64.8575 35.5 71.2967 37.4113 70.758C39.3219 70.2185 75.304 49.8257 75.3737 48.8599C75.4433 47.8941 75.5393 42.5975 74.6701 42.2506C73.8003 41.9037 66.8524 42.4312 65.694 43.385Z" fill="url(#paint2_linear_773_3289)"/>
<path d="M30.7168 63.4781L65.4342 43.3213L65.623 7.17355L64.7231 7.76772V42.9294L30.7168 62.4044V63.4781Z" fill="#B33114"/>
<path opacity="0.4" d="M61.6989 41.7102C59.7209 41.8391 35.0353 57.6831 35.0353 58.1342C35.0353 58.5853 30.6851 61.2706 31.7416 61.2039C32.798 61.1373 63.9984 43.5055 64.0403 42.93C64.0823 42.3546 62.7651 41.6405 61.6989 41.7102Z" fill="#FFDF66"/>
<path opacity="0.4" d="M30.7168 63.4783C30.7168 63.4783 47.1471 55.1899 55.5485 49.8993C63.9506 44.6087 65.6986 43.3852 65.6986 43.3852L30.7168 63.4783Z" fill="#FFDF66"/>
<path opacity="0.5" d="M61.3332 37.3599L64.7206 34.4475H65.4496L75.4185 28.9973V53.1222L64.0358 58.8556L58.4629 43.085L61.3332 41.3542V37.3599Z" fill="#DE5634"/>
<path d="M136.768 74.8871L140.74 62.4043L136.802 57.4434L110.121 41.3544V10.2155L106.734 7.76767L95.8203 0V53.007L136.768 74.8871Z" fill="url(#paint3_linear_773_3289)"/>
<path d="M140.736 62.4045L106.729 42.9295V7.76786L110.117 10.2157V41.3546L136.798 57.4436L140.736 62.4045Z" fill="url(#paint4_linear_773_3289)"/>
<path opacity="0.4" d="M105.396 7.76763C105.572 9.76219 106.071 34.5068 104.911 35.086C103.752 35.6659 97.3173 31.9323 96.8191 30.5701C96.3208 29.2087 96.7786 3.06598 97.5998 3.16188C98.4217 3.25929 105.272 6.37325 105.396 7.76763Z" fill="#FFDF66"/>
<path opacity="0.37" d="M105.755 43.385C108.786 45.88 139.019 62.4044 139.432 63.4781C139.961 64.8575 135.949 71.2967 134.038 70.758C132.127 70.2185 96.145 49.8257 96.0753 48.8599C96.0056 47.8941 95.9098 42.5975 96.7789 42.2506C97.6488 41.9037 104.597 42.4312 105.755 43.385Z" fill="url(#paint5_linear_773_3289)"/>
<path d="M140.737 63.4781L106.02 43.3213L105.831 7.17355L106.731 7.76772V42.9294L140.737 62.4044V63.4781Z" fill="#B33114"/>
<path opacity="0.4" d="M109.755 41.7102C111.734 41.8391 136.419 57.6831 136.419 58.1342C136.419 58.5853 140.769 61.2706 139.713 61.2039C138.656 61.1373 107.456 43.5055 107.414 42.93C107.372 42.3546 108.689 41.6405 109.755 41.7102Z" fill="#FFDF66"/>
<path opacity="0.4" d="M140.735 63.4783C140.735 63.4783 124.305 55.1899 115.903 49.8993C107.502 44.6087 105.753 43.3852 105.753 43.3852L140.735 63.4783Z" fill="#FFDF66"/>
<path opacity="0.5" d="M110.114 37.3602L106.555 34.4477H105.826L95.8232 28.9631L95.8576 53.1225L107.24 58.8559L112.812 43.0853L110.114 41.3545V37.3602Z" fill="#DE5634"/>
<path d="M79.4731 151.46V199.999C64.8065 192.244 42.6953 169.654 42.6953 169.654V136.099L79.4731 151.46Z" fill="url(#paint6_linear_773_3289)"/>
<path opacity="0.6" d="M79.4731 190.221V199.999C64.8065 192.244 42.6953 169.654 42.6953 169.654V161.279C47.7962 167.782 58.6162 178.825 79.4731 190.221Z" fill="#8E37E2"/>
<path d="M91.9785 151.46V199.999C106.645 192.244 128.756 169.654 128.756 169.654V136.099L91.9785 151.46Z" fill="url(#paint7_linear_773_3289)"/>
<path opacity="0.6" d="M91.9785 190.221V199.999C106.645 192.244 128.756 169.654 128.756 169.654V161.279C123.655 167.782 112.835 178.825 91.9785 190.221Z" fill="#8E37E2"/>
<path d="M46.1389 173.071C46.1389 173.071 45.7935 150.794 49.2768 151.172C52.7593 151.549 58.7361 155.09 60.0466 159.136C61.3562 163.182 60.9794 186.638 60.9794 186.638L62.2958 187.733C62.2958 187.733 60.6639 159.238 63.3747 160.635C66.0855 162.032 69.6984 164.641 70.9556 171.003C72.2129 177.365 72.589 195.872 72.589 195.872L79.4731 200V151.461L42.6953 136.099V169.655L46.1389 173.071Z" fill="url(#paint8_linear_773_3289)"/>
<path d="M125.312 173.071C125.312 173.071 125.598 146.966 122.116 147.344C118.633 147.722 118.496 160.947 118.496 164.984C118.496 169.237 117.936 180.041 117.936 180.041L115.973 181.822C115.973 181.822 116.263 152.137 113.551 153.534C110.84 154.932 98.9541 164.112 97.6976 170.474C96.4404 176.836 96.9169 197.038 96.9169 197.038L91.9785 199.999V151.46L128.756 136.099V169.654L125.312 173.071Z" fill="url(#paint9_linear_773_3289)"/>
<path d="M32.7296 127.58C32.5925 128.054 12.5875 121.101 12.5875 121.101C3.70883 107.484 0 96.7286 0 96.7286H34.166L32.7296 127.58Z" fill="url(#paint10_linear_773_3289)"/>
<path d="M6.51465 96.7293C6.51465 96.7293 14.4942 113.208 15.9552 114.991L33.2292 115.453V114.273C33.2292 114.273 17.4162 114.411 16.5171 113.738C15.618 113.065 7.52612 96.7285 7.52612 96.7285L6.51465 96.7293Z" fill="#B33114"/>
<path d="M6.51465 96.7292L15.9552 114.991C15.9552 114.991 12.4989 110.091 10.392 105.86C8.28433 101.629 6.51465 96.7292 6.51465 96.7292Z" fill="white"/>
<path opacity="0.4" d="M8.96215 97.8482C10.2838 101.788 15.5369 110.733 16.633 110.733C17.7284 110.733 30.4013 110.509 31.5671 108.682C32.733 106.855 33.7369 98.0281 32.7291 97.8482C31.7206 97.6677 8.37249 96.0897 8.96215 97.8482Z" fill="#FFDF66"/>
<path opacity="0.4" d="M1.12528 97.4149C2.75565 101.28 7.27889 111.099 8.1218 111.211C8.96471 111.323 11.7879 111.685 11.8307 110.505C11.8981 108.628 6.60459 97.6674 5.42451 97.4149C4.24369 97.1616 0.725176 96.4663 1.12528 97.4149Z" fill="#FFDF66"/>
<path opacity="0.37" d="M8.9549 112.504C8.8028 113.721 13.3493 120.005 14.1076 120.512C14.8658 121.018 30.2067 125.969 31.2182 125.263C32.2297 124.558 32.7579 111.598 31.915 111.222C31.0729 110.846 9.12348 111.154 8.9549 112.504Z" fill="url(#paint11_linear_773_3289)"/>
<path opacity="0.5" d="M22.6816 96.7292C22.6816 96.7292 25.4329 111.498 24.844 125.263L32.7268 127.58L34.1633 96.7292H22.6816Z" fill="#DE5634"/>
<path d="M138.727 127.58C138.864 128.054 158.869 121.101 158.869 121.101C167.748 107.484 171.457 96.7286 171.457 96.7286H137.291L138.727 127.58Z" fill="url(#paint12_linear_773_3289)"/>
<path d="M164.934 96.7293C164.934 96.7293 156.955 113.208 155.494 114.991L138.22 115.453V114.273C138.22 114.273 154.033 114.411 154.932 113.738C155.831 113.065 163.923 96.7285 163.923 96.7285L164.934 96.7293Z" fill="#B33114"/>
<path d="M164.935 96.7292L155.494 114.991C155.494 114.991 158.95 110.091 161.057 105.86C163.165 101.629 164.935 96.7292 164.935 96.7292Z" fill="white"/>
<path opacity="0.4" d="M162.491 97.8482C161.169 101.788 155.916 110.733 154.82 110.733C153.724 110.733 141.052 110.509 139.886 108.682C138.721 106.855 137.716 98.0281 138.724 97.8482C139.732 97.6677 163.08 96.0897 162.491 97.8482Z" fill="#FFDF66"/>
<path opacity="0.4" d="M170.332 97.4149C168.701 101.28 164.178 111.099 163.335 111.211C162.492 111.323 159.669 111.685 159.627 110.505C159.559 108.628 164.853 97.6674 166.033 97.4149C167.213 97.1616 170.732 96.4663 170.332 97.4149Z" fill="#FFDF66"/>
<path opacity="0.37" d="M162.498 112.504C162.65 113.721 158.104 120.005 157.346 120.512C156.587 121.018 141.247 125.969 140.234 125.263C139.223 124.558 138.695 111.598 139.537 111.222C140.38 110.846 162.33 111.154 162.498 112.504Z" fill="url(#paint13_linear_773_3289)"/>
<path opacity="0.5" d="M148.773 96.7289C148.773 96.7289 146.021 111.498 146.61 125.263L138.727 127.58L137.291 96.7289H148.773Z" fill="#DE5634"/>
<path d="M85.9461 25.3961L30.0137 57.6896V134.738L85.9461 167.031L141.878 134.738V57.6896L85.9461 25.3961Z" fill="url(#paint14_linear_773_3289)"/>
<path d="M40.1309 128.898V63.5295L85.9484 37.0765L131.765 63.5295V128.898L85.9484 155.352L40.1309 128.898Z" fill="url(#paint15_linear_773_3289)"/>
<path d="M43.502 126.951V65.4762L85.9478 40.9699L128.393 65.4762V126.951L85.9478 151.459L43.502 126.951Z" fill="url(#paint16_linear_773_3289)"/>
<path opacity="0.4" d="M31.4086 57.8943C30.7185 59.9645 36.6617 62.5113 40.8492 61.6032C45.0368 60.6951 84.4009 37.5951 85.3547 35.5286C85.6207 34.9524 85.6634 26.8746 85.3547 26.8746C83.9694 26.8746 31.7458 56.8828 31.4086 57.8943Z" fill="#FFDF66"/>
<path opacity="0.4" d="M140.214 57.894C140.904 59.9642 134.961 62.511 130.773 61.6028C126.586 60.6947 87.594 37.3775 86.2678 35.5283C85.583 34.573 85.3582 26.8742 86.2678 26.8742C87.6525 26.8742 139.877 56.8824 140.214 57.894Z" fill="#FFDF66"/>
<path opacity="0.37" d="M31.3564 101.713C30.981 104.017 30.0647 133.183 31.3564 133.408C32.6481 133.632 38.7171 129.474 39.0542 127.563C39.3914 125.653 39.5038 105.647 39.0542 103.737C38.6047 101.826 31.982 97.875 31.3564 101.713Z" fill="url(#paint17_linear_773_3289)"/>
<path opacity="0.37" d="M140.324 101.713C140.7 104.017 141.616 133.183 140.324 133.408C139.033 133.632 132.964 129.474 132.627 127.563C132.289 125.653 132.177 105.647 132.627 103.737C133.076 101.826 139.698 97.875 140.324 101.713Z" fill="url(#paint18_linear_773_3289)"/>
<path opacity="0.37" d="M32.7598 134.203C33.4371 135.2 83.8093 164.984 84.5683 164.984C84.9496 164.984 85.4554 157.582 85.4554 156.756C85.4554 154.454 40.9086 130.797 40.1294 130.577C38.9778 130.253 32.0735 133.191 32.7598 134.203Z" fill="url(#paint19_linear_773_3289)"/>
<path opacity="0.37" d="M139.222 134.981C138.545 135.979 87.2284 165.664 86.4694 165.664C86.3046 165.664 86.2948 156.452 86.6372 156.111C88.2646 154.483 130.748 130.798 131.528 130.578C132.679 130.254 139.908 133.969 139.222 134.981Z" fill="url(#paint20_linear_773_3289)"/>
<path opacity="0.37" d="M45.4467 125.316C42.4452 108.282 44.1182 107.208 65.2471 100.013C86.3761 92.8176 122.119 74.2657 125.256 82.3203C128.394 90.375 127.317 124.647 126.605 126.521C125.892 128.396 88.9946 149.599 85.9482 149.65C82.9017 149.699 45.7838 127.228 45.4467 125.316Z" fill="#ED8A1D"/>
<path opacity="0.4" d="M127.479 65.9018C126.734 65.7212 88.3768 43.5518 86.2114 43.7167C84.1577 43.8725 57.4297 56.3726 46.4719 65.8179C43.5498 68.3361 44.6175 105.946 47.3148 105.253C50.0121 104.561 52.0215 89.3614 81.7054 80.822C110.934 72.4129 123.649 79.6883 126.82 80.9905C127.716 81.3584 129.176 66.3124 127.479 65.9018Z" fill="#FFDF66"/>
<path opacity="0.5" d="M40.1309 128.898V63.5295L85.9484 37.0765L131.766 63.5295V128.898L128.394 126.951C128.394 126.951 128.599 70.129 127.377 68.3465C123.018 61.9875 89.1245 46.5263 83.5613 48.2474C77.8693 50.0081 47.7328 62.8394 44.3611 68.2341C43.226 70.0503 43.5033 126.951 43.5033 126.951L40.1309 128.898Z" fill="#DE5634"/>
<path opacity="0.4" d="M94.5048 72.4542C105.92 77.6579 123.116 77.7486 124.689 76.7565C126.263 75.7645 127.309 68.4389 124.837 67.2026C122.364 65.9663 102.774 55.5342 97.6038 56.6581C92.4339 57.782 92.4863 71.5341 94.5048 72.4542Z" fill="#FFDF66"/>
<path opacity="0.8" d="M30.0137 81.1627C30.0137 80.9903 30.4969 59.4324 31.4103 57.8941C32.3236 56.3559 84.742 27.2872 86.266 26.8744C87.7907 26.4615 107.426 37.798 107.426 37.798L85.9461 25.3968L30.0137 57.6903V81.1627Z" fill="#700000"/>
<path d="M105.968 48.6348C105.968 48.6348 130.538 62.6147 130.876 64.1882C131.213 65.7616 131.766 108.007 131.766 108.007C131.766 108.007 131.998 65.3308 131.766 63.5296C131.533 61.7276 105.968 48.6348 105.968 48.6348Z" fill="white"/>
<path d="M40.1283 99.3528C40.1283 99.3528 39.3124 64.0135 39.7267 62.8671C40.1411 61.7208 85.9458 37.0758 85.9458 37.0758C85.9458 37.0758 41.7167 62.3614 40.8063 63.9626C39.896 65.5638 40.1283 99.3528 40.1283 99.3528Z" fill="white"/>
<path opacity="0.8" d="M30.0137 134.738L85.9461 167.032L141.879 134.738V117.189C141.879 117.189 141.41 132.51 140.268 134.419C139.125 136.328 89.0241 165.466 86.4706 165.663C83.9179 165.86 32.6968 135.43 31.3549 133.407C30.0137 131.384 30.0137 95.4756 30.0137 95.4756V134.738Z" fill="#700000"/>
<path d="M40.1295 112.166C40.1295 112.166 39.9714 127.242 40.8076 128.508C41.6438 129.773 63.3774 142.321 63.3774 142.321C63.3774 142.321 39.8306 130.149 39.6111 129.362C39.3916 128.575 40.1295 112.166 40.1295 112.166Z" fill="white"/>
<path opacity="0.4" d="M59.0528 142.624C57.4022 142.629 52.7756 144.481 53.7759 145.575C54.5828 146.457 82.3081 163.27 85.4534 164.426C86.4799 164.803 86.381 158.249 85.0046 156.132C84.415 155.225 64.168 142.611 59.0528 142.624Z" fill="#FFDF66"/>
<path d="M110.955 41.1838C110.023 41.4356 113.141 45.3595 114.623 45.7109C116.106 46.0623 118.136 45.0081 117.433 44.2865C116.73 43.565 112.4 40.7935 110.955 41.1838Z" fill="white"/>
<path d="M117.86 45.074C116.447 45.4524 119.053 51.6511 120.17 52.754C121.286 53.8569 131.199 55.7893 130.971 54.0023C130.743 52.216 119.845 44.5428 117.86 45.074Z" fill="white"/>
<path opacity="0.5" d="M111.737 142.775C110.532 148.036 110.725 151.137 111.399 151.171C112.074 151.205 136.532 136.484 137.2 135.837C137.867 135.189 133.279 130.964 131.39 131.253C129.502 131.543 112.187 140.809 111.737 142.775Z" fill="#DE5634"/>
<path opacity="0.5" d="M43.0975 65.031C42.5071 63.259 40.6984 63.2695 40.5336 65.2453C40.3687 67.2211 40.0862 103.849 40.8048 103.905C41.5233 103.962 43.0405 102.163 43.0967 101.32C43.1536 100.477 43.3785 65.8739 43.0975 65.031Z" fill="#DE5634"/>
<path opacity="0.5" d="M128.794 65.256C128.698 65.9535 128.345 100.533 128.794 100.533C129.244 100.533 131.267 98.9034 131.267 98.0605C131.267 97.2175 130.761 64.5247 130.536 64.3561C130.312 64.1883 128.872 64.6918 128.794 65.256Z" fill="#DE5634"/>
<path opacity="0.5" d="M85.9474 40.4035C85.9474 41.0831 66.2376 52.3311 65.7745 52.3311C65.3115 52.3311 65.4793 49.2966 66.1117 48.8747C66.744 48.4529 85.8065 36.9891 85.9474 37.369C86.0882 37.7481 85.9466 39.8378 85.9474 40.4035Z" fill="#DE5634"/>
<path d="M126.627 131.52C125.369 131.472 121.117 133.944 121.44 135.153C121.762 136.363 124.365 137.668 125.056 136.968C125.747 136.268 127.451 131.552 126.627 131.52Z" fill="#B33114"/>
<path d="M128.246 132.371C127.814 132.77 126.87 134.187 127.768 134.878C128.665 135.571 131.307 133.745 130.917 133.209C130.527 132.672 128.805 131.856 128.246 132.371Z" fill="#B33114"/>
<path opacity="0.5" d="M122.064 133.941C121.016 135.361 125.315 136.304 125.876 135.109C126.436 133.914 127.334 131.396 126.629 131.522C125.924 131.647 122.636 133.166 122.064 133.941Z" fill="#DE5634"/>
<path d="M121.46 134.807C121.46 134.807 121.811 136.017 123.085 136.764C124.087 137.352 124.949 137.22 125.203 136.785C125.203 136.785 124.421 137.804 123.118 137.197C121.079 136.244 121.46 134.807 121.46 134.807Z" fill="#DAE1EF"/>
<path opacity="0.5" d="M128.727 132.409C127.756 133.455 128.511 134.963 129.056 134.878C129.602 134.793 131.227 133.719 130.921 133.209C130.615 132.699 128.939 132.18 128.727 132.409Z" fill="#DE5634"/>
<path d="M128.249 132.371C128.249 132.371 127.357 133.597 127.715 134.304C128.074 135.011 128.58 135.008 128.58 135.008C128.58 135.008 127.425 135.679 127.213 134.891C126.844 133.529 128.249 132.371 128.249 132.371Z" fill="#DAE1EF"/>
<path d="M80.1864 40.0207C77.1737 39.225 74.7386 41.1768 73.4169 42.6769C72.096 44.1761 72.8325 45.0685 74.4936 44.7733C76.1547 44.4766 81.4564 40.3556 80.1864 40.0207Z" fill="#B33114"/>
<path opacity="0.5" d="M80.1902 40.0209C78.1523 39.3255 75.5741 40.6757 74.7634 41.3943C73.9534 42.1128 75.5456 44.1501 76.6425 43.7155C77.7402 43.2809 81.1186 40.3378 80.1902 40.0209Z" fill="#DE5634"/>
<path d="M74.1764 41.8979C74.1764 41.8979 70.7718 44.1277 71.1539 45.2336C71.5361 46.3388 75.6173 44.3233 75.6173 44.3233C75.6173 44.3233 73.5006 45.0134 73.021 44.0745C72.5415 43.1342 74.1764 41.8979 74.1764 41.8979Z" fill="white"/>
<path opacity="0.4" d="M42.0762 129.346C40.4728 129.747 45.2246 133.01 46.3485 133.179C47.4724 133.348 46.3643 130.485 45.8196 129.993C45.4195 129.632 42.9753 129.122 42.0762 129.346Z" fill="#FFDF66"/>
<path d="M85.9018 132.492L28.163 98.818C25.9309 103.906 25.4072 108.681 25.4072 108.681L29.1744 115.049L85.9018 147.997L142.629 115.049L146.046 108.681C146.046 108.681 146.053 103.906 143.978 98.818L85.9018 132.492Z" fill="url(#paint21_linear_773_3289)"/>
<path d="M29.1744 115.05L25.4072 108.681L85.9026 144.121L146.046 108.681L142.63 115.05L85.9026 147.998L29.1744 115.05Z" fill="url(#paint22_linear_773_3289)"/>
<path opacity="0.5" d="M25.4072 108.681L29.1744 115.049L30.0338 115.579L30.0143 117.475C30.0143 117.475 33.2518 119.125 39.61 122.636C39.8258 122.756 43.605 126.748 43.605 126.748C43.605 126.748 84.47 151.458 85.9467 151.458C87.8528 151.458 128.395 126.201 128.395 126.201C128.395 126.201 131.552 123.55 131.867 123.365L141.878 118.122V115.486L142.63 115.05L146.046 108.682L85.9026 144.118L25.4072 108.681Z" fill="#DE5634"/>
<path opacity="0.69" d="M85.9014 132.492V144.121L146.045 108.681C146.045 108.681 145.805 102.851 143.977 98.818L85.9014 132.492Z" fill="url(#paint23_linear_773_3289)"/>
<path opacity="0.4" d="M31.1359 101.373C30.0315 101.373 30.9366 111.151 34.2925 113.399C39.6227 116.969 71.7566 135.91 73.8612 135.933C75.3155 135.949 75.2398 127.642 74.8023 126.998C73.9743 125.778 32.7843 101.373 31.1359 101.373Z" fill="#FFDF66"/>
<path opacity="0.4" d="M103.761 122.446C103.063 123.167 103.158 132.306 104.35 132.034C105.543 131.762 123.706 122.062 132.271 115.774C140.837 109.485 142.045 101.192 140.118 101.376C140.118 101.376 105.194 120.967 103.761 122.446Z" fill="#FFDF66"/>
<path d="M56.4844 126.888C56.4844 126.888 84.131 143.467 85.9015 143.467C87.672 143.467 109.744 130.071 109.744 130.071C109.744 130.071 86.5765 144.759 85.9457 144.759C85.4549 144.759 56.4844 126.888 56.4844 126.888Z" fill="white"/>
<path d="M85.9018 113.634L28.163 79.9595C25.9309 85.0478 25.4072 89.8229 25.4072 89.8229L29.1744 96.1909L85.9018 129.139L142.629 96.1909L146.046 89.8229C146.046 89.8229 146.053 85.0478 143.978 79.9595L85.9018 113.634Z" fill="url(#paint24_linear_773_3289)"/>
<path d="M29.1744 96.1908L25.4072 89.8227L85.9026 125.262L146.046 89.8227L142.63 96.1908L85.9026 129.138L29.1744 96.1908Z" fill="url(#paint25_linear_773_3289)"/>
<path opacity="0.5" d="M25.4072 89.8227L29.1744 96.1908L30.0338 96.7205L30.0143 98.6169C30.0143 98.6169 33.2518 100.266 39.61 103.778C39.8258 103.897 43.605 107.889 43.605 107.889C43.605 107.889 84.47 132.599 85.9467 132.599C87.8528 132.599 128.395 107.343 128.395 107.343C128.395 107.343 131.552 104.691 131.867 104.506L141.878 99.2635V96.6276L142.63 96.1915L146.046 89.8235L85.9026 125.259L25.4072 89.8227Z" fill="#DE5634"/>
<path opacity="0.69" d="M85.9014 113.634V125.262L146.045 89.8228C146.045 89.8228 145.805 83.9928 143.977 79.9595L85.9014 113.634Z" fill="url(#paint26_linear_773_3289)"/>
<path opacity="0.4" d="M31.1359 82.5142C30.0315 82.5142 30.9366 92.2922 34.2925 94.54C39.6227 98.1102 71.7566 117.052 73.8612 117.074C75.3155 117.09 75.2398 108.784 74.8023 108.139C73.9743 106.919 32.7843 82.5142 31.1359 82.5142Z" fill="#FFDF66"/>
<path opacity="0.4" d="M103.761 103.587C103.063 104.308 103.158 113.447 104.35 113.175C105.543 112.903 123.706 103.205 132.271 96.9152C140.837 90.6265 142.045 82.3336 140.118 82.5172C140.118 82.5172 105.194 102.108 103.761 103.587Z" fill="#FFDF66"/>
<path d="M56.4844 108.029C56.4844 108.029 84.131 124.608 85.9015 124.608C87.672 124.608 109.744 111.212 109.744 111.212C109.744 111.212 86.5765 125.9 85.9457 125.9C85.4549 125.9 56.4844 108.029 56.4844 108.029Z" fill="white"/>
<path opacity="0.5" d="M86.0423 96.3833L73.6407 102.903L76.0091 89.0937L65.9766 79.3135L79.8415 77.2987L86.0423 64.7342L92.2431 77.2987L106.109 79.3135L96.0755 89.0937L98.4439 102.903L86.0423 96.3833Z" fill="#DE5634"/>
<path d="M104.659 79.7838L97.9674 78.812L96.1391 78.546L91.7943 77.9151L86.0415 66.258L80.2888 77.9151L67.4248 79.7838L76.7327 88.8574L74.5359 101.67L86.0415 95.6211L97.5477 101.67L95.3502 88.8574L104.659 79.7838Z" fill="url(#paint27_linear_773_3289)"/>
<path opacity="0.37" d="M67.3545 79.7837L86.3046 84.7386L76.6625 88.8573L67.3545 79.7837Z" fill="url(#paint28_linear_773_3289)"/>
<path opacity="0.37" d="M104.59 79.7837L86.3057 84.7386L95.281 88.8573L104.59 79.7837Z" fill="url(#paint29_linear_773_3289)"/>
<path opacity="0.37" d="M85.9752 95.6207L86.3086 84.7383L74.4697 101.67L85.9752 95.6207Z" fill="url(#paint30_linear_773_3289)"/>
<path opacity="0.37" d="M97.4828 101.67L86.3099 84.7383L85.9766 95.6207L97.4828 101.67Z" fill="url(#paint31_linear_773_3289)"/>
<path opacity="0.5" d="M85.9766 66.2579L86.3099 84.7387L91.73 77.9151L85.9766 66.2579Z" fill="url(#paint32_linear_773_3289)"/>
<path opacity="0.5" d="M104.59 79.784L86.3057 84.7389L91.7258 77.9153L104.59 79.784Z" fill="url(#paint33_linear_773_3289)"/>
<path opacity="0.5" d="M104.59 79.784L86.3057 84.7389L91.7258 77.9153L104.59 79.784Z" fill="url(#paint34_linear_773_3289)"/>
<path opacity="0.5" d="M80.2185 77.9153L86.3046 84.7389L67.3545 79.784L80.2185 77.9153Z" fill="url(#paint35_linear_773_3289)"/>
<path d="M91.7253 81.9696C90.7692 82.7781 91.5852 83.3078 91.5852 83.3078L96.5108 81.9733C96.5108 81.9733 93.9348 80.1002 91.7253 81.9696Z" fill="white"/>
<path opacity="0.5" d="M74.5342 101.67C74.5342 101.67 83.2615 97.5591 86.0405 96.4142L97.5468 101.67L86.0405 95.6215L74.5342 101.67Z" fill="#DE5634"/>
<path opacity="0.5" d="M67.3545 79.7837L86.3046 84.7386L75.8997 93.6909L67.3545 79.7837Z" fill="#DE5634"/>
<path opacity="0.5" d="M104.59 79.7837L86.3057 84.7386L96.3801 94.883L104.59 79.7837Z" fill="#DE5634"/>
<path opacity="0.5" d="M74.5342 101.67L86.3072 84.7391L97.546 101.67L86.0398 99.8533L74.5342 101.67Z" fill="#DE5634"/>
<path opacity="0.4" d="M81.7574 75.8989C80.5339 79.2931 85.1957 81.6622 85.8236 80.6185C86.4515 79.5748 86.0529 73.7462 85.2654 72.9587C84.478 72.1713 82.2587 74.5097 81.7574 75.8989Z" fill="#F7FFFF"/>
<path opacity="0.4" d="M77.9447 93.2851C80.4224 93.6216 81.81 90.7998 82.3315 88.8585C83.1722 85.7303 73.4409 92.6737 77.9447 93.2851Z" fill="#F7FFFF"/>
<path opacity="0.5" d="M59.2612 73.581L53.4913 76.6148L54.5934 70.1891L49.9248 65.6388L56.3766 64.7014L59.2612 58.8557L62.1466 64.7014L68.5977 65.6388L63.9298 70.1891L65.0319 76.6148L59.2612 73.581Z" fill="#DE5634"/>
<path d="M67.8791 65.8741L64.784 65.4245L63.9388 65.3016L61.9285 65.0094L59.2672 59.6177L56.6058 65.0094L50.6553 65.8741L54.9613 70.0715L53.9453 75.9982L59.2672 73.2004L64.5899 75.9982L63.5732 70.0715L67.8791 65.8741Z" fill="url(#paint36_linear_773_3289)"/>
<path opacity="0.37" d="M50.625 65.8743L59.3905 68.1663L54.9309 70.0717L50.625 65.8743Z" fill="url(#paint37_linear_773_3289)"/>
<path opacity="0.37" d="M67.844 65.8739L59.3857 68.1659L63.5381 70.0713L67.844 65.8739Z" fill="url(#paint38_linear_773_3289)"/>
<path opacity="0.37" d="M59.2319 73.2004L59.3854 68.166L53.9092 75.9981L59.2319 73.2004Z" fill="url(#paint39_linear_773_3289)"/>
<path opacity="0.37" d="M64.5572 75.9981L59.3889 68.166L59.2354 73.2004L64.5572 75.9981Z" fill="url(#paint40_linear_773_3289)"/>
<path opacity="0.5" d="M59.2354 59.6176L59.3889 68.1661L61.8959 65.0094L59.2354 59.6176Z" fill="url(#paint41_linear_773_3289)"/>
<path opacity="0.5" d="M67.844 65.874L59.3857 68.166L61.8927 65.0093L67.844 65.874Z" fill="url(#paint42_linear_773_3289)"/>
<path opacity="0.5" d="M67.844 65.874L59.3857 68.166L61.8927 65.0093L67.844 65.874Z" fill="url(#paint43_linear_773_3289)"/>
<path opacity="0.5" d="M56.5756 65.0093L59.3905 68.166L50.625 65.874L56.5756 65.0093Z" fill="url(#paint44_linear_773_3289)"/>
<path d="M61.8973 66.8852C61.4552 67.2591 61.8329 67.5041 61.8329 67.5041L64.1114 66.8867C64.1114 66.8867 62.92 66.0198 61.8973 66.8852Z" fill="white"/>
<path opacity="0.5" d="M53.9453 75.9981C53.9453 75.9981 57.9823 74.0964 59.268 73.5667L64.5906 75.9981L59.268 73.1996L53.9453 75.9981Z" fill="#DE5634"/>
<path opacity="0.5" d="M50.625 65.874L59.3905 68.166L54.5781 72.3072L50.625 65.874Z" fill="#DE5634"/>
<path opacity="0.5" d="M67.844 65.874L59.3857 68.166L64.0461 72.8586L67.844 65.874Z" fill="#DE5634"/>
<path opacity="0.5" d="M53.9453 75.9982L59.3908 68.1661L64.5899 75.9982L59.2672 75.1575L53.9453 75.9982Z" fill="#DE5634"/>
<path opacity="0.4" d="M57.2848 64.0769C56.7183 65.6466 58.8754 66.7428 59.1654 66.2603C59.4561 65.7777 59.271 63.0811 58.9068 62.717C58.5427 62.3521 57.5163 63.434 57.2848 64.0769Z" fill="#F7FFFF"/>
<path opacity="0.4" d="M55.5171 72.1191C56.6635 72.2742 57.3048 70.969 57.5461 70.0713C57.9349 68.6245 53.4334 71.8366 55.5171 72.1191Z" fill="#F7FFFF"/>
<path opacity="0.5" d="M112.98 73.581L107.21 76.6148L108.311 70.1891L103.644 65.6388L110.095 64.7014L112.98 58.8556L115.865 64.7014L122.316 65.6388L117.649 70.1891L118.75 76.6148L112.98 73.581Z" fill="#DE5634"/>
<path d="M121.59 65.8741L118.495 65.4245L117.649 65.3016L115.639 65.0094L112.978 59.6177L110.317 65.0094L104.366 65.8741L108.672 70.0715L107.655 75.9982L112.978 73.2004L118.301 75.9982L117.284 70.0715L121.59 65.8741Z" fill="url(#paint45_linear_773_3289)"/>
<path opacity="0.37" d="M104.339 65.8743L113.105 68.1663L108.645 70.0717L104.339 65.8743Z" fill="url(#paint46_linear_773_3289)"/>
<path opacity="0.37" d="M121.56 65.8743L113.103 68.1663L117.254 70.0717L121.56 65.8743Z" fill="url(#paint47_linear_773_3289)"/>
<path opacity="0.37" d="M112.95 73.2004L113.104 68.166L107.628 75.9981L112.95 73.2004Z" fill="url(#paint48_linear_773_3289)"/>
<path opacity="0.37" d="M118.278 75.9981L113.109 68.166L112.955 73.2004L118.278 75.9981Z" fill="url(#paint49_linear_773_3289)"/>
<path opacity="0.5" d="M112.955 59.6176L113.109 68.1661L115.616 65.0094L112.955 59.6176Z" fill="url(#paint50_linear_773_3289)"/>
<path opacity="0.5" d="M121.56 65.874L113.103 68.166L115.609 65.0093L121.56 65.874Z" fill="url(#paint51_linear_773_3289)"/>
<path opacity="0.5" d="M121.56 65.874L113.103 68.166L115.609 65.0093L121.56 65.874Z" fill="url(#paint52_linear_773_3289)"/>
<path opacity="0.5" d="M110.289 65.0093L113.105 68.166L104.339 65.874L110.289 65.0093Z" fill="url(#paint53_linear_773_3289)"/>
<path d="M115.608 66.8852C115.166 67.2591 115.544 67.5041 115.544 67.5041L117.822 66.8867C117.822 66.8867 116.63 66.0198 115.608 66.8852Z" fill="white"/>
<path opacity="0.5" d="M107.659 75.9981C107.659 75.9981 111.696 74.0964 112.982 73.5667L118.305 75.9981L112.982 73.1996L107.659 75.9981Z" fill="#DE5634"/>
<path opacity="0.5" d="M104.339 65.874L113.105 68.166L108.292 72.3072L104.339 65.874Z" fill="#DE5634"/>
<path opacity="0.5" d="M121.56 65.874L113.103 68.166L117.763 72.8586L121.56 65.874Z" fill="#DE5634"/>
<path opacity="0.5" d="M107.659 75.9982L113.106 68.1661L118.305 75.9982L112.982 75.1575L107.659 75.9982Z" fill="#DE5634"/>
<path opacity="0.4" d="M110.996 64.0769C110.429 65.6466 112.586 66.7428 112.876 66.2603C113.166 65.7777 112.982 63.0811 112.618 62.717C112.254 62.3521 111.228 63.434 110.996 64.0769Z" fill="#F7FFFF"/>
<path opacity="0.4" d="M109.236 72.1191C110.382 72.2742 111.023 70.969 111.264 70.0713C111.654 68.6245 107.153 71.8366 109.236 72.1191Z" fill="#F7FFFF"/>
<defs>
<linearGradient id="paint0_linear_773_3289" x1="53.0689" y1="73.3139" x2="53.0689" y2="25.0089" gradientUnits="userSpaceOnUse">
<stop stop-color="#CA6B34"/>
<stop offset="0.6667" stop-color="#FFA933"/>
<stop offset="1" stop-color="#FFBD2B"/>
</linearGradient>
<linearGradient id="paint1_linear_773_3289" x1="47.7202" y1="58.1951" x2="47.7202" y2="12.6762" gradientUnits="userSpaceOnUse">
<stop stop-color="#CA6B34"/>
<stop offset="0.6667" stop-color="#FFA933"/>
<stop offset="1" stop-color="#FFBD2B"/>
</linearGradient>
<linearGradient id="paint2_linear_773_3289" x1="53.6929" y1="42.1435" x2="53.6929" y2="70.79" gradientUnits="userSpaceOnUse">
<stop stop-color="#C10065"/>
<stop offset="1" stop-color="white"/>
</linearGradient>
<linearGradient id="paint3_linear_773_3289" x1="118.28" y1="73.3139" x2="118.28" y2="25.0089" gradientUnits="userSpaceOnUse">
<stop stop-color="#CA6B34"/>
<stop offset="0.6667" stop-color="#FFA933"/>
<stop offset="1" stop-color="#FFBD2B"/>
</linearGradient>
<linearGradient id="paint4_linear_773_3289" x1="123.732" y1="58.1951" x2="123.732" y2="12.6762" gradientUnits="userSpaceOnUse">
<stop stop-color="#CA6B34"/>
<stop offset="0.6667" stop-color="#FFA933"/>
<stop offset="1" stop-color="#FFBD2B"/>
</linearGradient>
<linearGradient id="paint5_linear_773_3289" x1="117.756" y1="42.1435" x2="117.756" y2="70.79" gradientUnits="userSpaceOnUse">
<stop stop-color="#C10065"/>
<stop offset="1" stop-color="white"/>
</linearGradient>
<linearGradient id="paint6_linear_773_3289" x1="42.6952" y1="168.049" x2="79.4731" y2="168.049" gradientUnits="userSpaceOnUse">
<stop stop-color="#DE3C14"/>
<stop offset="0.0737" stop-color="#C72E10"/>
<stop offset="0.1852" stop-color="#AB1C0C"/>
<stop offset="0.2972" stop-color="#971009"/>
<stop offset="0.409" stop-color="#8B0807"/>
<stop offset="0.5205" stop-color="#870606"/>
<stop offset="0.6152" stop-color="#8C0707"/>
<stop offset="0.727" stop-color="#9A0808"/>
<stop offset="0.8475" stop-color="#B20B0B"/>
<stop offset="0.9732" stop-color="#D30E0E"/>
<stop offset="1" stop-color="#DB0F0F"/>
</linearGradient>
<linearGradient id="paint7_linear_773_3289" x1="91.9786" y1="168.049" x2="128.756" y2="168.049" gradientUnits="userSpaceOnUse">
<stop stop-color="#DE3C14"/>
<stop offset="0.0737" stop-color="#C72E10"/>
<stop offset="0.1852" stop-color="#AB1C0C"/>
<stop offset="0.2972" stop-color="#971009"/>
<stop offset="0.409" stop-color="#8B0807"/>
<stop offset="0.5205" stop-color="#870606"/>
<stop offset="0.6152" stop-color="#8C0707"/>
<stop offset="0.727" stop-color="#9A0808"/>
<stop offset="0.8475" stop-color="#B20B0B"/>
<stop offset="0.9732" stop-color="#D30E0E"/>
<stop offset="1" stop-color="#DB0F0F"/>
</linearGradient>
<linearGradient id="paint8_linear_773_3289" x1="42.6952" y1="168.049" x2="79.4731" y2="168.049" gradientUnits="userSpaceOnUse">
<stop stop-color="#B41E2D"/>
<stop offset="1" stop-color="#E54136"/>
</linearGradient>
<linearGradient id="paint9_linear_773_3289" x1="91.9778" y1="168.049" x2="128.756" y2="168.049" gradientUnits="userSpaceOnUse">
<stop stop-color="#B41E2D"/>
<stop offset="1" stop-color="#E54136"/>
</linearGradient>
<linearGradient id="paint10_linear_773_3289" x1="17.083" y1="127.507" x2="17.083" y2="96.9592" gradientUnits="userSpaceOnUse">
<stop stop-color="#CA6B34"/>
<stop offset="0.6667" stop-color="#FFA933"/>
<stop offset="1" stop-color="#FFBD2B"/>
</linearGradient>
<linearGradient id="paint11_linear_773_3289" x1="20.6428" y1="111.074" x2="20.6428" y2="125.331" gradientUnits="userSpaceOnUse">
<stop stop-color="#C10065"/>
<stop offset="1" stop-color="white"/>
</linearGradient>
<linearGradient id="paint12_linear_773_3289" x1="154.373" y1="127.507" x2="154.373" y2="96.9592" gradientUnits="userSpaceOnUse">
<stop stop-color="#CA6B34"/>
<stop offset="0.6667" stop-color="#FFA933"/>
<stop offset="1" stop-color="#FFBD2B"/>
</linearGradient>
<linearGradient id="paint13_linear_773_3289" x1="150.81" y1="111.074" x2="150.81" y2="125.331" gradientUnits="userSpaceOnUse">
<stop stop-color="#C10065"/>
<stop offset="1" stop-color="white"/>
</linearGradient>
<linearGradient id="paint14_linear_773_3289" x1="85.9458" y1="169.464" x2="85.9458" y2="48.0119" gradientUnits="userSpaceOnUse">
<stop stop-color="#CA6B34"/>
<stop offset="0.6667" stop-color="#FFA933"/>
<stop offset="1" stop-color="#FFBD2B"/>
</linearGradient>
<linearGradient id="paint15_linear_773_3289" x1="85.9481" y1="26.6543" x2="85.9481" y2="148.735" gradientUnits="userSpaceOnUse">
<stop stop-color="#CA6B34"/>
<stop offset="0.1742" stop-color="#CC6E34"/>
<stop offset="0.2919" stop-color="#D27733"/>
<stop offset="0.3931" stop-color="#DB8631"/>
<stop offset="0.4848" stop-color="#E99B2F"/>
<stop offset="0.5694" stop-color="#FBB72C"/>
<stop offset="0.5853" stop-color="#FFBD2B"/>
<stop offset="1" stop-color="#FFA933"/>
</linearGradient>
<linearGradient id="paint16_linear_773_3289" x1="85.9475" y1="151.458" x2="85.9475" y2="40.9699" gradientUnits="userSpaceOnUse">
<stop stop-color="#B75014"/>
<stop offset="0.375" stop-color="#E8692A"/>
<stop offset="1" stop-color="#F58E2F"/>
</linearGradient>
<linearGradient id="paint17_linear_773_3289" x1="35.0202" y1="100.096" x2="35.0202" y2="133.416" gradientUnits="userSpaceOnUse">
<stop stop-color="#C10065"/>
<stop offset="1" stop-color="white"/>
</linearGradient>
<linearGradient id="paint18_linear_773_3289" x1="136.661" y1="100.096" x2="136.661" y2="133.416" gradientUnits="userSpaceOnUse">
<stop stop-color="#C10065"/>
<stop offset="1" stop-color="white"/>
</linearGradient>
<linearGradient id="paint19_linear_773_3289" x1="59.0837" y1="130.553" x2="59.0837" y2="164.984" gradientUnits="userSpaceOnUse">
<stop stop-color="#C10065"/>
<stop offset="1" stop-color="white"/>
</linearGradient>
<linearGradient id="paint20_linear_773_3289" x1="112.813" y1="130.558" x2="112.813" y2="165.664" gradientUnits="userSpaceOnUse">
<stop stop-color="#C10065"/>
<stop offset="1" stop-color="white"/>
</linearGradient>
<linearGradient id="paint21_linear_773_3289" x1="85.7261" y1="47.1565" x2="85.7261" y2="135.18" gradientUnits="userSpaceOnUse">
<stop stop-color="#CA6B34"/>
<stop offset="0.6667" stop-color="#FFA933"/>
<stop offset="1" stop-color="#FFBD2B"/>
</linearGradient>
<linearGradient id="paint22_linear_773_3289" x1="85.7269" y1="147.997" x2="85.7269" y2="108.682" gradientUnits="userSpaceOnUse">
<stop stop-color="#F1CB3C"/>
<stop offset="1" stop-color="#FFC14F"/>
</linearGradient>
<linearGradient id="paint23_linear_773_3289" x1="115.973" y1="98.8183" x2="115.973" y2="144.121" gradientUnits="userSpaceOnUse">
<stop stop-color="#C10065"/>
<stop offset="1" stop-color="white"/>
</linearGradient>
<linearGradient id="paint24_linear_773_3289" x1="85.7261" y1="32.793" x2="85.7261" y2="120.817" gradientUnits="userSpaceOnUse">
<stop stop-color="#CA6B34"/>
<stop offset="0.6667" stop-color="#FFA933"/>
<stop offset="1" stop-color="#FFBD2B"/>
</linearGradient>
<linearGradient id="paint25_linear_773_3289" x1="85.7269" y1="129.138" x2="85.7269" y2="89.8225" gradientUnits="userSpaceOnUse">
<stop stop-color="#F1CB3C"/>
<stop offset="1" stop-color="#FFC14F"/>
</linearGradient>
<linearGradient id="paint26_linear_773_3289" x1="115.973" y1="79.9592" x2="115.973" y2="125.262" gradientUnits="userSpaceOnUse">
<stop stop-color="#C10065"/>
<stop offset="1" stop-color="white"/>
</linearGradient>
<linearGradient id="paint27_linear_773_3289" x1="86.0416" y1="102.336" x2="86.0416" y2="60.2514" gradientUnits="userSpaceOnUse">
<stop stop-color="#CA6B34"/>
<stop offset="0.6667" stop-color="#FFA933"/>
<stop offset="1" stop-color="#FFBD2B"/>
</linearGradient>
<linearGradient id="paint28_linear_773_3289" x1="76.8294" y1="79.784" x2="76.8294" y2="88.8577" gradientUnits="userSpaceOnUse">
<stop stop-color="#C10065"/>
<stop offset="1" stop-color="white"/>
</linearGradient>
<linearGradient id="paint29_linear_773_3289" x1="95.4476" y1="79.784" x2="95.4476" y2="88.8577" gradientUnits="userSpaceOnUse">
<stop stop-color="#C10065"/>
<stop offset="1" stop-color="white"/>
</linearGradient>
<linearGradient id="paint30_linear_773_3289" x1="80.389" y1="84.7381" x2="80.389" y2="101.67" gradientUnits="userSpaceOnUse">
<stop stop-color="#C10065"/>
<stop offset="1" stop-color="white"/>
</linearGradient>
<linearGradient id="paint31_linear_773_3289" x1="91.7297" y1="84.7381" x2="91.7297" y2="101.67" gradientUnits="userSpaceOnUse">
<stop stop-color="#C10065"/>
<stop offset="1" stop-color="white"/>
</linearGradient>
<linearGradient id="paint32_linear_773_3289" x1="87.6791" y1="69.0365" x2="90.2554" y2="92.6517" gradientUnits="userSpaceOnUse">
<stop stop-color="#BFD7FF"/>
<stop offset="1"/>
</linearGradient>
<linearGradient id="paint33_linear_773_3289" x1="86.3055" y1="81.3268" x2="104.59" y2="81.3268" gradientUnits="userSpaceOnUse">
<stop stop-color="#BFD7FF"/>
<stop offset="1"/>
</linearGradient>
<linearGradient id="paint34_linear_773_3289" x1="93.9305" y1="68.3542" x2="96.5067" y2="91.9695" gradientUnits="userSpaceOnUse">
<stop stop-color="#BFD7FF"/>
<stop offset="1"/>
</linearGradient>
<linearGradient id="paint35_linear_773_3289" x1="75.5312" y1="70.3613" x2="78.1075" y2="93.9765" gradientUnits="userSpaceOnUse">
<stop stop-color="#BFD7FF"/>
<stop offset="1"/>
</linearGradient>
<linearGradient id="paint36_linear_773_3289" x1="59.2674" y1="76.3065" x2="59.2674" y2="56.8389" gradientUnits="userSpaceOnUse">
<stop stop-color="#CA6B34"/>
<stop offset="0.6667" stop-color="#FFA933"/>
<stop offset="1" stop-color="#FFBD2B"/>
</linearGradient>
<linearGradient id="paint37_linear_773_3289" x1="55.0077" y1="65.8745" x2="55.0077" y2="70.0719" gradientUnits="userSpaceOnUse">
<stop stop-color="#C10065"/>
<stop offset="1" stop-color="white"/>
</linearGradient>
<linearGradient id="paint38_linear_773_3289" x1="63.6149" y1="65.8741" x2="63.6149" y2="70.0715" gradientUnits="userSpaceOnUse">
<stop stop-color="#C10065"/>
<stop offset="1" stop-color="white"/>
</linearGradient>
<linearGradient id="paint39_linear_773_3289" x1="56.6475" y1="68.1661" x2="56.6475" y2="75.9984" gradientUnits="userSpaceOnUse">
<stop stop-color="#C10065"/>
<stop offset="1" stop-color="white"/>
</linearGradient>
<linearGradient id="paint40_linear_773_3289" x1="61.8964" y1="68.1661" x2="61.8964" y2="75.9984" gradientUnits="userSpaceOnUse">
<stop stop-color="#C10065"/>
<stop offset="1" stop-color="white"/>
</linearGradient>
<linearGradient id="paint41_linear_773_3289" x1="60.0226" y1="60.9026" x2="61.2143" y2="71.8267" gradientUnits="userSpaceOnUse">
<stop stop-color="#BFD7FF"/>
<stop offset="1"/>
</linearGradient>
<linearGradient id="paint42_linear_773_3289" x1="59.386" y1="66.5878" x2="67.8438" y2="66.5878" gradientUnits="userSpaceOnUse">
<stop stop-color="#BFD7FF"/>
<stop offset="1"/>
</linearGradient>
<linearGradient id="paint43_linear_773_3289" x1="62.9131" y1="60.5868" x2="64.1048" y2="71.5109" gradientUnits="userSpaceOnUse">
<stop stop-color="#BFD7FF"/>
<stop offset="1"/>
</linearGradient>
<linearGradient id="paint44_linear_773_3289" x1="54.4072" y1="61.5153" x2="55.599" y2="72.4394" gradientUnits="userSpaceOnUse">
<stop stop-color="#BFD7FF"/>
<stop offset="1"/>
</linearGradient>
<linearGradient id="paint45_linear_773_3289" x1="112.978" y1="76.3065" x2="112.978" y2="56.8389" gradientUnits="userSpaceOnUse">
<stop stop-color="#CA6B34"/>
<stop offset="0.6667" stop-color="#FFA933"/>
<stop offset="1" stop-color="#FFBD2B"/>
</linearGradient>
<linearGradient id="paint46_linear_773_3289" x1="108.722" y1="65.8745" x2="108.722" y2="70.0719" gradientUnits="userSpaceOnUse">
<stop stop-color="#C10065"/>
<stop offset="1" stop-color="white"/>
</linearGradient>
<linearGradient id="paint47_linear_773_3289" x1="117.331" y1="65.8745" x2="117.331" y2="70.0719" gradientUnits="userSpaceOnUse">
<stop stop-color="#C10065"/>
<stop offset="1" stop-color="white"/>
</linearGradient>
<linearGradient id="paint48_linear_773_3289" x1="110.366" y1="68.1661" x2="110.366" y2="75.9984" gradientUnits="userSpaceOnUse">
<stop stop-color="#C10065"/>
<stop offset="1" stop-color="white"/>
</linearGradient>
<linearGradient id="paint49_linear_773_3289" x1="115.617" y1="68.1661" x2="115.617" y2="75.9984" gradientUnits="userSpaceOnUse">
<stop stop-color="#C10065"/>
<stop offset="1" stop-color="white"/>
</linearGradient>
<linearGradient id="paint50_linear_773_3289" x1="113.743" y1="60.9026" x2="114.935" y2="71.8267" gradientUnits="userSpaceOnUse">
<stop stop-color="#BFD7FF"/>
<stop offset="1"/>
</linearGradient>
<linearGradient id="paint51_linear_773_3289" x1="113.103" y1="66.5878" x2="121.56" y2="66.5878" gradientUnits="userSpaceOnUse">
<stop stop-color="#BFD7FF"/>
<stop offset="1"/>
</linearGradient>
<linearGradient id="paint52_linear_773_3289" x1="116.63" y1="60.5869" x2="117.821" y2="71.5109" gradientUnits="userSpaceOnUse">
<stop stop-color="#BFD7FF"/>
<stop offset="1"/>
</linearGradient>
<linearGradient id="paint53_linear_773_3289" x1="108.122" y1="61.5153" x2="109.313" y2="72.4394" gradientUnits="userSpaceOnUse">
<stop stop-color="#BFD7FF"/>
<stop offset="1"/>
</linearGradient>
</defs>
</svg>
