<svg width="74" height="70" viewBox="0 0 74 70" fill="none" xmlns="http://www.w3.org/2000/svg">
<path d="M14.625 40.4086V57.7445L22.6741 52.9101L23.0785 40.8474L14.625 40.4086Z" fill="url(#paint0_linear_773_3106)"/>
<path opacity="0.6" d="M14.625 55.6026L22.7328 51.413L22.6741 52.9101L14.625 57.7446V55.6026Z" fill="#8E37E2"/>
<path d="M14.8262 48.0866C15.2982 46.2205 16.2423 47.5186 16.2423 50.1738C16.2423 52.8291 15.9084 56.9736 15.9084 56.9736L16.6343 56.4472C16.6343 56.4472 16.5858 49.5838 16.9451 48.7577C17.3044 47.9316 19.2395 48.2067 19.2395 54.9726L22.6741 52.9098L23.0785 40.8471L14.625 40.4084V49.9184L14.8262 48.0866Z" fill="url(#paint1_linear_773_3106)"/>
<path d="M58.7409 40.4085V57.7444L50.6915 52.9099L50.2871 40.8472L58.7409 40.4085Z" fill="url(#paint2_linear_773_3106)"/>
<path opacity="0.6" d="M58.7416 55.6026L50.6338 51.413L50.6922 52.9101L58.7416 57.7446V55.6026Z" fill="#8E37E2"/>
<path d="M58.5397 48.0866C58.0676 46.2205 57.1236 47.5186 57.1236 50.1738C57.1236 52.8291 57.4574 56.9736 57.4574 56.9736L56.7315 56.4472C56.7315 56.4472 56.7801 49.5838 56.4208 48.7577C56.0615 47.9316 54.1262 48.2067 54.1262 54.9726L50.6915 52.9098L50.2871 40.8471L58.7406 40.4084V49.9184L58.5397 48.0866Z" fill="url(#paint3_linear_773_3106)"/>
<path d="M34.5835 53.0111V69.9997C29.4501 67.2855 21.7109 59.3789 21.7109 59.3789V47.6345L34.5835 53.0111Z" fill="url(#paint4_linear_773_3106)"/>
<path opacity="0.6" d="M34.5835 66.5774V69.9997C29.4501 67.2855 21.7109 59.3788 21.7109 59.3788V56.4474C23.4963 58.7237 27.2834 62.5887 34.5835 66.5774Z" fill="#8E37E2"/>
<path d="M38.9609 53.0111V69.9997C44.0944 67.2855 51.8335 59.3789 51.8335 59.3789V47.6345L38.9609 53.0111Z" fill="url(#paint5_linear_773_3106)"/>
<path opacity="0.6" d="M38.9609 66.5774V69.9997C44.0944 67.2855 51.8335 59.3788 51.8335 59.3788V56.4474C50.0478 58.7237 46.2608 62.5887 38.9609 66.5774Z" fill="#8E37E2"/>
<path d="M22.9162 60.5746C22.9162 60.5746 22.7953 52.7778 24.0145 52.9099C25.2334 53.0421 27.3253 54.2812 27.784 55.6973C28.2424 57.1135 28.1105 65.3233 28.1105 65.3233L28.5712 65.7064C28.5712 65.7064 28.0001 55.733 28.9489 56.2221C29.8977 56.7112 31.1622 57.6243 31.6023 59.851C32.0423 62.0777 32.174 68.5552 32.174 68.5552L34.5835 69.9999V53.0112L21.7109 47.6346V59.379L22.9162 60.5746Z" fill="url(#paint6_linear_773_3106)"/>
<path d="M50.6282 60.5747C50.6282 60.5747 50.7283 51.4381 49.5094 51.5705C48.2905 51.7027 48.2425 56.3316 48.2425 57.7446C48.2425 59.2331 48.0462 63.0143 48.0462 63.0143L47.3593 63.6377C47.3593 63.6377 47.4605 53.2479 46.5115 53.7369C45.5627 54.226 41.4025 57.4393 40.9627 59.666C40.5226 61.8927 40.6893 68.9634 40.6893 68.9634L38.9609 69.9997V53.0111L51.8335 47.6345V59.3789L50.6282 60.5747Z" fill="url(#paint7_linear_773_3106)"/>
<path d="M41.9639 27.1317L70.2317 26.9487L67.5928 31.6927L43.4161 32.3603L41.9639 27.1317Z" fill="url(#paint8_linear_773_3106)"/>
<path d="M67.707 26.9487L64.432 26.9699L61.6289 31.824L64.9922 31.7312L67.707 26.9487Z" fill="url(#paint9_linear_773_3106)"/>
<path opacity="0.5" d="M43.2051 30.8787L68.3656 30.3005L67.5912 31.6927L43.4146 32.3604L43.2051 30.8787Z" fill="#DE5634"/>
<path opacity="0.4" d="M57.9897 27.3699C57.7773 27.6012 58.7584 30.072 59.1607 29.9962C59.5629 29.9205 67.7284 30.0691 68.0937 29.8171C68.4591 29.5649 69.829 27.4847 69.5303 27.2348C69.2316 26.9852 58.1937 27.148 57.9897 27.3699Z" fill="#FFDF66"/>
<path opacity="0.5" d="M57.4145 27.0114C57.4145 27.0114 58.4784 29.8987 58.5169 30.5267C58.5552 31.1548 58.1197 31.9541 58.1197 31.9541L43.4135 32.3603L41.9609 27.1315L57.4145 27.0114Z" fill="#DE5634"/>
<path d="M31.5816 27.1317L3.31348 26.9487L5.95244 31.6927L30.129 32.3603L31.5816 27.1317Z" fill="url(#paint10_linear_773_3106)"/>
<path d="M5.77539 26.9724L9.05028 26.9936L11.8534 31.8477L8.49013 31.7549L5.77539 26.9724Z" fill="url(#paint11_linear_773_3106)"/>
<path opacity="0.5" d="M30.3373 30.8787L5.17676 30.3005L5.95117 31.6927L30.1277 32.3604L30.3373 30.8787Z" fill="#DE5634"/>
<path opacity="0.4" d="M15.3551 27.2658C16.0582 27.9314 14.7989 30.1992 14.3966 30.1235C13.9943 30.0477 5.81411 30.0694 5.44854 29.8172C5.08323 29.5649 3.71329 27.4848 4.01199 27.2348C4.31121 26.9852 14.9484 26.8808 15.3551 27.2658Z" fill="#FFDF66"/>
<path opacity="0.5" d="M16.1273 27.0114C16.1273 27.0114 15.0634 29.8987 15.0248 30.5267C14.9866 31.1548 15.4221 31.9541 15.4221 31.9541L30.1283 32.3603L31.5809 27.1315L16.1273 27.0114Z" fill="#DE5634"/>
<path d="M45.0967 21.0214L73.3646 20.8384L70.7256 25.5824L46.549 26.25L45.0967 21.0214Z" fill="url(#paint12_linear_773_3106)"/>
<path d="M71.0124 20.8496L67.7377 20.8708L64.9346 25.7247L68.2976 25.6319L71.0124 20.8496Z" fill="url(#paint13_linear_773_3106)"/>
<path opacity="0.5" d="M46.3389 24.7684L71.4997 24.1901L70.725 25.5824L46.5484 26.2501L46.3389 24.7684Z" fill="#DE5634"/>
<path opacity="0.4" d="M61.1254 21.2596C60.913 21.4909 61.8941 23.9617 62.2964 23.8859C62.6987 23.8102 70.8642 23.9589 71.2295 23.7068C71.5948 23.4548 72.9648 21.3744 72.6661 21.1248C72.3674 20.8749 61.3295 21.0375 61.1254 21.2596Z" fill="#FFDF66"/>
<path opacity="0.5" d="M56.8568 20.9475C56.8568 20.9475 57.9207 23.8348 57.959 24.4629C57.9973 25.091 57.5617 25.8903 57.5617 25.8903L46.5493 26.2503L45.0967 21.0215L56.8568 20.9475Z" fill="#DE5634"/>
<path d="M28.2681 21.0214L0 20.8384L2.63897 25.5824L26.8156 26.25L28.2681 21.0214Z" fill="url(#paint14_linear_773_3106)"/>
<path d="M2.43359 20.868L5.70823 20.8893L8.51138 25.7432L5.14836 25.6503L2.43359 20.868Z" fill="url(#paint15_linear_773_3106)"/>
<path opacity="0.5" d="M27.0248 24.7684L1.86426 24.1901L2.63867 25.5824L26.8153 26.2501L27.0248 24.7684Z" fill="#DE5634"/>
<path opacity="0.4" d="M12.0416 21.1554C12.7447 21.8212 11.4854 24.0889 11.0831 24.0131C10.6809 23.9373 2.5004 23.9591 2.13509 23.7068C1.76979 23.4545 0.399812 21.3744 0.698509 21.1247C0.99773 20.8748 11.6349 20.7704 12.0416 21.1554Z" fill="#FFDF66"/>
<path opacity="0.5" d="M16.6693 20.9475C16.6693 20.9475 15.6054 23.8348 15.5668 24.4629C15.5285 25.091 15.9641 25.8903 15.9641 25.8903L26.8153 26.2503L28.2679 21.0215L16.6693 20.9475Z" fill="#DE5634"/>
<path d="M18.909 26.2105L17.5186 21.8415L18.8969 20.1052L28.2355 14.474V3.57543L29.4211 2.71868L33.1651 0V18.5928L18.909 26.2105Z" fill="url(#paint16_linear_773_3106)"/>
<path d="M17.5186 21.8415L29.4211 15.0253V2.71869L28.2355 3.57544V14.474L18.8969 20.1052L17.5186 21.8415Z" fill="url(#paint17_linear_773_3106)"/>
<path opacity="0.4" d="M29.6902 2.71867C29.6286 3.41677 29.7458 12.0774 30.1515 12.2801C30.5572 12.4831 32.6572 11.2943 32.8316 10.8176C33.006 10.3411 32.9027 1.07283 32.6153 1.10666C32.3276 1.14075 29.7332 2.23064 29.6902 2.71867Z" fill="#FFDF66"/>
<path opacity="0.37" d="M29.7609 15.1847C28.6998 16.058 18.118 21.8415 17.9737 22.2173C17.7883 22.7001 19.1926 24.9539 19.8616 24.7653C20.5304 24.5765 33.1244 17.439 33.1488 17.101C33.1732 16.7629 33.2067 14.9091 32.9025 14.7877C32.5978 14.6663 30.1663 14.8509 29.7609 15.1847Z" fill="url(#paint18_linear_773_3106)"/>
<path d="M17.5186 22.2174L29.6699 15.1625L29.736 2.5108L29.4211 2.71876V15.0253L17.5186 21.8416V22.2174Z" fill="#B33114"/>
<path opacity="0.4" d="M28.3596 14.5986C27.6673 14.6437 19.0271 20.1892 19.0271 20.347C19.0271 20.5049 17.5045 21.4448 17.8743 21.4214C18.2441 21.3981 29.1645 15.227 29.1791 15.0256C29.1938 14.8242 28.7328 14.5743 28.3596 14.5986Z" fill="#FFDF66"/>
<path opacity="0.4" d="M17.5186 22.2174C17.5186 22.2174 23.2691 19.3165 26.2099 17.4648C29.1507 15.6131 29.7625 15.1848 29.7625 15.1848L17.5186 22.2174Z" fill="#FFDF66"/>
<path opacity="0.5" d="M28.2351 13.076L29.4207 12.0567H29.6759L33.1648 10.1491V18.5928L29.181 20.5995L27.2305 15.0798L28.2351 14.474V13.076Z" fill="#DE5634"/>
<path d="M54.6366 26.2105L56.027 21.8415L54.6486 20.1052L45.3104 14.474V3.57543L44.1245 2.71868L40.3047 0V18.5525L54.6366 26.2105Z" fill="url(#paint19_linear_773_3106)"/>
<path d="M56.0265 21.8415L44.124 15.0253V2.71869L45.3099 3.57544V14.474L54.6481 20.1052L56.0265 21.8415Z" fill="url(#paint20_linear_773_3106)"/>
<path opacity="0.4" d="M43.6573 2.71867C43.7189 3.41677 43.8936 12.0774 43.4876 12.2801C43.0819 12.4831 40.8298 11.1763 40.6554 10.6995C40.481 10.223 40.6412 1.07309 40.9286 1.10666C41.2163 1.14075 43.6143 2.23064 43.6573 2.71867Z" fill="#FFDF66"/>
<path opacity="0.37" d="M43.7825 15.1847C44.8436 16.058 55.4254 21.8415 55.5696 22.2173C55.7553 22.7001 54.3507 24.9539 53.682 24.7653C53.0133 24.5765 40.4192 17.439 40.3948 17.101C40.3707 16.7629 40.3369 14.9091 40.6411 14.7877C40.9453 14.6663 43.3771 14.8509 43.7825 15.1847Z" fill="url(#paint21_linear_773_3106)"/>
<path d="M56.0267 22.2174L43.8756 15.1625L43.8096 2.5108L44.1243 2.71876V15.0253L56.0267 21.8416V22.2174Z" fill="#B33114"/>
<path opacity="0.4" d="M45.1821 14.5986C45.8745 14.6437 54.5146 20.1892 54.5146 20.347C54.5146 20.5049 56.0372 21.4448 55.6675 21.4214C55.2977 21.3981 44.3773 15.227 44.3626 15.0256C44.3482 14.8242 44.809 14.5743 45.1821 14.5986Z" fill="#FFDF66"/>
<path opacity="0.4" d="M56.0262 22.2174C56.0262 22.2174 50.2756 19.3165 47.3348 17.4648C44.394 15.6131 43.7822 15.1848 43.7822 15.1848L56.0262 22.2174Z" fill="#FFDF66"/>
<path opacity="0.5" d="M45.3098 13.076L44.124 12.0567H43.8691L40.3799 10.1491V18.5928L44.3637 20.5995L46.3145 15.0798L45.3098 14.474V13.076Z" fill="#DE5634"/>
<path d="M18.2232 44.6529C18.1752 44.8189 11.1733 42.3853 11.1733 42.3853C8.0657 37.6193 6.76758 33.855 6.76758 33.855H18.726L18.2232 44.6529Z" fill="url(#paint22_linear_773_3106)"/>
<path d="M9.04785 33.8551C9.04785 33.8551 11.8408 39.6227 12.3521 40.2468L18.3982 40.4086V39.9956C18.3982 39.9956 12.8635 40.0436 12.5488 39.8081C12.2341 39.5726 9.40188 33.8549 9.40188 33.8549L9.04785 33.8551Z" fill="#B33114"/>
<path d="M9.04785 33.8552L12.3521 40.2468C12.3521 40.2468 11.1424 38.5318 10.405 37.0509C9.66729 35.5702 9.04785 33.8552 9.04785 33.8552Z" fill="white"/>
<path opacity="0.4" d="M9.90423 34.2467C10.3668 35.6256 12.2054 38.7565 12.5891 38.7565C12.9725 38.7565 17.4081 38.6778 17.8162 38.0385C18.224 37.3991 18.5756 34.3096 18.2229 34.2467C17.8699 34.1835 9.69785 33.6312 9.90423 34.2467Z" fill="#FFDF66"/>
<path opacity="0.4" d="M7.16143 34.0951C7.73207 35.448 9.31521 38.8847 9.61024 38.9238C9.90526 38.9628 10.8937 39.0898 10.9084 38.6765C10.932 38.0198 9.0792 34.1835 8.66616 34.0951C8.25287 34.0064 7.02139 33.7631 7.16143 34.0951Z" fill="#FFDF66"/>
<path opacity="0.37" d="M9.89974 39.3762C9.84651 39.8023 11.4378 42.0018 11.7032 42.1791C11.9686 42.3561 17.338 44.089 17.6921 43.842C18.0461 43.5952 18.231 39.0591 17.936 38.9275C17.6412 38.7959 9.95901 38.9039 9.89974 39.3762Z" fill="url(#paint23_linear_773_3106)"/>
<path opacity="0.5" d="M14.707 33.8552C14.707 33.8552 15.67 39.0243 15.4639 43.8419L18.2229 44.6531L18.7257 33.8552H14.707Z" fill="#DE5634"/>
<path d="M55.3201 44.6531C55.3681 44.8191 62.37 42.3854 62.37 42.3854C65.4776 37.6194 66.7758 33.8552 66.7758 33.8552H54.8174L55.3201 44.6531Z" fill="url(#paint24_linear_773_3106)"/>
<path d="M64.4958 33.8551C64.4958 33.8551 61.703 39.6227 61.1916 40.2468L55.1455 40.4086V39.9956C55.1455 39.9956 60.6802 40.0436 60.9949 39.8081C61.3096 39.5726 64.1419 33.8549 64.1419 33.8549L64.4958 33.8551Z" fill="#B33114"/>
<path d="M64.4957 33.8552L61.1914 40.2468C61.1914 40.2468 62.4009 38.5318 63.1386 37.0509C63.876 35.5702 64.4957 33.8552 64.4957 33.8552Z" fill="white"/>
<path opacity="0.4" d="M63.6394 34.2467C63.1768 35.6256 61.3382 38.7565 60.9546 38.7565C60.5712 38.7565 56.1356 38.6778 55.7275 38.0385C55.3195 37.3991 54.9681 34.3096 55.3208 34.2467C55.6738 34.1835 63.8461 33.6312 63.6394 34.2467Z" fill="#FFDF66"/>
<path opacity="0.4" d="M66.3846 34.0951C65.814 35.448 64.231 38.8847 63.936 38.9238C63.641 38.9628 62.6529 39.0898 62.6379 38.6765C62.6143 38.0198 64.4671 34.1835 64.8801 34.0951C65.2929 34.0064 66.5247 33.7631 66.3846 34.0951Z" fill="#FFDF66"/>
<path opacity="0.37" d="M63.643 39.3762C63.6962 39.8023 62.1048 42.0018 61.8394 42.1791C61.5741 42.3563 56.2044 44.089 55.8506 43.842C55.4966 43.5952 55.3117 39.0591 55.6067 38.9275C55.9015 38.7959 63.584 38.9039 63.643 39.3762Z" fill="url(#paint25_linear_773_3106)"/>
<path opacity="0.5" d="M58.836 33.8552C58.836 33.8552 57.8731 39.0243 58.0792 43.8419L55.3201 44.6531L54.8174 33.8552H58.836Z" fill="#DE5634"/>
<path d="M36.849 8.88873L17.2725 20.1915V47.1585L36.849 58.461L56.4258 47.1585V20.1915L36.849 8.88873Z" fill="url(#paint26_linear_773_3106)"/>
<path d="M20.8135 45.1143V22.2354L36.8497 12.9769L52.8862 22.2354V45.1143L36.8497 54.3731L20.8135 45.1143Z" fill="url(#paint27_linear_773_3106)"/>
<path d="M21.9941 44.4331V22.9168L36.8503 14.3395L51.7067 22.9168V44.4331L36.8503 53.0106L21.9941 44.4331Z" fill="url(#paint28_linear_773_3106)"/>
<path opacity="0.4" d="M17.7615 20.263C17.5199 20.9876 19.6001 21.879 21.0658 21.5611C22.5315 21.2433 36.3092 13.1583 36.6431 12.435C36.7362 12.2334 36.7511 9.40613 36.6431 9.40613C36.1585 9.40613 17.8795 19.909 17.7615 20.263Z" fill="#FFDF66"/>
<path opacity="0.4" d="M55.8419 20.263C56.0834 20.9876 54.0033 21.879 52.5376 21.5611C51.0719 21.2433 37.4245 13.0823 36.9603 12.435C36.7206 12.1007 36.6419 9.40613 36.9603 9.40613C37.4449 9.40613 55.7239 19.909 55.8419 20.263Z" fill="#FFDF66"/>
<path opacity="0.37" d="M17.7432 35.5999C17.6118 36.4063 17.2911 46.6141 17.7432 46.6928C18.195 46.7715 20.3192 45.316 20.4373 44.6473C20.5553 43.9786 20.5946 36.9767 20.4373 36.3079C20.2799 35.6392 17.9622 34.2564 17.7432 35.5999Z" fill="url(#paint29_linear_773_3106)"/>
<path opacity="0.37" d="M55.8789 35.5999C56.0102 36.4063 56.331 46.6141 55.8789 46.6928C55.4268 46.7715 53.3028 45.316 53.1848 44.6473C53.0668 43.9786 53.0275 36.9767 53.1848 36.3079C53.3422 35.6392 55.6599 34.2564 55.8789 35.5999Z" fill="url(#paint30_linear_773_3106)"/>
<path opacity="0.37" d="M18.2326 46.9711C18.4697 47.3201 36.1004 57.7443 36.366 57.7443C36.4995 57.7443 36.6765 55.1536 36.6765 54.8646C36.6765 54.059 21.0848 45.7789 20.8121 45.7021C20.409 45.5888 17.9921 46.6171 18.2326 46.9711Z" fill="url(#paint31_linear_773_3106)"/>
<path opacity="0.37" d="M55.4959 47.2435C55.2588 47.5926 37.2977 57.9824 37.032 57.9824C36.9743 57.9824 36.9709 54.7584 37.0907 54.6388C37.6603 54.0689 52.5299 45.7792 52.8029 45.7023C53.206 45.5888 55.7364 46.8892 55.4959 47.2435Z" fill="url(#paint32_linear_773_3106)"/>
<path opacity="0.37" d="M22.6739 43.8605C21.6234 37.8987 22.209 37.5229 29.6043 35.0046C36.9996 32.4862 49.5099 25.9931 50.6079 28.8122C51.7062 31.6313 51.3294 43.6264 51.08 44.2825C50.8306 44.9386 37.9161 52.3599 36.8498 52.3775C35.7835 52.3948 22.7919 44.5301 22.6739 43.8605Z" fill="#ED8A1D"/>
<path opacity="0.4" d="M51.3861 23.0656C51.1252 23.0024 37.6999 15.2432 36.942 15.3009C36.2232 15.3554 26.8681 19.7304 23.0328 23.0363C22.01 23.9177 22.3837 37.0813 23.3278 36.8387C24.2719 36.5964 24.9752 31.2765 35.3648 28.2877C45.5952 25.3445 50.0455 27.8909 51.1554 28.3467C51.469 28.4755 51.9801 23.2094 51.3861 23.0656Z" fill="#FFDF66"/>
<path opacity="0.5" d="M20.8135 45.1143V22.2354L36.85 12.9769L52.8865 22.2354V45.1143L51.7064 44.433C51.7064 44.433 51.778 24.5452 51.3503 23.9214C49.8248 21.6957 37.9616 16.2843 36.0145 16.8867C34.0225 17.5029 23.4742 21.9939 22.2941 23.882C21.8968 24.5177 21.9938 44.433 21.9938 44.433L20.8135 45.1143Z" fill="#DE5634"/>
<path opacity="0.4" d="M39.8445 25.359C43.84 27.1803 49.8585 27.212 50.4092 26.8648C50.96 26.5176 51.3263 23.9536 50.4609 23.5209C49.5955 23.0882 42.7386 19.437 40.9291 19.8304C39.1194 20.2237 39.138 25.037 39.8445 25.359Z" fill="#FFDF66"/>
<path opacity="0.8" d="M17.2725 28.4069C17.2725 28.3466 17.4416 20.8013 17.7613 20.2629C18.081 19.7245 36.4276 9.5505 36.9613 9.406C37.4949 9.2615 44.3673 13.2293 44.3673 13.2293L36.8493 8.88885L17.2725 20.1916V28.4069Z" fill="#700000"/>
<path d="M43.8555 17.0222C43.8555 17.0222 52.4555 21.9152 52.5735 22.4659C52.6915 23.0166 52.885 37.8024 52.885 37.8024C52.885 37.8024 52.9663 22.8658 52.885 22.2354C52.8035 21.6047 43.8555 17.0222 43.8555 17.0222Z" fill="white"/>
<path d="M20.8125 34.7736C20.8125 34.7736 20.5269 22.4048 20.6719 22.0036C20.817 21.6024 36.849 12.9766 36.849 12.9766C36.849 12.9766 21.3684 21.8266 21.0498 22.387C20.7307 22.9477 20.8125 34.7736 20.8125 34.7736Z" fill="white"/>
<path opacity="0.8" d="M17.2725 47.1585L36.8493 58.4612L56.4261 47.1585V41.0162C56.4261 41.0162 56.2622 46.3786 55.8623 47.0468C55.4624 47.715 37.9263 57.9134 37.0328 57.9823C36.1394 58.0513 18.2115 47.4008 17.7419 46.6927C17.2724 45.9847 17.2725 33.4166 17.2725 33.4166V47.1585Z" fill="#700000"/>
<path opacity="0.4" d="M20.8132 39.2582C20.8132 39.2582 20.7578 44.5349 21.0502 44.9778C21.3429 45.4207 28.9498 49.8125 28.9498 49.8125C28.9498 49.8125 20.7083 45.5521 20.6315 45.2767C20.5546 45.0014 20.8132 39.2582 20.8132 39.2582Z" fill="#FFDF66"/>
<path opacity="0.4" d="M27.4351 49.9186C26.8571 49.9202 25.238 50.5684 25.5881 50.9513C25.8705 51.2602 35.5747 57.1447 36.6756 57.5494C37.0346 57.6813 37.0002 55.3874 36.5185 54.6463C36.3121 54.329 29.2254 49.9141 27.4351 49.9186Z" fill="#FFDF66"/>
<path d="M45.018 14.3801C44.7014 14.4656 45.7604 15.7986 46.2639 15.9177C46.7677 16.037 47.4568 15.6788 47.2182 15.4338C46.9798 15.1889 45.5084 14.2477 45.018 14.3801Z" fill="white"/>
<path d="M47.3639 15.7019C46.8837 15.8304 47.7693 17.9359 48.1482 18.3107C48.5272 18.6852 51.8944 19.3415 51.8173 18.7347C51.7399 18.1279 48.0381 15.5214 47.3639 15.7019Z" fill="white"/>
<path opacity="0.5" d="M45.8763 49.9713C45.4548 51.8127 45.5222 52.8982 45.7582 52.91C45.9942 52.9218 54.5549 47.7695 54.7886 47.5429C55.022 47.3163 53.4163 45.8375 52.7554 45.9387C52.0943 46.04 46.0339 49.2831 45.8763 49.9713Z" fill="#DE5634"/>
<path opacity="0.5" d="M21.8525 22.761C21.6459 22.1408 21.0128 22.1445 20.9551 22.836C20.8977 23.5275 20.7985 36.3473 21.05 36.367C21.3015 36.3867 21.8326 35.7573 21.8522 35.4623C21.8722 35.167 21.9509 23.056 21.8525 22.761Z" fill="#DE5634"/>
<path opacity="0.5" d="M51.8466 22.8396C51.8128 23.0838 51.6893 35.1866 51.8466 35.1866C52.004 35.1866 52.712 34.6162 52.712 34.3212C52.712 34.0262 52.535 22.5837 52.4563 22.5247C52.3777 22.4659 51.8742 22.6421 51.8466 22.8396Z" fill="#DE5634"/>
<path opacity="0.5" d="M36.8484 14.1412C36.8484 14.3791 29.9498 18.3159 29.7878 18.3159C29.6254 18.3159 29.6844 17.2538 29.9058 17.1062C30.1271 16.9585 36.7991 12.9462 36.8484 13.0792C36.8978 13.2119 36.8484 13.9433 36.8484 14.1412Z" fill="#DE5634"/>
<path d="M51.0885 46.0328C50.6482 46.016 49.1599 46.8811 49.2727 47.3044C49.3854 47.7277 50.2965 48.1845 50.5383 47.9395C50.7804 47.6943 51.3769 46.0438 51.0885 46.0328Z" fill="#B33114"/>
<path d="M51.6547 46.33C51.5034 46.4696 51.1732 46.9655 51.4876 47.2075C51.8018 47.4498 52.7264 46.811 52.5898 46.6232C52.4529 46.4355 51.85 46.1496 51.6547 46.33Z" fill="#B33114"/>
<path opacity="0.5" d="M49.491 46.8795C49.1241 47.3764 50.6289 47.7066 50.8251 47.2883C51.0212 46.87 51.3354 45.9889 51.0886 46.0327C50.8418 46.0765 49.6911 46.6083 49.491 46.8795Z" fill="#DE5634"/>
<path d="M49.2794 47.1827C49.2794 47.1827 49.4021 47.6059 49.8482 47.8677C50.1988 48.0733 50.5007 48.0271 50.5896 47.8747C50.5896 47.8747 50.3155 48.2317 49.8597 48.019C49.1459 47.6857 49.2794 47.1827 49.2794 47.1827Z" fill="#DAE1EF"/>
<path opacity="0.5" d="M51.8212 46.3432C51.4813 46.7093 51.7454 47.2371 51.9363 47.2075C52.1272 47.1779 52.696 46.8018 52.589 46.6232C52.482 46.4446 51.8956 46.2632 51.8212 46.3432Z" fill="#DE5634"/>
<path d="M51.6558 46.33C51.6558 46.33 51.3431 46.7593 51.4687 47.0066C51.5944 47.2539 51.7714 47.2529 51.7714 47.2529C51.7714 47.2529 51.3673 47.4878 51.2931 47.2122C51.164 46.7354 51.6558 46.33 51.6558 46.33Z" fill="#DAE1EF"/>
<path d="M34.8338 14.0075C33.7793 13.729 32.927 14.4121 32.4644 14.9371C32.0021 15.4619 32.2599 15.7742 32.8413 15.6709C33.4227 15.567 35.2781 14.1247 34.8338 14.0075Z" fill="#B33114"/>
<path opacity="0.5" d="M34.8321 14.0075C34.1188 13.7641 33.2164 14.2367 32.933 14.4882C32.6495 14.7396 33.2068 15.4527 33.5907 15.3006C33.9746 15.1485 35.157 14.1184 34.8321 14.0075Z" fill="#DE5634"/>
<path opacity="0.4" d="M32.7295 14.6645C32.7295 14.6645 31.5379 15.4449 31.6716 15.832C31.8053 16.2188 33.2338 15.5134 33.2338 15.5134C33.2338 15.5134 32.4929 15.7549 32.3251 15.4263C32.1573 15.0972 32.7295 14.6645 32.7295 14.6645Z" fill="#FFDF66"/>
<path d="M21.4944 45.2714C20.9332 45.4117 22.5964 46.5538 22.9897 46.6128C23.3831 46.6718 22.9953 45.67 22.8046 45.4977C22.6648 45.3713 21.8091 45.1927 21.4944 45.2714Z" fill="white"/>
<path d="M36.8328 46.3723L16.6237 34.5863C15.8425 36.3672 15.6592 38.0385 15.6592 38.0385L16.9777 40.2673L36.8328 51.799L56.6879 40.2673L57.8837 38.0385C57.8837 38.0385 57.8861 36.3672 57.1599 34.5863L36.8328 46.3723Z" fill="url(#paint33_linear_773_3106)"/>
<path d="M16.9777 40.2675L15.6592 38.0385L36.8328 50.4423L57.8837 38.0385L56.6882 40.2675L36.8328 51.7992L16.9777 40.2675Z" fill="url(#paint34_linear_773_3106)"/>
<path opacity="0.5" d="M15.6592 38.0385L16.9777 40.2673L17.2786 40.4527L17.2717 41.1164C17.2717 41.1164 18.4049 41.6939 20.6303 42.9227C20.7058 42.9644 22.0286 44.3617 22.0286 44.3617C22.0286 44.3617 36.3317 53.0102 36.8486 53.0102C37.5157 53.0102 51.706 44.1705 51.706 44.1705C51.706 44.1705 52.8112 43.2424 52.9213 43.1776L56.4254 41.3427V40.4202L56.6884 40.2675L57.8842 38.0387L36.8333 50.4413L15.6592 38.0385Z" fill="#DE5634"/>
<path opacity="0.69" d="M36.834 46.3723V50.4424L57.8849 38.0385C57.8849 38.0385 57.8007 35.998 57.1611 34.5863L36.834 46.3723Z" fill="url(#paint35_linear_773_3106)"/>
<path opacity="0.4" d="M17.666 35.4805C17.2795 35.4805 17.5963 38.9028 18.7709 39.6895C20.6365 40.9391 31.8836 47.5687 32.6203 47.5765C33.1293 47.582 33.1028 44.6748 32.9497 44.4493C32.6599 44.0223 18.243 35.4805 17.666 35.4805Z" fill="#FFDF66"/>
<path opacity="0.4" d="M43.0838 42.8561C42.8394 43.1084 42.873 46.307 43.2902 46.2118C43.7077 46.1166 50.0648 42.7219 53.0628 40.5209C56.0607 38.3198 56.4838 35.4173 55.809 35.4816C55.809 35.4816 43.5852 42.3385 43.0838 42.8561Z" fill="#FFDF66"/>
<path d="M26.5371 44.4107C26.5371 44.4107 36.2137 50.2134 36.8334 50.2134C37.453 50.2134 45.1785 45.5247 45.1785 45.5247C45.1785 45.5247 37.0697 50.6658 36.8488 50.6658C36.6771 50.6655 26.5371 44.4107 26.5371 44.4107Z" fill="white"/>
<path opacity="0.5" d="M29.5453 13.1054C29.5453 13.1054 29.3775 14.077 29.42 14.2569C29.4622 14.4368 30.8193 16.4579 30.8193 16.4579V17.8205L36.9005 23.5128L42.9154 18.0091L43.1797 16.6742C43.1797 16.6742 44.5281 14.5487 44.5281 14.2566C44.5281 13.9645 43.2864 12.594 43.2864 12.594L36.8486 8.88873L29.5453 13.1054Z" fill="#DE5634"/>
<path d="M43.9881 13.7822L43.9571 13.7394L36.9761 4.15284L36.94 4.10327L36.9037 4.15284L29.9228 13.7394L29.8916 13.7822L29.9228 13.8249L36.9037 23.4115L36.9025 23.5127L36.94 23.4611L36.9774 23.5127L36.9761 23.4115L43.9571 13.8249L43.9881 13.7822Z" fill="url(#paint36_linear_773_3106)"/>
<path opacity="0.5" d="M31.3496 13.7827V13.7819L36.9375 6.10809L42.5259 13.7821L36.9375 21.4564L31.3496 13.7827Z" fill="#DE5634"/>
<path d="M31.6416 13.7822L36.9379 6.50916L42.2344 13.7822L36.9379 21.0556L31.6416 13.7822Z" fill="url(#paint37_linear_773_3106)"/>
<path opacity="0.4" d="M36.8531 4.62199C36.2279 5.2207 30.2695 13.3036 30.3875 13.526C30.5055 13.7481 32.8334 13.7531 37.3044 13.7014C41.7754 13.6497 43.618 13.6576 43.6573 13.526C43.6967 13.3943 36.9688 4.51159 36.8531 4.62199Z" fill="#FFDF66"/>
<path opacity="0.37" d="M30.1981 13.8079C30.1142 14.1572 36.6283 23.0334 37.0411 22.8941C37.4539 22.7549 43.8801 14.0164 43.4474 13.7824C43.0147 13.5483 30.2749 13.4879 30.1981 13.8079Z" fill="url(#paint38_linear_773_3106)"/>
<path opacity="0.5" d="M36.8913 36.6517L29.4456 40.566L30.8675 32.2751L24.8438 26.4035L33.1685 25.1938L36.8913 17.6506L40.6141 25.1938L48.9388 26.4035L42.915 32.2751L44.3372 40.566L36.8913 36.6517Z" fill="#DE5634"/>
<path d="M48.0686 26.6862L44.0516 26.1024L42.9538 25.943L40.3453 25.5638L36.8913 18.5652L33.4372 25.5638L25.7139 26.6862L31.3025 32.1338L29.9832 39.8259L36.8913 36.1943L43.7993 39.8259L42.4799 32.1338L48.0686 26.6862Z" fill="url(#paint39_linear_773_3106)"/>
<path opacity="0.37" d="M25.6758 26.6863L37.0532 29.6606L31.2645 32.1339L25.6758 26.6863Z" fill="url(#paint40_linear_773_3106)"/>
<path opacity="0.37" d="M48.0303 26.6863L37.0527 29.6606L42.4416 32.1339L48.0303 26.6863Z" fill="url(#paint41_linear_773_3106)"/>
<path opacity="0.37" d="M36.8511 36.1944L37.0512 29.6606L29.9434 39.8259L36.8511 36.1944Z" fill="url(#paint42_linear_773_3106)"/>
<path opacity="0.37" d="M43.7609 39.8259L37.0526 29.6606L36.8525 36.1944L43.7609 39.8259Z" fill="url(#paint43_linear_773_3106)"/>
<path opacity="0.5" d="M36.8525 18.5652L37.0526 29.6605L40.3066 25.5638L36.8525 18.5652Z" fill="url(#paint44_linear_773_3106)"/>
<path opacity="0.5" d="M48.0303 26.6861L37.0527 29.6605L40.3067 25.5637L48.0303 26.6861Z" fill="url(#paint45_linear_773_3106)"/>
<path opacity="0.5" d="M48.0303 26.6861L37.0527 29.6605L40.3067 25.5637L48.0303 26.6861Z" fill="url(#paint46_linear_773_3106)"/>
<path opacity="0.5" d="M33.3994 25.5637L37.0532 29.6605L25.6758 26.6861L33.3994 25.5637Z" fill="url(#paint47_linear_773_3106)"/>
<path d="M40.3062 27.9981C39.7322 28.4838 40.2223 28.8016 40.2223 28.8016L43.1796 28.0002C43.1796 28.0002 41.6329 26.8757 40.3062 27.9981Z" fill="white"/>
<path opacity="0.5" d="M29.9844 39.8258C29.9844 39.8258 35.224 37.3576 36.8924 36.6703L43.8004 39.8258L36.8924 36.194L29.9844 39.8258Z" fill="#DE5634"/>
<path opacity="0.5" d="M25.6758 26.6861L37.0532 29.6605L30.8063 35.0352L25.6758 26.6861Z" fill="#DE5634"/>
<path opacity="0.5" d="M48.0303 26.6861L37.0527 29.6605L43.1015 35.7511L48.0303 26.6861Z" fill="#DE5634"/>
<path opacity="0.5" d="M29.9844 39.8259L37.0529 29.6606L43.8004 39.8259L36.8924 38.7348L29.9844 39.8259Z" fill="#DE5634"/>
<path opacity="0.4" d="M34.3206 24.3534C33.5858 26.391 36.385 27.8134 36.7619 27.1869C37.1387 26.5604 36.8995 23.0608 36.4267 22.5882C35.9541 22.1157 34.6214 23.5192 34.3206 24.3534Z" fill="#F7FFFF"/>
<path opacity="0.4" d="M32.0313 34.7916C33.519 34.9933 34.3519 33.2994 34.6653 32.1338C35.1699 30.2561 29.3273 34.4247 32.0313 34.7916Z" fill="#F7FFFF"/>
<path opacity="0.5" d="M36.848 15.8285L34.8284 16.8903L35.2142 14.6413L33.5801 13.0487L35.838 12.7206L36.848 10.6743L37.8578 12.7206L40.1158 13.0487L38.482 14.6413L38.8675 16.8903L36.848 15.8285Z" fill="#DE5634"/>
<path d="M39.8625 13.1311L38.7792 12.9738L38.4831 12.9307L37.7798 12.8285L36.8483 10.9411L35.9168 12.8285L33.834 13.1311L35.3411 14.6002L34.9855 16.6745L36.8483 15.6951L38.7112 16.6745L38.3553 14.6002L39.8625 13.1311Z" fill="url(#paint48_linear_773_3106)"/>
<path opacity="0.37" d="M33.8242 13.1312L36.8923 13.9334L35.3314 14.6003L33.8242 13.1312Z" fill="url(#paint49_linear_773_3106)"/>
<path opacity="0.37" d="M39.8518 13.1312L36.8916 13.9334L38.345 14.6003L39.8518 13.1312Z" fill="url(#paint50_linear_773_3106)"/>
<path opacity="0.37" d="M36.8376 15.6951L36.8914 13.9333L34.9746 16.6746L36.8376 15.6951Z" fill="url(#paint51_linear_773_3106)"/>
<path opacity="0.37" d="M38.7016 16.6746L36.8926 13.9333L36.8389 15.6951L38.7016 16.6746Z" fill="url(#paint52_linear_773_3106)"/>
<path opacity="0.5" d="M36.8389 10.9411L36.8926 13.9333L37.7701 12.8285L36.8389 10.9411Z" fill="url(#paint53_linear_773_3106)"/>
<path opacity="0.5" d="M39.8518 13.1311L36.8916 13.9333L37.7691 12.8285L39.8518 13.1311Z" fill="url(#paint54_linear_773_3106)"/>
<path opacity="0.5" d="M39.8518 13.1311L36.8916 13.9333L37.7691 12.8285L39.8518 13.1311Z" fill="url(#paint55_linear_773_3106)"/>
<path opacity="0.5" d="M35.907 12.8285L36.8923 13.9333L33.8242 13.1311L35.907 12.8285Z" fill="url(#paint56_linear_773_3106)"/>
<path d="M37.7685 13.4848C37.6138 13.6157 37.746 13.7014 37.746 13.7014L38.5434 13.4854C38.5434 13.4854 38.1265 13.1822 37.7685 13.4848Z" fill="white"/>
<path opacity="0.5" d="M34.9863 16.6745C34.9863 16.6745 36.3993 16.0089 36.8493 15.8235L38.7123 16.6745L36.8493 15.695L34.9863 16.6745Z" fill="#DE5634"/>
<path opacity="0.5" d="M33.8242 13.131L36.8923 13.9332L35.2079 15.3826L33.8242 13.131Z" fill="#DE5634"/>
<path opacity="0.5" d="M39.8518 13.131L36.8916 13.9332L38.5228 15.5756L39.8518 13.131Z" fill="#DE5634"/>
<path opacity="0.5" d="M34.9863 16.6745L36.8923 13.9332L38.712 16.6745L36.8491 16.3802L34.9863 16.6745Z" fill="#DE5634"/>
<path opacity="0.4" d="M36.156 12.5019C35.958 13.0513 36.7127 13.435 36.8142 13.2661C36.9157 13.0972 36.8512 12.1534 36.7238 12.0259C36.5963 11.8985 36.237 12.2772 36.156 12.5019Z" fill="#F7FFFF"/>
<path opacity="0.4" d="M35.5374 15.3168C35.9386 15.3711 36.1631 14.9143 36.2475 14.6001C36.3837 14.0937 34.8081 15.218 35.5374 15.3168Z" fill="#F7FFFF"/>
<defs>
<linearGradient id="paint0_linear_773_3106" x1="14.6249" y1="49.0765" x2="23.0785" y2="49.0765" gradientUnits="userSpaceOnUse">
<stop stop-color="#DE3C14"/>
<stop offset="0.0737" stop-color="#C72E10"/>
<stop offset="0.1852" stop-color="#AB1C0C"/>
<stop offset="0.2972" stop-color="#971009"/>
<stop offset="0.409" stop-color="#8B0807"/>
<stop offset="0.5205" stop-color="#870606"/>
<stop offset="0.6152" stop-color="#8C0707"/>
<stop offset="0.727" stop-color="#9A0808"/>
<stop offset="0.8475" stop-color="#B20B0B"/>
<stop offset="0.9732" stop-color="#D30E0E"/>
<stop offset="1" stop-color="#DB0F0F"/>
</linearGradient>
<linearGradient id="paint1_linear_773_3106" x1="14.6249" y1="48.6912" x2="23.0785" y2="48.6912" gradientUnits="userSpaceOnUse">
<stop stop-color="#B41E2D"/>
<stop offset="1" stop-color="#E54136"/>
</linearGradient>
<linearGradient id="paint2_linear_773_3106" x1="50.2872" y1="49.0764" x2="58.7407" y2="49.0764" gradientUnits="userSpaceOnUse">
<stop stop-color="#DE3C14"/>
<stop offset="0.0737" stop-color="#C72E10"/>
<stop offset="0.1852" stop-color="#AB1C0C"/>
<stop offset="0.2972" stop-color="#971009"/>
<stop offset="0.409" stop-color="#8B0807"/>
<stop offset="0.5205" stop-color="#870606"/>
<stop offset="0.6152" stop-color="#8C0707"/>
<stop offset="0.727" stop-color="#9A0808"/>
<stop offset="0.8475" stop-color="#B20B0B"/>
<stop offset="0.9732" stop-color="#D30E0E"/>
<stop offset="1" stop-color="#DB0F0F"/>
</linearGradient>
<linearGradient id="paint3_linear_773_3106" x1="50.2872" y1="48.6912" x2="58.7407" y2="48.6912" gradientUnits="userSpaceOnUse">
<stop stop-color="#B41E2D"/>
<stop offset="1" stop-color="#E54136"/>
</linearGradient>
<linearGradient id="paint4_linear_773_3106" x1="21.7108" y1="58.817" x2="34.5834" y2="58.817" gradientUnits="userSpaceOnUse">
<stop stop-color="#DE3C14"/>
<stop offset="0.0737" stop-color="#C72E10"/>
<stop offset="0.1852" stop-color="#AB1C0C"/>
<stop offset="0.2972" stop-color="#971009"/>
<stop offset="0.409" stop-color="#8B0807"/>
<stop offset="0.5205" stop-color="#870606"/>
<stop offset="0.6152" stop-color="#8C0707"/>
<stop offset="0.727" stop-color="#9A0808"/>
<stop offset="0.8475" stop-color="#B20B0B"/>
<stop offset="0.9732" stop-color="#D30E0E"/>
<stop offset="1" stop-color="#DB0F0F"/>
</linearGradient>
<linearGradient id="paint5_linear_773_3106" x1="38.9609" y1="58.817" x2="51.8334" y2="58.817" gradientUnits="userSpaceOnUse">
<stop stop-color="#DE3C14"/>
<stop offset="0.0737" stop-color="#C72E10"/>
<stop offset="0.1852" stop-color="#AB1C0C"/>
<stop offset="0.2972" stop-color="#971009"/>
<stop offset="0.409" stop-color="#8B0807"/>
<stop offset="0.5205" stop-color="#870606"/>
<stop offset="0.6152" stop-color="#8C0707"/>
<stop offset="0.727" stop-color="#9A0808"/>
<stop offset="0.8475" stop-color="#B20B0B"/>
<stop offset="0.9732" stop-color="#D30E0E"/>
<stop offset="1" stop-color="#DB0F0F"/>
</linearGradient>
<linearGradient id="paint6_linear_773_3106" x1="21.7108" y1="58.8169" x2="34.5834" y2="58.8169" gradientUnits="userSpaceOnUse">
<stop stop-color="#B41E2D"/>
<stop offset="1" stop-color="#E54136"/>
</linearGradient>
<linearGradient id="paint7_linear_773_3106" x1="38.9609" y1="58.817" x2="51.8334" y2="58.817" gradientUnits="userSpaceOnUse">
<stop stop-color="#B41E2D"/>
<stop offset="1" stop-color="#E54136"/>
</linearGradient>
<linearGradient id="paint8_linear_773_3106" x1="56.0982" y1="36.7574" x2="56.0978" y2="27.0735" gradientUnits="userSpaceOnUse">
<stop stop-color="#CA6B34"/>
<stop offset="0.6667" stop-color="#FFA933"/>
<stop offset="1" stop-color="#FFBD2B"/>
</linearGradient>
<linearGradient id="paint9_linear_773_3106" x1="61.629" y1="29.3864" x2="67.707" y2="29.3864" gradientUnits="userSpaceOnUse">
<stop stop-color="#DE3C14"/>
<stop offset="0.0737" stop-color="#C72E10"/>
<stop offset="0.1852" stop-color="#AB1C0C"/>
<stop offset="0.2972" stop-color="#971009"/>
<stop offset="0.409" stop-color="#8B0807"/>
<stop offset="0.5205" stop-color="#870606"/>
<stop offset="0.6152" stop-color="#8C0707"/>
<stop offset="0.727" stop-color="#9A0808"/>
<stop offset="0.8475" stop-color="#B20B0B"/>
<stop offset="0.9732" stop-color="#D30E0E"/>
<stop offset="1" stop-color="#DB0F0F"/>
</linearGradient>
<linearGradient id="paint10_linear_773_3106" x1="17.447" y1="36.7574" x2="17.4474" y2="27.0736" gradientUnits="userSpaceOnUse">
<stop stop-color="#CA6B34"/>
<stop offset="0.6667" stop-color="#FFA933"/>
<stop offset="1" stop-color="#FFBD2B"/>
</linearGradient>
<linearGradient id="paint11_linear_773_3106" x1="5.77547" y1="29.41" x2="11.8534" y2="29.41" gradientUnits="userSpaceOnUse">
<stop stop-color="#DE3C14"/>
<stop offset="0.0737" stop-color="#C72E10"/>
<stop offset="0.1852" stop-color="#AB1C0C"/>
<stop offset="0.2972" stop-color="#971009"/>
<stop offset="0.409" stop-color="#8B0807"/>
<stop offset="0.5205" stop-color="#870606"/>
<stop offset="0.6152" stop-color="#8C0707"/>
<stop offset="0.727" stop-color="#9A0808"/>
<stop offset="0.8475" stop-color="#B20B0B"/>
<stop offset="0.9732" stop-color="#D30E0E"/>
<stop offset="1" stop-color="#DB0F0F"/>
</linearGradient>
<linearGradient id="paint12_linear_773_3106" x1="59.2311" y1="30.6471" x2="59.2306" y2="20.9633" gradientUnits="userSpaceOnUse">
<stop stop-color="#CA6B34"/>
<stop offset="0.6667" stop-color="#FFA933"/>
<stop offset="1" stop-color="#FFBD2B"/>
</linearGradient>
<linearGradient id="paint13_linear_773_3106" x1="64.9344" y1="23.2872" x2="71.0124" y2="23.2872" gradientUnits="userSpaceOnUse">
<stop stop-color="#DE3C14"/>
<stop offset="0.0737" stop-color="#C72E10"/>
<stop offset="0.1852" stop-color="#AB1C0C"/>
<stop offset="0.2972" stop-color="#971009"/>
<stop offset="0.409" stop-color="#8B0807"/>
<stop offset="0.5205" stop-color="#870606"/>
<stop offset="0.6152" stop-color="#8C0707"/>
<stop offset="0.727" stop-color="#9A0808"/>
<stop offset="0.8475" stop-color="#B20B0B"/>
<stop offset="0.9732" stop-color="#D30E0E"/>
<stop offset="1" stop-color="#DB0F0F"/>
</linearGradient>
<linearGradient id="paint14_linear_773_3106" x1="14.1335" y1="30.6471" x2="14.134" y2="20.9632" gradientUnits="userSpaceOnUse">
<stop stop-color="#CA6B34"/>
<stop offset="0.6667" stop-color="#FFA933"/>
<stop offset="1" stop-color="#FFBD2B"/>
</linearGradient>
<linearGradient id="paint15_linear_773_3106" x1="2.43349" y1="23.3057" x2="8.51144" y2="23.3057" gradientUnits="userSpaceOnUse">
<stop stop-color="#DE3C14"/>
<stop offset="0.0737" stop-color="#C72E10"/>
<stop offset="0.1852" stop-color="#AB1C0C"/>
<stop offset="0.2972" stop-color="#971009"/>
<stop offset="0.409" stop-color="#8B0807"/>
<stop offset="0.5205" stop-color="#870606"/>
<stop offset="0.6152" stop-color="#8C0707"/>
<stop offset="0.727" stop-color="#9A0808"/>
<stop offset="0.8475" stop-color="#B20B0B"/>
<stop offset="0.9732" stop-color="#D30E0E"/>
<stop offset="1" stop-color="#DB0F0F"/>
</linearGradient>
<linearGradient id="paint16_linear_773_3106" x1="25.3419" y1="25.6599" x2="25.3419" y2="8.75313" gradientUnits="userSpaceOnUse">
<stop stop-color="#CA6B34"/>
<stop offset="0.6667" stop-color="#FFA933"/>
<stop offset="1" stop-color="#FFBD2B"/>
</linearGradient>
<linearGradient id="paint17_linear_773_3106" x1="23.4699" y1="20.3682" x2="23.4699" y2="4.43662" gradientUnits="userSpaceOnUse">
<stop stop-color="#CA6B34"/>
<stop offset="0.6667" stop-color="#FFA933"/>
<stop offset="1" stop-color="#FFBD2B"/>
</linearGradient>
<linearGradient id="paint18_linear_773_3106" x1="25.5602" y1="14.7502" x2="25.5602" y2="24.7765" gradientUnits="userSpaceOnUse">
<stop stop-color="#C10065"/>
<stop offset="1" stop-color="white"/>
</linearGradient>
<linearGradient id="paint19_linear_773_3106" x1="48.166" y1="25.6599" x2="48.166" y2="8.75313" gradientUnits="userSpaceOnUse">
<stop stop-color="#CA6B34"/>
<stop offset="0.6667" stop-color="#FFA933"/>
<stop offset="1" stop-color="#FFBD2B"/>
</linearGradient>
<linearGradient id="paint20_linear_773_3106" x1="50.0754" y1="20.3682" x2="50.0754" y2="4.43662" gradientUnits="userSpaceOnUse">
<stop stop-color="#CA6B34"/>
<stop offset="0.6667" stop-color="#FFA933"/>
<stop offset="1" stop-color="#FFBD2B"/>
</linearGradient>
<linearGradient id="paint21_linear_773_3106" x1="47.983" y1="14.7502" x2="47.983" y2="24.7765" gradientUnits="userSpaceOnUse">
<stop stop-color="#C10065"/>
<stop offset="1" stop-color="white"/>
</linearGradient>
<linearGradient id="paint22_linear_773_3106" x1="12.7469" y1="44.6274" x2="12.7469" y2="33.9357" gradientUnits="userSpaceOnUse">
<stop stop-color="#CA6B34"/>
<stop offset="0.6667" stop-color="#FFA933"/>
<stop offset="1" stop-color="#FFBD2B"/>
</linearGradient>
<linearGradient id="paint23_linear_773_3106" x1="13.9908" y1="38.8756" x2="13.9908" y2="43.8659" gradientUnits="userSpaceOnUse">
<stop stop-color="#C10065"/>
<stop offset="1" stop-color="white"/>
</linearGradient>
<linearGradient id="paint24_linear_773_3106" x1="60.7965" y1="44.6275" x2="60.7965" y2="33.9359" gradientUnits="userSpaceOnUse">
<stop stop-color="#CA6B34"/>
<stop offset="0.6667" stop-color="#FFA933"/>
<stop offset="1" stop-color="#FFBD2B"/>
</linearGradient>
<linearGradient id="paint25_linear_773_3106" x1="59.552" y1="38.8756" x2="59.552" y2="43.8659" gradientUnits="userSpaceOnUse">
<stop stop-color="#C10065"/>
<stop offset="1" stop-color="white"/>
</linearGradient>
<linearGradient id="paint26_linear_773_3106" x1="36.8491" y1="59.3124" x2="36.8491" y2="16.8043" gradientUnits="userSpaceOnUse">
<stop stop-color="#CA6B34"/>
<stop offset="0.6667" stop-color="#FFA933"/>
<stop offset="1" stop-color="#FFBD2B"/>
</linearGradient>
<linearGradient id="paint27_linear_773_3106" x1="36.8498" y1="9.32911" x2="36.8498" y2="52.0575" gradientUnits="userSpaceOnUse">
<stop stop-color="#CA6B34"/>
<stop offset="0.1742" stop-color="#CC6E34"/>
<stop offset="0.2919" stop-color="#D27733"/>
<stop offset="0.3931" stop-color="#DB8631"/>
<stop offset="0.4848" stop-color="#E99B2F"/>
<stop offset="0.5694" stop-color="#FBB72C"/>
<stop offset="0.5853" stop-color="#FFBD2B"/>
<stop offset="1" stop-color="#FFA933"/>
</linearGradient>
<linearGradient id="paint28_linear_773_3106" x1="36.8504" y1="53.0105" x2="36.8504" y2="14.3395" gradientUnits="userSpaceOnUse">
<stop stop-color="#B75014"/>
<stop offset="0.375" stop-color="#E8692A"/>
<stop offset="1" stop-color="#F58E2F"/>
</linearGradient>
<linearGradient id="paint29_linear_773_3106" x1="19.0255" y1="35.0338" x2="19.0255" y2="46.6957" gradientUnits="userSpaceOnUse">
<stop stop-color="#C10065"/>
<stop offset="1" stop-color="white"/>
</linearGradient>
<linearGradient id="paint30_linear_773_3106" x1="54.5966" y1="35.0338" x2="54.5966" y2="46.6957" gradientUnits="userSpaceOnUse">
<stop stop-color="#C10065"/>
<stop offset="1" stop-color="white"/>
</linearGradient>
<linearGradient id="paint31_linear_773_3106" x1="27.4461" y1="45.6936" x2="27.4461" y2="57.7445" gradientUnits="userSpaceOnUse">
<stop stop-color="#C10065"/>
<stop offset="1" stop-color="white"/>
</linearGradient>
<linearGradient id="paint32_linear_773_3106" x1="46.2527" y1="45.6953" x2="46.2527" y2="57.9823" gradientUnits="userSpaceOnUse">
<stop stop-color="#C10065"/>
<stop offset="1" stop-color="white"/>
</linearGradient>
<linearGradient id="paint33_linear_773_3106" x1="36.7715" y1="17.2127" x2="36.7715" y2="48.0211" gradientUnits="userSpaceOnUse">
<stop stop-color="#CA6B34"/>
<stop offset="0.6667" stop-color="#FFA933"/>
<stop offset="1" stop-color="#FFBD2B"/>
</linearGradient>
<linearGradient id="paint34_linear_773_3106" x1="36.7715" y1="51.7991" x2="36.7715" y2="38.0386" gradientUnits="userSpaceOnUse">
<stop stop-color="#F1CB3C"/>
<stop offset="1" stop-color="#FFC14F"/>
</linearGradient>
<linearGradient id="paint35_linear_773_3106" x1="47.3596" y1="34.5864" x2="47.3596" y2="50.4425" gradientUnits="userSpaceOnUse">
<stop stop-color="#C10065"/>
<stop offset="1" stop-color="white"/>
</linearGradient>
<linearGradient id="paint36_linear_773_3106" x1="36.9397" y1="23.0918" x2="36.9397" y2="6.06457" gradientUnits="userSpaceOnUse">
<stop stop-color="#CA6B34"/>
<stop offset="0.6667" stop-color="#FFA933"/>
<stop offset="1" stop-color="#FFBD2B"/>
</linearGradient>
<linearGradient id="paint37_linear_773_3106" x1="31.6416" y1="13.7824" x2="42.2344" y2="13.7824" gradientUnits="userSpaceOnUse">
<stop stop-color="#DE3C14"/>
<stop offset="0.0737" stop-color="#C72E10"/>
<stop offset="0.1852" stop-color="#AB1C0C"/>
<stop offset="0.2972" stop-color="#971009"/>
<stop offset="0.409" stop-color="#8B0807"/>
<stop offset="0.5205" stop-color="#870606"/>
<stop offset="0.6152" stop-color="#8C0707"/>
<stop offset="0.727" stop-color="#9A0808"/>
<stop offset="0.8475" stop-color="#B20B0B"/>
<stop offset="0.9732" stop-color="#D30E0E"/>
<stop offset="1" stop-color="#DB0F0F"/>
</linearGradient>
<linearGradient id="paint38_linear_773_3106" x1="36.8327" y1="13.5871" x2="36.8327" y2="22.8956" gradientUnits="userSpaceOnUse">
<stop stop-color="#C10065"/>
<stop offset="1" stop-color="white"/>
</linearGradient>
<linearGradient id="paint39_linear_773_3106" x1="36.8913" y1="40.2258" x2="36.8913" y2="14.9592" gradientUnits="userSpaceOnUse">
<stop stop-color="#CA6B34"/>
<stop offset="0.6667" stop-color="#FFA933"/>
<stop offset="1" stop-color="#FFBD2B"/>
</linearGradient>
<linearGradient id="paint40_linear_773_3106" x1="31.3646" y1="26.6863" x2="31.3646" y2="32.1339" gradientUnits="userSpaceOnUse">
<stop stop-color="#C10065"/>
<stop offset="1" stop-color="white"/>
</linearGradient>
<linearGradient id="paint41_linear_773_3106" x1="42.5415" y1="26.6863" x2="42.5415" y2="32.1339" gradientUnits="userSpaceOnUse">
<stop stop-color="#C10065"/>
<stop offset="1" stop-color="white"/>
</linearGradient>
<linearGradient id="paint42_linear_773_3106" x1="33.4973" y1="29.6607" x2="33.4973" y2="39.826" gradientUnits="userSpaceOnUse">
<stop stop-color="#C10065"/>
<stop offset="1" stop-color="white"/>
</linearGradient>
<linearGradient id="paint43_linear_773_3106" x1="40.3067" y1="29.6607" x2="40.3067" y2="39.826" gradientUnits="userSpaceOnUse">
<stop stop-color="#C10065"/>
<stop offset="1" stop-color="white"/>
</linearGradient>
<linearGradient id="paint44_linear_773_3106" x1="37.8748" y1="20.2336" x2="39.4214" y2="34.4115" gradientUnits="userSpaceOnUse">
<stop stop-color="#BFD7FF"/>
<stop offset="1"/>
</linearGradient>
<linearGradient id="paint45_linear_773_3106" x1="37.0528" y1="27.6122" x2="48.0302" y2="27.6122" gradientUnits="userSpaceOnUse">
<stop stop-color="#BFD7FF"/>
<stop offset="1"/>
</linearGradient>
<linearGradient id="paint46_linear_773_3106" x1="41.6306" y1="19.8238" x2="43.1773" y2="34.0017" gradientUnits="userSpaceOnUse">
<stop stop-color="#BFD7FF"/>
<stop offset="1"/>
</linearGradient>
<linearGradient id="paint47_linear_773_3106" x1="30.5852" y1="21.0289" x2="32.1319" y2="35.2067" gradientUnits="userSpaceOnUse">
<stop stop-color="#BFD7FF"/>
<stop offset="1"/>
</linearGradient>
<linearGradient id="paint48_linear_773_3106" x1="36.8483" y1="16.7824" x2="36.8483" y2="9.9687" gradientUnits="userSpaceOnUse">
<stop stop-color="#CA6B34"/>
<stop offset="0.6667" stop-color="#FFA933"/>
<stop offset="1" stop-color="#FFBD2B"/>
</linearGradient>
<linearGradient id="paint49_linear_773_3106" x1="35.3582" y1="13.1312" x2="35.3582" y2="14.6003" gradientUnits="userSpaceOnUse">
<stop stop-color="#C10065"/>
<stop offset="1" stop-color="white"/>
</linearGradient>
<linearGradient id="paint50_linear_773_3106" x1="38.3718" y1="13.1312" x2="38.3718" y2="14.6003" gradientUnits="userSpaceOnUse">
<stop stop-color="#C10065"/>
<stop offset="1" stop-color="white"/>
</linearGradient>
<linearGradient id="paint51_linear_773_3106" x1="35.933" y1="13.9333" x2="35.933" y2="16.6746" gradientUnits="userSpaceOnUse">
<stop stop-color="#C10065"/>
<stop offset="1" stop-color="white"/>
</linearGradient>
<linearGradient id="paint52_linear_773_3106" x1="37.7702" y1="13.9333" x2="37.7702" y2="16.6746" gradientUnits="userSpaceOnUse">
<stop stop-color="#C10065"/>
<stop offset="1" stop-color="white"/>
</linearGradient>
<linearGradient id="paint53_linear_773_3106" x1="37.1144" y1="11.391" x2="37.5315" y2="15.2144" gradientUnits="userSpaceOnUse">
<stop stop-color="#BFD7FF"/>
<stop offset="1"/>
</linearGradient>
<linearGradient id="paint54_linear_773_3106" x1="36.8916" y1="13.3809" x2="39.8519" y2="13.3809" gradientUnits="userSpaceOnUse">
<stop stop-color="#BFD7FF"/>
<stop offset="1"/>
</linearGradient>
<linearGradient id="paint55_linear_773_3106" x1="38.1261" y1="11.2806" x2="38.5433" y2="15.1039" gradientUnits="userSpaceOnUse">
<stop stop-color="#BFD7FF"/>
<stop offset="1"/>
</linearGradient>
<linearGradient id="paint56_linear_773_3106" x1="35.1481" y1="11.6055" x2="35.5651" y2="15.4289" gradientUnits="userSpaceOnUse">
<stop stop-color="#BFD7FF"/>
<stop offset="1"/>
</linearGradient>
</defs>
</svg>
