<svg width="67" height="70" viewBox="0 0 67 70" fill="none" xmlns="http://www.w3.org/2000/svg">
<path d="M38.6494 27.1317L66.9171 26.9487L64.2779 31.6927L40.1019 32.3603L38.6494 27.1317Z" fill="url(#paint0_linear_773_2966)"/>
<path opacity="0.5" d="M39.8906 30.8787L65.051 30.3005L64.2764 31.6927L40.1004 32.3604L39.8906 30.8787Z" fill="#DE5634"/>
<path opacity="0.4" d="M54.6772 27.3699C54.4648 27.6012 55.4458 30.072 55.8481 29.9962C56.2504 29.9205 64.4158 30.0691 64.7813 29.8171C65.1466 29.5649 66.5166 27.4847 66.2179 27.2348C65.9187 26.9852 54.881 27.148 54.6772 27.3699Z" fill="#FFDF66"/>
<path opacity="0.5" d="M54.1027 27.0114C54.1027 27.0114 55.1666 29.8987 55.2052 30.5267C55.2435 31.1548 54.8079 31.9541 54.8079 31.9541L40.1019 32.3603L38.6494 27.1315L54.1027 27.0114Z" fill="#DE5634"/>
<path d="M28.2677 27.1317L0 26.9487L2.63918 31.6927L26.8154 32.3603L28.2677 27.1317Z" fill="url(#paint1_linear_773_2966)"/>
<path opacity="0.5" d="M27.0247 30.8787L1.86426 30.3005L2.63891 31.6927L26.8151 32.3604L27.0247 30.8787Z" fill="#DE5634"/>
<path opacity="0.4" d="M12.0412 27.2657C12.7443 27.9313 11.4851 30.1992 11.0828 30.1234C10.6805 30.0476 2.50043 30.0694 2.13513 29.8171C1.76983 29.5648 0.399616 27.4847 0.698571 27.2348C0.997525 26.9851 11.6348 26.8807 12.0412 27.2657Z" fill="#FFDF66"/>
<path opacity="0.5" d="M12.8136 27.0114C12.8136 27.0114 11.7497 29.8987 11.7114 30.5267C11.6731 31.1548 12.1087 31.9541 12.1087 31.9541L26.8146 32.3603L28.2671 27.1315L12.8136 27.0114Z" fill="#DE5634"/>
<path d="M31.2698 53.0111V69.9997C26.1364 67.2855 18.3975 59.3789 18.3975 59.3789V47.6345L31.2698 53.0111Z" fill="url(#paint2_linear_773_2966)"/>
<path opacity="0.6" d="M31.2698 66.5774V69.9997C26.1364 67.2855 18.3975 59.3788 18.3975 59.3788V56.4474C20.1828 58.7237 23.9698 62.5887 31.2698 66.5774Z" fill="#8E37E2"/>
<path d="M35.6465 53.0111V69.9997C40.7798 67.2855 48.5188 59.3789 48.5188 59.3789V47.6345L35.6465 53.0111Z" fill="url(#paint3_linear_773_2966)"/>
<path opacity="0.6" d="M35.6465 66.5774V69.9997C40.7798 67.2855 48.5188 59.3788 48.5188 59.3788V56.4474C46.7335 58.7237 42.9465 62.5887 35.6465 66.5774Z" fill="#8E37E2"/>
<path d="M19.6027 60.5746C19.6027 60.5746 19.4818 52.7778 20.7007 52.9099C21.9196 53.0421 24.0115 54.2812 24.4702 55.6973C24.9288 57.1135 24.7966 65.3233 24.7966 65.3233L25.2577 65.7064C25.2577 65.7064 24.6865 55.733 25.6353 56.2221C26.5841 56.7112 27.8486 57.6243 28.2887 59.851C28.7287 62.0777 28.8603 68.5552 28.8603 68.5552L31.2698 69.9999V53.0112L18.3975 47.6346V59.379L19.6027 60.5746Z" fill="url(#paint4_linear_773_2966)"/>
<path d="M47.3133 60.5747C47.3133 60.5747 47.4135 51.4381 46.1946 51.5705C44.9757 51.7027 44.9277 56.3316 44.9277 57.7446C44.9277 59.233 44.7315 63.0143 44.7315 63.0143L44.0447 63.6377C44.0447 63.6377 44.146 53.2479 43.1969 53.7369C42.2481 54.226 38.0879 57.4393 37.6481 59.666C37.2081 61.8927 37.3749 68.9634 37.3749 68.9634L35.6465 69.9997V53.0111L48.5188 47.6345V59.3789L47.3133 60.5747Z" fill="url(#paint5_linear_773_2966)"/>
<path d="M15.5954 26.2105L14.2051 21.8415L15.5837 20.1052L24.9218 14.474V3.57543L26.1074 2.71868L29.8516 0V18.5928L15.5954 26.2105Z" fill="url(#paint6_linear_773_2966)"/>
<path d="M14.2051 21.8415L26.1074 15.0253V2.71869L24.9218 3.57544V14.474L15.5837 20.1052L14.2051 21.8415Z" fill="url(#paint7_linear_773_2966)"/>
<path opacity="0.4" d="M26.3777 2.71867C26.3161 3.41677 26.4333 12.0774 26.839 12.2801C27.2447 12.4831 29.3447 11.2943 29.5191 10.8176C29.6935 10.3411 29.5904 1.07283 29.3028 1.10666C29.0151 1.14075 26.421 2.23064 26.3777 2.71867Z" fill="#FFDF66"/>
<path opacity="0.37" d="M26.4472 15.1847C25.3862 16.058 14.8045 21.8415 14.6603 22.2173C14.4749 22.7001 15.8792 24.9539 16.5481 24.7653C17.2168 24.5765 29.8107 17.439 29.8351 17.101C29.8592 16.7629 29.893 14.9091 29.5888 14.7877C29.2844 14.6663 26.8526 14.8509 26.4472 15.1847Z" fill="url(#paint8_linear_773_2966)"/>
<path d="M14.2051 22.2174L26.3562 15.1625L26.4223 2.5108L26.1074 2.71876V15.0253L14.2051 21.8416V22.2174Z" fill="#B33114"/>
<path opacity="0.4" d="M25.0472 14.5986C24.3546 14.6437 15.7146 20.1892 15.7146 20.347C15.7146 20.5049 14.192 21.4448 14.5618 21.4214C14.9318 21.3981 25.8518 15.227 25.8665 15.0256C25.8814 14.8242 25.4204 14.5743 25.0472 14.5986Z" fill="#FFDF66"/>
<path opacity="0.4" d="M14.2051 22.2173C14.2051 22.2173 19.9555 19.3163 22.8962 17.4646C25.837 15.6129 26.4488 15.1847 26.4488 15.1847L14.2051 22.2173Z" fill="#FFDF66"/>
<path opacity="0.5" d="M24.9207 13.076L26.1063 12.0567H26.3614L29.8505 10.1491V18.5928L25.8666 20.5995L23.916 15.0798L24.9207 14.474V13.076Z" fill="#DE5634"/>
<path d="M51.3229 26.2105L52.7131 21.8415L51.3347 20.1052L41.9966 14.474V3.57543L40.811 2.71868L36.9912 0V18.5525L51.3229 26.2105Z" fill="url(#paint9_linear_773_2966)"/>
<path d="M52.7116 21.8415L40.8096 15.0253V2.71869L41.9952 3.57544V14.474L51.3333 20.1052L52.7116 21.8415Z" fill="url(#paint10_linear_773_2966)"/>
<path opacity="0.4" d="M40.3438 2.71867C40.4054 3.41677 40.5801 12.0774 40.1741 12.2801C39.7684 12.4831 37.5163 11.1763 37.3419 10.6995C37.1675 10.223 37.3277 1.07309 37.6152 1.10666C37.9031 1.14075 40.3008 2.23064 40.3438 2.71867Z" fill="#FFDF66"/>
<path opacity="0.37" d="M40.4684 15.1847C41.5294 16.058 52.1111 21.8415 52.2553 22.2173C52.4407 22.7001 51.0364 24.9539 50.3674 24.7653C49.6987 24.5765 37.1049 17.439 37.0805 17.101C37.0561 16.7629 37.0225 14.9091 37.3267 14.7877C37.6312 14.6663 40.063 14.8509 40.4684 15.1847Z" fill="url(#paint11_linear_773_2966)"/>
<path d="M52.7121 22.2174L40.5612 15.1625L40.4951 2.5108L40.8101 2.71876V15.0253L52.7121 21.8416V22.2174Z" fill="#B33114"/>
<path opacity="0.4" d="M41.8684 14.5986C42.5607 14.6437 51.201 20.1892 51.201 20.347C51.201 20.5049 52.7236 21.4448 52.3539 21.4214C51.9838 21.3981 41.0639 15.227 41.0492 15.0256C41.0342 14.8242 41.4953 14.5743 41.8684 14.5986Z" fill="#FFDF66"/>
<path opacity="0.4" d="M52.7115 22.2173C52.7115 22.2173 46.9611 19.3163 44.0203 17.4646C41.0796 15.6129 40.4678 15.1847 40.4678 15.1847L52.7115 22.2173Z" fill="#FFDF66"/>
<path opacity="0.5" d="M41.9956 13.0759L40.81 12.0566H40.5549L37.0078 10.0908V18.5346L41.0497 20.5995L43.0003 15.0797L41.9956 14.474V13.0759Z" fill="#DE5634"/>
<path d="M14.9093 44.6529C14.8616 44.8189 7.85972 42.3853 7.85972 42.3853C4.75217 37.6192 3.4541 33.855 3.4541 33.855H15.4123L14.9093 44.6529Z" fill="url(#paint12_linear_773_2966)"/>
<path d="M5.73633 33.8551C5.73633 33.8551 8.52918 39.6226 9.04055 40.2467L15.0865 40.4085V39.9955C15.0865 39.9955 9.55192 40.0435 9.23723 39.808C8.92254 39.5725 6.09035 33.8548 6.09035 33.8548L5.73633 33.8551Z" fill="#B33114"/>
<path d="M5.73633 33.8552L9.04055 40.2468C9.04055 40.2468 7.83086 38.5318 7.09344 37.0509C6.35575 35.5702 5.73633 33.8552 5.73633 33.8552Z" fill="white"/>
<path opacity="0.4" d="M6.59076 34.2466C7.05335 35.6255 8.89193 38.7564 9.27559 38.7564C9.65924 38.7564 14.0945 38.6778 14.5026 38.0384C14.9106 37.3991 15.262 34.3096 14.9093 34.2466C14.5563 34.1834 6.38437 33.6312 6.59076 34.2466Z" fill="#FFDF66"/>
<path opacity="0.4" d="M3.84795 34.0951C4.41858 35.448 6.00144 38.8847 6.29646 38.9238C6.59149 38.9628 7.57963 39.0898 7.59457 38.6765C7.61818 38.0198 5.76543 34.1835 5.3524 34.0951C4.93964 34.0064 3.70791 33.7631 3.84795 34.0951Z" fill="#FFDF66"/>
<path opacity="0.37" d="M6.58627 39.3762C6.53303 39.8023 8.1243 42.0018 8.38968 42.1791C8.65507 42.3561 14.0244 44.089 14.3787 43.842C14.7328 43.5952 14.9177 39.0591 14.6226 38.9275C14.3274 38.7959 6.64527 38.9039 6.58627 39.3762Z" fill="url(#paint13_linear_773_2966)"/>
<path opacity="0.5" d="M11.3936 33.8552C11.3936 33.8552 12.3565 39.0243 12.1504 43.8419L14.9094 44.6531L15.4124 33.8552H11.3936Z" fill="#DE5634"/>
<path d="M52.0056 44.6531C52.0534 44.8191 59.0555 42.3854 59.0555 42.3854C62.163 37.6194 63.4611 33.8552 63.4611 33.8552H51.5029L52.0056 44.6531Z" fill="url(#paint14_linear_773_2966)"/>
<path d="M61.1812 33.8551C61.1812 33.8551 58.3884 39.6226 57.877 40.2467L51.8311 40.4085V39.9955C51.8311 39.9955 57.3657 40.0435 57.6803 39.808C57.995 39.5725 60.8272 33.8548 60.8272 33.8548L61.1812 33.8551Z" fill="#B33114"/>
<path d="M61.1812 33.8552L57.877 40.2468C57.877 40.2468 59.0864 38.5318 59.8241 37.0509C60.5615 35.5702 61.1812 33.8552 61.1812 33.8552Z" fill="white"/>
<path opacity="0.4" d="M60.3246 34.2466C59.862 35.6255 58.0235 38.7564 57.6401 38.7564C57.2567 38.7564 52.8211 38.6778 52.4131 38.0384C52.005 37.3991 51.6536 34.3096 52.0063 34.2466C52.359 34.1834 60.5312 33.6312 60.3246 34.2466Z" fill="#FFDF66"/>
<path opacity="0.4" d="M63.0684 34.0951C62.4978 35.448 60.9146 38.8847 60.6196 38.9238C60.3246 38.9628 59.3365 39.0898 59.3215 38.6765C59.2979 38.0198 61.1507 34.1835 61.5637 34.0951C61.9767 34.0064 63.2084 33.7631 63.0684 34.0951Z" fill="#FFDF66"/>
<path opacity="0.37" d="M60.3296 39.3762C60.3828 39.8023 58.7916 42.0018 58.5262 42.1791C58.2605 42.3561 52.8912 44.089 52.5371 43.842C52.1831 43.5952 51.9982 39.0591 52.2932 38.9275C52.5882 38.7959 60.2706 38.9039 60.3296 39.3762Z" fill="url(#paint15_linear_773_2966)"/>
<path opacity="0.5" d="M55.5215 33.8552C55.5215 33.8552 54.5586 39.0243 54.7647 43.8419L52.0056 44.6531L51.5029 33.8552H55.5215Z" fill="#DE5634"/>
<path d="M33.5355 8.88873L13.959 20.1914V47.1585L33.5355 58.461L53.1118 47.1585V20.1914L33.5355 8.88873Z" fill="url(#paint16_linear_773_2966)"/>
<path d="M17.5 45.1143V22.2354L33.5363 12.9769L49.5723 22.2354V45.1143L33.5363 54.3731L17.5 45.1143Z" fill="url(#paint17_linear_773_2966)"/>
<path d="M18.6797 44.4331V22.9168L33.5359 14.3395L48.3918 22.9168V44.4331L33.5359 53.0106L18.6797 44.4331Z" fill="url(#paint18_linear_773_2966)"/>
<path opacity="0.4" d="M14.447 20.263C14.2055 20.9875 16.2856 21.8789 17.7512 21.5611C19.2169 21.2432 32.9945 13.1583 33.3283 12.435C33.4214 12.2333 33.4364 9.40607 33.3283 9.40607C32.8435 9.40607 14.565 19.9089 14.447 20.263Z" fill="#FFDF66"/>
<path opacity="0.4" d="M52.5281 20.263C52.7697 20.9875 50.6896 21.8789 49.2239 21.5611C47.7583 21.2432 34.111 13.0822 33.6468 12.435C33.4071 12.1006 33.3285 9.40607 33.6468 9.40607C34.1314 9.40607 52.4101 19.9089 52.5281 20.263Z" fill="#FFDF66"/>
<path opacity="0.37" d="M14.4287 35.5999C14.2974 36.4063 13.9766 46.6141 14.4287 46.6928C14.8808 46.7715 17.005 45.316 17.123 44.6473C17.241 43.9786 17.2804 36.9767 17.123 36.3079C16.9657 35.6392 14.6477 34.2564 14.4287 35.5999Z" fill="url(#paint19_linear_773_2966)"/>
<path opacity="0.37" d="M52.5653 35.5999C52.6967 36.4063 53.0174 46.6141 52.5653 46.6928C52.1132 46.7715 49.9894 45.316 49.8714 44.6473C49.7533 43.9786 49.714 36.9767 49.8714 36.3079C50.0287 35.6392 52.3464 34.2564 52.5653 35.5999Z" fill="url(#paint20_linear_773_2966)"/>
<path opacity="0.37" d="M14.9191 46.9711C15.1562 47.3201 32.7866 57.7443 33.0523 57.7443C33.1857 57.7443 33.3627 55.1536 33.3627 54.8646C33.3627 54.059 17.7712 45.7789 17.4985 45.7021C17.0954 45.5888 14.6789 46.6171 14.9191 46.9711Z" fill="url(#paint21_linear_773_2966)"/>
<path opacity="0.37" d="M52.1831 47.2434C51.946 47.5924 33.9852 57.9823 33.7195 57.9823C33.6618 57.9823 33.6584 54.7583 33.7783 54.6387C34.3478 54.0688 49.2174 45.779 49.4902 45.7022C49.893 45.5886 52.4233 46.8891 52.1831 47.2434Z" fill="url(#paint22_linear_773_2966)"/>
<path opacity="0.37" d="M19.3604 43.8605C18.3099 37.8987 18.8955 37.5229 26.2907 35.0046C33.6859 32.4862 46.1961 25.9931 47.2941 28.8122C48.3921 31.6313 48.0155 43.6264 47.7661 44.2825C47.5167 44.9386 34.6024 52.3599 33.5361 52.3774C32.4696 52.3948 19.4784 44.5301 19.3604 43.8605Z" fill="#ED8A1D"/>
<path opacity="0.4" d="M48.0722 23.0656C47.8113 23.0024 34.3861 15.2432 33.6282 15.3009C32.9094 15.3554 23.5545 19.7304 19.7193 23.0363C18.6965 23.9177 19.0702 37.0813 20.0143 36.8387C20.9584 36.5964 21.6617 31.2765 32.0511 28.2877C42.2814 25.3445 46.7316 27.8909 47.8414 28.3467C48.1553 28.4755 48.6662 23.2094 48.0722 23.0656Z" fill="#FFDF66"/>
<path opacity="0.5" d="M17.5 45.1143V22.2354L33.5363 12.9769L49.5725 22.2354V45.1143L48.3925 44.433C48.3925 44.433 48.4641 24.5452 48.0363 23.9214C46.5109 21.6957 34.6479 16.2843 32.7008 16.8867C30.7088 17.5029 20.1607 21.9939 18.9806 23.882C18.5833 24.5177 18.6803 44.433 18.6803 44.433L17.5 45.1143Z" fill="#DE5634"/>
<path opacity="0.4" d="M36.5319 25.3589C40.5274 27.1802 46.5458 27.2119 47.0965 26.8647C47.6472 26.5175 48.0136 23.9535 47.1482 23.5208C46.2828 23.0881 39.426 19.4369 37.6165 19.8302C35.8071 20.2236 35.8254 25.0368 36.5319 25.3589Z" fill="#FFDF66"/>
<path opacity="0.8" d="M13.959 28.4069C13.959 28.3466 14.1281 20.8013 14.4478 20.2629C14.7675 19.7245 33.1141 9.5505 33.6475 9.406C34.1811 9.2615 41.0534 13.2293 41.0534 13.2293L33.5355 8.88885L13.959 20.1916V28.4069Z" fill="#700000"/>
<path d="M40.5439 17.0222C40.5439 17.0222 49.1439 21.9152 49.2619 22.4659C49.3799 23.0166 49.5732 37.8024 49.5732 37.8024C49.5732 37.8024 49.6545 22.8658 49.5732 22.2354C49.4919 21.6047 40.5439 17.0222 40.5439 17.0222Z" fill="white"/>
<path d="M17.499 34.7736C17.499 34.7736 17.2134 22.4048 17.3585 22.0036C17.5035 21.6024 33.5353 12.9766 33.5353 12.9766C33.5353 12.9766 18.055 21.8266 17.7364 22.387C17.4175 22.9477 17.499 34.7736 17.499 34.7736Z" fill="white"/>
<path opacity="0.8" d="M13.959 47.1585L33.5355 58.4612L53.112 47.1585V41.0162C53.112 41.0162 52.9481 46.3786 52.5482 47.0468C52.1483 47.715 34.6128 57.9134 33.7191 57.9823C32.8256 58.0513 14.898 47.4008 14.4284 46.6927C13.959 45.9847 13.959 33.4166 13.959 33.4166V47.1585Z" fill="#700000"/>
<path opacity="0.4" d="M17.4997 39.2582C17.4997 39.2582 17.4441 44.5349 17.7368 44.9778C18.0294 45.4207 25.6362 49.8125 25.6362 49.8125C25.6362 49.8125 17.3948 45.5521 17.318 45.2767C17.2411 45.0014 17.4997 39.2582 17.4997 39.2582Z" fill="#FFDF66"/>
<path opacity="0.4" d="M24.1216 49.9186C23.5436 49.9202 21.9245 50.5684 22.2746 50.9513C22.5571 51.2602 32.261 57.1447 33.3619 57.5494C33.7212 57.6813 33.6865 55.3874 33.2048 54.6463C32.9984 54.329 25.9119 49.9141 24.1216 49.9186Z" fill="#FFDF66"/>
<path d="M42.1433 14.4004C41.825 14.4864 42.8896 15.8264 43.396 15.9463C43.9024 16.0661 44.5955 15.7063 44.3556 15.4598C44.1156 15.2133 42.6363 14.2671 42.1433 14.4004Z" fill="white"/>
<path d="M44.5002 15.7291C44.0177 15.8581 44.908 17.9752 45.289 18.3518C45.6701 18.7284 49.0554 19.3882 48.9777 18.7782C48.8998 18.1679 45.1781 15.5476 44.5002 15.7291Z" fill="white"/>
<path opacity="0.5" d="M42.5638 49.9713C42.1421 51.8127 42.2098 52.8982 42.4458 52.91C42.6818 52.9215 51.2424 47.7695 51.4761 47.5429C51.7095 47.3163 50.1038 45.8375 49.4427 45.9387C48.7818 46.04 42.7214 49.2831 42.5638 49.9713Z" fill="#DE5634"/>
<path opacity="0.5" d="M18.5381 22.7609C18.3315 22.1407 17.6984 22.1443 17.6408 22.8359C17.5831 23.5274 17.4842 36.3472 17.7357 36.3669C17.9872 36.3865 18.5182 35.7572 18.5379 35.4621C18.5576 35.1671 18.6365 23.0559 18.5381 22.7609Z" fill="#DE5634"/>
<path opacity="0.5" d="M48.5332 22.8396C48.4993 23.0838 48.3758 35.1866 48.5332 35.1866C48.6905 35.1866 49.3985 34.6162 49.3985 34.3212C49.3985 34.0262 49.2215 22.5837 49.1428 22.5247C49.0642 22.4659 48.5604 22.6421 48.5332 22.8396Z" fill="#DE5634"/>
<path opacity="0.5" d="M33.5349 14.1411C33.5349 14.379 26.6363 18.3158 26.4743 18.3158C26.3119 18.3158 26.371 17.2537 26.5923 17.1061C26.8136 16.9584 33.4855 12.9461 33.5349 13.079C33.5842 13.2117 33.5349 13.9431 33.5349 14.1411Z" fill="#DE5634"/>
<path d="M47.7738 46.0326C47.3335 46.0158 45.8452 46.8809 45.9583 47.3042C46.071 47.7275 46.9821 48.1843 47.2238 47.9394C47.4656 47.6944 48.062 46.0436 47.7738 46.0326Z" fill="#B33114"/>
<path d="M48.3403 46.33C48.189 46.4696 47.8588 46.9655 48.173 47.2075C48.4872 47.4498 49.4118 46.811 49.2752 46.6232C49.1388 46.4355 48.536 46.1496 48.3403 46.33Z" fill="#B33114"/>
<path opacity="0.5" d="M46.1765 46.8795C45.8096 47.3764 47.3144 47.7066 47.5105 47.2883C47.7067 46.87 48.0209 45.9889 47.7741 46.0327C47.5273 46.0765 46.3766 46.6083 46.1765 46.8795Z" fill="#DE5634"/>
<path d="M45.965 47.1825C45.965 47.1825 46.0877 47.6058 46.5338 47.8675C46.8844 48.0731 47.1862 48.0269 47.2751 47.8746C47.2751 47.8746 47.0013 48.2315 46.5453 48.0188C45.8315 47.6855 45.965 47.1825 45.965 47.1825Z" fill="#DAE1EF"/>
<path opacity="0.5" d="M48.5096 46.3432C48.1698 46.7093 48.4339 47.2371 48.6248 47.2075C48.8157 47.1779 49.3845 46.8018 49.2775 46.6232C49.1705 46.4446 48.5839 46.2632 48.5096 46.3432Z" fill="#DE5634"/>
<path d="M48.3403 46.33C48.3403 46.33 48.0277 46.7593 48.1533 47.0066C48.2787 47.2539 48.456 47.2529 48.456 47.2529C48.456 47.2529 48.0521 47.4878 47.9776 47.2122C47.8486 46.7354 48.3403 46.33 48.3403 46.33Z" fill="#DAE1EF"/>
<path d="M31.521 14.0075C30.4665 13.729 29.6143 14.4121 29.1519 14.9371C28.6896 15.4621 28.9474 15.7742 29.5287 15.6709C30.1099 15.567 31.9655 14.1247 31.521 14.0075Z" fill="#B33114"/>
<path opacity="0.5" d="M31.5196 14.0075C30.8063 13.7641 29.9039 14.2367 29.6205 14.4882C29.337 14.7396 29.8942 15.4527 30.2781 15.3006C30.6621 15.1485 31.8445 14.1184 31.5196 14.0075Z" fill="#DE5634"/>
<path d="M29.417 14.6645C29.417 14.6645 28.2254 15.4449 28.3591 15.832C28.4928 16.2188 29.9213 15.5134 29.9213 15.5134C29.9213 15.5134 29.1805 15.7549 29.0129 15.4263C28.8448 15.0972 29.417 14.6645 29.417 14.6645Z" fill="white"/>
<path opacity="0.4" d="M18.1829 45.2714C17.6217 45.4117 19.2848 46.5537 19.6782 46.6127C20.0715 46.6717 19.6837 45.67 19.493 45.4977C19.353 45.3713 18.4976 45.1927 18.1829 45.2714Z" fill="#FFDF66"/>
<path d="M33.5193 46.3723L13.3102 34.5862C12.529 36.3671 12.3457 38.0384 12.3457 38.0384L13.6643 40.2672L33.519 51.7989L53.3738 40.2672L54.5696 38.0384C54.5696 38.0384 54.572 36.3671 53.8458 34.5862L33.5193 46.3723Z" fill="url(#paint23_linear_773_2966)"/>
<path d="M13.6643 40.2675L12.3457 38.0384L33.5193 50.4423L54.5699 38.0384L53.374 40.2675L33.5193 51.7991L13.6643 40.2675Z" fill="url(#paint24_linear_773_2966)"/>
<path opacity="0.5" d="M12.3457 38.0384L13.6643 40.2672L13.9651 40.4526L13.9582 41.1163C13.9582 41.1163 15.0911 41.6938 17.3168 42.9227C17.3923 42.9644 18.715 44.3616 18.715 44.3616C18.715 44.3616 33.0179 53.0102 33.5348 53.0102C34.2019 53.0102 48.3917 44.1704 48.3917 44.1704C48.3917 44.1704 49.4968 43.2424 49.6069 43.1776L53.111 41.3427V40.4201L53.374 40.2675L54.5699 38.0387L33.5193 50.4412L12.3457 38.0384Z" fill="#DE5634"/>
<path opacity="0.69" d="M33.5195 46.3723V50.4423L54.5701 38.0384C54.5701 38.0384 54.4859 35.9979 53.8463 34.5862L33.5195 46.3723Z" fill="url(#paint25_linear_773_2966)"/>
<path opacity="0.4" d="M14.3516 35.4805C13.965 35.4805 14.2818 38.9028 15.4564 39.6895C17.322 40.9391 28.569 47.5687 29.3056 47.5765C29.8146 47.582 29.7878 44.6748 29.635 44.4493C29.3454 44.0223 14.9285 35.4805 14.3516 35.4805Z" fill="#FFDF66"/>
<path opacity="0.4" d="M39.7694 42.8561C39.525 43.1084 39.5585 46.307 39.9758 46.2118C40.3932 46.1166 46.7502 42.7219 49.7482 40.5209C52.7461 38.3198 53.1691 35.4173 52.4943 35.4816C52.4943 35.4816 40.271 42.3385 39.7694 42.8561Z" fill="#FFDF66"/>
<path d="M23.2236 44.4106C23.2236 44.4106 32.9 50.2133 33.5197 50.2133C34.1394 50.2133 41.8647 45.5247 41.8647 45.5247C41.8647 45.5247 33.756 50.6657 33.5352 50.6657C33.3634 50.6654 23.2236 44.4106 23.2236 44.4106Z" fill="white"/>
<path d="M33.5193 39.772L13.3102 27.986C12.529 29.7669 12.3457 31.4381 12.3457 31.4381L13.6643 33.667L33.519 45.1986L53.3738 33.667L54.5696 31.4381C54.5696 31.4381 54.572 29.7669 53.8458 27.986L33.5193 39.772Z" fill="url(#paint26_linear_773_2966)"/>
<path d="M13.6643 33.6669L12.3457 31.4381L33.5193 43.8417L54.5699 31.4381L53.374 33.6669L33.5193 45.1986L13.6643 33.6669Z" fill="url(#paint27_linear_773_2966)"/>
<path opacity="0.5" d="M12.3457 31.4381L13.6643 33.6669L13.9651 33.8523L13.9582 34.5161C13.9582 34.5161 15.0911 35.0933 17.3168 36.3224C17.3923 36.3641 18.715 37.7613 18.715 37.7613C18.715 37.7613 33.0179 46.4099 33.5348 46.4099C34.2019 46.4099 48.3917 37.5702 48.3917 37.5702C48.3917 37.5702 49.4968 36.6421 49.6069 36.5773L53.111 34.7424V33.8198L53.374 33.6672L54.5699 31.4384L33.5193 43.8409L12.3457 31.4381Z" fill="#DE5634"/>
<path opacity="0.69" d="M33.5195 39.772V43.842L54.5701 31.4381C54.5701 31.4381 54.4859 29.3976 53.8463 27.986L33.5195 39.772Z" fill="url(#paint28_linear_773_2966)"/>
<path opacity="0.4" d="M14.3516 28.8801C13.965 28.8801 14.2818 32.3024 15.4564 33.0891C17.322 34.3387 28.569 40.9683 29.3056 40.9761C29.8146 40.9816 29.7878 38.0744 29.635 37.8489C29.3454 37.4217 14.9285 28.8801 14.3516 28.8801Z" fill="#FFDF66"/>
<path opacity="0.4" d="M39.7694 36.2557C39.525 36.508 39.5585 39.7066 39.9758 39.6114C40.3932 39.5162 46.7502 36.1217 49.7482 33.9205C52.7461 31.7194 53.1691 28.8169 52.4943 28.8812C52.4943 28.8812 40.271 35.7378 39.7694 36.2557Z" fill="#FFDF66"/>
<path d="M23.2236 37.8101C23.2236 37.8101 32.9 43.6128 33.5197 43.6128C34.1394 43.6128 41.8647 38.9241 41.8647 38.9241C41.8647 38.9241 33.756 44.0652 33.5352 44.0652C33.3634 44.0652 23.2236 37.8101 23.2236 37.8101Z" fill="white"/>
<path d="M33.5193 33.1411L13.3102 21.3551C12.529 23.136 12.3457 24.8073 12.3457 24.8073L13.6643 27.0361L33.519 38.5677L53.3738 27.0361L54.5696 24.8073C54.5696 24.8073 54.572 23.136 53.8458 21.3551L33.5193 33.1411Z" fill="url(#paint29_linear_773_2966)"/>
<path d="M13.6643 27.0361L12.3457 24.8073L33.5193 37.2111L54.5699 24.8073L53.374 27.0361L33.5193 38.5677L13.6643 27.0361Z" fill="url(#paint30_linear_773_2966)"/>
<path opacity="0.5" d="M12.3457 24.8073L13.6643 27.0361L13.9651 27.2215L13.9582 27.8852C13.9582 27.8852 15.0911 28.4627 17.3168 29.6915C17.3923 29.7332 18.715 31.1305 18.715 31.1305C18.715 31.1305 33.0179 39.779 33.5348 39.779C34.2019 39.779 48.3917 30.9393 48.3917 30.9393C48.3917 30.9393 49.4968 30.0112 49.6069 29.9464L53.111 28.1115V27.1887L53.374 27.0361L54.5699 24.8073L33.5193 37.2098L12.3457 24.8073Z" fill="#DE5634"/>
<path opacity="0.69" d="M33.5195 33.1411V37.2112L54.5701 24.8073C54.5701 24.8073 54.4859 22.7668 53.8463 21.3551L33.5195 33.1411Z" fill="url(#paint31_linear_773_2966)"/>
<path opacity="0.4" d="M14.3516 22.2493C13.965 22.2493 14.2818 25.6716 15.4564 26.4583C17.322 27.7079 28.569 34.3374 29.3056 34.3453C29.8146 34.3508 29.7878 31.4435 29.635 31.218C29.3454 30.7908 14.9285 22.2493 14.3516 22.2493Z" fill="#FFDF66"/>
<path opacity="0.4" d="M39.7694 29.6249C39.525 29.8772 39.5585 33.0757 39.9758 32.9806C40.3932 32.8854 46.7502 29.4909 49.7482 27.2896C52.7461 25.0886 53.1691 22.1861 52.4943 22.2503C52.4943 22.2503 40.271 29.1069 39.7694 29.6249Z" fill="#FFDF66"/>
<path d="M23.2236 31.1793C23.2236 31.1793 32.9 36.9819 33.5197 36.9819C34.1394 36.9819 41.8647 32.2933 41.8647 32.2933C41.8647 32.2933 33.756 37.4343 33.5352 37.4343C33.3634 37.4343 23.2236 31.1793 23.2236 31.1793Z" fill="white"/>
<path opacity="0.5" d="M33.3485 27.6365L29.0079 29.9186L29.8369 25.0851L26.3252 21.6621L31.1782 20.9569L33.3485 16.5593L35.5188 20.9569L40.3716 21.6621L36.8602 25.0851L37.6891 29.9186L33.3485 27.6365Z" fill="#DE5634"/>
<path d="M39.8651 21.8267L37.5232 21.4866L36.8834 21.3935L35.3626 21.1727L33.3492 17.0927L31.3357 21.1727L26.833 21.8267L30.0911 25.0028L29.322 29.4872L33.3492 27.3698L37.3762 29.4872L36.6073 25.0028L39.8651 21.8267Z" fill="url(#paint32_linear_773_2966)"/>
<path opacity="0.37" d="M26.8105 21.8268L33.4434 23.561L30.0686 25.0028L26.8105 21.8268Z" fill="url(#paint33_linear_773_2966)"/>
<path opacity="0.37" d="M39.8435 21.8268L33.4443 23.561L36.5857 25.0028L39.8435 21.8268Z" fill="url(#paint34_linear_773_2966)"/>
<path opacity="0.37" d="M33.326 27.3697L33.4428 23.5609L29.2988 29.4871L33.326 27.3697Z" fill="url(#paint35_linear_773_2966)"/>
<path opacity="0.37" d="M37.3524 29.4871L33.4419 23.5609L33.3252 27.3697L37.3524 29.4871Z" fill="url(#paint36_linear_773_2966)"/>
<path opacity="0.5" d="M33.3252 17.0927L33.4419 23.561L35.3387 21.1727L33.3252 17.0927Z" fill="url(#paint37_linear_773_2966)"/>
<path opacity="0.5" d="M39.8435 21.8268L33.4443 23.561L35.3411 21.1728L39.8435 21.8268Z" fill="url(#paint38_linear_773_2966)"/>
<path opacity="0.5" d="M39.8435 21.8268L33.4443 23.561L35.3411 21.1728L39.8435 21.8268Z" fill="url(#paint39_linear_773_2966)"/>
<path opacity="0.5" d="M31.3132 21.1728L33.4434 23.561L26.8105 21.8268L31.3132 21.1728Z" fill="url(#paint40_linear_773_2966)"/>
<path d="M35.3403 22.5917C35.0057 22.8747 35.2913 23.0601 35.2913 23.0601L37.0152 22.593C37.0152 22.593 36.1139 21.9374 35.3403 22.5917Z" fill="white"/>
<path opacity="0.5" d="M29.3213 29.4872C29.3213 29.4872 32.3758 28.0483 33.3485 27.6476L37.3757 29.4872L33.3485 27.3701L29.3213 29.4872Z" fill="#DE5634"/>
<path opacity="0.5" d="M26.8105 21.8268L33.4434 23.561L29.8017 26.6943L26.8105 21.8268Z" fill="#DE5634"/>
<path opacity="0.5" d="M39.8435 21.8268L33.4443 23.561L36.9704 27.1115L39.8435 21.8268Z" fill="#DE5634"/>
<path opacity="0.5" d="M29.3213 29.4872L33.4421 23.561L37.3755 29.4872L33.3485 28.851L29.3213 29.4872Z" fill="#DE5634"/>
<path opacity="0.4" d="M31.8486 20.467C31.4204 21.6549 33.0521 22.4841 33.2718 22.1188C33.4916 21.7535 33.3521 19.7135 33.0765 19.4379C32.8008 19.1623 32.0238 19.9808 31.8486 20.467Z" fill="#F7FFFF"/>
<path opacity="0.4" d="M30.5143 26.5522C31.3815 26.6697 31.8672 25.6823 32.0497 25.0029C32.3439 23.908 28.9377 26.3385 30.5143 26.5522Z" fill="#F7FFFF"/>
<defs>
<linearGradient id="paint0_linear_773_2966" x1="52.7836" y1="36.7574" x2="52.7832" y2="27.0736" gradientUnits="userSpaceOnUse">
<stop stop-color="#CA6B34"/>
<stop offset="0.6667" stop-color="#FFA933"/>
<stop offset="1" stop-color="#FFBD2B"/>
</linearGradient>
<linearGradient id="paint1_linear_773_2966" x1="14.1334" y1="36.7574" x2="14.1338" y2="27.0736" gradientUnits="userSpaceOnUse">
<stop stop-color="#CA6B34"/>
<stop offset="0.6667" stop-color="#FFA933"/>
<stop offset="1" stop-color="#FFBD2B"/>
</linearGradient>
<linearGradient id="paint2_linear_773_2966" x1="18.3975" y1="58.817" x2="31.2698" y2="58.817" gradientUnits="userSpaceOnUse">
<stop stop-color="#DE3C14"/>
<stop offset="0.0737" stop-color="#C72E10"/>
<stop offset="0.1852" stop-color="#AB1C0C"/>
<stop offset="0.2972" stop-color="#971009"/>
<stop offset="0.409" stop-color="#8B0807"/>
<stop offset="0.5205" stop-color="#870606"/>
<stop offset="0.6152" stop-color="#8C0707"/>
<stop offset="0.727" stop-color="#9A0808"/>
<stop offset="0.8475" stop-color="#B20B0B"/>
<stop offset="0.9732" stop-color="#D30E0E"/>
<stop offset="1" stop-color="#DB0F0F"/>
</linearGradient>
<linearGradient id="paint3_linear_773_2966" x1="35.6465" y1="58.817" x2="48.5188" y2="58.817" gradientUnits="userSpaceOnUse">
<stop stop-color="#DE3C14"/>
<stop offset="0.0737" stop-color="#C72E10"/>
<stop offset="0.1852" stop-color="#AB1C0C"/>
<stop offset="0.2972" stop-color="#971009"/>
<stop offset="0.409" stop-color="#8B0807"/>
<stop offset="0.5205" stop-color="#870606"/>
<stop offset="0.6152" stop-color="#8C0707"/>
<stop offset="0.727" stop-color="#9A0808"/>
<stop offset="0.8475" stop-color="#B20B0B"/>
<stop offset="0.9732" stop-color="#D30E0E"/>
<stop offset="1" stop-color="#DB0F0F"/>
</linearGradient>
<linearGradient id="paint4_linear_773_2966" x1="18.3975" y1="58.8169" x2="31.2698" y2="58.8169" gradientUnits="userSpaceOnUse">
<stop stop-color="#B41E2D"/>
<stop offset="1" stop-color="#E54136"/>
</linearGradient>
<linearGradient id="paint5_linear_773_2966" x1="35.6462" y1="58.817" x2="48.5186" y2="58.817" gradientUnits="userSpaceOnUse">
<stop stop-color="#B41E2D"/>
<stop offset="1" stop-color="#E54136"/>
</linearGradient>
<linearGradient id="paint6_linear_773_2966" x1="22.0284" y1="25.6599" x2="22.0284" y2="8.75313" gradientUnits="userSpaceOnUse">
<stop stop-color="#CA6B34"/>
<stop offset="0.6667" stop-color="#FFA933"/>
<stop offset="1" stop-color="#FFBD2B"/>
</linearGradient>
<linearGradient id="paint7_linear_773_2966" x1="20.1563" y1="20.3682" x2="20.1563" y2="4.43662" gradientUnits="userSpaceOnUse">
<stop stop-color="#CA6B34"/>
<stop offset="0.6667" stop-color="#FFA933"/>
<stop offset="1" stop-color="#FFBD2B"/>
</linearGradient>
<linearGradient id="paint8_linear_773_2966" x1="22.2467" y1="14.7502" x2="22.2467" y2="24.7765" gradientUnits="userSpaceOnUse">
<stop stop-color="#C10065"/>
<stop offset="1" stop-color="white"/>
</linearGradient>
<linearGradient id="paint9_linear_773_2966" x1="44.8522" y1="25.6599" x2="44.8522" y2="8.75313" gradientUnits="userSpaceOnUse">
<stop stop-color="#CA6B34"/>
<stop offset="0.6667" stop-color="#FFA933"/>
<stop offset="1" stop-color="#FFBD2B"/>
</linearGradient>
<linearGradient id="paint10_linear_773_2966" x1="46.7606" y1="20.3682" x2="46.7606" y2="4.43662" gradientUnits="userSpaceOnUse">
<stop stop-color="#CA6B34"/>
<stop offset="0.6667" stop-color="#FFA933"/>
<stop offset="1" stop-color="#FFBD2B"/>
</linearGradient>
<linearGradient id="paint11_linear_773_2966" x1="44.6689" y1="14.7502" x2="44.6689" y2="24.7765" gradientUnits="userSpaceOnUse">
<stop stop-color="#C10065"/>
<stop offset="1" stop-color="white"/>
</linearGradient>
<linearGradient id="paint12_linear_773_2966" x1="9.43318" y1="44.6273" x2="9.43318" y2="33.9357" gradientUnits="userSpaceOnUse">
<stop stop-color="#CA6B34"/>
<stop offset="0.6667" stop-color="#FFA933"/>
<stop offset="1" stop-color="#FFBD2B"/>
</linearGradient>
<linearGradient id="paint13_linear_773_2966" x1="10.6771" y1="38.8756" x2="10.6771" y2="43.8659" gradientUnits="userSpaceOnUse">
<stop stop-color="#C10065"/>
<stop offset="1" stop-color="white"/>
</linearGradient>
<linearGradient id="paint14_linear_773_2966" x1="57.482" y1="44.6275" x2="57.482" y2="33.9359" gradientUnits="userSpaceOnUse">
<stop stop-color="#CA6B34"/>
<stop offset="0.6667" stop-color="#FFA933"/>
<stop offset="1" stop-color="#FFBD2B"/>
</linearGradient>
<linearGradient id="paint15_linear_773_2966" x1="56.2388" y1="38.8756" x2="56.2388" y2="43.8659" gradientUnits="userSpaceOnUse">
<stop stop-color="#C10065"/>
<stop offset="1" stop-color="white"/>
</linearGradient>
<linearGradient id="paint16_linear_773_2966" x1="33.5354" y1="59.3124" x2="33.5354" y2="16.8043" gradientUnits="userSpaceOnUse">
<stop stop-color="#CA6B34"/>
<stop offset="0.6667" stop-color="#FFA933"/>
<stop offset="1" stop-color="#FFBD2B"/>
</linearGradient>
<linearGradient id="paint17_linear_773_2966" x1="33.5361" y1="9.32911" x2="33.5361" y2="52.0575" gradientUnits="userSpaceOnUse">
<stop stop-color="#CA6B34"/>
<stop offset="0.1742" stop-color="#CC6E34"/>
<stop offset="0.2919" stop-color="#D27733"/>
<stop offset="0.3931" stop-color="#DB8631"/>
<stop offset="0.4848" stop-color="#E99B2F"/>
<stop offset="0.5694" stop-color="#FBB72C"/>
<stop offset="0.5853" stop-color="#FFBD2B"/>
<stop offset="1" stop-color="#FFA933"/>
</linearGradient>
<linearGradient id="paint18_linear_773_2966" x1="33.5358" y1="53.0104" x2="33.5358" y2="14.3395" gradientUnits="userSpaceOnUse">
<stop stop-color="#B75014"/>
<stop offset="0.375" stop-color="#E8692A"/>
<stop offset="1" stop-color="#F58E2F"/>
</linearGradient>
<linearGradient id="paint19_linear_773_2966" x1="15.7111" y1="35.0338" x2="15.7111" y2="46.6957" gradientUnits="userSpaceOnUse">
<stop stop-color="#C10065"/>
<stop offset="1" stop-color="white"/>
</linearGradient>
<linearGradient id="paint20_linear_773_2966" x1="51.2832" y1="35.0338" x2="51.2832" y2="46.6957" gradientUnits="userSpaceOnUse">
<stop stop-color="#C10065"/>
<stop offset="1" stop-color="white"/>
</linearGradient>
<linearGradient id="paint21_linear_773_2966" x1="24.1326" y1="45.6936" x2="24.1326" y2="57.7445" gradientUnits="userSpaceOnUse">
<stop stop-color="#C10065"/>
<stop offset="1" stop-color="white"/>
</linearGradient>
<linearGradient id="paint22_linear_773_2966" x1="42.9399" y1="45.6951" x2="42.9399" y2="57.9822" gradientUnits="userSpaceOnUse">
<stop stop-color="#C10065"/>
<stop offset="1" stop-color="white"/>
</linearGradient>
<linearGradient id="paint23_linear_773_2966" x1="33.4578" y1="15.0886" x2="33.4578" y2="45.897" gradientUnits="userSpaceOnUse">
<stop stop-color="#CA6B34"/>
<stop offset="0.6667" stop-color="#FFA933"/>
<stop offset="1" stop-color="#FFBD2B"/>
</linearGradient>
<linearGradient id="paint24_linear_773_2966" x1="33.4578" y1="51.799" x2="33.4578" y2="38.0385" gradientUnits="userSpaceOnUse">
<stop stop-color="#F1CB3C"/>
<stop offset="1" stop-color="#FFC14F"/>
</linearGradient>
<linearGradient id="paint25_linear_773_2966" x1="44.0448" y1="34.5863" x2="44.0448" y2="50.4424" gradientUnits="userSpaceOnUse">
<stop stop-color="#C10065"/>
<stop offset="1" stop-color="white"/>
</linearGradient>
<linearGradient id="paint26_linear_773_2966" x1="33.4578" y1="10.6122" x2="33.4578" y2="41.4205" gradientUnits="userSpaceOnUse">
<stop stop-color="#CA6B34"/>
<stop offset="0.6667" stop-color="#FFA933"/>
<stop offset="1" stop-color="#FFBD2B"/>
</linearGradient>
<linearGradient id="paint27_linear_773_2966" x1="33.4578" y1="45.1985" x2="33.4578" y2="31.438" gradientUnits="userSpaceOnUse">
<stop stop-color="#F1CB3C"/>
<stop offset="1" stop-color="#FFC14F"/>
</linearGradient>
<linearGradient id="paint28_linear_773_2966" x1="44.0448" y1="27.9859" x2="44.0448" y2="43.8419" gradientUnits="userSpaceOnUse">
<stop stop-color="#C10065"/>
<stop offset="1" stop-color="white"/>
</linearGradient>
<linearGradient id="paint29_linear_773_2966" x1="33.4578" y1="3.27335" x2="33.4578" y2="34.0817" gradientUnits="userSpaceOnUse">
<stop stop-color="#CA6B34"/>
<stop offset="0.6667" stop-color="#FFA933"/>
<stop offset="1" stop-color="#FFBD2B"/>
</linearGradient>
<linearGradient id="paint30_linear_773_2966" x1="33.4578" y1="38.5677" x2="33.4578" y2="24.8071" gradientUnits="userSpaceOnUse">
<stop stop-color="#F1CB3C"/>
<stop offset="1" stop-color="#FFC14F"/>
</linearGradient>
<linearGradient id="paint31_linear_773_2966" x1="44.0448" y1="21.355" x2="44.0448" y2="37.211" gradientUnits="userSpaceOnUse">
<stop stop-color="#C10065"/>
<stop offset="1" stop-color="white"/>
</linearGradient>
<linearGradient id="paint32_linear_773_2966" x1="33.3491" y1="29.7201" x2="33.3491" y2="14.9904" gradientUnits="userSpaceOnUse">
<stop stop-color="#CA6B34"/>
<stop offset="0.6667" stop-color="#FFA933"/>
<stop offset="1" stop-color="#FFBD2B"/>
</linearGradient>
<linearGradient id="paint33_linear_773_2966" x1="30.1269" y1="21.8269" x2="30.1269" y2="25.0027" gradientUnits="userSpaceOnUse">
<stop stop-color="#C10065"/>
<stop offset="1" stop-color="white"/>
</linearGradient>
<linearGradient id="paint34_linear_773_2966" x1="36.6439" y1="21.8269" x2="36.6439" y2="25.0027" gradientUnits="userSpaceOnUse">
<stop stop-color="#C10065"/>
<stop offset="1" stop-color="white"/>
</linearGradient>
<linearGradient id="paint35_linear_773_2966" x1="31.3708" y1="23.5609" x2="31.3708" y2="29.487" gradientUnits="userSpaceOnUse">
<stop stop-color="#C10065"/>
<stop offset="1" stop-color="white"/>
</linearGradient>
<linearGradient id="paint36_linear_773_2966" x1="35.3387" y1="23.5609" x2="35.3387" y2="29.487" gradientUnits="userSpaceOnUse">
<stop stop-color="#C10065"/>
<stop offset="1" stop-color="white"/>
</linearGradient>
<linearGradient id="paint37_linear_773_2966" x1="33.921" y1="18.0652" x2="34.8227" y2="26.3305" gradientUnits="userSpaceOnUse">
<stop stop-color="#BFD7FF"/>
<stop offset="1"/>
</linearGradient>
<linearGradient id="paint38_linear_773_2966" x1="33.4442" y1="22.3669" x2="39.8436" y2="22.3669" gradientUnits="userSpaceOnUse">
<stop stop-color="#BFD7FF"/>
<stop offset="1"/>
</linearGradient>
<linearGradient id="paint39_linear_773_2966" x1="36.1129" y1="17.8264" x2="37.0146" y2="26.0918" gradientUnits="userSpaceOnUse">
<stop stop-color="#BFD7FF"/>
<stop offset="1"/>
</linearGradient>
<linearGradient id="paint40_linear_773_2966" x1="29.6726" y1="18.5289" x2="30.5743" y2="26.7943" gradientUnits="userSpaceOnUse">
<stop stop-color="#BFD7FF"/>
<stop offset="1"/>
</linearGradient>
</defs>
</svg>
