<svg width="25" height="25" viewBox="0 0 25 25" fill="none" xmlns="http://www.w3.org/2000/svg">
<path d="M20.4355 10.1878L12.7195 2.30176C12.6265 2.20796 12.5158 2.13351 12.3939 2.0827C12.2719 2.0319 12.1411 2.00574 12.009 2.00574C11.8769 2.00574 11.7461 2.0319 11.6241 2.0827C11.5022 2.13351 11.3915 2.20796 11.2985 2.30176L3.58252 10.1978C3.39581 10.3861 3.24835 10.6095 3.14871 10.8552C3.04907 11.1008 2.99922 11.3638 3.00207 11.6289V20.0154C3.00129 20.5277 3.19699 21.0208 3.54886 21.3932C3.90074 21.7655 4.38199 21.9888 4.89352 22.0169H19.1245C19.636 21.9888 20.1173 21.7655 20.4691 21.3932C20.821 21.0208 21.0167 20.5277 21.0159 20.0154V11.6289C21.0167 11.0915 20.8086 10.5747 20.4355 10.1878ZM10.0075 20.0154V14.0108H14.0105V20.0154H10.0075ZM19.0144 20.0154H16.0121V13.01C16.0121 12.7446 15.9066 12.49 15.719 12.3024C15.5313 12.1147 15.2767 12.0092 15.0113 12.0092H9.00669C8.74127 12.0092 8.48672 12.1147 8.29904 12.3024C8.11136 12.49 8.00592 12.7446 8.00592 13.01V20.0154H5.00361V11.5889L12.009 4.4334L19.0144 11.6289V20.0154Z" fill="#FFA62B"/>
</svg>
