<svg width="150" height="130" viewBox="0 0 150 130" fill="none" xmlns="http://www.w3.org/2000/svg">
<path d="M134.97 99.547H125.034V99.622H134.97V99.547Z" fill="#EBEBEB"/>
<path d="M99.3658 100.363H96.7588V100.438H99.3658V100.363Z" fill="#EBEBEB"/>
<path d="M124.734 96.763H118.977V96.838H124.734V96.763Z" fill="#EBEBEB"/>
<path d="M28.6948 97.267H15.7378V97.342H28.6948V97.267Z" fill="#EBEBEB"/>
<path d="M33.2672 97.267H31.3682V97.342H33.2672V97.267Z" fill="#EBEBEB"/>
<path d="M67.5449 98.533H39.4409V98.608H67.5449V98.533Z" fill="#EBEBEB"/>
<path d="M150 94.72H0V94.795H150V94.72Z" fill="#EBEBEB"/>
<path d="M39.2042 15.532L41.3912 14.128L42.5852 16.438L45.1832 16.318L45.0632 18.916L47.3732 20.11L45.9692 22.297L47.3732 24.487L45.0632 25.681L45.1832 28.279L42.5852 28.159L41.3912 30.469L39.2042 29.065L37.0142 30.469L35.8202 28.159L33.2222 28.279L33.3422 25.681L31.0322 24.487L32.4362 22.297L31.0322 20.11L33.3422 18.916L33.2222 16.318L35.8202 16.438L37.0142 14.128L39.2042 15.532Z" fill="#E6E6E6"/>
<path d="M38.3732 25.639L35.7722 23.038C35.6295 22.8951 35.5493 22.7014 35.5493 22.4995C35.5493 22.2975 35.6295 22.1038 35.7722 21.961C35.9151 21.8183 36.1087 21.7381 36.3107 21.7381C36.5126 21.7381 36.7063 21.8183 36.8492 21.961L38.3732 23.485L41.5562 20.302C41.6991 20.1593 41.8927 20.0791 42.0947 20.0791C42.2966 20.0791 42.4903 20.1593 42.6332 20.302C42.7759 20.4448 42.8561 20.6385 42.8561 20.8405C42.8561 21.0424 42.7759 21.2361 42.6332 21.379L38.3732 25.639Z" fill="#FAFAFA"/>
<path d="M120.558 38.494L122.274 37.393L123.21 39.205L125.25 39.109L125.154 41.146L126.966 42.082L125.865 43.801L126.966 45.517L125.154 46.453L125.25 48.49L123.21 48.397L122.274 50.209L120.558 49.108L118.842 50.209L117.906 48.397L115.869 48.49L115.962 46.453L114.15 45.517L115.251 43.801L114.15 42.082L115.962 41.146L115.869 39.109L117.906 39.205L118.842 37.393L120.558 38.494Z" fill="#E6E6E6"/>
<path d="M119.907 46.42L117.867 44.38C117.756 44.2677 117.694 44.1163 117.694 43.9585C117.694 43.8007 117.756 43.6493 117.867 43.537C117.979 43.4253 118.131 43.3625 118.29 43.3625C118.448 43.3625 118.6 43.4253 118.713 43.537L119.913 44.737L122.409 42.241C122.521 42.1293 122.673 42.0665 122.832 42.0665C122.99 42.0665 123.142 42.1293 123.255 42.241C123.367 42.3534 123.429 42.5055 123.429 42.664C123.429 42.8225 123.367 42.9746 123.255 43.087L119.907 46.42Z" fill="#FAFAFA"/>
<path d="M39.4232 67.3L42.7682 69.007C43.0438 69.1465 43.3572 69.1926 43.6613 69.1385C43.9654 69.0844 44.2437 68.933 44.4542 68.707L47.0132 65.959C47.1615 65.8001 47.2711 65.6092 47.3335 65.4011C47.3959 65.193 47.4095 64.9732 47.3732 64.759L46.0442 57.211C45.9389 56.619 45.6031 56.093 45.1104 55.7482C44.6177 55.4035 44.0085 55.2682 43.4162 55.372L39.1802 56.119C38.8869 56.1708 38.6067 56.2799 38.3555 56.44C38.1044 56.6001 37.8872 56.8081 37.7164 57.0521C37.5457 57.2962 37.4246 57.5714 37.3602 57.8622C37.2959 58.1531 37.2894 58.4537 37.3412 58.747L38.6702 66.292C38.7102 66.5065 38.7989 66.7089 38.9294 66.8836C39.06 67.0584 39.2289 67.2008 39.4232 67.3ZM43.2332 66.7C43.3724 66.6748 43.5159 66.6914 43.6456 66.7479C43.7753 66.8043 43.8853 66.898 43.9616 67.017C44.038 67.1361 44.0773 67.2751 44.0745 67.4165C44.0717 67.5579 44.027 67.6953 43.9461 67.8113C43.8651 67.9272 43.7515 68.0166 43.6197 68.0679C43.488 68.1192 43.3439 68.1302 43.2058 68.0996C43.0678 68.0689 42.9419 67.9979 42.8442 67.8956C42.7466 67.7933 42.6815 67.6643 42.6572 67.525C42.6249 67.3393 42.6673 67.1484 42.7752 66.9938C42.8831 66.8393 43.0478 66.7336 43.2332 66.7Z" fill="#E6E6E6"/>
<path d="M39.5864 64.9608L46.0596 63.8195L45.9361 63.1193L39.463 64.2607L39.5864 64.9608Z" fill="#FAFAFA"/>
<path d="M38.4902 58.7386L44.9634 57.5972L44.8399 56.897L38.3668 58.0384L38.4902 58.7386Z" fill="#FAFAFA"/>
<path d="M50.8561 18.442L53.1601 20.914C53.3494 21.117 53.5996 21.2528 53.8729 21.301C54.1463 21.3491 54.4278 21.307 54.6751 21.181L57.6751 19.645C57.8516 19.5558 58.0048 19.4267 58.1225 19.2678C58.2402 19.109 58.3192 18.9248 58.3531 18.73L59.5531 11.944C59.6464 11.4118 59.5248 10.8643 59.2149 10.4216C58.905 9.97898 58.4322 9.67737 57.9001 9.58299L54.0931 8.91099C53.5601 8.81767 53.0118 8.93962 52.5686 9.25009C52.1254 9.56055 51.8235 10.0342 51.7291 10.567L50.5291 17.35C50.4947 17.5449 50.5063 17.7452 50.5631 17.9348C50.6199 18.1244 50.7202 18.2981 50.8561 18.442ZM54.2551 19.12C54.3804 19.1415 54.4964 19.1997 54.5885 19.2872C54.6807 19.3747 54.7448 19.4875 54.7728 19.6115C54.8007 19.7354 54.7913 19.8649 54.7456 19.9835C54.6999 20.102 54.6201 20.2044 54.5162 20.2776C54.4123 20.3508 54.2891 20.3915 54.1621 20.3945C54.035 20.3976 53.9099 20.3629 53.8026 20.2949C53.6953 20.2268 53.6106 20.1285 53.5593 20.0122C53.5079 19.896 53.4922 19.7672 53.5141 19.642C53.5434 19.4746 53.6379 19.3257 53.7768 19.2279C53.9157 19.13 54.0877 19.0912 54.2551 19.12Z" fill="#F0F0F0"/>
<path d="M51.7164 16.5201L57.5366 17.5464L57.6476 16.9171L51.8274 15.8908L51.7164 16.5201Z" fill="#FAFAFA"/>
<path d="M52.8708 11.2858L58.6626 12.2905L58.7712 11.6642L52.9794 10.6595L52.8708 11.2858Z" fill="#FAFAFA"/>
<path d="M106.614 11.125C106.188 10.5166 105.538 10.1023 104.807 9.97287C104.076 9.84349 103.323 10.0097 102.714 10.435L101.514 11.266L100.68 10.066C100.253 9.45895 99.6032 9.0456 98.8724 8.91631C98.1416 8.78701 97.3894 8.95228 96.78 9.37599C96.173 9.80293 95.7597 10.4528 95.6304 11.1836C95.5011 11.9144 95.6663 12.6667 96.09 13.276L100.143 19.063L105.933 15.01C106.535 14.5824 106.944 13.9347 107.072 13.2074C107.199 12.4801 107.035 11.7318 106.614 11.125Z" fill="#EBEBEB"/>
<path d="M114.936 11.665C114.833 11.5167 114.701 11.3903 114.549 11.2929C114.397 11.1955 114.227 11.1292 114.049 11.0977C113.871 11.0662 113.689 11.0702 113.513 11.1093C113.337 11.1485 113.17 11.2222 113.022 11.326L112.44 11.734L112.032 11.152C111.823 10.8538 111.504 10.6507 111.145 10.5871C110.786 10.5236 110.417 10.6048 110.118 10.813C109.82 11.0233 109.617 11.343 109.554 11.7022C109.491 12.0614 109.573 12.4309 109.782 12.73L111.765 15.562L114.6 13.579C114.748 13.4757 114.874 13.3441 114.971 13.1919C115.068 13.0396 115.134 12.8697 115.166 12.6918C115.197 12.514 115.193 12.3317 115.153 12.1555C115.114 11.9793 115.04 11.8126 114.936 11.665Z" fill="#EBEBEB"/>
<path d="M26.2082 39.208C24.272 39.764 22.6358 41.0661 21.6592 42.828C20.6827 44.5899 20.4456 46.6674 21.0002 48.604C21.7532 51.223 26.3462 55.612 29.4722 58.369C29.7928 58.6524 30.1797 58.8504 30.597 58.9449C31.0144 59.0393 31.4488 59.027 31.8601 58.9092C32.2715 58.7914 32.6466 58.5719 32.9507 58.2709C33.2548 57.9699 33.4782 57.5972 33.6002 57.187C34.8002 53.194 36.3572 47.035 35.6072 44.416C35.3323 43.4568 34.8711 42.5611 34.2498 41.7801C33.6286 40.9992 32.8596 40.3483 31.9868 39.8646C31.1139 39.381 30.1544 39.0741 29.1628 38.9614C28.1713 38.8487 27.1673 38.9325 26.2082 39.208ZM29.2682 49.879C28.6022 50.0705 27.8943 50.0601 27.2341 49.8492C26.5739 49.6382 25.9911 49.2363 25.5594 48.6942C25.1276 48.152 24.8664 47.494 24.8086 46.8034C24.7508 46.1127 24.8992 45.4205 25.2349 44.8142C25.5705 44.2078 26.0785 43.7147 26.6945 43.397C27.3104 43.0794 28.0068 42.9516 28.6954 43.0297C29.384 43.1078 30.034 43.3884 30.5632 43.8359C31.0924 44.2835 31.4769 44.8779 31.6682 45.544C31.9248 46.4371 31.816 47.3956 31.366 48.2085C30.9159 49.0215 30.1613 49.6224 29.2682 49.879Z" fill="#E0E0E0"/>
<path d="M27.3958 38.869C25.462 39.4269 23.8287 40.7294 22.8545 42.4905C21.8803 44.2516 21.6448 46.3274 22.1998 48.262C22.9528 50.881 27.5458 55.273 30.6718 58.03C30.9936 58.3125 31.3815 58.5093 31.7995 58.6022C32.2176 58.6951 32.6523 58.681 33.0634 58.5614C33.4746 58.4418 33.849 58.2205 34.152 57.9178C34.4549 57.6152 34.6767 57.2411 34.7968 56.83C35.9968 52.837 37.5538 46.681 36.8038 44.059C36.5274 43.1002 36.0647 42.2052 35.4421 41.4253C34.8195 40.6454 34.0494 39.9959 33.1756 39.5139C32.3018 39.0319 31.3416 38.7268 30.3499 38.6162C29.3581 38.5055 28.3543 38.5914 27.3958 38.869ZM30.4558 49.54C29.7892 49.732 29.0806 49.722 28.4196 49.5113C27.7587 49.3005 27.1751 48.8985 26.7427 48.356C26.3102 47.8135 26.0484 47.1549 25.9904 46.4636C25.9323 45.7723 26.0805 45.0793 26.4164 44.4723C26.7522 43.8653 27.2606 43.3715 27.8771 43.0534C28.4936 42.7353 29.1906 42.6072 29.8799 42.6853C30.5693 42.7635 31.2199 43.0443 31.7496 43.4922C32.2794 43.9402 32.6643 44.5352 32.8558 45.202C32.9833 45.6444 33.0223 46.1076 32.9706 46.5652C32.919 47.0227 32.7777 47.4655 32.5548 47.8684C32.3319 48.2713 32.0318 48.6263 31.6717 48.9131C31.3115 49.1999 30.8983 49.4129 30.4558 49.54Z" fill="#F5F5F5"/>
<path d="M114.873 19.9C114.038 19.6586 113.164 19.5845 112.3 19.6818C111.437 19.7791 110.601 20.0461 109.841 20.4672C109.081 20.8884 108.411 21.4555 107.871 22.1361C107.331 22.8166 106.93 23.5972 106.692 24.433C106.038 26.716 107.403 32.077 108.441 35.554C108.547 35.9122 108.741 36.2379 109.006 36.5009C109.272 36.7639 109.599 36.9556 109.958 37.0582C110.317 37.1609 110.697 37.1711 111.061 37.0881C111.425 37.005 111.762 36.8312 112.041 36.583C114.765 34.183 118.764 30.361 119.418 28.081C119.659 27.2454 119.733 26.3704 119.635 25.5062C119.537 24.6421 119.269 23.8059 118.846 23.0456C118.424 22.2854 117.856 21.6161 117.174 21.0763C116.492 20.5364 115.71 20.1367 114.873 19.9ZM112.2 29.2C111.62 29.0336 111.103 28.6992 110.713 28.239C110.324 27.7788 110.079 27.2134 110.011 26.6143C109.942 26.0152 110.053 25.4092 110.328 24.8729C110.604 24.3365 111.032 23.8939 111.559 23.6009C112.086 23.3078 112.688 23.1775 113.289 23.2265C113.89 23.2754 114.463 23.5013 114.936 23.8757C115.409 24.2501 115.76 24.7562 115.945 25.3301C116.131 25.904 116.142 26.5198 115.977 27.1C115.868 27.4862 115.683 27.847 115.434 28.1617C115.184 28.4765 114.875 28.7389 114.524 28.934C114.174 29.129 113.788 29.253 113.389 29.2986C112.99 29.3443 112.586 29.3107 112.2 29.2Z" fill="#E0E0E0"/>
<path d="M115.908 20.2C115.073 19.9586 114.199 19.8845 113.336 19.9818C112.472 20.0792 111.636 20.3461 110.876 20.7673C110.116 21.1884 109.447 21.7556 108.906 22.4361C108.366 23.1167 107.965 23.8972 107.727 24.733C107.073 27.013 108.438 32.377 109.476 35.854C109.582 36.2123 109.776 36.538 110.042 36.801C110.307 37.0639 110.634 37.2556 110.993 37.3583C111.352 37.4609 111.732 37.4712 112.096 37.3881C112.46 37.305 112.797 37.1313 113.076 36.883C115.797 34.483 119.796 30.661 120.45 28.381C120.691 27.5456 120.765 26.6708 120.667 25.8068C120.569 24.9428 120.302 24.1067 119.88 23.3465C119.458 22.5863 118.889 21.917 118.208 21.377C117.526 20.837 116.745 20.437 115.908 20.2ZM113.244 29.5C112.664 29.3342 112.147 29.0001 111.756 28.5401C111.366 28.0801 111.121 27.5147 111.052 26.9155C110.983 26.3163 111.093 25.7101 111.369 25.1735C111.644 24.6368 112.073 24.1939 112.6 23.9006C113.127 23.6073 113.729 23.4768 114.33 23.5257C114.931 23.5745 115.505 23.8004 115.978 24.1749C116.45 24.5494 116.802 25.0557 116.987 25.6297C117.172 26.2037 117.183 26.8198 117.018 27.4C116.796 28.179 116.274 28.8378 115.566 29.2316C114.858 29.6255 114.023 29.722 113.244 29.5Z" fill="#F5F5F5"/>
<path d="M56.5501 36.361H59.7601C59.9192 36.358 60.0771 36.3889 60.2234 36.4515C60.3697 36.514 60.5011 36.6069 60.6088 36.724C60.7165 36.8411 60.7982 36.9798 60.8484 37.1308C60.8987 37.2817 60.9163 37.4417 60.9001 37.6L60.3001 44.371C60.2657 44.708 60.1091 45.0207 59.8598 45.2501C59.6105 45.4795 59.2858 45.6097 58.9471 45.616H55.7401C55.5807 45.6186 55.4226 45.5873 55.2762 45.5242C55.1298 45.461 54.9985 45.3675 54.891 45.2498C54.7835 45.132 54.7022 44.9928 54.6526 44.8413C54.6029 44.6898 54.5861 44.5295 54.6031 44.371L55.2001 37.6C55.2358 37.2645 55.3926 36.9536 55.6412 36.7256C55.8897 36.4975 56.2129 36.3678 56.5501 36.361Z" fill="#407BFF"/>
<path opacity="0.2" d="M92.46 34.915H97.476C97.7251 34.9106 97.9722 34.9592 98.201 35.0577C98.4298 35.1561 98.635 35.3021 98.803 35.486C98.971 35.6699 99.0979 35.8874 99.1753 36.1242C99.2527 36.3609 99.2789 36.6114 99.252 36.859L98.634 43.93C98.5802 44.454 98.3373 44.9404 97.9508 45.2982C97.5643 45.656 97.0606 45.8607 96.534 45.874H91.5C91.2512 45.878 91.0045 45.8291 90.776 45.7304C90.5476 45.6318 90.3428 45.4857 90.1751 45.3019C90.0074 45.118 89.8808 44.9006 89.8035 44.6641C89.7263 44.4276 89.7002 44.1774 89.727 43.93L90.345 36.859C90.3992 36.3325 90.6442 35.8441 91.0339 35.4859C91.4235 35.1278 91.9309 34.9247 92.46 34.915Z" fill="black"/>
<path opacity="0.2" d="M91.4312 46.663H96.4502C96.699 46.659 96.9458 46.7079 97.1742 46.8066C97.4026 46.9052 97.6075 47.0513 97.7751 47.2351C97.9428 47.419 98.0695 47.6364 98.1467 47.8729C98.224 48.1094 98.2501 48.3596 98.2232 48.607L97.6052 55.678C97.5517 56.2047 97.3068 56.6935 96.917 57.0518C96.5272 57.4101 96.0196 57.613 95.4902 57.622H90.4742C90.2252 57.6264 89.9781 57.5778 89.7493 57.4794C89.5205 57.3809 89.3153 57.2349 89.1473 57.051C88.9793 56.8671 88.8524 56.6496 88.7749 56.4129C88.6975 56.1761 88.6714 55.9256 88.6982 55.678L89.3192 48.607C89.3727 48.0808 89.6171 47.5924 90.0063 47.2342C90.3955 46.876 90.9024 46.6728 91.4312 46.663Z" fill="black"/>
<path d="M65.5531 21.658H93.5011C94.4018 21.6419 95.2957 21.818 96.1231 22.1744C96.9506 22.5308 97.6926 23.0594 98.2997 23.725C98.9068 24.3907 99.3652 25.178 99.6442 26.0346C99.9233 26.8912 100.017 27.7975 99.9181 28.693L93.9541 96.844C93.7599 98.7485 92.8745 100.516 91.4654 101.812C90.0563 103.107 88.2211 103.842 86.3071 103.876H58.3591C57.4586 103.892 56.565 103.716 55.7378 103.36C54.9106 103.004 54.1687 102.475 53.5617 101.81C52.9546 101.145 52.4961 100.358 52.2169 99.5014C51.9376 98.6452 51.8439 97.7393 51.9421 96.844L57.9001 28.693C58.0936 26.787 58.9796 25.0181 60.39 23.7216C61.8005 22.425 63.6375 21.6908 65.5531 21.658Z" fill="#407BFF"/>
<path opacity="0.2" d="M65.5531 21.658H93.5011C94.4018 21.6419 95.2957 21.818 96.1231 22.1744C96.9506 22.5308 97.6926 23.0594 98.2997 23.725C98.9068 24.3907 99.3652 25.178 99.6442 26.0346C99.9233 26.8912 100.017 27.7975 99.9181 28.693L93.9541 96.844C93.7599 98.7485 92.8745 100.516 91.4654 101.812C90.0563 103.107 88.2211 103.842 86.3071 103.876H58.3591C57.4586 103.892 56.565 103.716 55.7378 103.36C54.9106 103.004 54.1687 102.475 53.5617 101.81C52.9546 101.145 52.4961 100.358 52.2169 99.5014C51.9376 98.6452 51.8439 97.7393 51.9421 96.844L57.9001 28.693C58.0936 26.787 58.9796 25.0181 60.39 23.7216C61.8005 22.425 63.6375 21.6908 65.5531 21.658Z" fill="black"/>
<path d="M64.65 21.6581H92.601C93.5017 21.6425 94.3953 21.8189 95.2225 22.1755C96.0497 22.5321 96.7915 23.0607 97.3985 23.7262C98.0056 24.3917 98.464 25.1788 98.7432 26.0352C99.0224 26.8917 99.1161 27.7977 99.018 28.6931L93.054 96.8441C92.8593 98.7484 91.9737 100.515 90.5647 101.811C89.1557 103.107 87.3209 103.841 85.407 103.876H57.459C56.5584 103.893 55.6646 103.717 54.8371 103.361C54.0097 103.005 53.2677 102.476 52.6605 101.811C52.0533 101.146 51.5949 100.359 51.3158 99.5021C51.0367 98.6456 50.9434 97.7395 51.042 96.8441L57 28.6931C57.342 24.8081 60.768 21.6581 64.65 21.6581Z" fill="#407BFF"/>
<path d="M98.1781 28.693L92.2171 96.841C92.0444 98.5181 91.2636 100.074 90.0223 101.215C88.7809 102.355 87.1648 103.002 85.4791 103.033H57.5311C56.738 103.048 55.9509 102.893 55.2222 102.579C54.4935 102.266 53.84 101.801 53.3052 101.215C52.7704 100.629 52.3666 99.9358 52.1207 99.1816C51.8748 98.4275 51.7925 97.6295 51.8791 96.841L57.8431 28.693C58.0151 27.0159 58.7951 25.4598 60.0359 24.3184C61.2768 23.1771 62.8925 22.5295 64.5781 22.498H92.5261C93.3194 22.4839 94.1066 22.6389 94.8352 22.9528C95.5639 23.2666 96.2174 23.7321 96.7521 24.3182C97.2869 24.9043 97.6906 25.5976 97.9365 26.352C98.1824 27.1063 98.2647 27.9044 98.1781 28.693Z" fill="white"/>
<g opacity="0.1">
<path d="M57.531 103.033H68.127L85.245 22.498H71.745L54.771 102.352C55.6207 102.803 56.5689 103.037 57.531 103.033Z" fill="black"/>
<path d="M91.7251 22.498H89.1571L72.0361 103.033H74.6071L91.7251 22.498Z" fill="black"/>
</g>
<path d="M70.3592 22.3C70.3331 22.5515 70.3603 22.8057 70.439 23.0461C70.5176 23.2864 70.6461 23.5074 70.8159 23.6948C70.9857 23.8822 71.1931 24.0317 71.4246 24.1335C71.656 24.2354 71.9064 24.2873 72.1592 24.286H84.6092C85.1489 24.2743 85.6658 24.0661 86.0629 23.7005C86.4601 23.3348 86.7101 22.8369 86.7662 22.3H70.3592Z" fill="#407BFF"/>
<path d="M92.0191 24.7H94.8451C94.8998 24.6997 94.9539 24.711 95.004 24.733C95.054 24.7549 95.0989 24.7872 95.1357 24.8277C95.1724 24.8681 95.2003 24.9159 95.2174 24.9678C95.2346 25.0197 95.2406 25.0746 95.2351 25.129L95.1271 26.359C95.1154 26.475 95.0617 26.5827 94.976 26.6617C94.8903 26.7407 94.7787 26.7857 94.6621 26.788H91.8361C91.7813 26.7888 91.727 26.7779 91.6767 26.756C91.6264 26.7342 91.5814 26.7019 91.5445 26.6614C91.5076 26.6208 91.4798 26.5729 91.4628 26.5208C91.4459 26.4686 91.4402 26.4135 91.4461 26.359L91.5541 25.129C91.5658 25.013 91.6196 24.9054 91.7053 24.8263C91.7909 24.7473 91.9026 24.7024 92.0191 24.7Z" fill="#407BFF"/>
<path d="M61.8448 24.7H65.6278C65.6896 24.6992 65.7508 24.7116 65.8075 24.7361C65.8642 24.7607 65.915 24.797 65.9566 24.8426C65.9983 24.8882 66.0298 24.9421 66.0491 25.0008C66.0685 25.0595 66.0752 25.1215 66.0689 25.183L65.9698 26.305C65.9566 26.4358 65.8959 26.5572 65.7991 26.6463C65.7024 26.7353 65.5763 26.7857 65.4448 26.788H61.6618C61.6002 26.7888 61.5391 26.7765 61.4826 26.7519C61.426 26.7273 61.3754 26.6909 61.334 26.6452C61.2925 26.5996 61.2613 26.5456 61.2423 26.4869C61.2233 26.4283 61.217 26.3663 61.2239 26.305L61.3198 25.183C61.3331 25.0522 61.3938 24.9307 61.4906 24.8417C61.5873 24.7527 61.7134 24.7023 61.8448 24.7Z" fill="#407BFF"/>
<path opacity="0.4" d="M61.8448 24.7H65.6278C65.6896 24.6992 65.7508 24.7116 65.8075 24.7361C65.8642 24.7607 65.915 24.797 65.9566 24.8426C65.9983 24.8882 66.0298 24.9421 66.0491 25.0008C66.0685 25.0595 66.0752 25.1215 66.0689 25.183L65.9698 26.305C65.9566 26.4358 65.8959 26.5572 65.7991 26.6463C65.7024 26.7353 65.5763 26.7857 65.4448 26.788H61.6618C61.6002 26.7888 61.5391 26.7765 61.4826 26.7519C61.426 26.7273 61.3754 26.6909 61.334 26.6452C61.2925 26.5996 61.2613 26.5456 61.2423 26.4869C61.2233 26.4283 61.217 26.3663 61.2239 26.305L61.3198 25.183C61.3331 25.0522 61.3938 24.9307 61.4906 24.8417C61.5873 24.7527 61.7134 24.7023 61.8448 24.7Z" fill="white"/>
<path d="M91.2658 25.048H91.7098C91.7299 25.0475 91.7499 25.0512 91.7684 25.0591C91.7869 25.0669 91.8036 25.0786 91.8172 25.0933C91.8308 25.1081 91.8412 25.1256 91.8475 25.1447C91.8538 25.1638 91.8559 25.184 91.8538 25.204L91.7608 26.266C91.7564 26.3085 91.7365 26.3478 91.705 26.3766C91.6735 26.4053 91.6325 26.4215 91.5898 26.422H91.1458C91.1257 26.4226 91.1057 26.4188 91.0872 26.411C91.0686 26.4032 91.052 26.3915 91.0384 26.3767C91.0247 26.3619 91.0144 26.3444 91.0081 26.3253C91.0018 26.3062 90.9996 26.286 91.0018 26.266L91.0948 25.204C91.0992 25.1616 91.1191 25.1222 91.1506 25.0935C91.1821 25.0647 91.2231 25.0485 91.2658 25.048Z" fill="#407BFF"/>
<path d="M94.2843 25.048H94.7313C94.7511 25.0479 94.7708 25.0519 94.7889 25.0599C94.8071 25.068 94.8234 25.0797 94.8367 25.0944C94.85 25.1092 94.86 25.1265 94.8662 25.1454C94.8723 25.1643 94.8744 25.1842 94.8723 25.204L94.7793 26.266C94.7755 26.3082 94.7563 26.3475 94.7253 26.3763C94.6942 26.4051 94.6536 26.4214 94.6113 26.422H94.1643C94.1444 26.4221 94.1248 26.418 94.1066 26.41C94.0884 26.402 94.0722 26.3902 94.0589 26.3755C94.0455 26.3608 94.0355 26.3434 94.0294 26.3246C94.0232 26.3057 94.0211 26.2857 94.0233 26.266L94.1163 25.204C94.12 25.1618 94.1392 25.1225 94.1702 25.0937C94.2013 25.0648 94.2419 25.0486 94.2843 25.048Z" fill="white"/>
<path d="M93.3272 25.048H93.7742C93.7941 25.0479 93.8137 25.0519 93.8319 25.0599C93.8501 25.068 93.8663 25.0797 93.8796 25.0944C93.8929 25.1092 93.903 25.1265 93.9091 25.1454C93.9153 25.1643 93.9173 25.1842 93.9152 25.204L93.8222 26.266C93.8185 26.3082 93.7993 26.3475 93.7682 26.3763C93.7372 26.4051 93.6966 26.4214 93.6542 26.422H93.2072C93.1874 26.4221 93.1677 26.418 93.1496 26.41C93.1314 26.402 93.1151 26.3902 93.1018 26.3755C93.0885 26.3608 93.0785 26.3434 93.0723 26.3246C93.0662 26.3057 93.0641 26.2857 93.0662 26.266L93.1592 25.204C93.1629 25.1618 93.1822 25.1225 93.2132 25.0937C93.2443 25.0648 93.2849 25.0486 93.3272 25.048Z" fill="white"/>
<path d="M98.349 43.882L97.749 50.851C98.0427 50.7946 98.3104 50.6451 98.5125 50.4246C98.7146 50.2042 98.8403 49.9245 98.871 49.627L99.255 45.1C99.2855 44.8202 99.209 44.5391 99.041 44.3133C98.873 44.0874 98.6258 43.9333 98.349 43.882Z" fill="#407BFF"/>
<path opacity="0.2" d="M98.349 43.882L97.749 50.851C98.0427 50.7946 98.3104 50.6451 98.5125 50.4246C98.7146 50.2042 98.8403 49.9245 98.871 49.627L99.255 45.1C99.2855 44.8202 99.209 44.5391 99.041 44.3133C98.873 44.0874 98.6258 43.9333 98.349 43.882Z" fill="black"/>
<path d="M98.9999 36.361L98.3999 43.33C98.693 43.274 98.9602 43.125 99.1618 42.905C99.3634 42.685 99.4887 42.4058 99.5189 42.109L99.8999 37.6C99.9347 37.3179 99.8612 37.033 99.6941 36.803C99.5271 36.5731 99.279 36.4151 98.9999 36.361Z" fill="#407BFF"/>
<path opacity="0.2" d="M98.9999 36.361L98.3999 43.33C98.693 43.274 98.9602 43.125 99.1618 42.905C99.3634 42.685 99.4887 42.4058 99.5189 42.109L99.8999 37.6C99.9347 37.3179 99.8612 37.033 99.6941 36.803C99.5271 36.5731 99.279 36.4151 98.9999 36.361Z" fill="black"/>
<path d="M121.587 52.264H115.698C115.221 52.264 114.763 52.4537 114.425 52.7912C114.088 53.1288 113.898 53.5866 113.898 54.064V57.55C113.902 58.0248 114.093 58.4788 114.43 58.8131C114.768 59.1475 115.223 59.3351 115.698 59.335H117.381V60.694C117.382 60.7687 117.405 60.8414 117.447 60.9032C117.489 60.965 117.548 61.0131 117.617 61.0415C117.686 61.07 117.762 61.0775 117.835 61.0632C117.908 61.0489 117.976 61.0134 118.029 60.961L119.652 59.335H121.587C122.059 59.3311 122.511 59.1418 122.845 58.8079C123.179 58.474 123.368 58.0222 123.372 57.55V54.049C123.368 53.5768 123.179 53.1251 122.845 52.7912C122.511 52.4573 122.059 52.268 121.587 52.264Z" fill="#407BFF"/>
<path d="M120.162 53.932H117.333C117.306 53.695 117.291 53.578 117.264 53.332H115.707C115.74 53.467 115.758 53.533 115.791 53.668H116.913C116.928 53.767 116.937 53.818 116.952 53.92C117.027 54.415 117.066 54.661 117.141 55.156C117.159 55.291 117.171 55.357 117.192 55.492C117.267 55.987 117.303 56.233 117.378 56.728C117.42 56.995 117.441 57.127 117.48 57.391H120.6C120.63 57.256 120.645 57.19 120.678 57.055H117.723C117.708 56.926 117.699 56.86 117.684 56.728H120.897L121.197 55.492C121.23 55.357 121.245 55.291 121.281 55.156C121.401 54.661 121.464 54.415 121.581 53.92L120.162 53.932ZM117.375 54.265H118.377C118.377 54.628 118.392 54.808 118.404 55.165H117.48L117.375 54.265ZM117.63 56.407C117.585 56.044 117.564 55.864 117.522 55.507H118.422C118.422 55.867 118.437 56.047 118.449 56.407H117.63ZM119.553 56.407H118.74C118.74 56.044 118.74 55.864 118.74 55.507H119.64C119.601 55.864 119.586 56.044 119.553 56.407ZM119.667 55.168H118.743C118.743 54.808 118.743 54.628 118.743 54.268H119.745C119.715 54.628 119.7 54.808 119.667 55.168ZM120.663 56.407H119.853C119.898 56.044 119.919 55.864 119.967 55.507H120.867L120.663 56.407ZM120.93 55.168H120C120.048 54.808 120.069 54.628 120.114 54.268H121.116C121.044 54.628 121.005 54.808 120.93 55.168Z" fill="white"/>
<path d="M117.672 57.715C117.593 57.715 117.516 57.7384 117.45 57.7823C117.385 57.8261 117.334 57.8884 117.303 57.9613C117.273 58.0342 117.265 58.1145 117.281 58.1919C117.296 58.2693 117.334 58.3404 117.39 58.3962C117.446 58.452 117.517 58.49 117.594 58.5054C117.672 58.5208 117.752 58.5129 117.825 58.4827C117.898 58.4525 117.96 58.4013 118.004 58.3357C118.048 58.2701 118.071 58.1929 118.071 58.114C118.071 58.0082 118.029 57.9067 117.954 57.8319C117.879 57.7571 117.778 57.715 117.672 57.715Z" fill="white"/>
<path d="M120.498 58.51C120.717 58.51 120.894 58.3327 120.894 58.114C120.894 57.8953 120.717 57.718 120.498 57.718C120.279 57.718 120.102 57.8953 120.102 58.114C120.102 58.3327 120.279 58.51 120.498 58.51Z" fill="white"/>
<path d="M82.0528 27.286H72.7048C71.9338 27.2996 71.1945 27.5953 70.6268 28.1172C70.059 28.639 69.7022 29.3509 69.6238 30.118L69.1408 35.653C69.1011 36.0135 69.1387 36.3783 69.251 36.7231C69.3633 37.0679 69.5478 37.3849 69.7922 37.6528C70.0366 37.9208 70.3353 38.1336 70.6683 38.2771C71.0014 38.4206 71.3612 38.4915 71.7238 38.485H74.3998L74.2108 40.639C74.2016 40.7571 74.2297 40.8752 74.291 40.9765C74.3523 41.0779 74.4439 41.1575 74.5528 41.2042C74.6617 41.2508 74.7824 41.2622 74.8981 41.2367C75.0138 41.2112 75.1186 41.1501 75.1978 41.062L77.9998 38.5H81.0718C81.8426 38.4858 82.5816 38.1898 83.1492 37.6681C83.7168 37.1464 84.0738 36.4349 84.1528 35.668L84.6358 30.133C84.6778 29.7714 84.642 29.4049 84.5307 29.0583C84.4194 28.7116 84.2353 28.3928 83.9906 28.1231C83.746 27.8535 83.4465 27.6393 83.1123 27.4949C82.7781 27.3505 82.4168 27.2793 82.0528 27.286Z" fill="#407BFF"/>
<path d="M79.2569 29.932H74.7719L74.7419 29.002H72.2729C72.3059 29.215 72.3239 29.32 72.3569 29.533H74.1389C74.1389 29.692 74.154 29.773 74.163 29.932C74.214 30.718 74.2409 31.111 74.2919 31.897C74.2919 32.107 74.3129 32.215 74.3249 32.428C74.3759 33.211 74.4029 33.604 74.4509 34.39C74.4809 34.81 74.4929 35.02 74.5199 35.44H79.446L79.617 34.909H74.9279V34.39H80.028C80.292 33.604 80.424 33.211 80.685 32.428L80.862 31.897C81.126 31.111 81.258 30.718 81.519 29.932H79.2569ZM74.7869 30.463H76.3769C76.3439 31.036 76.329 31.321 76.296 31.897H74.8319L74.7869 30.463ZM74.8949 33.859L74.8499 32.428H76.2659C76.2329 33.001 76.2149 33.286 76.1819 33.859H74.8949ZM77.946 33.859H76.6589C76.7099 33.286 76.737 33.001 76.788 32.428H78.2039C78.1019 33.001 78.051 33.286 77.946 33.859ZM78.2999 31.9H76.8359C76.8899 31.324 76.9139 31.039 76.9649 30.466H78.5579C78.4529 31.036 78.4019 31.321 78.2999 31.9ZM79.71 33.862H78.4229L78.7229 32.431H80.1359C79.9709 33.001 79.884 33.286 79.71 33.859V33.862ZM80.31 31.9H78.8399C78.9629 31.324 79.0229 31.039 79.1399 30.466H80.7299C80.562 31.036 80.4749 31.321 80.3039 31.9H80.31Z" fill="white"/>
<path d="M74.7839 35.938C74.6122 35.9408 74.4474 36.0064 74.3208 36.1225C74.1942 36.2386 74.1145 36.3971 74.0969 36.568C74.0884 36.6482 74.097 36.7294 74.1222 36.806C74.1474 36.8827 74.1886 36.9531 74.2431 37.0127C74.2975 37.0722 74.364 37.1196 74.4381 37.1515C74.5122 37.1834 74.5922 37.1993 74.6729 37.198C74.8447 37.1952 75.0095 37.1296 75.1361 37.0135C75.2627 36.8974 75.3423 36.7389 75.3599 36.568C75.3684 36.4878 75.3598 36.4066 75.3346 36.33C75.3094 36.2533 75.2682 36.1829 75.2138 36.1233C75.1593 36.0638 75.0928 36.0164 75.0187 35.9845C74.9446 35.9525 74.8646 35.9367 74.7839 35.938Z" fill="white"/>
<path d="M79.2629 35.938C79.0914 35.9408 78.927 36.0066 78.8009 36.1228C78.6748 36.2389 78.5958 36.3974 78.5789 36.568C78.5704 36.6482 78.579 36.7294 78.6042 36.806C78.6294 36.8827 78.6706 36.9531 78.725 37.0127C78.7795 37.0722 78.8459 37.1196 78.92 37.1515C78.9941 37.1834 79.0742 37.1993 79.1549 37.198C79.3263 37.1952 79.4907 37.1294 79.6168 37.0132C79.7429 36.8971 79.822 36.7386 79.8389 36.568C79.8474 36.4878 79.8387 36.4066 79.8135 36.33C79.7883 36.2533 79.7472 36.1829 79.6927 36.1233C79.6383 36.0638 79.5718 36.0164 79.4977 35.9845C79.4236 35.9525 79.3435 35.9367 79.2629 35.938Z" fill="white"/>
<path d="M88.7701 66.454H78.0811V77.143H88.7701V66.454Z" fill="#407BFF"/>
<path d="M95.3311 66.454H88.7671V77.143H95.3311V66.454Z" fill="#407BFF"/>
<path d="M86.7271 63.772H76.0381L78.0811 66.454H88.7671L86.7271 63.772Z" fill="#407BFF"/>
<path opacity="0.3" d="M95.3311 66.454H88.7671V77.143H95.3311V66.454Z" fill="white"/>
<path opacity="0.4" d="M86.7271 63.772H76.0381L78.0811 66.454H88.7671L86.7271 63.772Z" fill="white"/>
<path d="M90.7021 63.772H97.2661L95.3341 66.454H88.7671L90.7021 63.772Z" fill="#407BFF"/>
<path opacity="0.6" d="M88.7701 66.454H78.0811V77.143H88.7701V66.454Z" fill="white"/>
<path opacity="0.2" d="M90.7021 63.772H97.2661L95.3341 66.454H88.7671L90.7021 63.772Z" fill="white"/>
<path d="M118.845 76.879H91.9053V103.819H118.845V76.879Z" fill="#407BFF"/>
<path opacity="0.4" d="M118.845 76.879H91.9053V103.819H118.845V76.879Z" fill="white"/>
<path d="M91.8991 76.879H75.3511V103.819H91.8991V76.879Z" fill="#407BFF"/>
<path opacity="0.6" d="M91.8991 76.879H75.3511V103.819H91.8991V76.879Z" fill="white"/>
<path opacity="0.5" d="M80.4629 76.879V84.115L81.1199 84.46L81.6869 83.989L82.5839 84.46L83.4359 83.989L84.0959 84.46L84.8519 83.989L85.2809 84.376V76.879H80.4629Z" fill="white"/>
<path opacity="0.5" d="M85.2809 103.819V96.583L84.6239 96.235L84.0569 96.709L83.1599 96.235L82.3079 96.709L81.6479 96.235L80.8919 96.709L80.4629 96.322V103.819H85.2809Z" fill="white"/>
<path d="M102.9 87.865C103.053 88.48 103.128 88.789 103.281 89.404C103.32 89.569 103.341 89.653 103.383 89.821C103.536 90.436 103.611 90.745 103.764 91.36H107.76C107.739 91.522 107.73 91.603 107.712 91.765H104.031C104.07 91.933 104.088 92.017 104.127 92.182H108L108.126 91.36C108.219 90.745 108.267 90.436 108.36 89.821C108.387 89.653 108.399 89.569 108.423 89.404C108.516 88.789 108.564 88.48 108.657 87.865C108.678 87.739 108.687 87.676 108.705 87.55H110.1C110.139 87.385 110.16 87.301 110.202 87.136H108.267C108.231 87.436 108.213 87.571 108.18 87.865H102.9ZM108 89.404H106.854C106.854 88.954 106.872 88.729 106.887 88.279H108.132C108.066 88.729 108.042 88.954 108 89.404ZM106.8 90.943C106.8 90.493 106.821 90.268 106.833 89.821H107.943L107.808 90.943H106.8ZM105.3 89.821H106.407C106.407 90.268 106.407 90.493 106.407 90.943H105.396C105.369 90.493 105.348 90.268 105.3 89.821ZM105.159 88.279H106.404C106.404 88.729 106.404 88.954 106.404 89.404H105.27C105.228 88.954 105.207 88.729 105.168 88.279H105.159ZM103.779 89.821H104.889C104.943 90.268 104.973 90.493 105.03 90.943H104.019L103.779 89.821ZM103.449 88.279H104.7C104.754 88.729 104.784 88.954 104.838 89.404H103.692L103.449 88.279Z" fill="white"/>
<path d="M107.748 93.562C108.021 93.562 108.243 93.3403 108.243 93.067C108.243 92.7936 108.021 92.572 107.748 92.572C107.475 92.572 107.253 92.7936 107.253 93.067C107.253 93.3403 107.475 93.562 107.748 93.562Z" fill="white"/>
<path d="M104.235 93.562C104.509 93.562 104.73 93.3403 104.73 93.067C104.73 92.7936 104.509 92.572 104.235 92.572C103.962 92.572 103.74 92.7936 103.74 93.067C103.74 93.3403 103.962 93.562 104.235 93.562Z" fill="white"/>
<g opacity="0.5">
<path d="M79.9771 87.865C80.1301 88.48 80.205 88.789 80.358 89.404C80.397 89.569 80.4181 89.653 80.4601 89.821C80.6131 90.436 80.6881 90.745 80.8411 91.36H84.8371C84.8161 91.522 84.8071 91.603 84.7891 91.765H81.1141C81.1531 91.933 81.1711 92.017 81.2101 92.182H85.0711L85.197 91.36C85.29 90.745 85.338 90.436 85.431 89.821C85.455 89.653 85.4701 89.569 85.4941 89.404C85.5871 88.789 85.6351 88.48 85.7281 87.865L85.7761 87.55H87.174C87.213 87.385 87.2341 87.301 87.2761 87.136H85.3411C85.3051 87.436 85.287 87.571 85.254 87.865H79.9771ZM85.0771 89.404H83.931L83.9641 88.279H85.2001C85.1491 88.729 85.1221 88.954 85.0711 89.404H85.0771ZM83.8771 90.943C83.8921 90.493 83.8981 90.268 83.9101 89.821H85.0201L84.8851 90.943H83.8771ZM82.3921 89.821H83.499C83.499 90.268 83.499 90.493 83.499 90.943H82.5001C82.4521 90.493 82.4311 90.268 82.3921 89.821ZM82.2481 88.279H83.4961C83.4961 88.729 83.4961 88.954 83.4961 89.404H82.3501L82.2481 88.279ZM80.8711 89.821H81.981L82.1191 90.943H81.1111L80.8711 89.821ZM80.5411 88.279H81.7891C81.8431 88.729 81.8731 88.954 81.9271 89.404H80.781L80.5411 88.279Z" fill="white"/>
<path d="M84.8309 93.562C85.1043 93.562 85.3259 93.3403 85.3259 93.067C85.3259 92.7936 85.1043 92.572 84.8309 92.572C84.5576 92.572 84.3359 92.7936 84.3359 93.067C84.3359 93.3403 84.5576 93.562 84.8309 93.562Z" fill="white"/>
<path d="M81.3182 93.562C81.5916 93.562 81.8132 93.3403 81.8132 93.067C81.8132 92.7936 81.5916 92.572 81.3182 92.572C81.0449 92.572 80.8232 92.7936 80.8232 93.067C80.8232 93.3403 81.0449 93.562 81.3182 93.562Z" fill="white"/>
</g>
<path d="M109.008 55.441C109.008 55.441 109.944 62.158 110.784 63.316C111.624 64.474 115.398 67.678 115.398 67.678L117.783 67.33L119.382 68.83L118.224 69.631L116.949 69.061C116.23 69.1408 115.505 69.1578 114.783 69.112C113.565 69.037 108.807 65.812 107.931 64.129C107.055 62.446 106.065 56.215 106.065 56.215L109.008 55.441Z" fill="#CE7A63"/>
<path d="M109.8 57.382L109.56 57.424C109.395 55.846 108.735 51.052 106.926 52.282C105.189 53.467 105.678 56.83 105.93 58.087L105.63 58.138L105.894 58.966L109.893 58.201L109.8 57.382Z" fill="#407BFF"/>
<path opacity="0.2" d="M108.3 54.211L107.859 53.263L106.476 54.655L105.681 55.855C105.703 56.606 105.79 57.3537 105.939 58.09L105.639 58.141L105.903 58.969L108.159 58.537C108.411 57.1089 108.458 55.6524 108.3 54.211Z" fill="black"/>
<path d="M108.438 42.157C108.438 42.157 113.208 43.189 110.673 45.457L108.573 43.624L108.438 42.157Z" fill="#263238"/>
<path d="M115.059 92.524L112.023 99.961L109.917 99.142L111.615 91.75L115.059 92.524Z" fill="#CE7A63"/>
<path opacity="0.2" d="M111.765 91.225L110.568 96.436L113.163 97.015L115.209 91.996L111.765 91.225Z" fill="black"/>
<path d="M112.5 99.787C112.887 100.666 113.148 101.389 114.732 102.328C115.077 102.526 114.492 103.438 113.631 103.051C112.209 102.409 112.581 102.397 111.363 101.869C110.34 101.416 109.578 101.143 108.744 100.795C108.723 100.786 108.702 100.774 108.684 100.759C108.613 100.706 108.566 100.627 108.553 100.539C108.54 100.452 108.563 100.362 108.615 100.291L109.845 98.608C109.872 98.5702 109.912 98.5431 109.956 98.531C110.001 98.519 110.049 98.5229 110.091 98.542L112.083 99.4C112.265 99.4741 112.413 99.6116 112.5 99.787Z" fill="#263238"/>
<path d="M121.854 75.046C121.467 79.846 114.573 95.713 114.573 95.713L110.481 94.573C110.481 94.573 113.607 79.33 115.647 76.807C115.647 76.807 114.981 76.807 113.91 76.828C110.181 76.861 101.538 76.855 99.0452 76.192C97.2662 75.718 93.5492 74.767 94.5452 68.815L99.1532 68.656L104.52 68.47C104.52 68.47 122.4 68.5 121.854 75.046Z" fill="#263238"/>
<path opacity="0.2" d="M113.91 76.828C110.181 76.861 101.538 76.855 99.0452 76.192C97.2662 75.718 93.5492 74.767 94.5452 68.815L99.1532 68.656C102.78 69.085 107.52 69.802 110.751 71.191C112.323 71.866 113.415 73.084 113.736 74.518C113.847 75.2832 113.905 76.055 113.91 76.828Z" fill="black"/>
<path d="M107.943 92.26L106.425 99.841L104.142 99.736L104.412 92.155L107.943 92.26Z" fill="#CE7A63"/>
<path opacity="0.2" d="M107.943 92.26L104.412 92.155L104.256 96.688L107.037 96.787L107.943 92.26Z" fill="black"/>
<path d="M106.773 100.021C107.145 100.921 107.373 101.677 108.972 102.679C109.314 102.901 108.69 103.816 107.829 103.39C106.401 102.691 106.782 102.694 105.555 102.115C104.52 101.626 103.755 101.323 102.918 100.942L102.855 100.912C102.82 100.884 102.79 100.85 102.768 100.811C102.745 100.772 102.731 100.729 102.726 100.684C102.721 100.639 102.724 100.594 102.737 100.551C102.749 100.507 102.77 100.467 102.798 100.432L104.103 98.749C104.131 98.7116 104.171 98.6851 104.217 98.6742C104.262 98.6632 104.31 98.6685 104.352 98.689L106.35 99.622C106.536 99.6978 106.687 99.84 106.773 100.021Z" fill="#263238"/>
<path d="M91.8512 68.8C91.8512 68.8 90.5462 73.489 92.7032 75.34C95.7182 77.929 106.611 77.14 106.611 77.14C104.73 83.161 103.89 95.122 103.89 95.122H107.973C107.973 95.122 113.535 78.76 112.713 74.53C111.891 70.3 97.2992 68.803 97.2992 68.803L91.8512 68.8Z" fill="#263238"/>
<path d="M110.118 95.047L114.75 96.214L115.695 94.231L110.607 92.788L110.118 95.047Z" fill="#407BFF"/>
<path d="M103.485 95.704L108.21 95.947L108.699 93.868L103.485 93.625V95.704Z" fill="#407BFF"/>
<path d="M105.651 62.317C106.851 58.78 108.351 56.089 108.525 53.074C104.418 47.146 96.3872 50.65 96.3872 50.65C91.5272 59.77 91.8512 68.8 91.8512 68.8C102.894 68.8 103.527 68.611 103.527 68.611C103.527 68.611 103.566 67.06 105.651 62.317Z" fill="#407BFF"/>
<path opacity="0.2" d="M101.943 50.476C102.12 51.52 102.489 53.404 102.927 53.677C103.527 54.043 104.427 53.53 104.427 53.53C104.427 53.53 105.156 54.517 105.927 53.86C106.36 53.4454 106.698 52.9418 106.917 52.384C106.69 52.7705 106.403 53.1188 106.068 53.416C105.288 54.07 104.568 53.086 104.568 53.086C104.568 53.086 103.668 53.596 103.068 53.233C102.672 52.996 102.21 51.505 101.943 50.476Z" fill="black"/>
<path d="M102.933 49.036L104.028 49.411L103.17 50.164L102.933 49.036Z" fill="#407BFF"/>
<path opacity="0.2" d="M102.933 49.036L104.028 49.411L103.17 50.164L102.933 49.036Z" fill="black"/>
<path d="M106.413 50.164L106.713 51.064C106.713 51.064 105.147 52.702 104.697 52.72C104.247 52.738 102.927 49.639 102.927 49.639C104.67 48.85 104.508 47.983 104.508 47.983L106.413 50.164Z" fill="#CE7A63"/>
<path opacity="0.2" d="M105.843 51.901C106.305 51.478 106.719 51.049 106.719 51.049L106.419 50.149L104.724 48.19C104.502 49.057 104.286 50.839 105.843 51.901Z" fill="black"/>
<path d="M107.307 51.7C107.025 52.36 106.608 52.9537 106.083 53.443C105.3 54.097 104.583 53.116 104.583 53.116C104.583 53.116 103.683 53.623 103.083 53.26C102.483 52.897 101.7 49.567 101.7 49.567L102.933 49.036L104.631 52.636L106.92 50.743L107.307 51.7Z" fill="#407BFF"/>
<path d="M104.448 44.941C104.445 44.4083 104.583 43.8844 104.847 43.4218C105.111 42.9592 105.492 42.5742 105.952 42.3054C106.412 42.0367 106.935 41.8937 107.467 41.8909C108 41.888 108.524 42.0253 108.987 42.289C111.165 43.462 111.225 46.888 110.577 48.889C110.42 49.4146 110.123 49.8872 109.716 50.2555C109.31 50.6238 108.81 50.8736 108.272 50.9778C107.733 51.082 107.177 51.0367 106.662 50.8466C106.148 50.6566 105.695 50.3292 105.354 49.9C104.286 48.586 104.424 47.239 104.454 44.926L104.448 44.941Z" fill="#CE7A63"/>
<path d="M108.504 46.375C108.63 46.375 108.708 46.558 108.675 46.741C108.642 46.924 108.531 47.041 108.408 47.041C108.285 47.041 108.207 46.858 108.237 46.675C108.267 46.492 108.378 46.366 108.504 46.375Z" fill="#263238"/>
<path d="M110.583 46.765C110.712 46.765 110.79 46.942 110.76 47.128C110.73 47.314 110.613 47.428 110.487 47.428C110.361 47.428 110.289 47.248 110.316 47.062C110.343 46.876 110.457 46.75 110.583 46.765Z" fill="#263238"/>
<path d="M107.946 45.937C108.053 45.854 108.179 45.7979 108.313 45.7733C108.446 45.7488 108.584 45.7566 108.714 45.796C108.741 45.8047 108.77 45.8026 108.795 45.7903C108.82 45.778 108.839 45.7564 108.849 45.73C108.857 45.7025 108.855 45.6729 108.843 45.6469C108.831 45.6209 108.809 45.6003 108.783 45.589C108.616 45.5388 108.439 45.5301 108.267 45.5635C108.096 45.597 107.935 45.6716 107.799 45.781C107.783 45.7914 107.771 45.8063 107.763 45.8237C107.756 45.8412 107.754 45.8604 107.758 45.879C107.761 45.8976 107.77 45.9147 107.783 45.9282C107.796 45.9417 107.813 45.9511 107.832 45.955C107.85 45.9648 107.871 45.9683 107.892 45.965C107.913 45.9618 107.931 45.9519 107.946 45.937Z" fill="#263238"/>
<path d="M111.108 46.522C111.132 46.5065 111.15 46.4823 111.156 46.4543C111.163 46.4263 111.159 46.3968 111.144 46.372C111.059 46.2184 110.939 46.0871 110.793 45.9886C110.648 45.8901 110.481 45.8272 110.307 45.805C110.284 45.8057 110.262 45.814 110.244 45.8287C110.226 45.8433 110.213 45.8635 110.208 45.886C110.204 45.9 110.204 45.9145 110.206 45.9288C110.208 45.9431 110.213 45.9568 110.221 45.9691C110.228 45.9814 110.238 45.9921 110.25 46.0005C110.262 46.0089 110.275 46.0148 110.289 46.018C110.43 46.0394 110.564 46.0931 110.68 46.1748C110.797 46.2565 110.893 46.364 110.961 46.489C110.969 46.5048 110.981 46.5184 110.996 46.5283C111.01 46.5383 111.027 46.5444 111.045 46.546C111.068 46.5442 111.09 46.5358 111.108 46.522Z" fill="#263238"/>
<path d="M109.35 48.811C109.491 48.8753 109.645 48.9086 109.8 48.9086C109.955 48.9086 110.109 48.8753 110.25 48.811C109.975 48.2514 109.773 47.6584 109.65 47.047L109.35 48.811Z" fill="#BA4D3C"/>
<path d="M104.304 46.438C103.404 43.168 104.859 42.316 106.431 41.728C108.003 41.14 108.876 41.704 109.377 42.256C109.533 42.43 109.845 42.952 108.837 43.021C108.227 43.0446 107.616 42.9972 107.016 42.88C106.896 42.8591 106.773 42.8715 106.66 42.9159C106.546 42.9604 106.448 43.0351 106.374 43.132C106.026 43.588 105.474 44.44 105.474 45.184C105.495 45.467 105.454 45.7511 105.353 46.0165C105.253 46.2818 105.095 46.5219 104.892 46.72L104.304 46.438Z" fill="#263238"/>
<path d="M103.17 62.872C103.248 62.8726 103.325 62.8964 103.389 62.9404C103.454 62.9844 103.505 63.0466 103.534 63.1192C103.563 63.1918 103.571 63.2715 103.555 63.3482C103.539 63.4249 103.501 63.4952 103.445 63.5501C103.389 63.6051 103.318 63.6422 103.241 63.6569C103.164 63.6716 103.085 63.6632 103.013 63.6327C102.941 63.6022 102.879 63.5509 102.836 63.4855C102.793 63.42 102.77 63.3433 102.771 63.265C102.771 63.2126 102.781 63.1608 102.802 63.1125C102.822 63.0642 102.852 63.0205 102.889 62.9839C102.927 62.9473 102.971 62.9185 103.02 62.8993C103.069 62.8801 103.121 62.8708 103.173 62.872H103.17Z" fill="#407BFF"/>
<path d="M102.3 67.06C102.352 67.06 102.404 67.0702 102.452 67.0901C102.5 67.11 102.544 67.1392 102.58 67.176C102.617 67.2128 102.646 67.2564 102.666 67.3045C102.686 67.3525 102.696 67.404 102.696 67.456C102.696 67.508 102.686 67.5595 102.666 67.6075C102.646 67.6556 102.617 67.6992 102.58 67.736C102.544 67.7728 102.5 67.802 102.452 67.8219C102.404 67.8418 102.352 67.852 102.3 67.852C102.195 67.8512 102.094 67.8088 102.02 67.7341C101.946 67.6593 101.904 67.5583 101.904 67.453C101.904 67.4011 101.915 67.3498 101.935 67.3019C101.954 67.254 101.984 67.2106 102.02 67.174C102.057 67.1375 102.101 67.1086 102.149 67.0891C102.197 67.0695 102.248 67.0596 102.3 67.06Z" fill="#407BFF"/>
<path d="M104.328 45.7C104.964 45.814 105.27 46.711 105.276 47.299C105.282 47.887 104.826 48.406 104.265 48.031C103.84 47.7369 103.54 47.2937 103.425 46.789C103.302 46.156 103.695 45.574 104.328 45.7Z" fill="#CE7A63"/>
<path d="M107.232 48.778C107.921 48.9726 108.59 49.2328 109.23 49.555C109.033 49.7663 108.769 49.9031 108.482 49.9424C108.196 49.9818 107.905 49.9212 107.658 49.771C107.562 49.7372 107.475 49.6839 107.401 49.6145C107.326 49.5451 107.268 49.4611 107.227 49.3678C107.187 49.2745 107.167 49.174 107.168 49.0724C107.169 48.9709 107.191 48.8707 107.232 48.778Z" fill="#263238"/>
<path d="M108.153 49.6C107.877 49.4529 107.562 49.3972 107.253 49.441C107.348 49.5931 107.487 49.7125 107.652 49.783C107.927 49.9307 108.243 49.9864 108.552 49.942C108.459 49.7878 108.319 49.6678 108.153 49.6Z" fill="#A02724"/>
<path d="M107.304 48.796C107.294 48.8551 107.3 48.9158 107.322 48.9715C107.345 49.0272 107.382 49.0755 107.43 49.111C107.855 49.3075 108.295 49.4671 108.747 49.588C108.817 49.6141 108.892 49.6223 108.965 49.6118C109.038 49.6014 109.108 49.5725 109.167 49.528C108.566 49.236 107.943 48.9913 107.304 48.796Z" fill="white"/>
<path d="M109.601 70.8039L115.031 70.8333L115.036 69.9603L109.606 69.9309L109.601 70.8039Z" fill="#263238"/>
<path d="M110.048 70.8075L103.148 70.7702C103.094 70.7699 103.041 70.759 102.992 70.7383C102.943 70.7175 102.898 70.6872 102.86 70.6491C102.822 70.611 102.793 70.5659 102.772 70.5163C102.752 70.4666 102.742 70.4135 102.742 70.36L102.745 69.898L110.053 69.9375L110.048 70.8105L110.048 70.8075Z" fill="#263238"/>
<path opacity="0.3" d="M110.048 70.8075L103.148 70.7702C103.094 70.7699 103.041 70.759 102.992 70.7383C102.943 70.7175 102.898 70.6872 102.86 70.6491C102.822 70.611 102.793 70.5659 102.772 70.5163C102.752 70.4666 102.742 70.4135 102.742 70.36L102.745 69.898L110.053 69.9375L110.048 70.8105L110.048 70.8075Z" fill="white"/>
<path d="M108.082 70.5158L108.955 70.5206L108.956 70.2116L108.083 70.2069L108.082 70.5158Z" fill="#263238"/>
<path d="M106.72 70.5142L107.593 70.5189L107.594 70.2099L106.721 70.2052L106.72 70.5142Z" fill="#263238"/>
<path d="M111.084 69.946L110.505 69.943L112.815 62.077L113.394 62.08L111.084 69.946Z" fill="#263238"/>
<path opacity="0.3" d="M111.084 69.946L110.505 69.943L112.815 62.077L113.394 62.08L111.084 69.946Z" fill="white"/>
<path d="M110.871 69.946L121.062 70L123.372 62.131L113.181 62.077L110.871 69.946Z" fill="#263238"/>
<path opacity="0.6" d="M110.871 69.946L121.062 70L123.372 62.131L113.181 62.077L110.871 69.946Z" fill="white"/>
<path d="M110.373 69.943L120.981 70C121.158 70 121.302 70.198 121.302 70.438C121.302 70.678 121.155 70.873 120.975 70.873L110.367 70.816C110.19 70.816 110.046 70.618 110.046 70.378C110.046 70.138 110.193 69.943 110.373 69.943Z" fill="#263238"/>
<path opacity="0.5" d="M110.373 69.943L120.981 70C121.158 70 121.302 70.198 121.302 70.438C121.302 70.678 121.155 70.873 120.975 70.873L110.367 70.816C110.19 70.816 110.046 70.618 110.046 70.378C110.046 70.138 110.193 69.943 110.373 69.943Z" fill="white"/>
<path d="M110.046 70.378C110.046 70.618 110.19 70.813 110.367 70.816C110.544 70.819 110.691 70.621 110.694 70.381C110.697 70.141 110.55 69.943 110.373 69.943C110.196 69.943 110.049 70.138 110.046 70.378Z" fill="#263238"/>
<path opacity="0.3" d="M110.046 70.378C110.046 70.618 110.19 70.813 110.367 70.816C110.544 70.819 110.691 70.621 110.694 70.381C110.697 70.141 110.55 69.943 110.373 69.943C110.196 69.943 110.049 70.138 110.046 70.378Z" fill="white"/>
<path opacity="0.2" d="M100.029 62.659C99.5402 61.987 99.0212 59.497 98.6582 57.439L99.1292 57.349L99.0182 56.497L98.7722 56.542C98.6012 54.934 97.9352 50.098 96.1322 51.142C95.6072 52.162 95.1452 53.188 94.7432 54.202C94.7075 55.2157 94.7941 56.23 95.0012 57.223L94.7012 57.277L94.9772 58.138L95.6162 58.018C95.9972 60.004 96.5522 62.518 97.0682 63.514C97.7462 64.822 100.668 67.006 102.624 68.068C104.823 67.678 105.324 67.402 105.324 67.402C105.261 67.3193 105.21 67.2285 105.171 67.132L104.817 67.183C104.817 67.183 100.902 63.862 100.029 62.659Z" fill="black"/>
<path d="M99.4919 54.514C99.4919 54.514 100.134 61.525 100.95 62.767C101.766 64.009 105.525 67.519 105.525 67.519L108.015 67.273L109.599 68.92L108.36 69.7L107.064 69.043C106.314 69.0924 105.561 69.0754 104.814 68.992C103.557 68.854 98.7779 65.29 97.9499 63.49C97.1219 61.69 96.3989 55.189 96.3989 55.189L99.4919 54.514Z" fill="#CE7A63"/>
<path d="M100.05 56.026L99.8009 56.071C99.6299 54.433 98.9429 49.453 97.0679 50.731C95.2679 51.961 95.7689 55.453 96.0329 56.758L95.7329 56.812L96.0089 57.673L100.161 56.878L100.05 56.026Z" fill="#407BFF"/>
<path d="M39.3659 80.068L38.6489 80.029L38.8169 76.777C38.8857 75.6991 39.3591 74.6869 40.1423 73.9431C40.9256 73.1994 41.9609 72.7789 43.0409 72.766C43.5646 72.7608 44.0838 72.8637 44.566 73.0682C45.0481 73.2726 45.483 73.5743 45.8433 73.9544C46.2037 74.3344 46.4818 74.7847 46.6603 75.2771C46.8388 75.7694 46.9139 76.2933 46.8809 76.816L46.7099 80.068L45.9929 80.029L46.1639 76.777C46.1925 76.3512 46.1327 75.9241 45.9882 75.5226C45.8437 75.121 45.6177 74.7537 45.3244 74.4438C45.031 74.1338 44.6767 73.8879 44.2838 73.7215C43.8908 73.5552 43.4676 73.4719 43.0409 73.477C42.1441 73.4881 41.2847 73.8378 40.6349 74.4559C39.9851 75.074 39.5929 75.9149 39.5369 76.81L39.3659 80.068Z" fill="#263238"/>
<path d="M54.7467 78.622H33.5457L32.8257 103.777L35.9697 103.057L39.1137 103.777H55.4667L54.7467 78.622Z" fill="#407BFF"/>
<path opacity="0.6" d="M54.7467 78.622H33.5457L32.8257 103.777L35.9697 103.057L39.1137 103.777H55.4667L54.7467 78.622Z" fill="white"/>
<path d="M39.1137 103.777L35.9697 103.057L32.8257 103.777L33.5457 78.622H38.3967L39.1137 103.777Z" fill="#407BFF"/>
<path opacity="0.3" d="M39.1137 103.777L35.9697 103.057L32.8257 103.777L33.5457 78.622H38.3967L39.1137 103.777Z" fill="white"/>
<path d="M50.2588 80.068L50.0998 76.816C50.0438 75.9204 49.6512 75.0791 49.0008 74.4609C48.3503 73.8427 47.4901 73.4933 46.5928 73.483C46.1664 73.4783 45.7435 73.5619 45.3509 73.7284C44.9583 73.895 44.6044 74.141 44.3114 74.4509C44.0183 74.7608 43.7926 75.1279 43.6483 75.5293C43.504 75.9306 43.4443 76.3574 43.4728 76.783L43.6438 80.035L42.9268 80.074L42.7558 76.822C42.7224 76.2994 42.7971 75.7756 42.9753 75.2833C43.1534 74.7909 43.4313 74.3406 43.7914 73.9605C44.1515 73.5804 44.5862 73.2786 45.0682 73.0741C45.5502 72.8696 46.0692 72.7668 46.5928 72.772C47.6731 72.7842 48.7088 73.2044 49.4922 73.9483C50.2756 74.6922 50.7488 75.7048 50.8168 76.783L50.9878 80.035L50.2588 80.068Z" fill="#263238"/>
<g opacity="0.2">
<path d="M50.2588 80.068L50.0998 76.816C50.0438 75.9204 49.6512 75.0791 49.0008 74.4609C48.3503 73.8427 47.4901 73.4933 46.5928 73.483C46.1664 73.4783 45.7435 73.5619 45.3509 73.7284C44.9583 73.895 44.6044 74.141 44.3114 74.4509C44.0183 74.7608 43.7926 75.1279 43.6483 75.5293C43.504 75.9306 43.4443 76.3574 43.4728 76.783L43.6438 80.035L42.9268 80.074L42.7558 76.822C42.7224 76.2994 42.7971 75.7756 42.9753 75.2833C43.1534 74.7909 43.4313 74.3406 43.7914 73.9605C44.1515 73.5804 44.5862 73.2786 45.0682 73.0741C45.5502 72.8696 46.0692 72.7668 46.5928 72.772C47.6731 72.7842 48.7088 73.2044 49.4922 73.9483C50.2756 74.6922 50.7488 75.7048 50.8168 76.783L50.9878 80.035L50.2588 80.068Z" fill="white"/>
</g>
<path d="M51.8816 87.808H42.0236C41.8016 87.808 41.6216 87.988 41.6216 88.21V89.803C41.6216 90.025 41.8016 90.205 42.0236 90.205H51.8816C52.1036 90.205 52.2836 90.025 52.2836 89.803V88.21C52.2836 87.988 52.1036 87.808 51.8816 87.808Z" fill="white"/>
<path d="M29.6217 87.883L29.1387 87.856L29.2527 85.678C29.2959 84.9532 29.612 84.2718 30.1375 83.7708C30.663 83.2698 31.3587 82.9865 32.0847 82.978C32.4344 82.9745 32.7812 83.043 33.1034 83.1791C33.4256 83.3152 33.7164 83.5161 33.9578 83.7692C34.1991 84.0224 34.3859 84.3225 34.5064 84.6508C34.627 84.9791 34.6788 85.3288 34.6587 85.678L34.5447 87.859L34.0647 87.832L34.1787 85.654C34.1969 85.3684 34.1559 85.0822 34.0582 84.8132C33.9606 84.5443 33.8084 84.2984 33.6112 84.0911C33.414 83.8837 33.176 83.7194 32.9123 83.6084C32.6486 83.4974 32.3648 83.4421 32.0787 83.446C31.4778 83.4531 30.9018 83.6871 30.4662 84.101C30.0306 84.5149 29.7675 85.0782 29.7297 85.678L29.6217 87.883Z" fill="#263238"/>
<path d="M39.9328 86.914H25.7188L25.2388 103.777L27.3448 103.294L29.4538 103.777H40.4158L39.9328 86.914Z" fill="#407BFF"/>
<path d="M29.4538 103.777L27.3448 103.294L25.2388 103.777L25.7188 86.914H28.9708L29.4538 103.777Z" fill="#407BFF"/>
<path opacity="0.2" d="M29.4538 103.777L27.3448 103.294L25.2388 103.777L25.7188 86.914H28.9708L29.4538 103.777Z" fill="black"/>
<path d="M36.9237 87.883L36.8097 85.702C36.7677 85.1032 36.503 84.5419 36.0676 84.1287C35.6322 83.7156 35.0578 83.4805 34.4577 83.47C34.1713 83.4652 33.8871 83.5199 33.6229 83.6306C33.3588 83.7413 33.1205 83.9056 32.9231 84.1131C32.7257 84.3207 32.5736 84.5669 32.4762 84.8362C32.3789 85.1056 32.3385 85.3922 32.3577 85.678L32.4717 87.856L31.9917 87.883L31.8747 85.702C31.855 85.3529 31.9071 85.0035 32.0278 84.6753C32.1485 84.3472 32.3353 84.0473 32.5766 83.7942C32.8179 83.5411 33.1085 83.3403 33.4305 83.204C33.7525 83.0677 34.099 82.999 34.4487 83.002C35.1746 83.0106 35.8704 83.2939 36.3959 83.7948C36.9213 84.2958 37.2375 84.9773 37.2807 85.702L37.3947 87.88L36.9237 87.883Z" fill="#263238"/>
<g opacity="0.2">
<path d="M36.9237 87.883L36.8097 85.702C36.7677 85.1032 36.503 84.5419 36.0676 84.1287C35.6322 83.7156 35.0578 83.4805 34.4577 83.47C34.1713 83.4652 33.8871 83.5199 33.6229 83.6306C33.3588 83.7413 33.1205 83.9056 32.9231 84.1131C32.7257 84.3207 32.5736 84.5669 32.4762 84.8362C32.3789 85.1056 32.3385 85.3922 32.3577 85.678L32.4717 87.856L31.9917 87.883L31.8747 85.702C31.855 85.3529 31.9071 85.0035 32.0278 84.6753C32.1485 84.3472 32.3353 84.0473 32.5766 83.7942C32.8179 83.5411 33.1085 83.3403 33.4305 83.204C33.7525 83.0677 34.099 82.999 34.4487 83.002C35.1746 83.0106 35.8704 83.2939 36.3959 83.7948C36.9213 84.2958 37.2375 84.9773 37.2807 85.702L37.3947 87.88L36.9237 87.883Z" fill="white"/>
</g>
<path d="M37.8778 93.073H31.5358C31.3138 93.073 31.1338 93.253 31.1338 93.475V94.276C31.1338 94.498 31.3138 94.678 31.5358 94.678H37.8778C38.0998 94.678 38.2798 94.498 38.2798 94.276V93.475C38.2798 93.253 38.0998 93.073 37.8778 93.073Z" fill="white"/>
<path d="M51.5042 102.13L49.2212 101.893L49.3352 96.559L51.6182 96.796L51.5042 102.13Z" fill="#B55B52"/>
<path d="M70.8181 94.48L68.7751 95.521L65.7031 91.1171L67.7491 90.076L70.8181 94.48Z" fill="#B55B52"/>
<path d="M68.3494 95.236L70.4494 93.736C70.4851 93.7099 70.5292 93.6976 70.5733 93.7014C70.6174 93.7053 70.6587 93.725 70.6894 93.757L72.1114 95.257C72.1459 95.2956 72.172 95.3411 72.1878 95.3904C72.2036 95.4398 72.2089 95.4919 72.2032 95.5434C72.1975 95.5949 72.1811 95.6446 72.1549 95.6894C72.1288 95.7341 72.0935 95.7728 72.0514 95.803C71.3104 96.313 70.9264 96.52 70.0024 97.18C69.4354 97.585 68.6464 98.236 67.8634 98.794C67.0804 99.352 66.4834 98.608 66.7594 98.305C67.9984 96.946 67.9204 96.346 68.1184 95.581C68.1519 95.4422 68.2338 95.3198 68.3494 95.236Z" fill="#263238"/>
<path d="M49.0262 101.605L51.5912 101.872C51.6353 101.876 51.6765 101.895 51.7069 101.928C51.7373 101.96 51.7549 102.002 51.7562 102.046L51.8372 104.107C51.8375 104.159 51.8268 104.21 51.8059 104.258C51.785 104.305 51.7543 104.348 51.7157 104.383C51.6772 104.418 51.6318 104.444 51.5824 104.46C51.5331 104.476 51.4809 104.482 51.4292 104.476C50.5292 104.365 50.1122 104.269 48.9842 104.152C48.2882 104.077 46.2842 103.942 45.3302 103.852C44.3762 103.762 44.4302 102.799 44.8292 102.754C46.6562 102.556 47.9762 102.154 48.6302 101.713C48.7454 101.632 48.8856 101.593 49.0262 101.605Z" fill="#263238"/>
<g opacity="0.2">
<path d="M49.3354 96.559L49.2754 99.31L51.5614 99.547L51.6184 96.799L49.3354 96.559Z" fill="black"/>
<path d="M67.7496 90.079L65.7036 91.12L67.2876 93.388L69.3336 92.347L67.7496 90.079Z" fill="black"/>
</g>
<path d="M50.4271 50.479C50.4271 50.479 48.0601 68.098 48.0001 75.1C47.9281 82.384 48.8521 98.734 48.8521 98.734L51.9391 99.055C51.9391 99.055 53.1931 82.975 53.6911 75.838C54.2371 68.053 57.2611 50.698 57.2611 50.698L50.4271 50.479Z" fill="#263238"/>
<path d="M52.185 99.19L48.561 98.812L48.417 97.63L52.488 97.912L52.185 99.19Z" fill="#407BFF"/>
<path opacity="0.6" d="M54.3004 55C51.8644 59.533 53.4304 67.99 54.1414 71.14C54.7024 66.46 55.5844 60.745 56.2624 56.551C55.9984 54.157 55.4314 52.915 54.3004 55Z" fill="black"/>
<path d="M52.8872 50.557C52.8872 50.557 54.4202 68.998 55.8272 74.947C57.4982 82.012 66.5522 93.166 66.5522 93.166L69.3422 91.747C69.3422 91.747 63.2072 79.351 61.8782 75.613C59.0372 67.642 62.0522 55.99 59.7452 50.773L52.8872 50.557Z" fill="#263238"/>
<path d="M69.738 91.729L66.276 93.49L65.355 92.59L69.333 90.334L69.738 91.729Z" fill="#407BFF"/>
<path d="M67.5424 96.1781H67.5154C67.4628 96.1715 67.4129 96.1511 67.3707 96.1189C67.3285 96.0868 67.2957 96.044 67.2754 95.995C67.2588 95.9669 67.25 95.9348 67.25 95.902C67.25 95.8693 67.2588 95.8372 67.2754 95.809C67.4224 95.554 68.2504 95.509 68.3434 95.509C68.3542 95.5088 68.3649 95.5118 68.374 95.5177C68.3831 95.5236 68.3902 95.5321 68.3944 95.5421C68.401 95.5501 68.4046 95.5602 68.4046 95.5705C68.4046 95.5809 68.401 95.591 68.3944 95.599C68.1934 95.824 67.8304 96.1871 67.5424 96.1781ZM68.2174 95.6261C67.8874 95.6501 67.4464 95.7281 67.3684 95.8601C67.361 95.8728 67.3571 95.8873 67.3571 95.902C67.3571 95.9168 67.361 95.9313 67.3684 95.9441C67.3818 95.9767 67.4035 96.0053 67.4314 96.0269C67.4593 96.0484 67.4924 96.0623 67.5274 96.0671C67.6834 96.1001 67.9384 95.9231 68.2174 95.6261Z" fill="#407BFF"/>
<path d="M68.2682 95.62C67.9832 95.62 67.4642 95.4611 67.3682 95.2421C67.3506 95.2026 67.3473 95.1583 67.3588 95.1167C67.3703 95.0751 67.3959 95.0388 67.4312 95.014C67.4611 94.9852 67.4971 94.9635 67.5366 94.9505C67.5761 94.9375 67.618 94.9336 67.6592 94.939C67.9922 94.975 68.3762 95.509 68.3942 95.539C68.3986 95.5473 68.401 95.5566 68.401 95.566C68.401 95.5755 68.3986 95.5847 68.3942 95.593C68.39 95.6016 68.3836 95.6088 68.3757 95.6141C68.3678 95.6194 68.3587 95.6224 68.3492 95.623C68.3222 95.625 68.295 95.6239 68.2682 95.62ZM67.6292 95.047C67.6057 95.0451 67.5821 95.0481 67.5599 95.0558C67.5377 95.0636 67.5173 95.0759 67.5002 95.0921C67.4492 95.1401 67.4552 95.173 67.4642 95.197C67.5302 95.344 67.9592 95.497 68.2382 95.512C68.1002 95.341 67.8422 95.068 67.6382 95.047H67.6292Z" fill="#407BFF"/>
<path d="M48.1293 101.914C47.932 101.912 47.7414 101.842 47.5893 101.716C47.5558 101.68 47.5318 101.636 47.5192 101.589C47.5066 101.541 47.506 101.491 47.5173 101.443C47.5225 101.413 47.5352 101.385 47.5541 101.362C47.5729 101.338 47.5974 101.32 47.6253 101.308C47.9253 101.185 48.7833 101.743 48.8793 101.809C48.889 101.815 48.8966 101.823 48.9009 101.833C48.9053 101.844 48.9061 101.855 48.9033 101.866C48.9008 101.877 48.8948 101.887 48.8862 101.895C48.8776 101.902 48.8667 101.907 48.8553 101.908C48.614 101.933 48.371 101.935 48.1293 101.914ZM47.7693 101.398C47.7356 101.391 47.701 101.391 47.6673 101.398C47.656 101.403 47.6462 101.411 47.6388 101.421C47.6315 101.431 47.6268 101.443 47.6253 101.455C47.617 101.486 47.6167 101.518 47.6246 101.549C47.6325 101.58 47.6482 101.609 47.6703 101.632C47.7963 101.773 48.1683 101.833 48.6843 101.803C48.4038 101.618 48.0946 101.482 47.7693 101.398Z" fill="#407BFF"/>
<path d="M48.8433 101.908C48.8433 101.908 48.8283 101.908 48.8223 101.908C48.5643 101.758 48.0753 101.209 48.1443 100.954C48.1623 100.894 48.2133 100.822 48.3633 100.822C48.4193 100.821 48.475 100.831 48.5267 100.853C48.5784 100.875 48.625 100.907 48.6633 100.948C48.9243 101.218 48.9153 101.848 48.9123 101.863C48.9126 101.872 48.9103 101.882 48.9055 101.89C48.9007 101.898 48.8937 101.904 48.8853 101.908C48.8718 101.913 48.8568 101.913 48.8433 101.908ZM48.3963 100.924H48.3633C48.2643 100.924 48.2553 100.96 48.2493 100.975C48.2103 101.128 48.5343 101.551 48.7953 101.749C48.7989 101.487 48.7225 101.231 48.5763 101.014C48.5284 100.964 48.4649 100.932 48.3963 100.924Z" fill="#407BFF"/>
<path d="M49.4433 41.113C48.5937 42.2478 47.6417 43.3023 46.5993 44.263C46.0479 44.7805 45.4447 45.2399 44.7993 45.634C44.419 45.8672 44.0094 46.0488 43.5813 46.174C43.3103 46.2523 43.0294 46.2907 42.7473 46.288C42.5788 46.2861 42.4109 46.267 42.2463 46.231C42.1623 46.21 42.0723 46.183 41.9883 46.153C41.8897 46.1185 41.7943 46.0754 41.7033 46.024C41.4912 45.9095 41.306 45.751 41.1603 45.559C41.0485 45.4172 40.9567 45.2607 40.8873 45.094C40.7845 44.8525 40.7149 44.5982 40.6803 44.338C40.6276 43.9353 40.6125 43.5285 40.6353 43.123C40.6853 42.4059 40.7855 41.6931 40.9353 40.99C41.2101 39.6341 41.5851 38.3004 42.0573 37L43.2993 37.321C43.1223 38.626 42.9573 39.958 42.8583 41.248C42.8039 41.8734 42.7879 42.5016 42.8103 43.129C42.8161 43.3967 42.8493 43.6631 42.9093 43.924C42.9239 43.9963 42.9492 44.0661 42.9843 44.131C43.0023 44.161 42.9843 44.068 42.8103 43.957C42.7473 43.927 42.7683 43.93 42.7533 43.927C42.8055 43.9151 42.8567 43.8991 42.9063 43.879C43.1178 43.7927 43.3191 43.683 43.5063 43.552C43.987 43.2088 44.4395 42.8275 44.8593 42.412C45.3063 41.977 45.7353 41.512 46.1583 41.023C46.5813 40.534 47.0043 40.036 47.3913 39.559L49.4433 41.113Z" fill="#B55B52"/>
<path d="M48.9423 37.81C48.0033 37.552 45.2163 41.11 45.2163 41.11L47.8803 44.083C47.8803 44.083 51.0033 41.263 50.8803 40C50.7633 38.68 50.3163 38.2 48.9423 37.81Z" fill="#407BFF"/>
<path d="M43.3322 37L43.2272 35.131L41.4272 36.613C41.4272 36.613 41.7002 38.062 42.6092 38.35L43.1702 37.561C43.2851 37.3972 43.3421 37.1998 43.3322 37Z" fill="#B55B52"/>
<path d="M42.0543 33.5891L40.6143 34.915L41.4243 36.607L43.2273 35.125L42.0543 33.5891Z" fill="#B55B52"/>
<path d="M41.3222 37.204L40.9052 37.054C40.7926 37.0117 40.6984 36.9311 40.6392 36.8264C40.58 36.7216 40.5595 36.5994 40.5812 36.4811L41.2142 33.1151L42.3512 33.529L42.0002 36.7811C41.9927 36.8579 41.9676 36.932 41.9269 36.9976C41.8862 37.0633 41.8309 37.1187 41.7654 37.1595C41.6999 37.2004 41.6258 37.2257 41.549 37.2334C41.4722 37.2411 41.3946 37.2311 41.3222 37.204Z" fill="#263238"/>
<path d="M44.3194 32.929C44.3914 32.734 44.4604 32.542 44.5234 32.35C44.2672 31.9371 43.9243 31.585 43.5184 31.318C43.3684 31.687 43.2184 32.074 43.0714 32.473C42.9244 32.872 42.7924 33.265 42.6724 33.646C43.1552 33.7019 43.6443 33.6528 44.1064 33.502C44.1784 33.313 44.2504 33.124 44.3194 32.929Z" fill="#263238"/>
<path d="M43.5661 32.656C43.7434 32.1887 43.8711 31.704 43.9471 31.21L40.2181 29.851L39.2041 32.638L42.9361 34C43.1921 33.575 43.4032 33.1246 43.5661 32.656Z" fill="#407BFF"/>
<path opacity="0.6" d="M43.5661 32.656C43.7434 32.1887 43.8711 31.704 43.9471 31.21L40.2181 29.851L39.2041 32.638L42.9361 34C43.1921 33.575 43.4032 33.1246 43.5661 32.656Z" fill="white"/>
<path d="M41.1872 29.944C41.0192 29.881 36.9872 25.744 36.5372 25.567C36.0872 25.39 34.9982 27.034 34.1942 29.242C33.3902 31.45 33.1382 33.382 33.6272 33.562C34.1162 33.742 39.8312 33.139 40.0022 33.199C40.1732 33.259 40.6292 32.599 40.9562 31.699C41.2832 30.799 41.4002 30.016 41.1872 29.944Z" fill="#407BFF"/>
<path opacity="0.4" d="M41.1872 29.944C41.0192 29.881 36.9872 25.744 36.5372 25.567C36.0872 25.39 34.9982 27.034 34.1942 29.242C33.3902 31.45 33.1382 33.382 33.6272 33.562C34.1162 33.742 39.8312 33.139 40.0022 33.199C40.1732 33.259 40.6292 32.599 40.9562 31.699C41.2832 30.799 41.4002 30.016 41.1872 29.944Z" fill="white"/>
<path d="M35.9702 29.887C35.1662 32.095 34.1162 33.739 33.6272 33.562C33.1382 33.385 33.3902 31.462 34.1942 29.242C34.9982 27.022 36.0482 25.39 36.5372 25.567C37.0262 25.744 36.7742 27.682 35.9702 29.887Z" fill="#407BFF"/>
<path d="M34.8 29.455C34.746 29.602 34.695 29.755 34.647 29.89C34.9238 30.2372 35.2625 30.5301 35.646 30.754C35.76 30.478 35.874 30.187 35.985 29.887C36.096 29.587 36.192 29.287 36.285 29.005C35.8474 28.9306 35.3999 28.9377 34.965 29.026C34.89 29.167 34.836 29.311 34.8 29.455Z" fill="#263238"/>
<path opacity="0.7" d="M34.8 29.455C34.746 29.602 34.695 29.755 34.647 29.89C34.9238 30.2372 35.2625 30.5301 35.646 30.754C35.76 30.478 35.874 30.187 35.985 29.887C36.096 29.587 36.192 29.287 36.285 29.005C35.8474 28.9306 35.3999 28.9377 34.965 29.026C34.89 29.167 34.836 29.311 34.8 29.455Z" fill="white"/>
<path opacity="0.2" d="M48.156 39.901C48.294 41.896 47.829 43.084 47.499 43.657L47.88 44.08C47.88 44.08 49.641 42.49 50.469 41.164C49.539 39.784 48 37.804 48.156 39.901Z" fill="black"/>
<path d="M58.6444 28.555C59.8953 28.555 60.9094 27.541 60.9094 26.29C60.9094 25.0391 59.8953 24.025 58.6444 24.025C57.3935 24.025 56.3794 25.0391 56.3794 26.29C56.3794 27.541 57.3935 28.555 58.6444 28.555Z" fill="#263238"/>
<path d="M58.4013 27.322C58.4019 27.604 58.3188 27.8798 58.1626 28.1145C58.0064 28.3493 57.784 28.5324 57.5237 28.6407C57.2633 28.749 56.9767 28.7777 56.7001 28.723C56.4235 28.6684 56.1693 28.5329 55.9697 28.3337C55.7701 28.1345 55.6341 27.8806 55.5789 27.6041C55.5236 27.3276 55.5517 27.041 55.6595 26.7804C55.7672 26.5198 55.9499 26.2971 56.1843 26.1404C56.4187 25.9837 56.6943 25.9 56.9763 25.9C57.3537 25.9 57.7157 26.0497 57.9828 26.3163C58.25 26.5829 58.4005 26.9446 58.4013 27.322Z" fill="#407BFF"/>
<path d="M52.4521 25.555C52.4521 25.555 49.4521 25.309 49.4521 30.469C49.4521 34.003 51.1682 35.638 53.2712 34.45C53.2712 34.45 57.9091 34.069 58.4431 29.824C58.9771 25.579 55.6951 23.998 52.4521 25.555Z" fill="#263238"/>
<path d="M48.3301 37.948C48.3301 37.948 47.2651 38.41 50.4301 51.685L59.7301 51.01C59.2981 47.236 59.13 44.905 60.369 37.006C59.0474 36.8319 57.715 36.7537 56.382 36.772C54.9687 36.772 53.5572 36.8723 52.158 37.072C50.355 37.378 48.3301 37.948 48.3301 37.948Z" fill="#407BFF"/>
<path d="M55.614 32.047C55.446 33.427 55.362 35.947 56.379 36.772C56.379 36.772 56.109 38.176 53.583 38.362C50.808 38.563 52.155 37.078 52.155 37.078C53.655 36.607 53.523 35.485 53.184 34.45L55.614 32.047Z" fill="#B55B52"/>
<path opacity="0.2" d="M54.6241 33.028L53.1841 34.45C53.2671 34.6902 53.3293 34.9371 53.3701 35.188C53.9431 35.062 54.6901 34.369 54.7081 33.76C54.725 33.5129 54.6965 33.2648 54.6241 33.028Z" fill="black"/>
<path d="M57.1681 29.7551C56.6491 31.9721 56.4751 32.9231 55.1461 33.8801C53.1481 35.3201 50.5381 34.195 50.3851 31.867C50.2471 29.767 51.1201 26.497 53.4691 25.978C53.9858 25.8619 54.5236 25.8797 55.0315 26.0299C55.5394 26.18 56.0005 26.4574 56.3711 26.8358C56.7417 27.2141 57.0094 27.6809 57.1489 28.1919C57.2884 28.7028 57.295 29.2409 57.1681 29.7551Z" fill="#B55B52"/>
<path d="M53.3434 29.74C53.3134 29.923 53.1904 30.04 53.0734 30.04C52.9564 30.04 52.8814 29.854 52.9114 29.671C52.9414 29.488 53.0674 29.371 53.1844 29.371C53.3014 29.371 53.3764 29.557 53.3434 29.74Z" fill="#263238"/>
<path d="M51.2823 29.389C51.2493 29.569 51.1293 29.689 51.0093 29.689C50.8893 29.689 50.8173 29.506 50.8503 29.323C50.8833 29.14 51.0033 29.023 51.1233 29.023C51.2433 29.023 51.3003 29.2 51.2823 29.389Z" fill="#263238"/>
<path d="M51.1743 29.041L50.7573 28.837C50.7573 28.837 50.9223 29.218 51.1743 29.041Z" fill="#263238"/>
<path d="M52.0082 29.824C51.7749 30.2133 51.4892 30.5686 51.1592 30.88C51.2412 30.9618 51.3401 31.0248 51.4488 31.0647C51.5576 31.1046 51.6737 31.1204 51.7892 31.111L52.0082 29.824Z" fill="#A02724"/>
<path d="M57.4262 31.9151C57.2022 32.295 56.8381 32.5718 56.4122 32.6861C55.8482 32.8301 55.5782 32.3201 55.7462 31.7861C55.8962 31.3121 56.3732 30.667 56.9462 30.754C57.0688 30.7771 57.1837 30.8304 57.2805 30.9091C57.3773 30.9877 57.4529 31.0893 57.5006 31.2046C57.5482 31.3198 57.5664 31.4452 57.5534 31.5692C57.5404 31.6933 57.4967 31.8122 57.4262 31.9151Z" fill="#B55B52"/>
<path d="M54.2434 29.461C54.2203 29.4606 54.1979 29.4528 54.1796 29.4388C54.1612 29.4248 54.1478 29.4052 54.1414 29.383C53.9944 28.903 53.3794 28.699 53.3734 28.696C53.3598 28.6915 53.3473 28.6843 53.3364 28.6749C53.3256 28.6655 53.3168 28.6541 53.3103 28.6413C53.3039 28.6285 53.3001 28.6145 53.2991 28.6002C53.2981 28.5859 53.2999 28.5716 53.3044 28.558C53.309 28.5444 53.3161 28.5318 53.3255 28.521C53.3349 28.5102 53.3463 28.5013 53.3591 28.4949C53.372 28.4885 53.3859 28.4847 53.4002 28.4837C53.4145 28.4827 53.4288 28.4845 53.4424 28.489C53.6425 28.5564 53.826 28.6652 53.9811 28.8084C54.1362 28.9516 54.2593 29.126 54.3424 29.32C54.3466 29.3336 54.348 29.3479 54.3467 29.362C54.3453 29.3762 54.3411 29.3899 54.3345 29.4024C54.3278 29.415 54.3187 29.4261 54.3077 29.4351C54.2967 29.4441 54.284 29.4509 54.2704 29.455C54.2619 29.4587 54.2527 29.4607 54.2434 29.461Z" fill="#263238"/>
<path d="M50.8232 28.33C50.8 28.3281 50.7781 28.3191 50.7604 28.304C50.7427 28.289 50.7301 28.2688 50.7245 28.2463C50.7189 28.2238 50.7204 28.2001 50.729 28.1785C50.7375 28.1569 50.7526 28.1386 50.7722 28.126C50.9198 28.0365 51.0868 27.9837 51.2591 27.9722C51.4314 27.9607 51.6039 27.9909 51.7622 28.06C51.775 28.0665 51.7864 28.0755 51.7957 28.0864C51.805 28.0973 51.8121 28.1099 51.8166 28.1236C51.8211 28.1372 51.8228 28.1516 51.8217 28.166C51.8206 28.1803 51.8167 28.1942 51.8102 28.207C51.8037 28.2198 51.7947 28.2312 51.7838 28.2406C51.7729 28.2499 51.7603 28.257 51.7466 28.2615C51.733 28.2659 51.7186 28.2677 51.7042 28.2665C51.6899 28.2654 51.676 28.2615 51.6632 28.255C51.5375 28.2012 51.4006 28.1786 51.2643 28.1891C51.128 28.1995 50.9962 28.2427 50.8802 28.315C50.8627 28.3246 50.8431 28.3297 50.8232 28.33Z" fill="#263238"/>
<path d="M53.2354 29.392L52.8184 29.191C52.8184 29.191 52.9864 29.572 53.2354 29.392Z" fill="#263238"/>
<path d="M51.9692 31.678C52.7323 31.5194 53.5089 31.435 54.2882 31.426C54.1112 31.951 53.7572 32.389 52.8782 32.422C52.769 32.4371 52.6578 32.4295 52.5517 32.3996C52.4455 32.3697 52.3467 32.3182 52.2614 32.2484C52.176 32.1786 52.1061 32.0918 52.0558 31.9937C52.0055 31.8956 51.976 31.7881 51.9692 31.678Z" fill="#263238"/>
<path d="M53.2652 31.999C52.9273 31.9964 52.5974 32.1014 52.3232 32.299C52.4903 32.3988 52.6843 32.4439 52.8782 32.428C53.2161 32.4306 53.5461 32.3256 53.8202 32.128C53.6541 32.026 53.4593 31.9808 53.2652 31.999Z" fill="#A02724"/>
<path d="M52.0474 31.66C52.0678 31.7224 52.1048 31.778 52.1545 31.8208C52.2042 31.8636 52.2647 31.8921 52.3294 31.903C52.8341 31.8762 53.3358 31.808 53.8294 31.699C53.9095 31.6892 53.9859 31.6593 54.0515 31.6121C54.117 31.5649 54.1696 31.5019 54.2044 31.429C53.4804 31.4498 52.7593 31.5271 52.0474 31.66Z" fill="white"/>
<path d="M50.7725 28.126C51.4553 27.8369 52.0494 27.3722 52.4945 26.779C52.4945 26.779 52.4945 28.375 53.1455 28.252C53.7965 28.129 52.8185 26.776 52.8185 26.776C52.8185 26.776 54.3185 27.442 54.8315 28.744C55.3445 30.046 55.9295 31.468 57.0845 31.114C58.2395 30.76 57.9845 27.07 56.2835 26.149L53.8835 25.717L53.1755 25.822C52.8078 25.8744 52.4553 26.0031 52.1405 26.2C51.6659 26.4911 51.2928 26.9218 51.0725 27.433L50.7725 28.126Z" fill="#263238"/>
<path d="M56.3731 28.318C56.2621 28.084 55.7311 28.105 55.1731 28.363C54.6151 28.621 54.606 28.864 54.717 29.098C54.828 29.332 55.0171 29.467 55.5751 29.209C56.1331 28.951 56.4841 28.552 56.3731 28.318ZM55.086 28.918C55.008 28.75 55.0231 28.579 55.4131 28.393C55.8031 28.207 56.184 28.195 56.262 28.363C56.34 28.531 56.091 28.816 55.701 28.999C55.311 29.182 55.167 29.095 55.086 28.927V28.918Z" fill="#407BFF"/>
<path opacity="0.2" d="M59.3402 40.084L58.6352 39.484L58.1132 39.721C57.932 41.5676 58.4021 43.4195 59.4422 44.956C59.4872 43.957 59.5802 42.832 59.7422 41.488C59.5202 40.678 59.3402 40.084 59.3402 40.084Z" fill="black"/>
<path d="M68.8441 47.395L68.4631 47.434L68.2831 45.715C68.2288 45.1433 68.3929 44.5721 68.7424 44.1164C69.0919 43.6606 69.6009 43.354 70.1671 43.258C70.4409 43.2118 70.7212 43.2225 70.9907 43.2894C71.2602 43.3563 71.5129 43.478 71.7333 43.6469C71.9537 43.8158 72.1369 44.0282 72.2716 44.271C72.4063 44.5138 72.4895 44.7817 72.5161 45.058L72.6991 46.777L72.3181 46.819L72.1381 45.097C72.1161 44.8718 72.0484 44.6535 71.939 44.4554C71.8296 44.2573 71.681 44.0836 71.5021 43.945C71.3229 43.8072 71.1172 43.7078 70.8978 43.6531C70.6784 43.5984 70.4501 43.5895 70.2271 43.627C69.7571 43.7067 69.3346 43.9614 69.0447 44.3398C68.7547 44.7183 68.6188 45.1924 68.6641 45.667L68.8441 47.395Z" fill="#263238"/>
<path d="M61.7734 39.7C61.8274 39.958 61.8994 40.276 61.9684 40.567C62.0374 40.858 62.1184 41.167 62.2024 41.467C62.3704 42.067 62.5474 42.646 62.7604 43.213C63.1438 44.3172 63.6887 45.3585 64.3774 46.303L64.4404 46.384L64.4704 46.426L64.4344 46.39C64.3864 46.348 64.3302 46.3164 64.2694 46.297C64.1794 46.273 64.1824 46.297 64.2424 46.297C64.4551 46.2859 64.6646 46.2413 64.8634 46.165C65.4187 45.9623 65.9565 45.7144 66.4714 45.424C67.5604 44.824 68.6614 44.14 69.7264 43.447L70.5574 44.425C69.6232 45.3961 68.6075 46.2854 67.5214 47.083C66.9456 47.508 66.3308 47.8777 65.6854 48.187C65.2877 48.3779 64.8626 48.5054 64.4254 48.565C64.0905 48.6062 63.7506 48.5692 63.4324 48.457C63.2203 48.3783 63.0248 48.2602 62.8564 48.109C62.8144 48.07 62.7694 48.028 62.7334 47.989L62.6854 47.938L62.5894 47.833C62.0955 47.2869 61.6629 46.6884 61.2994 46.048C60.9449 45.4362 60.6351 44.7995 60.3724 44.143C60.1144 43.494 59.8901 42.8322 59.7004 42.16C59.6074 41.83 59.5204 41.497 59.4424 41.161C59.3644 40.825 59.2924 40.498 59.2324 40.114L61.7734 39.7Z" fill="#B55B52"/>
<path d="M60.3661 37C61.3171 37.216 62.9821 40.654 62.9821 40.654L59.2441 43.189C59.2441 43.189 57.7441 40.606 58.0441 39.373C58.3501 38.095 59.2801 36.76 60.3661 37Z" fill="#407BFF"/>
<path d="M69.57 43.432L71.742 42.232L71.286 44.521C71.286 44.521 69.882 44.968 69.186 44.302L69.57 43.432Z" fill="#B55B52"/>
<path d="M73.6471 42.541L73.1611 44.44L71.2861 44.524L71.7421 42.235L73.6471 42.541Z" fill="#B55B52"/>
<path d="M74.5594 46.489L74.1994 44.797C74.096 44.3319 73.8206 43.923 73.4283 43.6526C73.0359 43.3821 72.5558 43.2701 72.0844 43.339C71.8603 43.3719 71.6454 43.4507 71.4532 43.5706C71.261 43.6904 71.0956 43.8486 70.9674 44.0354C70.8393 44.2221 70.7511 44.4334 70.7084 44.6558C70.6657 44.8782 70.6694 45.1071 70.7194 45.328L71.0794 47.02L70.7074 47.101L70.3474 45.409C70.2862 45.1375 70.2816 44.8563 70.3341 44.583C70.3866 44.3097 70.495 44.0501 70.6524 43.8206C70.8098 43.5911 71.0129 43.3966 71.249 43.2492C71.4851 43.1018 71.749 43.0047 72.0244 42.964C72.5925 42.8806 73.1711 43.0151 73.6441 43.3407C74.1171 43.6662 74.4494 44.1586 74.5744 44.719L74.9344 46.411L74.5594 46.489Z" fill="#263238"/>
<g opacity="0.3">
<path d="M74.5594 46.489L74.1994 44.797C74.096 44.3319 73.8206 43.923 73.4283 43.6526C73.0359 43.3821 72.5558 43.2701 72.0844 43.339C71.8603 43.3719 71.6454 43.4507 71.4532 43.5706C71.261 43.6904 71.0956 43.8486 70.9674 44.0354C70.8393 44.2221 70.7511 44.4334 70.7084 44.6558C70.6657 44.8782 70.6694 45.1071 70.7194 45.328L71.0794 47.02L70.7074 47.101L70.3474 45.409C70.2862 45.1375 70.2816 44.8563 70.3341 44.583C70.3866 44.3097 70.495 44.0501 70.6524 43.8206C70.8098 43.5911 71.0129 43.3966 71.249 43.2492C71.4851 43.1018 71.749 43.0047 72.0244 42.964C72.5925 42.8806 73.1711 43.0151 73.6441 43.3407C74.1171 43.6662 74.4494 44.1586 74.5744 44.719L74.9344 46.411L74.5594 46.489Z" fill="white"/>
</g>
<path d="M76.7974 45.358L65.6704 47.119L67.3834 60.379L68.9734 59.74L70.6834 59.857L79.2634 58.498L76.7974 45.358Z" fill="#407BFF"/>
<path opacity="0.6" d="M76.7974 45.358L65.6704 47.119L67.3834 60.379L68.9734 59.74L70.6834 59.857L79.2634 58.498L76.7974 45.358Z" fill="white"/>
<path d="M70.6834 59.857L68.9734 59.74L67.3834 60.379L65.6704 47.119L68.2144 46.717L70.6834 59.857Z" fill="#407BFF"/>
<path opacity="0.3" d="M70.6834 59.857L68.9734 59.74L67.3834 60.379L65.6704 47.119L68.2144 46.717L70.6834 59.857Z" fill="white"/>
<path d="M75.7039 51.0698L71.1022 51.7986C70.8551 51.8377 70.6865 52.0698 70.7256 52.3169L70.7322 52.3583C70.7714 52.6055 71.0034 52.774 71.2505 52.7349L75.8522 52.0061C76.0993 51.9669 76.2678 51.7349 76.2287 51.4878L76.2221 51.4463C76.183 51.1992 75.951 51.0306 75.7039 51.0698Z" fill="white"/>
</svg>
