<svg width="110" height="110" viewBox="0 0 110 110" fill="none" xmlns="http://www.w3.org/2000/svg">
<path d="M110 84.128H0V84.183H110V84.128Z" fill="#EBEBEB"/>
<path d="M98.9778 87.6678H91.6914V87.7228H98.9778V87.6678Z" fill="#EBEBEB"/>
<path d="M88.9219 87.6678H73.3438V87.7228H88.9219V87.6678Z" fill="#EBEBEB"/>
<path d="M64.7526 85.6262H60.5308V85.6812H64.7526V85.6262Z" fill="#EBEBEB"/>
<path d="M19.0848 85.9958H11.541V86.0508H19.0848V85.9958Z" fill="#EBEBEB"/>
<path d="M34.76 85.9958H21.043V86.0508H34.76V85.9958Z" fill="#EBEBEB"/>
<path d="M49.5308 86.9242H41.4326V86.9792H49.5308V86.9242Z" fill="#EBEBEB"/>
<path d="M52.1401 74.316H9.66025C9.32747 74.3154 9.00851 74.1828 8.7734 73.9473C8.5383 73.7118 8.40625 73.3926 8.40625 73.0598V13.3452C8.40915 13.0143 8.54247 12.698 8.77727 12.4648C9.01206 12.2317 9.32936 12.1006 9.66025 12.1H52.1401C52.4732 12.1 52.7927 12.2324 53.0283 12.4679C53.2639 12.7035 53.3963 13.023 53.3963 13.3562V73.0598C53.3963 73.393 53.2639 73.7125 53.0283 73.9481C52.7927 74.1837 52.4732 74.316 52.1401 74.316ZM9.66025 12.144C9.34205 12.1446 9.03709 12.2714 8.8123 12.4966C8.5875 12.7218 8.46125 13.027 8.46125 13.3452V73.0598C8.46125 73.378 8.5875 73.6832 8.8123 73.9084C9.03709 74.1336 9.34205 74.2604 9.66025 74.261H52.1401C52.4585 74.2604 52.7636 74.1337 52.9888 73.9085C53.2139 73.6834 53.3407 73.3782 53.3413 73.0598V13.3452C53.3407 13.0268 53.2139 12.7216 52.9888 12.4965C52.7636 12.2713 52.4585 12.1446 52.1401 12.144H9.66025Z" fill="#EBEBEB"/>
<path d="M99.7284 74.316H57.2464C56.9134 74.3154 56.5943 74.1829 56.3588 73.9474C56.1234 73.712 55.9908 73.3928 55.9902 73.0598V13.3452C55.9937 13.0141 56.1275 12.6978 56.3627 12.4647C56.5978 12.2316 56.9153 12.1006 57.2464 12.1H99.7284C100.059 12.1012 100.376 12.2325 100.61 12.4656C100.844 12.6987 100.977 13.0147 100.98 13.3452V73.0598C100.98 73.3922 100.848 73.7111 100.614 73.9465C100.379 74.182 100.061 74.3148 99.7284 74.316ZM57.2464 12.144C56.928 12.1446 56.6228 12.2713 56.3977 12.4965C56.1726 12.7216 56.0458 13.0268 56.0452 13.3452V73.0598C56.0458 73.3782 56.1726 73.6834 56.3977 73.9085C56.6228 74.1337 56.928 74.2604 57.2464 74.261H99.7284C100.047 74.2604 100.352 74.1337 100.577 73.9085C100.802 73.6834 100.929 73.3782 100.93 73.0598V13.3452C100.929 13.0268 100.802 12.7216 100.577 12.4965C100.352 12.2713 100.047 12.1446 99.7284 12.144H57.2464Z" fill="#EBEBEB"/>
<path d="M74.1378 82.8916H78.21V53.2862H74.1378V82.8916Z" fill="#F0F0F0"/>
<path d="M32.5712 84.1258H77.4292V82.8916H32.5712V84.1258Z" fill="#F0F0F0"/>
<path d="M74.1376 53.2884H31.7876V82.8938H74.1376V53.2884Z" fill="#F5F5F5"/>
<path d="M74.1378 53.2884H78.21V52.2104H74.1378V53.2884Z" fill="#E6E6E6"/>
<path d="M74.1376 52.2104H31.7876V53.2884H74.1376V52.2104Z" fill="#F0F0F0"/>
<path d="M72.6747 62.216H33.2529V55.55H72.6747V62.216ZM33.5257 61.941H72.4019V55.825H33.5257V61.941Z" fill="#E0E0E0"/>
<path d="M72.6747 80.63H33.2529V63.8506H72.6747V80.63ZM33.5257 80.3572H72.4019V64.1234H33.5257V80.3572Z" fill="#E0E0E0"/>
<path d="M38.5636 56.5642H67.3638V55.6886H38.5636V56.5642Z" fill="#E0E0E0"/>
<path d="M38.5636 64.8626H67.3638V63.987H38.5636V64.8626Z" fill="#E0E0E0"/>
<path d="M92.5981 83.3426C92.5115 83.342 92.4287 83.3072 92.3677 83.2458C92.3067 83.1844 92.2725 83.1014 92.2725 83.0148V32.1772C92.2725 32.0909 92.3068 32.008 92.3678 31.947C92.4289 31.8859 92.5117 31.8516 92.5981 31.8516C92.6844 31.8516 92.7672 31.8859 92.8283 31.947C92.8894 32.008 92.9237 32.0909 92.9237 32.1772V83.0148C92.9237 83.1014 92.8894 83.1844 92.8284 83.2458C92.7674 83.3072 92.6846 83.342 92.5981 83.3426Z" fill="#F5F5F5"/>
<path d="M91.9425 82.555H93.2625C93.4994 82.555 93.7266 82.6491 93.8941 82.8166C94.0616 82.9841 94.1557 83.2113 94.1557 83.4482V84.1258H91.0493V83.4482C91.0493 83.2113 91.1434 82.9841 91.3109 82.8166C91.4784 82.6491 91.7056 82.555 91.9425 82.555Z" fill="#F0F0F0"/>
<path d="M86.271 38.94C86.271 38.94 86.4316 32.7184 92.5982 32.7184C98.7648 32.7184 98.9276 38.94 98.9276 38.94H86.271Z" fill="#E0E0E0"/>
<path d="M17.402 83.3426C17.3151 83.3426 17.2317 83.3081 17.1702 83.2466C17.1088 83.1851 17.0742 83.1017 17.0742 83.0148V32.1772C17.0748 32.0907 17.1096 32.0078 17.171 31.9468C17.2324 31.8858 17.3155 31.8516 17.402 31.8516C17.4884 31.8516 17.5712 31.8859 17.6323 31.947C17.6933 32.008 17.7276 32.0909 17.7276 32.1772V83.0148C17.7276 83.1014 17.6934 83.1844 17.6324 83.2458C17.5714 83.3072 17.4886 83.342 17.402 83.3426Z" fill="#F5F5F5"/>
<path d="M16.7462 82.555H18.0662C18.3031 82.555 18.5303 82.6491 18.6978 82.8166C18.8653 82.9841 18.9594 83.2113 18.9594 83.4482V84.1258H15.853V83.4482C15.853 83.3309 15.8761 83.2148 15.921 83.1064C15.9659 82.998 16.0317 82.8996 16.1146 82.8166C16.1976 82.7337 16.296 82.6679 16.4044 82.623C16.5128 82.5781 16.6289 82.555 16.7462 82.555Z" fill="#F0F0F0"/>
<path d="M11.0728 38.94C11.0728 38.94 11.2334 32.7184 17.4022 32.7184C23.571 32.7184 23.7294 38.94 23.7294 38.94H11.0728Z" fill="#E0E0E0"/>
<path d="M62.9311 51.744H47.2803V52.2104H62.9311V51.744Z" fill="#E0E0E0"/>
<path d="M62.9311 51.744H47.2803L48.7851 42.7834H64.4359L62.9311 51.744Z" fill="#E0E0E0"/>
<path d="M62.6405 51.744H46.9897L48.4945 42.7834H64.1453L62.6405 51.744Z" fill="#EBEBEB"/>
<path d="M47.5837 51.04L48.8641 43.4214C48.8715 43.3744 48.8956 43.3316 48.9319 43.3009C48.9683 43.2702 49.0145 43.2536 49.0621 43.2542H63.3621C63.3912 43.2541 63.42 43.2604 63.4465 43.2726C63.4729 43.2848 63.4964 43.3026 63.5152 43.3248C63.5341 43.347 63.5479 43.3731 63.5556 43.4012C63.5634 43.4293 63.5649 43.4587 63.5601 43.4874L62.2797 51.106C62.2719 51.153 62.2478 51.1958 62.2116 51.2268C62.1754 51.2578 62.1294 51.275 62.0817 51.2754H47.7817C47.7523 51.2755 47.7233 51.2692 47.6967 51.2569C47.67 51.2446 47.6464 51.2265 47.6276 51.2041C47.6087 51.1816 47.5949 51.1553 47.5874 51.1269C47.5798 51.0986 47.5785 51.0689 47.5837 51.04Z" fill="#FAFAFA"/>
<path d="M59.3891 51.744H43.7383V52.2104H59.3891V51.744Z" fill="#F0F0F0"/>
<path d="M75.4358 19.3072H33.9702V32.7096H75.4358V19.3072Z" fill="#EBEBEB"/>
<path d="M75.4358 32.7074H76.0298V19.305H75.4358V32.7074Z" fill="#E0E0E0"/>
<path d="M73.6186 21.1222H35.7852V30.8924H73.6186V21.1222Z" fill="white"/>
<path d="M56.9801 26.0076L54.7026 23.7301L52.4252 26.0076L54.7026 28.285L56.9801 26.0076Z" fill="#F5F5F5"/>
<path d="M50.8663 26.0075L48.5889 23.73L46.3114 26.0075L48.5889 28.2849L50.8663 26.0075Z" fill="#F5F5F5"/>
<path d="M44.7521 26.0074L42.4746 23.7299L40.1972 26.0074L42.4746 28.2848L44.7521 26.0074Z" fill="#F5F5F5"/>
<path d="M63.0939 26.0077L60.8164 23.7302L58.539 26.0077L60.8164 28.2851L63.0939 26.0077Z" fill="#F5F5F5"/>
<path d="M69.2076 26.0078L66.9302 23.7303L64.6527 26.0078L66.9302 28.2852L69.2076 26.0078Z" fill="#F5F5F5"/>
<path d="M55 94.0632C78.5582 94.0632 97.6558 92.9482 97.6558 91.5728C97.6558 90.1974 78.5582 89.0824 55 89.0824C31.4419 89.0824 12.3442 90.1974 12.3442 91.5728C12.3442 92.9482 31.4419 94.0632 55 94.0632Z" fill="#F5F5F5"/>
<path d="M79.8466 27.071C79.8669 26.8166 79.8338 26.5609 79.7496 26.32C79.6653 26.0791 79.5318 25.8585 79.3575 25.6721C79.1831 25.4858 78.9719 25.3379 78.7371 25.2378C78.5024 25.1378 78.2494 25.0878 77.9942 25.091H47.5396C47.004 25.0986 46.4905 25.3058 46.0995 25.6719C45.7085 26.0381 45.4681 26.537 45.4254 27.071L44.7258 37.62L40.3412 70.0502C40.2985 70.2971 40.3111 70.5504 40.3781 70.7918C40.4452 71.0333 40.565 71.2568 40.729 71.4462C40.893 71.6357 41.097 71.7864 41.3264 71.8874C41.5557 71.9883 41.8046 72.0371 42.055 72.0302H72.5118C73.0594 72.0156 73.5844 71.8095 73.9957 71.4477C74.4069 71.0859 74.6782 70.5914 74.7624 70.0502L79.147 37.62L79.8466 27.071Z" fill="#407BFF"/>
<path opacity="0.2" d="M79.8466 27.071C79.8669 26.8166 79.8338 26.5609 79.7496 26.32C79.6653 26.0791 79.5318 25.8585 79.3575 25.6721C79.1831 25.4858 78.9719 25.3379 78.7371 25.2378C78.5024 25.1378 78.2494 25.0878 77.9942 25.091H47.5396C47.004 25.0986 46.4905 25.3058 46.0995 25.6719C45.7085 26.0381 45.4681 26.537 45.4254 27.071L44.7258 37.62L40.3412 70.0502C40.2985 70.2971 40.3111 70.5504 40.3781 70.7918C40.4452 71.0333 40.565 71.2568 40.729 71.4462C40.893 71.6357 41.097 71.7864 41.3264 71.8874C41.5557 71.9883 41.8046 72.0371 42.055 72.0302H72.5118C73.0594 72.0156 73.5844 71.8095 73.9957 71.4477C74.4069 71.0859 74.6782 70.5914 74.7624 70.0502L79.147 37.62L79.8466 27.071Z" fill="black"/>
<path d="M71.4274 72.0324H40.9706C40.7203 72.039 40.4716 71.9899 40.2425 71.8888C40.0133 71.7877 39.8095 71.637 39.6456 71.4476C39.4817 71.2583 39.3618 71.0349 39.2946 70.7937C39.2274 70.5524 39.2145 70.2992 39.2568 70.0524L43.6414 37.62H78.0626L73.678 70.0502C73.5943 70.5918 73.3231 71.0868 72.9119 71.4491C72.5006 71.8113 71.9753 72.0177 71.4274 72.0324Z" fill="#407BFF"/>
<path d="M52.0676 24.3166H47.5312V24.5366H52.0676V24.3166Z" fill="#407BFF"/>
<path d="M45.3859 24.772L45.2935 24.5718C45.6577 24.404 46.054 24.3169 46.4551 24.3166V24.5366C46.0858 24.5369 45.7211 24.6172 45.3859 24.772Z" fill="#407BFF"/>
<path d="M76.9122 25.08H46.4554C45.9198 25.0876 45.4062 25.2948 45.0152 25.6609C44.6242 26.0271 44.3839 26.526 44.3412 27.06L43.6416 37.62H78.0628L78.7602 27.071C78.7823 26.8161 78.7508 26.5593 78.6677 26.3173C78.5846 26.0753 78.4517 25.8533 78.2777 25.6658C78.1036 25.4782 77.8921 25.3292 77.657 25.2283C77.4218 25.1274 77.1681 25.0769 76.9122 25.08Z" fill="#407BFF"/>
<path opacity="0.9" d="M45.3419 35.0372L45.8303 27.6606C45.8528 27.3794 45.9793 27.1167 46.1852 26.9238C46.3911 26.731 46.6615 26.6218 46.9435 26.6178H76.219C76.3534 26.6158 76.4867 26.642 76.6104 26.6946C76.7341 26.7472 76.8454 26.8251 76.9372 26.9233C77.029 27.0216 77.0992 27.1379 77.1434 27.2649C77.1875 27.3918 77.2046 27.5266 77.1935 27.6606L76.7051 35.0372C76.6822 35.3182 76.5556 35.5807 76.3498 35.7734C76.144 35.9662 75.8739 36.0755 75.5919 36.08H46.3165C46.1822 36.0817 46.049 36.0553 45.9255 36.0025C45.802 35.9498 45.6908 35.8719 45.5991 35.7737C45.5073 35.6756 45.4371 35.5594 45.3928 35.4326C45.3486 35.3058 45.3312 35.1711 45.3419 35.0372Z" fill="white"/>
<g opacity="0.4">
<path d="M74.1092 27.8256L73.777 28.1358C73.7689 28.1437 73.7592 28.1499 73.7486 28.1541C73.7381 28.1582 73.7268 28.1602 73.7154 28.16H71.9554C71.943 28.1603 71.9307 28.1579 71.9193 28.153C71.9079 28.148 71.8977 28.1407 71.8894 28.1314L71.6034 27.8234C71.5914 27.8106 71.5834 27.7945 71.5804 27.7771C71.5774 27.7598 71.5796 27.742 71.5866 27.7258C71.5936 27.7097 71.6052 27.696 71.6199 27.6863C71.6346 27.6767 71.6518 27.6716 71.6694 27.6716H74.052C74.0698 27.6718 74.0871 27.6774 74.1017 27.6876C74.1162 27.6979 74.1273 27.7123 74.1335 27.729C74.1397 27.7456 74.1407 27.7638 74.1364 27.781C74.132 27.7983 74.1226 27.8138 74.1092 27.8256Z" fill="#407BFF"/>
<path d="M73.6428 33.5434H71.2602C71.2421 33.5434 71.2244 33.538 71.2094 33.5278C71.1944 33.5176 71.1829 33.5032 71.1762 33.4863C71.1696 33.4694 71.1681 33.451 71.1721 33.4333C71.1761 33.4156 71.1854 33.3996 71.1986 33.3872L71.5286 33.0792C71.5456 33.064 71.5675 33.0554 71.5902 33.055H73.3502C73.3629 33.0547 73.3754 33.0573 73.3869 33.0626C73.3983 33.068 73.4084 33.0759 73.4162 33.0858L73.7044 33.3938C73.7156 33.4064 73.7229 33.4219 73.7257 33.4385C73.7285 33.4551 73.7266 33.4722 73.7201 33.4878C73.7137 33.5033 73.7031 33.5168 73.6894 33.5266C73.6758 33.5365 73.6596 33.5423 73.6428 33.5434Z" fill="#407BFF"/>
<path d="M73.8738 30.668L73.7044 30.8286C73.6875 30.8438 73.6656 30.8524 73.6428 30.8528H71.577C71.5648 30.8525 71.5527 30.8498 71.5416 30.8447C71.5304 30.8396 71.5205 30.8324 71.5122 30.8233C71.504 30.8142 71.4977 30.8036 71.4937 30.792C71.4897 30.7805 71.4881 30.7682 71.489 30.756L71.511 30.4458C71.5127 30.423 71.5229 30.4018 71.5397 30.3863C71.5564 30.3707 71.5784 30.3621 71.6012 30.3622H73.6736C73.686 30.3621 73.6983 30.3645 73.7097 30.3695C73.721 30.3744 73.7312 30.3817 73.7396 30.3908L73.8804 30.5426C73.8883 30.5512 73.8944 30.5613 73.8984 30.5723C73.9023 30.5833 73.904 30.595 73.9034 30.6067C73.9028 30.6184 73.8999 30.6298 73.8948 30.6403C73.8897 30.6509 73.8826 30.6603 73.8738 30.668Z" fill="#407BFF"/>
<path d="M74.1553 30.8374L73.9815 33.22C73.9799 33.2374 73.9733 33.2539 73.9625 33.2676C73.9517 33.2813 73.9371 33.2916 73.9206 33.2972C73.904 33.3028 73.8862 33.3034 73.8693 33.2991C73.8524 33.2948 73.8371 33.2856 73.8253 33.2728L73.5415 32.9648C73.533 32.9557 73.5264 32.945 73.5223 32.9332C73.5181 32.9215 73.5164 32.909 73.5173 32.8966L73.6471 31.1256C73.6475 31.1143 73.6502 31.1031 73.6551 31.0929C73.6601 31.0826 73.6671 31.0736 73.6757 31.0662L74.0057 30.7582C74.0195 30.7459 74.0366 30.7381 74.055 30.7358C74.0733 30.7336 74.0918 30.737 74.1081 30.7457C74.1244 30.7543 74.1377 30.7677 74.1461 30.7841C74.1546 30.8005 74.1578 30.8191 74.1553 30.8374Z" fill="#407BFF"/>
<path d="M74.3599 28.0104L74.1861 30.3996C74.1849 30.4172 74.1786 30.434 74.1679 30.448C74.1572 30.462 74.1427 30.4726 74.1261 30.4784C74.1095 30.4843 74.0915 30.4851 74.0744 30.4809C74.0574 30.4767 74.0419 30.4675 74.0299 30.4546L73.7439 30.1444C73.7361 30.1354 73.7301 30.1249 73.7263 30.1136C73.7225 30.1023 73.721 30.0903 73.7219 30.0784L73.8495 28.3074C73.8516 28.2848 73.8618 28.2637 73.8781 28.248L74.2081 27.9378C74.2214 27.9253 74.2381 27.9171 74.2561 27.9143C74.2741 27.9115 74.2925 27.9142 74.3089 27.9221C74.3253 27.9299 74.339 27.9426 74.3481 27.9583C74.3572 27.9741 74.3613 27.9922 74.3599 28.0104Z" fill="#407BFF"/>
</g>
<path opacity="0.4" d="M70.2946 34.54C70.3016 34.4579 70.3388 34.3812 70.3989 34.3248C70.459 34.2683 70.5378 34.2361 70.6202 34.2342H74.3602C74.4039 34.2338 74.4472 34.2424 74.4874 34.2596C74.5276 34.2767 74.5639 34.302 74.5938 34.3338C74.6238 34.3656 74.6468 34.4033 74.6615 34.4445C74.6762 34.4856 74.6822 34.5294 74.6792 34.573C74.6721 34.6555 74.6347 34.7325 74.5741 34.789C74.5136 34.8455 74.4342 34.8775 74.3514 34.8788H70.6202C70.5758 34.8808 70.5314 34.8734 70.4901 34.8569C70.4488 34.8404 70.4114 34.8153 70.3806 34.7832C70.3498 34.7511 70.3262 34.7128 70.3113 34.6709C70.2965 34.629 70.2908 34.5843 70.2946 34.54Z" fill="#407BFF"/>
<path opacity="0.4" d="M65.6173 34.54C65.6244 34.4579 65.6615 34.3812 65.7216 34.3248C65.7817 34.2683 65.8605 34.2361 65.9429 34.2342H69.6829C69.7266 34.2338 69.77 34.2424 69.8102 34.2596C69.8504 34.2767 69.8866 34.302 69.9165 34.3338C69.9465 34.3656 69.9696 34.4033 69.9843 34.4445C69.9989 34.4856 70.005 34.5294 70.0019 34.573C69.9949 34.6555 69.9574 34.7325 69.8969 34.789C69.8363 34.8455 69.7569 34.8775 69.6741 34.8788H65.9341C65.8904 34.8796 65.847 34.8712 65.8068 34.8541C65.7665 34.8371 65.7303 34.8118 65.7004 34.7798C65.6706 34.7479 65.6477 34.71 65.6334 34.6687C65.6191 34.6274 65.6136 34.5836 65.6173 34.54Z" fill="#407BFF"/>
<path opacity="0.4" d="M60.9401 34.54C60.9471 34.4579 60.9842 34.3812 61.0443 34.3248C61.1044 34.2683 61.1833 34.2361 61.2657 34.2342H65.0057C65.0492 34.2341 65.0923 34.243 65.1322 34.2602C65.1722 34.2775 65.2081 34.3028 65.2378 34.3346C65.2676 34.3664 65.2904 34.404 65.305 34.445C65.3196 34.486 65.3255 34.5296 65.3225 34.573C65.3159 34.6557 65.2786 34.7329 65.2179 34.7895C65.1573 34.8461 65.0776 34.878 64.9947 34.8788H61.2547C61.2112 34.8793 61.168 34.8706 61.128 34.8534C61.088 34.8363 61.0521 34.8109 61.0224 34.779C60.9928 34.7471 60.9702 34.7094 60.956 34.6682C60.9418 34.627 60.9364 34.5834 60.9401 34.54Z" fill="#407BFF"/>
<path opacity="0.4" d="M56.2628 34.54C56.2699 34.4579 56.307 34.3812 56.3671 34.3248C56.4272 34.2683 56.506 34.2361 56.5884 34.2342H60.3284C60.372 34.2341 60.415 34.243 60.455 34.2602C60.4949 34.2775 60.5309 34.3028 60.5606 34.3346C60.5903 34.3664 60.6132 34.404 60.6277 34.445C60.6423 34.486 60.6483 34.5296 60.6452 34.573C60.6386 34.6557 60.6014 34.7329 60.5407 34.7895C60.48 34.8461 60.4004 34.878 60.3174 34.8788H56.5774C56.5339 34.8793 56.4908 34.8706 56.4508 34.8534C56.4108 34.8363 56.3748 34.8109 56.3452 34.779C56.3156 34.7471 56.2929 34.7094 56.2788 34.6682C56.2646 34.627 56.2592 34.5834 56.2628 34.54Z" fill="#407BFF"/>
<path opacity="0.1" d="M45.9339 52.6614L47.3111 42.482C47.3625 42.1484 47.5294 41.8434 47.7827 41.6202C48.036 41.3971 48.3596 41.27 48.6971 41.261H58.8765C59.0309 41.2568 59.1843 41.2869 59.3257 41.3492C59.467 41.4115 59.5928 41.5044 59.6938 41.6213C59.7949 41.7381 59.8687 41.8759 59.91 42.0248C59.9512 42.1737 59.9589 42.3298 59.9325 42.482L58.5553 52.6614C58.5043 52.9949 58.3378 53.2998 58.0849 53.523C57.832 53.7462 57.5087 53.8734 57.1715 53.8824H46.9899C46.8354 53.8866 46.682 53.8565 46.5407 53.7942C46.3993 53.7319 46.2736 53.639 46.1725 53.5222C46.0715 53.4053 45.9976 53.2675 45.9564 53.1186C45.9151 52.9698 45.9074 52.8136 45.9339 52.6614Z" fill="#263238"/>
<path opacity="0.1" d="M60.4362 52.6614L61.82 42.482C61.8715 42.1484 62.0384 41.8434 62.2917 41.6202C62.545 41.3971 62.8686 41.2699 63.206 41.261H73.3854C73.54 41.2564 73.6936 41.2862 73.8351 41.3484C73.9767 41.4106 74.1026 41.5035 74.2037 41.6204C74.3049 41.7374 74.3787 41.8754 74.4198 42.0244C74.4609 42.1734 74.4683 42.3297 74.4414 42.482L73.0664 52.6614C73.0146 52.9949 72.8476 53.2996 72.5944 53.5227C72.3411 53.7457 72.0178 53.873 71.6804 53.8824H61.49C61.3357 53.8867 61.1823 53.8566 61.041 53.7943C60.8998 53.732 60.7741 53.639 60.6732 53.5221C60.5724 53.4052 60.4987 53.2673 60.4577 53.1185C60.4168 52.9696 60.4094 52.8135 60.4362 52.6614Z" fill="#263238"/>
<path opacity="0.1" d="M43.9736 67.1638L45.3508 56.98C45.4027 56.6465 45.5697 56.3418 45.8229 56.1187C46.0761 55.8957 46.3995 55.7684 46.7368 55.759H56.9162C57.0706 55.7548 57.2241 55.7849 57.3654 55.8472C57.5068 55.9095 57.6325 56.0024 57.7336 56.1193C57.8346 56.2361 57.9085 56.3739 57.9497 56.5228C57.991 56.6716 57.9987 56.8278 57.9722 56.98L56.595 67.1616C56.5436 67.4946 56.3769 67.7991 56.124 68.0218C55.8712 68.2446 55.5481 68.3715 55.2112 68.3804H45.0296C44.8757 68.3845 44.7227 68.3545 44.5817 68.2924C44.4407 68.2304 44.3152 68.1379 44.2143 68.0215C44.1133 67.9052 44.0394 67.768 43.9977 67.6197C43.9561 67.4713 43.9479 67.3157 43.9736 67.1638Z" fill="#263238"/>
<path opacity="0.1" d="M58.476 67.1638L59.851 56.98C59.9028 56.6465 60.0699 56.3418 60.3231 56.1187C60.5763 55.8957 60.8997 55.7684 61.237 55.759H71.4164C71.5708 55.7548 71.7242 55.7849 71.8656 55.8472C72.0069 55.9095 72.1327 56.0024 72.2337 56.1193C72.3348 56.2361 72.4086 56.3739 72.4499 56.5228C72.4912 56.6716 72.4989 56.8278 72.4724 56.98L71.0974 67.1616C71.0451 67.4947 70.8779 67.7989 70.6247 68.0215C70.3715 68.2441 70.0484 68.3711 69.7114 68.3804H59.5298C59.3759 68.3846 59.223 68.3546 59.0821 68.2925C58.9412 68.2304 58.8158 68.1379 58.715 68.0215C58.6142 67.9051 58.5405 67.7678 58.4991 67.6195C58.4578 67.4712 58.4499 67.3155 58.476 67.1638Z" fill="#263238"/>
<path d="M45.2561 52.6614L46.6399 42.482C46.6913 42.1484 46.8583 41.8434 47.1116 41.6202C47.3649 41.3971 47.6885 41.27 48.0259 41.261H58.2053C58.3597 41.2568 58.5132 41.2869 58.6545 41.3492C58.7959 41.4115 58.9216 41.5044 59.0227 41.6213C59.1237 41.7381 59.1975 41.8759 59.2388 42.0248C59.2801 42.1737 59.2878 42.3298 59.2613 42.482L57.8841 52.6614C57.8332 52.9949 57.6667 53.2998 57.4138 53.523C57.1608 53.7462 56.8375 53.8734 56.5003 53.8824H46.3121C46.1577 53.8866 46.0043 53.8565 45.8629 53.7942C45.7216 53.7319 45.5958 53.639 45.4948 53.5222C45.3937 53.4053 45.3199 53.2675 45.2786 53.1186C45.2374 52.9698 45.2297 52.8136 45.2561 52.6614Z" fill="#407BFF"/>
<path opacity="0.2" d="M45.2561 52.6614L46.6399 42.482C46.6913 42.1484 46.8583 41.8434 47.1116 41.6202C47.3649 41.3971 47.6885 41.27 48.0259 41.261H58.2053C58.3597 41.2568 58.5132 41.2869 58.6545 41.3492C58.7959 41.4115 58.9216 41.5044 59.0227 41.6213C59.1237 41.7381 59.1975 41.8759 59.2388 42.0248C59.2801 42.1737 59.2878 42.3298 59.2613 42.482L57.8841 52.6614C57.8332 52.9949 57.6667 53.2998 57.4138 53.523C57.1608 53.7462 56.8375 53.8734 56.5003 53.8824H46.3121C46.1577 53.8866 46.0043 53.8565 45.8629 53.7942C45.7216 53.7319 45.5958 53.639 45.4948 53.5222C45.3937 53.4053 45.3199 53.2675 45.2786 53.1186C45.2374 52.9698 45.2297 52.8136 45.2561 52.6614Z" fill="white"/>
<path d="M59.7585 52.6614L61.1335 42.482C61.1849 42.1484 61.3518 41.8434 61.6051 41.6202C61.8584 41.3971 62.182 41.2699 62.5195 41.261H72.6989C72.8534 41.2564 73.0071 41.2862 73.1486 41.3484C73.2902 41.4106 73.4161 41.5035 73.5172 41.6204C73.6183 41.7374 73.6922 41.8754 73.7333 42.0244C73.7744 42.1734 73.7818 42.3297 73.7549 42.482L72.3799 52.6614C72.3281 52.9949 72.161 53.2996 71.9078 53.5227C71.6546 53.7457 71.3312 53.873 70.9939 53.8824H60.8123C60.658 53.8867 60.5046 53.8566 60.3633 53.7943C60.222 53.732 60.0964 53.639 59.9955 53.5221C59.8946 53.4052 59.821 53.2673 59.78 53.1185C59.739 52.9696 59.7317 52.8135 59.7585 52.6614Z" fill="#407BFF"/>
<path opacity="0.2" d="M59.7585 52.6614L61.1335 42.482C61.1849 42.1484 61.3518 41.8434 61.6051 41.6202C61.8584 41.3971 62.182 41.2699 62.5195 41.261H72.6989C72.8534 41.2564 73.0071 41.2862 73.1486 41.3484C73.2902 41.4106 73.4161 41.5035 73.5172 41.6204C73.6183 41.7374 73.6922 41.8754 73.7333 42.0244C73.7744 42.1734 73.7818 42.3297 73.7549 42.482L72.3799 52.6614C72.3281 52.9949 72.161 53.2996 71.9078 53.5227C71.6546 53.7457 71.3312 53.873 70.9939 53.8824H60.8123C60.658 53.8867 60.5046 53.8566 60.3633 53.7943C60.222 53.732 60.0964 53.639 59.9955 53.5221C59.8946 53.4052 59.821 53.2673 59.78 53.1185C59.739 52.9696 59.7317 52.8135 59.7585 52.6614Z" fill="white"/>
<path d="M43.2959 67.1638L44.6731 56.98C44.7249 56.6465 44.892 56.3418 45.1452 56.1187C45.3984 55.8957 45.7218 55.7684 46.0591 55.759H56.2385C56.3929 55.7548 56.5463 55.7849 56.6877 55.8472C56.829 55.9095 56.9548 56.0024 57.0558 56.1193C57.1569 56.2361 57.2307 56.3739 57.272 56.5228C57.3133 56.6716 57.321 56.8278 57.2945 56.98L55.9173 67.1616C55.8659 67.4946 55.6992 67.7991 55.4463 68.0218C55.1934 68.2446 54.8704 68.3715 54.5335 68.3804H44.3519C44.1979 68.3845 44.0449 68.3545 43.904 68.2924C43.763 68.2304 43.6375 68.1379 43.5365 68.0215C43.4356 67.9052 43.3616 67.768 43.32 67.6197C43.2784 67.4713 43.2702 67.3157 43.2959 67.1638Z" fill="#407BFF"/>
<path opacity="0.2" d="M43.2959 67.1638L44.6731 56.98C44.7249 56.6465 44.892 56.3418 45.1452 56.1187C45.3984 55.8957 45.7218 55.7684 46.0591 55.759H56.2385C56.3929 55.7548 56.5463 55.7849 56.6877 55.8472C56.829 55.9095 56.9548 56.0024 57.0558 56.1193C57.1569 56.2361 57.2307 56.3739 57.272 56.5228C57.3133 56.6716 57.321 56.8278 57.2945 56.98L55.9173 67.1616C55.8659 67.4946 55.6992 67.7991 55.4463 68.0218C55.1934 68.2446 54.8704 68.3715 54.5335 68.3804H44.3519C44.1979 68.3845 44.0449 68.3545 43.904 68.2924C43.763 68.2304 43.6375 68.1379 43.5365 68.0215C43.4356 67.9052 43.3616 67.768 43.32 67.6197C43.2784 67.4713 43.2702 67.3157 43.2959 67.1638Z" fill="white"/>
<path d="M57.7983 67.1638L59.1799 56.98C59.2317 56.6465 59.3987 56.3418 59.6519 56.1187C59.9052 55.8957 60.2285 55.7684 60.5659 55.759H70.7453C70.8997 55.7548 71.0531 55.7849 71.1945 55.8472C71.3358 55.9095 71.4616 56.0024 71.5626 56.1193C71.6637 56.2361 71.7375 56.3739 71.7788 56.5228C71.82 56.6716 71.8277 56.8278 71.8013 56.98L70.4263 67.1616C70.374 67.4947 70.2067 67.7989 69.9536 68.0215C69.7004 68.2441 69.3773 68.3711 69.0403 68.3804H58.8521C58.6982 68.3846 58.5452 68.3546 58.4043 68.2925C58.2634 68.2304 58.1381 68.1379 58.0372 68.0215C57.9364 67.9051 57.8627 67.7678 57.8214 67.6195C57.7801 67.4712 57.7722 67.3155 57.7983 67.1638Z" fill="#407BFF"/>
<path opacity="0.2" d="M57.7983 67.1638L59.1799 56.98C59.2317 56.6465 59.3987 56.3418 59.6519 56.1187C59.9052 55.8957 60.2285 55.7684 60.5659 55.759H70.7453C70.8997 55.7548 71.0531 55.7849 71.1945 55.8472C71.3358 55.9095 71.4616 56.0024 71.5626 56.1193C71.6637 56.2361 71.7375 56.3739 71.7788 56.5228C71.82 56.6716 71.8277 56.8278 71.8013 56.98L70.4263 67.1616C70.374 67.4947 70.2067 67.7989 69.9536 68.0215C69.7004 68.2441 69.3773 68.3711 69.0403 68.3804H58.8521C58.6982 68.3846 58.5452 68.3546 58.4043 68.2925C58.2634 68.2304 58.1381 68.1379 58.0372 68.0215C57.9364 67.9051 57.8627 67.7678 57.8214 67.6195C57.7801 67.4712 57.7722 67.3155 57.7983 67.1638Z" fill="white"/>
<path d="M51.6824 51.8078C51.5282 51.8112 51.3752 51.7806 51.2342 51.718C51.0932 51.6555 50.9678 51.5625 50.867 51.4459C50.7661 51.3292 50.6922 51.1918 50.6506 51.0432C50.609 50.8947 50.6007 50.7389 50.6264 50.5868L51.4426 44.5588C51.4948 44.2253 51.6618 43.9205 51.9149 43.6972C52.168 43.4738 52.4912 43.3459 52.8286 43.3356C52.9831 43.3317 53.1366 43.3621 53.2779 43.4247C53.4192 43.4872 53.5449 43.5804 53.646 43.6974C53.747 43.8144 53.8208 43.9523 53.862 44.1013C53.9033 44.2502 53.911 44.4065 53.8846 44.5588L53.0706 50.5868C53.0179 50.9203 52.8503 51.2248 52.5968 51.4478C52.3433 51.6707 52.0198 51.7981 51.6824 51.8078Z" fill="white"/>
<path d="M48.0195 47.5728C48.0721 47.2391 48.2396 46.9343 48.4931 46.711C48.7465 46.4876 49.07 46.3598 49.4077 46.3496H55.4401C55.5945 46.3461 55.7477 46.3768 55.8889 46.4395C56.03 46.5022 56.1556 46.5953 56.2565 46.7122C56.3574 46.8291 56.4312 46.9669 56.4727 47.1157C56.5141 47.2645 56.5221 47.4206 56.4961 47.5728C56.4434 47.9059 56.2762 48.2102 56.0231 48.4331C55.7701 48.656 55.4472 48.7836 55.1101 48.7938H49.0821C48.9273 48.7982 48.7736 48.7683 48.6318 48.7062C48.49 48.6441 48.3638 48.5513 48.2621 48.4345C48.1605 48.3177 48.086 48.1799 48.0441 48.0309C48.0021 47.8819 47.9937 47.7254 48.0195 47.5728Z" fill="white"/>
<path d="M46.8951 65.0672C46.4837 64.592 46.5893 63.8154 47.1283 63.3402L51.9683 59.0766C52.5073 58.6014 53.2883 58.6014 53.6953 59.0766C54.1067 59.5518 54.0011 60.3306 53.4621 60.8058L48.6221 65.0672C48.0831 65.5424 47.2999 65.5424 46.8951 65.0672Z" fill="white"/>
<path d="M47.705 59.0766C48.244 58.6014 49.025 58.6014 49.4342 59.0766L53.1192 63.3402C53.5306 63.8154 53.425 64.592 52.886 65.0672C52.347 65.5424 51.566 65.5424 51.159 65.0672L47.4718 60.8058C47.0604 60.3306 47.166 59.5518 47.705 59.0766Z" fill="white"/>
<path d="M62.5195 47.5728C62.5721 47.2391 62.7396 46.9343 62.9931 46.711C63.2465 46.4876 63.57 46.3598 63.9077 46.3496H69.9357C70.0902 46.3457 70.2436 46.3761 70.385 46.4387C70.5263 46.5013 70.652 46.5944 70.753 46.7114C70.854 46.8284 70.9278 46.9663 70.9691 47.1153C71.0104 47.2643 71.0181 47.4205 70.9917 47.5728C70.939 47.9059 70.7718 48.2102 70.5187 48.4331C70.2657 48.656 69.9427 48.7836 69.6057 48.7938H63.5799C63.4253 48.7979 63.2718 48.7677 63.1303 48.7055C62.9888 48.6432 62.8628 48.5504 62.7614 48.4336C62.6601 48.3169 62.5858 48.1792 62.544 48.0303C62.5021 47.8815 62.4938 47.7253 62.5195 47.5728Z" fill="white"/>
<path d="M60.8167 60.1722C60.8694 59.8387 61.037 59.5342 61.2905 59.3112C61.544 59.0883 61.8674 58.9609 62.2049 58.9512H68.2329C68.3871 58.9478 68.5401 58.9784 68.6811 59.041C68.822 59.1035 68.9474 59.1965 69.0483 59.3131C69.1492 59.4298 69.2231 59.5673 69.2647 59.7158C69.3063 59.8643 69.3145 60.0201 69.2889 60.1722C69.2367 60.5057 69.0697 60.8105 68.8166 61.0338C68.5635 61.2572 68.2403 61.3851 67.9029 61.3954H61.8727C61.7183 61.3989 61.565 61.3682 61.4239 61.3055C61.2827 61.2428 61.1572 61.1497 61.0563 61.0328C60.9554 60.9159 60.8815 60.7781 60.8401 60.6293C60.7987 60.4805 60.7907 60.3244 60.8167 60.1722Z" fill="white"/>
<path d="M60.3044 63.9716C60.3571 63.6385 60.5243 63.3342 60.7774 63.1113C61.0304 62.8884 61.3534 62.7608 61.6904 62.7506H67.7184C67.8728 62.7468 68.0261 62.7772 68.1673 62.8397C68.3086 62.9021 68.4342 62.995 68.5354 63.1116C68.6365 63.2283 68.7106 63.3659 68.7523 63.5146C68.794 63.6633 68.8023 63.8193 68.7766 63.9716C68.724 64.3053 68.5565 64.6101 68.303 64.8334C68.0496 65.0568 67.7261 65.1846 67.3884 65.1948H61.3604C61.2059 65.1987 61.0525 65.1683 60.9111 65.1057C60.7698 65.0432 60.6441 64.95 60.5431 64.833C60.442 64.716 60.3683 64.5781 60.327 64.4291C60.2857 64.2802 60.278 64.1239 60.3044 63.9716Z" fill="white"/>
<path d="M29.3393 39.534C28.9433 40.2688 28.5363 41.0608 28.1645 41.8352C27.7927 42.6096 27.4341 43.3994 27.1261 44.1892C27.0447 44.3872 26.9787 44.5852 26.9061 44.7832C26.8675 44.8847 26.8453 44.9916 26.8401 45.1C26.8313 45.4122 26.889 45.7227 27.0095 46.0108C27.3245 46.7511 27.743 47.443 28.2525 48.0656L27.5023 48.9456C27.2931 48.8106 27.0919 48.6637 26.8995 48.5056C26.7063 48.3542 26.5219 48.1919 26.3473 48.0194C25.9767 47.6639 25.6522 47.2633 25.3815 46.827C25.0663 46.3264 24.8692 45.7607 24.8051 45.1726C24.7736 44.8338 24.8012 44.4922 24.8865 44.1628C24.9481 43.9428 25.0053 43.7008 25.0757 43.4742C25.3453 42.5748 25.6708 41.6931 26.0503 40.8342C26.2395 40.4096 26.4331 39.9894 26.6465 39.5758C26.8599 39.1622 27.0645 38.7618 27.3197 38.3394L29.3393 39.534Z" fill="#FF8B7B"/>
<path d="M27.9404 47.8126L29.0404 48.103L28.222 49.6936C28.222 49.6936 27.4036 49.3812 27.2012 48.6618L27.9404 47.8126Z" fill="#FF8B7B"/>
<path d="M30.5583 48.6046L29.5727 49.852L28.2241 49.6936L29.0425 48.103L30.5583 48.6046Z" fill="#FF8B7B"/>
<path d="M34.527 31.1432C34.5512 31.2664 34.637 31.3522 34.7162 31.3368C34.7954 31.3214 34.8416 31.207 34.8152 31.086C34.7888 30.965 34.7052 30.866 34.626 30.8924C34.5468 30.9188 34.5006 31.02 34.527 31.1432Z" fill="#263238"/>
<path d="M34.626 31.3544C34.8475 31.699 35.1155 32.0114 35.4224 32.2828C35.3499 32.3579 35.2621 32.4165 35.1648 32.4544C35.0676 32.4924 34.9634 32.5089 34.8592 32.5028L34.626 31.3544Z" fill="#FF5652"/>
<path d="M34.791 32.186C34.4324 32.186 34.076 31.7944 33.9682 31.2576C33.9094 30.9956 33.9269 30.7223 34.0188 30.47C34.0443 30.3661 34.0989 30.2716 34.176 30.1975C34.2531 30.1233 34.3497 30.0726 34.4546 30.0512C34.5594 30.0297 34.6682 30.0385 34.7682 30.0764C34.8682 30.1143 34.9555 30.1799 35.0198 30.2654C35.1984 30.465 35.3207 30.7086 35.374 30.9712C35.4274 31.2337 35.4099 31.5057 35.3234 31.7592C35.2918 31.8606 35.2348 31.9523 35.1577 32.0254C35.0807 32.0986 34.9863 32.1509 34.8834 32.1772C34.8529 32.1831 34.822 32.1861 34.791 32.186ZM34.5534 30.0982C34.5241 30.095 34.4946 30.095 34.4654 30.0982C34.3724 30.1233 34.2873 30.1716 34.218 30.2386C34.1488 30.3055 34.0976 30.3889 34.0694 30.481C33.9817 30.7236 33.9649 30.9861 34.021 31.2378C34.1332 31.7944 34.516 32.1882 34.8768 32.1178C34.97 32.0932 35.0554 32.0451 35.1248 31.9781C35.1941 31.9111 35.2451 31.8274 35.2728 31.735C35.3555 31.4916 35.3722 31.2306 35.3212 30.9786C35.2701 30.7266 35.1532 30.4927 34.9824 30.3006C34.9279 30.2401 34.8619 30.191 34.7882 30.1563C34.7146 30.1215 34.6347 30.1018 34.5534 30.0982Z" fill="#263238"/>
<path d="M46.1211 43.824L47.5313 43.5248L47.7139 45.4388C47.7139 45.4388 46.4951 45.672 45.9121 44.7084L46.1211 43.824Z" fill="#FF8B7B"/>
<path d="M48.8644 43.9538L48.7742 45.3508L47.7139 45.4388L47.5312 43.5248L48.8644 43.9538Z" fill="#FF8B7B"/>
<path d="M33.9397 30.5558C33.9307 30.5559 33.9218 30.5541 33.9135 30.5507C33.9052 30.5473 33.8976 30.5423 33.8913 30.536C33.8841 30.5294 33.8784 30.5214 33.8746 30.5125C33.8707 30.5036 33.8687 30.494 33.8687 30.4843C33.8687 30.4746 33.8707 30.465 33.8746 30.4561C33.8784 30.4472 33.8841 30.4392 33.8913 30.4326C33.9682 30.3455 34.0649 30.2781 34.1732 30.236C34.2815 30.1939 34.3983 30.1783 34.5139 30.1906C34.5234 30.1919 34.5327 30.1952 34.541 30.2001C34.5493 30.2051 34.5565 30.2117 34.5623 30.2194C34.568 30.2272 34.5721 30.2361 34.5744 30.2455C34.5767 30.2549 34.577 30.2647 34.5755 30.2742C34.5717 30.2935 34.5607 30.3106 34.5448 30.322C34.5288 30.3335 34.5091 30.3384 34.4897 30.3358C34.3982 30.3268 34.3059 30.3399 34.2205 30.3739C34.1351 30.408 34.0592 30.4621 33.9991 30.5316C33.9914 30.5396 33.9822 30.5458 33.9719 30.55C33.9617 30.5542 33.9507 30.5561 33.9397 30.5558Z" fill="#263238"/>
<path d="M31.1304 33.3696C31.3504 34.5026 31.4868 36.0712 30.6904 36.8258C30.6904 36.8258 30.9984 37.9742 33.1104 37.9742C35.4248 37.9742 34.2236 36.9666 34.2236 36.9666C33.2622 36.6674 33.271 35.574 33.491 34.694L31.1304 33.3696Z" fill="#FF8B7B"/>
<path d="M33.5063 36.5508C34.0255 36.1768 34.7933 35.739 34.9539 36.1966C35.0507 36.4716 35.0903 37.8158 34.5557 37.7146C33.7659 37.5672 33.5063 36.5508 33.5063 36.5508Z" fill="#263238"/>
<path d="M30.2611 37.5826C30.0543 37.2922 30.0631 36.3704 30.2831 36.2076C30.6373 35.9458 32.1553 35.8842 34.2013 36.355C33.9813 37.2482 34.4543 37.7168 34.4543 37.7168L30.2611 37.5826Z" fill="#407BFF"/>
<path d="M23.3839 89.8128C23.4463 89.8348 23.5125 89.8442 23.5786 89.8405C23.6447 89.8367 23.7094 89.8198 23.7689 89.7908C23.7924 89.7703 23.8086 89.7426 23.815 89.712C23.8214 89.6815 23.8175 89.6496 23.8041 89.6214C23.798 89.5976 23.7864 89.5754 23.7704 89.5567C23.7544 89.5381 23.7343 89.5233 23.7117 89.5136C23.4917 89.4124 23.0209 89.6082 23.0011 89.617C22.9945 89.6197 22.9889 89.6242 22.985 89.6301C22.9811 89.636 22.979 89.6429 22.9791 89.65C22.9787 89.6572 22.9803 89.6643 22.9838 89.6705C22.9873 89.6768 22.9925 89.6819 22.9989 89.6852C23.1228 89.7401 23.2517 89.7828 23.3839 89.8128ZM23.6369 89.5642L23.6787 89.5796C23.6921 89.5851 23.7042 89.5934 23.7141 89.604C23.724 89.6147 23.7314 89.6274 23.7359 89.6412C23.7557 89.7072 23.7359 89.7292 23.7227 89.7358C23.6391 89.8062 23.3289 89.7358 23.1133 89.6544C23.2789 89.5859 23.4578 89.555 23.6369 89.5642Z" fill="#407BFF"/>
<path d="M23.0078 89.6874H23.0254C23.2014 89.6346 23.5754 89.3684 23.5798 89.1946C23.5799 89.167 23.5706 89.1401 23.5534 89.1185C23.5362 89.0969 23.5121 89.0818 23.4852 89.0758C23.4587 89.066 23.4304 89.0621 23.4023 89.0644C23.3742 89.0667 23.3469 89.0751 23.3224 89.089C23.1156 89.1946 22.9858 89.6214 22.9814 89.6412C22.98 89.646 22.9797 89.651 22.9803 89.6559C22.9809 89.6608 22.9825 89.6655 22.9849 89.6698C22.9874 89.6741 22.9906 89.6779 22.9946 89.6809C22.9985 89.6839 23.003 89.6861 23.0078 89.6874ZM23.4478 89.1396H23.4632C23.5094 89.155 23.5094 89.177 23.5094 89.188C23.5094 89.2914 23.2586 89.5004 23.0694 89.584C23.1165 89.4122 23.2147 89.2588 23.351 89.144C23.3807 89.1302 23.4147 89.1287 23.4456 89.1396H23.4478Z" fill="#407BFF"/>
<path d="M34.8084 90.0724C35.0086 90.0724 35.2 90.0438 35.2638 89.9558C35.2798 89.9321 35.2884 89.9041 35.2884 89.8755C35.2884 89.8469 35.2798 89.8189 35.2638 89.7952C35.2512 89.7737 35.2344 89.755 35.2143 89.7403C35.1943 89.7255 35.1714 89.715 35.1472 89.7094C34.8898 89.639 34.3486 89.947 34.3266 89.9602C34.3201 89.9639 34.3147 89.9694 34.3112 89.976C34.3077 89.9827 34.3062 89.9901 34.3068 89.9976C34.3083 90.0052 34.3121 90.0122 34.3175 90.0176C34.323 90.0231 34.33 90.0268 34.3376 90.0284C34.4929 90.057 34.6504 90.0718 34.8084 90.0724ZM35.0548 89.771C35.0782 89.7686 35.1018 89.7686 35.1252 89.771C35.155 89.7779 35.181 89.796 35.1978 89.8216C35.2242 89.8678 35.2132 89.8898 35.1978 89.903C35.1252 90.0042 34.7336 90.0064 34.4476 89.9646C34.6357 89.8618 34.8418 89.7961 35.0548 89.771Z" fill="#407BFF"/>
<path d="M34.3422 90.0284H34.3576C34.5446 89.9448 34.9142 89.6104 34.8856 89.4344C34.8856 89.3926 34.8504 89.342 34.7492 89.3332C34.7127 89.329 34.6757 89.3324 34.6405 89.343C34.6053 89.3535 34.5727 89.3712 34.5446 89.3948C34.4049 89.564 34.3211 89.7723 34.3048 89.991C34.3045 89.9961 34.3052 90.0012 34.3069 90.006C34.3087 90.0108 34.3114 90.0152 34.3149 90.0189C34.3184 90.0226 34.3226 90.0256 34.3273 90.0276C34.332 90.0296 34.3371 90.0306 34.3422 90.0306V90.0284ZM34.7184 89.4014H34.7404C34.8064 89.4014 34.8108 89.4322 34.813 89.441C34.8306 89.5466 34.5776 89.8106 34.3884 89.925C34.4052 89.7484 34.4767 89.5815 34.593 89.4476C34.6274 89.4169 34.6722 89.4004 34.7184 89.4014Z" fill="#407BFF"/>
<path d="M32.6392 89.9932H34.188L34.342 86.4094H32.7932L32.6392 89.9932Z" fill="#FF8B7B"/>
<path d="M21.2832 89.276L22.7946 89.6038L24.3148 86.2664L22.8012 85.9386L21.2832 89.276Z" fill="#FF8B7B"/>
<path d="M22.9396 89.452L21.2412 89.0846C21.2112 89.0782 21.1798 89.082 21.1523 89.0956C21.1247 89.1092 21.1026 89.1317 21.0894 89.1594L20.4998 90.4398C20.4841 90.4708 20.476 90.5051 20.4761 90.5398C20.4762 90.5746 20.4845 90.6088 20.5004 90.6397C20.5163 90.6706 20.5393 90.6973 20.5675 90.7177C20.5956 90.738 20.6282 90.7513 20.6626 90.7566C21.2588 90.8732 21.5558 90.9018 22.3016 91.0624C22.7614 91.1636 23.7998 91.4166 24.4334 91.553C25.067 91.6894 25.287 91.08 25.0406 90.9678C23.9406 90.4596 23.4654 90.013 23.1662 89.5972C23.1111 89.5225 23.0304 89.4708 22.9396 89.452Z" fill="#263238"/>
<path d="M34.177 89.8128H32.4874C32.4566 89.8126 32.4267 89.823 32.4027 89.8422C32.3786 89.8614 32.362 89.8883 32.3554 89.9184L32.0496 91.3C32.0406 91.3332 32.0396 91.3681 32.0465 91.4018C32.0535 91.4355 32.0683 91.4671 32.0897 91.4941C32.1111 91.5211 32.1385 91.5426 32.1697 91.5571C32.201 91.5715 32.2352 91.5784 32.2696 91.5772C32.879 91.5662 33.7612 91.531 34.5268 91.531C35.4222 91.531 36.1966 91.5794 37.2482 91.5794C37.8818 91.5794 38.06 90.937 37.7938 90.8776C36.5816 90.6136 35.5938 90.585 34.5488 89.9404C34.4391 89.8642 34.3104 89.82 34.177 89.8128Z" fill="#263238"/>
<path d="M27.9227 37.18C26.4729 37.5122 25.2827 41.2148 25.2827 41.2148L28.1955 43.4346C28.9482 42.6309 29.4789 41.6453 29.7355 40.5746C30.2327 38.6298 29.4055 36.8368 27.9227 37.18Z" fill="#407BFF"/>
<path opacity="0.4" d="M27.9227 37.18C26.4729 37.5122 25.2827 41.2148 25.2827 41.2148L28.1955 43.4346C28.9482 42.6309 29.4789 41.6453 29.7355 40.5746C30.2327 38.6298 29.4055 36.8368 27.9227 37.18Z" fill="white"/>
<path d="M36.6192 38.94L39.0634 41.1884C39.4704 41.5624 39.8774 41.9342 40.2866 42.2994C40.6958 42.6646 41.105 43.0298 41.4988 43.3466L41.1578 43.164C41.347 43.2344 41.545 43.3026 41.754 43.3576C41.963 43.4126 42.1786 43.4588 42.4008 43.5028C42.858 43.5856 43.3191 43.6451 43.7824 43.681C44.2554 43.7206 44.7394 43.747 45.2256 43.7602C45.7118 43.7734 46.2156 43.7844 46.693 43.7866L46.913 44.9262C46.4105 45.1084 45.8959 45.2554 45.373 45.3662C44.849 45.4794 44.3185 45.5603 43.7846 45.6082C43.2368 45.6582 42.6859 45.6663 42.1368 45.6324C41.5532 45.5988 40.9753 45.4992 40.4142 45.3354L40.2492 45.287L40.0754 45.1528C39.5914 44.781 39.1624 44.418 38.7312 44.0528C38.3 43.6876 37.882 43.3092 37.464 42.933C36.6324 42.1762 35.8074 41.4238 35 40.6428L36.6192 38.94Z" fill="#FF8B7B"/>
<path opacity="0.2" d="M29.1654 39.8992C28.3778 40.678 28.1204 42.0992 28.0654 43.3312L28.1952 43.4302C28.9473 42.6261 29.4779 41.6407 29.7352 40.5702C29.7638 40.4558 29.7902 40.3502 29.81 40.2248L29.1654 39.8992Z" fill="black"/>
<path d="M37.0876 38.72C37.4044 40.392 37.6024 43.8262 36.6828 50.6242H28.4064C28.3492 49.3548 29.1478 43.1552 27.9224 37.169C28.8379 36.9932 29.7638 36.8764 30.6944 36.8192C31.8667 36.752 33.042 36.752 34.2144 36.8192C34.6016 36.8544 34.9822 36.9116 35.3144 36.971C35.752 37.0492 36.1558 37.2582 36.4723 37.5704C36.7888 37.8826 37.0034 38.2834 37.0876 38.72Z" fill="#407BFF"/>
<path opacity="0.4" d="M37.0876 38.72C37.4044 40.392 37.6024 43.8262 36.6828 50.6242H28.4064C28.3492 49.3548 29.1478 43.1552 27.9224 37.169C28.8379 36.9932 29.7638 36.8764 30.6944 36.8192C31.8667 36.752 33.042 36.752 34.2144 36.8192C34.6016 36.8544 34.9822 36.9116 35.3144 36.971C35.752 37.0492 36.1558 37.2582 36.4723 37.5704C36.7888 37.8826 37.0034 38.2834 37.0876 38.72Z" fill="white"/>
<path opacity="0.2" d="M35.8206 41.1994L37.3166 40.8408C37.3628 41.7472 37.3672 42.8692 37.299 44.2574C36.6104 43.4742 35.7326 42.251 35.8206 41.1994Z" fill="black"/>
<path opacity="0.2" d="M34.3424 86.4094L34.2632 88.2574H32.7144L32.7936 86.4094H34.3424Z" fill="black"/>
<path opacity="0.2" d="M22.8008 85.9386L24.3144 86.2664L23.529 87.9868L22.0176 87.659L22.8008 85.9386Z" fill="black"/>
<path d="M30.3932 31.7152C30.7914 33.198 30.9498 34.0868 31.865 34.7028C33.2422 35.6312 34.945 34.5664 35.0088 32.9934C35.0572 31.5788 34.3994 29.3898 32.8088 29.0906C32.4579 29.023 32.0955 29.0462 31.7561 29.158C31.4166 29.2698 31.1114 29.4665 30.8694 29.7295C30.6273 29.9925 30.4565 30.3129 30.3732 30.6605C30.2899 31.008 30.2968 31.3711 30.3932 31.7152Z" fill="#FF8B7B"/>
<path d="M33.759 31.8274C34.4542 31.7284 34.254 30.9254 33.9944 30.5316C33.9944 30.5316 35.5344 28.6726 33.759 27.9224C31.9836 27.1722 32.4126 28.3426 32.4126 28.3426C32.4126 28.3426 31.02 27.2976 29.81 28.1424C28.6 28.9872 29.645 29.3524 29.645 29.3524C29.645 29.3524 27.445 29.9992 28.325 31.1124C29.205 32.2256 30.1136 32.1134 30.1136 32.1134C30.1136 32.1134 28.2898 32.8328 29.6736 33.6402C31.0574 34.4476 31.5766 34.4828 31.5766 34.4828C31.9465 34.5288 32.3207 34.4425 32.6332 34.2392C32.9456 34.0359 33.176 33.7287 33.2838 33.3718L33.759 31.8274Z" fill="#263238"/>
<path d="M33.1607 31.8318C33.1904 32.2133 33.345 32.5744 33.6007 32.8592C33.9373 33.231 34.2893 32.9978 34.3509 32.5468C34.4037 32.1376 34.2937 31.4468 33.8801 31.2488C33.4665 31.0508 33.1343 31.372 33.1607 31.8318Z" fill="#FF8B7B"/>
<path d="M33.7483 50.6308C33.7483 50.6308 31.9883 62.4558 31.0269 66.8866C29.9709 71.7376 24.3103 87.7866 24.3103 87.7866L21.5405 87.186C21.5405 87.186 25.5005 74.1048 26.3805 67.3222C27.0625 62.1126 28.4023 50.6264 28.4023 50.6264L33.7483 50.6308Z" fill="#263238"/>
<path d="M24.9747 86.8648L24.4577 87.868L21.3403 87.1926L21.6043 86.2554L24.9747 86.8648Z" fill="#407BFF"/>
<path opacity="0.3" d="M32.6374 54.8438C30.6068 55.242 30.8224 62.8144 31.0666 66.7106C31.6518 63.9562 32.5098 58.6586 33.095 54.8988C32.9532 54.8288 32.7917 54.8094 32.6374 54.8438Z" fill="black"/>
<path d="M36.683 50.6308C36.683 50.6308 36.903 62.2006 36.7292 66.9108C36.5532 71.819 34.8394 87.89 34.8394 87.89H32.217C32.217 87.89 32.1224 72.105 31.997 67.2848C31.8782 62.04 31.2402 50.6308 31.2402 50.6308H36.683Z" fill="#263238"/>
<path d="M35.3431 86.856C35.3563 86.856 35.1957 87.9428 35.1957 87.9428H32.0057L31.9199 86.9726L35.3431 86.856Z" fill="#407BFF"/>
<path d="M33.8451 39.2348C33.1015 41.2346 37.4619 43.5908 37.4619 43.5908L39.3495 41.1708C39.3495 41.1708 38.0889 38.665 36.5445 37.5342C34.6349 36.1328 34.4083 37.7124 33.8451 39.2348Z" fill="#407BFF"/>
<path opacity="0.4" d="M33.8451 39.2348C33.1015 41.2346 37.4619 43.5908 37.4619 43.5908L39.3495 41.1708C39.3495 41.1708 38.0889 38.665 36.5445 37.5342C34.6349 36.1328 34.4083 37.7124 33.8451 39.2348Z" fill="white"/>
<path d="M46.3674 44.429C46.6663 44.429 46.9086 44.2468 46.9086 44.022C46.9086 43.7972 46.6663 43.615 46.3674 43.615C46.0685 43.615 45.8262 43.7972 45.8262 44.022C45.8262 44.2468 46.0685 44.429 46.3674 44.429Z" fill="#263238"/>
<path d="M46.1586 45.32C46.1422 45.3202 46.126 45.3167 46.1112 45.3099C46.0964 45.303 46.0832 45.293 46.0728 45.2804C46.0543 45.2582 46.0453 45.2295 46.0478 45.2007C46.0502 45.1719 46.064 45.1452 46.086 45.1264C46.0992 45.1154 46.3808 44.858 46.2598 44.2596C46.2569 44.2456 46.2568 44.2311 46.2596 44.2171C46.2624 44.2031 46.2679 44.1897 46.2759 44.1778C46.2839 44.166 46.2942 44.1558 46.3061 44.1479C46.3181 44.1401 46.3315 44.1346 46.3456 44.132C46.3597 44.1291 46.3743 44.129 46.3885 44.1318C46.4027 44.1345 46.4162 44.1401 46.4282 44.148C46.4403 44.156 46.4507 44.1663 46.4588 44.1782C46.4668 44.1902 46.4725 44.2037 46.4754 44.2178C46.625 44.9504 46.2444 45.2804 46.229 45.2936C46.2092 45.3103 46.1844 45.3196 46.1586 45.32Z" fill="#263238"/>
<path opacity="0.4" d="M46.8072 44C46.8072 44.1672 46.6114 44.3014 46.3672 44.3014C46.123 44.3014 45.9272 44.1672 45.9272 44C45.9272 43.8328 46.123 43.7008 46.3672 43.7008C46.6114 43.7008 46.8072 43.8262 46.8072 44Z" fill="white"/>
<path d="M34.5268 36.8434C33.5148 37.5672 31.7614 40.3634 31.4468 42.0156C31.4447 42.0265 31.4393 42.0365 31.4313 42.0443C31.4234 42.0521 31.4132 42.0573 31.4023 42.0592C31.3913 42.0611 31.38 42.0596 31.3699 42.055C31.3598 42.0504 31.3513 42.0428 31.3456 42.0332C30.3903 40.4856 29.8235 38.73 29.6934 36.916C29.6929 36.9088 29.6909 36.9017 29.6876 36.8953C29.6843 36.8888 29.6798 36.883 29.6742 36.8783C29.6687 36.8736 29.6623 36.8701 29.6554 36.8679C29.6485 36.8656 29.6412 36.8648 29.634 36.8654C29.3876 36.8819 29.1423 36.912 28.8992 36.9556C28.8872 36.959 28.8766 36.9661 28.8691 36.9761C28.8615 36.986 28.8574 36.9981 28.8574 37.0106C28.9769 39.2779 29.7842 41.455 31.1718 43.252C31.1745 43.2575 31.1759 43.2635 31.1759 43.2696C31.1759 43.2757 31.1745 43.2817 31.1718 43.2872C31.0376 45.7622 31.2158 50.1864 31.2378 50.7122C31.2384 50.7264 31.2444 50.7398 31.2547 50.7497C31.2649 50.7595 31.2786 50.765 31.2928 50.765H31.9528C31.9602 50.765 31.9676 50.7635 31.9744 50.7606C31.9812 50.7577 31.9874 50.7535 31.9925 50.7481C31.9976 50.7428 32.0017 50.7365 32.0043 50.7295C32.0069 50.7226 32.0081 50.7152 32.0078 50.7078C31.977 50.2018 31.7702 46.3584 32.0078 43.2058C32.3796 40.8606 34.6038 37.6904 35.3848 37.0634C35.3932 37.0571 35.3995 37.0485 35.403 37.0387C35.4065 37.0288 35.407 37.0181 35.4044 37.008C35.4018 36.9979 35.3963 36.9887 35.3885 36.9817C35.3807 36.9748 35.371 36.9703 35.3606 36.9688C35.0306 36.8962 34.6522 36.85 34.562 36.8412C34.5504 36.838 34.538 36.8388 34.5268 36.8434Z" fill="#407BFF"/>
</svg>
