<svg width="164" height="87" viewBox="0 0 164 87" fill="none" xmlns="http://www.w3.org/2000/svg">
<path d="M0.8 59.76C1.97333 56.1867 3.09333 52.7067 4.16 49.32C4.61333 47.9333 5.08 46.4533 5.56 44.88C6.04 43.3067 6.52 41.7333 7 40.16C7.48 38.56 7.93333 37.0267 8.36 35.56C8.78667 34.0933 9.14667 32.7867 9.44 31.64C10.9067 31.64 12.2933 31.56 13.6 31.4C14.2667 31.32 14.9467 31.24 15.64 31.16C16.36 31.08 17.0933 31.0133 17.84 30.96L17.6 32.92C17.5467 33.2933 17.4933 33.68 17.44 34.08C17.3867 34.4533 17.3333 34.84 17.28 35.24C17.2267 35.64 17.16 36.0533 17.08 36.48C17 36.88 16.9333 37.2933 16.88 37.72C16.7733 38.5467 16.6133 39.7067 16.4 41.2C16.1867 42.6667 15.9333 44.2667 15.64 46H16.16C16.9333 43.9733 17.5733 42.2933 18.08 40.96C18.5867 39.6 19 38.4933 19.32 37.64C19.7733 36.3867 20.2667 35.12 20.8 33.84C21.3333 32.56 21.7733 31.5733 22.12 30.88C22.76 30.8267 23.52 30.7467 24.4 30.64C25.3067 30.5067 26.2133 30.36 27.12 30.2C28.0533 30.04 28.8533 29.9067 29.52 29.8C29.1467 32.04 28.8 34.3067 28.48 36.6C28.1867 38.8667 27.92 41.04 27.68 43.12C27.4667 45.1733 27.28 47.0267 27.12 48.68C26.96 50.3333 26.8133 51.9733 26.68 53.6C26.5467 55.2 26.4133 56.7867 26.28 58.36L19.32 59.6C19.32 59.5467 19.36 58.9467 19.44 57.8C19.52 56.6533 19.6533 55.2267 19.84 53.52C20.0267 51.8133 20.2133 50.2 20.4 48.68C20.5867 47.1333 20.7733 45.8667 20.96 44.88H20.6C19.9333 46.9067 19.12 49.12 18.16 51.52C17.2267 53.92 16.3067 56.5733 15.4 59.48C14.4667 59.5067 13.6667 59.5467 13 59.6C12.3333 59.6267 11.56 59.6667 10.68 59.72L11.96 44.88H11.36C11.3333 45.1733 11.2133 45.7467 11 46.6C10.7867 47.4267 10.5333 48.3867 10.24 49.48C9.94667 50.5467 9.64 51.6133 9.32 52.68C8.12 56.8667 7.48 59.08 7.4 59.32L0.8 59.76ZM34.0056 60.16C32.2456 60.16 30.8056 59.48 29.6856 58.12C28.5656 56.76 28.0056 54.7067 28.0056 51.96C28.0056 50.44 28.1923 48.84 28.5656 47.16C28.939 45.48 29.459 43.8267 30.1256 42.2C30.7923 40.5733 31.5656 39.0667 32.4456 37.68C33.859 35.44 35.4856 33.6133 37.3256 32.2C39.1656 30.7867 41.099 30.08 43.1256 30.08C44.7256 30.08 45.9523 30.4933 46.8056 31.32C47.6856 32.12 48.299 33.16 48.6456 34.44C48.9923 35.6933 49.1656 37 49.1656 38.36C49.1656 41.5333 48.6723 44.4933 47.6856 47.24C46.7256 49.96 45.4723 52.2667 43.9256 54.16C42.379 56.1067 40.7256 57.6 38.9656 58.64C37.2323 59.6533 35.579 60.16 34.0056 60.16ZM36.1656 53.56C37.3656 53.56 38.419 53.16 39.3256 52.36C40.259 51.56 41.0456 50.5467 41.6856 49.32C42.3256 48.0667 42.8056 46.76 43.1256 45.4C43.4456 44.04 43.6056 42.8133 43.6056 41.72C43.6056 41.2933 43.5656 40.84 43.4856 40.36C43.4056 39.8533 43.2323 39.4133 42.9656 39.04C42.699 38.6667 42.2856 38.48 41.7256 38.48C40.499 38.48 39.3923 38.9333 38.4056 39.84C37.419 40.72 36.5923 41.84 35.9256 43.2C35.259 44.5867 34.7656 45.9467 34.4456 47.28C34.1256 48.6133 33.9656 49.8267 33.9656 50.92C33.9656 51.48 34.1656 52.0667 34.5656 52.68C34.9656 53.2667 35.499 53.56 36.1656 53.56ZM53.3322 60.08C52.2655 60.08 51.1989 59.8 50.1322 59.24C49.0655 58.6533 48.0389 57.7333 47.0522 56.48L50.0122 50.68C50.3055 51.1867 50.7322 51.6667 51.2922 52.12C51.8789 52.5733 52.4922 52.9333 53.1322 53.2C53.7722 53.4667 54.3189 53.6 54.7722 53.6C55.4655 53.6 56.1189 53.3867 56.7322 52.96C57.3722 52.5333 57.6922 51.96 57.6922 51.24C57.6922 50.3067 57.2655 49.4533 56.4122 48.68C55.5589 47.9067 54.5989 47.1467 53.5322 46.4C52.4922 45.6533 51.5322 44.8133 50.6522 43.88C49.7989 42.92 49.3722 41.8267 49.3722 40.6C49.3722 39.2133 49.7722 37.9333 50.5722 36.76C51.3722 35.56 52.4122 34.52 53.6922 33.64C54.9722 32.7333 56.3322 32.04 57.7722 31.56C59.2389 31.0533 60.6255 30.8 61.9322 30.8C62.8655 30.8 63.7322 30.96 64.5322 31.28C65.3322 31.5733 65.9722 32.0667 66.4522 32.76C66.9322 33.4533 67.1722 34.3867 67.1722 35.56C67.1722 35.7467 67.1589 35.9333 67.1322 36.12C67.1322 36.3067 67.1189 36.4933 67.0922 36.68C67.0655 36.8667 67.0255 37.0667 66.9722 37.28C66.9455 37.4667 66.9189 37.6667 66.8922 37.88L61.0922 39.56C61.1455 39.3467 61.1855 39.1333 61.2122 38.92C61.2655 38.7067 61.2922 38.4933 61.2922 38.28C61.2922 37.48 61.1455 36.9067 60.8522 36.56C60.5855 36.1867 60.2255 36 59.7722 36C59.5322 36 59.1855 36.1333 58.7322 36.4C58.2789 36.64 57.8655 36.9867 57.4922 37.44C57.1455 37.8667 56.9722 38.3467 56.9722 38.88C56.9722 39.76 57.3322 40.4933 58.0522 41.08C58.7989 41.64 59.6522 42.2133 60.6122 42.8C61.0655 43.0667 61.5722 43.4933 62.1322 44.08C62.6922 44.64 63.1722 45.4133 63.5722 46.4C63.9989 47.36 64.2122 48.6 64.2122 50.12C64.2122 52.0933 63.7189 53.8267 62.7322 55.32C61.7722 56.8133 60.4655 57.9867 58.8122 58.84C57.1589 59.6667 55.3322 60.08 53.3322 60.08ZM67.2797 60.04C67.573 58.5733 67.8664 57.12 68.1597 55.68C68.4797 54.2133 68.773 52.7733 69.0397 51.36C70.053 46.2933 70.8797 41.44 71.5197 36.8C71.2264 36.7467 70.9197 36.72 70.5997 36.72C70.2797 36.6933 69.973 36.6933 69.6797 36.72C69.0397 36.7733 68.413 36.6933 67.7997 36.48C67.8264 36.2667 67.8397 36.04 67.8397 35.8C67.8397 35.5333 67.8397 35.2667 67.8397 35C67.8397 34.7067 67.8397 34.4267 67.8397 34.16C67.8397 33.8667 67.853 33.5867 67.8797 33.32C67.9064 33.0267 67.9197 32.72 67.9197 32.4C67.9197 32.0533 67.933 31.7067 67.9597 31.36C68.653 31.4133 69.3464 31.4533 70.0397 31.48C70.733 31.5067 71.4264 31.52 72.1197 31.52C74.093 31.52 75.973 31.4533 77.7597 31.32C79.573 31.1867 81.2397 31.0267 82.7597 30.84L82.3197 33L81.9597 34.88C81.8264 35.5733 81.7064 36.12 81.5997 36.52C81.3064 36.6 81.013 36.6667 80.7197 36.72C80.4264 36.7733 80.133 36.8133 79.8397 36.84C79.5464 36.8667 79.2397 36.9067 78.9197 36.96C78.6264 37.0133 78.333 37.0667 78.0397 37.12C77.6397 39.0933 77.3064 40.8 77.0397 42.24C76.7997 43.68 76.573 45.0667 76.3597 46.4C76.173 47.7067 75.9464 49.1467 75.6797 50.72C75.2264 53.4133 74.8264 56.1467 74.4797 58.92L67.2797 60.04ZM88.5319 59.92C88.5852 59.4667 88.6385 59.0267 88.6919 58.6C88.7452 58.1733 88.7985 57.7467 88.8519 57.32L89.0919 55.08C89.1185 54.7067 89.1452 54.36 89.1719 54.04C89.1985 53.72 89.2252 53.4267 89.2519 53.16H85.7719L84.1719 58.92C83.5852 59 82.8919 59.0933 82.0919 59.2C81.2919 59.28 80.5452 59.36 79.8519 59.44C79.4252 59.4933 78.9985 59.5467 78.5719 59.6C78.1719 59.6533 77.7585 59.7067 77.3319 59.76L80.4919 49.28C80.8652 48.0267 81.2919 46.6 81.7719 45C82.2519 43.4 82.7319 41.76 83.2119 40.08C83.7185 38.4 84.1852 36.8267 84.6119 35.36C85.0652 33.8667 85.4252 32.6133 85.6919 31.6C87.5052 31.4667 89.3452 31.3067 91.2119 31.12C93.1052 30.9333 94.9452 30.68 96.7319 30.36C96.5985 31.8533 96.4652 33.5467 96.3319 35.44C96.2252 37.3067 96.1185 39.24 96.0119 41.24C95.9319 43.24 95.8385 45.2133 95.7319 47.16C95.6785 49 95.6119 50.9067 95.5319 52.88C95.4519 54.8267 95.3719 56.8267 95.2919 58.88C94.8919 58.9333 94.4919 58.9867 94.0919 59.04C93.6919 59.0933 93.2919 59.1467 92.8919 59.2C92.2252 59.3067 91.4919 59.4267 90.6919 59.56C89.8919 59.6933 89.1719 59.8133 88.5319 59.92ZM86.7319 49.16C86.8919 49.16 87.1852 49.1467 87.6119 49.12C88.0652 49.0933 88.4919 49.0667 88.8919 49.04C89.2919 49.0133 89.5319 49 89.6119 49C89.6119 48.6533 89.6652 47.9467 89.7719 46.88C89.8785 45.8133 89.9852 44.6933 90.0919 43.52C90.1452 42.8267 90.1985 42.12 90.2519 41.4C90.3319 40.6533 90.4119 39.8933 90.4919 39.12L90.7319 35.64L90.1319 35.68L89.2119 39.12L86.7319 49.16ZM129.86 59.92C129.913 59.4667 129.967 59.0267 130.02 58.6C130.073 58.1733 130.127 57.7467 130.18 57.32L130.42 55.08C130.447 54.7067 130.473 54.36 130.5 54.04C130.527 53.72 130.553 53.4267 130.58 53.16H127.1L125.5 58.92C124.913 59 124.22 59.0933 123.42 59.2C122.62 59.28 121.873 59.36 121.18 59.44C120.753 59.4933 120.327 59.5467 119.9 59.6C119.5 59.6533 119.087 59.7067 118.66 59.76L121.82 49.28C122.193 48.0267 122.62 46.6 123.1 45C123.58 43.4 124.06 41.76 124.54 40.08C125.047 38.4 125.513 36.8267 125.94 35.36C126.393 33.8667 126.753 32.6133 127.02 31.6C128.833 31.4667 130.673 31.3067 132.54 31.12C134.433 30.9333 136.273 30.68 138.06 30.36C137.927 31.8533 137.793 33.5467 137.66 35.44C137.553 37.3067 137.447 39.24 137.34 41.24C137.26 43.24 137.167 45.2133 137.06 47.16C137.007 49 136.94 50.9067 136.86 52.88C136.78 54.8267 136.7 56.8267 136.62 58.88C136.22 58.9333 135.82 58.9867 135.42 59.04C135.02 59.0933 134.62 59.1467 134.22 59.2C133.553 59.3067 132.82 59.4267 132.02 59.56C131.22 59.6933 130.5 59.8133 129.86 59.92ZM128.06 49.16C128.22 49.16 128.513 49.1467 128.94 49.12C129.393 49.0933 129.82 49.0667 130.22 49.04C130.62 49.0133 130.86 49 130.94 49C130.94 48.6533 130.993 47.9467 131.1 46.88C131.207 45.8133 131.313 44.6933 131.42 43.52C131.473 42.8267 131.527 42.12 131.58 41.4C131.66 40.6533 131.74 39.8933 131.82 39.12L132.06 35.64L131.46 35.68L130.54 39.12L128.06 49.16ZM137.085 60.04C137.485 58.1733 137.871 56.3333 138.245 54.52C138.618 52.7067 138.978 50.92 139.325 49.16C139.885 45.9867 140.431 42.8533 140.965 39.76C141.498 36.64 141.885 33.6667 142.125 30.84L144.205 30.96C144.578 30.9867 144.938 31.0133 145.285 31.04C145.658 31.0667 146.018 31.0933 146.365 31.12C146.765 31.1467 147.165 31.1733 147.565 31.2C147.965 31.2 148.365 31.2 148.765 31.2C148.711 31.4133 148.618 31.84 148.485 32.48C148.378 33.12 148.258 33.7733 148.125 34.44C148.018 35.08 147.938 35.52 147.885 35.76L147.165 39.72L147.405 39.68C148.178 38.48 149.071 37.0933 150.085 35.52C151.098 33.9467 152.045 32.44 152.925 31C154.258 30.8933 155.591 30.7733 156.925 30.64C158.258 30.5067 159.591 30.3333 160.925 30.12C160.311 30.9467 159.698 31.7733 159.085 32.6C158.471 33.4267 157.871 34.2533 157.285 35.08C156.671 35.9333 156.005 36.8667 155.285 37.88C154.565 38.8933 153.871 39.8933 153.205 40.88C152.565 41.84 152.031 42.6667 151.605 43.36C151.898 44.6933 152.218 46.0133 152.565 47.32C152.911 48.6267 153.285 49.9067 153.685 51.16C154.085 52.4133 154.485 53.68 154.885 54.96C155.285 56.24 155.698 57.5333 156.125 58.84C155.511 58.8133 154.885 58.8 154.245 58.8C153.605 58.7733 152.978 58.76 152.365 58.76C151.591 58.76 150.845 58.7733 150.125 58.8C149.405 58.8 148.658 58.8133 147.885 58.84C147.778 57.9867 147.658 57.1067 147.525 56.2C147.391 55.2667 147.258 54.32 147.125 53.36C146.991 52.4267 146.858 51.5067 146.725 50.6C146.591 49.6667 146.458 48.7733 146.325 47.92L145.605 48.76C145.418 49.5333 145.218 50.52 145.005 51.72C144.898 52.3067 144.778 52.8933 144.645 53.48C144.538 54.04 144.431 54.5867 144.325 55.12C144.218 55.76 144.098 56.4133 143.965 57.08C143.831 57.72 143.698 58.3867 143.565 59.08L137.085 60.04Z" fill="#489EB5"/>
<path d="M97.1166 60.16L100.157 31.76C100.77 31.7333 101.37 31.6933 101.957 31.64C102.57 31.56 103.157 31.4667 103.717 31.36C104.25 31.2533 104.797 31.1733 105.357 31.12C105.917 31.04 106.463 30.9867 106.997 30.96L106.877 31.76C106.85 32.0267 106.797 32.3333 106.717 32.68C106.663 33 106.61 33.3733 106.557 33.8C106.423 34.7333 106.263 35.8 106.077 37C105.89 38.2 105.677 39.5333 105.437 41C105.277 41.9067 105.09 43 104.877 44.28C104.69 45.56 104.463 47.0133 104.197 48.64H104.797C105.143 47.4133 105.463 46.2933 105.757 45.28C106.05 44.2667 106.303 43.3733 106.517 42.6C106.73 41.8267 106.93 41.1333 107.117 40.52C107.33 39.88 107.503 39.3067 107.637 38.8C108.197 36.8267 108.65 35.2133 108.997 33.96C109.343 32.7067 109.57 31.8933 109.677 31.52H110.037C110.73 31.52 111.45 31.4667 112.197 31.36C112.97 31.2533 113.663 31.1333 114.277 31C114.25 31.1067 114.197 31.5467 114.117 32.32C114.037 33.0933 113.943 34.04 113.837 35.16C113.73 36.28 113.623 37.44 113.517 38.64C113.33 40.9067 113.157 42.88 112.997 44.56C112.863 46.24 112.743 47.6 112.637 48.64H113.357L117.157 31.44L119.837 31.08C120.21 31.0267 120.597 30.9733 120.997 30.92C121.397 30.8667 121.81 30.8133 122.237 30.76C123.01 30.6533 123.743 30.5333 124.437 30.4C123.637 32.64 122.837 35.28 122.037 38.32C121.237 41.36 120.437 44.44 119.637 47.56C119.21 49.2667 118.783 51 118.357 52.76C117.957 54.4933 117.557 56.2667 117.157 58.08L108.117 59.6L109.877 44.16H109.397L105.437 58.68L97.1166 60.16Z" fill="#FFA62B"/>
<path fill-rule="evenodd" clip-rule="evenodd" d="M105.5 32L81 86L81.0124 85.9726L100 32.5L105.5 32Z" fill="#FFA62B" stroke="#FFA62B"/>
<path d="M116.5 36L121.634 13.5983L115.388 13.08L126.747 0.852506L135.446 14.7445L128.517 14.1695L120.338 42.4651L116.5 36Z" fill="#FFA62B" stroke="#FFA62B"/>
</svg>
