<svg width="159" height="38" viewBox="0 0 159 38" fill="none" xmlns="http://www.w3.org/2000/svg">
<path d="M-5.96046e-08 37.45C1.46667 32.9833 2.86667 28.6333 4.2 24.4C4.76667 22.6667 5.35 20.8167 5.95 18.85C6.55 16.8833 7.15 14.9167 7.75 12.95C8.35 10.95 8.91667 9.03334 9.45 7.2C9.98333 5.36667 10.4333 3.73334 10.8 2.3C12.6333 2.3 14.3667 2.2 16 2C16.8333 1.9 17.6833 1.8 18.55 1.7C19.45 1.6 20.3667 1.51667 21.3 1.45L21 3.9C20.9333 4.36667 20.8667 4.85 20.8 5.35C20.7333 5.81667 20.6667 6.3 20.6 6.8C20.5333 7.3 20.45 7.81667 20.35 8.35C20.25 8.85 20.1667 9.36667 20.1 9.9C19.9667 10.9333 19.7667 12.3833 19.5 14.25C19.2333 16.0833 18.9167 18.0833 18.55 20.25H19.2C20.1667 17.7167 20.9667 15.6167 21.6 13.95C22.2333 12.25 22.75 10.8667 23.15 9.8C23.7167 8.23334 24.3333 6.65 25 5.05C25.6667 3.45 26.2167 2.21667 26.65 1.35C27.45 1.28334 28.4 1.18334 29.5 1.05C30.6333 0.883336 31.7667 0.700002 32.9 0.500001C34.0667 0.300001 35.0667 0.133335 35.9 1.07288e-06C35.4333 2.8 35 5.63334 34.6 8.5C34.2333 11.3333 33.9 14.05 33.6 16.65C33.3333 19.2167 33.1 21.5333 32.9 23.6C32.7 25.6667 32.5167 27.7167 32.35 29.75C32.1833 31.75 32.0167 33.7333 31.85 35.7L23.15 37.25C23.15 37.1833 23.2 36.4333 23.3 35C23.4 33.5667 23.5667 31.7833 23.8 29.65C24.0333 27.5167 24.2667 25.5 24.5 23.6C24.7333 21.6667 24.9667 20.0833 25.2 18.85H24.75C23.9167 21.3833 22.9 24.15 21.7 27.15C20.5333 30.15 19.3833 33.4667 18.25 37.1C17.0833 37.1333 16.0833 37.1833 15.25 37.25C14.4167 37.2833 13.45 37.3333 12.35 37.4L13.95 18.85H13.2C13.1667 19.2167 13.0167 19.9333 12.75 21C12.4833 22.0333 12.1667 23.2333 11.8 24.6C11.4333 25.9333 11.05 27.2667 10.65 28.6C9.15 33.8333 8.35 36.6 8.25 36.9L-5.96046e-08 37.45ZM36.307 37L38.607 26.95C38.607 24.5833 38.5404 22.1667 38.407 19.7C38.307 17.2 38.1737 14.7167 38.007 12.25C37.8737 9.78333 37.7404 7.8 37.607 6.3C37.507 4.8 37.457 4.05 37.457 4.05L45.607 0.950001V7.05C45.607 8.98333 45.5904 10.7333 45.557 12.3C45.557 13.8333 45.557 15.1833 45.557 16.35C45.9904 15.2167 46.507 13.8167 47.107 12.15C47.7404 10.4833 48.3237 8.86667 48.857 7.3C49.1904 6.36667 49.507 5.43334 49.807 4.5C50.1404 3.53334 50.4737 2.53334 50.807 1.5L58.557 3.25C57.1237 6.08334 55.7237 8.93334 54.357 11.8C53.557 13.5667 52.6737 15.4333 51.707 17.4C50.7737 19.3333 49.8904 21.15 49.057 22.85C48.257 24.5167 47.6237 25.85 47.157 26.85C46.9904 27.7167 46.7737 28.6667 46.507 29.7C46.2737 30.7333 46.0404 31.7167 45.807 32.65C45.6737 33.1833 45.5237 33.7333 45.357 34.3C45.1904 34.8333 45.0237 35.3833 44.857 35.95L36.307 37Z" fill="#489EB5"/>
<path d="M61.6121 37.8L64.2121 24.8C64.6121 22.4 65.0454 19.9333 65.5121 17.4C65.9788 14.8667 66.4121 12.3667 66.8121 9.9C67.2454 7.43334 67.5788 5.11667 67.8121 2.95C69.7121 2.35 71.7621 1.91667 73.9621 1.65C76.1621 1.35 78.3454 1.2 80.5121 1.2C83.0454 1.2 84.7621 1.75 85.6621 2.85C86.5954 3.95 87.0621 5.43334 87.0621 7.3C87.0621 9 86.6621 10.7167 85.8621 12.45C85.0621 14.15 84.0121 15.7 82.7121 17.1C81.4454 18.4667 80.0454 19.55 78.5121 20.35C79.1121 21.6833 79.7454 23.15 80.4121 24.75C81.1121 26.3167 81.7621 27.8167 82.3621 29.25C82.6954 30.0833 83.0288 30.9167 83.3621 31.75C83.7288 32.5833 84.0788 33.4167 84.4121 34.25L76.6621 36.95C76.3288 35.7833 76.0121 34.6667 75.7121 33.6C75.4121 32.5333 75.1288 31.4833 74.8621 30.45C74.5288 29.2167 74.2121 28.0333 73.9121 26.9C73.6121 25.7333 73.3454 24.7 73.1121 23.8C72.9121 22.9 72.7954 22.2667 72.7621 21.9L72.1121 22.1C71.9121 23.1667 71.6621 24.4667 71.3621 26C71.0954 27.5333 70.8454 29.0167 70.6121 30.45L69.7121 35.7L61.6121 37.8ZM73.3621 16.1C73.9621 16.0333 74.6954 15.7833 75.5621 15.35C76.4621 14.8833 77.3454 14.3167 78.2121 13.65C79.1121 12.9833 79.8621 12.3 80.4621 11.6C81.0621 10.9 81.3621 10.2833 81.3621 9.75C81.3621 9.08334 80.9621 8.65 80.1621 8.45C79.3954 8.21667 78.3788 8.1 77.1121 8.1H76.0121C75.8121 8.13334 75.6288 8.15 75.4621 8.15C75.2954 8.15 75.1288 8.15 74.9621 8.15L73.3621 16.1ZM96.5789 37.65C96.6456 37.0833 96.7122 36.5333 96.7789 36C96.8456 35.4667 96.9122 34.9333 96.9789 34.4L97.2789 31.6C97.3122 31.1333 97.3456 30.7 97.3789 30.3C97.4122 29.9 97.4456 29.5333 97.4789 29.2H93.1289L91.1289 36.4C90.3956 36.5 89.5289 36.6167 88.5289 36.75C87.5289 36.85 86.5956 36.95 85.7289 37.05C85.1956 37.1167 84.6622 37.1833 84.1289 37.25C83.6289 37.3167 83.1122 37.3833 82.5789 37.45L86.5289 24.35C86.9956 22.7833 87.5289 21 88.1289 19C88.7289 17 89.3289 14.95 89.9289 12.85C90.5622 10.75 91.1456 8.78333 91.6789 6.95C92.2456 5.08333 92.6956 3.51667 93.0289 2.25C95.2956 2.08334 97.5956 1.88333 99.9289 1.65C102.296 1.41667 104.596 1.1 106.829 0.700001C106.662 2.56667 106.496 4.68333 106.329 7.05C106.196 9.38334 106.062 11.8 105.929 14.3C105.829 16.8 105.712 19.2667 105.579 21.7C105.512 24 105.429 26.3833 105.329 28.85C105.229 31.2833 105.129 33.7833 105.029 36.35C104.529 36.4167 104.029 36.4833 103.529 36.55C103.029 36.6167 102.529 36.6833 102.029 36.75C101.196 36.8833 100.279 37.0333 99.2789 37.2C98.2789 37.3667 97.3789 37.5167 96.5789 37.65ZM94.3289 24.2C94.5289 24.2 94.8956 24.1833 95.4289 24.15C95.9956 24.1167 96.5289 24.0833 97.0289 24.05C97.5289 24.0167 97.8289 24 97.9289 24C97.9289 23.5667 97.9956 22.6833 98.1289 21.35C98.2622 20.0167 98.3956 18.6167 98.5289 17.15C98.5956 16.2833 98.6622 15.4 98.7289 14.5C98.8289 13.5667 98.9289 12.6167 99.0289 11.65L99.3289 7.3L98.5789 7.35L97.4289 11.65L94.3289 24.2ZM105.51 38C106.51 33.2 107.46 28.55 108.36 24.05C109.093 19.8167 109.81 15.75 110.51 11.85C111.21 7.95 111.71 4.36667 112.01 1.1C112.243 1.13333 112.443 1.15 112.61 1.15C112.81 1.15 112.976 1.15 113.11 1.15H114.16C115.026 1.15 115.993 1.13333 117.06 1.1C118.126 1.03334 119.11 0.983336 120.01 0.950001C120.243 2.11667 120.46 3.26667 120.66 4.4C120.893 5.53334 121.093 6.63334 121.26 7.7C121.426 8.63334 121.61 9.6 121.81 10.6C122.01 11.5667 122.21 12.55 122.41 13.55C122.576 14.55 122.743 15.4833 122.91 16.35C123.11 17.1833 123.276 17.95 123.41 18.65C123.81 16.6833 124.176 14.75 124.51 12.85C124.876 10.95 125.226 9.23334 125.56 7.7L127.01 1L133.11 0.250001C132.543 2.78334 132.01 5.26667 131.51 7.7C131.01 10.1333 130.543 12.4833 130.11 14.75C129.276 18.8167 128.543 22.65 127.91 26.25C127.276 29.85 126.793 32.9833 126.46 35.65C126.826 35.65 126.76 35.7 126.26 35.8C125.793 35.8667 125.093 35.9833 124.16 36.15C123.226 36.2833 122.226 36.4667 121.16 36.7C120.093 36.9333 119.143 37.2167 118.31 37.55C118.21 36.2167 118.11 34.9167 118.01 33.65C117.91 32.3833 117.793 31.15 117.66 29.95C117.46 27.8167 117.226 25.7 116.96 23.6C116.693 21.5 116.426 19.8333 116.16 18.6C115.926 20.0667 115.643 21.75 115.31 23.65C114.976 25.5167 114.61 27.4 114.21 29.3L112.81 36.3L105.51 38ZM128.217 37.8C128.717 35.4667 129.201 33.1667 129.667 30.9C130.134 28.6333 130.584 26.4 131.017 24.2C131.717 20.2333 132.401 16.3167 133.067 12.45C133.734 8.55 134.217 4.83334 134.517 1.3L137.117 1.45C137.584 1.48334 138.034 1.51667 138.467 1.55C138.934 1.58333 139.384 1.61667 139.817 1.65C140.317 1.68334 140.817 1.71667 141.317 1.75C141.817 1.75 142.317 1.75 142.817 1.75C142.751 2.01667 142.634 2.55 142.467 3.35C142.334 4.15 142.184 4.96667 142.017 5.8C141.884 6.6 141.784 7.15 141.717 7.45L140.817 12.4L141.117 12.35C142.084 10.85 143.201 9.11667 144.467 7.15C145.734 5.18334 146.917 3.3 148.017 1.5C149.684 1.36667 151.351 1.21667 153.017 1.05C154.684 0.883336 156.351 0.666669 158.017 0.400002C157.251 1.43334 156.484 2.46667 155.717 3.5C154.951 4.53333 154.201 5.56667 153.467 6.6C152.701 7.66667 151.867 8.83334 150.967 10.1C150.067 11.3667 149.201 12.6167 148.367 13.85C147.567 15.05 146.901 16.0833 146.367 16.95C146.734 18.6167 147.134 20.2667 147.567 21.9C148.001 23.5333 148.467 25.1333 148.967 26.7C149.467 28.2667 149.967 29.85 150.467 31.45C150.967 33.05 151.484 34.6667 152.017 36.3C151.251 36.2667 150.467 36.25 149.667 36.25C148.867 36.2167 148.084 36.2 147.317 36.2C146.351 36.2 145.417 36.2167 144.517 36.25C143.617 36.25 142.684 36.2667 141.717 36.3C141.584 35.2333 141.434 34.1333 141.267 33C141.101 31.8333 140.934 30.65 140.767 29.45C140.601 28.2833 140.434 27.1333 140.267 26C140.101 24.8333 139.934 23.7167 139.767 22.65L138.867 23.7C138.634 24.6667 138.384 25.9 138.117 27.4C137.984 28.1333 137.834 28.8667 137.667 29.6C137.534 30.3 137.401 30.9833 137.267 31.65C137.134 32.45 136.984 33.2667 136.817 34.1C136.651 34.9 136.484 35.7333 136.317 36.6L128.217 37.8Z" fill="#FFA62B"/>
</svg>
