<svg width="154" height="31" viewBox="0 0 154 31" fill="none" xmlns="http://www.w3.org/2000/svg">
<path d="M0.000195265 29.96C1.17353 26.3866 2.29353 22.9066 3.3602 19.52C3.81353 18.1333 4.2802 16.6533 4.7602 15.08C5.2402 13.5066 5.7202 11.9333 6.2002 10.36C6.6802 8.75995 7.13353 7.22662 7.5602 5.75995C7.98686 4.29328 8.34686 2.98662 8.6402 1.83995C10.1069 1.83995 11.4935 1.75995 12.8002 1.59995C13.4669 1.51995 14.1469 1.43995 14.8402 1.35995C15.5602 1.27995 16.2935 1.21328 17.0402 1.15995L16.8002 3.11995C16.7469 3.49328 16.6935 3.87995 16.6402 4.27995C16.5869 4.65328 16.5335 5.03995 16.4802 5.43995C16.4269 5.83995 16.3602 6.25328 16.2802 6.67995C16.2002 7.07995 16.1335 7.49328 16.0802 7.91995C15.9735 8.74662 15.8135 9.90662 15.6002 11.4C15.3869 12.8666 15.1335 14.4666 14.8402 16.2H15.3602C16.1335 14.1733 16.7735 12.4933 17.2802 11.16C17.7869 9.79995 18.2002 8.69328 18.5202 7.83995C18.9735 6.58662 19.4669 5.31995 20.0002 4.03995C20.5335 2.75995 20.9735 1.77328 21.3202 1.07995C21.9602 1.02662 22.7202 0.946617 23.6002 0.83995C24.5069 0.706617 25.4135 0.55995 26.3202 0.399949C27.2535 0.239949 28.0535 0.106616 28.7202 -5.10216e-05C28.3469 2.23995 28.0002 4.50662 27.6802 6.79995C27.3869 9.06662 27.1202 11.24 26.8802 13.32C26.6669 15.3733 26.4802 17.2266 26.3202 18.88C26.1602 20.5333 26.0135 22.1733 25.8802 23.8C25.7469 25.4 25.6135 26.9866 25.4802 28.56L18.5202 29.8C18.5202 29.7466 18.5602 29.1466 18.6402 28C18.7202 26.8533 18.8535 25.4266 19.0402 23.72C19.2269 22.0133 19.4135 20.4 19.6002 18.88C19.7869 17.3333 19.9735 16.0666 20.1602 15.08H19.8002C19.1335 17.1066 18.3202 19.32 17.3602 21.72C16.4269 24.12 15.5069 26.7733 14.6002 29.68C13.6669 29.7066 12.8669 29.7466 12.2002 29.8C11.5335 29.8266 10.7602 29.8666 9.8802 29.92L11.1602 15.08H10.5602C10.5335 15.3733 10.4135 15.9466 10.2002 16.8C9.98686 17.6266 9.73353 18.5866 9.4402 19.68C9.14686 20.7466 8.8402 21.8133 8.5202 22.88C7.3202 27.0666 6.6802 29.28 6.6002 29.52L0.000195265 29.96ZM29.0458 29.6L30.8858 21.56C30.8858 19.6666 30.8325 17.7333 30.7258 15.7599C30.6458 13.76 30.5392 11.7733 30.4058 9.79995C30.2992 7.82662 30.1925 6.23995 30.0858 5.03995C30.0058 3.83995 29.9658 3.23995 29.9658 3.23995L36.4858 0.759949V5.63995C36.4858 7.18662 36.4725 8.58662 36.4458 9.83995C36.4458 11.0666 36.4458 12.1466 36.4458 13.0799C36.7925 12.1733 37.2058 11.0533 37.6858 9.71995C38.1925 8.38662 38.6592 7.09328 39.0858 5.83995C39.3525 5.09328 39.6058 4.34662 39.8458 3.59995C40.1125 2.82662 40.3792 2.02662 40.6458 1.19995L46.8458 2.59995C45.6992 4.86662 44.5792 7.14662 43.4858 9.43995C42.8458 10.8533 42.1392 12.3466 41.3658 13.92C40.6192 15.4666 39.9125 16.92 39.2458 18.28C38.6058 19.6133 38.0992 20.68 37.7258 21.48C37.5925 22.1733 37.4192 22.9333 37.2058 23.76C37.0192 24.5866 36.8325 25.3733 36.6458 26.12C36.5392 26.5466 36.4192 26.9866 36.2858 27.44C36.1525 27.8666 36.0192 28.3066 35.8858 28.76L29.0458 29.6Z" fill="#489EB5"/>
<path d="M49.0099 30.24C49.8099 26.64 50.5699 23.12 51.2899 19.68C51.5832 18.2933 51.8765 16.8133 52.1699 15.24C52.4899 13.64 52.8099 12.0266 53.1299 10.3999C53.4499 8.77328 53.7432 7.23995 54.0099 5.79995C54.2765 4.33328 54.4899 3.05328 54.6499 1.95995C55.7165 1.63995 56.8632 1.34662 58.0899 1.07995C59.3432 0.813283 60.4632 0.67995 61.4499 0.67995C63.0499 0.67995 64.3166 1.02662 65.2499 1.71995C66.1832 2.38662 66.8499 3.29328 67.2499 4.43995C67.6499 5.58662 67.8499 6.83995 67.8499 8.19995C67.8499 9.69328 67.5699 11.1333 67.0099 12.5199C66.4766 13.8799 65.7432 15.1066 64.8099 16.2C63.9032 17.2933 62.8499 18.16 61.6499 18.8C60.4766 19.44 59.2499 19.76 57.9699 19.76H57.5299C57.3165 20.6666 57.1165 21.6533 56.9299 22.72C56.7432 23.7866 56.5832 24.7733 56.4499 25.68C56.3432 26.2133 56.2499 26.7466 56.1699 27.28C56.0899 27.8133 56.0099 28.3466 55.9299 28.88L49.0099 30.24ZM58.3299 15.56C58.9432 15.4 59.5566 15 60.1699 14.36C60.7832 13.6933 61.2899 12.8533 61.6899 11.84C62.0899 10.8266 62.2899 9.71995 62.2899 8.51995C62.2899 7.53328 62.0632 6.78662 61.6099 6.27995C61.1832 5.77328 60.7032 5.51995 60.1699 5.51995C59.8766 7.27995 59.5832 8.94662 59.2899 10.52C58.9966 12.0933 58.6765 13.7733 58.3299 15.56ZM64.4461 30.24L66.5261 19.84C66.8461 17.92 67.1928 15.9466 67.5661 13.92C67.9395 11.8933 68.2861 9.89328 68.6061 7.91995C68.9528 5.94662 69.2195 4.09328 69.4061 2.35995C70.9261 1.87995 72.5661 1.53328 74.3261 1.31995C76.0861 1.07995 77.8328 0.959951 79.5661 0.959951C81.5928 0.959951 82.9661 1.39995 83.6861 2.27995C84.4328 3.15995 84.8061 4.34662 84.8061 5.83995C84.8061 7.19995 84.4861 8.57328 83.8461 9.95995C83.2061 11.32 82.3661 12.56 81.3261 13.68C80.3128 14.7733 79.1928 15.64 77.9661 16.28C78.4461 17.3466 78.9528 18.52 79.4861 19.8C80.0461 21.0533 80.5661 22.2533 81.0461 23.4C81.3128 24.0666 81.5795 24.7333 81.8461 25.4C82.1395 26.0666 82.4195 26.7333 82.6861 27.4L76.4861 29.56L75.0461 24.76C74.6461 23.4266 74.2728 22.1466 73.9261 20.92C73.6061 19.6666 73.4195 18.7866 73.3661 18.28L72.8461 18.44C72.7661 18.8666 72.6728 19.3333 72.5661 19.84C72.4861 20.32 72.3928 20.8533 72.2861 21.44C72.1795 22.0266 72.0728 22.6 71.9661 23.16C71.8595 23.6933 71.7528 24.2266 71.6461 24.76L70.9261 28.56L64.4461 30.24ZM73.8461 12.88C74.3261 12.8266 74.9128 12.6266 75.6061 12.28C76.3261 11.9066 77.0328 11.4533 77.7261 10.92C78.4461 10.3866 79.0461 9.83995 79.5261 9.27995C80.0061 8.71995 80.2461 8.22662 80.2461 7.79995C80.2461 7.26662 79.9261 6.91995 79.2861 6.75995C78.6728 6.57328 77.8595 6.47995 76.8461 6.47995H75.9661C75.8061 6.50662 75.6595 6.51995 75.5261 6.51995C75.3928 6.51995 75.2595 6.51995 75.1261 6.51995L73.8461 12.88ZM89.2996 30.36C87.5396 30.36 86.0996 29.68 84.9796 28.32C83.8596 26.96 83.2996 24.9066 83.2996 22.16C83.2996 20.64 83.4862 19.04 83.8596 17.36C84.2329 15.68 84.7529 14.0266 85.4196 12.4C86.0862 10.7733 86.8596 9.26662 87.7396 7.87995C89.1529 5.63995 90.7796 3.81328 92.6196 2.39995C94.4596 0.986616 96.3929 0.27995 98.4196 0.27995C100.02 0.27995 101.246 0.693284 102.1 1.51995C102.98 2.31995 103.593 3.35995 103.94 4.63995C104.286 5.89328 104.46 7.19995 104.46 8.55995C104.46 11.7333 103.966 14.6933 102.98 17.44C102.02 20.16 100.766 22.4666 99.2196 24.36C97.6729 26.3066 96.0196 27.8 94.2596 28.84C92.5262 29.8533 90.8729 30.36 89.2996 30.36ZM91.4596 23.76C92.6596 23.76 93.7129 23.36 94.6196 22.56C95.5529 21.76 96.3396 20.7466 96.9796 19.52C97.6196 18.2666 98.0996 16.96 98.4196 15.6C98.7396 14.24 98.8996 13.0133 98.8996 11.92C98.8996 11.4933 98.8596 11.04 98.7796 10.56C98.6996 10.0533 98.5262 9.61328 98.2596 9.23995C97.9929 8.86662 97.5796 8.67995 97.0196 8.67995C95.7929 8.67995 94.6862 9.13328 93.6996 10.04C92.7129 10.92 91.8862 12.04 91.2196 13.4C90.5529 14.7866 90.0596 16.1466 89.7396 17.48C89.4196 18.8133 89.2596 20.0266 89.2596 21.12C89.2596 21.68 89.4596 22.2666 89.8596 22.88C90.2596 23.4666 90.7929 23.76 91.4596 23.76ZM101.946 30.24C102.319 28.96 102.679 27.5066 103.026 25.88C103.373 24.2266 103.693 22.5466 103.986 20.84C104.306 19.1333 104.599 17.5466 104.866 16.08C105.133 14.6133 105.346 13.4 105.506 12.4399C105.799 10.6533 106.079 8.85328 106.346 7.03995C106.639 5.19995 106.919 3.33328 107.186 1.43995L120.586 0.759949L119.426 5.67995H113.146L111.906 12.7999C112.333 12.7733 112.733 12.76 113.106 12.76C113.506 12.76 113.893 12.76 114.266 12.76H116.146C116.466 12.76 116.746 12.76 116.986 12.76C117.226 12.76 117.439 12.7466 117.626 12.72C117.599 13.0933 117.559 13.4666 117.506 13.84C117.453 14.1866 117.399 14.5466 117.346 14.92L116.986 17.08C116.426 17.08 115.613 17.0666 114.546 17.04C113.506 16.9866 112.399 16.9466 111.226 16.92L109.386 28.72C108.933 28.8 108.479 28.88 108.026 28.96C107.599 29.04 107.159 29.1333 106.706 29.24C105.959 29.3733 105.146 29.5333 104.266 29.72C103.386 29.9066 102.613 30.08 101.946 30.24ZM115.619 30.16C115.992 28.6133 116.366 26.8666 116.739 24.92C117.112 22.9466 117.486 20.9066 117.859 18.8C118.232 16.6933 118.579 14.6666 118.899 12.72C119.192 11.0133 119.472 9.27995 119.739 7.51995C120.032 5.75995 120.312 3.98662 120.579 2.19995L126.819 1.19995L125.019 11.72C124.619 14.2 124.259 16.4266 123.939 18.4C123.646 20.3733 123.352 22.24 123.059 24C122.792 25.76 122.512 27.56 122.219 29.4C121.712 29.4 121.099 29.44 120.379 29.52C119.659 29.5733 118.939 29.6533 118.219 29.76C117.499 29.84 116.886 29.92 116.379 30C115.899 30.08 115.646 30.1333 115.619 30.16ZM123.985 30.28C124.278 28.1733 124.585 26.0533 124.905 23.92C125.252 21.7866 125.598 19.7333 125.945 17.76C126.318 15.76 126.665 13.96 126.985 12.36C127.332 10.6266 127.678 8.86662 128.025 7.07995C128.372 5.29328 128.732 3.49328 129.105 1.67995L136.105 0.759949L134.025 9.79995C133.652 11.3733 133.265 13.0666 132.865 14.88C132.492 16.6666 132.145 18.4 131.825 20.08C131.505 21.76 131.252 23.2533 131.065 24.56C131.732 24.5066 132.438 24.48 133.185 24.48C133.958 24.4533 134.638 24.44 135.225 24.44C135.252 25.0533 135.305 25.7066 135.385 26.4C135.465 27.0666 135.545 27.6533 135.625 28.16C135.732 28.64 135.785 28.9066 135.785 28.96C135.678 28.96 135.572 28.96 135.465 28.96C135.385 28.96 135.292 28.9466 135.185 28.92H134.545C133.505 28.92 132.345 28.9733 131.065 29.08C129.812 29.16 128.558 29.3066 127.305 29.52C126.078 29.7066 124.972 29.96 123.985 30.28ZM135.895 30.24L141.135 1.79995L153.775 0.719949C153.589 1.30662 153.429 1.90662 153.295 2.51995C153.162 3.02662 153.029 3.55995 152.895 4.11995C152.789 4.65328 152.695 5.13328 152.615 5.55995C152.269 5.58662 151.775 5.61328 151.135 5.63995C150.495 5.63995 149.842 5.65328 149.175 5.67995C148.509 5.67995 147.935 5.67995 147.455 5.67995C146.975 5.67995 146.722 5.67995 146.695 5.67995L145.295 12.84L147.615 12.72C147.909 12.6933 148.202 12.68 148.495 12.68C148.815 12.68 149.122 12.68 149.415 12.68C149.709 12.68 149.975 12.68 150.215 12.68C150.455 12.68 150.642 12.6666 150.775 12.64C150.722 13.0133 150.669 13.3866 150.615 13.76C150.589 14.1066 150.549 14.4666 150.495 14.84L150.135 17.04C150.002 17.0666 149.829 17.08 149.615 17.08C149.402 17.08 149.149 17.08 148.855 17.08C148.562 17.1066 148.255 17.12 147.935 17.12C147.615 17.12 147.309 17.1333 147.015 17.16C146.669 17.1866 146.309 17.2 145.935 17.2C145.562 17.2 145.162 17.2133 144.735 17.24L143.375 24.6L149.215 23.68L148.815 28.24L135.895 30.24Z" fill="#FFA62B"/>
</svg>
