<svg width="393" height="399" viewBox="0 0 393 399" fill="none" xmlns="http://www.w3.org/2000/svg">
<path d="M396 305.155H-3V305.355H396V305.155Z" fill="#EBEBEB"/>
<path d="M356.02 317.995H329.59V318.194H356.02V317.995Z" fill="#EBEBEB"/>
<path d="M261.314 320.166H254.379V320.365H261.314V320.166Z" fill="#EBEBEB"/>
<path d="M328.792 310.59H313.479V310.789H328.792V310.59Z" fill="#EBEBEB"/>
<path d="M73.3287 311.93H38.8631V312.13H73.3287V311.93Z" fill="#EBEBEB"/>
<path d="M85.4902 311.93H80.4389V312.13H85.4902V311.93Z" fill="#EBEBEB"/>
<path d="M176.67 315.298H101.913V315.497H176.67V315.298Z" fill="#EBEBEB"/>
<path d="M186.126 269.564H32.0402C30.8331 269.562 29.6761 269.081 28.8233 268.227C27.9705 267.373 27.4916 266.215 27.4916 265.008V48.4067C27.5021 47.2065 27.9857 46.0589 28.8374 45.2133C29.689 44.3676 30.84 43.8921 32.0402 43.89H186.126C187.334 43.89 188.493 44.3701 189.348 45.2246C190.203 46.0791 190.683 47.2381 190.683 48.4466V265.008C190.683 266.216 190.203 267.375 189.348 268.23C188.493 269.084 187.334 269.564 186.126 269.564ZM32.0402 44.0496C30.886 44.0517 29.7798 44.5117 28.9644 45.3286C28.149 46.1455 27.6911 47.2525 27.6911 48.4067V265.008C27.6911 266.162 28.149 267.269 28.9644 268.086C29.7798 268.903 30.886 269.363 32.0402 269.365H186.126C187.281 269.363 188.388 268.903 189.205 268.086C190.021 267.27 190.481 266.163 190.483 265.008V48.4067C190.481 47.2518 190.021 46.1447 189.205 45.3281C188.388 44.5114 187.281 44.0517 186.126 44.0496H32.0402Z" fill="#EBEBEB"/>
<path d="M358.741 269.564H204.648C203.44 269.562 202.282 269.082 201.428 268.227C200.574 267.373 200.093 266.216 200.091 265.008V48.4067C200.104 47.2058 200.589 46.0582 201.442 45.2128C202.295 44.3673 203.447 43.892 204.648 43.89H358.741C359.94 43.8942 361.089 44.3706 361.939 45.2161C362.789 46.0615 363.272 47.2079 363.282 48.4067V265.008C363.282 266.214 362.804 267.37 361.953 268.224C361.102 269.078 359.947 269.56 358.741 269.564ZM204.648 44.0496C203.493 44.0517 202.386 44.5114 201.569 45.3281C200.752 46.1447 200.293 47.2518 200.291 48.4067V265.008C200.293 266.163 200.752 267.27 201.569 268.086C202.386 268.903 203.493 269.363 204.648 269.365H358.741C359.896 269.363 361.003 268.903 361.82 268.086C362.637 267.27 363.096 266.163 363.098 265.008V48.4067C363.096 47.2518 362.637 46.1447 361.82 45.3281C361.003 44.5114 359.896 44.0517 358.741 44.0496H204.648Z" fill="#EBEBEB"/>
<path d="M70.416 62.244H80.4389C80.4389 62.244 77.6539 72.0754 72.2754 75.012C69.3547 76.608 63.1462 71.82 63.1462 71.82C63.1462 71.82 70.5038 68.9951 70.416 62.244Z" fill="#EBEBEB"/>
<path d="M120.618 68.5402C120.618 68.5402 117.713 73.3282 114.521 74.0225C114.663 76.8814 113.922 79.7148 112.399 82.1381C117.849 81.7391 124.457 75.2833 120.618 68.5402Z" fill="#F5F5F5"/>
<path d="M47.4097 113.053C47.4097 113.053 44.2177 112.965 41.289 109.589C39.0706 111.058 39.4297 114.25 39.4297 114.25C39.4297 114.25 43.8187 116.907 47.4097 117.705C47.6232 116.162 47.6232 114.596 47.4097 113.053Z" fill="#E0E0E0"/>
<path d="M355.134 162.369C355.134 162.369 351.99 162.281 349.014 158.914C346.803 160.374 347.154 163.566 347.154 163.566C347.154 163.566 351.543 166.223 355.134 167.021C355.348 165.478 355.348 163.912 355.134 162.369Z" fill="#E0E0E0"/>
<path d="M83.8463 109.589C82.2503 107.866 79.8563 102.942 79.8563 102.942C79.8563 102.942 77.598 105.472 77.7337 107.068C77.8693 108.664 82.386 110.786 82.386 110.786L83.8463 109.589Z" fill="#F5F5F5"/>
<path d="M81.0773 39.7244C79.0264 37.8731 71.7886 34.4816 71.7886 34.4816C71.7886 34.4816 77.0075 32.311 79.7686 32.8856C82.5297 33.4601 84.1735 38.8067 84.1735 38.8067L81.0773 39.7244Z" fill="#F5F5F5"/>
<path d="M157.973 60.4485C159.736 60.4485 164.628 59.0759 164.628 59.0759C164.628 59.0759 163.032 62.2679 161.476 63.2016C159.92 64.1352 156.887 62.244 156.887 62.244L157.973 60.4485Z" fill="#F5F5F5"/>
<path d="M325.281 74.214L318.594 70.6789C318.594 70.6789 323.909 65.0929 328.529 65.0929C331.035 65.0929 333.485 70.4395 333.485 70.4395C333.485 70.4395 327.603 69.6893 325.281 74.214Z" fill="#F5F5F5"/>
<path d="M266.086 37.2267C266.086 37.2267 270.914 34.322 274.066 35.2237C275.278 32.6331 277.259 30.4791 279.739 29.0552C274.704 26.8527 265.854 29.4701 266.086 37.2267Z" fill="#F0F0F0"/>
<path d="M43.8506 173.637C43.8506 173.637 44.7523 170.006 46.6436 168.961C45.9883 167.168 45.9047 165.217 46.4042 163.375C43.0286 164.723 40.092 170.102 43.8506 173.637Z" fill="#F0F0F0"/>
<path d="M335.184 30.4597C335.184 30.4597 337.922 32.0158 338.975 36.3808C341.616 36.1255 342.797 33.1409 342.797 33.1409C342.797 33.1409 340.14 28.728 337.355 26.334C336.446 27.6033 335.716 28.9915 335.184 30.4597Z" fill="#E6E6E6"/>
<path d="M207.257 36.3968C205.938 36.879 204.482 36.8246 203.203 36.2452C202.453 37.5778 203.482 39.1259 203.482 39.1259C205.153 39.2314 206.83 39.116 208.47 38.7828C208.173 37.9371 207.765 37.1348 207.257 36.3968Z" fill="#E6E6E6"/>
<path d="M352.325 69.035C352.924 71.3093 352.74 76.7756 352.74 76.7756C352.74 76.7756 355.932 75.6025 356.547 74.1262C357.161 72.6499 354.153 68.6599 354.153 68.6599L352.325 69.035Z" fill="#EBEBEB"/>
<path d="M298.708 77.6693C296.601 79.393 292.228 85.9286 292.228 85.9286C292.228 85.9286 290.887 80.5342 291.829 77.9486C292.771 75.3631 298.213 74.5492 298.213 74.5492L298.708 77.6693Z" fill="#F5F5F5"/>
<path d="M73.9192 186.532L74.5417 191.672C74.6794 192.521 74.7541 193.38 74.7651 194.241L74.6614 196.811C74.5257 200.234 74.3182 203.658 73.999 207.081C73.994 207.138 73.9778 207.193 73.9514 207.243C73.925 207.294 73.8889 207.338 73.8451 207.375C73.8013 207.411 73.7508 207.438 73.6964 207.455C73.642 207.472 73.5848 207.477 73.5282 207.472C73.4286 207.46 73.3359 207.415 73.2649 207.344C73.194 207.273 73.149 207.181 73.1372 207.081C72.818 203.658 72.6105 200.234 72.4748 196.811L72.3711 194.241C72.3821 193.38 72.4568 192.521 72.5945 191.672L73.217 186.532C73.2219 186.486 73.236 186.441 73.2584 186.401C73.2808 186.36 73.3111 186.324 73.3474 186.295C73.3838 186.266 73.4256 186.245 73.4703 186.232C73.515 186.219 73.5618 186.216 73.608 186.221C73.687 186.231 73.7605 186.267 73.8169 186.324C73.8732 186.38 73.9092 186.453 73.9192 186.532Z" fill="#FAFAFA"/>
<path d="M73.9192 217.375L74.5417 222.514C74.6794 223.361 74.7541 224.218 74.7651 225.076L74.6614 227.645C74.5257 231.069 74.3182 234.5 73.999 237.924C73.999 238.038 73.9536 238.148 73.8728 238.228C73.792 238.309 73.6824 238.355 73.5681 238.355C73.4538 238.355 73.3442 238.309 73.2634 238.228C73.1826 238.148 73.1372 238.038 73.1372 237.924C72.818 234.5 72.6105 231.069 72.4748 227.645L72.3711 225.076C72.3821 224.218 72.4568 223.361 72.5945 222.514L73.217 217.375C73.217 217.282 73.254 217.193 73.3198 217.127C73.3857 217.061 73.475 217.024 73.5681 217.024C73.6612 217.024 73.7505 217.061 73.8164 217.127C73.8822 217.193 73.9192 217.282 73.9192 217.375Z" fill="#F0F0F0"/>
<path d="M68.421 212.587L62.2365 213.202C61.2127 213.34 60.1813 213.414 59.1482 213.425L56.052 213.321C51.9237 213.194 47.8033 212.973 43.691 212.659C43.5767 212.659 43.4671 212.614 43.3863 212.533C43.3055 212.452 43.2601 212.342 43.2601 212.228C43.2601 212.114 43.3055 212.004 43.3863 211.923C43.4671 211.843 43.5767 211.797 43.691 211.797C47.8087 211.478 51.9263 211.271 56.052 211.135L59.1403 211.031C60.1733 211.042 61.2047 211.117 62.2285 211.255L68.413 211.877C68.46 211.881 68.5056 211.894 68.5473 211.916C68.5889 211.938 68.6257 211.968 68.6555 212.005C68.6853 212.041 68.7074 212.083 68.7206 212.129C68.7338 212.174 68.7377 212.221 68.7322 212.268C68.7239 212.349 68.6886 212.424 68.6322 212.482C68.5757 212.54 68.5013 212.577 68.421 212.587Z" fill="#EBEBEB"/>
<path d="M85.6658 200.633L84.0698 203.123C83.8241 203.547 83.5265 203.938 83.184 204.288L82.0907 205.246C80.6224 206.506 79.1142 207.735 77.5102 208.868C77.4259 208.923 77.3256 208.946 77.226 208.936C77.1264 208.925 77.0335 208.88 76.9627 208.81C76.8918 208.739 76.8473 208.646 76.8366 208.546C76.8259 208.447 76.8496 208.346 76.9037 208.262C78.0369 206.666 79.2977 205.15 80.5266 203.682L81.4922 202.588C81.8464 202.25 82.2435 201.961 82.6733 201.726L85.163 200.13C85.2452 200.081 85.3431 200.066 85.4366 200.086C85.5301 200.107 85.6121 200.163 85.6658 200.242C85.7026 200.301 85.7222 200.368 85.7222 200.438C85.7222 200.507 85.7026 200.575 85.6658 200.633Z" fill="#F0F0F0"/>
<path d="M70.1766 216.122L67.9502 219.219C67.6105 219.754 67.2175 220.254 66.7771 220.711L65.3806 221.98C63.4973 223.648 61.5821 225.283 59.5712 226.832C59.5262 226.866 59.4748 226.892 59.4199 226.907C59.365 226.921 59.3077 226.925 59.2513 226.918C59.1949 226.91 59.1406 226.892 59.0914 226.863C59.0422 226.835 58.9991 226.797 58.9647 226.752C58.9089 226.675 58.8788 226.583 58.8788 226.488C58.8788 226.394 58.9089 226.302 58.9647 226.225C60.5128 224.214 62.1567 222.299 63.8165 220.416L65.0853 219.019C65.5439 218.583 66.0436 218.193 66.5776 217.854L69.6818 215.628C69.7194 215.6 69.7621 215.58 69.8074 215.569C69.8528 215.558 69.8999 215.556 69.9459 215.564C69.992 215.571 70.0361 215.588 70.0757 215.612C70.1153 215.637 70.1496 215.669 70.1766 215.707C70.2195 215.768 70.2426 215.841 70.2426 215.915C70.2426 215.989 70.2195 216.062 70.1766 216.122Z" fill="#FAFAFA"/>
<path d="M69.6818 208.845L63.9123 203.945C62.9282 203.159 61.9853 202.322 61.0874 201.439L58.4939 198.702C55.0359 195.058 51.639 191.347 48.3034 187.57C48.2259 187.49 48.1826 187.382 48.1826 187.271C48.1826 187.159 48.2259 187.052 48.3034 186.971C48.3803 186.9 48.4815 186.86 48.5867 186.86C48.6919 186.86 48.7931 186.9 48.87 186.971C52.6525 190.291 56.3765 193.688 60.042 197.162L62.7791 199.747C63.6968 200.609 64.4549 201.623 65.2848 202.572L70.1766 208.342C70.2424 208.409 70.2792 208.499 70.2792 208.593C70.2792 208.687 70.2424 208.777 70.1766 208.845C70.1098 208.908 70.0213 208.943 69.9292 208.943C69.8371 208.943 69.7486 208.908 69.6818 208.845Z" fill="#F0F0F0"/>
<path d="M277.481 87.1416L272.31 87.78C271.46 87.9177 270.601 87.9924 269.74 88.0034L267.171 87.8997C263.748 87.764 260.324 87.5566 256.901 87.2374C256.787 87.2252 256.683 87.1693 256.61 87.0813C256.537 86.9934 256.501 86.8805 256.51 86.7665C256.521 86.6669 256.566 86.5742 256.637 86.5033C256.708 86.4324 256.801 86.3874 256.901 86.3755C260.324 86.0563 263.748 85.8488 267.171 85.7132L269.74 85.6094C270.601 85.6205 271.46 85.6951 272.31 85.8329L277.449 86.4553C277.542 86.4553 277.632 86.4923 277.697 86.5582C277.763 86.624 277.8 86.7133 277.8 86.8064C277.8 86.8996 277.763 86.9889 277.697 87.0547C277.632 87.1206 277.542 87.1576 277.449 87.1576L277.481 87.1416Z" fill="#FAFAFA"/>
<path d="M246.638 87.1416L241.499 87.764C240.652 87.9018 239.796 87.9765 238.938 87.9875L236.368 87.8837C232.945 87.7481 229.521 87.5406 226.09 87.2214C225.976 87.2214 225.866 87.176 225.785 87.0952C225.704 87.0144 225.659 86.9048 225.659 86.7905C225.659 86.6762 225.704 86.5666 225.785 86.4858C225.866 86.405 225.976 86.3596 226.09 86.3596C229.521 86.0404 232.945 85.8329 236.368 85.6972L238.938 85.5935C239.796 85.6045 240.652 85.6792 241.499 85.8169L246.638 86.4394C246.731 86.4394 246.821 86.4763 246.887 86.5422C246.952 86.608 246.989 86.6974 246.989 86.7905C246.989 86.8836 246.952 86.9729 246.887 87.0388C246.821 87.1046 246.731 87.1416 246.638 87.1416Z" fill="#F0F0F0"/>
<path d="M251.434 81.6434L250.812 75.4589C250.674 74.435 250.599 73.4037 250.588 72.3706L250.692 69.2824C250.828 65.1647 251.035 61.039 251.355 56.9213C251.365 56.8077 251.419 56.7025 251.505 56.6281C251.591 56.5536 251.703 56.5157 251.817 56.5223C251.92 56.5313 252.017 56.5763 252.089 56.6492C252.162 56.7222 252.207 56.8185 252.216 56.9213C252.536 61.039 252.743 65.1647 252.879 69.2824L252.982 72.3706C252.972 73.4037 252.897 74.435 252.759 75.4589L252.137 81.6434C252.134 81.69 252.121 81.7355 252.1 81.7771C252.079 81.8187 252.05 81.8556 252.014 81.8855C251.978 81.9153 251.936 81.9376 251.892 81.9509C251.847 81.9641 251.8 81.9681 251.754 81.9626C251.671 81.9554 251.594 81.9195 251.536 81.8611C251.477 81.8027 251.442 81.7256 251.434 81.6434Z" fill="#EBEBEB"/>
<path d="M263.38 98.8882L260.891 97.2922C260.461 97.0579 260.064 96.7681 259.71 96.4303L258.744 95.3131C257.483 93.8448 256.254 92.3366 255.121 90.7326C255.055 90.6381 255.029 90.5216 255.049 90.4081C255.068 90.2947 255.131 90.1934 255.225 90.1261C255.298 90.0735 255.386 90.0452 255.476 90.0452C255.566 90.0452 255.654 90.0735 255.728 90.1261C257.324 91.2593 258.84 92.5201 260.308 93.749L261.401 94.7146C261.739 95.0688 262.029 95.4659 262.263 95.8957L263.859 98.3854C263.908 98.4676 263.924 98.5655 263.903 98.659C263.882 98.7525 263.827 98.8345 263.747 98.8882C263.692 98.9204 263.628 98.9373 263.564 98.9373C263.499 98.9373 263.436 98.9204 263.38 98.8882Z" fill="#F0F0F0"/>
<path d="M247.899 83.399L244.795 81.1726C244.261 80.8309 243.761 80.438 243.303 79.9995L242.034 78.603C240.366 76.7197 238.73 74.8045 237.182 72.7936C237.147 72.7486 237.122 72.6972 237.107 72.6423C237.092 72.5874 237.088 72.5301 237.096 72.4737C237.103 72.4173 237.122 72.363 237.15 72.3138C237.179 72.2646 237.217 72.2215 237.262 72.1871C237.338 72.1313 237.431 72.1012 237.525 72.1012C237.62 72.1012 237.712 72.1313 237.789 72.1871C239.799 73.7352 241.715 75.3791 243.598 77.0389L244.994 78.3077C245.433 78.7659 245.826 79.2657 246.168 79.8L248.394 82.9042C248.451 82.9715 248.48 83.0576 248.476 83.1454C248.473 83.2333 248.436 83.3166 248.374 83.3788C248.312 83.441 248.228 83.4775 248.14 83.4813C248.053 83.485 247.966 83.4557 247.899 83.399Z" fill="#FAFAFA"/>
<path d="M255.177 82.9042L260.069 77.1347C260.855 76.1506 261.691 75.2077 262.574 74.3098L265.312 71.7242C268.961 68.2609 272.672 64.8614 276.444 61.5258C276.526 61.4579 276.631 61.4233 276.738 61.4285C276.845 61.4337 276.946 61.4786 277.022 61.5542C277.097 61.6298 277.142 61.7309 277.147 61.8378C277.153 61.9446 277.118 62.0496 277.05 62.1323C273.72 65.9148 270.32 69.6388 266.852 73.3043L264.266 76.0414C263.368 76.9247 262.425 77.761 261.441 78.5471L255.672 83.4389C255.637 83.4698 255.597 83.4933 255.553 83.508C255.509 83.5228 255.462 83.5285 255.416 83.5248C255.37 83.521 255.325 83.508 255.283 83.4863C255.242 83.4647 255.206 83.435 255.177 83.399C255.144 83.367 255.117 83.3285 255.099 83.286C255.081 83.2435 255.072 83.1978 255.072 83.1516C255.072 83.1054 255.081 83.0597 255.099 83.0172C255.117 82.9747 255.144 82.9362 255.177 82.9042Z" fill="#F0F0F0"/>
<path d="M196.5 341.193C281.952 341.193 351.224 337.148 351.224 332.16C351.224 327.171 281.952 323.126 196.5 323.126C111.048 323.126 41.7758 327.171 41.7758 332.16C41.7758 337.148 111.048 341.193 196.5 341.193Z" fill="#F5F5F5"/>
<path d="M298.061 152.57C297.551 152.945 297.16 153.224 296.713 153.519C296.266 153.815 295.843 154.086 295.404 154.373C294.534 154.916 293.648 155.45 292.763 155.969C290.967 156.975 289.14 157.916 287.249 158.754C285.359 159.608 283.425 160.359 281.455 161.004C280.473 161.356 279.452 161.627 278.439 161.906L276.898 162.281L276.515 162.377L276.244 162.433L275.917 162.497C275.454 162.583 274.984 162.629 274.512 162.632C273.539 162.653 272.571 162.493 271.656 162.162C270.823 161.858 270.042 161.428 269.341 160.885C268.221 159.996 267.267 158.915 266.524 157.693C265.36 155.742 264.479 153.635 263.907 151.436C262.842 147.461 262.284 143.367 262.247 139.251C262.231 138.69 262.421 138.143 262.782 137.713C263.142 137.283 263.648 137 264.203 136.919C264.758 136.837 265.324 136.962 265.793 137.27C266.262 137.577 266.602 138.047 266.748 138.589V138.7C267.692 142.264 268.892 145.755 270.339 149.146C270.957 150.638 271.761 152.046 272.733 153.336C273.048 153.755 273.441 154.11 273.89 154.381C274.201 154.517 274.161 154.381 274.153 154.381C274.713 154.141 275.286 153.933 275.869 153.759C276.667 153.431 277.537 153.136 278.359 152.777C280.019 152.107 281.655 151.309 283.274 150.503C284.894 149.697 286.466 148.811 288.062 147.885C288.86 147.438 289.658 146.968 290.401 146.489L292.603 145.076L292.787 144.957C293.794 144.289 295.025 144.044 296.211 144.275C297.398 144.507 298.446 145.195 299.129 146.193C299.812 147.19 300.076 148.417 299.863 149.607C299.649 150.797 298.977 151.855 297.99 152.554L298.061 152.57Z" fill="#FFB573"/>
<path d="M267.043 142.299L267.283 135.66L259.877 138.006C259.784 139.246 260.088 140.484 260.745 141.54C261.402 142.596 262.378 143.415 263.532 143.879L267.043 142.299Z" fill="#FFB573"/>
<path d="M263.101 131.742L260.388 133.841C260.14 134.032 259.944 134.283 259.818 134.571C259.693 134.858 259.642 135.172 259.67 135.484L259.877 138.006L267.283 135.66L265.982 132.508C265.872 132.241 265.701 132.004 265.484 131.814C265.268 131.624 265.01 131.487 264.731 131.412C264.452 131.338 264.16 131.329 263.878 131.387C263.595 131.444 263.329 131.565 263.101 131.742Z" fill="#FFB573"/>
<path d="M297.088 141.046C291.909 141.932 286.466 147.534 286.466 147.534C286.466 147.534 287.791 153.631 288.86 159.704C302.554 157.94 306.879 139.379 297.088 141.046Z" fill="#407BFF"/>
<path d="M291.007 148.524C291.861 164.35 291.861 180.211 291.007 196.037L323.478 198.431C326.327 181.385 325.776 165.226 326.087 149.082C326.175 144.446 324.802 140.185 320.182 139.746C318.474 139.586 314.596 139.538 313.088 139.57C308.53 139.623 303.979 139.942 299.458 140.528C298.484 140.695 297.519 140.887 296.609 141.102C294.947 141.474 293.471 142.425 292.445 143.784C291.419 145.144 290.909 146.823 291.007 148.524Z" fill="#407BFF"/>
<path opacity="0.2" d="M318.977 149.034C318.977 149.034 321.259 156.504 325.944 158.219C325.944 155.243 325.991 152.266 326.047 149.298L318.977 149.034Z" fill="black"/>
<path d="M291.055 193.778C291.055 193.778 267.618 216.378 259.582 233.104C251.227 250.5 236.129 283.569 236.129 283.569L241.092 286.051C241.092 286.051 269.884 248.593 271.807 238.41C282.309 220.623 308.818 212.42 313.359 197.146C303.719 194.281 291.055 193.778 291.055 193.778Z" fill="#FFB573"/>
<path d="M301.7 196.037C301.7 196.037 298.157 228.013 299.227 245.792C300.408 265.271 310.399 300.503 310.399 300.503L315.187 300.255C315.187 300.255 316.631 270.227 311.133 248.745C314.325 234.5 323.693 213.633 323.422 198.423C316.252 197.082 308.991 196.284 301.7 196.037Z" fill="#FFB573"/>
<path d="M318.458 300C317.261 298.875 315.617 297.606 315.362 294.47C315.362 294.47 309.648 297.095 310.047 299.258C310.446 301.421 310.343 308.347 306.56 312.688C306.034 313.295 307.614 313.997 309.361 313.343C312.33 312.233 312.593 311.124 313.351 308.611C314.006 306.456 317.253 304.206 318.562 302.977C319.655 301.923 319.655 301.125 318.458 300Z" fill="#FFB573"/>
<path d="M239.712 290.472C240.398 288.988 240.19 286.873 241.938 284.647C241.938 284.647 238.746 280.704 237.11 282.141C235.474 283.577 230.726 284.734 225.268 282.939C224.47 282.684 224.039 284.998 225.731 285.772C228.54 287.057 230.614 287.966 233.008 289.06C235.051 289.993 235.402 290.656 236.943 291.541C238.259 292.252 239.017 291.996 239.712 290.472Z" fill="#FFB573"/>
<path d="M302.155 140.608C306.065 139.012 305.722 135.596 304.757 132.42L313.184 124.847C312.537 129.34 311.763 136.745 315.027 139.554C315.027 139.554 313.184 145.659 304.278 147.215C300.791 145.882 299.865 141.382 302.155 140.608Z" fill="#FFB573"/>
<path opacity="0.2" d="M309.561 127.88L304.773 132.412C305.028 133.192 305.213 133.993 305.323 134.806C306.608 134.918 310.047 133.051 310.111 131.056C310.085 129.976 309.899 128.905 309.561 127.88Z" fill="black"/>
<path d="M333.876 111.066L330.005 105.025L337.538 103.134C337.538 103.134 339.932 109.182 337.538 110.73L333.876 111.066Z" fill="#FFB573"/>
<path d="M319.727 141.174L320.166 140.991L320.709 140.743L321.826 140.209C322.568 139.834 323.31 139.411 324.036 138.996C325.486 138.147 326.88 137.206 328.21 136.179C329.514 135.159 330.739 134.041 331.873 132.835C332.423 132.229 332.942 131.606 333.469 130.968L334.123 130.082C334.272 129.87 334.402 129.645 334.514 129.412C334.618 129.187 334.706 128.955 334.777 128.717C334.866 128.421 334.919 128.116 334.937 127.808C335.033 126.946 335.137 126.084 335.168 125.222C335.2 124.36 335.232 123.483 335.248 122.613C335.264 121.743 335.248 120.865 335.145 119.995C335.021 118.241 334.779 116.497 334.418 114.776C334.235 113.915 334.051 113.045 333.796 112.207C333.684 111.784 333.541 111.369 333.405 110.954L333.014 109.813L332.894 109.486C332.709 108.969 332.718 108.403 332.917 107.892C333.117 107.381 333.494 106.96 333.98 106.705C334.466 106.451 335.027 106.38 335.561 106.507C336.095 106.634 336.565 106.949 336.884 107.395C337.275 107.93 337.546 108.321 337.842 108.791C338.137 109.262 338.384 109.693 338.64 110.156C339.15 111.074 339.597 112.015 340.02 112.973C340.831 114.899 341.47 116.894 341.928 118.934C342.401 120.982 342.7 123.067 342.821 125.166C342.893 126.22 342.893 127.265 342.885 128.358C342.899 129.01 342.854 129.662 342.749 130.305C342.634 131.008 342.461 131.699 342.231 132.372C341.995 133.033 341.712 133.675 341.385 134.295L341.122 134.758L340.906 135.125L340.475 135.828C339.889 136.762 339.249 137.663 338.56 138.525C337.203 140.233 335.688 141.81 334.035 143.233C332.405 144.641 330.659 145.909 328.816 147.024C327.891 147.566 326.949 148.085 325.975 148.564C325.489 148.803 325.002 149.034 324.491 149.258L323.693 149.577L322.791 149.912C321.663 150.319 320.421 150.27 319.328 149.775C318.236 149.28 317.38 148.378 316.942 147.261C316.505 146.145 316.52 144.901 316.985 143.796C317.45 142.69 318.328 141.81 319.432 141.342L319.727 141.174Z" fill="#FFB573"/>
<path d="M315.937 139.554C319.751 139.554 326.845 136.538 326.845 136.538C326.845 136.538 331.035 144.262 331.633 148.316C329.205 151.915 325.59 154.547 321.419 155.754C316.767 153.312 314.652 147.215 315.937 139.554Z" fill="#407BFF"/>
<path d="M279.572 232.41C279.572 232.41 270.267 228.595 265.016 222.036C270.921 210.736 284.663 194.712 288.709 193.523C289.217 192.211 289.812 190.934 290.488 189.701L316.822 193.619C315.402 206.403 287.815 226.065 279.572 232.41Z" fill="#263238"/>
<path opacity="0.2" d="M299.083 206.147C295.476 207.791 291.901 216.713 290.824 223.775C296.165 219.611 301.254 215.135 306.065 210.369C303.153 208.055 299.801 205.828 299.083 206.147Z" fill="black"/>
<path d="M297.894 234.684C297.894 234.684 304.725 236.583 316.767 234.476C318.969 222.395 327.683 203.554 324.85 197.984C325.409 196.73 325.533 195.326 325.201 193.994L292.723 190.004C290.058 194.042 297.607 222.642 297.894 234.684Z" fill="#263238"/>
<path d="M330.564 99.4627L334.674 98.6647C334.965 98.6119 335.266 98.6627 335.524 98.8085C335.782 98.9543 335.981 99.1857 336.086 99.4627L337.507 103.157L329.973 105.049L329.558 100.835C329.521 100.522 329.603 100.205 329.79 99.9504C329.977 99.6956 330.253 99.5212 330.564 99.4627Z" fill="#FFB573"/>
<path d="M305.028 111.01C299.857 110.459 297.471 113.555 300.775 119.596C304.916 113.787 305.028 111.01 305.028 111.01Z" fill="#263238"/>
<path d="M316.926 120.179C315.426 126.028 314.843 129.523 311.268 131.989C305.898 135.692 299.115 131.574 298.843 125.398C298.596 119.812 301.086 111.217 307.334 109.972C308.709 109.693 310.133 109.77 311.47 110.196C312.807 110.621 314.013 111.381 314.974 112.403C315.934 113.426 316.618 114.677 316.96 116.037C317.302 117.398 317.29 118.824 316.926 120.179Z" fill="#FFB573"/>
<path d="M315.633 125.813L311.268 123.419C311.268 123.419 311.883 119.788 314.173 118.503C312.186 117.402 310.861 114.553 310.981 113.228C307.861 114.026 303.288 113.476 301.405 112.35C297.982 110.284 298.117 106.294 300.727 104.777C301.581 107.427 302.945 108.815 306.169 107.299C309.393 105.783 313.894 105.232 315.594 107.762C317.293 110.292 321.467 108.257 323.773 110.427C324.316 110.882 324.725 111.474 324.959 112.142C325.192 112.81 325.241 113.529 325.099 114.222C324.958 114.915 324.632 115.558 324.155 116.081C323.679 116.604 323.07 116.989 322.392 117.194C326.375 120.37 322.799 125.126 315.633 125.813Z" fill="#263238"/>
<path d="M320.677 116.891C321.814 116.69 322.985 116.914 323.968 117.52C324.951 118.126 325.677 119.072 326.007 120.179C324.707 118.854 322.169 116.963 320.677 116.891Z" fill="#263238"/>
<path d="M320.988 116.819C321.769 117.29 322.697 117.457 323.593 117.288C324.49 117.119 325.292 116.625 325.848 115.902C324.507 116.508 322.097 117.194 320.988 116.819Z" fill="#263238"/>
<path d="M318.45 125.454C317.587 126.709 316.261 127.57 314.764 127.848C312.785 128.191 311.995 126.371 312.713 124.608C313.359 123.012 315.171 120.921 317.078 121.416C318.985 121.91 319.496 123.913 318.45 125.454Z" fill="#FFB573"/>
<path d="M307.637 120.107C307.542 120.586 307.215 120.905 306.895 120.905C306.576 120.905 306.401 120.402 306.496 119.923C306.592 119.445 306.919 119.125 307.23 119.125C307.542 119.125 307.725 119.628 307.637 120.107Z" fill="#263238"/>
<path d="M302.187 119.062C302.099 119.54 301.764 119.86 301.453 119.86C301.142 119.86 300.958 119.357 301.046 118.87C301.134 118.383 301.477 118.072 301.788 118.112C302.099 118.152 302.283 118.583 302.187 119.062Z" fill="#263238"/>
<path d="M303.687 119.596C302.831 120.958 301.792 122.196 300.599 123.275C300.883 123.573 301.229 123.807 301.612 123.958C301.995 124.11 302.406 124.176 302.818 124.153L303.687 119.596Z" fill="#ED893E"/>
<path d="M304.709 126.148C304.345 126.167 303.98 126.14 303.623 126.068C303.586 126.06 303.553 126.039 303.531 126.008C303.509 125.977 303.499 125.938 303.504 125.9C303.508 125.881 303.515 125.863 303.526 125.847C303.537 125.831 303.551 125.817 303.568 125.807C303.584 125.797 303.602 125.79 303.622 125.786C303.641 125.783 303.66 125.784 303.679 125.789C304.275 125.919 304.893 125.905 305.483 125.75C306.072 125.595 306.617 125.302 307.071 124.895C307.097 124.867 307.134 124.852 307.172 124.851C307.21 124.85 307.247 124.865 307.274 124.891C307.302 124.917 307.318 124.954 307.318 124.992C307.319 125.03 307.305 125.067 307.278 125.094C306.576 125.742 305.664 126.116 304.709 126.148Z" fill="#263238"/>
<path d="M310.614 117.873C310.558 117.865 310.506 117.843 310.462 117.808C310.418 117.773 310.385 117.726 310.367 117.673C310.267 117.325 310.088 117.005 309.843 116.739C309.597 116.473 309.293 116.268 308.954 116.141C308.881 116.12 308.82 116.072 308.782 116.006C308.745 115.941 308.735 115.863 308.755 115.79C308.764 115.753 308.78 115.719 308.803 115.689C308.826 115.659 308.855 115.634 308.888 115.615C308.92 115.596 308.957 115.585 308.994 115.58C309.032 115.576 309.07 115.579 309.106 115.59C309.539 115.739 309.93 115.99 310.246 116.322C310.561 116.654 310.791 117.057 310.917 117.498C310.93 117.533 310.935 117.571 310.932 117.608C310.929 117.646 310.919 117.683 310.902 117.716C310.885 117.75 310.861 117.78 310.832 117.804C310.803 117.828 310.77 117.846 310.734 117.857C310.695 117.87 310.655 117.875 310.614 117.873Z" fill="#263238"/>
<path d="M300.416 115.471C300.349 115.457 300.29 115.42 300.248 115.367C300.224 115.337 300.206 115.303 300.196 115.266C300.185 115.23 300.182 115.191 300.187 115.153C300.191 115.115 300.203 115.079 300.222 115.046C300.241 115.012 300.266 114.983 300.296 114.96C300.644 114.663 301.059 114.456 301.506 114.356C301.952 114.256 302.416 114.266 302.857 114.385C302.894 114.396 302.927 114.414 302.956 114.438C302.985 114.462 303.009 114.492 303.026 114.526C303.043 114.559 303.053 114.596 303.056 114.634C303.058 114.671 303.053 114.709 303.041 114.744C303.017 114.816 302.966 114.875 302.899 114.91C302.832 114.944 302.754 114.951 302.682 114.928C302.33 114.842 301.963 114.84 301.611 114.924C301.259 115.007 300.931 115.172 300.655 115.407C300.622 115.434 300.583 115.453 300.542 115.464C300.501 115.475 300.458 115.477 300.416 115.471Z" fill="#263238"/>
<path d="M194.305 272.932H180.348L178.154 225.746H196.5L194.305 272.932Z" fill="#407BFF"/>
<path opacity="0.2" d="M195.79 240.996C193.376 242.892 190.396 243.922 187.327 243.922C184.258 243.922 181.278 242.892 178.864 240.996L178.146 225.754H196.5L195.79 240.996Z" fill="black"/>
<path d="M146.226 201.838C126.859 201.838 108.441 187.346 103.373 168.131L94.356 133.872C93.5195 130.973 93.3651 127.918 93.905 124.949C94.4449 121.98 95.6644 119.175 97.4682 116.755C99.2611 114.474 101.558 112.638 104.179 111.392C106.799 110.146 109.673 109.524 112.574 109.573H140.161C141.881 109.633 143.511 110.358 144.706 111.596C145.902 112.834 146.57 114.488 146.57 116.209C146.57 117.93 145.902 119.584 144.706 120.821C143.511 122.059 141.881 122.784 140.161 122.844H112.582C111.713 122.791 110.844 122.944 110.045 123.29C109.246 123.637 108.54 124.168 107.986 124.839C107.426 125.653 107.063 126.585 106.924 127.562C106.786 128.54 106.876 129.536 107.188 130.473L116.221 164.739C119.74 178.09 132.931 188.551 146.242 188.551C147.133 188.521 148.021 188.669 148.853 188.989C149.685 189.308 150.444 189.792 151.085 190.411C151.726 191.031 152.236 191.773 152.584 192.593C152.932 193.413 153.111 194.296 153.111 195.187C153.111 196.078 152.932 196.96 152.584 197.781C152.236 198.601 151.726 199.343 151.085 199.962C150.444 200.581 149.685 201.065 148.853 201.385C148.021 201.704 147.133 201.853 146.242 201.822L146.226 201.838Z" fill="#407BFF"/>
<path d="M228.42 201.838C227.529 201.869 226.641 201.72 225.809 201.401C224.977 201.081 224.218 200.597 223.577 199.978C222.936 199.359 222.426 198.617 222.078 197.797C221.73 196.976 221.55 196.094 221.55 195.203C221.55 194.312 221.73 193.429 222.078 192.609C222.426 191.788 222.936 191.047 223.577 190.427C224.218 189.808 224.977 189.324 225.809 189.005C226.641 188.685 227.529 188.537 228.42 188.567C241.731 188.567 254.922 178.106 258.441 164.755L267.466 130.489C267.778 129.552 267.868 128.556 267.73 127.578C267.591 126.601 267.228 125.669 266.668 124.855C266.114 124.184 265.408 123.653 264.609 123.306C263.81 122.96 262.941 122.807 262.072 122.86H234.493C233.602 122.891 232.714 122.742 231.882 122.423C231.05 122.103 230.291 121.619 229.65 121C229.009 120.381 228.499 119.639 228.151 118.819C227.803 117.998 227.623 117.116 227.623 116.225C227.623 115.333 227.803 114.451 228.151 113.631C228.499 112.81 229.009 112.069 229.65 111.449C230.291 110.83 231.05 110.346 231.882 110.027C232.714 109.707 233.602 109.558 234.493 109.589H262.072C264.973 109.54 267.846 110.163 270.467 111.409C273.088 112.655 275.384 114.49 277.178 116.771C278.982 119.191 280.201 121.996 280.741 124.965C281.281 127.934 281.126 130.989 280.29 133.888L271.265 168.147C266.197 187.346 247.771 201.838 228.42 201.838Z" fill="#407BFF"/>
<g opacity="0.2">
<path d="M146.793 116.229C146.793 114.469 146.094 112.782 144.851 111.537C143.607 110.292 141.921 109.591 140.161 109.589H117.075L118.671 122.86H140.161C141.92 122.86 143.607 122.161 144.85 120.918C146.094 119.674 146.793 117.987 146.793 116.229Z" fill="black"/>
<path d="M146.226 188.567C138.717 188.567 131.256 185.248 125.534 179.949L126.468 187.682C126.88 191.121 127.593 194.517 128.598 197.832C134.114 200.428 140.13 201.79 146.226 201.822C147.117 201.853 148.005 201.704 148.837 201.385C149.669 201.065 150.428 200.581 151.069 199.962C151.71 199.343 152.22 198.601 152.568 197.781C152.916 196.96 153.096 196.078 153.096 195.187C153.096 194.296 152.916 193.413 152.568 192.593C152.22 191.773 151.71 191.031 151.069 190.411C150.428 189.792 149.669 189.308 148.837 188.989C148.005 188.669 147.117 188.521 146.226 188.551V188.567Z" fill="black"/>
<path d="M221.773 195.207C221.775 196.965 222.474 198.65 223.717 199.894C224.96 201.137 226.646 201.836 228.404 201.838C234.503 201.807 240.521 200.445 246.04 197.848C247.045 194.533 247.758 191.137 248.171 187.698L249.096 179.965C243.383 185.264 235.921 188.583 228.404 188.583C226.647 188.585 224.963 189.284 223.72 190.525C222.477 191.767 221.777 193.45 221.773 195.207Z" fill="black"/>
<path d="M234.493 109.589C232.773 109.649 231.143 110.374 229.948 111.612C228.752 112.85 228.084 114.504 228.084 116.225C228.084 117.946 228.752 119.6 229.948 120.837C231.143 122.075 232.773 122.8 234.493 122.86H255.975L257.571 109.589H234.493Z" fill="black"/>
</g>
<path d="M181.466 92.4643H175.816V93.2623H181.466V92.4643Z" fill="#407BFF"/>
<path d="M170.9 92.4643H150.615V93.2623H170.9V92.4643Z" fill="#407BFF"/>
<path d="M187.323 234.764C173.434 234.764 160.054 229.539 149.841 220.127C139.628 210.715 133.329 197.805 132.197 183.963L125.263 99.1036C125.222 98.6137 125.283 98.1207 125.443 97.6557C125.602 97.1908 125.856 96.764 126.189 96.4024C126.523 96.0409 126.927 95.7524 127.377 95.5553C127.828 95.3581 128.314 95.2567 128.806 95.2573H245.848C246.34 95.2579 246.825 95.3601 247.275 95.5577C247.725 95.7552 248.129 96.0437 248.462 96.405C248.795 96.7663 249.049 97.1926 249.209 97.657C249.369 98.1215 249.431 98.614 249.391 99.1036L242.457 183.963C241.323 197.806 235.023 210.716 224.808 220.128C214.594 229.539 201.212 234.764 187.323 234.764Z" fill="#407BFF"/>
<path opacity="0.1" d="M169.456 219.45C169.691 219.676 169.839 219.977 169.874 220.301C169.909 220.624 169.83 220.95 169.649 221.221C169.468 221.492 169.198 221.691 168.886 221.783C168.573 221.875 168.238 221.854 167.94 221.724C160.443 218.28 153.999 212.902 149.267 206.144C144.536 199.386 141.687 191.491 141.015 183.269L134.727 106.421C134.704 106.131 134.741 105.839 134.836 105.564C134.931 105.289 135.081 105.036 135.278 104.822C135.475 104.608 135.714 104.437 135.981 104.319C136.247 104.202 136.535 104.14 136.826 104.139H146.362C146.893 104.138 147.405 104.338 147.795 104.699C148.184 105.061 148.422 105.556 148.46 106.086L154.581 186.684C155.428 199.017 160.688 210.632 169.4 219.402L169.456 219.45Z" fill="white"/>
<path d="M215.748 289.754H158.906C158.548 289.753 158.195 289.673 157.871 289.52C157.547 289.368 157.261 289.146 157.033 288.87C156.804 288.594 156.639 288.272 156.549 287.926C156.459 287.579 156.447 287.217 156.512 286.865L158.292 277.409C158.716 275.155 159.913 273.121 161.678 271.657C163.442 270.192 165.663 269.39 167.956 269.389H206.698C208.991 269.39 211.212 270.192 212.976 271.657C214.741 273.121 215.938 275.155 216.362 277.409L218.142 286.865C218.207 287.217 218.195 287.579 218.105 287.926C218.015 288.272 217.85 288.594 217.621 288.87C217.393 289.146 217.107 289.368 216.783 289.52C216.459 289.673 216.106 289.753 215.748 289.754Z" fill="#407BFF"/>
<path opacity="0.2" d="M218.142 286.865H156.512C156.447 287.217 156.459 287.579 156.549 287.925C156.639 288.272 156.804 288.594 157.033 288.87C157.261 289.146 157.547 289.368 157.871 289.52C158.195 289.673 158.548 289.753 158.906 289.754H215.748C216.106 289.753 216.459 289.673 216.783 289.52C217.107 289.368 217.393 289.146 217.621 288.87C217.85 288.594 218.015 288.272 218.105 287.925C218.195 287.579 218.207 287.217 218.142 286.865Z" fill="black"/>
<path d="M233.288 289.754H141.358C140.018 289.754 138.932 290.84 138.932 292.18V327.739C138.932 329.078 140.018 330.165 141.358 330.165H233.288C234.628 330.165 235.714 329.078 235.714 327.739V292.18C235.714 290.84 234.628 289.754 233.288 289.754Z" fill="#407BFF"/>
<path opacity="0.7" d="M233.288 289.754H141.358C140.018 289.754 138.932 290.84 138.932 292.18V327.739C138.932 329.078 140.018 330.165 141.358 330.165H233.288C234.628 330.165 235.714 329.078 235.714 327.739V292.18C235.714 290.84 234.628 289.754 233.288 289.754Z" fill="white"/>
<path d="M108.616 177.563C106.462 166.391 124.504 163.023 132.628 170.15C140.56 177.108 136.427 183.221 147.71 181.385C158.994 179.55 160.143 190.363 154.238 194.305C148.333 198.247 157.765 206.371 147.782 209.866C135.429 214.199 123.842 210.273 115.511 206.163C107.18 202.054 98.7131 182.614 108.616 177.563Z" fill="#263238"/>
<path d="M144.678 245.481C144.678 245.481 183.309 266.692 181.29 280.098C176.358 310.31 176.223 326.31 176.223 326.31H170.812C170.812 326.31 165.681 296.082 168.418 280.649C165.051 273.73 123.571 275.166 126.38 245.449L144.678 245.481Z" fill="#263238"/>
<path opacity="0.2" d="M126.523 251.881C128.119 263.18 137.432 268.79 146.88 272.31C139.898 264.401 131.942 255.935 126.523 251.881Z" fill="black"/>
<path d="M176.686 325.305H170.365C170.232 325.3 170.102 325.346 170.001 325.433C169.901 325.521 169.837 325.643 169.823 325.776L169.184 330.963C169.18 331.123 169.208 331.283 169.267 331.432C169.326 331.582 169.414 331.718 169.526 331.832C169.639 331.947 169.773 332.038 169.921 332.1C170.07 332.161 170.229 332.193 170.389 332.191C173.166 332.144 174.507 331.992 178.018 331.992C180.173 331.992 181.49 332.215 184.474 332.215C187.459 332.215 187.467 329.359 186.206 329.095C180.62 327.922 179.822 327.276 177.891 325.744C177.55 325.466 177.125 325.311 176.686 325.305Z" fill="#263238"/>
<path d="M140.847 204.12C142.571 204.655 144.391 205.23 146.17 205.716C147.95 206.203 149.753 206.77 151.541 207.217C153.328 207.664 155.124 208.094 156.887 208.43C157.757 208.581 158.643 208.749 159.489 208.845L160.127 208.932L160.742 208.98L161.348 209.028H161.452C161.452 209.028 161.372 209.084 161.404 209.092C161.436 209.1 161.524 209.044 161.651 208.869C161.986 208.341 162.229 207.761 162.37 207.153C162.769 205.494 162.994 203.799 163.04 202.094C163.136 200.29 163.12 198.439 163.04 196.587C162.96 194.736 162.848 192.829 162.705 191.001V190.937C162.678 190.508 162.809 190.084 163.074 189.745C163.34 189.406 163.72 189.176 164.143 189.1C164.567 189.023 165.004 189.104 165.371 189.328C165.738 189.552 166.011 189.903 166.136 190.315C167.252 194.129 167.979 198.046 168.307 202.006C168.497 204.134 168.432 206.277 168.115 208.39C167.914 209.667 167.501 210.903 166.894 212.045C166.488 212.785 165.946 213.442 165.298 213.984C164.539 214.614 163.638 215.049 162.673 215.253C162.441 215.3 162.194 215.34 161.971 215.364H161.627H159.712L158.914 215.324C157.853 215.276 156.847 215.149 155.826 215.021C153.815 214.758 151.836 214.391 149.929 213.952C146.084 213.113 142.292 212.047 138.573 210.76C137.728 210.436 137.04 209.799 136.651 208.981C136.262 208.164 136.202 207.228 136.484 206.368C136.766 205.508 137.368 204.789 138.166 204.36C138.963 203.931 139.895 203.825 140.768 204.065L140.847 204.12Z" fill="#803E3C"/>
<path d="M164.851 186.014L160.207 189.206C160.207 189.206 160.542 189.772 161.404 191.153C162.266 192.533 163.702 193.379 165.003 192.51C168.235 190.89 164.851 186.014 164.851 186.014Z" fill="#7F3E3B"/>
<path d="M160.295 186.461L161.308 185.24C161.483 185.027 161.703 184.856 161.952 184.739C162.201 184.622 162.473 184.561 162.749 184.561C163.024 184.561 163.296 184.622 163.545 184.739C163.794 184.856 164.014 185.027 164.189 185.24L164.851 186.038L160.207 189.23L159.936 188.192C159.848 187.896 159.835 187.583 159.897 187.281C159.96 186.979 160.096 186.697 160.295 186.461Z" fill="#7F3E3B"/>
<path d="M146.282 211.733C146.601 217.551 146.09 227.526 144.686 245.481H116.437C116.884 234.716 116.221 230.71 109.869 210.752C109.717 210.272 109.665 209.765 109.716 209.264C109.767 208.763 109.92 208.277 110.166 207.837C110.412 207.398 110.746 207.013 111.146 206.707C111.547 206.401 112.006 206.181 112.495 206.06C115.099 205.391 117.735 204.858 120.395 204.464C124.584 203.789 128.816 203.416 133.059 203.346C134.719 203.346 136.451 203.418 138.054 203.514C140.197 203.632 142.22 204.536 143.738 206.052C145.256 207.569 146.161 209.591 146.282 211.733Z" fill="#7F3E3B"/>
<path opacity="0.2" d="M113.069 211.709C113.498 214.537 113.374 217.42 112.702 220.2C112.167 218.293 111.569 216.25 110.891 214.016L113.069 211.709Z" fill="black"/>
<path opacity="0.2" d="M132.173 217.487C132.173 214.806 128.694 211.454 126.26 210.903C128.016 211.893 131.287 215.404 132.173 217.487Z" fill="black"/>
<path d="M120.379 190.124C121.536 194.114 122.996 201.519 120.379 204.488C120.379 204.488 121.863 208.525 129.436 207.855C137.759 207.113 133.043 203.37 133.043 203.37C128.407 202.684 128.255 199.308 128.734 196.069L120.379 190.124Z" fill="#7F3E3B"/>
<path opacity="0.2" d="M123.786 192.549L128.734 196.069C128.606 196.823 128.545 197.586 128.55 198.351C126.787 198.247 124.233 196.555 123.89 194.752C123.72 194.03 123.684 193.284 123.786 192.549Z" fill="black"/>
<path d="M113.907 185.695C117.203 191.688 118.472 194.297 123.084 195.997C130.027 198.542 136.65 193.188 135.238 186.325C133.937 180.148 128.766 171.378 121.56 171.777C119.971 171.859 118.429 172.345 117.08 173.189C115.732 174.034 114.621 175.209 113.855 176.603C113.088 177.997 112.69 179.565 112.699 181.156C112.709 182.747 113.124 184.309 113.907 185.695Z" fill="#7F3E3B"/>
<path d="M111.569 177.108C114.362 173.294 118.751 181.417 119.27 183.979C119.788 186.54 118.599 190.147 114.609 189.86C110.619 189.573 108.576 181.202 111.569 177.108Z" fill="#263238"/>
<path d="M111.002 176.111C116.923 179.015 120.363 177.324 122.757 175.823C125.151 174.323 133.665 175.161 131.734 173.23C129.803 171.299 126.827 169.575 121.959 170.333C117.091 171.091 111.002 176.111 111.002 176.111Z" fill="#263238"/>
<path d="M90.3022 324.65L83.8304 322.871C83.7169 322.839 83.5958 322.849 83.4891 322.899C83.3823 322.949 83.2967 323.035 83.2478 323.142L80.9336 328.13C80.8782 328.254 80.8504 328.389 80.852 328.525C80.8536 328.661 80.8847 328.795 80.9431 328.918C81.0015 329.04 81.0858 329.149 81.1903 329.236C81.2947 329.323 81.4168 329.387 81.5481 329.422C83.8144 330.005 84.7401 329.303 87.2538 330.859C89.1451 332.024 91.6747 332.152 94.5954 332.152C97.0532 332.152 97.3325 329.59 96.2632 329.39C91.4752 328.497 91.9859 326.909 91.156 325.273C91.0636 325.116 90.9403 324.98 90.7934 324.873C90.6466 324.766 90.4794 324.69 90.3022 324.65Z" fill="#263238"/>
<path d="M136.929 245.481C136.929 245.481 132.851 270.506 128.949 290.871C128.359 293.951 126.962 297.071 124.281 298.707C110.364 307.206 89.7675 325.297 89.7675 325.297L83.7825 323.398C83.7825 323.398 103.206 293.441 113.308 292.084C113.308 283.689 105.328 262.311 116.437 245.481H136.929Z" fill="#263238"/>
<path d="M116.062 244.411C115.775 244.559 115.556 244.811 115.45 245.116C115.345 245.42 115.361 245.754 115.495 246.047C115.79 246.486 132.748 246.957 137.161 246.925C141.574 246.893 146.386 246.678 146.106 245.888C145.827 245.098 146.003 243.749 145.412 243.717C144.821 243.685 117.825 243.901 116.062 244.411Z" fill="#407BFF"/>
<path d="M123.738 183.277C123.978 183.779 124.441 184.075 124.768 183.907C125.095 183.74 125.167 183.221 124.935 182.718C124.704 182.215 124.233 181.92 123.906 182.088C123.579 182.255 123.507 182.742 123.738 183.277Z" fill="#263238"/>
<path d="M129.468 180.595C129.699 181.098 130.162 181.393 130.489 181.226C130.817 181.058 130.896 180.532 130.657 180.029C130.418 179.526 129.963 179.231 129.628 179.406C129.292 179.582 129.189 180.093 129.468 180.595Z" fill="#263238"/>
<path d="M129.468 179.502L130.513 178.584C130.513 178.584 130.33 179.813 129.468 179.502Z" fill="#263238"/>
<path d="M128.367 181.984C129.355 182.928 130.466 183.733 131.67 184.378C131.504 184.677 131.276 184.938 131.001 185.142C130.725 185.345 130.41 185.488 130.074 185.559L128.367 181.984Z" fill="#630F0F"/>
<path d="M128.75 188.535C129.023 188.46 129.289 188.364 129.548 188.248C129.568 188.239 129.586 188.226 129.6 188.209C129.615 188.193 129.627 188.174 129.634 188.153C129.641 188.132 129.645 188.11 129.644 188.088C129.642 188.066 129.637 188.045 129.628 188.025C129.618 188.006 129.605 187.989 129.589 187.975C129.573 187.961 129.555 187.951 129.535 187.944C129.515 187.937 129.494 187.935 129.473 187.936C129.451 187.938 129.431 187.943 129.412 187.953C128.794 188.266 128.11 188.43 127.417 188.43C126.724 188.43 126.04 188.266 125.422 187.953C125.386 187.931 125.342 187.924 125.301 187.933C125.259 187.942 125.223 187.966 125.199 188.001C125.176 188.038 125.169 188.083 125.178 188.126C125.187 188.169 125.211 188.207 125.247 188.232C126.328 188.793 127.588 188.902 128.75 188.535Z" fill="#263238"/>
<path d="M114.529 191.52C115.479 192.443 116.756 192.951 118.081 192.932C119.828 192.893 120.203 191.201 119.286 189.812C118.488 188.567 116.572 187.075 115.016 187.785C114.68 187.948 114.389 188.192 114.17 188.495C113.951 188.798 113.811 189.15 113.763 189.521C113.715 189.892 113.76 190.268 113.893 190.617C114.027 190.966 114.246 191.277 114.529 191.52Z" fill="#7F3E3B"/>
<path d="M121.703 182.598C121.769 182.578 121.826 182.538 121.868 182.484C121.909 182.43 121.933 182.364 121.935 182.295C121.975 180.787 123.587 179.694 123.603 179.686C123.638 179.662 123.669 179.631 123.693 179.595C123.716 179.559 123.733 179.519 123.741 179.476C123.749 179.434 123.749 179.391 123.74 179.349C123.731 179.306 123.715 179.266 123.69 179.231C123.668 179.195 123.638 179.163 123.603 179.139C123.568 179.115 123.528 179.098 123.486 179.09C123.444 179.081 123.401 179.082 123.359 179.091C123.318 179.1 123.278 179.118 123.244 179.143C123.164 179.191 121.328 180.436 121.28 182.279C121.279 182.322 121.287 182.365 121.302 182.405C121.318 182.445 121.341 182.482 121.371 182.513C121.4 182.544 121.436 182.569 121.475 182.586C121.514 182.604 121.557 182.613 121.6 182.614L121.703 182.598Z" fill="#263238"/>
<path d="M130.681 176.565C130.734 176.548 130.782 176.518 130.821 176.478C130.86 176.437 130.889 176.388 130.904 176.334C130.915 176.292 130.917 176.249 130.911 176.206C130.905 176.163 130.89 176.122 130.868 176.085C130.846 176.047 130.816 176.015 130.781 175.989C130.747 175.964 130.707 175.945 130.665 175.935C130.167 175.792 129.641 175.773 129.134 175.878C128.626 175.984 128.152 176.212 127.752 176.542C127.722 176.572 127.698 176.608 127.681 176.648C127.665 176.687 127.656 176.73 127.656 176.773C127.656 176.816 127.665 176.859 127.681 176.898C127.698 176.938 127.722 176.974 127.752 177.004C127.782 177.036 127.818 177.061 127.858 177.078C127.898 177.095 127.94 177.104 127.984 177.104C128.027 177.104 128.07 177.095 128.11 177.078C128.149 177.061 128.185 177.036 128.215 177.004C128.538 176.752 128.916 176.58 129.318 176.501C129.72 176.422 130.135 176.438 130.529 176.55C130.578 176.567 130.63 176.572 130.681 176.565Z" fill="#263238"/>
<path d="M115.343 212.571C112.862 215.3 110.356 218.229 108.066 221.158C106.916 222.626 105.831 224.134 104.874 225.642C103.912 227.05 103.094 228.549 102.432 230.119C102.187 230.683 102.025 231.28 101.953 231.891V232.106C101.954 232.13 101.954 232.154 101.953 232.178L102.017 232.433L102.144 232.944L102.336 233.535C102.949 235.244 103.652 236.919 104.443 238.554C106.039 241.97 107.85 245.409 109.582 248.84C109.778 249.224 109.826 249.666 109.716 250.083C109.607 250.5 109.349 250.862 108.99 251.1C108.631 251.339 108.197 251.437 107.771 251.377C107.344 251.316 106.955 251.101 106.677 250.772C104.096 247.742 101.72 244.543 99.5669 241.196C98.4269 239.455 97.4161 237.633 96.5425 235.745L96.2073 234.947C96.1036 234.668 96.0078 234.365 95.9041 234.069L95.7604 233.63C95.7126 233.447 95.6567 233.192 95.6168 232.984C95.5562 232.574 95.5215 232.161 95.5131 231.747C95.5347 230.415 95.7691 229.095 96.2073 227.837C96.9459 225.775 97.898 223.796 99.0482 221.932C100.126 220.144 101.291 218.476 102.488 216.849C103.685 215.221 104.921 213.657 106.222 212.116C107.523 210.576 108.816 209.116 110.26 207.624C110.577 207.287 110.957 207.016 111.379 206.826C111.801 206.636 112.256 206.531 112.718 206.517C113.181 206.502 113.641 206.58 114.074 206.744C114.507 206.907 114.903 207.155 115.24 207.472C115.577 207.789 115.848 208.169 116.038 208.591C116.228 209.013 116.333 209.468 116.347 209.93C116.361 210.393 116.284 210.853 116.12 211.286C115.956 211.719 115.708 212.115 115.391 212.452L115.343 212.571Z" fill="#803E3C"/>
<path d="M123.778 182.183L124.816 181.266C124.816 181.266 124.68 182.503 123.778 182.183Z" fill="#263238"/>
<path d="M108.935 247.971L115.846 250.764L109.646 254.043C109.646 254.043 105.943 251.609 106.198 248.753L108.935 247.971Z" fill="#7F3E3B"/>
<path d="M117.338 256.429L114.346 257.81C114.071 257.936 113.763 257.971 113.467 257.909C113.172 257.847 112.903 257.692 112.702 257.467L109.646 254.043L115.846 250.764L117.969 254.45C118.067 254.62 118.128 254.807 118.149 255.002C118.17 255.196 118.15 255.393 118.091 255.579C118.032 255.765 117.934 255.937 117.804 256.084C117.675 256.23 117.516 256.348 117.338 256.429Z" fill="#7F3E3B"/>
<path d="M143.082 207.935C141.957 204.743 141.031 203.769 141.031 203.769C140.123 203.44 139.164 203.275 138.198 203.283C139.427 206.842 142.731 215.364 130.769 216.306C118.807 217.248 114.505 205.198 114.505 205.198C112.367 205.198 111.569 205.956 111.569 205.956C115.232 214.734 118.95 223.512 113.963 226.329C114.809 230.534 114.944 235.905 114.689 241.371C119.533 240.398 138.892 237.74 146.92 238.77C146.84 233.367 146.593 228.763 146.234 224.852C149.234 221.102 144.869 211.47 143.082 207.935Z" fill="#407BFF"/>
<path opacity="0.8" d="M143.082 207.935C141.957 204.743 141.031 203.769 141.031 203.769C140.123 203.44 139.164 203.275 138.198 203.283C139.427 206.842 142.731 215.364 130.769 216.306C118.807 217.248 114.505 205.198 114.505 205.198C112.367 205.198 111.569 205.956 111.569 205.956C115.232 214.734 118.95 223.512 113.963 226.329C114.809 230.534 114.944 235.905 114.689 241.371C119.533 240.398 138.892 237.74 146.92 238.77C146.84 233.367 146.593 228.763 146.234 224.852C149.234 221.102 144.869 211.47 143.082 207.935Z" fill="#FAFAFA"/>
</svg>
