<svg width="393" height="399" viewBox="0 0 393 399" fill="none" xmlns="http://www.w3.org/2000/svg">
<path d="M399 305.155H0V305.355H399V305.155Z" fill="#E6E6E6"/>
<path d="M355.573 310.286H337.019V310.486H355.573V310.286Z" fill="#E6E6E6"/>
<path d="M288.078 314.62H199.955V314.819H288.078V314.62Z" fill="#E6E6E6"/>
<path d="M162.257 314.723H153.615V314.923H162.257V314.723Z" fill="#E6E6E6"/>
<path d="M92.2169 312.329H62.244V312.529H92.2169V312.329Z" fill="#E6E6E6"/>
<path d="M329.295 310.286H311.755V310.486H329.295V310.286Z" fill="#E6E6E6"/>
<path d="M55.7323 312.329H41.2167V312.529H55.7323V312.329Z" fill="#E6E6E6"/>
<path d="M189.126 269.564H35.0402C33.8331 269.562 32.6761 269.081 31.8233 268.227C30.9705 267.373 30.4916 266.215 30.4916 265.008V48.4067C30.5021 47.2065 30.9857 46.0589 31.8374 45.2133C32.689 44.3676 33.84 43.8921 35.0402 43.89H189.126C190.334 43.89 191.493 44.3701 192.348 45.2246C193.203 46.0791 193.683 47.2381 193.683 48.4466V265.008C193.683 266.216 193.203 267.375 192.348 268.23C191.493 269.084 190.334 269.564 189.126 269.564ZM35.0402 44.0496C33.886 44.0517 32.7798 44.5117 31.9644 45.3286C31.149 46.1455 30.6911 47.2525 30.6911 48.4067V265.008C30.6911 266.162 31.149 267.269 31.9644 268.086C32.7798 268.903 33.886 269.363 35.0402 269.365H189.126C190.281 269.363 191.388 268.903 192.205 268.086C193.021 267.27 193.481 266.163 193.483 265.008V48.4067C193.481 47.2518 193.021 46.1447 192.205 45.3281C191.388 44.5114 190.281 44.0517 189.126 44.0496H35.0402Z" fill="#E6E6E6"/>
<path d="M361.741 269.564H207.648C206.44 269.562 205.282 269.082 204.428 268.227C203.574 267.373 203.093 266.216 203.091 265.008V48.4067C203.104 47.2058 203.589 46.0582 204.442 45.2128C205.295 44.3673 206.447 43.892 207.648 43.89H361.741C362.94 43.8942 364.089 44.3706 364.939 45.2161C365.789 46.0615 366.271 47.2079 366.282 48.4067V265.008C366.282 266.214 365.804 267.37 364.953 268.224C364.102 269.078 362.947 269.56 361.741 269.564ZM207.648 44.0496C206.493 44.0517 205.386 44.5114 204.569 45.3281C203.752 46.1447 203.293 47.2518 203.29 48.4067V265.008C203.293 266.163 203.752 267.27 204.569 268.086C205.386 268.903 206.493 269.363 207.648 269.365H361.741C362.896 269.363 364.003 268.903 364.82 268.086C365.637 267.27 366.096 266.163 366.098 265.008V48.4067C366.096 47.2518 365.637 46.1447 364.82 45.3281C364.003 44.5114 362.896 44.0517 361.741 44.0496H207.648Z" fill="#E6E6E6"/>
<path d="M258.209 163.686H318.514V58.6929L258.209 58.6929V163.686Z" fill="#E6E6E6"/>
<path d="M254.953 163.686H315.258V58.6929L254.953 58.6929V163.686Z" fill="#F5F5F5"/>
<path d="M309.401 158.762V63.6245H260.794V158.762H309.401Z" fill="#FAFAFA"/>
<path d="M263.26 158.762V63.6245H260.794V158.762H263.26Z" fill="#E6E6E6"/>
<path d="M257.371 135.796H312.84V129.18H257.371V135.796Z" fill="#F5F5F5"/>
<path d="M155.722 163.686H216.027V58.6929L155.722 58.6929V163.686Z" fill="#E6E6E6"/>
<path d="M152.466 163.686H212.771V58.6929L152.466 58.6929V163.686Z" fill="#F5F5F5"/>
<path d="M206.921 158.762V63.6245H158.315V158.762H206.921Z" fill="#FAFAFA"/>
<path d="M160.773 158.754V63.6166H158.307V158.754H160.773Z" fill="#E6E6E6"/>
<path d="M154.884 135.796H210.353V129.18H154.884V135.796Z" fill="#F5F5F5"/>
<path d="M53.2426 163.686H113.547L113.547 58.6929L53.2426 58.6929L53.2426 163.686Z" fill="#E6E6E6"/>
<path d="M49.9867 163.686H110.292L110.292 58.6929L49.9867 58.6929L49.9867 163.686Z" fill="#F5F5F5"/>
<path d="M104.434 158.754V63.6166H55.8281L55.8281 158.754H104.434Z" fill="#FAFAFA"/>
<path d="M58.2939 158.762L58.2939 63.6245H55.8281L55.8281 158.762H58.2939Z" fill="#E6E6E6"/>
<path d="M52.4047 135.796H107.874V129.18H52.4047V135.796Z" fill="#F5F5F5"/>
<path d="M111.72 228.643C100.843 230.143 94.1161 206.506 118.104 186.493C116.851 209.659 130.696 226.026 111.72 228.643Z" fill="#E6E6E6"/>
<path d="M103.74 259.597C87.9715 248.545 98.7605 209.93 147.558 212.731C126.459 241.156 131.239 278.861 103.74 259.597Z" fill="#E0E0E0"/>
<path d="M109.326 259.35C119.804 248.066 104.889 219.665 67.1836 230.039C88.4583 248.713 91.0438 279.013 109.326 259.35Z" fill="#E0E0E0"/>
<path d="M95.8717 242.879C92.2488 238.466 87.9715 233.503 89.0089 228.252C90.0463 223.001 92.6398 219.099 90.6049 213.513C88.1311 206.81 88.6099 198.814 92.7914 199.484C96.973 200.154 101.657 205.07 101.569 211.542C101.498 217.83 105.559 219.841 109.47 223.185C113.38 226.528 114.76 231.42 115.455 236.208C116.668 243.813 126.523 242.377 129.14 248.976C131.846 255.36 126.451 263.859 117.825 265.814C109.198 267.769 103.054 269.006 97.1725 262.255C91.1954 255.145 101.234 249.199 95.8717 242.879Z" fill="#F5F5F5"/>
<path d="M125.549 305.155H93.1426L90.7007 261.01H127.991L125.549 305.155Z" fill="#EBEBEB"/>
<path d="M130.409 260.108H88.2827V264.864H130.409V260.108Z" fill="#EBEBEB"/>
<path d="M316.599 299.162H338.4V204.623H316.599V299.162Z" fill="#EBEBEB"/>
<path d="M145.755 305.155H334.21V299.162H145.755V305.155Z" fill="#EBEBEB"/>
<path d="M316.599 204.623H141.573V299.162H316.599V204.623Z" fill="#F5F5F5"/>
<path d="M308.028 216.258H150.144V247.268H308.028V216.258Z" fill="#EBEBEB"/>
<path d="M308.028 256.517H150.144V287.527H308.028V256.517Z" fill="#EBEBEB"/>
<path d="M179.973 233.886H278.199C278.761 233.884 279.3 233.659 279.697 233.262C280.095 232.864 280.319 232.325 280.321 231.763C280.321 231.199 280.098 230.659 279.7 230.259C279.302 229.86 278.762 229.635 278.199 229.633H179.973C179.409 229.635 178.869 229.86 178.471 230.259C178.074 230.659 177.85 231.199 177.85 231.763C177.852 232.325 178.077 232.864 178.474 233.262C178.872 233.659 179.411 233.884 179.973 233.886Z" fill="#F5F5F5"/>
<path d="M179.973 274.145H278.199C278.761 274.143 279.3 273.919 279.697 273.521C280.095 273.123 280.319 272.585 280.321 272.022C280.319 271.46 280.095 270.921 279.697 270.524C279.3 270.126 278.761 269.902 278.199 269.9H179.973C179.411 269.902 178.872 270.126 178.474 270.524C178.077 270.921 177.852 271.46 177.85 272.022C177.852 272.585 178.077 273.123 178.474 273.521C178.872 273.919 179.411 274.143 179.973 274.145Z" fill="#F5F5F5"/>
<path d="M268.28 190.826C268.28 190.826 293.257 214.494 308.084 190.73C308.084 190.73 304.142 183.093 299.984 182.439C295.827 181.784 295.659 189.046 292.004 186.804C288.349 184.561 284.08 176.893 281.75 180.986C279.42 185.08 276.22 179.247 272.732 178.912C269.245 178.576 268.28 190.826 268.28 190.826Z" fill="#F5F5F5"/>
<path d="M309.672 189.19C309.672 189.19 309.129 204.623 288.078 204.623C267.027 204.623 266.484 189.19 266.484 189.19H309.672Z" fill="#EBEBEB"/>
<path d="M203.179 181.146H215.3V204.623H179.71C179.71 198.398 182.182 192.428 186.583 188.025C190.984 183.623 196.954 181.148 203.179 181.146Z" fill="#F5F5F5"/>
<path d="M226.48 181.146H215.3V204.623H226.48V181.146Z" fill="#E6E6E6"/>
<path d="M199.5 341.193C284.952 341.193 354.224 337.148 354.224 332.16C354.224 327.171 284.952 323.126 199.5 323.126C114.048 323.126 44.7758 327.171 44.7758 332.16C44.7758 337.148 114.048 341.193 199.5 341.193Z" fill="#F5F5F5"/>
<path d="M173.964 157.812L173.437 158.61C173.278 158.842 173.11 159.049 172.951 159.265C172.623 159.696 172.28 160.063 171.937 160.502C171.243 161.3 170.541 162.098 169.79 162.8C168.291 164.241 166.691 165.575 165.002 166.79C163.317 168.005 161.543 169.093 159.696 170.046C158.762 170.501 157.836 170.971 156.871 171.355L155.426 171.929L155.019 172.081C154.796 172.153 154.589 172.232 154.341 172.288C153.859 172.409 153.362 172.465 152.865 172.456C151.917 172.449 150.984 172.217 150.144 171.777C149.468 171.425 148.847 170.976 148.3 170.445C147.434 169.59 146.685 168.624 146.074 167.572C145.029 165.75 144.176 163.825 143.528 161.826C142.273 158.06 141.375 154.183 140.847 150.247L144.183 149.513C144.789 151.261 145.412 153.064 146.098 154.804C146.784 156.544 147.47 158.275 148.268 159.919C148.995 161.506 149.86 163.025 150.854 164.46C151.249 165.054 151.724 165.592 152.266 166.056C152.422 166.184 152.597 166.286 152.785 166.359C152.897 166.359 152.889 166.359 152.833 166.359H152.777L153.04 166.231L154.229 165.657C155.027 165.274 155.786 164.859 156.552 164.396C158.063 163.491 159.523 162.502 160.925 161.435C162.308 160.348 163.622 159.176 164.859 157.924C165.481 157.318 166.072 156.671 166.638 156.017C166.918 155.69 167.197 155.363 167.436 155.035L167.819 154.549L168.131 154.134L173.964 157.812Z" fill="#B97964"/>
<path d="M164.3 157.469L168.346 167.173L165.417 169L160.869 160.198L164.3 157.469Z" fill="#263238"/>
<path d="M175.752 149.298C169.152 149.21 162.449 157.565 162.281 157.773L167.5 170.046C167.5 170.046 179.111 160.621 179.694 156.935C180.3 153.096 179.933 149.354 175.752 149.298Z" fill="#407BFF"/>
<path opacity="0.3" d="M175.752 149.298C169.152 149.21 162.449 157.565 162.281 157.773L167.5 170.046C167.5 170.046 179.111 160.621 179.694 156.935C180.3 153.096 179.933 149.354 175.752 149.298Z" fill="black"/>
<path d="M143.64 148.244L139.075 144.693L138.15 151.684C138.15 151.684 142.587 153.423 144.949 151.915L144.885 150.638C144.861 150.174 144.738 149.719 144.523 149.306C144.308 148.893 144.007 148.531 143.64 148.244Z" fill="#B97964"/>
<path d="M132.995 144.342L133.282 149.649L138.174 151.684L139.099 144.693L132.995 144.342Z" fill="#B97964"/>
<path d="M233.016 147.678L240.07 145.914L235.139 140.879C235.139 140.879 230.566 142.746 231.683 146.736L233.016 147.678Z" fill="#B97964"/>
<path d="M243.574 144.661L242.991 139.123L235.099 140.879L240.03 145.914L243.574 144.661Z" fill="#B97964"/>
<path d="M210.01 325.161L203.442 325.791L197.96 310.294L204.527 309.656L210.01 325.161Z" fill="#B97964"/>
<path d="M280.313 292.579L275.478 297.271L263.045 287.567L267.889 282.875L280.313 292.579Z" fill="#B97964"/>
<path d="M274.081 296.361L277.8 289.762C277.862 289.648 277.964 289.562 278.086 289.518C278.208 289.474 278.341 289.475 278.462 289.522L284.112 291.709C284.252 291.77 284.377 291.859 284.48 291.971C284.583 292.084 284.661 292.217 284.709 292.361C284.757 292.506 284.774 292.659 284.76 292.81C284.745 292.962 284.698 293.109 284.623 293.241C283.29 295.523 282.532 296.553 280.896 299.457C279.891 301.245 277.927 305.339 276.539 307.805C275.15 310.27 272.637 309.025 272.996 307.876C274.592 302.713 274.321 299.833 273.89 297.55C273.811 297.144 273.878 296.722 274.081 296.361Z" fill="#263238"/>
<path d="M202.133 323.781H210.113C210.257 323.784 210.395 323.833 210.509 323.92C210.622 324.008 210.705 324.129 210.744 324.267L212.483 330.595C212.528 330.745 212.536 330.903 212.507 331.056C212.479 331.209 212.414 331.354 212.319 331.477C212.224 331.601 212.102 331.701 211.961 331.768C211.82 331.835 211.666 331.868 211.51 331.864C208.709 331.816 207.344 331.649 203.825 331.649C201.663 331.649 194.616 331.88 191.624 331.88C188.631 331.88 188.089 328.92 189.302 328.688C194.728 327.483 199.308 325.831 200.976 324.251C201.285 323.948 201.701 323.779 202.133 323.781Z" fill="#263238"/>
<path d="M197.968 310.294L200.785 318.29H207.584L204.535 309.656L197.968 310.294Z" fill="#A76755"/>
<path d="M267.897 282.875L263.053 287.575L269.461 292.571L274.305 287.879L267.897 282.875Z" fill="#A76755"/>
<path d="M169.328 151.428C169.328 151.428 166.614 153.495 184.897 189.174L210.959 180.755C207.097 170.293 204.974 163.758 202.979 140.352C199.114 140.78 195.284 141.487 191.52 142.467C187.496 143.48 183.542 144.757 179.686 146.289C174.706 148.428 169.328 151.428 169.328 151.428Z" fill="#407BFF"/>
<path opacity="0.3" d="M169.328 151.428C169.328 151.428 166.614 153.495 184.897 189.174L210.959 180.755C207.097 170.293 204.974 163.758 202.979 140.352C199.114 140.78 195.284 141.487 191.52 142.467C187.496 143.48 183.542 144.757 179.686 146.289C174.706 148.428 169.328 151.428 169.328 151.428Z" fill="black"/>
<path d="M186.006 129.515C186.485 133.569 187.993 140.783 191.48 142.467C191.48 142.467 191.68 146.664 184.609 148.947C176.829 151.46 179.646 146.289 179.646 146.289C183.564 143.895 182.431 140.783 180.739 138.07L186.006 129.515Z" fill="#B97964"/>
<path d="M172.927 149.497C174.85 148.5 177.3 147.287 179.646 146.305C183.507 144.744 187.475 143.462 191.52 142.467C193.794 141.844 196.093 141.382 198.032 141.054C198.215 141.597 197.665 143.002 196.316 144.941C192.047 148.484 182.942 153.088 176.23 152.921C173.294 151.827 172.56 150.67 172.927 149.497Z" fill="#B97964"/>
<path d="M196.308 144.941C193.409 148.826 189.945 152.256 186.03 155.115C182.696 154.709 179.411 153.974 176.222 152.921C182.902 153.088 192.007 148.484 196.308 144.941Z" fill="#263238"/>
<path d="M183.859 133.003L180.739 138.054C181.146 138.684 181.496 139.349 181.784 140.041C183.333 139.283 185.304 137.041 184.929 135.253C184.706 134.446 184.344 133.685 183.859 133.003Z" fill="#A76755"/>
<path d="M187.586 122.03C187.985 128.709 188.304 131.526 185.367 135.341C180.954 141.07 172.663 140.129 170.269 133.681C168.123 127.895 167.827 117.944 173.996 114.529C175.351 113.767 176.879 113.364 178.433 113.359C179.988 113.353 181.519 113.744 182.88 114.495C184.241 115.246 185.388 116.333 186.211 117.652C187.035 118.97 187.508 120.477 187.586 122.03Z" fill="#B97964"/>
<path d="M200.778 110.06C202.287 103.424 198.131 96.8221 191.495 95.3134C184.86 93.8046 178.258 97.9606 176.749 104.596C175.24 111.231 179.396 117.834 186.032 119.342C192.667 120.851 199.269 116.695 200.778 110.06Z" fill="#263238"/>
<path d="M185.687 112.678C188.224 114.353 189.485 116.923 188.504 118.415C187.522 119.907 184.665 119.764 182.12 118.088C179.574 116.412 178.321 113.843 179.303 112.35C180.284 110.858 183.141 111.002 185.687 112.678Z" fill="#407BFF"/>
<path opacity="0.6" d="M185.687 112.678C188.224 114.353 189.485 116.923 188.504 118.415C187.522 119.907 184.665 119.764 182.12 118.088C179.574 116.412 178.321 113.843 179.303 112.35C180.284 110.858 183.141 111.002 185.687 112.678Z" fill="#FAFAFA"/>
<path d="M184.338 126.587C185 125.055 182.694 120.506 183.189 118.806C181.864 117.569 168.434 121.942 169.519 118.75C170.557 115.686 173.828 111.624 181.298 113.324C189.278 115.143 189.972 122.046 189.078 124.249C188.184 126.451 186.916 128.741 186.916 128.741L184.338 126.587Z" fill="#263238"/>
<path d="M189.341 127.887C189.358 129.18 188.865 130.427 187.969 131.359C186.764 132.58 185.312 131.702 184.936 130.122C184.593 128.701 184.817 126.347 186.365 125.725C186.706 125.592 187.075 125.547 187.439 125.594C187.802 125.641 188.147 125.778 188.444 125.993C188.74 126.209 188.977 126.495 189.134 126.826C189.291 127.157 189.362 127.522 189.341 127.887Z" fill="#B97964"/>
<path d="M184.897 189.174C184.897 189.174 172.815 248.098 179.55 267.53C186.556 287.743 197.96 315.96 197.96 315.96L208.613 315.354C208.613 315.354 199.835 279.699 197.673 263.595C194.712 241.395 207.392 181.944 207.392 181.944L184.897 189.174Z" fill="#407BFF"/>
<path opacity="0.6" d="M184.897 189.174C184.897 189.174 172.815 248.098 179.55 267.53C186.556 287.743 197.96 315.96 197.96 315.96L208.613 315.354C208.613 315.354 199.835 279.699 197.673 263.595C194.712 241.395 207.392 181.944 207.392 181.944L184.897 189.174Z" fill="#FAFAFA"/>
<path d="M209.451 315.609L197.122 316.319L195.143 311.467L208.741 310.055L209.451 315.609Z" fill="#407BFF"/>
<path opacity="0.2" d="M209.451 315.609L197.122 316.319L195.143 311.467L208.741 310.055L209.451 315.609Z" fill="black"/>
<path d="M197.673 193.707C195.821 200.553 197.369 210.816 200.865 218.014C201.718 212.428 202.628 207.017 203.49 202.173C201.694 198.702 199.715 195.622 197.673 193.707Z" fill="#407BFF"/>
<path opacity="0.4" d="M197.673 193.707C195.821 200.553 197.369 210.816 200.865 218.014C201.718 212.428 202.628 207.017 203.49 202.173C201.694 198.702 199.715 195.622 197.673 193.707Z" fill="#FAFAFA"/>
<path d="M191.775 186.947C191.775 186.947 209.714 229.824 221.597 253.365C231.173 272.405 266.708 292.331 266.708 292.331L273.092 285.564C273.092 285.564 246.534 261.983 239.911 249.072C218.716 207.743 223.073 189.693 210.975 180.755L191.775 186.947Z" fill="#407BFF"/>
<path opacity="0.6" d="M191.775 186.947C191.775 186.947 209.714 229.824 221.597 253.365C231.173 272.405 266.708 292.331 266.708 292.331L273.092 285.564C273.092 285.564 246.534 261.983 239.911 249.072C218.716 207.743 223.073 189.693 210.975 180.755L191.775 186.947Z" fill="#FAFAFA"/>
<path d="M274.281 284.599L265.503 293.927L259.949 291.007L270.059 280.696L274.281 284.599Z" fill="#407BFF"/>
<path opacity="0.2" d="M274.281 284.599L265.503 293.927L259.949 291.007L270.059 280.696L274.281 284.599Z" fill="black"/>
<path d="M210.856 179.103L212.779 181.058C212.93 181.21 212.779 181.465 212.475 181.561L185.144 190.339C184.905 190.419 184.673 190.339 184.609 190.219L183.628 187.969C183.556 187.809 183.716 187.61 183.971 187.522L210.361 179.007C210.444 178.979 210.534 178.973 210.621 178.99C210.707 179.007 210.788 179.046 210.856 179.103Z" fill="#263238"/>
<path d="M208.278 183.197L208.98 182.973C209.124 182.926 209.204 182.814 209.172 182.734L207.863 179.805C207.863 179.726 207.672 179.694 207.536 179.734L206.826 179.965C206.69 179.965 206.602 180.117 206.642 180.204L207.951 183.125C207.975 183.213 208.118 183.245 208.278 183.197Z" fill="#407BFF"/>
<path opacity="0.6" d="M208.278 183.197L208.98 182.973C209.124 182.926 209.204 182.814 209.172 182.734L207.863 179.805C207.863 179.726 207.672 179.694 207.536 179.734L206.826 179.965C206.69 179.965 206.602 180.117 206.642 180.204L207.951 183.125C207.975 183.213 208.118 183.245 208.278 183.197Z" fill="#FAFAFA"/>
<path d="M187.211 189.996L187.921 189.764C188.057 189.717 188.144 189.613 188.105 189.525L186.796 186.604C186.756 186.517 186.612 186.485 186.469 186.532L185.758 186.756C185.623 186.804 185.535 186.908 185.575 186.995L186.884 189.916C186.924 190.004 187.067 190.036 187.211 189.996Z" fill="#407BFF"/>
<path opacity="0.6" d="M187.211 189.996L187.921 189.764C188.057 189.717 188.144 189.613 188.105 189.525L186.796 186.604C186.756 186.517 186.612 186.485 186.469 186.532L185.758 186.756C185.623 186.804 185.535 186.908 185.575 186.995L186.884 189.916C186.924 190.004 187.067 190.036 187.211 189.996Z" fill="#FAFAFA"/>
<path d="M197.736 186.596L198.439 186.365C198.582 186.365 198.67 186.213 198.63 186.126L197.321 183.205C197.282 183.117 197.13 183.085 196.994 183.133L196.284 183.364C196.148 183.404 196.061 183.516 196.101 183.596L197.409 186.525C197.449 186.57 197.502 186.602 197.561 186.615C197.62 186.628 197.681 186.621 197.736 186.596Z" fill="#407BFF"/>
<path opacity="0.6" d="M197.736 186.596L198.439 186.365C198.582 186.365 198.67 186.213 198.63 186.126L197.321 183.205C197.282 183.117 197.13 183.085 196.994 183.133L196.284 183.364C196.148 183.404 196.061 183.516 196.101 183.596L197.409 186.525C197.449 186.57 197.502 186.602 197.561 186.615C197.62 186.628 197.681 186.621 197.736 186.596Z" fill="#FAFAFA"/>
<path d="M177.755 125.11C177.818 125.645 177.587 126.124 177.236 126.164C176.885 126.204 176.542 125.805 176.478 125.262C176.414 124.719 176.645 124.249 176.996 124.209C177.348 124.169 177.691 124.568 177.755 125.11Z" fill="#263238"/>
<path d="M171.65 125.853C171.722 126.395 171.482 126.866 171.131 126.906C170.78 126.946 170.437 126.547 170.373 126.012C170.309 125.478 170.541 124.999 170.892 124.951C171.243 124.903 171.57 125.286 171.65 125.853Z" fill="#263238"/>
<path d="M171.051 124.967L169.711 124.751C169.711 124.751 170.501 125.685 171.051 124.967Z" fill="#263238"/>
<path d="M173.381 126.587C173.048 127.876 172.541 129.113 171.873 130.266C172.174 130.426 172.505 130.52 172.845 130.542C173.185 130.564 173.526 130.513 173.844 130.393L173.381 126.587Z" fill="#A24E3F"/>
<path d="M175.983 132.284C175.944 132.285 175.907 132.271 175.878 132.246C175.848 132.222 175.829 132.187 175.823 132.149C175.821 132.106 175.834 132.064 175.86 132.03C175.887 131.996 175.925 131.973 175.967 131.965C176.639 131.898 177.286 131.674 177.856 131.311C178.426 130.948 178.902 130.456 179.247 129.874C179.255 129.855 179.268 129.837 179.283 129.822C179.299 129.808 179.317 129.796 179.338 129.789C179.358 129.781 179.379 129.778 179.4 129.779C179.422 129.78 179.443 129.785 179.462 129.795C179.481 129.804 179.498 129.817 179.512 129.833C179.526 129.849 179.536 129.867 179.543 129.887C179.55 129.907 179.552 129.929 179.551 129.95C179.549 129.971 179.544 129.991 179.534 130.01C179.171 130.644 178.662 131.182 178.048 131.578C177.434 131.973 176.734 132.216 176.007 132.284H175.983Z" fill="#263238"/>
<path d="M178.513 123.195C178.436 123.194 178.362 123.166 178.305 123.115C178.01 122.843 177.654 122.644 177.267 122.537C176.879 122.43 176.472 122.418 176.079 122.501C176.038 122.513 175.995 122.517 175.953 122.512C175.91 122.507 175.869 122.494 175.832 122.473C175.795 122.453 175.762 122.425 175.736 122.391C175.71 122.357 175.691 122.319 175.68 122.278C175.668 122.237 175.664 122.195 175.669 122.153C175.674 122.111 175.687 122.071 175.708 122.034C175.729 121.998 175.757 121.966 175.79 121.94C175.824 121.915 175.862 121.897 175.903 121.887C176.398 121.778 176.911 121.788 177.401 121.918C177.891 122.047 178.343 122.29 178.72 122.629C178.75 122.658 178.774 122.694 178.791 122.733C178.807 122.772 178.815 122.814 178.815 122.856C178.815 122.898 178.807 122.94 178.791 122.979C178.774 123.018 178.75 123.054 178.72 123.084C178.667 123.145 178.593 123.185 178.513 123.195Z" fill="#263238"/>
<path d="M168.498 123.379C168.45 123.39 168.401 123.39 168.354 123.379C168.28 123.338 168.225 123.271 168.2 123.19C168.175 123.11 168.181 123.023 168.218 122.948C168.437 122.492 168.761 122.094 169.163 121.787C169.565 121.48 170.035 121.274 170.533 121.184C170.616 121.175 170.7 121.2 170.766 121.252C170.831 121.304 170.874 121.38 170.884 121.464C170.889 121.506 170.886 121.548 170.875 121.589C170.864 121.63 170.845 121.668 170.819 121.702C170.793 121.735 170.761 121.763 170.724 121.784C170.687 121.805 170.646 121.818 170.604 121.823C170.211 121.896 169.84 122.063 169.523 122.308C169.207 122.554 168.954 122.872 168.785 123.235C168.754 123.282 168.711 123.32 168.661 123.346C168.61 123.371 168.554 123.382 168.498 123.379Z" fill="#263238"/>
<path d="M208.278 146.585L208.581 146.968L208.956 147.423C209.212 147.726 209.475 148.037 209.754 148.34C210.305 148.955 210.879 149.561 211.494 150.136C212.697 151.315 213.968 152.424 215.3 153.455C216.653 154.48 218.057 155.436 219.506 156.32C220.232 156.759 220.974 157.174 221.724 157.581L222.865 158.164L223.416 158.443C223.552 158.507 223.687 158.571 223.815 158.618C224.222 158.788 224.659 158.878 225.1 158.882C225.505 158.859 225.895 158.714 226.217 158.467C227.286 157.58 228.131 156.454 228.683 155.179C229.424 153.642 230.019 152.039 230.462 150.391C230.956 148.71 231.363 147.006 231.683 145.284L235.091 145.499C235.197 149.428 234.636 153.346 233.431 157.086C233.089 158.106 232.648 159.09 232.114 160.023C231.521 161.087 230.756 162.044 229.848 162.856C228.767 163.816 227.446 164.464 226.026 164.731C224.645 164.972 223.226 164.873 221.892 164.444C221.581 164.356 221.293 164.244 220.998 164.133L220.304 163.845L218.947 163.279C218.046 162.872 217.16 162.481 216.29 161.986C214.544 161.065 212.862 160.028 211.255 158.882C209.645 157.721 208.112 156.458 206.666 155.099C205.948 154.413 205.254 153.687 204.575 152.937C204.24 152.554 203.905 152.139 203.586 151.772L203.099 151.141C202.931 150.918 202.804 150.742 202.58 150.423L208.278 146.585Z" fill="#B97964"/>
<path d="M213.936 150.79L208.94 159.177L206.506 156.879L211.119 148.476L213.936 150.79Z" fill="#263238"/>
<path d="M203.011 140.352C205.884 140.304 212.859 148.54 212.859 148.54L206.794 159.097C206.794 159.097 199.069 152.29 199.077 148.564C199.085 144.677 199.739 140.448 203.011 140.352Z" fill="#407BFF"/>
<path opacity="0.3" d="M203.011 140.352C205.884 140.304 212.859 148.54 212.859 148.54L206.794 159.097C206.794 159.097 199.069 152.29 199.077 148.564C199.085 144.677 199.739 140.448 203.011 140.352Z" fill="black"/>
<path d="M272.772 299.944C272.55 299.936 272.337 299.854 272.166 299.713C272.086 299.659 272.022 299.585 271.981 299.498C271.94 299.411 271.924 299.314 271.934 299.218C272.006 298.356 274.169 297.223 274.408 297.095C274.434 297.078 274.465 297.069 274.496 297.069C274.527 297.069 274.558 297.078 274.584 297.095C274.608 297.115 274.626 297.142 274.636 297.171C274.645 297.201 274.647 297.233 274.64 297.263C274.392 298.125 273.842 299.609 273.044 299.872C272.958 299.912 272.866 299.937 272.772 299.944ZM274.217 297.55C273.371 298.029 272.294 298.779 272.254 299.226C272.247 299.269 272.255 299.313 272.275 299.352C272.295 299.39 272.326 299.422 272.365 299.442C272.44 299.514 272.533 299.565 272.634 299.589C272.735 299.613 272.841 299.609 272.94 299.577C273.379 299.45 273.842 298.699 274.217 297.566V297.55Z" fill="#407BFF"/>
<path d="M272.477 297.853C272.126 297.883 271.776 297.796 271.48 297.606C271.384 297.523 271.319 297.41 271.295 297.285C271.272 297.161 271.292 297.032 271.352 296.92C271.395 296.804 271.464 296.7 271.554 296.615C271.644 296.531 271.752 296.469 271.871 296.433C272.796 296.122 274.488 297.055 274.56 297.095C274.586 297.109 274.608 297.13 274.623 297.155C274.639 297.181 274.647 297.209 274.648 297.239C274.647 297.266 274.639 297.293 274.625 297.317C274.611 297.34 274.591 297.36 274.568 297.375C273.916 297.69 273.201 297.854 272.477 297.853ZM272.31 296.688C272.196 296.687 272.083 296.703 271.974 296.736C271.901 296.759 271.833 296.798 271.777 296.851C271.72 296.903 271.676 296.968 271.647 297.04C271.567 297.231 271.647 297.311 271.647 297.367C272.006 297.67 273.331 297.542 274.089 297.231C273.536 296.937 272.932 296.753 272.31 296.688Z" fill="#407BFF"/>
<path d="M198.59 325.105C198.032 325.152 197.473 325.021 196.994 324.73C196.869 324.638 196.767 324.518 196.696 324.379C196.626 324.241 196.588 324.088 196.587 323.932C196.578 323.848 196.591 323.762 196.627 323.685C196.662 323.608 196.717 323.542 196.787 323.493C197.513 322.998 200.242 324.243 200.777 324.491C200.807 324.506 200.832 324.53 200.848 324.56C200.864 324.59 200.87 324.625 200.865 324.658C200.862 324.691 200.849 324.722 200.827 324.746C200.806 324.77 200.777 324.787 200.745 324.794C200.039 324.97 199.317 325.074 198.59 325.105ZM197.313 323.725C197.206 323.715 197.097 323.737 197.002 323.788C196.978 323.805 196.959 323.828 196.948 323.855C196.937 323.882 196.933 323.911 196.938 323.94C196.941 324.045 196.968 324.147 197.016 324.24C197.065 324.332 197.134 324.413 197.218 324.475C197.848 324.954 199.348 324.77 200.226 324.61C199.305 324.17 198.323 323.872 197.313 323.725Z" fill="#407BFF"/>
<path d="M200.745 324.826H200.681C199.779 324.459 197.96 322.998 198.064 322.24C198.064 322.073 198.191 321.865 198.606 321.817C200.202 321.61 200.873 324.523 200.897 324.642C200.903 324.671 200.902 324.701 200.894 324.729C200.885 324.757 200.87 324.782 200.849 324.802C200.817 324.82 200.781 324.829 200.745 324.826ZM198.75 322.121H198.646C198.479 322.121 198.383 322.192 198.375 322.272C198.319 322.703 199.572 323.868 200.498 324.363C200.298 323.677 199.707 322.121 198.75 322.121Z" fill="#407BFF"/>
<path d="M177.156 124.217L175.815 124.001C175.815 124.001 176.605 124.935 177.156 124.217Z" fill="#263238"/>
<path d="M127.233 68.4524C125.821 70.224 118.04 72.3068 111.856 71.7322C109.725 85.7132 117.17 101.809 117.17 101.809C117.17 101.809 133.33 99.8857 133.729 93.2303C134.128 86.575 127.233 68.4524 127.233 68.4524Z" fill="#407BFF"/>
<path opacity="0.4" d="M127.233 68.4524C125.821 70.224 118.04 72.3068 111.856 71.7322C109.725 85.7132 117.17 101.809 117.17 101.809C117.17 101.809 133.33 99.8857 133.729 93.2303C134.128 86.575 127.233 68.4524 127.233 68.4524Z" fill="#FAFAFA"/>
<path d="M249.559 57.8151C251.003 59.85 258.337 61.8689 264.01 60.8156C267.051 77.3661 261.417 97.0288 261.417 97.0288C261.417 97.0288 246.359 95.6882 245.457 87.78C244.555 79.8718 249.559 57.8151 249.559 57.8151Z" fill="#407BFF"/>
<path opacity="0.4" d="M249.559 57.8151C251.003 59.85 258.337 61.8689 264.01 60.8156C267.051 77.3661 261.417 97.0288 261.417 97.0288C261.417 97.0288 246.359 95.6882 245.457 87.78C244.555 79.8718 249.559 57.8151 249.559 57.8151Z" fill="#FAFAFA"/>
<path d="M143.64 201.152C143.525 201.169 143.408 201.163 143.296 201.134C143.183 201.105 143.077 201.055 142.985 200.985C142.892 200.915 142.814 200.828 142.755 200.728C142.696 200.628 142.658 200.517 142.642 200.402L123.69 65.9627C123.674 65.844 123.683 65.7233 123.715 65.6079C123.747 65.4926 123.802 65.3848 123.876 65.291C123.951 65.1972 124.043 65.1193 124.148 65.062C124.253 65.0046 124.369 64.969 124.488 64.9572C124.603 64.9415 124.721 64.9486 124.833 64.9782C124.946 65.0077 125.051 65.0592 125.144 65.1296C125.236 65.2 125.314 65.288 125.373 65.3885C125.432 65.4889 125.47 65.6 125.485 65.7153L144.438 200.146C144.454 200.265 144.445 200.386 144.413 200.501C144.381 200.616 144.326 200.724 144.252 200.818C144.177 200.912 144.085 200.99 143.98 201.047C143.875 201.104 143.759 201.14 143.64 201.152Z" fill="#407BFF"/>
<path opacity="0.2" d="M143.64 201.152C143.525 201.169 143.408 201.163 143.296 201.134C143.183 201.105 143.077 201.055 142.985 200.985C142.892 200.915 142.814 200.828 142.755 200.728C142.696 200.628 142.658 200.517 142.642 200.402L123.69 65.9627C123.674 65.844 123.683 65.7233 123.715 65.6079C123.747 65.4926 123.802 65.3848 123.876 65.291C123.951 65.1972 124.043 65.1193 124.148 65.062C124.253 65.0046 124.369 64.969 124.488 64.9572C124.603 64.9415 124.721 64.9486 124.833 64.9782C124.946 65.0077 125.051 65.0592 125.144 65.1296C125.236 65.2 125.314 65.288 125.373 65.3885C125.432 65.4889 125.47 65.6 125.485 65.7153L144.438 200.146C144.454 200.265 144.445 200.386 144.413 200.501C144.381 200.616 144.326 200.724 144.252 200.818C144.177 200.912 144.085 200.99 143.98 201.047C143.875 201.104 143.759 201.14 143.64 201.152Z" fill="black"/>
<path d="M233.95 191.161C234.068 191.176 234.189 191.168 234.304 191.136C234.42 191.104 234.528 191.049 234.621 190.975C234.715 190.9 234.793 190.808 234.85 190.703C234.908 190.598 234.943 190.482 234.955 190.363L253.948 55.9318C253.964 55.8165 253.958 55.699 253.93 55.586C253.901 55.4731 253.851 55.3668 253.781 55.2734C253.711 55.18 253.624 55.1013 253.524 55.0417C253.424 54.9822 253.313 54.943 253.197 54.9263C253.079 54.9108 252.958 54.9193 252.843 54.9512C252.727 54.9832 252.62 55.038 252.526 55.1125C252.432 55.1869 252.354 55.2794 252.297 55.3845C252.239 55.4896 252.204 55.6052 252.192 55.7243L233.2 190.155C233.168 190.388 233.228 190.624 233.369 190.812C233.509 191 233.718 191.125 233.95 191.161Z" fill="#407BFF"/>
<path opacity="0.2" d="M233.95 191.161C234.068 191.176 234.189 191.168 234.304 191.136C234.42 191.104 234.528 191.049 234.621 190.975C234.715 190.9 234.793 190.808 234.85 190.703C234.908 190.598 234.943 190.482 234.955 190.363L253.948 55.9318C253.964 55.8165 253.958 55.699 253.93 55.586C253.901 55.4731 253.851 55.3668 253.781 55.2734C253.711 55.18 253.624 55.1013 253.524 55.0417C253.424 54.9822 253.313 54.943 253.197 54.9263C253.079 54.9108 252.958 54.9193 252.843 54.9512C252.727 54.9832 252.62 55.038 252.526 55.1125C252.432 55.1869 252.354 55.2794 252.297 55.3845C252.239 55.4896 252.204 55.6052 252.192 55.7243L233.2 190.155C233.168 190.388 233.228 190.624 233.369 190.812C233.509 191 233.718 191.125 233.95 191.161Z" fill="black"/>
<path d="M122.932 68.8036L126.523 95.2014C126.545 95.3682 126.603 95.5283 126.692 95.6707C126.782 95.813 126.902 95.9342 127.043 96.026C127.184 96.1177 127.343 96.1778 127.509 96.2022C127.676 96.2265 127.846 96.2145 128.007 96.167C136.035 93.8687 180.675 82.4095 249.247 89.7032C249.539 89.7368 249.832 89.6593 250.068 89.4862C250.305 89.3132 250.468 89.0572 250.524 88.7695C251.817 82.0823 254.043 63.034 254.61 58.1582C254.644 57.8509 254.556 57.5424 254.365 57.2992C254.174 57.056 253.895 56.8974 253.588 56.8575C244.38 55.6924 181.521 48.7259 123.738 67.5268C123.476 67.6133 123.253 67.7879 123.106 68.0208C122.959 68.2537 122.898 68.5303 122.932 68.8036Z" fill="#407BFF"/>
<path opacity="0.6" d="M122.932 68.8036L126.523 95.2014C126.545 95.3682 126.603 95.5283 126.692 95.6707C126.782 95.813 126.902 95.9342 127.043 96.026C127.184 96.1177 127.343 96.1778 127.509 96.2022C127.676 96.2265 127.846 96.2145 128.007 96.167C136.035 93.8687 180.675 82.4095 249.247 89.7032C249.539 89.7368 249.832 89.6593 250.068 89.4862C250.305 89.3132 250.468 89.0572 250.524 88.7695C251.817 82.0823 254.043 63.034 254.61 58.1582C254.644 57.8509 254.556 57.5424 254.365 57.2992C254.174 57.056 253.895 56.8974 253.588 56.8575C244.38 55.6924 181.521 48.7259 123.738 67.5268C123.476 67.6133 123.253 67.7879 123.106 68.0208C122.959 68.2537 122.898 68.5303 122.932 68.8036Z" fill="#FAFAFA"/>
<path d="M134.447 73.416L138.23 72.618L140.903 79.5686L141.581 71.9397L145.356 71.1417L148.667 77.9566L148.715 70.4634L152.482 69.6654L151.987 83.1516L148.085 83.9496L144.342 76.2728L143.544 84.8593L139.642 85.6573L134.447 73.416Z" fill="#FAFAFA"/>
<path d="M154.333 69.5218L165.098 67.9258L165.449 70.7028L158.714 71.6923L158.978 73.7671L165.226 72.8494L165.561 75.5068L159.313 76.4244L159.6 79.002L166.535 77.9885L166.91 80.9411L155.945 82.5371L154.333 69.5218Z" fill="#FAFAFA"/>
<path d="M167.835 67.6145L171.873 67.1756L172.735 77.0469L179.031 76.3686L179.319 79.5606L168.945 80.6778L167.835 67.6145Z" fill="#FAFAFA"/>
<path d="M189.174 73.4639L192.773 74.2619C192.624 75.1837 192.284 76.0643 191.775 76.8474C191.308 77.5524 190.672 78.1286 189.924 78.5232C189.028 78.955 188.053 79.1994 187.059 79.2414C185.873 79.3679 184.673 79.24 183.54 78.8663C182.559 78.4423 181.726 77.737 181.146 76.8394C180.382 75.6655 179.97 74.2978 179.957 72.8973C179.748 71.06 180.276 69.2146 181.425 67.7662C182.041 67.1123 182.783 66.5895 183.605 66.2289C184.428 65.8683 185.315 65.6773 186.213 65.6674C187.568 65.4904 188.943 65.7415 190.147 66.3856C191.205 67.0888 192.002 68.1209 192.414 69.3223L188.879 70.3756C188.781 70.0683 188.633 69.7797 188.44 69.5218C188.195 69.2319 187.883 69.0071 187.53 68.8674C186.957 68.6331 186.318 68.6139 185.731 68.8133C185.145 69.0128 184.65 69.4174 184.338 69.9527C183.95 70.7727 183.804 71.6859 183.915 72.5861C183.984 74.0384 184.25 75.02 184.713 75.5307C184.954 75.7853 185.251 75.9794 185.581 76.0972C185.912 76.2151 186.265 76.2534 186.612 76.209C186.94 76.205 187.262 76.1318 187.559 75.9943C187.857 75.8568 188.121 75.658 188.336 75.411C188.777 74.8443 189.066 74.1739 189.174 73.4639Z" fill="#FAFAFA"/>
<path d="M194.249 71.9397C194.187 71.0218 194.307 70.1006 194.603 69.2294C194.899 68.3583 195.364 67.5544 195.973 66.8644C196.625 66.2221 197.4 65.7174 198.252 65.3802C199.103 65.043 200.013 64.8802 200.928 64.9013C201.837 64.8108 202.755 64.9056 203.626 65.1799C204.497 65.4543 205.303 65.9024 205.996 66.4973C206.618 67.1435 207.101 67.9102 207.415 68.7501C207.729 69.59 207.868 70.4854 207.823 71.3811C207.892 72.6917 207.646 73.9998 207.105 75.1955C206.616 76.1914 205.848 77.0234 204.894 77.5895C203.785 78.2092 202.535 78.5334 201.264 78.5312C200.008 78.6194 198.749 78.4173 197.585 77.9407C196.583 77.4801 195.747 76.7222 195.191 75.7701C194.536 74.6019 194.211 73.2782 194.249 71.9397ZM198.295 71.828C198.225 72.8387 198.507 73.8427 199.093 74.6689C199.342 74.9504 199.654 75.1694 200.003 75.308C200.353 75.4466 200.73 75.5011 201.104 75.4669C201.487 75.4755 201.866 75.3974 202.215 75.2385C202.563 75.0796 202.871 74.8439 203.115 74.5492C203.672 73.6212 203.91 72.5367 203.793 71.4609C203.862 70.4974 203.578 69.5419 202.995 68.7716C202.74 68.4912 202.424 68.2733 202.071 68.1349C201.718 67.9965 201.338 67.9413 200.96 67.9736C200.585 67.9725 200.215 68.0558 199.876 68.2175C199.538 68.3791 199.24 68.6149 199.005 68.9073C198.444 69.769 198.193 70.7966 198.295 71.82V71.828Z" fill="#FAFAFA"/>
<path d="M210.281 64.8694H215.604L217.439 72.9053L219.697 64.9253L225.02 64.9732L224.661 78.1402H221.341L221.613 68.0933L218.788 78.1162H215.787L213.513 68.0455L213.242 78.0923H209.922L210.281 64.8694Z" fill="#FAFAFA"/>
<path d="M227.941 65.1008L238.77 65.5876L238.602 68.3966L231.819 68.0933L231.683 70.224L237.972 70.5033L237.804 73.1447L231.516 72.8654L231.356 75.4668L238.331 75.7701L238.139 78.7546L227.111 78.2598L227.941 65.1008Z" fill="#FAFAFA"/>
</svg>
