<svg width="24" height="24" viewBox="0 0 24 24" fill="none" xmlns="http://www.w3.org/2000/svg">
<g clip-path="url(#clip0_724_1380)">
<path d="M12 0C5.37969 0 0 5.37969 0 12C0 18.6203 5.37969 24 12 24C18.6203 24 24 18.6203 24 12C24 5.37969 18.6203 0 12 0ZM12 1.2C17.9718 1.2 22.8 6.02822 22.8 12C22.8 14.8193 21.7145 17.3743 19.95 19.2961L19.1977 19.0547L18.1875 18.7758L17.168 18.5391L16.1367 18.3445L15.9867 18.3L15.8555 18.218L15.75 18.1055L15.675 17.9695L15.6398 17.8172L15.6422 17.6648L15.6844 17.5148L15.7641 17.3813L16.0172 17.032L16.2352 16.6617L16.6008 15.9305L16.9242 15.1828L17.2078 14.4164L17.4492 13.6336L17.6461 12.8438L17.8008 12.0422L17.9109 11.2313L17.9789 10.418L18 9.60234L17.9789 9.07969L17.9086 8.55938L17.7961 8.04844L17.6367 7.54922L17.4375 7.06641L17.1961 6.6L16.9172 6.15938L16.5961 5.74453L16.2445 5.35781L15.8555 5.00625L15.443 4.6875L15 4.40391L14.5359 4.1625L14.0531 3.96328L13.5539 3.80391L13.0406 3.69141L12.5227 3.62344L12 3.6L11.4773 3.62344L10.9594 3.69141L10.4461 3.80391L9.94688 3.96328L9.46406 4.1625L9 4.40391L8.55938 4.6875L8.14453 5.00625L7.75547 5.35781L7.40391 5.74453L7.08516 6.15938L6.80391 6.6L6.5625 7.06641L6.36328 7.54922L6.20391 8.04844L6.09141 8.55938L6.02344 9.07969L6 9.60234L6.02109 10.418L6.08906 11.2313L6.19922 12.0422L6.35391 12.8438L6.55078 13.6336L6.79219 14.4164L7.07813 15.1828L7.39922 15.9305L7.76484 16.6617L7.98281 17.032L8.23594 17.3813L8.31563 17.5148L8.35781 17.6648L8.3625 17.8172L8.325 17.9695L8.25 18.1055L8.14453 18.218L8.01328 18.3L7.86328 18.3445L6.83438 18.5391L5.8125 18.7758L4.80234 19.0547L4.05 19.2961C2.28549 17.3743 1.2 14.8193 1.2 12C1.2 6.02822 6.02822 1.2 12 1.2ZM12 4.8L12.4711 4.82344L12.9375 4.89375L13.3922 5.00859L13.8352 5.16563L14.2641 5.36953L14.6672 5.60859L15.0445 5.88984L15.3961 6.20625L15.7102 6.55547L15.9914 6.93516L16.2328 7.33828L16.4344 7.76484L16.5938 8.20781L16.7086 8.66484L16.7789 9.13125L16.8 9.60234L16.7812 10.3547L16.718 11.1023L16.6148 11.8453L16.4742 12.5836L16.2914 13.3125L16.0688 14.032L15.8086 14.7352L15.5109 15.4266L15.1758 16.0992L15.0117 16.3734L14.8219 16.6383L14.6648 16.875L14.5453 17.1352L14.468 17.4117L14.4352 17.6977L14.4516 17.9836L14.5102 18.2648L14.6133 18.532L14.7586 18.7828L14.9414 19.0031L15.1547 19.1953L15.3961 19.3477L15.6633 19.4602L15.9398 19.5281L16.9195 19.7133L17.8945 19.9383L18.8555 20.2031L18.975 20.2406C17.0934 21.8345 14.6634 22.8 12 22.8C9.33661 22.8 6.90657 21.8345 5.025 20.2406L5.14453 20.2031L6.10547 19.9383L7.08047 19.7133L8.06016 19.5281L8.33672 19.4602L8.60391 19.3477L8.84531 19.1953L9.06094 19.0031L9.24141 18.7828L9.38672 18.532L9.49219 18.2648L9.54844 17.9836L9.56484 17.6977L9.53203 17.4117L9.45469 17.1352L9.33516 16.875L9.17813 16.6383L8.98828 16.3734L8.82422 16.0992L8.48906 15.4266L8.19141 14.7352L7.93125 14.032L7.70859 13.3125L7.52813 12.5836L7.38516 11.8453L7.28203 11.1023L7.21875 10.3547L7.2 9.60234L7.22344 9.13125L7.29375 8.66484L7.40625 8.20781L7.56563 7.76484L7.76719 7.33828L8.00859 6.93516L8.28984 6.55547L8.60391 6.20625L8.95547 5.88984L9.33281 5.60859L9.73828 5.36953L10.1648 5.16563L10.6078 5.00859L11.0625 4.89375L11.5289 4.82344L12 4.8Z" fill="#FFA62B"/>
</g>
<defs>
<clipPath id="clip0_724_1380">
<rect width="24" height="24" fill="white"/>
</clipPath>
</defs>
</svg>
