<svg width="110" height="110" viewBox="0 0 110 110" fill="none" xmlns="http://www.w3.org/2000/svg">
<path d="M120 89.424H-10V89.489H120V89.424Z" fill="#EBEBEB"/>
<path d="M106.974 93.6074H98.3628V93.6724H106.974V93.6074Z" fill="#EBEBEB"/>
<path d="M76.1173 94.3146H73.8579V94.3796H76.1173V94.3146Z" fill="#EBEBEB"/>
<path d="M98.1027 91.1946H93.1133V91.2596H98.1027V91.1946Z" fill="#EBEBEB"/>
<path d="M14.869 91.6314H3.63965V91.6964H14.869V91.6314Z" fill="#EBEBEB"/>
<path d="M18.8313 91.6314H17.1855V91.6964H18.8313V91.6314Z" fill="#EBEBEB"/>
<path d="M48.5389 92.7286H24.1821V92.7936H48.5389V92.7286Z" fill="#EBEBEB"/>
<path d="M51.62 77.828H1.41657C1.02328 77.8273 0.646335 77.6706 0.36848 77.3922C0.0906258 77.1139 -0.0654303 76.7367 -0.0654297 76.3434V5.77159C-0.062006 5.38055 0.0955607 5.00666 0.373046 4.73112C0.65053 4.45559 1.02552 4.30066 1.41657 4.29999H51.62C52.0137 4.29999 52.3913 4.4564 52.6697 4.73482C52.9482 5.01323 53.1046 5.39085 53.1046 5.78459V76.3434C53.1046 76.7371 52.9482 77.1147 52.6697 77.3932C52.3913 77.6716 52.0137 77.828 51.62 77.828ZM1.41657 4.35199C1.04052 4.35268 0.680107 4.50254 0.414442 4.7687C0.148778 5.03485 -0.000430323 5.39554 -0.00042969 5.77159V76.3434C-0.000430323 76.7194 0.148778 77.0801 0.414442 77.3463C0.680107 77.6124 1.04052 77.7623 1.41657 77.763H51.62C51.9963 77.7623 52.3569 77.6125 52.623 77.3464C52.8891 77.0804 53.0389 76.7197 53.0396 76.3434V5.77159C53.0389 5.3953 52.8891 5.03462 52.623 4.76854C52.3569 4.50246 51.9963 4.35268 51.62 4.35199H1.41657Z" fill="#EBEBEB"/>
<path d="M107.861 77.828H57.6545C57.261 77.8273 56.8838 77.6707 56.6055 77.3924C56.3272 77.1141 56.1706 76.7369 56.1699 76.3434V5.77159C56.174 5.38032 56.3322 5.00643 56.6101 4.73096C56.888 4.4555 57.2632 4.30065 57.6545 4.29999H107.861C108.251 4.30134 108.625 4.45657 108.902 4.73204C109.179 5.0075 109.337 5.381 109.34 5.77159V76.3434C109.34 76.7362 109.184 77.1131 108.907 77.3913C108.63 77.6696 108.253 77.8266 107.861 77.828ZM57.6545 4.35199C57.2782 4.35268 56.9175 4.50246 56.6515 4.76854C56.3854 5.03462 56.2356 5.3953 56.2349 5.77159V76.3434C56.2356 76.7197 56.3854 77.0804 56.6515 77.3464C56.9175 77.6125 57.2782 77.7623 57.6545 77.763H107.861C108.237 77.7623 108.597 77.6125 108.864 77.3464C109.13 77.0804 109.279 76.7197 109.28 76.3434V5.77159C109.279 5.3953 109.13 5.03462 108.864 4.76854C108.597 4.50246 108.237 4.35268 107.861 4.35199H57.6545Z" fill="#EBEBEB"/>
<path d="M30.695 66.0552L27.094 69.066L32.2238 76.5228L36.3214 74.2348C38.5178 76.3443 41.0927 78.0203 43.9108 79.1748L43.4948 83.8366L52.3998 85.4772L53.6764 80.974C56.7164 80.9046 59.7158 80.2606 62.5164 79.076L65.5272 82.677L72.984 77.5472L70.7012 73.46C72.8112 71.2649 74.4873 68.6908 75.6412 65.8732L80.3004 66.2892L81.9462 57.3894L77.443 56.1102C77.3717 53.0704 76.7278 50.0713 75.545 47.2702L79.146 44.2594L74.0162 36.8052L69.916 39.0906C67.7203 36.9813 65.1464 35.3053 62.3292 34.1506L62.7452 29.4888L53.8454 27.8456L52.5688 32.3462C49.5291 32.4185 46.5302 33.0623 43.7288 34.2442L40.6998 30.6276L33.2482 35.76L35.5336 39.8576C33.4243 42.0542 31.7483 44.629 30.5936 47.447L25.9318 47.031L24.2886 55.9308L28.7892 57.2074C28.8614 60.2504 29.508 63.2523 30.695 66.0552ZM41.0716 54.4254C41.512 52.0427 42.6491 49.8441 44.3391 48.1077C46.029 46.3712 48.196 45.1749 50.5658 44.67C52.9357 44.1651 55.4021 44.3743 57.6531 45.2711C59.9041 46.1679 61.8386 47.7121 63.2119 49.7083C64.5853 51.7046 65.3359 54.0633 65.3688 56.4861C65.4016 58.909 64.7153 61.2871 63.3966 63.3199C62.0778 65.3527 60.1859 66.9487 57.9601 67.9063C55.7343 68.8638 53.2745 69.1398 50.8918 68.6994C47.6967 68.1088 44.8671 66.2731 43.0254 63.5962C41.1838 60.9193 40.481 57.6205 41.0716 54.4254Z" fill="#F0F0F0"/>
<path d="M90.7188 61.4558L93.532 61.9758L93.935 60.5536C94.8969 60.5304 95.8459 60.3266 96.7326 59.953L97.6842 61.0918L100.042 59.4694L99.3196 58.1694C99.9865 57.4761 100.516 56.6627 100.88 55.7722L102.354 55.9022L102.874 53.0916L101.449 52.686C101.428 51.7238 101.224 50.7745 100.848 49.8884L101.987 48.9368L100.365 46.5812L99.0648 47.304C98.3703 46.6386 97.5572 46.1095 96.6676 45.744L96.7976 44.2724L93.9844 43.7524L93.5814 45.1746C92.6195 45.198 91.6705 45.4017 90.7838 45.7752L89.84 44.6364L87.4818 46.2588L88.2046 47.5588C87.5377 48.252 87.0084 49.0655 86.6446 49.956L85.1704 49.826L84.6504 52.6366L86.0726 53.0422C86.095 54.0042 86.2988 54.9533 86.6732 55.8398L85.5344 56.7914L87.1568 59.147L88.4568 58.4242C89.151 59.0911 89.9653 59.6205 90.8566 59.9842L90.7188 61.4558ZM89.9518 52.1608C90.0906 51.4071 90.4499 50.7115 90.9841 50.162C91.5183 49.6126 92.2035 49.2339 92.953 49.0739C93.7025 48.9139 94.4826 48.9798 95.1946 49.2633C95.9066 49.5468 96.5186 50.035 96.953 50.6663C97.3875 51.2977 97.6249 52.0437 97.6353 52.8099C97.6457 53.5762 97.4286 54.3284 97.0115 54.9713C96.5943 55.6142 95.9959 56.1189 95.2918 56.4216C94.5878 56.7243 93.8097 56.8113 93.0562 56.6718C92.0469 56.4841 91.1532 55.9038 90.5713 55.0582C89.9893 54.2125 89.7665 53.1705 89.9518 52.1608Z" fill="#F0F0F0"/>
<path d="M11.762 69.4664L13.9044 69.8642L14.2138 68.78C14.9459 68.7614 15.6681 68.6062 16.3432 68.3224L17.0686 69.1882L18.8652 67.9532L18.314 66.96C18.821 66.4335 19.2242 65.816 19.5022 65.14L20.6254 65.2388L21.0206 63.0964L19.9364 62.8C19.9202 62.0668 19.765 61.3433 19.4788 60.668L20.3472 59.9426L19.1096 58.1486L18.1242 58.6998C17.5971 58.1928 16.9798 57.7889 16.3042 57.509L16.4056 56.3884L14.2606 55.9906L13.9538 57.0748C13.2208 57.0935 12.4978 57.2487 11.8218 57.5324L11.099 56.6666L9.30237 57.9016L9.85357 58.8896C9.34627 59.4159 8.94311 60.0334 8.66537 60.7096L7.54217 60.6108L7.14697 62.7532L8.22337 63.06C8.23951 63.7932 8.39479 64.5167 8.68097 65.192L7.81257 65.92L9.04757 67.714L10.0356 67.1654C10.563 67.6713 11.1802 68.0743 11.8556 68.3536L11.762 69.4664ZM11.1796 62.3866C11.2859 61.8133 11.5599 61.2845 11.9667 60.8669C12.3736 60.4493 12.8952 60.1617 13.4655 60.0405C14.0358 59.9193 14.6292 59.9698 15.1707 60.1858C15.7123 60.4018 16.1777 60.7735 16.508 61.2539C16.8383 61.7344 17.0188 62.3019 17.0266 62.8849C17.0345 63.4679 16.8692 64.0401 16.5519 64.5292C16.2346 65.0183 15.7793 65.4024 15.2438 65.6328C14.7082 65.8632 14.1163 65.9297 13.543 65.8238C12.7739 65.6811 12.093 65.2388 11.6499 64.5943C11.2067 63.9498 11.0376 63.1558 11.1796 62.3866Z" fill="#F0F0F0"/>
<path d="M50.0211 21.72L51.6435 22.019L51.8801 21.2C52.4354 21.1889 52.9835 21.0715 53.4947 20.8542L54.0433 21.512L55.4005 20.576L54.9845 19.8298C55.3685 19.4293 55.6737 18.96 55.8841 18.4466L56.7317 18.522L57.0307 16.9022L56.2117 16.6682C56.1981 16.114 56.0808 15.5672 55.8659 15.0562L56.5211 14.5076L55.5877 13.1504L54.8415 13.5664C54.441 13.1823 53.9717 12.8772 53.4583 12.6668L53.5337 11.8192L51.9113 11.5176L51.6799 12.3392C51.1254 12.3501 50.5781 12.4674 50.0679 12.685L49.5193 12.0272L48.1595 12.9632L48.5781 13.7094C48.1933 14.1093 47.888 14.5787 47.6785 15.0926L46.8283 15.0172L46.5293 16.637L47.3483 16.871C47.3614 17.4252 47.4787 17.9721 47.6941 18.483L47.0389 19.0316L47.9749 20.3888L48.7211 19.9728C49.1203 20.3572 49.5888 20.6624 50.1017 20.8724L50.0211 21.72ZM49.5817 16.3614C49.662 15.9276 49.8692 15.5274 50.1769 15.2113C50.4847 14.8953 50.8792 14.6775 51.3107 14.5857C51.7422 14.4938 52.1912 14.532 52.601 14.6953C53.0108 14.8586 53.363 15.1397 53.613 15.5032C53.8631 15.8666 53.9998 16.296 54.0058 16.7371C54.0118 17.1782 53.8869 17.6112 53.6469 17.9813C53.4069 18.3515 53.0625 18.6421 52.6573 18.8166C52.2521 18.991 51.8043 19.0414 51.3705 18.9614C50.7895 18.8539 50.2748 18.5204 49.9395 18.0339C49.6041 17.5475 49.4754 16.9478 49.5817 16.3666V16.3614Z" fill="#F0F0F0"/>
<path d="M76.9675 34.7694L78.0491 34.967L78.2025 34.421C78.5726 34.4122 78.9378 34.3337 79.2789 34.1896L79.6455 34.629L80.5503 34.005L80.2721 33.5058C80.5284 33.2395 80.7322 32.9273 80.8727 32.5854L81.4395 32.6348L81.6397 31.5532L81.0911 31.3972C81.0829 31.0281 81.0053 30.6638 80.8623 30.3234L81.2991 29.9568L80.6751 29.052L80.1785 29.3302C79.9108 29.0743 79.5978 28.8706 79.2555 28.7296L79.3049 28.1628L78.2233 27.9626L78.0699 28.5112C77.6999 28.5191 77.3347 28.5967 76.9935 28.74L76.6269 28.3032L75.7221 28.9272L76.0003 29.4238C75.7444 29.6914 75.5407 30.0044 75.3997 30.3468L74.8329 30.2974L74.6353 31.3764L75.1813 31.5324C75.1888 31.9027 75.2674 32.2681 75.4127 32.6088L74.9733 32.9728L75.5973 33.8802L76.0965 33.602C76.3627 33.8583 76.675 34.0621 77.0169 34.2026L76.9675 34.7694ZM76.6737 31.1944C76.727 30.9045 76.8651 30.6369 77.0705 30.4255C77.2759 30.2141 77.5394 30.0684 77.8277 30.0069C78.1159 29.9453 78.416 29.9706 78.6898 30.0796C78.9637 30.1886 79.1991 30.3764 79.3662 30.6192C79.5333 30.8621 79.6246 31.149 79.6286 31.4437C79.6325 31.7385 79.549 32.0277 79.3885 32.275C79.228 32.5222 78.9978 32.7163 78.7269 32.8326C78.4561 32.949 78.1569 32.9824 77.8671 32.9286C77.479 32.8566 77.1354 32.6335 76.9116 32.3084C76.6879 31.9832 76.6023 31.5826 76.6737 31.1944Z" fill="#F0F0F0"/>
<path d="M27.1148 21.7382L28.1964 21.9384L28.3498 21.3924C28.7198 21.3823 29.0847 21.3039 29.4262 21.161L29.7928 21.5978L30.6976 20.9738L30.4194 20.4772C30.6758 20.21 30.8795 19.8968 31.02 19.5542L31.5868 19.6062L31.787 18.5246L31.2384 18.3686C31.2302 17.9986 31.1526 17.6335 31.0096 17.2922L31.4464 16.9282L30.8224 16.0208L30.3232 16.299C30.0575 16.0426 29.745 15.8396 29.4028 15.701L29.4522 15.1342L28.3706 14.934L28.2198 15.48C27.8496 15.4888 27.4844 15.5673 27.1434 15.7114L26.7768 15.2746L25.8798 15.896L26.158 16.3952C25.9016 16.6624 25.6978 16.9755 25.5574 17.3182L24.9906 17.2662L24.793 18.3478L25.339 18.5038C25.3465 18.8733 25.4251 19.2378 25.5704 19.5776L25.131 19.9442L25.755 20.8516L26.2542 20.5734C26.5206 20.8289 26.8328 21.0318 27.1746 21.1714L27.1148 21.7382ZM26.821 18.1658C26.8743 17.8759 27.0124 17.6083 27.2178 17.3969C27.4232 17.1855 27.6867 17.0398 27.975 16.9783C28.2632 16.9167 28.5633 16.942 28.8372 17.051C29.111 17.16 29.3464 17.3478 29.5135 17.5906C29.6806 17.8335 29.7719 18.1204 29.7759 18.4151C29.7798 18.7099 29.6963 18.9991 29.5358 19.2464C29.3753 19.4936 29.1451 19.6877 28.8743 19.804C28.6034 19.9204 28.3042 19.9538 28.0144 19.9C27.6263 19.828 27.2827 19.6049 27.0589 19.2798C26.8352 18.9546 26.7496 18.554 26.821 18.1658Z" fill="#F0F0F0"/>
<path d="M75.1814 79.3776C75.1952 80.0232 75.332 80.6603 75.5844 81.2548L74.82 81.8944L75.9094 83.4726L76.7778 82.989C77.2443 83.4335 77.7903 83.7863 78.3872 84.029L78.2988 85.017L80.1864 85.3654L80.4464 84.4112C81.0909 84.3946 81.7267 84.2579 82.321 84.0082L82.9606 84.77L84.5414 83.6832L84.0682 82.82C84.5132 82.3538 84.866 81.8077 85.1082 81.2106L86.0962 81.299L86.4602 79.414L85.506 79.154C85.4922 78.5083 85.3555 77.8712 85.103 77.2768L85.8674 76.6398L84.7806 75.059L83.8992 75.54C83.4344 75.0945 82.8891 74.7416 82.2924 74.5L82.3782 73.5094L80.4932 73.161L80.2332 74.1152C79.5879 74.1318 78.9513 74.2685 78.356 74.5182L77.7164 73.7564L76.1356 74.8432L76.6218 75.7116C76.177 76.1778 75.8242 76.7239 75.5818 77.321L74.5938 77.2326L74.2402 79.1072L75.1814 79.3776ZM77.7814 78.79C77.8741 78.2837 78.1149 77.8164 78.4733 77.4471C78.8318 77.0778 79.2918 76.8232 79.795 76.7155C80.2983 76.6079 80.8221 76.652 81.3003 76.8423C81.7785 77.0326 82.1894 77.3605 82.4811 77.7845C82.7728 78.2085 82.932 78.7095 82.9387 79.2241C82.9454 79.7387 82.7993 80.2437 82.5188 80.6752C82.2382 81.1067 81.836 81.4452 81.3629 81.6479C80.8899 81.8506 80.3673 81.9083 79.8614 81.8138C79.1857 81.6868 78.5878 81.2974 78.1985 80.7308C77.8092 80.1641 77.6601 79.4663 77.784 78.79H77.7814Z" fill="#F0F0F0"/>
<path d="M91.5116 68.182L88.6074 69.2454L91.5116 70.301V71.38L87.3516 69.8018V68.6682L91.5116 67.09V68.182Z" fill="#E0E0E0"/>
<path d="M94.637 64.9528H95.8512L92.973 73.1714H91.7588L94.637 64.9528Z" fill="#E0E0E0"/>
<path d="M100.162 68.6786V69.82L96.002 71.3982V70.3088L98.9061 69.2532L96.002 68.1898V67.1082L100.162 68.6786Z" fill="#E0E0E0"/>
<path d="M19.3384 82.0608C19.7544 82.1856 19.9468 82.4482 19.9468 83.0748V84.523C19.9347 84.613 19.9433 84.7047 19.972 84.7909C20.0008 84.877 20.0488 84.9555 20.1126 85.0203C20.1763 85.085 20.254 85.1343 20.3398 85.1644C20.4255 85.1945 20.517 85.2045 20.6072 85.1938H20.771V86.2988H20.251C19.1174 86.2988 18.5376 85.719 18.5376 84.6764V83.0384C18.5376 82.7472 18.3842 82.612 18.1398 82.612H17.8408V81.52H18.1398C18.3842 81.52 18.5376 81.3848 18.5376 81.0936V79.44C18.5376 78.4 19.1174 77.8202 20.251 77.8202H20.771V78.92H20.6072C20.517 78.9093 20.4255 78.9193 20.3398 78.9494C20.254 78.9795 20.1763 79.0288 20.1126 79.0935C20.0488 79.1583 20.0008 79.2367 19.972 79.3229C19.9433 79.4091 19.9347 79.5007 19.9468 79.5908V81.039C19.9468 81.6708 19.7544 81.9334 19.3384 82.0608Z" fill="#E0E0E0"/>
<path d="M26.5458 81.52V82.625H26.2468C26.1906 82.62 26.1341 82.6279 26.0815 82.6479C26.0288 82.668 25.9814 82.6998 25.9429 82.7408C25.9043 82.7819 25.8756 82.8312 25.8589 82.885C25.8421 82.9388 25.8379 82.9957 25.8463 83.0514V84.6894C25.8463 85.7294 25.2665 86.3118 24.1355 86.3118H23.6155V85.2068H23.7793C23.8696 85.2175 23.9611 85.2075 24.0468 85.1774C24.1325 85.1473 24.2102 85.098 24.274 85.0333C24.3377 84.9685 24.3858 84.8901 24.4145 84.8039C24.4433 84.7177 24.4519 84.626 24.4398 84.536V83.08C24.4398 82.4534 24.6295 82.1908 25.0455 82.066C24.6295 81.9386 24.4398 81.676 24.4398 81.0494V79.596C24.4529 79.5051 24.4449 79.4123 24.4163 79.325C24.3877 79.2377 24.3392 79.1582 24.2748 79.0927C24.2103 79.0273 24.1316 78.9776 24.0447 78.9476C23.9579 78.9177 23.8653 78.9082 23.7741 78.92H23.6104V77.815H24.1304C25.2614 77.815 25.8412 78.3948 25.8412 79.4348V81.0754C25.8327 81.1311 25.8369 81.188 25.8536 81.2418C25.8704 81.2956 25.8991 81.3449 25.9377 81.386C25.9762 81.427 26.0236 81.4588 26.0763 81.4789C26.1289 81.4989 26.1854 81.5068 26.2416 81.5018L26.5458 81.52Z" fill="#E0E0E0"/>
<path d="M15.6074 29.2938C15.6074 27.5102 16.975 26.2362 18.8158 26.2362C19.2731 26.2158 19.7291 26.2987 20.15 26.4788C20.5709 26.6588 20.9458 26.9314 21.2468 27.2762L20.368 28.0848C20.1878 27.8661 19.9609 27.6905 19.704 27.5709C19.4472 27.4512 19.1668 27.3905 18.8834 27.3932C18.6291 27.3837 18.3755 27.4257 18.1378 27.5165C17.9001 27.6073 17.6831 27.7451 17.4999 27.9217C17.3167 28.0983 17.1709 28.31 17.0714 28.5442C16.9718 28.7783 16.9205 29.0302 16.9205 29.2847C16.9205 29.5391 16.9718 29.791 17.0714 30.0252C17.1709 30.2594 17.3167 30.4711 17.4999 30.6477C17.6831 30.8242 17.9001 30.962 18.1378 31.0529C18.3755 31.1437 18.6291 31.1856 18.8834 31.1762C19.1679 31.1793 19.4494 31.1177 19.7066 30.9961C19.9638 30.8745 20.1899 30.696 20.368 30.4742L21.2468 31.2854C20.947 31.6348 20.5717 31.9115 20.1491 32.0944C19.7266 32.2773 19.268 32.3616 18.808 32.341C16.975 32.3488 15.6074 31.08 15.6074 29.2938Z" fill="#E0E0E0"/>
<path d="M25.9604 29.8086H24.4914V31.2438H23.402V29.8086H21.9434V28.7686H23.402V27.3308H24.4914V28.7686H25.9604V29.8086Z" fill="#E0E0E0"/>
<path d="M31.0801 29.8086H29.6112V31.2438H28.5217V29.8086H27.0605V28.7686H28.5217V27.3308H29.6112V28.7686H31.0801V29.8086Z" fill="#E0E0E0"/>
<path d="M37.3354 59.0638L38.1882 58.0394C38.5496 58.523 38.95 58.77 39.4232 58.77C40.042 58.77 40.3645 58.3982 40.3645 57.6676V54.506H38.0245V53.271H41.8907V57.5818C41.8907 59.225 41.0638 60.0336 39.496 60.0336C39.0856 60.049 38.6771 59.9695 38.3024 59.8013C37.9276 59.6331 37.5967 59.3807 37.3354 59.0638Z" fill="#E0E0E0"/>
<path d="M42.8164 59.4434L43.3 58.38C43.8373 58.7 44.4504 58.8706 45.0758 58.874C45.7596 58.874 46.017 58.6946 46.017 58.4086C46.017 57.574 42.9308 58.4268 42.9308 56.3858C42.9308 55.416 43.8044 54.7322 45.2942 54.7322C45.9769 54.719 46.6525 54.8725 47.2624 55.1794L46.7684 56.235C46.3191 55.9802 45.8107 55.8484 45.2942 55.8528C44.6312 55.8528 44.3452 56.0634 44.3452 56.3286C44.3452 57.2022 47.4314 56.3572 47.4314 58.3696C47.4314 59.3212 46.55 59.9946 45.0186 59.9946C44.2488 60.0077 43.4892 59.8175 42.8164 59.4434Z" fill="#E0E0E0"/>
<path d="M54.9998 101.166C82.8412 101.166 105.411 99.8479 105.411 98.2224C105.411 96.5969 82.8412 95.2792 54.9998 95.2792C27.1583 95.2792 4.58838 96.5969 4.58838 98.2224C4.58838 99.8479 27.1583 101.166 54.9998 101.166Z" fill="#F5F5F5"/>
<path d="M74.742 14.1826H66.9862C66.6602 14.1826 66.396 14.4469 66.396 14.7728V22.5286C66.396 22.8546 66.6602 23.1188 66.9862 23.1188H74.742C75.068 23.1188 75.3322 22.8546 75.3322 22.5286V14.7728C75.3322 14.4469 75.068 14.1826 74.742 14.1826Z" fill="#407BFF"/>
<g opacity="0.4">
<path d="M74.742 14.1826H66.9862C66.6602 14.1826 66.396 14.4469 66.396 14.7728V22.5286C66.396 22.8546 66.6602 23.1188 66.9862 23.1188H74.742C75.068 23.1188 75.3322 22.8546 75.3322 22.5286V14.7728C75.3322 14.4469 75.068 14.1826 74.742 14.1826Z" fill="white"/>
</g>
<path d="M69.6639 18.1788L68.1039 18.7482L69.6639 19.3124V19.9L67.4487 19.055V18.4518L69.6639 17.6068V18.1788Z" fill="white"/>
<path d="M71.3331 16.4576H71.9805L70.4414 20.8438H69.7939L71.3331 16.4576Z" fill="white"/>
<path d="M74.2792 18.4466V19.0498L72.064 19.9V19.3176L73.624 18.7534L72.064 18.184V17.6068L74.2792 18.4466Z" fill="white"/>
<path d="M68.3642 24.7516V26.92H67.8624V26.0282H66.8744V26.92H66.3726V24.749H66.8744V25.62H67.8624V24.7646L68.3642 24.7516Z" fill="#263238"/>
<path d="M69.3316 25.1598H68.6348V24.7516H70.5276V25.1598H69.8334V26.92H69.3316V25.1598Z" fill="#263238"/>
<path d="M72.7763 26.92V25.62L72.1367 26.6938H71.9001L71.2631 25.6538V26.92H70.7925V24.749H71.2085L72.0197 26.0984L72.8205 24.749H73.2339V26.92H72.7763Z" fill="#263238"/>
<path d="M73.7642 24.7516H74.266V26.5118H75.3554V26.92H73.7642V24.7516Z" fill="#263238"/>
<g opacity="0.6">
<path d="M68.3642 24.7516V26.92H67.8624V26.0282H66.8744V26.92H66.3726V24.749H66.8744V25.62H67.8624V24.7646L68.3642 24.7516Z" fill="white"/>
<path d="M69.3316 25.1598H68.6348V24.7516H70.5276V25.1598H69.8334V26.92H69.3316V25.1598Z" fill="white"/>
<path d="M72.7763 26.92V25.62L72.1367 26.6938H71.9001L71.2631 25.6538V26.92H70.7925V24.749H71.2085L72.0197 26.0984L72.8205 24.749H73.2339V26.92H72.7763Z" fill="white"/>
<path d="M73.7642 24.7516H74.266V26.5118H75.3554V26.92H73.7642V24.7516Z" fill="white"/>
</g>
<path d="M93.8548 18.9458H86.099C85.773 18.9458 85.5088 19.21 85.5088 19.536V27.2918C85.5088 27.6178 85.773 27.882 86.099 27.882H93.8548C94.1807 27.882 94.445 27.6178 94.445 27.2918V19.536C94.445 19.21 94.1807 18.9458 93.8548 18.9458Z" fill="#407BFF"/>
<g opacity="0.4">
<path d="M93.8548 18.9458H86.099C85.773 18.9458 85.5088 19.21 85.5088 19.536V27.2918C85.5088 27.6178 85.773 27.882 86.099 27.882H93.8548C94.1807 27.882 94.445 27.6178 94.445 27.2918V19.536C94.445 19.21 94.1807 18.9458 93.8548 18.9458Z" fill="white"/>
</g>
<path d="M88.5118 23.4126C88.725 23.4776 88.8238 23.6128 88.8238 23.9326V24.6788C88.8179 24.725 88.8227 24.772 88.8377 24.8161C88.8527 24.8603 88.8776 24.9004 88.9104 24.9335C88.9432 24.9665 88.9832 24.9917 89.0272 25.0071C89.0712 25.0224 89.1181 25.0275 89.1644 25.022H89.2476V25.5914H88.9876C88.4052 25.5914 88.1088 25.2924 88.1088 24.7568V23.9144C88.1128 23.8859 88.1103 23.8569 88.1016 23.8295C88.0929 23.8021 88.0781 23.777 88.0584 23.756C88.0387 23.7351 88.0145 23.7188 87.9877 23.7084C87.9609 23.698 87.9321 23.6938 87.9034 23.696H87.75V23.1266H87.9034C87.9321 23.1288 87.9609 23.1246 87.9877 23.1142C88.0145 23.1038 88.0387 23.0875 88.0584 23.0666C88.0781 23.0456 88.0929 23.0205 88.1016 22.9931C88.1103 22.9657 88.1128 22.9367 88.1088 22.9082V22.0658C88.1088 21.5302 88.4052 21.2312 88.9876 21.2312H89.2476V21.8006H89.1644C89.1181 21.7951 89.0712 21.8002 89.0272 21.8156C88.9832 21.8309 88.9432 21.8561 88.9104 21.8891C88.8776 21.9222 88.8527 21.9623 88.8377 22.0065C88.8227 22.0506 88.8179 22.0976 88.8238 22.1438V22.89C88.8238 23.2124 88.725 23.3476 88.5118 23.4126Z" fill="white"/>
<path d="M92.2139 23.1292V23.6986H92.0605C92.0318 23.6964 92.003 23.7006 91.9762 23.711C91.9494 23.7214 91.9252 23.7377 91.9055 23.7586C91.8858 23.7796 91.871 23.8047 91.8623 23.8321C91.8536 23.8595 91.8511 23.8885 91.8551 23.917V24.7594C91.8551 25.295 91.5561 25.594 90.9763 25.594H90.7163V25.0246H90.7995C90.8458 25.0301 90.8927 25.025 90.9367 25.0097C90.9807 24.9943 91.0207 24.9692 91.0535 24.9361C91.0863 24.903 91.1112 24.8629 91.1262 24.8187C91.1412 24.7746 91.146 24.7277 91.1401 24.6814V23.9352C91.1401 23.6128 91.2363 23.4776 91.4521 23.4152C91.2363 23.3502 91.1401 23.215 91.1401 22.8952V22.149C91.146 22.1028 91.1412 22.0558 91.1262 22.0117C91.1112 21.9676 91.0863 21.9274 91.0535 21.8944C91.0207 21.8613 90.9807 21.8361 90.9367 21.8208C90.8927 21.8054 90.8458 21.8003 90.7995 21.8058H90.7163V21.2364H90.9763C91.5561 21.2364 91.8551 21.5354 91.8551 22.071V22.9134C91.8511 22.9419 91.8536 22.9709 91.8623 22.9983C91.871 23.0257 91.8858 23.0509 91.9055 23.0718C91.9252 23.0928 91.9494 23.109 91.9762 23.1194C92.003 23.1298 92.0318 23.134 92.0605 23.1318L92.2139 23.1292Z" fill="white"/>
<path d="M86.98 30.6328C86.9928 30.3972 87.0751 30.1707 87.2164 29.9818C87.3577 29.7928 87.5517 29.6499 87.7741 29.571C87.9964 29.492 88.2371 29.4806 88.466 29.5382C88.6948 29.5957 88.9014 29.7197 89.06 29.8944L88.7376 30.1934C88.672 30.1118 88.5888 30.0461 88.4943 30.0011C88.3997 29.9561 88.2963 29.933 88.1916 29.9334C88.0967 29.9276 88.0016 29.9413 87.9121 29.9736C87.8227 30.006 87.7409 30.0562 87.6716 30.1214C87.6023 30.1865 87.5471 30.2652 87.5094 30.3525C87.4717 30.4398 87.4522 30.5338 87.4522 30.6289C87.4522 30.724 87.4717 30.8181 87.5094 30.9054C87.5471 30.9927 87.6023 31.0713 87.6716 31.1365C87.7409 31.2016 87.8227 31.2519 87.9121 31.2842C88.0016 31.3165 88.0967 31.3302 88.1916 31.3244C88.2962 31.3247 88.3996 31.3015 88.4941 31.2565C88.5886 31.2115 88.6718 31.1459 88.7376 31.0644L89.06 31.3608C88.9022 31.5367 88.6957 31.6617 88.4667 31.7201C88.2377 31.7785 87.9966 31.7676 87.7738 31.6888C87.551 31.61 87.3567 31.4668 87.2154 31.2775C87.074 31.0881 86.9921 30.861 86.98 30.625V30.6328Z" fill="#263238"/>
<path d="M89.1953 31.5064L89.3643 31.1268C89.576 31.2713 89.8256 31.35 90.0819 31.353C90.3783 31.353 90.5005 31.2542 90.5005 31.1216C90.5005 30.7134 89.2369 30.9942 89.2369 30.1882C89.2369 29.819 89.5359 29.5096 90.1521 29.5096C90.4161 29.5052 90.6765 29.5716 90.9061 29.702L90.7527 30.0842C90.5695 29.977 90.3618 29.9188 90.1495 29.9152C89.8531 29.9152 89.7361 30.0244 89.7361 30.1622C89.7361 30.5626 90.9997 30.287 90.9997 31.0826C90.9997 31.4466 90.6981 31.756 90.0793 31.756C89.7663 31.7634 89.4583 31.6764 89.1953 31.5064Z" fill="#263238"/>
<path d="M91.1738 31.5064L91.3454 31.1268C91.5565 31.2724 91.8066 31.3512 92.063 31.353C92.3594 31.353 92.4816 31.2542 92.4816 31.1216C92.4816 30.7134 91.218 30.9942 91.218 30.1882C91.218 29.819 91.517 29.5096 92.1332 29.5096C92.3972 29.5056 92.6575 29.572 92.8872 29.702L92.7312 30.0842C92.5491 29.9767 92.3421 29.9185 92.1306 29.9152C91.8316 29.9152 91.7172 30.0244 91.7172 30.1622C91.7172 30.5626 92.9808 30.287 92.9808 31.0826C92.9808 31.4466 92.6792 31.756 92.0578 31.756C91.7448 31.7634 91.4368 31.6764 91.1738 31.5064Z" fill="#263238"/>
<g opacity="0.6">
<path d="M86.98 30.6328C86.9928 30.3972 87.0751 30.1707 87.2164 29.9818C87.3577 29.7928 87.5517 29.6499 87.7741 29.571C87.9964 29.492 88.2371 29.4806 88.466 29.5382C88.6948 29.5957 88.9014 29.7197 89.06 29.8944L88.7376 30.1934C88.672 30.1118 88.5888 30.0461 88.4943 30.0011C88.3997 29.9561 88.2963 29.933 88.1916 29.9334C88.0967 29.9276 88.0016 29.9413 87.9121 29.9736C87.8227 30.006 87.7409 30.0562 87.6716 30.1214C87.6023 30.1865 87.5471 30.2652 87.5094 30.3525C87.4717 30.4398 87.4522 30.5338 87.4522 30.6289C87.4522 30.724 87.4717 30.8181 87.5094 30.9054C87.5471 30.9927 87.6023 31.0713 87.6716 31.1365C87.7409 31.2016 87.8227 31.2519 87.9121 31.2842C88.0016 31.3165 88.0967 31.3302 88.1916 31.3244C88.2962 31.3247 88.3996 31.3015 88.4941 31.2565C88.5886 31.2115 88.6718 31.1459 88.7376 31.0644L89.06 31.3608C88.9022 31.5367 88.6957 31.6617 88.4667 31.7201C88.2377 31.7785 87.9966 31.7676 87.7738 31.6888C87.551 31.61 87.3567 31.4668 87.2154 31.2775C87.074 31.0881 86.9921 30.861 86.98 30.625V30.6328Z" fill="white"/>
<path d="M89.1953 31.5064L89.3643 31.1268C89.576 31.2713 89.8256 31.35 90.0819 31.353C90.3783 31.353 90.5005 31.2542 90.5005 31.1216C90.5005 30.7134 89.2369 30.9942 89.2369 30.1882C89.2369 29.819 89.5359 29.5096 90.1521 29.5096C90.4161 29.5052 90.6765 29.5716 90.9061 29.702L90.7527 30.0842C90.5695 29.977 90.3618 29.9188 90.1495 29.9152C89.8531 29.9152 89.7361 30.0244 89.7361 30.1622C89.7361 30.5626 90.9997 30.287 90.9997 31.0826C90.9997 31.4466 90.6981 31.756 90.0793 31.756C89.7663 31.7634 89.4583 31.6765 89.1953 31.5064Z" fill="white"/>
<path d="M91.1738 31.5064L91.3454 31.1268C91.5565 31.2725 91.8066 31.3513 92.063 31.353C92.3594 31.353 92.4816 31.2542 92.4816 31.1216C92.4816 30.7134 91.218 30.9942 91.218 30.1882C91.218 29.819 91.517 29.5096 92.1332 29.5096C92.3972 29.5056 92.6575 29.572 92.8872 29.702L92.7312 30.0842C92.5491 29.9768 92.3421 29.9185 92.1306 29.9152C91.8316 29.9152 91.7172 30.0244 91.7172 30.1622C91.7172 30.5626 92.9808 30.287 92.9808 31.0826C92.9808 31.4466 92.6792 31.756 92.0578 31.756C91.7448 31.7634 91.4368 31.6765 91.1738 31.5064Z" fill="white"/>
</g>
<path d="M60.4756 18.0748H28.623V41.1316H60.4756V18.0748Z" fill="black"/>
<path opacity="0.9" d="M60.4756 18.0748H28.623V41.1316H60.4756V18.0748Z" fill="white"/>
<path opacity="0.1" d="M33.0586 18.0748H28.623V41.1316H33.0586V18.0748Z" fill="black"/>
<path d="M60.4756 18.0748H28.623V20.2302H60.4756V18.0748Z" fill="#407BFF"/>
<g opacity="0.2">
<path d="M41.4044 23.4828H35.6037C35.5348 23.4828 35.4687 23.4554 35.4199 23.4066C35.3711 23.3579 35.3438 23.2918 35.3438 23.2228C35.3438 23.1538 35.3711 23.0877 35.4199 23.039C35.4687 22.9902 35.5348 22.9628 35.6037 22.9628H41.4044C41.4733 22.9628 41.5394 22.9902 41.5882 23.039C41.637 23.0877 41.6644 23.1538 41.6644 23.2228C41.6644 23.2918 41.637 23.3579 41.5882 23.4066C41.5394 23.4554 41.4733 23.4828 41.4044 23.4828Z" fill="black"/>
<path d="M54.22 23.4828H42.949C42.88 23.4828 42.8139 23.4554 42.7651 23.4066C42.7164 23.3579 42.689 23.2918 42.689 23.2228C42.689 23.1538 42.7164 23.0877 42.7651 23.039C42.8139 22.9902 42.88 22.9628 42.949 22.9628H54.22C54.2889 22.9628 54.3551 22.9902 54.4038 23.039C54.4526 23.0877 54.48 23.1538 54.48 23.2228C54.48 23.2918 54.4526 23.3579 54.4038 23.4066C54.3551 23.4554 54.2889 23.4828 54.22 23.4828Z" fill="black"/>
<path d="M51.5368 25.1806H36.384C36.3151 25.1806 36.2489 25.1532 36.2002 25.1044C36.1514 25.0557 36.124 24.9895 36.124 24.9206C36.124 24.8516 36.1514 24.7855 36.2002 24.7367C36.2489 24.688 36.3151 24.6606 36.384 24.6606H51.5368C51.6058 24.6606 51.6719 24.688 51.7207 24.7367C51.7694 24.7855 51.7968 24.8516 51.7968 24.9206C51.7968 24.9895 51.7694 25.0557 51.7207 25.1044C51.6719 25.1532 51.6058 25.1806 51.5368 25.1806Z" fill="black"/>
<path d="M45.3642 26.8758H35.6037C35.5348 26.8758 35.4687 26.8484 35.4199 26.7997C35.3711 26.7509 35.3438 26.6848 35.3438 26.6158C35.3438 26.5468 35.3711 26.4807 35.4199 26.432C35.4687 26.3832 35.5348 26.3558 35.6037 26.3558H45.3642C45.4331 26.3558 45.4992 26.3832 45.548 26.432C45.5968 26.4807 45.6242 26.5468 45.6242 26.6158C45.6242 26.6848 45.5968 26.7509 45.548 26.7997C45.4992 26.8484 45.4331 26.8758 45.3642 26.8758Z" fill="black"/>
<path d="M54.2198 26.8758H47.2258C47.1569 26.8758 47.0907 26.8484 47.042 26.7997C46.9932 26.7509 46.9658 26.6848 46.9658 26.6158C46.9658 26.5468 46.9932 26.4807 47.042 26.432C47.0907 26.3832 47.1569 26.3558 47.2258 26.3558H54.2198C54.2888 26.3558 54.3549 26.3832 54.4037 26.432C54.4524 26.4807 54.4798 26.5468 54.4798 26.6158C54.4798 26.6848 54.4524 26.7509 54.4037 26.7997C54.3549 26.8484 54.2888 26.8758 54.2198 26.8758Z" fill="black"/>
<path d="M40.9936 28.5736H35.6038C35.5348 28.5736 35.4687 28.5462 35.4199 28.4974C35.3711 28.4487 35.3438 28.3825 35.3438 28.3136C35.3438 28.2446 35.3711 28.1785 35.4199 28.1297C35.4687 28.081 35.5348 28.0536 35.6038 28.0536H40.9936C41.0625 28.0536 41.1286 28.081 41.1774 28.1297C41.2262 28.1785 41.2536 28.2446 41.2536 28.3136C41.2536 28.3825 41.2262 28.4487 41.1774 28.4974C41.1286 28.5462 41.0625 28.5736 40.9936 28.5736Z" fill="black"/>
<path d="M51.2274 28.5736H42.741C42.672 28.5736 42.6059 28.5462 42.5571 28.4974C42.5083 28.4487 42.481 28.3825 42.481 28.3136C42.481 28.2446 42.5083 28.1785 42.5571 28.1297C42.6059 28.081 42.672 28.0536 42.741 28.0536H51.2274C51.2963 28.0536 51.3624 28.081 51.4112 28.1297C51.46 28.1785 51.4874 28.2446 51.4874 28.3136C51.4874 28.3825 51.46 28.4487 51.4112 28.4974C51.3624 28.5462 51.2963 28.5736 51.2274 28.5736Z" fill="black"/>
<path d="M43.6354 30.2714H36.384C36.3151 30.2714 36.2489 30.244 36.2002 30.1953C36.1514 30.1465 36.124 30.0804 36.124 30.0114C36.124 29.9424 36.1514 29.8763 36.2002 29.8276C36.2489 29.7788 36.3151 29.7514 36.384 29.7514H43.6354C43.7044 29.7514 43.7705 29.7788 43.8193 29.8276C43.868 29.8763 43.8954 29.9424 43.8954 30.0114C43.8954 30.0804 43.868 30.1465 43.8193 30.1953C43.7705 30.244 43.7044 30.2714 43.6354 30.2714Z" fill="black"/>
<path d="M44.5428 31.9692H36.384C36.3151 31.9692 36.2489 31.9418 36.2002 31.893C36.1514 31.8443 36.124 31.7781 36.124 31.7092C36.124 31.6402 36.1514 31.5741 36.2002 31.5253C36.2489 31.4766 36.3151 31.4492 36.384 31.4492H44.5428C44.6118 31.4492 44.6779 31.4766 44.7267 31.5253C44.7754 31.5741 44.8028 31.6402 44.8028 31.7092C44.8028 31.7781 44.7754 31.8443 44.7267 31.893C44.6779 31.9418 44.6118 31.9692 44.5428 31.9692Z" fill="black"/>
<path d="M54.2201 31.9692H45.9001C45.8312 31.9692 45.765 31.9418 45.7163 31.893C45.6675 31.8443 45.6401 31.7781 45.6401 31.7092C45.6401 31.6402 45.6675 31.5741 45.7163 31.5253C45.765 31.4766 45.8312 31.4492 45.9001 31.4492H54.2201C54.2891 31.4492 54.3552 31.4766 54.404 31.5253C54.4527 31.5741 54.4801 31.6402 54.4801 31.7092C54.4801 31.7781 54.4527 31.8443 54.404 31.893C54.3552 31.9418 54.2891 31.9692 54.2201 31.9692Z" fill="black"/>
<path d="M40.2735 33.6644H35.5935C35.5245 33.6644 35.4584 33.637 35.4096 33.5883C35.3609 33.5395 35.3335 33.4734 35.3335 33.4044C35.3335 33.3355 35.3609 33.2693 35.4096 33.2206C35.4584 33.1718 35.5245 33.1444 35.5935 33.1444H40.2735C40.3425 33.1444 40.4086 33.1718 40.4573 33.2206C40.5061 33.2693 40.5335 33.3355 40.5335 33.4044C40.5335 33.4734 40.5061 33.5395 40.4573 33.5883C40.4086 33.637 40.3425 33.6644 40.2735 33.6644Z" fill="black"/>
<path d="M54.22 33.6644H41.8674C41.7985 33.6644 41.7323 33.637 41.6836 33.5883C41.6348 33.5395 41.6074 33.4734 41.6074 33.4044C41.6074 33.3355 41.6348 33.2693 41.6836 33.2206C41.7323 33.1718 41.7985 33.1444 41.8674 33.1444H54.22C54.289 33.1444 54.3551 33.1718 54.4039 33.2206C54.4526 33.2693 54.48 33.3355 54.48 33.4044C54.48 33.4734 54.4526 33.5395 54.4039 33.5883C54.3551 33.637 54.289 33.6644 54.22 33.6644Z" fill="black"/>
<path d="M44.4908 35.3622H36.384C36.3151 35.3622 36.2489 35.3348 36.2002 35.286C36.1514 35.2373 36.124 35.1711 36.124 35.1022C36.124 35.0332 36.1514 34.9671 36.2002 34.9183C36.2489 34.8696 36.3151 34.8422 36.384 34.8422H44.4908C44.5598 34.8422 44.6259 34.8696 44.6747 34.9183C44.7234 34.9671 44.7508 35.0332 44.7508 35.1022C44.7508 35.1711 44.7234 35.2373 44.6747 35.286C44.6259 35.3348 44.5598 35.3622 44.4908 35.3622Z" fill="black"/>
<path d="M50.8686 35.3622H45.6218C45.5529 35.3622 45.4867 35.3348 45.438 35.286C45.3892 35.2373 45.3618 35.1711 45.3618 35.1022C45.3618 35.0332 45.3892 34.9671 45.438 34.9183C45.4867 34.8696 45.5529 34.8422 45.6218 34.8422H50.8686C50.9376 34.8422 51.0037 34.8696 51.0525 34.9183C51.1012 34.9671 51.1286 35.0332 51.1286 35.1022C51.1286 35.1711 51.1012 35.2373 51.0525 35.286C51.0037 35.3348 50.9376 35.3622 50.8686 35.3622Z" fill="black"/>
<path d="M45.7154 37.06H36.384C36.3151 37.06 36.2489 37.0326 36.2002 36.9839C36.1514 36.9351 36.124 36.869 36.124 36.8C36.124 36.7311 36.1514 36.6649 36.2002 36.6162C36.2489 36.5674 36.3151 36.54 36.384 36.54H45.7154C45.7844 36.54 45.8505 36.5674 45.8993 36.6162C45.948 36.6649 45.9754 36.7311 45.9754 36.8C45.9754 36.869 45.948 36.9351 45.8993 36.9839C45.8505 37.0326 45.7844 37.06 45.7154 37.06Z" fill="black"/>
</g>
<path opacity="0.4" d="M59.1053 19.6114C59.3508 19.6114 59.5498 19.4123 59.5498 19.1668C59.5498 18.9213 59.3508 18.7222 59.1053 18.7222C58.8597 18.7222 58.6606 18.9213 58.6606 19.1668C58.6606 19.4123 58.8597 19.6114 59.1053 19.6114Z" fill="white"/>
<path opacity="0.4" d="M57.5427 19.6114C57.7883 19.6114 57.9873 19.4123 57.9873 19.1668C57.9873 18.9213 57.7883 18.7222 57.5427 18.7222C57.2972 18.7222 57.0981 18.9213 57.0981 19.1668C57.0981 19.4123 57.2972 19.6114 57.5427 19.6114Z" fill="white"/>
<path opacity="0.4" d="M55.9827 19.6114C56.2282 19.6114 56.4273 19.4123 56.4273 19.1668C56.4273 18.9213 56.2282 18.7222 55.9827 18.7222C55.7371 18.7222 55.5381 18.9213 55.5381 19.1668C55.5381 19.4123 55.7371 19.6114 55.9827 19.6114Z" fill="white"/>
<g opacity="0.2">
<path d="M30.9187 23.4828C30.8497 23.4828 30.7836 23.4554 30.7348 23.4066C30.6861 23.3579 30.6587 23.2918 30.6587 23.2228C30.6587 23.1538 30.6861 23.0877 30.7348 23.039C30.7836 22.9902 30.8497 22.9628 30.9187 22.9628C30.9876 22.9628 31.0538 22.9902 31.1025 23.039C31.1513 23.0877 31.1787 23.1538 31.1787 23.2228C31.1787 23.2918 31.1513 23.3579 31.1025 23.4066C31.0538 23.4554 30.9876 23.4828 30.9187 23.4828Z" fill="black"/>
<path d="M30.9187 25.1806C30.8497 25.1806 30.7836 25.1532 30.7348 25.1044C30.6861 25.0557 30.6587 24.9895 30.6587 24.9206C30.6587 24.8516 30.6861 24.7855 30.7348 24.7367C30.7836 24.688 30.8497 24.6606 30.9187 24.6606C30.9876 24.6606 31.0538 24.688 31.1025 24.7367C31.1513 24.7855 31.1787 24.8516 31.1787 24.9206C31.1787 24.9895 31.1513 25.0557 31.1025 25.1044C31.0538 25.1532 30.9876 25.1806 30.9187 25.1806Z" fill="black"/>
<path d="M30.9187 26.8758C30.8497 26.8758 30.7836 26.8484 30.7348 26.7997C30.6861 26.7509 30.6587 26.6848 30.6587 26.6158C30.6587 26.5468 30.6861 26.4807 30.7348 26.432C30.7836 26.3832 30.8497 26.3558 30.9187 26.3558C30.9876 26.3558 31.0538 26.3832 31.1025 26.432C31.1513 26.4807 31.1787 26.5468 31.1787 26.6158C31.1787 26.6848 31.1513 26.7509 31.1025 26.7997C31.0538 26.8484 30.9876 26.8758 30.9187 26.8758Z" fill="black"/>
<path d="M30.9187 28.5736C30.8497 28.5736 30.7836 28.5462 30.7348 28.4974C30.6861 28.4487 30.6587 28.3825 30.6587 28.3136C30.6587 28.2446 30.6861 28.1785 30.7348 28.1297C30.7836 28.081 30.8497 28.0536 30.9187 28.0536C30.9876 28.0536 31.0538 28.081 31.1025 28.1297C31.1513 28.1785 31.1787 28.2446 31.1787 28.3136C31.1787 28.3825 31.1513 28.4487 31.1025 28.4974C31.0538 28.5462 30.9876 28.5736 30.9187 28.5736Z" fill="black"/>
<path d="M30.9187 30.2714C30.8497 30.2714 30.7836 30.244 30.7348 30.1953C30.6861 30.1465 30.6587 30.0804 30.6587 30.0114C30.6587 29.9424 30.6861 29.8763 30.7348 29.8276C30.7836 29.7788 30.8497 29.7514 30.9187 29.7514C30.9876 29.7514 31.0538 29.7788 31.1025 29.8276C31.1513 29.8763 31.1787 29.9424 31.1787 30.0114C31.1787 30.0804 31.1513 30.1465 31.1025 30.1953C31.0538 30.244 30.9876 30.2714 30.9187 30.2714Z" fill="black"/>
<path d="M30.9187 31.9692C30.8497 31.9692 30.7836 31.9418 30.7348 31.893C30.6861 31.8443 30.6587 31.7781 30.6587 31.7092C30.6587 31.6402 30.6861 31.5741 30.7348 31.5253C30.7836 31.4766 30.8497 31.4492 30.9187 31.4492C30.9876 31.4492 31.0538 31.4766 31.1025 31.5253C31.1513 31.5741 31.1787 31.6402 31.1787 31.7092C31.1787 31.7781 31.1513 31.8443 31.1025 31.893C31.0538 31.9418 30.9876 31.9692 30.9187 31.9692Z" fill="black"/>
<path d="M30.9187 33.6644C30.8497 33.6644 30.7836 33.637 30.7348 33.5883C30.6861 33.5395 30.6587 33.4734 30.6587 33.4044C30.6587 33.3355 30.6861 33.2693 30.7348 33.2206C30.7836 33.1718 30.8497 33.1444 30.9187 33.1444C30.9876 33.1444 31.0538 33.1718 31.1025 33.2206C31.1513 33.2693 31.1787 33.3355 31.1787 33.4044C31.1787 33.4734 31.1513 33.5395 31.1025 33.5883C31.0538 33.637 30.9876 33.6644 30.9187 33.6644Z" fill="black"/>
<path d="M30.9187 35.3622C30.8497 35.3622 30.7836 35.3348 30.7348 35.286C30.6861 35.2373 30.6587 35.1711 30.6587 35.1022C30.6587 35.0332 30.6861 34.9671 30.7348 34.9183C30.7836 34.8696 30.8497 34.8422 30.9187 34.8422C30.9876 34.8422 31.0538 34.8696 31.1025 34.9183C31.1513 34.9671 31.1787 35.0332 31.1787 35.1022C31.1787 35.1711 31.1513 35.2373 31.1025 35.286C31.0538 35.3348 30.9876 35.3622 30.9187 35.3622Z" fill="black"/>
<path d="M30.9187 37.06C30.8497 37.06 30.7836 37.0326 30.7348 36.9839C30.6861 36.9351 30.6587 36.869 30.6587 36.8C30.6587 36.7311 30.6861 36.6649 30.7348 36.6162C30.7836 36.5674 30.8497 36.54 30.9187 36.54C30.9876 36.54 31.0538 36.5674 31.1025 36.6162C31.1513 36.6649 31.1787 36.7311 31.1787 36.8C31.1787 36.869 31.1513 36.9351 31.1025 36.9839C31.0538 37.0326 30.9876 37.06 30.9187 37.06Z" fill="black"/>
</g>
<path d="M89.3252 36.8884H47.5874V63.6138H89.3252V36.8884Z" fill="#263238"/>
<path opacity="0.9" d="M89.3252 36.8884H47.5874V63.6138H89.3252V36.8884Z" fill="white"/>
<path opacity="0.1" d="M54.0978 36.8884H47.5874V63.6138H54.0978V36.8884Z" fill="black"/>
<path d="M89.3252 36.8884H47.5874V39.0438H89.3252V36.8884Z" fill="#407BFF"/>
<path d="M50.5359 41.4072L49.8443 41.6672L50.5359 41.9272V42.1872L49.5479 41.8102V41.5502L50.5359 41.1758V41.4072Z" fill="white"/>
<path d="M51.2821 40.6376H51.5707L50.8843 42.5954H50.5957L51.2821 40.6376Z" fill="white"/>
<path d="M52.5979 41.5242V41.7842L51.6099 42.1612V41.9012L52.3015 41.6412L51.6099 41.3812V41.1212L52.5979 41.5242Z" fill="white"/>
<g opacity="0.2">
<path d="M52.4521 44.379H49.6233C49.5543 44.379 49.4882 44.3516 49.4394 44.3029C49.3907 44.2541 49.3633 44.188 49.3633 44.119C49.3633 44.0501 49.3907 43.9839 49.4394 43.9352C49.4882 43.8864 49.5543 43.859 49.6233 43.859H52.4521C52.521 43.859 52.5872 43.8864 52.6359 43.9352C52.6847 43.9839 52.7121 44.0501 52.7121 44.119C52.7121 44.188 52.6847 44.2541 52.6359 44.3029C52.5872 44.3516 52.521 44.379 52.4521 44.379Z" fill="black"/>
<path d="M52.4521 46.0742H49.6233C49.5543 46.0742 49.4882 46.0468 49.4394 45.998C49.3907 45.9493 49.3633 45.8832 49.3633 45.8142C49.3633 45.7452 49.3907 45.6791 49.4394 45.6304C49.4882 45.5816 49.5543 45.5542 49.6233 45.5542H52.4521C52.521 45.5542 52.5872 45.5816 52.6359 45.6304C52.6847 45.6791 52.7121 45.7452 52.7121 45.8142C52.7121 45.8832 52.6847 45.9493 52.6359 45.998C52.5872 46.0468 52.521 46.0742 52.4521 46.0742Z" fill="black"/>
<path d="M52.4521 47.772H49.6233C49.5543 47.772 49.4882 47.7446 49.4394 47.6959C49.3907 47.6471 49.3633 47.581 49.3633 47.512C49.3633 47.4431 49.3907 47.3769 49.4394 47.3282C49.4882 47.2794 49.5543 47.252 49.6233 47.252H52.4521C52.521 47.252 52.5872 47.2794 52.6359 47.3282C52.6847 47.3769 52.7121 47.4431 52.7121 47.512C52.7121 47.581 52.6847 47.6471 52.6359 47.6959C52.5872 47.7446 52.521 47.772 52.4521 47.772Z" fill="black"/>
<path d="M52.4521 49.4698H49.6233C49.5543 49.4698 49.4882 49.4424 49.4394 49.3936C49.3907 49.3449 49.3633 49.2788 49.3633 49.2098C49.3633 49.1408 49.3907 49.0747 49.4394 49.026C49.4882 48.9772 49.5543 48.9498 49.6233 48.9498H52.4521C52.521 48.9498 52.5872 48.9772 52.6359 49.026C52.6847 49.0747 52.7121 49.1408 52.7121 49.2098C52.7121 49.2788 52.6847 49.3449 52.6359 49.3936C52.5872 49.4424 52.521 49.4698 52.4521 49.4698Z" fill="black"/>
<path d="M52.4521 51.1676H49.6233C49.5543 51.1676 49.4882 51.1402 49.4394 51.0915C49.3907 51.0427 49.3633 50.9766 49.3633 50.9076C49.3633 50.8387 49.3907 50.7725 49.4394 50.7238C49.4882 50.675 49.5543 50.6476 49.6233 50.6476H52.4521C52.521 50.6476 52.5872 50.675 52.6359 50.7238C52.6847 50.7725 52.7121 50.8387 52.7121 50.9076C52.7121 50.9766 52.6847 51.0427 52.6359 51.0915C52.5872 51.1402 52.521 51.1676 52.4521 51.1676Z" fill="black"/>
<path d="M52.4521 52.8628H49.6233C49.5543 52.8628 49.4882 52.8354 49.4394 52.7867C49.3907 52.7379 49.3633 52.6718 49.3633 52.6028C49.3633 52.5338 49.3907 52.4677 49.4394 52.419C49.4882 52.3702 49.5543 52.3428 49.6233 52.3428H52.4521C52.521 52.3428 52.5872 52.3702 52.6359 52.419C52.6847 52.4677 52.7121 52.5338 52.7121 52.6028C52.7121 52.6718 52.6847 52.7379 52.6359 52.7867C52.5872 52.8354 52.521 52.8628 52.4521 52.8628Z" fill="black"/>
<path d="M52.4521 54.5606H49.6233C49.5543 54.5606 49.4882 54.5332 49.4394 54.4845C49.3907 54.4357 49.3633 54.3696 49.3633 54.3006C49.3633 54.2317 49.3907 54.1655 49.4394 54.1168C49.4882 54.068 49.5543 54.0406 49.6233 54.0406H52.4521C52.521 54.0406 52.5872 54.068 52.6359 54.1168C52.6847 54.1655 52.7121 54.2317 52.7121 54.3006C52.7121 54.3696 52.6847 54.4357 52.6359 54.4845C52.5872 54.5332 52.521 54.5606 52.4521 54.5606Z" fill="black"/>
<path d="M52.4521 56.2584H49.6233C49.5543 56.2584 49.4882 56.231 49.4394 56.1823C49.3907 56.1335 49.3633 56.0674 49.3633 55.9984C49.3633 55.9294 49.3907 55.8633 49.4394 55.8146C49.4882 55.7658 49.5543 55.7384 49.6233 55.7384H52.4521C52.521 55.7384 52.5872 55.7658 52.6359 55.8146C52.6847 55.8633 52.7121 55.9294 52.7121 55.9984C52.7121 56.0674 52.6847 56.1335 52.6359 56.1823C52.5872 56.231 52.521 56.2584 52.4521 56.2584Z" fill="black"/>
<path d="M52.4521 57.9562H49.6233C49.5543 57.9562 49.4882 57.9288 49.4394 57.8801C49.3907 57.8313 49.3633 57.7652 49.3633 57.6962C49.3633 57.6273 49.3907 57.5611 49.4394 57.5124C49.4882 57.4636 49.5543 57.4362 49.6233 57.4362H52.4521C52.521 57.4362 52.5872 57.4636 52.6359 57.5124C52.6847 57.5611 52.7121 57.6273 52.7121 57.6962C52.7121 57.7652 52.6847 57.8313 52.6359 57.8801C52.5872 57.9288 52.521 57.9562 52.4521 57.9562Z" fill="black"/>
</g>
<path d="M60.629 44.379H54.8284C54.7594 44.379 54.6933 44.3516 54.6445 44.3029C54.5958 44.2541 54.5684 44.188 54.5684 44.119C54.5684 44.0501 54.5958 43.9839 54.6445 43.9352C54.6933 43.8864 54.7594 43.859 54.8284 43.859H60.629C60.6979 43.859 60.7641 43.8864 60.8128 43.9352C60.8616 43.9839 60.889 44.0501 60.889 44.119C60.889 44.188 60.8616 44.2541 60.8128 44.3029C60.7641 44.3516 60.6979 44.379 60.629 44.379Z" fill="#407BFF"/>
<path d="M77.2926 44.379H62.1736C62.1046 44.379 62.0385 44.3516 61.9897 44.3029C61.941 44.2541 61.9136 44.188 61.9136 44.119C61.9136 44.0501 61.941 43.9839 61.9897 43.9352C62.0385 43.8864 62.1046 43.859 62.1736 43.859H77.2926C77.3615 43.859 77.4277 43.8864 77.4764 43.9352C77.5252 43.9839 77.5526 44.0501 77.5526 44.119C77.5526 44.188 77.5252 44.2541 77.4764 44.3029C77.4277 44.3516 77.3615 44.379 77.2926 44.379Z" fill="#263238"/>
<g opacity="0.2">
<path d="M84.1928 44.379H79.8118C79.7428 44.379 79.6767 44.3516 79.6279 44.3029C79.5792 44.2541 79.5518 44.188 79.5518 44.119C79.5518 44.0501 79.5792 43.9839 79.6279 43.9352C79.6767 43.8864 79.7428 43.859 79.8118 43.859H84.1928C84.2617 43.859 84.3279 43.8864 84.3766 43.9352C84.4254 43.9839 84.4528 44.0501 84.4528 44.119C84.4528 44.188 84.4254 44.2541 84.3766 44.3029C84.3279 44.3516 84.2617 44.379 84.1928 44.379Z" fill="#263238"/>
</g>
<g opacity="0.2">
<path d="M70.7614 46.0742H55.6086C55.5397 46.0742 55.4735 46.0468 55.4248 45.998C55.376 45.9493 55.3486 45.8832 55.3486 45.8142C55.3486 45.7452 55.376 45.6791 55.4248 45.6304C55.4735 45.5816 55.5397 45.5542 55.6086 45.5542H70.7614C70.8304 45.5542 70.8965 45.5816 70.9453 45.6304C70.994 45.6791 71.0214 45.7452 71.0214 45.8142C71.0214 45.8832 70.994 45.9493 70.9453 45.998C70.8965 46.0468 70.8304 46.0742 70.7614 46.0742Z" fill="#263238"/>
</g>
<path d="M86.2727 46.0742H72.1599C72.0909 46.0742 72.0248 46.0468 71.9761 45.998C71.9273 45.9493 71.8999 45.8832 71.8999 45.8142C71.8999 45.7452 71.9273 45.6791 71.9761 45.6304C72.0248 45.5816 72.0909 45.5542 72.1599 45.5542H86.2831C86.3521 45.5542 86.4182 45.5816 86.4669 45.6304C86.5157 45.6791 86.5431 45.7452 86.5431 45.8142C86.5431 45.8832 86.5157 45.9493 86.4669 45.998C86.4182 46.0468 86.3521 46.0742 86.2831 46.0742H86.2727Z" fill="#407BFF"/>
<path d="M64.589 47.772H55.6086C55.5397 47.772 55.4735 47.7446 55.4248 47.6958C55.376 47.6471 55.3486 47.5809 55.3486 47.512C55.3486 47.443 55.376 47.3769 55.4248 47.3281C55.4735 47.2794 55.5397 47.252 55.6086 47.252H64.589C64.658 47.252 64.7241 47.2794 64.7729 47.3281C64.8216 47.3769 64.849 47.443 64.849 47.512C64.849 47.5809 64.8216 47.6471 64.7729 47.6958C64.7241 47.7446 64.658 47.772 64.589 47.772Z" fill="#263238"/>
<path d="M75.2802 47.772H66.4402C66.3712 47.772 66.3051 47.7446 66.2563 47.6958C66.2076 47.6471 66.1802 47.5809 66.1802 47.512C66.1802 47.443 66.2076 47.3769 66.2563 47.3281C66.3051 47.2794 66.3712 47.252 66.4402 47.252H75.2802C75.3491 47.252 75.4153 47.2794 75.464 47.3281C75.5128 47.3769 75.5402 47.443 75.5402 47.512C75.5402 47.5809 75.5128 47.6471 75.464 47.6958C75.4153 47.7446 75.3491 47.772 75.2802 47.772Z" fill="#407BFF"/>
<path d="M86.273 47.772H76.7258C76.6569 47.772 76.5907 47.7446 76.542 47.6958C76.4932 47.6471 76.4658 47.5809 76.4658 47.512C76.4658 47.443 76.4932 47.3769 76.542 47.3281C76.5907 47.2794 76.6569 47.252 76.7258 47.252H86.273C86.342 47.252 86.4081 47.2794 86.4569 47.3281C86.5056 47.3769 86.533 47.443 86.533 47.512C86.533 47.5809 86.5056 47.6471 86.4569 47.6958C86.4081 47.7446 86.342 47.772 86.273 47.772Z" fill="#263238"/>
<path d="M65.4208 49.4698H60.031C59.962 49.4698 59.8959 49.4424 59.8471 49.3936C59.7984 49.3449 59.771 49.2788 59.771 49.2098C59.771 49.1408 59.7984 49.0747 59.8471 49.026C59.8959 48.9772 59.962 48.9498 60.031 48.9498H65.4208C65.4897 48.9498 65.5559 48.9772 65.6046 49.026C65.6534 49.0747 65.6808 49.1408 65.6808 49.2098C65.6808 49.2788 65.6534 49.3449 65.6046 49.3936C65.5559 49.4424 65.4897 49.4698 65.4208 49.4698Z" fill="#263238"/>
<path d="M73.0544 49.4698H67.1706C67.1017 49.4698 67.0356 49.4424 66.9868 49.3936C66.938 49.3449 66.9106 49.2788 66.9106 49.2098C66.9106 49.1408 66.938 49.0747 66.9868 49.026C67.0356 48.9772 67.1017 48.9498 67.1706 48.9498H73.0544C73.1234 48.9498 73.1895 48.9772 73.2383 49.026C73.287 49.0747 73.3144 49.1408 73.3144 49.2098C73.3144 49.2788 73.287 49.3449 73.2383 49.3936C73.1895 49.4424 73.1234 49.4698 73.0544 49.4698Z" fill="#263238"/>
<g opacity="0.2">
<path d="M83.9329 49.4698H74.3909C74.3219 49.4698 74.2558 49.4424 74.207 49.3936C74.1583 49.3449 74.1309 49.2788 74.1309 49.2098C74.1309 49.1408 74.1583 49.0747 74.207 49.026C74.2558 48.9772 74.3219 48.9498 74.3909 48.9498H83.9329C84.0018 48.9498 84.068 48.9772 84.1167 49.026C84.1655 49.0747 84.1929 49.1408 84.1929 49.2098C84.1929 49.2788 84.1655 49.3449 84.1167 49.3936C84.068 49.4424 84.0018 49.4698 83.9329 49.4698Z" fill="#263238"/>
</g>
<g opacity="0.2">
<path d="M62.86 51.1676H55.6086C55.5397 51.1676 55.4735 51.1402 55.4248 51.0914C55.376 51.0427 55.3486 50.9765 55.3486 50.9076C55.3486 50.8386 55.376 50.7725 55.4248 50.7237C55.4735 50.675 55.5397 50.6476 55.6086 50.6476H62.86C62.929 50.6476 62.9951 50.675 63.0439 50.7237C63.0926 50.7725 63.12 50.8386 63.12 50.9076C63.12 50.9765 63.0926 51.0427 63.0439 51.0914C62.9951 51.1402 62.929 51.1676 62.86 51.1676Z" fill="#263238"/>
</g>
<path d="M63.7674 52.8628H55.6086C55.5397 52.8628 55.4735 52.8354 55.4248 52.7867C55.376 52.7379 55.3486 52.6718 55.3486 52.6028C55.3486 52.5338 55.376 52.4677 55.4248 52.419C55.4735 52.3702 55.5397 52.3428 55.6086 52.3428H63.7674C63.8364 52.3428 63.9025 52.3702 63.9513 52.419C64 52.4677 64.0274 52.5338 64.0274 52.6028C64.0274 52.6718 64 52.7379 63.9513 52.7867C63.9025 52.8354 63.8364 52.8628 63.7674 52.8628Z" fill="#407BFF"/>
<path d="M77.3966 52.8628H65.1037C65.0348 52.8628 64.9687 52.8354 64.9199 52.7867C64.8711 52.7379 64.8438 52.6718 64.8438 52.6028C64.8438 52.5338 64.8711 52.4677 64.9199 52.419C64.9687 52.3702 65.0348 52.3428 65.1037 52.3428H77.3966C77.4655 52.3428 77.5316 52.3702 77.5804 52.419C77.6292 52.4677 77.6566 52.5338 77.6566 52.6028C77.6566 52.6718 77.6292 52.7379 77.5804 52.7867C77.5316 52.8354 77.4655 52.8628 77.3966 52.8628Z" fill="#263238"/>
<path d="M86.2731 52.8628H78.8865C78.8175 52.8628 78.7514 52.8354 78.7026 52.7867C78.6539 52.7379 78.6265 52.6718 78.6265 52.6028C78.6265 52.5338 78.6539 52.4677 78.7026 52.419C78.7514 52.3702 78.8175 52.3428 78.8865 52.3428H86.2731C86.342 52.3428 86.4082 52.3702 86.4569 52.419C86.5057 52.4677 86.5331 52.5338 86.5331 52.6028C86.5331 52.6718 86.5057 52.7379 86.4569 52.7867C86.4082 52.8354 86.342 52.8628 86.2731 52.8628Z" fill="#263238"/>
<g opacity="0.2">
<path d="M62.8804 54.5606H58.2004C58.1315 54.5606 58.0653 54.5332 58.0166 54.4844C57.9678 54.4357 57.9404 54.3695 57.9404 54.3006C57.9404 54.2316 57.9678 54.1655 58.0166 54.1167C58.0653 54.068 58.1315 54.0406 58.2004 54.0406H62.8804C62.9494 54.0406 63.0155 54.068 63.0643 54.1167C63.113 54.1655 63.1404 54.2316 63.1404 54.3006C63.1404 54.3695 63.113 54.4357 63.0643 54.4844C63.0155 54.5332 62.9494 54.5606 62.8804 54.5606Z" fill="#263238"/>
</g>
<g opacity="0.2">
<path d="M73.434 54.5606H64.4744C64.4054 54.5606 64.3393 54.5332 64.2905 54.4844C64.2417 54.4357 64.2144 54.3695 64.2144 54.3006C64.2144 54.2316 64.2417 54.1655 64.2905 54.1167C64.3393 54.068 64.4054 54.0406 64.4744 54.0406H73.434C73.5029 54.0406 73.569 54.068 73.6178 54.1167C73.6666 54.1655 73.694 54.2316 73.694 54.3006C73.694 54.3695 73.6666 54.4357 73.6178 54.4844C73.569 54.5332 73.5029 54.5606 73.434 54.5606Z" fill="#263238"/>
</g>
<path d="M83.9328 54.5606H75.1838C75.1149 54.5606 75.0487 54.5332 75 54.4844C74.9512 54.4357 74.9238 54.3695 74.9238 54.3006C74.9238 54.2316 74.9512 54.1655 75 54.1167C75.0487 54.068 75.1149 54.0406 75.1838 54.0406H83.9328C84.0018 54.0406 84.0679 54.068 84.1167 54.1167C84.1654 54.1655 84.1928 54.2316 84.1928 54.3006C84.1928 54.3695 84.1654 54.4357 84.1167 54.4844C84.0679 54.5332 84.0018 54.5606 83.9328 54.5606Z" fill="#263238"/>
<path d="M66.3181 56.2584H60.8113C60.7423 56.2584 60.6762 56.231 60.6274 56.1823C60.5787 56.1335 60.5513 56.0674 60.5513 55.9984C60.5513 55.9294 60.5787 55.8633 60.6274 55.8146C60.6762 55.7658 60.7423 55.7384 60.8113 55.7384H66.3181C66.387 55.7384 66.4532 55.7658 66.5019 55.8146C66.5507 55.8633 66.5781 55.9294 66.5781 55.9984C66.5781 56.0674 66.5507 56.1335 66.5019 56.1823C66.4532 56.231 66.387 56.2584 66.3181 56.2584Z" fill="#263238"/>
<g opacity="0.2">
<path d="M72.6932 56.2584H67.449C67.38 56.2584 67.3139 56.231 67.2651 56.1823C67.2164 56.1335 67.189 56.0674 67.189 55.9984C67.189 55.9294 67.2164 55.8633 67.2651 55.8146C67.3139 55.7658 67.38 55.7384 67.449 55.7384H72.6932C72.7621 55.7384 72.8283 55.7658 72.877 55.8146C72.9258 55.8633 72.9532 55.9294 72.9532 55.9984C72.9532 56.0674 72.9258 56.1335 72.877 56.1823C72.8283 56.231 72.7621 56.2584 72.6932 56.2584Z" fill="#263238"/>
</g>
<path d="M83.9326 56.2584H74.3386C74.2697 56.2584 74.2035 56.231 74.1548 56.1823C74.106 56.1335 74.0786 56.0674 74.0786 55.9984C74.0786 55.9294 74.106 55.8633 74.1548 55.8146C74.2035 55.7658 74.2697 55.7384 74.3386 55.7384H83.9326C84.0016 55.7384 84.0677 55.7658 84.1165 55.8146C84.1652 55.8633 84.1926 55.9294 84.1926 55.9984C84.1926 56.0674 84.1652 56.1335 84.1165 56.1823C84.0677 56.231 84.0016 56.2584 83.9326 56.2584Z" fill="#407BFF"/>
<g opacity="0.2">
<path d="M67.5427 57.9562H60.8113C60.7423 57.9562 60.6762 57.9288 60.6274 57.88C60.5787 57.8313 60.5513 57.7651 60.5513 57.6962C60.5513 57.6272 60.5787 57.5611 60.6274 57.5123C60.6762 57.4636 60.7423 57.4362 60.8113 57.4362H67.5427C67.6116 57.4362 67.6778 57.4636 67.7265 57.5123C67.7753 57.5611 67.8027 57.6272 67.8027 57.6962C67.8027 57.7651 67.7753 57.8313 67.7265 57.88C67.6778 57.9288 67.6116 57.9562 67.5427 57.9562Z" fill="#263238"/>
</g>
<path opacity="0.4" d="M87.5 37.983C87.5 38.0716 87.5263 38.1581 87.5756 38.2317C87.6248 38.3053 87.6948 38.3626 87.7767 38.3964C87.8585 38.4302 87.9486 38.4389 88.0354 38.4214C88.1222 38.4039 88.2019 38.3611 88.2643 38.2983C88.3268 38.2355 88.3692 38.1556 88.3861 38.0686C88.4031 37.9817 88.3939 37.8917 88.3596 37.8101C88.3254 37.7284 88.2676 37.6587 88.1938 37.6099C88.1199 37.5611 88.0332 37.5353 87.9446 37.5358C87.886 37.5358 87.828 37.5474 87.7739 37.5699C87.7197 37.5924 87.6706 37.6254 87.6293 37.6669C87.588 37.7085 87.5553 37.7578 87.5331 37.8121C87.5109 37.8663 87.4997 37.9244 87.5 37.983Z" fill="white"/>
<path opacity="0.4" d="M86.3953 38.4276C86.6408 38.4276 86.8399 38.2285 86.8399 37.983C86.8399 37.7374 86.6408 37.5384 86.3953 37.5384C86.1497 37.5384 85.9507 37.7374 85.9507 37.983C85.9507 38.2285 86.1497 38.4276 86.3953 38.4276Z" fill="white"/>
<path opacity="0.4" d="M84.8323 38.4276C85.0778 38.4276 85.2769 38.2285 85.2769 37.983C85.2769 37.7374 85.0778 37.5384 84.8323 37.5384C84.5867 37.5384 84.3877 37.7374 84.3877 37.983C84.3877 38.2285 84.5867 38.4276 84.8323 38.4276Z" fill="white"/>
<path d="M19.4474 38.4692H11.9802C11.6782 38.4689 11.379 38.5281 11.0998 38.6434C10.8207 38.7588 10.567 38.928 10.3533 39.1415C10.1396 39.3549 9.97007 39.6084 9.8544 39.8875C9.73874 40.1665 9.6792 40.4656 9.6792 40.7676V47.2676C9.67886 47.5697 9.73806 47.8688 9.85341 48.148C9.96876 48.4271 10.138 48.6808 10.3515 48.8945C10.5649 49.1082 10.8184 49.2777 11.0974 49.3934C11.3765 49.5091 11.6756 49.5686 11.9776 49.5686H17.2738L18.8338 51.62V49.5686H19.4448C20.0551 49.5686 20.6403 49.3262 21.0719 48.8947C21.5034 48.4631 21.7458 47.8779 21.7458 47.2676V40.7676C21.7458 40.158 21.5036 39.5734 21.0726 39.1424C20.6416 38.7114 20.057 38.4692 19.4474 38.4692Z" fill="#407BFF"/>
<path opacity="0.7" d="M19.4474 38.4692H11.9802C11.6782 38.4689 11.379 38.5281 11.0998 38.6434C10.8207 38.7588 10.567 38.928 10.3533 39.1415C10.1396 39.3549 9.97007 39.6084 9.8544 39.8875C9.73874 40.1665 9.6792 40.4656 9.6792 40.7676V47.2676C9.67886 47.5697 9.73806 47.8688 9.85341 48.148C9.96876 48.4271 10.138 48.6808 10.3515 48.8945C10.5649 49.1082 10.8184 49.2777 11.0974 49.3934C11.3765 49.5091 11.6756 49.5686 11.9776 49.5686H17.2738L18.8338 51.62V49.5686H19.4448C20.0551 49.5686 20.6403 49.3262 21.0719 48.8947C21.5034 48.4631 21.7458 47.8779 21.7458 47.2676V40.7676C21.7458 40.158 21.5036 39.5734 21.0726 39.1424C20.6416 38.7114 20.057 38.4692 19.4474 38.4692Z" fill="white"/>
<path d="M15.3239 45.64C15.2746 45.6398 15.2258 45.629 15.181 45.6084C15.1361 45.5877 15.0962 45.5577 15.0639 45.5204L13.6105 43.82C13.5815 43.7859 13.5595 43.7463 13.5457 43.7037C13.532 43.661 13.5268 43.6161 13.5304 43.5714C13.534 43.5268 13.5464 43.4833 13.5669 43.4434C13.5873 43.4035 13.6154 43.368 13.6495 43.339C13.6837 43.31 13.7232 43.288 13.7659 43.2742C13.8085 43.2605 13.8534 43.2553 13.8981 43.2589C13.9428 43.2625 13.9863 43.2749 14.0262 43.2953C14.066 43.3158 14.1015 43.3439 14.1305 43.378L15.3239 44.7872L17.2973 42.4628C17.3566 42.3974 17.439 42.3576 17.5271 42.3517C17.6152 42.3458 17.7021 42.3744 17.7695 42.4314C17.837 42.4884 17.8796 42.5693 17.8885 42.6571C17.8975 42.745 17.8719 42.8328 17.8173 42.9022L15.5839 45.5256C15.5514 45.5623 15.5113 45.5915 15.4664 45.6112C15.4216 45.6309 15.3729 45.6408 15.3239 45.64Z" fill="white"/>
<path d="M18.3338 46.6101C19.7817 45.1622 19.7817 42.8147 18.3338 41.3668C16.8858 39.9189 14.5383 39.9189 13.0904 41.3668C11.6425 42.8147 11.6425 45.1622 13.0904 46.6101C14.5383 48.058 16.8859 48.058 18.3338 46.6101Z" fill="#407BFF"/>
<path d="M43.2268 84.5048L48.809 84.2318L48.2656 89.086C48.2656 89.086 44.3916 89.8244 42.6626 87.0684L43.2268 84.5048Z" fill="#EBB376"/>
<path d="M52.4074 85.9244L51.136 89.4448L48.2656 89.086L48.809 84.2318L52.4074 85.9244Z" fill="#EBB376"/>
<path d="M37.8683 92.3828C39.9939 91.2728 41.9313 89.8347 43.6091 88.1214L43.2269 84.5048C37.9515 85.2848 34.9069 86.4002 34.9069 86.4002C34.9069 86.4002 36.8621 79.3932 35.0733 76.84L30.1619 77.7292C30.1619 77.7292 24.9437 88.5764 28.4537 92.3828H37.8683Z" fill="#407BFF"/>
<path opacity="0.7" d="M37.8604 92.3828C39.9871 91.2732 41.9262 89.836 43.6064 88.124L43.2268 84.5022C38.1204 85.251 35.1018 86.3222 34.9068 86.3924C34.9718 86.1324 36.8204 79.3438 35.068 76.8374L30.1566 77.7266C29.1468 79.9047 28.3451 82.1733 27.762 84.5022C27.06 87.4636 26.8546 90.6538 28.451 92.3828H37.8604Z" fill="white"/>
<path opacity="0.2" d="M33.823 92.3828C35.5572 81.3952 34.0206 78.6028 34.0206 78.6028L27.7806 84.497C27.0786 87.4584 26.8732 90.6486 28.4696 92.3776L33.823 92.3828Z" fill="black"/>
<path d="M32.7387 92.3828C33.9087 86.8292 35.2217 78.1348 35.0787 76.84C34.8707 74.9576 24.6319 66.8924 15.7451 72.7632C13.9251 73.9618 12.9969 86.8916 12.6797 92.3828H32.7387Z" fill="#407BFF"/>
<path opacity="0.7" d="M32.7387 92.3828C33.9087 86.8292 35.2217 78.1322 35.0787 76.8374C34.8707 74.9576 24.6293 66.8924 15.7425 72.7658C15.0847 73.2052 14.5439 75.189 14.0967 77.8098C13.5039 81.377 13.0931 86.1142 12.8487 89.6866C12.7811 90.698 12.7239 91.6132 12.6797 92.3828H32.7387Z" fill="white"/>
<path d="M28.3523 48.903C25.2713 47.6576 18.0069 52.127 17.3699 60.096C16.7329 68.065 20.7733 65.8576 20.7733 65.8576C20.7733 65.8576 21.4935 68.897 24.4367 67.9584C24.4367 67.9584 26.8677 70.7118 29.1297 69.5912C29.1297 69.5912 31.9455 72.524 33.4561 70.977C33.4561 70.977 35.0993 72.8516 36.5995 71.432C38.0997 70.0124 42.3871 55.52 35.6609 52.1686C28.9347 48.8172 28.3523 48.903 28.3523 48.903Z" fill="#263238"/>
<path d="M28.3574 81.52L28.061 81.494C28.4042 77.6564 27.5592 75.9586 27.541 75.943L27.801 75.8052C27.8504 75.865 28.7084 77.5732 28.3574 81.52Z" fill="#263238"/>
<path d="M29.7513 81.5538C27.7103 76.7464 30.0113 75.6258 30.1049 75.5738L30.2271 75.8338C30.2063 75.8338 28.1055 76.8972 30.0243 81.4212L29.7513 81.5538Z" fill="#263238"/>
<path d="M27.7568 76.7204C27.7568 76.7204 23.8178 73.6004 17.7026 71.8428L15.7396 72.7632C15.7396 72.7632 12.448 68.689 17.934 67.3552C23.42 66.0214 30.882 69.6952 32.754 72.8412C34.626 75.9872 29.4988 77.0012 29.4988 77.0012C29.4988 77.0012 29.0282 76.3616 27.7568 76.7204Z" fill="#407BFF"/>
<path opacity="0.6" d="M27.7568 76.7204C27.7568 76.7204 23.8178 73.6004 17.7026 71.8428L15.7396 72.7632C15.7396 72.7632 12.448 68.689 17.934 67.3552C23.42 66.0214 30.882 69.6952 32.754 72.8412C34.626 75.9872 29.4988 77.0012 29.4988 77.0012C29.4988 77.0012 29.0282 76.3616 27.7568 76.7204Z" fill="white"/>
<path d="M30.1333 81.4966C30.1333 81.548 30.118 81.5983 30.0895 81.641C30.0609 81.6838 30.0203 81.7171 29.9728 81.7368C29.9253 81.7565 29.873 81.7616 29.8226 81.7516C29.7721 81.7415 29.7258 81.7168 29.6894 81.6804C29.6531 81.6441 29.6283 81.5977 29.6183 81.5473C29.6082 81.4969 29.6134 81.4446 29.6331 81.3971C29.6528 81.3496 29.6861 81.309 29.7288 81.2804C29.7716 81.2518 29.8219 81.2366 29.8733 81.2366C29.9422 81.2366 30.0084 81.264 30.0571 81.3127C30.1059 81.3615 30.1333 81.4276 30.1333 81.4966Z" fill="white"/>
<path d="M28.4458 81.4966C28.4458 81.548 28.4305 81.5983 28.402 81.641C28.3734 81.6838 28.3328 81.7171 28.2853 81.7368C28.2378 81.7565 28.1855 81.7616 28.1351 81.7516C28.0846 81.7415 28.0383 81.7168 28.0019 81.6804C27.9656 81.6441 27.9408 81.5977 27.9308 81.5473C27.9207 81.4969 27.9259 81.4446 27.9456 81.3971C27.9653 81.3496 27.9986 81.309 28.0413 81.2804C28.0841 81.2518 28.1344 81.2366 28.1858 81.2366C28.2547 81.2366 28.3209 81.264 28.3696 81.3127C28.4184 81.3615 28.4458 81.4276 28.4458 81.4966Z" fill="white"/>
<path d="M25.6642 62.02C25.425 64.8098 24.5696 69.7758 22.2998 70.86C22.2998 70.86 24.8374 71.38 28.7998 76.4006C31.054 74.8198 30.2012 73.7408 30.2012 73.7408C27.5648 72.0118 28.2486 69.8798 29.3146 68.0208L25.6642 62.02Z" fill="#EBB376"/>
<path opacity="0.2" d="M27.1486 64.4666L29.3092 68.0286C29.0511 68.4586 28.8327 68.9111 28.6566 69.3806C27.6166 68.8242 26.4778 67.0614 26.6936 65.855C26.7608 65.3687 26.9149 64.8984 27.1486 64.4666Z" fill="black"/>
<path d="M25.3597 56.1206C24.6343 60.5042 24.2339 62.3398 25.8589 65.1608C28.3003 69.4066 33.7109 69.6068 35.6999 65.5924C37.4887 61.9784 38.3753 55.416 34.6417 52.5196C30.9575 49.6648 26.0799 51.7344 25.3597 56.1206Z" fill="#EBB376"/>
<path d="M34.3375 50.0782C37.1793 51.6538 39.8859 56.5782 35.8429 55.3484C35.2319 56.5314 33.0557 55.4472 31.7895 54.0276C31.5763 55.013 29.2467 56.001 27.5307 54.4748C28.3601 55.6708 26.9483 58.6894 25.4793 58.1694C24.0103 57.6494 20.7135 56.9656 23.6333 52.3116C26.5531 47.6576 31.3033 48.3908 34.3375 50.0782Z" fill="#263238"/>
<path d="M33.3028 60.2572C33.3028 60.2572 33.5628 61.9966 34.0568 62.9404C33.503 63.2602 32.7568 62.8338 32.7568 62.8338L33.3028 60.2572Z" fill="#D58745"/>
<path d="M30.4689 63.6138C30.6534 63.7039 30.8457 63.777 31.0435 63.8322C31.0568 63.8361 31.0708 63.8371 31.0846 63.8351C31.0984 63.8332 31.1115 63.8284 31.1233 63.8211C31.1351 63.8137 31.1452 63.8039 31.1529 63.7924C31.1607 63.7809 31.1659 63.7679 31.1683 63.7542C31.1754 63.7256 31.1709 63.6953 31.1558 63.67C31.1407 63.6447 31.1162 63.6263 31.0877 63.619C30.6403 63.4936 30.2268 63.2695 29.8776 62.963C29.5284 62.6566 29.2525 62.2757 29.0701 61.8484C29.0662 61.8346 29.0596 61.8217 29.0507 61.8105C29.0417 61.7993 29.0306 61.79 29.018 61.7832C29.0054 61.7765 28.9915 61.7723 28.9772 61.771C28.9629 61.7696 28.9486 61.7712 28.9349 61.7756C28.9086 61.7866 28.8876 61.8074 28.8764 61.8336C28.8652 61.8598 28.8648 61.8894 28.8751 61.916C29.1795 62.6587 29.7469 63.2631 30.4689 63.6138Z" fill="#263238"/>
<path d="M23.1472 59.2718C23.3923 60.1832 23.9888 60.9602 24.806 61.4324C25.8642 62.0122 26.626 61.019 26.548 59.784C26.4674 58.6686 25.8174 57.0254 24.6578 56.9604C23.4982 56.8954 22.8326 58.12 23.1472 59.2718Z" fill="#EBB376"/>
<path d="M30.1699 56.2402C30.1959 56.2523 30.2243 56.2586 30.2531 56.2586C30.2818 56.2586 30.3102 56.2523 30.3363 56.2402C30.567 56.1121 30.8257 56.0428 31.0896 56.0382C31.3535 56.0337 31.6144 56.0941 31.8495 56.2142C31.8728 56.2291 31.899 56.239 31.9264 56.2432C31.9538 56.2474 31.9818 56.2457 32.0086 56.2384C32.0353 56.231 32.0602 56.2181 32.0816 56.2005C32.103 56.1829 32.1205 56.161 32.1329 56.1362C32.1586 56.0838 32.1641 56.0238 32.1482 55.9677C32.1324 55.9115 32.0964 55.8632 32.0471 55.832C31.7538 55.6713 31.4247 55.5871 31.0903 55.5871C30.7558 55.5871 30.4268 55.6713 30.1335 55.832C30.0843 55.8613 30.0482 55.9084 30.0327 55.9636C30.0173 56.0187 30.0235 56.0777 30.0503 56.1284C30.0756 56.1787 30.118 56.2183 30.1699 56.2402Z" fill="#263238"/>
<path d="M37.1562 57.951C37.1796 57.9644 37.2056 57.9727 37.2325 57.9754C37.2594 57.9781 37.2865 57.9751 37.3122 57.9666C37.3392 57.9576 37.3642 57.9432 37.3856 57.9243C37.407 57.9055 37.4244 57.8825 37.4367 57.8568C37.4491 57.8311 37.4562 57.8032 37.4576 57.7747C37.4589 57.7462 37.4546 57.7178 37.4448 57.691C37.3499 57.3532 37.1782 57.0418 36.9433 56.7811C36.7083 56.5205 36.4164 56.3176 36.0902 56.1882C36.0634 56.1787 36.0349 56.1751 36.0066 56.1776C35.9783 56.1801 35.9509 56.1887 35.9262 56.2027C35.9016 56.2168 35.8802 56.236 35.8636 56.2591C35.847 56.2822 35.8356 56.3085 35.8302 56.3364C35.8166 56.3929 35.8246 56.4523 35.8524 56.5033C35.8803 56.5542 35.9261 56.593 35.981 56.612C36.238 56.7183 36.4673 56.882 36.6512 57.0907C36.8351 57.2994 36.9687 57.5474 37.0418 57.8158C37.0509 57.8448 37.0657 57.8717 37.0854 57.8949C37.105 57.9181 37.1291 57.9372 37.1562 57.951Z" fill="#263238"/>
<path d="M31.5687 59.108C31.4413 59.4564 31.1501 59.667 30.9187 59.5812C30.6873 59.4954 30.6041 59.147 30.7315 58.8012C30.8589 58.4554 31.1501 58.2422 31.3789 58.328C31.6077 58.4138 31.6935 58.7622 31.5687 59.108Z" fill="#263238"/>
<path d="M31.2773 58.3098L32.1405 58.2916C32.1405 58.2916 31.5321 58.7856 31.2773 58.3098Z" fill="#263238"/>
<path d="M35.9338 60.4938C35.8064 60.8396 35.5152 61.0502 35.2864 60.967C35.0576 60.8838 34.9692 60.5302 35.0966 60.187C35.224 59.8438 35.5152 59.6306 35.7466 59.7138C35.978 59.797 36.0612 60.1454 35.9338 60.4938Z" fill="#263238"/>
<path d="M35.6455 59.693L36.5061 59.6748C36.5061 59.6748 35.8977 60.1714 35.6455 59.693Z" fill="#263238"/>
<path d="M31.1577 61.565C30.8891 61.5658 30.6233 61.51 30.3777 61.4012C30.1179 61.2819 29.887 61.1077 29.7012 60.8904C29.5153 60.6731 29.3789 60.418 29.3013 60.1428C29.1337 59.5495 29.1796 58.9161 29.4309 58.3531C29.6822 57.7901 30.1231 57.3332 30.6767 57.0618C30.9332 56.9336 31.2149 56.8639 31.5016 56.8576C31.7882 56.8513 32.0727 56.9087 32.3345 57.0255C32.5964 57.1424 32.829 57.3159 33.0158 57.5334C33.2025 57.751 33.3387 58.0073 33.4145 58.2838C33.5874 58.8766 33.5403 59.5118 33.2819 60.0726C33.038 60.6425 32.5955 61.1045 32.0365 61.3726C31.7612 61.5001 31.4612 61.5657 31.1577 61.565ZM31.5659 57.158C31.3071 57.1649 31.0527 57.2269 30.8197 57.34C30.3315 57.5815 29.9428 57.9859 29.7206 58.4833C29.4985 58.9807 29.4569 59.54 29.6029 60.0648C29.6655 60.3011 29.7802 60.5203 29.9385 60.7065C30.0969 60.8927 30.2948 61.041 30.518 61.1408C30.7411 61.2405 30.9837 61.289 31.228 61.2828C31.4724 61.2766 31.7122 61.2158 31.9299 61.1048C32.4221 60.8692 32.8126 60.4639 33.0297 59.9634C33.2583 59.467 33.2999 58.9047 33.1467 58.38C33.0815 58.1452 32.9658 57.9275 32.8078 57.742C32.6497 57.5565 32.453 57.4078 32.2315 57.3062C32.0233 57.2083 31.796 57.1577 31.5659 57.158Z" fill="#263238"/>
<path d="M35.4842 62.891C35.2155 62.8933 34.9494 62.8374 34.7042 62.7272C34.4443 62.6076 34.2133 62.4333 34.027 62.2161C33.8408 61.9989 33.7037 61.7439 33.6252 61.4688C33.4589 60.8751 33.5056 60.242 33.7573 59.6792C34.009 59.1164 34.4498 58.6595 35.0032 58.3878C35.2595 58.2591 35.5411 58.1889 35.8277 58.1824C36.1143 58.1759 36.3988 58.2332 36.6606 58.3502C36.9224 58.4671 37.1549 58.6408 37.3413 58.8587C37.5277 59.0765 37.6634 59.3331 37.7384 59.6098C37.9136 60.2021 37.8674 60.8378 37.6084 61.3986C37.4329 61.8236 37.1398 62.1897 36.7636 62.454C36.3874 62.7184 35.9436 62.8699 35.4842 62.891ZM35.8976 58.471C35.6352 58.4728 35.3762 58.5313 35.1384 58.6426C34.6467 58.8799 34.2564 59.2859 34.0386 59.7866C33.8086 60.2817 33.767 60.8438 33.9216 61.3674C33.9869 61.6025 34.1025 61.8206 34.2606 62.0065C34.4186 62.1924 34.6153 62.3416 34.8368 62.4438C35.7468 62.852 36.8752 62.3216 37.3484 61.266C37.5759 60.7692 37.6174 60.2074 37.4654 59.6826C37.3997 59.448 37.2839 59.2305 37.1259 59.0451C36.9678 58.8597 36.7714 58.7108 36.5502 58.6088C36.3436 58.5227 36.1215 58.4802 35.8976 58.484V58.471Z" fill="#263238"/>
<path d="M33.6277 60.1792C33.622 60.1606 33.6123 60.1436 33.5993 60.1292C33.5862 60.1148 33.5702 60.1035 33.5523 60.096C33.4381 60.0761 33.3205 60.0934 33.2169 60.1454L33.0869 59.8854C33.2635 59.7951 33.4674 59.7738 33.6589 59.8256C33.7189 59.8468 33.7734 59.8811 33.8184 59.9261C33.8634 59.9711 33.8977 60.0256 33.9189 60.0856L33.6277 60.1792Z" fill="#263238"/>
<path d="M26.5171 57.397L26.4282 57.6815L29.9476 58.7813L30.0365 58.4968L26.5171 57.397Z" fill="#263238"/>
<path opacity="0.2" d="M25.6926 84.7596C25.6926 84.7596 18.852 90.0012 12.8486 89.6996C13.093 86.1272 13.5038 81.3796 14.0966 77.8228C14.7102 77.1468 15.1132 76.736 15.1132 76.736L18.7532 79.4582L17.8666 80.571C17.8666 80.571 23.376 80.2902 25.2948 80.571L25.6926 84.7596Z" fill="black"/>
<path d="M26.3996 80.558L31.8752 79.44L32.0702 84.3228C32.0702 84.3228 28.3548 85.6384 26.228 83.1762L26.3996 80.558Z" fill="#EBB376"/>
<path d="M35.6871 80.5736L34.9643 84.2448L32.0705 84.3254L31.8755 79.4426L35.6871 80.5736Z" fill="#EBB376"/>
<path d="M26.3997 80.558L26.6675 84.3254L25.3051 84.9364L24.7227 80.558H26.3997Z" fill="#407BFF"/>
<path opacity="0.6" d="M26.3997 80.558L26.6675 84.3254L25.3051 84.9364L24.7227 80.558H26.3997Z" fill="white"/>
<path d="M17.7028 71.8428C16.2335 72.1022 14.903 72.8719 13.9458 74.0164C12.2948 75.956 6.47597 81.7176 7.76817 86.421C9.06037 91.1244 21.504 87.6248 25.3052 84.9364L24.7228 80.558L16.1038 81.1898L18.761 79.44C20.5836 74.37 17.7028 71.8428 17.7028 71.8428Z" fill="#407BFF"/>
<path opacity="0.7" d="M17.7028 71.8428C16.2335 72.1022 14.903 72.8719 13.9458 74.0164C12.2948 75.956 6.47597 81.7176 7.76817 86.421C9.06037 91.1244 21.504 87.6248 25.3052 84.9364L24.7228 80.558L16.1038 81.1898L18.761 79.44C20.5836 74.37 17.7028 71.8428 17.7028 71.8428Z" fill="white"/>
<path d="M42.6655 84.588L44.2333 84.3254V88.527L42.9905 88.7298L42.6655 84.588Z" fill="#407BFF"/>
<path opacity="0.6" d="M42.6655 84.588L44.2333 84.3254V88.527L42.9905 88.7298L42.6655 84.588Z" fill="white"/>
<path d="M39.4959 88.4854C39.4914 88.2552 39.5027 88.025 39.5297 87.7964L39.5765 87.4506L39.2411 87.6482L39.0409 87.7678C38.975 87.7975 38.9073 87.8227 38.8381 87.8432C38.7196 87.8807 38.5925 87.8807 38.4741 87.8432C38.3596 87.8009 38.2589 87.7281 38.1829 87.6326C38.095 87.5271 38.0255 87.4076 37.9775 87.279L37.6837 86.46L37.4757 87.3284C37.4549 87.4142 37.4419 87.5026 37.4263 87.5884C37.4107 87.6742 37.3743 87.7496 37.3509 87.8302C37.3011 87.9598 37.2176 88.0738 37.1091 88.1604C36.9877 88.2227 36.8467 88.2349 36.7165 88.1942C36.5525 88.1512 36.3964 88.0828 36.2537 87.9914L35.8013 87.708L35.9833 88.1682C36.062 88.3638 36.1246 88.5656 36.1705 88.7714C36.1933 88.874 36.2072 88.9784 36.2121 89.0834C36.2235 89.1903 36.1998 89.298 36.1445 89.3902C36.2357 89.3169 36.2983 89.2138 36.3213 89.099C36.351 88.987 36.3667 88.8717 36.3681 88.7558C36.3733 88.6649 36.3733 88.5737 36.3681 88.4828C36.4437 88.5256 36.5218 88.5638 36.6021 88.5972C36.7201 88.6455 36.8469 88.6689 36.9745 88.6657C37.102 88.6626 37.2275 88.6331 37.3431 88.579C37.5629 88.4556 37.7343 88.2613 37.8293 88.0278V87.994C37.9699 88.1541 38.1584 88.2647 38.3668 88.3092C38.5753 88.3537 38.7925 88.3298 38.9863 88.241C39.0627 88.2064 39.1365 88.1664 39.2073 88.1214C39.2073 88.1214 39.2073 88.1396 39.2073 88.15C39.2259 88.2726 39.2511 88.3941 39.2827 88.514C39.3143 88.635 39.3579 88.7526 39.4127 88.865C39.4646 88.9782 39.542 89.0778 39.6389 89.1562C39.5805 89.0544 39.5426 88.9423 39.5271 88.826C39.5091 88.7133 39.4986 88.5995 39.4959 88.4854Z" fill="#407BFF"/>
<path d="M48.7964 82.6198C48.5938 82.6394 48.3894 82.6173 48.1958 82.5548C47.9963 82.4955 47.8063 82.408 47.6316 82.2948C47.4657 82.1717 47.3238 82.0192 47.213 81.845C47.0957 81.6719 47.0021 81.4839 46.9348 81.286L46.7632 80.766L46.472 81.2262C46.3475 81.4192 46.197 81.5942 46.0248 81.7462C45.8849 81.8845 45.7008 81.9692 45.5048 81.9854H45.4424L45.3644 81.9698C45.3098 81.9698 45.2578 81.9438 45.2032 81.9308C45.0945 81.8951 44.9893 81.8498 44.8886 81.7956C44.685 81.6817 44.4971 81.5418 44.3296 81.3796L43.8772 80.9454L43.9708 81.5408C44.0231 81.8586 44.0431 82.1809 44.0306 82.5028C44.0255 82.6542 43.9947 82.8037 43.9396 82.9448C43.9151 83.0065 43.8703 83.0581 43.8127 83.0912C43.7551 83.1242 43.688 83.1368 43.6224 83.1268H43.5054L43.5418 83.223C43.618 83.4189 43.696 83.6139 43.7758 83.808C43.7524 83.6338 43.7238 83.4596 43.6926 83.288H43.742C43.7938 83.2842 43.8452 83.2755 43.8954 83.262C43.9431 83.2373 43.9891 83.2095 44.0332 83.1788C44.067 83.1424 44.1034 83.1034 44.1346 83.0644C44.2344 82.9062 44.3008 82.7292 44.3296 82.5444C44.3623 82.3728 44.3815 82.199 44.3868 82.0244C44.4699 82.0932 44.5567 82.1574 44.6468 82.2168C44.7689 82.2919 44.8977 82.3554 45.0316 82.4066C45.1746 82.466 45.3267 82.5003 45.4814 82.508C45.803 82.5034 46.1119 82.3813 46.3498 82.1648C46.4518 82.0792 46.5466 81.9853 46.6332 81.884C46.6841 81.9735 46.7396 82.0603 46.7996 82.144C46.9551 82.3588 47.1491 82.543 47.3716 82.6874C47.5935 82.8222 47.8372 82.9172 48.0918 82.9682C48.2553 83 48.422 83.0122 48.5884 83.0046C48.5676 83.0566 48.5442 83.1086 48.526 83.1632C48.4803 83.3132 48.4447 83.4661 48.4194 83.6208C48.3917 83.7761 48.3847 83.9343 48.3986 84.0914C48.4065 84.248 48.4539 84.4 48.5364 84.5334C48.4916 84.3914 48.4801 84.2411 48.5026 84.094C48.5222 83.948 48.5561 83.8043 48.604 83.665C48.7038 83.3933 48.8301 83.132 48.981 82.885L49.1448 82.6068L48.7964 82.6198Z" fill="#407BFF"/>
<path d="M100.812 97.9858L9.62991 97.9858C9.32375 97.9858 9.03011 97.8642 8.81362 97.6477C8.59713 97.4312 8.47551 97.1376 8.47551 96.8314V94.0234L101.966 94.0234V96.8314C101.966 97.1376 101.845 97.4312 101.628 97.6477C101.412 97.8642 101.118 97.9858 100.812 97.9858Z" fill="#407BFF"/>
<path opacity="0.2" d="M8.47292 96.002L101.966 96.002V94.0208L8.47292 94.0208V96.002Z" fill="black"/>
<path d="M6.51497 94.5382H103.927C104.223 94.5382 104.507 94.4208 104.716 94.2117C104.926 94.0026 105.044 93.7189 105.045 93.4228C105.045 93.1263 104.927 92.8419 104.717 92.6323C104.507 92.4226 104.223 92.3048 103.927 92.3048H6.51497C6.21846 92.3048 5.93409 92.4226 5.72443 92.6323C5.51476 92.8419 5.39697 93.1263 5.39697 93.4228C5.39766 93.7189 5.51575 94.0026 5.72534 94.2117C5.93494 94.4208 6.21891 94.5382 6.51497 94.5382Z" fill="#407BFF"/>
<path d="M97.3254 78.66L94.481 91.5612C94.4291 91.7678 94.3105 91.9516 94.1437 92.0841C93.9769 92.2166 93.7711 92.2905 93.558 92.2944H78.0204C77.9237 92.2919 77.8289 92.267 77.7435 92.2217C77.658 92.1765 77.5842 92.112 77.5278 92.0334C77.4713 91.9549 77.4339 91.8643 77.4183 91.7688C77.4028 91.6734 77.4095 91.5756 77.438 91.4832L80.2772 78.6808C80.3355 78.4857 80.459 78.3166 80.6269 78.2016C80.7949 78.0866 80.9973 78.0327 81.2002 78.049H96.7378C97.1538 78.0594 97.4164 78.2492 97.3254 78.66Z" fill="#263238"/>
<path opacity="0.4" d="M97.3256 78.66L94.4812 91.5612C94.4293 91.7678 94.3107 91.9516 94.1439 92.0841C93.9771 92.2167 93.7712 92.2905 93.5582 92.2944H78.5484C78.4515 92.2923 78.3564 92.2677 78.2706 92.2226C78.1848 92.1775 78.1106 92.1131 78.0539 92.0345C77.9972 91.9558 77.9595 91.8651 77.9438 91.7695C77.9281 91.6738 77.9348 91.5758 77.9634 91.4832L80.8078 78.6808C80.8648 78.485 80.9879 78.3149 81.1562 78.1997C81.3246 78.0845 81.5276 78.0312 81.7308 78.049H96.738C97.154 78.0594 97.4166 78.2492 97.3256 78.66Z" fill="white"/>
<path d="M94.8476 91.8966L97.6764 79.063C97.77 78.6418 97.5074 78.452 97.0888 78.452H82.0816C81.8786 78.4353 81.676 78.4889 81.5079 78.604C81.3398 78.7191 81.2165 78.8885 81.1586 79.0838L78.2856 92.0656L94.8476 91.8966Z" fill="#407BFF"/>
<path opacity="0.4" d="M97.6763 79.0604L96.1839 85.8412L94.8449 91.8966L85.9789 91.9876L78.2881 92.063L81.1481 79.0838C81.205 78.8884 81.3277 78.7188 81.4955 78.6036C81.6633 78.4884 81.8657 78.4349 82.0685 78.452H97.0939C97.5099 78.452 97.7699 78.6444 97.6763 79.0604Z" fill="white"/>
<path opacity="0.2" d="M96.1839 85.8412L94.8449 91.8966L85.9789 91.9876H78.6157L79.8195 86.4496C79.8582 86.278 79.9537 86.1246 80.0906 86.0141C80.2275 85.9037 80.3977 85.8427 80.5735 85.8412H96.1839Z" fill="black"/>
<path d="M96.4388 86.6836C96.3814 86.4882 96.258 86.3188 96.0897 86.2041C95.9215 86.0894 95.7187 86.0365 95.5158 86.0544H80.5086C80.0926 86.0544 79.83 86.2416 79.921 86.6628L81.0598 91.8264H78.5248C78.4614 91.8264 78.4006 91.8516 78.3557 91.8965C78.3108 91.9413 78.2856 92.0022 78.2856 92.0656C78.2856 92.129 78.3108 92.1899 78.3557 92.2347C78.4006 92.2796 78.4614 92.3048 78.5248 92.3048H97.0108C97.0915 92.3033 97.1708 92.2839 97.2431 92.2479C97.3153 92.2119 97.3786 92.1603 97.4284 92.0968C97.4782 92.0334 97.5132 91.9596 97.5309 91.8809C97.5486 91.8022 97.5486 91.7205 97.5308 91.6418L96.4388 86.6836Z" fill="#407BFF"/>
<path opacity="0.4" d="M96.4388 86.6836C96.3814 86.4882 96.258 86.3188 96.0897 86.2041C95.9215 86.0894 95.7187 86.0365 95.5158 86.0544H80.5086C80.0926 86.0544 79.83 86.2416 79.921 86.6628L81.0598 91.8264H78.5248C78.4614 91.8264 78.4006 91.8516 78.3557 91.8965C78.3108 91.9413 78.2856 92.0022 78.2856 92.0656C78.2856 92.129 78.3108 92.1899 78.3557 92.2347C78.4006 92.2796 78.4614 92.3048 78.5248 92.3048H97.0108C97.0915 92.3033 97.1708 92.2839 97.2431 92.2479C97.3153 92.2119 97.3786 92.1603 97.4284 92.0968C97.4782 92.0334 97.5132 91.9596 97.5309 91.8809C97.5486 91.8022 97.5486 91.7205 97.5308 91.6418L96.4388 86.6836Z" fill="white"/>
<path d="M78.0749 89.8166H77.2039L77.0947 90.2872H77.9423L78.0749 89.8166Z" fill="black"/>
<path d="M72.5708 92.3646H70.0618C70.0422 92.365 70.0228 92.3614 70.0047 92.3541C69.9865 92.3467 69.9701 92.3358 69.9562 92.322C69.9424 92.3082 69.9315 92.2917 69.9242 92.2735C69.9168 92.2554 69.9132 92.236 69.9136 92.2164C69.9136 92.1771 69.9292 92.1394 69.957 92.1116C69.9848 92.0838 70.0225 92.0682 70.0618 92.0682H72.5708C72.9825 92.069 73.3891 91.9771 73.7604 91.7993C74.1317 91.6215 74.4582 91.3624 74.7158 91.0412C75.0012 90.6847 75.3633 90.3972 75.7752 90.2001C76.1871 90.0029 76.6382 89.9012 77.0948 89.9024H77.5368C77.5759 89.9031 77.6132 89.9189 77.6409 89.9466C77.6685 89.9742 77.6843 90.0115 77.685 90.0506C77.685 90.0899 77.6694 90.1276 77.6416 90.1554C77.6138 90.1832 77.5761 90.1988 77.5368 90.1988H77.1C76.6883 90.1981 76.2817 90.29 75.9104 90.4678C75.5391 90.6456 75.2126 90.9046 74.955 91.2258C74.6689 91.5828 74.3059 91.8707 73.8931 92.0678C73.4803 92.265 73.0283 92.3665 72.5708 92.3646Z" fill="black"/>
<path d="M30.7627 90.529V91.6132C30.7627 92.102 31.3529 92.3048 31.8417 92.3048H69.9525C70.4361 92.3048 71.0107 92.102 71.0107 91.6132V90.529H30.7627Z" fill="#263238"/>
<path opacity="0.4" d="M30.7627 90.529V91.6132C30.7627 92.102 31.3529 92.3048 31.8417 92.3048H69.9525C70.4361 92.3048 71.0107 92.102 71.0107 91.6132V90.529H30.7627Z" fill="white"/>
<path opacity="0.2" d="M43.7471 90.529V91.6132C43.7471 92.102 44.3269 92.3048 44.8157 92.3048H69.9525C70.4361 92.3048 71.0107 92.102 71.0107 91.6132V90.529H43.7471Z" fill="black"/>
<path d="M77.3883 69.9058L72.8513 90.4848C72.77 90.8155 72.5815 91.1101 72.3154 91.3227C72.0492 91.5352 71.7203 91.6538 71.3797 91.66H46.5939C45.9361 91.66 45.5097 91.0438 45.6631 90.36L50.1949 69.937C50.3483 69.2662 51.0035 68.9308 51.6691 68.9308H76.4523C77.1179 68.9334 77.5365 69.235 77.3883 69.9058Z" fill="#263238"/>
<path opacity="0.4" d="M77.3885 69.9058L72.8515 90.4848C72.7702 90.8155 72.5817 91.1101 72.3156 91.3227C72.0494 91.5352 71.7205 91.6538 71.3799 91.66H47.4365C46.7709 91.66 46.3523 91.0438 46.5005 90.36L51.0375 69.937C51.1857 69.2662 51.8461 68.9308 52.5117 68.9308H76.4525C77.1181 68.9334 77.5367 69.235 77.3885 69.9058Z" fill="white"/>
<path opacity="0.2" d="M65.1684 80.3656C65.1684 82.1284 63.2808 83.561 61.895 83.561C60.5092 83.561 59.6902 82.1284 60.075 80.3656C60.4598 78.6028 61.8456 77.2326 63.195 77.178C62.7998 78.9408 63.6448 80.3656 65.015 80.3656C65.066 80.3704 65.1174 80.3704 65.1684 80.3656Z" fill="black"/>
</svg>
