<svg width="56" height="84" viewBox="0 0 56 84" fill="none" xmlns="http://www.w3.org/2000/svg">
<path d="M35.5 36L40.6337 13.5983L34.3878 13.08L45.747 0.852506L54.4463 14.7445L47.4996 14.168L39 42.5L35.5 36Z" fill="#FFA62B" stroke="#FFA62B"/>
<path d="M16.64 57.16L19.68 28.76C20.2933 28.7333 20.8933 28.6933 21.48 28.64C22.0933 28.56 22.68 28.4667 23.24 28.36C23.7733 28.2533 24.32 28.1733 24.88 28.12C25.44 28.04 25.9867 27.9867 26.52 27.96L26.4 28.76C26.3733 29.0267 26.32 29.3333 26.24 29.68C26.1867 30 26.1333 30.3733 26.08 30.8C25.9467 31.7333 25.7867 32.8 25.6 34C25.4133 35.2 25.2 36.5333 24.96 38C24.8 38.9067 24.6133 40 24.4 41.28C24.2133 42.56 23.9867 44.0133 23.72 45.64H24.32C24.6667 44.4133 24.9867 43.2933 25.28 42.28C25.5733 41.2667 25.8267 40.3733 26.04 39.6C26.2533 38.8267 26.4533 38.1333 26.64 37.52C26.8533 36.88 27.0267 36.3067 27.16 35.8C27.72 33.8267 28.1733 32.2133 28.52 30.96C28.8667 29.7067 29.0933 28.8933 29.2 28.52H29.56C30.2533 28.52 30.9733 28.4667 31.72 28.36C32.4933 28.2533 33.1867 28.1333 33.8 28C33.7733 28.1067 33.72 28.5467 33.64 29.32C33.56 30.0933 33.4667 31.04 33.36 32.16C33.2533 33.28 33.1467 34.44 33.04 35.64C32.8533 37.9067 32.68 39.88 32.52 41.56C32.3867 43.24 32.2667 44.6 32.16 45.64H32.88L36.68 28.44L39.36 28.08C39.7333 28.0267 40.12 27.9733 40.52 27.92C40.92 27.8667 41.3333 27.8133 41.76 27.76C42.5333 27.6533 43.2667 27.5333 43.96 27.4C43.16 29.64 42.36 32.28 41.56 35.32C40.76 38.36 39.96 41.44 39.16 44.56C38.7333 46.2667 38.3067 48 37.88 49.76C37.48 51.4933 37.08 53.2667 36.68 55.08L27.64 56.6L29.4 41.16H28.92L24.96 55.68L16.64 57.16Z" fill="#FFA62B"/>
<path fill-rule="evenodd" clip-rule="evenodd" d="M25.5 29L1 83L1.01244 82.9726L20 29.5L25.5 29Z" fill="#FFA62B" stroke="#FFA62B"/>
</svg>
