<svg width="110" height="110" viewBox="0 0 110 110" fill="none" xmlns="http://www.w3.org/2000/svg">
<path d="M97.6626 72.644H57.8976C57.187 72.644 56.6084 72.0654 56.6084 71.3548V13.4332C56.6084 12.7226 57.187 12.144 57.8976 12.144H97.6626C98.3732 12.144 98.9518 12.7226 98.9518 13.4332V71.3548C98.9518 72.0654 98.3732 72.644 97.6626 72.644ZM57.8976 12.199C57.2178 12.199 56.6634 12.7534 56.6634 13.4332V71.3548C56.6634 72.0346 57.2178 72.589 57.8976 72.589H97.6626C98.3424 72.589 98.8968 72.0346 98.8968 71.3548V13.4332C98.8968 12.7534 98.3424 12.199 97.6626 12.199H57.8976Z" fill="#E0E0E0"/>
<path d="M51.8079 72.644H12.0451C11.3345 72.644 10.7559 72.0654 10.7559 71.3548V13.4332C10.7559 12.7226 11.3345 12.144 12.0451 12.144H51.8079C52.5185 12.144 53.0971 12.7226 53.0971 13.4332V71.3548C53.0971 72.0654 52.5185 72.644 51.8079 72.644ZM12.0451 12.199C11.3653 12.199 10.8109 12.7534 10.8109 13.4332V71.3548C10.8109 72.0346 11.3653 72.589 12.0451 72.589H51.8079C52.4877 72.589 53.0421 72.0346 53.0421 71.3548V13.4332C53.0421 12.7534 52.4877 12.199 51.8079 12.199H12.0451Z" fill="#E0E0E0"/>
<path d="M110 86.0794H0V86.1344H110V86.0794Z" fill="#E0E0E0"/>
<path d="M14.9004 89.2166H11.3672V89.2716H14.9004V89.2166Z" fill="#E0E0E0"/>
<path d="M49.2536 88.6204H37.4771V88.6754H49.2536V88.6204Z" fill="#E0E0E0"/>
<path d="M23.0956 91.2604H15.1206V91.3154H23.0956V91.2604Z" fill="#E0E0E0"/>
<path d="M92.7386 88.5918H83.2368V88.6468H92.7386V88.5918Z" fill="#E0E0E0"/>
<path d="M96.0918 88.5918H94.6992V88.6468H96.0918V88.5918Z" fill="#E0E0E0"/>
<path d="M81.4222 89.9624H69.5664V90.0174H81.4222V89.9624Z" fill="#E0E0E0"/>
<path d="M62.4248 55.1188H50.0762V59.1162H62.4248V55.1188Z" fill="#F5F5F5"/>
<path d="M99.0966 30.283H86.748V34.2804H99.0966V30.283Z" fill="#F5F5F5"/>
<path d="M100.806 73.1346H88.4575V77.132H100.806V73.1346Z" fill="#F5F5F5"/>
<path d="M43.1684 6.48779H30.8198V10.4852H43.1684V6.48779Z" fill="#F5F5F5"/>
<path d="M84.372 47.333H72.0234V51.3304H84.372V47.333Z" fill="#EBEBEB"/>
<path d="M89.3198 51.216H76.9712V55.2134H89.3198V51.216Z" fill="#F5F5F5"/>
<path d="M99.0966 9.35001H86.748V13.3474H99.0966V9.35001Z" fill="#EBEBEB"/>
<path d="M104.042 13.2352H91.6938V17.2326H104.042V13.2352Z" fill="#F5F5F5"/>
<path d="M36.9951 76.8218H24.6465V80.8192H36.9951V76.8218Z" fill="#EBEBEB"/>
<path d="M41.9409 80.7048H29.5923V84.7022H41.9409V80.7048Z" fill="#F5F5F5"/>
<path d="M21.4345 44.8096H9.08594V48.807H21.4345V44.8096Z" fill="#F0F0F0"/>
<path d="M26.3803 48.6926H14.0317V52.69H26.3803V48.6926Z" fill="#F5F5F5"/>
<path d="M51.4008 33.9372H12.9756V36.0866H51.4008V33.9372Z" fill="#E6E6E6"/>
<path d="M18.799 35.5695H16.918V38.896H18.799V35.5695Z" fill="#E6E6E6"/>
<path d="M47.1022 35.5695H45.2212V38.896H47.1022V35.5695Z" fill="#E6E6E6"/>
<path d="M32.1331 32.0848L29.5019 19.2896H19.5865L16.9553 32.0848C16.7617 33.0308 17.3865 33.9372 18.2357 33.9372H30.8549C31.7041 33.9372 32.3289 33.0308 32.1353 32.0848H32.1331Z" fill="#EBEBEB"/>
<path d="M19.3359 18.2116H24.8051V19.2896H19.3359C19.0389 19.2896 18.7969 19.0476 18.7969 18.7506C18.7969 18.4536 19.0389 18.2116 19.3359 18.2116Z" fill="#E6E6E6"/>
<path d="M29.7505 19.2896H24.2813V18.2116H29.7505C30.0475 18.2116 30.2896 18.4536 30.2896 18.7506C30.2896 19.0476 30.0475 19.2896 29.7505 19.2896Z" fill="#E6E6E6"/>
<path d="M28.9275 19.2896H20.1935L17.7515 31.955C17.6437 32.5182 18.0177 33.0528 18.5215 33.0528H30.6017C31.1055 33.0528 31.4795 32.5182 31.3717 31.955L28.9297 19.2896H28.9275Z" fill="#EBEBEB"/>
<path opacity="0.3" d="M21.6411 18.821H19.6787C19.5797 18.821 19.5005 18.7418 19.5005 18.6428C19.5005 18.5438 19.5797 18.4646 19.6787 18.4646H21.6411C21.7401 18.4646 21.8193 18.5438 21.8193 18.6428C21.8193 18.7418 21.7401 18.821 21.6411 18.821Z" fill="white"/>
<path opacity="0.3" d="M22.3388 18.821H22.1386C22.0396 18.821 21.9604 18.7418 21.9604 18.6428C21.9604 18.5438 22.0396 18.4646 22.1386 18.4646H22.3388C22.4378 18.4646 22.517 18.5438 22.517 18.6428C22.517 18.7418 22.4378 18.821 22.3388 18.821Z" fill="white"/>
<path d="M31.3717 31.955L30.2079 25.9226L18.9021 25.9908L17.7515 31.955C17.6437 32.5182 18.0177 33.0528 18.5215 33.0528H30.6017C31.1055 33.0528 31.4795 32.5182 31.3717 31.955Z" fill="#E0E0E0"/>
<path d="M24.5673 25.6806C21.4389 25.6806 18.9023 25.8192 18.9023 25.9908C18.9023 26.1624 21.4389 26.301 24.5673 26.301C27.6957 26.301 30.2323 26.1624 30.2323 25.9908C30.2323 25.8192 27.6957 25.6806 24.5673 25.6806Z" fill="#F5F5F5"/>
<g opacity="0.3">
<path d="M22.0133 21.3906C22.3521 21.5644 22.2575 22.0286 22.2289 22.2134C22.0221 23.5488 21.9583 24.5344 21.6767 25.8632C21.5909 26.2724 21.4413 26.6882 21.1509 26.9896C20.8605 27.2932 20.3479 27.4252 20.0201 27.1678C19.6637 26.8884 19.6989 26.345 19.7715 25.8962C19.9189 24.9678 20.0663 24.0416 20.2137 23.1132C20.2731 22.7392 20.3347 22.3564 20.5063 22.0198C20.6779 21.681 20.9815 21.3884 21.3555 21.3268C21.3555 21.3268 21.8087 21.2828 22.0133 21.3884V21.3906Z" fill="white"/>
</g>
<path opacity="0.3" d="M20.9571 30.0102C20.8229 30.6262 20.3675 31.0486 19.9407 30.9562C19.5139 30.8638 19.2785 30.2874 19.4127 29.6714C19.5469 29.0554 20.0023 28.633 20.4291 28.7254C20.8559 28.8178 21.0913 29.3942 20.9571 30.0102Z" fill="white"/>
<path d="M48.5076 32.0848L45.8764 19.2896H35.961L33.3298 32.0848C33.1362 33.0308 33.761 33.9372 34.6102 33.9372H47.2294C48.0786 33.9372 48.7034 33.0308 48.5098 32.0848H48.5076Z" fill="#F0F0F0"/>
<path d="M35.7104 18.2116H41.1796V19.2896H35.7104C35.4134 19.2896 35.1714 19.0476 35.1714 18.7506C35.1714 18.4536 35.4134 18.2116 35.7104 18.2116Z" fill="#F0F0F0"/>
<path d="M46.1275 19.2896H40.6583V18.2116H46.1275C46.4245 18.2116 46.6665 18.4536 46.6665 18.7506C46.6665 19.0476 46.4245 19.2896 46.1275 19.2896Z" fill="#F0F0F0"/>
<path d="M45.3045 19.2896H36.5705L34.1285 31.955C34.0207 32.5182 34.3947 33.0528 34.8985 33.0528H46.9787C47.4825 33.0528 47.8565 32.5182 47.7487 31.955L45.3067 19.2896H45.3045Z" fill="#F5F5F5"/>
<path opacity="0.3" d="M38.0156 18.821H36.0532C35.9542 18.821 35.875 18.7418 35.875 18.6428C35.875 18.5438 35.9542 18.4646 36.0532 18.4646H38.0156C38.1146 18.4646 38.1938 18.5438 38.1938 18.6428C38.1938 18.7418 38.1146 18.821 38.0156 18.821Z" fill="white"/>
<path opacity="0.3" d="M38.7153 18.821H38.5151C38.4161 18.821 38.3369 18.7418 38.3369 18.6428C38.3369 18.5438 38.4161 18.4646 38.5151 18.4646H38.7153C38.8143 18.4646 38.8935 18.5438 38.8935 18.6428C38.8935 18.7418 38.8143 18.821 38.7153 18.821Z" fill="white"/>
<path d="M38.3897 21.3906C38.7285 21.5644 38.6339 22.0286 38.6053 22.2134C38.3985 23.5488 38.3347 24.5344 38.0531 25.8632C37.9673 26.2724 37.8177 26.6882 37.5273 26.9896C37.2369 27.2932 36.7243 27.4252 36.3965 27.1678C36.0401 26.8884 36.0753 26.345 36.1479 25.8962C36.2953 24.9678 36.4427 24.0416 36.5901 23.1132C36.6495 22.7392 36.7111 22.3564 36.8827 22.0198C37.0543 21.681 37.3579 21.3884 37.7319 21.3268C37.7319 21.3268 38.1851 21.2828 38.3897 21.3884V21.3906Z" fill="#FAFAFA"/>
<path d="M36.8741 29.656C36.7399 30.272 36.2845 30.6944 35.8577 30.602C35.4309 30.5096 35.1955 29.9332 35.3297 29.3172C35.4639 28.7012 35.9193 28.2788 36.3461 28.3712C36.7729 28.4636 37.0083 29.04 36.8741 29.656Z" fill="#FAFAFA"/>
<path d="M101.677 99.8624C101.677 100.608 81.1028 101.211 55.7258 101.211C30.3488 101.211 9.77441 100.606 9.77441 99.8624C9.77441 99.1188 30.3488 98.5138 55.7258 98.5138C81.1028 98.5138 101.677 99.1188 101.677 99.8624Z" fill="#F5F5F5"/>
<path d="M93.258 9.7988H63.0498V41.261H93.258V9.7988Z" fill="#263238"/>
<path d="M91.8654 11.2838H64.4424V39.776H91.8654V11.2838Z" fill="white"/>
<path d="M85.5149 21.816L80.5166 25.405L80.6128 25.5391L85.6112 21.95L85.5149 21.816Z" fill="#263238"/>
<path d="M80.3429 26.2622L80.2573 26.4032L85.4032 29.5258L85.4888 29.3848L80.3429 26.2622Z" fill="#263238"/>
<path d="M78.3178 28.512H78.1528V31.8978H78.3178V28.512Z" fill="#263238"/>
<path d="M78.2339 33.88C79.116 33.88 79.8311 33.1649 79.8311 32.2828C79.8311 31.4007 79.116 30.6856 78.2339 30.6856C77.3518 30.6856 76.6367 31.4007 76.6367 32.2828C76.6367 33.1649 77.3518 33.88 78.2339 33.88Z" fill="#407BFF"/>
<path opacity="0.3" d="M78.2339 33.88C79.116 33.88 79.8311 33.1649 79.8311 32.2828C79.8311 31.4007 79.116 30.6856 78.2339 30.6856C77.3518 30.6856 76.6367 31.4007 76.6367 32.2828C76.6367 33.1649 77.3518 33.88 78.2339 33.88Z" fill="black"/>
<path d="M85.4898 31.8978C86.6125 31.8978 87.5226 30.9877 87.5226 29.865C87.5226 28.7423 86.6125 27.8322 85.4898 27.8322C84.3671 27.8322 83.457 28.7423 83.457 29.865C83.457 30.9877 84.3671 31.8978 85.4898 31.8978Z" fill="#407BFF"/>
<path d="M86.5653 21.8944C86.5653 22.5126 86.0659 23.012 85.4477 23.012C84.8295 23.012 84.3301 22.5126 84.3301 21.8944C84.3301 21.2762 84.8295 20.7768 85.4477 20.7768C86.0659 20.7768 86.5653 21.2762 86.5653 21.8944Z" fill="#407BFF"/>
<path opacity="0.3" d="M86.5653 21.8944C86.5653 22.5126 86.0659 23.012 85.4477 23.012C84.8295 23.012 84.3301 22.5126 84.3301 21.8944C84.3301 21.2762 84.8295 20.7768 85.4477 20.7768C86.0659 20.7768 86.5653 21.2762 86.5653 21.8944Z" fill="black"/>
<path d="M77.5865 25.9231L72.7788 29.6175L72.8793 29.7483L77.687 26.0539L77.5865 25.9231Z" fill="#263238"/>
<path d="M78.3641 25.3418L71.9907 21.1178L72.0809 20.9814L78.1639 25.0118L77.4753 18.4052L77.6381 18.3876L78.3641 25.3418Z" fill="#263238"/>
<path d="M77.5567 19.6152C78.2298 19.6152 78.7755 19.0695 78.7755 18.3964C78.7755 17.7233 78.2298 17.1776 77.5567 17.1776C76.8836 17.1776 76.3379 17.7233 76.3379 18.3964C76.3379 19.0695 76.8836 19.6152 77.5567 19.6152Z" fill="#407BFF"/>
<path d="M73.2996 30.9482C73.9981 30.2497 73.9981 29.1172 73.2996 28.4187C72.6011 27.7202 71.4686 27.7202 70.7701 28.4187C70.0716 29.1172 70.0716 30.2497 70.7701 30.9482C71.4686 31.6467 72.6011 31.6467 73.2996 30.9482Z" fill="#407BFF"/>
<path d="M73.6002 21.1399C73.9111 19.83 73.1012 18.5162 71.7914 18.2053C70.4815 17.8945 69.1676 18.7044 68.8568 20.0142C68.5459 21.3241 69.3558 22.6379 70.6657 22.9488C71.9755 23.2596 73.2894 22.4498 73.6002 21.1399Z" fill="#407BFF"/>
<path d="M78.597 29.0004C80.5592 29.0004 82.1499 27.4097 82.1499 25.4474C82.1499 23.4851 80.5592 21.8944 78.597 21.8944C76.6347 21.8944 75.0439 23.4851 75.0439 25.4474C75.0439 27.4097 76.6347 29.0004 78.597 29.0004Z" fill="#407BFF"/>
<path opacity="0.3" d="M78.597 29.0004C80.5592 29.0004 82.1499 27.4097 82.1499 25.4474C82.1499 23.4851 80.5592 21.8944 78.597 21.8944C76.6347 21.8944 75.0439 23.4851 75.0439 25.4474C75.0439 27.4097 76.6347 29.0004 78.597 29.0004Z" fill="white"/>
<path opacity="0.4" d="M63.0498 41.2588L64.4424 39.7738H91.8654L93.258 41.2764L63.0498 41.2588Z" fill="black"/>
<path opacity="0.4" d="M63.0498 9.7988L64.4424 11.2838H91.8654L93.258 9.7988H63.0498Z" fill="black"/>
<path opacity="0.2" d="M93.2578 9.7988L91.8652 11.2838V39.7738L93.2578 41.2764V9.7988Z" fill="white"/>
<path opacity="0.2" d="M63.0498 9.7988L64.4424 11.2838V39.7738L63.0498 41.2764V9.7988Z" fill="white"/>
<g opacity="0.2">
<path d="M72.2833 18.9354C72.1535 18.755 71.7025 18.392 70.7851 18.634C70.2351 18.8254 69.9205 19.0762 69.5883 19.5558C69.2561 20.0332 69.1681 20.8164 69.4387 21.3334C69.5223 21.4962 69.6455 21.6436 69.8083 21.725C69.9711 21.8064 70.1779 21.8152 70.3319 21.714C70.6245 21.5226 70.5893 21.0848 70.7565 20.7768C70.9215 20.4754 71.2669 20.3302 71.5837 20.1982C71.9005 20.064 72.2415 19.8902 72.3647 19.569C72.4439 19.3622 72.4131 19.1158 72.2833 18.9354Z" fill="white"/>
</g>
<g opacity="0.2">
<path d="M77.8185 17.6462C77.7679 17.5736 77.5875 17.4306 77.2223 17.5252C77.0045 17.6022 76.8791 17.7012 76.7471 17.8904C76.6151 18.0796 76.5799 18.392 76.6877 18.5966C76.7207 18.6604 76.7691 18.7198 76.8351 18.7528C76.9011 18.7858 76.9825 18.788 77.0419 18.7484C77.1585 18.6714 77.1431 18.4976 77.2113 18.3766C77.2773 18.2578 77.4137 18.2006 77.5391 18.1456C77.6645 18.0928 77.8009 18.0224 77.8493 17.897C77.8801 17.8156 77.8691 17.7166 77.8163 17.6462H77.8185Z" fill="white"/>
</g>
<g opacity="0.2">
<path d="M85.8439 21.1508C85.7933 21.0782 85.6129 20.9352 85.2477 21.0298C85.0299 21.1068 84.9045 21.2058 84.7725 21.395C84.6405 21.5842 84.6053 21.8966 84.7131 22.1012C84.7461 22.165 84.7945 22.2244 84.8605 22.2574C84.9243 22.2904 85.0079 22.2926 85.0673 22.253C85.1839 22.176 85.1685 22.0022 85.2367 21.8812C85.3027 21.7624 85.4391 21.7052 85.5645 21.6502C85.6899 21.5974 85.8263 21.527 85.8747 21.4016C85.9055 21.3202 85.8945 21.2212 85.8417 21.1508H85.8439Z" fill="white"/>
</g>
<g opacity="0.2">
<path d="M86.022 28.6264C85.934 28.5054 85.6304 28.2612 85.0122 28.4218C84.6426 28.5516 84.4292 28.721 84.207 29.0422C83.9848 29.3634 83.9254 29.8914 84.1058 30.239C84.163 30.349 84.2444 30.448 84.3544 30.503C84.4644 30.558 84.603 30.5624 84.7064 30.4964C84.9044 30.3666 84.8802 30.0718 84.9924 29.865C85.1046 29.6626 85.3356 29.5658 85.549 29.4756C85.7624 29.3854 85.9912 29.2688 86.0748 29.0532C86.1276 28.9146 86.1078 28.7474 86.0198 28.6264H86.022Z" fill="white"/>
</g>
<g opacity="0.2">
<path d="M78.826 31.2092C78.7446 31.097 78.463 30.8704 77.8888 31.02C77.5456 31.1388 77.3476 31.2972 77.1408 31.5964C76.934 31.8956 76.879 32.384 77.0462 32.7074C77.099 32.8086 77.176 32.901 77.2772 32.9516C77.3784 33.0022 77.5082 33.0066 77.605 32.945C77.7876 32.8262 77.7656 32.5512 77.8712 32.3598C77.9746 32.1706 78.1902 32.0804 78.3882 31.9968C78.5862 31.9132 78.7996 31.8054 78.8766 31.6052C78.9272 31.4754 78.9074 31.3214 78.826 31.2092Z" fill="white"/>
</g>
<g opacity="0.2">
<path d="M72.5912 28.6198C72.5098 28.5076 72.2282 28.281 71.654 28.4306C71.3108 28.5494 71.1128 28.7078 70.906 29.007C70.6992 29.3062 70.6442 29.7946 70.8114 30.118C70.8642 30.2192 70.9412 30.3116 71.0424 30.3622C71.1436 30.4128 71.2734 30.4172 71.3702 30.3556C71.5528 30.2368 71.5308 29.9618 71.6364 29.7704C71.7398 29.5812 71.9554 29.491 72.1534 29.4074C72.3514 29.3238 72.5648 29.216 72.6418 29.0158C72.6924 28.886 72.6726 28.732 72.5912 28.6198Z" fill="white"/>
</g>
<g opacity="0.2">
<path d="M79.497 22.946C79.3298 22.7128 78.7468 22.2442 77.5566 22.5544C76.846 22.8008 76.4368 23.1286 76.01 23.7468C75.581 24.365 75.4688 25.3792 75.8164 26.0458C75.9264 26.2548 76.0848 26.4462 76.296 26.5518C76.5072 26.6574 76.7756 26.6684 76.9714 26.5386C77.3498 26.2922 77.3036 25.7246 77.5214 25.3264C77.7348 24.937 78.1836 24.75 78.5928 24.5762C79.002 24.4024 79.442 24.178 79.6026 23.7644C79.706 23.496 79.6642 23.1792 79.497 22.946Z" fill="white"/>
</g>
<path d="M70.8134 68.1362L68.5298 71.5836L70.6044 73.007L73.3632 69.6058C73.3632 69.6058 72.305 67.7556 70.8134 68.134V68.1362Z" fill="#263238"/>
<path d="M69.5002 63.3666L64.2158 65.208L64.867 67.6236L69.9424 66.5148C69.9424 66.5148 70.7762 64.6316 69.5002 63.3688V63.3666Z" fill="#263238"/>
<path d="M71.4009 64.7394L72.0631 66.8646L74.5491 68.7742L77.4443 68.992L85.1311 58.7554L85.7559 57.9172L85.1223 56.0054L91.0689 47.949L87.4719 45.2452L81.6837 53.5128L79.5233 53.6998L79.0085 54.3972L71.4009 64.7394Z" fill="#263238"/>
<path d="M79.0083 54.3972L85.1309 58.7554L85.7557 57.9172L85.1221 56.0054L91.0687 47.949L87.4717 45.2452L81.6835 53.5128L79.5231 53.6998L79.0083 54.3972Z" fill="#263238"/>
<path d="M72.4369 68.5916L70.4085 68.2682L69.4272 66.8492L70.261 63.8814L72.4369 68.5916Z" fill="#263238"/>
<path d="M75.0638 69.3308L70.5362 61.6066L68.73 62.6868L73.2994 70.675L75.0638 69.3308Z" fill="#263238"/>
<path opacity="0.2" d="M75.0638 69.3308L70.5362 61.6066L68.73 62.6868L73.2994 70.675L75.0638 69.3308Z" fill="white"/>
<path d="M69.9071 93.335L58.6849 86.8956L58.0425 88.0946L68.9809 94.4328L69.9071 93.335Z" fill="#263238"/>
<path opacity="0.1" d="M69.9071 93.335L58.6849 86.8956L58.0425 88.0946L68.9809 94.4328L69.9071 93.335Z" fill="white"/>
<path d="M64.3698 77.6534L63.25 79.6906L68.6334 82.6452L70.07 80.663L64.3698 77.6534Z" fill="#263238"/>
<path opacity="0.05" d="M64.3698 77.6534L63.25 79.6906L68.6334 82.6452L70.07 80.663L64.3698 77.6534Z" fill="white"/>
<path d="M77.2616 81.8972L75.6072 84.689L57.1426 74.4612L59.0764 71.6826L77.2616 81.8972Z" fill="#263238"/>
<path d="M69.7596 82.8058L62.933 79.057L62.0596 80.6344L68.7388 84.3634L69.7596 82.8058Z" fill="#263238"/>
<path opacity="0.2" d="M77.2616 81.8972L75.6072 84.689L57.1426 74.4612L59.0764 71.6826L77.2616 81.8972Z" fill="white"/>
<path opacity="0.1" d="M69.7596 82.8058L62.933 79.057L62.0596 80.6344L68.7388 84.3634L69.7596 82.8058Z" fill="white"/>
<path d="M87.5574 65.076L81.5712 62.2314L75.849 72.9696L81.1026 76.0166L81.272 75.9264C82.1938 75.4314 83.307 75.449 84.2134 75.9726L85.2034 76.5468C85.8326 76.9098 86.1318 77.6556 85.925 78.353C84.88 81.8752 82.79 84.9948 79.9322 87.3004C79.4966 87.6568 78.8828 87.7008 78.401 87.406L76.927 86.4292C76.2406 85.965 75.8226 85.1972 75.805 84.3678L67.8432 80.0074L67.2778 81.0414L71.0816 83.1974V87.9538L67.7574 94.6924L71.064 96.58C71.064 96.58 83.604 94.2964 88.213 84.7748C92.822 75.2532 87.5552 65.076 87.5552 65.076H87.5574Z" fill="#263238"/>
<path opacity="0.7" d="M87.5574 65.076L81.5712 62.2314L75.849 72.9696L81.1026 76.0166L81.272 75.9264C82.1938 75.4314 83.307 75.449 84.2134 75.9726L85.2034 76.5468C85.8326 76.9098 86.1318 77.6556 85.925 78.353C84.88 81.8752 82.79 84.9948 79.9322 87.3004C79.4966 87.6568 78.8828 87.7008 78.401 87.406L76.927 86.4292C76.2406 85.965 75.8226 85.1972 75.805 84.3678L67.8432 80.0074L67.2778 81.0414L71.0816 83.1974V87.9538L67.7574 94.6924L71.064 96.58C71.064 96.58 83.604 94.2964 88.213 84.7748C92.822 75.2532 87.5552 65.076 87.5552 65.076H87.5574Z" fill="white"/>
<path opacity="0.2" d="M79.2612 74.9496L89.5682 71.1216L89.7112 71.8718L80.1456 75.4622L79.2612 74.9496Z" fill="white"/>
<path opacity="0.2" d="M75.8516 72.9696L88.6028 67.6214C88.9174 68.486 89.1748 69.3792 89.3838 70.2944L78.694 74.6174L75.8516 72.9674V72.9696Z" fill="white"/>
<path d="M78.588 71.7816C78.4472 72.7474 79.1182 73.645 80.084 73.7858C81.0498 73.9266 81.9474 73.2556 82.0882 72.2898C82.229 71.324 81.5602 70.4286 80.5944 70.2878C79.6286 70.1492 78.731 70.818 78.588 71.7838V71.7816Z" fill="#263238"/>
<path d="M65.4653 90.1692L64.1474 92.1492L57.4771 88.3674L58.698 86.4292L65.4653 90.1692Z" fill="#263238"/>
<path d="M78.2097 64.3566C77.9655 66.0088 79.1073 67.5444 80.7595 67.7864C82.4117 68.0306 83.9473 66.8888 84.1915 65.2366C84.4357 63.5844 83.2939 62.0488 81.6417 61.8046H81.6329C79.9851 61.5648 78.4539 62.7066 78.2119 64.3544L78.2097 64.3566Z" fill="#263238"/>
<path opacity="0.2" d="M65.4653 90.1692L64.1474 92.1492L57.4771 88.3674L58.698 86.4292L65.4653 90.1692Z" fill="white"/>
<path opacity="0.5" d="M79.7057 64.5832C79.5847 65.4082 80.1545 66.1738 80.9795 66.2948C81.8045 66.4158 82.5701 65.846 82.6911 65.021C82.8121 64.196 82.2423 63.4304 81.4173 63.3094H81.4041C80.5835 63.1972 79.8267 63.7648 79.7035 64.5832H79.7057Z" fill="white"/>
<path d="M91.5242 98.6876H55.7236C55.7236 97.6294 57.4154 96.7714 59.5032 96.7714H89.6058C90.664 96.7714 91.522 97.6294 91.522 98.6876H91.5242Z" fill="#263238"/>
<path d="M82.8297 98.692L77.7543 89.8634C77.1955 88.8932 76.1417 88.319 75.0263 88.3762C73.4907 88.4554 72.2697 89.6918 72.2081 91.2296L71.9111 98.6854L82.8319 98.6942L82.8297 98.692Z" fill="#263238"/>
<path opacity="0.5" d="M82.8297 98.692L77.7543 89.8634C77.1955 88.8932 76.1417 88.319 75.0263 88.3762C73.4907 88.4554 72.2697 89.6918 72.2081 91.2296L71.9111 98.6854L82.8319 98.6942L82.8297 98.692Z" fill="white"/>
<path d="M73.5635 91.6366C73.5635 92.6156 74.3577 93.4098 75.3367 93.4098C76.3157 93.4098 77.1099 92.6156 77.1099 91.6366C77.1099 90.6576 76.3157 89.8634 75.3367 89.8634H75.3323C74.3555 89.8656 73.5635 90.6576 73.5635 91.6366Z" fill="#263238"/>
<path d="M60.9887 70.5974L60.0396 72.3125L70.5803 78.1458L71.5295 76.4307L60.9887 70.5974Z" fill="#407BFF"/>
<path d="M39.8154 52.0762C40.141 50.7012 41.252 49.5902 42.6072 49.214C43.9624 48.8378 45.377 49.3108 46.3604 50.27C47.2382 51.1258 47.6958 52.2588 47.7574 53.4732C47.7926 54.1464 47.8036 54.8218 47.8124 55.495C47.8432 57.5256 47.8366 59.5562 47.83 61.5846C47.8234 63.613 47.8036 65.7624 47.7816 67.8502C47.7706 68.9414 47.7112 70.0414 47.742 71.1304C47.742 71.1458 47.742 71.1634 47.742 71.1788C47.7354 71.6034 48.3954 71.6034 48.402 71.1788C48.4152 70.2108 48.4262 69.2428 48.4372 68.2748C48.4614 66.1474 48.479 64.0178 48.4878 61.8904C48.4966 59.763 48.5032 57.6554 48.4724 55.539C48.4614 54.8372 48.4504 54.1332 48.4152 53.4314C48.3448 52.1224 47.8674 50.8948 46.9588 49.9356C45.9732 48.8972 44.5256 48.2746 43.0868 48.4484C41.648 48.6222 40.251 49.5616 39.5602 50.8794C39.3908 51.2028 39.261 51.5438 39.1774 51.898C39.0784 52.3116 39.7164 52.4876 39.8132 52.074L39.8154 52.0762Z" fill="#407BFF"/>
<path d="M39.5755 52.0102C39.9209 50.5538 41.1045 49.3746 42.5411 48.9742C43.9777 48.5738 45.4891 49.0732 46.5363 50.094C47.4625 50.996 47.9421 52.1928 48.0059 53.471C48.0411 54.1442 48.0521 54.8196 48.0609 55.4928C48.0917 57.5234 48.0851 59.554 48.0785 61.5824C48.0719 63.6108 48.0521 65.7602 48.0301 67.848C48.0213 68.5828 48.0147 69.3176 48.0059 70.0502C48.0015 70.4022 47.9575 70.7784 47.9927 71.1282C47.9927 71.1436 47.9927 71.1612 47.9927 71.1766C47.9927 71.2822 48.1555 71.2822 48.1577 71.1766C48.1709 70.2086 48.1819 69.2406 48.1929 68.2726C48.2171 66.1452 48.2347 64.0156 48.2435 61.8882C48.2523 59.7608 48.2589 57.6532 48.2281 55.5368C48.2171 54.835 48.2061 54.131 48.1709 53.4292C48.1049 52.1862 47.6495 51.018 46.7871 50.1094C45.8433 49.115 44.4683 48.5254 43.0889 48.6948C41.7095 48.8642 40.4247 49.7684 39.7757 51.0026C39.6151 51.3062 39.4963 51.6296 39.4171 51.964C39.3929 52.0674 39.5513 52.1114 39.5755 52.008V52.0102Z" fill="white"/>
<path d="M101.18 96.8396L98.1289 82.0094H86.6383L83.5869 96.8396C83.3625 97.9352 84.0885 98.9868 85.0697 98.9868H99.6953C100.679 98.9868 101.405 97.9374 101.178 96.8396H101.18Z" fill="#407BFF"/>
<path d="M92.6837 82.0116H86.3455C86.0001 82.0116 85.7207 81.7322 85.7207 81.3868C85.7207 81.0414 86.0001 80.762 86.3455 80.762H92.6837V82.0116Z" fill="#407BFF"/>
<path d="M92.0811 82.0116H98.4193C98.7647 82.0116 99.0441 81.7322 99.0441 81.3868C99.0441 81.0414 98.7647 80.762 98.4193 80.762H92.0811V82.0116Z" fill="#407BFF"/>
<g opacity="0.3">
<path d="M92.6837 82.0116H86.3455C86.0001 82.0116 85.7207 81.7322 85.7207 81.3868C85.7207 81.0414 86.0001 80.762 86.3455 80.762H92.6837V82.0116Z" fill="white"/>
<path d="M92.0811 82.0116H98.4193C98.7647 82.0116 99.0441 81.7322 99.0441 81.3868C99.0441 81.0414 98.7647 80.762 98.4193 80.762H92.0811V82.0116Z" fill="white"/>
</g>
<path opacity="0.3" d="M101.18 96.8396L98.1289 82.0094H86.6383L83.5869 96.8396C83.3625 97.9352 84.0885 98.9868 85.0697 98.9868H99.6953C100.679 98.9868 101.405 97.9374 101.178 96.8396H101.18Z" fill="white"/>
<path opacity="0.3" d="M97.4646 82.0116H87.3424L84.511 96.69C84.3856 97.3434 84.819 97.9616 85.402 97.9616H99.4028C99.9858 97.9616 100.421 97.3434 100.294 96.69L97.4624 82.0116H97.4646Z" fill="white"/>
<path opacity="0.3" d="M86.6381 82.0116L86.5391 82.4868H98.2255L98.1287 82.0116H86.6381Z" fill="black"/>
<path opacity="0.3" d="M89.0185 81.4682H86.7459C86.6315 81.4682 86.5391 81.3758 86.5391 81.2614C86.5391 81.147 86.6315 81.0546 86.7459 81.0546H89.0185C89.1329 81.0546 89.2253 81.147 89.2253 81.2614C89.2253 81.3758 89.1329 81.4682 89.0185 81.4682Z" fill="white"/>
<path opacity="0.3" d="M89.8284 81.4682H89.5974C89.483 81.4682 89.3906 81.3758 89.3906 81.2614C89.3906 81.147 89.483 81.0546 89.5974 81.0546H89.8284C89.9428 81.0546 90.0352 81.147 90.0352 81.2614C90.0352 81.3758 89.9428 81.4682 89.8284 81.4682Z" fill="white"/>
<path d="M100.296 96.69L98.9474 89.6984L85.8442 89.7776L84.511 96.69C84.3856 97.3434 84.819 97.9616 85.402 97.9616H99.4028C99.9858 97.9616 100.421 97.3434 100.294 96.69H100.296Z" fill="#407BFF"/>
<path d="M92.4112 89.4168C88.7856 89.4168 85.8442 89.5774 85.8442 89.7776C85.8442 89.9778 88.7834 90.1384 92.4112 90.1384C96.039 90.1384 98.9782 89.9778 98.9782 89.7776C98.9782 89.5774 96.039 89.4168 92.4112 89.4168Z" fill="#407BFF"/>
<path opacity="0.3" d="M92.4112 89.4168C88.7856 89.4168 85.8442 89.5774 85.8442 89.7776C85.8442 89.9778 88.7834 90.1384 92.4112 90.1384C96.039 90.1384 98.9782 89.9778 98.9782 89.7776C98.9782 89.5774 96.039 89.4168 92.4112 89.4168Z" fill="black"/>
<g opacity="0.3">
<path d="M89.4523 84.447C89.8439 84.6494 89.7361 85.1862 89.7031 85.4018C89.4633 86.9484 89.3885 88.0924 89.0629 89.6324C88.9617 90.1076 88.7901 90.5872 88.4535 90.9392C88.1169 91.289 87.5229 91.4452 87.1423 91.146C86.7287 90.8204 86.7705 90.1934 86.8541 89.6742C87.0257 88.5984 87.1951 87.5248 87.3667 86.449C87.4349 86.0156 87.5075 85.5734 87.7055 85.1818C87.9057 84.7902 88.2555 84.4492 88.6889 84.3788C88.6889 84.3788 89.2147 84.3282 89.4501 84.4492L89.4523 84.447Z" fill="white"/>
</g>
<path opacity="0.3" d="M88.2269 94.435C88.0707 95.1478 87.5427 95.6384 87.0477 95.5306C86.5527 95.4228 86.2799 94.7562 86.4361 94.0434C86.5923 93.3306 87.1203 92.84 87.6153 92.9478C88.1103 93.0556 88.3831 93.7222 88.2269 94.435Z" fill="white"/>
<path opacity="0.5" d="M99.3961 97.5942H85.3953C84.9377 97.5942 84.5725 97.2136 84.4977 96.734C84.3987 97.3698 84.8255 97.9616 85.3953 97.9616H99.3961C99.9659 97.9616 100.393 97.3698 100.294 96.734C100.219 97.2136 99.8537 97.5942 99.3961 97.5942Z" fill="white"/>
<path d="M16.5748 68.8424C16.4164 66.8822 16.258 64.922 16.0996 62.9618C15.9522 61.1292 15.7322 59.2856 15.675 57.4464C15.631 56.0186 15.8642 54.3246 17.2656 53.5876C17.8398 53.2862 18.612 53.1718 19.162 53.5898C19.712 54.0078 19.8242 54.7888 19.9034 55.4224C19.9826 56.056 20.0398 56.8942 19.5052 57.3826C19.0278 57.8182 18.2974 57.7676 17.7298 57.5564C16.2998 57.0218 15.8994 55.3718 16.3548 54.0298C16.8718 52.5052 18.3282 51.4558 19.6746 50.7034C21.1882 49.8586 22.8426 49.2822 24.5454 48.9676C25.3484 48.8202 26.1778 48.7058 26.994 48.7586C27.6958 48.8026 28.479 49.005 28.897 49.6188C29.315 50.2326 29.3062 51.029 29.293 51.7418C29.2754 52.7098 29.1852 53.6756 29.0202 54.6282C28.9388 55.1034 28.8376 55.5764 28.7232 56.045C28.622 56.4564 29.2578 56.6324 29.359 56.221C29.6164 55.1694 29.7946 54.1002 29.8848 53.0222C29.964 52.096 30.0498 51.0928 29.8364 50.1776C29.6428 49.3482 29.1104 48.7036 28.3228 48.3802C27.5352 48.0568 26.6376 48.0502 25.8016 48.1316C23.8414 48.323 21.9164 48.8598 20.1454 49.7178C18.5394 50.4944 16.8498 51.5768 15.9984 53.2004C15.2328 54.659 15.312 56.672 16.7046 57.7346C17.9014 58.6476 19.976 58.674 20.4952 56.9932C20.7262 56.2452 20.5986 55.3674 20.4336 54.6172C20.2686 53.867 19.8572 53.1036 19.0784 52.8C18.2996 52.4964 17.4658 52.6966 16.797 53.0948C16.0776 53.5238 15.5848 54.2278 15.3076 55.0088C15.0304 55.7898 14.9864 56.6874 15.0172 57.53C15.0546 58.542 15.1646 59.554 15.246 60.5638C15.4242 62.7792 15.6046 64.9924 15.7828 67.2078L15.9148 68.8424C15.9478 69.2626 16.61 69.267 16.5748 68.8424Z" fill="#407BFF"/>
<path d="M16.3284 68.8424C16.17 66.8822 16.0116 64.922 15.8532 62.9618C15.7058 61.1292 15.4858 59.2856 15.4286 57.4464C15.3802 55.9306 15.6618 54.153 17.1424 53.3742C17.798 53.0288 18.6582 52.9144 19.2874 53.3764C19.9166 53.8384 20.0618 54.6964 20.152 55.4224C20.2422 56.1484 20.2686 57.0196 19.6812 57.5586C19.1378 58.058 18.3194 58.0382 17.666 57.7962C16.1106 57.2176 15.6156 55.4444 16.1172 53.9638C16.6562 52.3732 18.1434 51.2776 19.5514 50.49C21.0826 49.6342 22.759 49.0468 24.4816 48.73C25.8852 48.4704 28.1622 48.081 29.1126 49.4934C29.5526 50.1468 29.557 50.9828 29.5438 51.7418C29.524 52.7318 29.4316 53.7196 29.2622 54.6942C29.1808 55.1694 29.0796 55.6424 28.9652 56.111C28.9388 56.2144 29.0994 56.2584 29.1236 56.155C29.3766 55.1254 29.5526 54.0782 29.6406 53.0222C29.7176 52.1202 29.8078 51.1346 29.601 50.2436C29.425 49.489 28.952 48.8994 28.2304 48.6068C27.4714 48.2988 26.609 48.301 25.806 48.3802C23.892 48.565 22.0044 49.0952 20.273 49.9334C18.7044 50.6924 17.0478 51.7396 16.214 53.328C15.5122 54.6634 15.5606 56.5334 16.8322 57.5234C17.8838 58.344 19.789 58.4518 20.2598 56.9294C20.4776 56.2232 20.3544 55.3938 20.1982 54.6854C20.042 53.977 19.7076 53.3214 19.0168 53.042C18.326 52.7626 17.5384 52.9474 16.9246 53.3126C16.2624 53.7064 15.8026 54.3598 15.5496 55.0792C15.2724 55.8624 15.2372 56.7116 15.268 57.5344C15.3054 58.5464 15.4154 59.5584 15.4968 60.5682C15.675 62.7836 15.8554 64.9968 16.0336 67.2122L16.1656 68.8468C16.1744 68.9524 16.3394 68.9524 16.3306 68.8468L16.3284 68.8424Z" fill="white"/>
<path d="M18.5808 75.79L18.8074 68.442L16.5458 67.9888L14.2842 68.442L14.5108 75.79C14.5108 75.79 9.82043 77.7106 10.102 82.4604C10.3154 86.042 12.5704 87.4632 15.0498 87.934C16.0354 88.121 17.054 88.121 18.0396 87.934C20.519 87.4632 22.774 86.042 22.9874 82.4604C23.269 77.7128 18.5786 75.79 18.5786 75.79H18.5808Z" fill="#407BFF"/>
<path opacity="0.3" d="M18.5808 75.79L18.8074 68.442L16.5458 67.9888L14.2842 68.442L14.5108 75.79C14.5108 75.79 9.82043 77.7106 10.102 82.4604C10.3154 86.042 12.5704 87.4632 15.0498 87.934C16.0354 88.121 17.054 88.121 18.0396 87.934C20.519 87.4632 22.774 86.042 22.9874 82.4604C23.269 77.7128 18.5786 75.79 18.5786 75.79H18.5808Z" fill="white"/>
<path opacity="0.3" d="M18.1803 76.0628L18.2793 68.7698L16.4753 68.6774L14.7373 68.761L14.9221 76.087C14.9221 76.087 10.3879 77.9856 10.6475 82.3328C10.8543 85.7978 13.1467 87.0518 15.5667 87.4082C16.2157 87.5028 16.8757 87.5028 17.5247 87.4082C19.9425 87.0518 22.2371 85.7978 22.4439 82.3328C22.7035 77.9878 18.1803 76.0628 18.1803 76.0628Z" fill="white"/>
<path d="M18.8206 68.7698H14.1302C13.7628 68.7698 13.4658 68.4728 13.4658 68.1054C13.4658 67.738 13.7628 67.441 14.1302 67.441H18.8206C19.188 67.441 19.485 67.738 19.485 68.1054C19.485 68.4728 19.188 68.7698 18.8206 68.7698Z" fill="#407BFF"/>
<path opacity="0.3" d="M18.8206 68.7698H14.1302C13.7628 68.7698 13.4658 68.4728 13.4658 68.1054C13.4658 67.738 13.7628 67.441 14.1302 67.441H18.8206C19.188 67.441 19.485 67.738 19.485 68.1054C19.485 68.4728 19.188 68.7698 18.8206 68.7698Z" fill="white"/>
<path opacity="0.3" d="M14.2954 68.7698L14.3064 69.1724H18.7834L18.7966 68.7698H14.2954Z" fill="black"/>
<path opacity="0.3" d="M16.2311 68.1252H14.5195C14.4249 68.1252 14.3457 68.0482 14.3457 67.9514C14.3457 67.8568 14.4227 67.7776 14.5195 67.7776H16.2311C16.3257 67.7776 16.4049 67.8546 16.4049 67.9514C16.4049 68.046 16.3279 68.1252 16.2311 68.1252Z" fill="white"/>
<path d="M10.6475 82.3328C10.8543 85.7978 13.1467 87.0518 15.5667 87.4082C16.2157 87.5028 16.8757 87.5028 17.5247 87.4082C19.9425 87.0518 22.2371 85.7978 22.4439 82.3328H10.6475Z" fill="#407BFF"/>
<path opacity="0.5" d="M17.5247 87.065C16.8757 87.1596 16.2157 87.1596 15.5667 87.065C13.2303 86.7218 11.0083 85.5382 10.6761 82.3306H10.6475C10.8543 85.7956 13.1467 87.0496 15.5667 87.406C16.2157 87.5006 16.8757 87.5006 17.5247 87.406C19.9425 87.0496 22.2371 85.7956 22.4439 82.3306H22.4153C22.0831 85.536 19.8611 86.7196 17.5247 87.065Z" fill="white"/>
<path d="M22.3715 82.3328C22.3715 82.522 19.7447 82.676 16.5041 82.676C13.2635 82.676 10.6367 82.522 10.6367 82.3328C10.6367 82.1436 13.2635 81.9896 16.5041 81.9896C19.7447 81.9896 22.3715 82.1436 22.3715 82.3328Z" fill="#407BFF"/>
<path opacity="0.3" d="M22.3715 82.3328C22.3715 82.522 19.7447 82.676 16.5041 82.676C13.2635 82.676 10.6367 82.522 10.6367 82.3328C10.6367 82.1436 13.2635 81.9896 16.5041 81.9896C19.7447 81.9896 22.3715 82.1436 22.3715 82.3328Z" fill="black"/>
<g opacity="0.3">
<path d="M14.6607 77.5588C14.9379 77.6666 15.1513 77.9152 15.1689 78.2122C15.1865 78.5092 15.0567 78.7952 14.8917 79.0416C14.7267 79.288 14.5199 79.5058 14.3571 79.7544C14.1635 80.0492 14.0315 80.3814 13.8687 80.6938C13.7059 81.0084 13.5013 81.3142 13.2065 81.5078C12.9117 81.7014 12.5047 81.7608 12.2033 81.5738C11.8359 81.3494 11.7391 80.8566 11.7633 80.4276C11.8359 79.1494 12.7467 77.957 13.9633 77.5522C13.9633 77.5522 14.3527 77.4378 14.6607 77.5588Z" fill="white"/>
</g>
<path d="M18.4575 86.2862C19.9183 85.8022 21.1063 84.6362 21.6167 83.1864C21.3329 84.7264 19.9997 86.031 18.4575 86.2862Z" fill="white"/>
<path d="M21.8169 82.676C22.1359 82.676 22.1359 82.181 21.8169 82.181C21.4979 82.181 21.4979 82.676 21.8169 82.676Z" fill="white"/>
<path d="M24.4748 84.887H9.18262V85.9958H24.4748V84.887Z" fill="#263238"/>
<path d="M11.2266 85.745H10.0474V98.6458H11.2266V85.745Z" fill="#263238"/>
<path d="M23.313 85.745H22.1338V98.6458H23.313V85.745Z" fill="#263238"/>
<path d="M13.8157 96.8484H19.0759C19.4125 96.8484 19.6875 97.1234 19.6875 97.46V98.6172H13.2041V97.46C13.2041 97.1234 13.4791 96.8484 13.8157 96.8484Z" fill="#263238"/>
<path d="M16.5636 91.2956C16.3634 91.212 16.0752 91.1856 15.9784 91.3792C15.875 91.5838 16.0884 91.7972 16.1676 92.0106C16.293 92.345 16.073 92.7146 15.8068 92.9522C15.5406 93.1898 15.2128 93.3702 15.0126 93.665C14.7376 94.0698 14.764 94.6374 15.028 95.051C15.292 95.4646 15.8046 95.854 16.2908 95.9134C17.58 95.7462 18.0596 94.5802 18.0772 93.6034C18.0948 92.6266 17.4678 91.6696 16.5636 91.2956Z" fill="#407BFF"/>
<g opacity="0.3">
<path d="M16.7021 93.3658C16.6009 93.2866 16.4469 93.335 16.4029 93.456C16.3237 93.6738 16.1565 93.9466 16.0663 94.0258C15.9365 94.1424 15.7759 94.2304 15.6769 94.3756C15.5427 94.5736 15.5537 94.853 15.6835 95.0554C15.8067 95.2468 16.0399 95.4294 16.2665 95.4734C16.2907 95.4778 16.3149 95.4778 16.3391 95.4734C16.9441 95.3744 17.1707 94.8156 17.1795 94.347C17.1861 93.9708 16.9969 93.599 16.6999 93.368L16.7021 93.3658Z" fill="black"/>
</g>
<path d="M17.4745 96.2346H15.4175V96.9672H17.4745V96.2346Z" fill="#263238"/>
<path d="M16.5086 95.4734H16.0972V96.294H16.5086V95.4734Z" fill="#263238"/>
<path d="M52.9912 97.1124V68.9634H48.6396H46.3472H45.2736L46.3472 70.7674V97.1124L45.1108 98.6458H45.3242H54.1924L52.9912 97.1124Z" fill="#407BFF"/>
<path opacity="0.3" d="M52.9912 97.1124V68.9634H48.6396H46.3472H45.2736L46.3472 70.7674V97.1124L45.1108 98.6458H45.3242H54.1924L52.9912 97.1124Z" fill="white"/>
<path opacity="0.3" d="M49.6499 96.9034C48.1429 96.9034 46.9219 95.6824 46.9219 94.1754V68.9612H52.3757V94.1754C52.3757 95.6824 51.1547 96.9034 49.6477 96.9034H49.6499Z" fill="white"/>
<path d="M53.3324 69.1636H45.089C44.8998 69.1636 44.748 69.0118 44.748 68.8226C44.748 68.6334 44.8998 68.4816 45.089 68.4816H53.3324C53.5216 68.4816 53.6734 68.6334 53.6734 68.8226C53.6734 69.0118 53.5216 69.1636 53.3324 69.1636Z" fill="#407BFF"/>
<path opacity="0.3" d="M53.3324 69.1636H45.089C44.8998 69.1636 44.748 69.0118 44.748 68.8226C44.748 68.6334 44.8998 68.4816 45.089 68.4816H53.3324C53.5216 68.4816 53.6734 68.6334 53.6734 68.8226C53.6734 69.0118 53.5216 69.1636 53.3324 69.1636Z" fill="white"/>
<path opacity="0.3" d="M45.3926 69.1636L45.6082 69.5266H52.9914V69.1636H45.3926Z" fill="black"/>
<path d="M49.6499 96.9034C48.1429 96.9034 46.9219 95.6824 46.9219 94.1754V83.7276H52.3757V94.1754C52.3757 95.6824 51.1547 96.9034 49.6477 96.9034H49.6499Z" fill="#407BFF"/>
<path d="M49.6499 84.0356C51.1565 84.0356 52.3779 83.8977 52.3779 83.7276C52.3779 83.5575 51.1565 83.4196 49.6499 83.4196C48.1432 83.4196 46.9219 83.5575 46.9219 83.7276C46.9219 83.8977 48.1432 84.0356 49.6499 84.0356Z" fill="#407BFF"/>
<path opacity="0.3" d="M49.6499 84.0356C51.1565 84.0356 52.3779 83.8977 52.3779 83.7276C52.3779 83.5575 51.1565 83.4196 49.6499 83.4196C48.1432 83.4196 46.9219 83.5575 46.9219 83.7276C46.9219 83.8977 48.1432 84.0356 49.6499 84.0356Z" fill="black"/>
<path opacity="0.5" d="M49.6518 96.4128C48.1448 96.4128 46.9238 95.1918 46.9238 93.6848V94.1754C46.9238 95.6824 48.1448 96.9034 49.6518 96.9034C51.1588 96.9034 52.3798 95.6824 52.3798 94.1754V93.6848C52.3798 95.1918 51.1588 96.4128 49.6518 96.4128Z" fill="white"/>
<g opacity="0.5">
<path d="M47.7114 78.5136C47.6872 81.004 47.6652 83.4922 47.641 85.9826C47.6366 86.3522 47.6366 86.7372 47.7532 87.0738C47.8698 87.4126 48.1426 87.692 48.4264 87.637C48.6486 87.5952 48.8246 87.3598 48.9148 87.0958C49.005 86.8296 49.0204 86.5348 49.0358 86.2466C49.1414 84.15 49.1106 82.0622 49.1084 79.9634C49.1084 79.3166 49.0424 78.694 48.9456 78.0604C48.8796 77.6314 48.5738 77.3476 48.2416 77.374C47.9094 77.4004 47.7048 77.7524 47.7114 78.5158" fill="white"/>
</g>
<path opacity="0.5" d="M48.8291 75.6888C48.8291 76.1728 48.5629 76.5644 48.2351 76.5644C47.9073 76.5644 47.6411 76.1728 47.6411 75.6888C47.6411 75.2048 47.9073 74.8132 48.2351 74.8132C48.5629 74.8132 48.8291 75.2048 48.8291 75.6888Z" fill="white"/>
<path d="M50.9126 73.4822C51.6056 73.4074 52.3008 73.4074 52.9938 73.4822C52.3008 73.557 51.6056 73.557 50.9126 73.4822Z" fill="#263238"/>
<path d="M50.9126 78.2936C51.6056 78.2188 52.3008 78.2188 52.9938 78.2936C52.3008 78.3684 51.6056 78.3684 50.9126 78.2936Z" fill="#263238"/>
<path d="M52.1182 76.0144C52.4086 75.9396 52.7034 75.9396 52.9938 76.0144C52.7034 76.0892 52.4086 76.0892 52.1182 76.0144Z" fill="#263238"/>
<path d="M50.9126 82.676C51.6056 82.6012 52.3008 82.6012 52.9938 82.676C52.3008 82.7508 51.6056 82.7508 50.9126 82.676Z" fill="#263238"/>
<path d="M52.1182 80.3968C52.4086 80.322 52.7034 80.322 52.9938 80.3968C52.7034 80.4716 52.4086 80.4716 52.1182 80.3968Z" fill="#263238"/>
<path d="M50.9126 87.0606C51.6056 86.9858 52.3008 86.9858 52.9938 87.0606C52.3008 87.1354 51.6056 87.1354 50.9126 87.0606Z" fill="#263238"/>
<path d="M52.1182 84.7814C52.4086 84.7066 52.7034 84.7066 52.9938 84.7814C52.7034 84.8562 52.4086 84.8562 52.1182 84.7814Z" fill="#263238"/>
<path d="M50.9126 91.443C51.6056 91.3682 52.3008 91.3682 52.9938 91.443C52.3008 91.5178 51.6056 91.5178 50.9126 91.443Z" fill="#263238"/>
<path d="M52.1182 89.1638C52.4086 89.089 52.7034 89.089 52.9938 89.1638C52.7034 89.2386 52.4086 89.2386 52.1182 89.1638Z" fill="#263238"/>
<path d="M29.1213 74.4304C27.8277 74.4304 26.7783 73.381 26.7783 72.0874V53.3214C26.7783 52.8088 27.1941 52.393 27.7067 52.393H30.5337C31.0463 52.393 31.4621 52.8088 31.4621 53.3214V72.0874C31.4621 73.381 30.4127 74.4304 29.1191 74.4304H29.1213Z" fill="#407BFF"/>
<path opacity="0.3" d="M29.1213 74.4304C27.8277 74.4304 26.7783 73.381 26.7783 72.0874V53.3214C26.7783 52.8088 27.1941 52.393 27.7067 52.393H30.5337C31.0463 52.393 31.4621 52.8088 31.4621 53.3214V72.0874C31.4621 73.381 30.4127 74.4304 29.1191 74.4304H29.1213Z" fill="white"/>
<path opacity="0.3" d="M27.179 52.2192V71.8938C27.179 72.9784 28.0568 73.8562 29.1414 73.8562C30.226 73.8562 31.1038 72.9784 31.1038 71.8938V52.2192H27.1768H27.179Z" fill="white"/>
<path d="M27.179 63.7318V71.8938C27.179 72.9784 28.0568 73.8562 29.1414 73.8562C30.226 73.8562 31.1038 72.9784 31.1038 71.8938V63.7318H27.1768H27.179Z" fill="#407BFF"/>
<path opacity="0.5" d="M29.1411 73.5702C27.8959 73.546 27.1787 72.5274 27.1787 71.4428V71.8938C27.1787 72.9784 28.0565 73.8562 29.1411 73.8562C30.2257 73.8562 31.1035 72.9784 31.1035 71.8938V71.4428C31.1035 72.5274 30.3511 73.5922 29.1411 73.5702Z" fill="white"/>
<path d="M31.5104 53.207H26.7342C26.3602 53.207 26.0566 52.9034 26.0566 52.5294C26.0566 52.1554 26.3602 51.8518 26.7342 51.8518H31.5104C31.8844 51.8518 32.188 52.1554 32.188 52.5294C32.188 52.9034 31.8844 53.207 31.5104 53.207Z" fill="#407BFF"/>
<path opacity="0.3" d="M31.5104 53.207H26.7342C26.3602 53.207 26.0566 52.9034 26.0566 52.5294C26.0566 52.1554 26.3602 51.8518 26.7342 51.8518H31.5104C31.8844 51.8518 32.188 52.1554 32.188 52.5294C32.188 52.9034 31.8844 53.207 31.5104 53.207Z" fill="white"/>
<path opacity="0.3" d="M31.4621 53.207H26.7783V53.4688H31.4621V53.207Z" fill="black"/>
<path d="M31.106 63.7318C31.106 63.8814 30.2282 64.0024 29.1436 64.0024C28.059 64.0024 27.1812 63.8814 27.1812 63.7318C27.1812 63.5822 28.059 63.4612 29.1436 63.4612C30.2282 63.4612 31.106 63.5822 31.106 63.7318Z" fill="#407BFF"/>
<path opacity="0.3" d="M31.106 63.7318C31.106 63.8814 30.2282 64.0024 29.1436 64.0024C28.059 64.0024 27.1812 63.8814 27.1812 63.7318C27.1812 63.5822 28.059 63.4612 29.1436 63.4612C30.2282 63.4612 31.106 63.5822 31.106 63.7318Z" fill="black"/>
<path opacity="0.3" d="M28.1558 67.5664C27.9336 67.5664 27.7554 67.386 27.7554 67.166V62.4338C27.7554 62.2402 27.8918 62.0752 28.081 62.04C28.3274 61.9938 28.5584 62.183 28.5584 62.4338V67.166C28.5584 67.3882 28.378 67.5664 28.158 67.5664H28.1558Z" fill="white"/>
<path opacity="0.3" d="M28.1907 69.3572C28.4325 69.3572 28.6285 69.1612 28.6285 68.9194C28.6285 68.6776 28.4325 68.4816 28.1907 68.4816C27.9489 68.4816 27.7529 68.6776 27.7529 68.9194C27.7529 69.1612 27.9489 69.3572 28.1907 69.3572Z" fill="white"/>
<path d="M30.5578 65.9714C30.5908 67.4608 30.593 68.9524 30.5578 70.4418C30.5226 68.9524 30.5248 67.4608 30.5578 65.9714Z" fill="white"/>
<path d="M32.4061 60.1194H26.0547V61.3492H32.4061V60.1194Z" fill="#263238"/>
<path d="M38.9553 74.4304C37.6617 74.4304 36.6123 73.381 36.6123 72.0874V53.3214C36.6123 52.8088 37.0281 52.393 37.5407 52.393H40.3677C40.8803 52.393 41.2961 52.8088 41.2961 53.3214V72.0874C41.2961 73.381 40.2467 74.4304 38.9531 74.4304H38.9553Z" fill="#407BFF"/>
<path opacity="0.3" d="M38.9553 74.4304C37.6617 74.4304 36.6123 73.381 36.6123 72.0874V53.3214C36.6123 52.8088 37.0281 52.393 37.5407 52.393H40.3677C40.8803 52.393 41.2961 52.8088 41.2961 53.3214V72.0874C41.2961 73.381 40.2467 74.4304 38.9531 74.4304H38.9553Z" fill="white"/>
<path opacity="0.3" d="M37.0105 52.2192V71.8938C37.0105 72.9784 37.8883 73.8562 38.9729 73.8562C40.0575 73.8562 40.9353 72.9784 40.9353 71.8938V52.2192H37.0083H37.0105Z" fill="white"/>
<path d="M37.0105 63.7318V71.8938C37.0105 72.9784 37.8883 73.8562 38.9729 73.8562C40.0575 73.8562 40.9353 72.9784 40.9353 71.8938V63.7318H37.0083H37.0105Z" fill="#407BFF"/>
<path opacity="0.5" d="M38.9751 73.5702C37.7299 73.546 37.0127 72.5274 37.0127 71.4428V71.8938C37.0127 72.9784 37.8905 73.8562 38.9751 73.8562C40.0597 73.8562 40.9375 72.9784 40.9375 71.8938V71.4428C40.9375 72.5274 40.1851 73.5922 38.9751 73.5702Z" fill="white"/>
<path d="M41.3425 53.207H36.5663C36.1923 53.207 35.8887 52.9034 35.8887 52.5294C35.8887 52.1554 36.1923 51.8518 36.5663 51.8518H41.3425C41.7165 51.8518 42.0201 52.1554 42.0201 52.5294C42.0201 52.9034 41.7165 53.207 41.3425 53.207Z" fill="#407BFF"/>
<path opacity="0.3" d="M41.3425 53.207H36.5663C36.1923 53.207 35.8887 52.9034 35.8887 52.5294C35.8887 52.1554 36.1923 51.8518 36.5663 51.8518H41.3425C41.7165 51.8518 42.0201 52.1554 42.0201 52.5294C42.0201 52.9034 41.7165 53.207 41.3425 53.207Z" fill="white"/>
<path opacity="0.3" d="M41.2961 53.207H36.6123V53.4688H41.2961V53.207Z" fill="black"/>
<path d="M40.9375 63.7318C40.9375 63.8814 40.0597 64.0024 38.9751 64.0024C37.8905 64.0024 37.0127 63.8814 37.0127 63.7318C37.0127 63.5822 37.8905 63.4612 38.9751 63.4612C40.0597 63.4612 40.9375 63.5822 40.9375 63.7318Z" fill="#407BFF"/>
<path opacity="0.3" d="M40.9375 63.7318C40.9375 63.8814 40.0597 64.0024 38.9751 64.0024C37.8905 64.0024 37.0127 63.8814 37.0127 63.7318C37.0127 63.5822 37.8905 63.4612 38.9751 63.4612C40.0597 63.4612 40.9375 63.5822 40.9375 63.7318Z" fill="black"/>
<path opacity="0.3" d="M37.9898 67.5664C37.7676 67.5664 37.5894 67.386 37.5894 67.166V62.4338C37.5894 62.2402 37.7258 62.0752 37.915 62.04C38.1614 61.9938 38.3924 62.183 38.3924 62.4338V67.166C38.3924 67.3882 38.212 67.5664 37.992 67.5664H37.9898Z" fill="white"/>
<path opacity="0.3" d="M38.0247 69.3572C38.2665 69.3572 38.4625 69.1612 38.4625 68.9194C38.4625 68.6776 38.2665 68.4816 38.0247 68.4816C37.7829 68.4816 37.5869 68.6776 37.5869 68.9194C37.5869 69.1612 37.7829 69.3572 38.0247 69.3572Z" fill="white"/>
<path d="M40.3898 65.9714C40.4228 67.4608 40.425 68.9524 40.3898 70.4418C40.3546 68.9524 40.3568 67.4608 40.3898 65.9714Z" fill="white"/>
<path d="M42.2401 60.1194H35.8887V61.3492H42.2401V60.1194Z" fill="#263238"/>
<path d="M34.1485 49.9136C35.0574 49.9136 35.7941 49.1768 35.7941 48.268C35.7941 47.3592 35.0574 46.6224 34.1485 46.6224C33.2397 46.6224 32.5029 47.3592 32.5029 48.268C32.5029 49.1768 33.2397 49.9136 34.1485 49.9136Z" fill="#263238"/>
<path d="M34.6832 49.291H33.6118V98.5138H34.6832V49.291Z" fill="#263238"/>
<path d="M42.9726 98.5138H25.3242C25.3242 97.8956 25.8258 97.394 26.444 97.394H41.8506C42.4688 97.394 42.9704 97.8956 42.9704 98.5138H42.9726Z" fill="#263238"/>
<path d="M31.3192 60.8344H36.4804C36.6938 60.8344 36.6938 60.5044 36.4804 60.5044H31.3192C31.1058 60.5044 31.1058 60.8344 31.3192 60.8344Z" fill="#263238"/>
</svg>
