<svg width="24" height="24" viewBox="0 0 24 24" fill="none" xmlns="http://www.w3.org/2000/svg">
<path d="M12.0002 8.14294C9.86995 8.14294 8.14307 9.86986 8.14307 12.0001C8.14307 14.1303 9.86995 15.8573 12.0002 15.8573C13.1563 15.8573 14.1936 15.3486 14.9006 14.5428C15.4962 13.864 15.8574 12.9742 15.8574 12.0001C15.8574 11.6058 15.7982 11.2254 15.6883 10.8672C15.2044 9.28984 13.7362 8.14294 12.0002 8.14294ZM9.42878 12.0001C9.42878 10.5799 10.58 9.42869 12.0002 9.42869C13.4204 9.42869 14.5716 10.5799 14.5716 12.0001C14.5716 13.4202 13.4204 14.5715 12.0002 14.5715C10.58 14.5715 9.42878 13.4202 9.42878 12.0001Z" fill="#FFA62B"/>
<path d="M18.6082 19.1956L17.1275 18.5455C16.7039 18.3598 16.2063 18.387 15.8059 18.6188C15.4056 18.8506 15.1502 19.2594 15.0994 19.72L14.9214 21.3305C14.8846 21.6626 14.6436 21.9358 14.3192 22.0132C12.7942 22.3767 11.2052 22.3767 9.68018 22.0132C9.35575 21.9358 9.11472 21.6626 9.07804 21.3305L8.90027 19.7223C8.84807 19.2627 8.58124 18.8551 8.18123 18.6241C7.78121 18.3931 7.2955 18.3659 6.87329 18.5506L5.39225 19.2008C5.08547 19.3354 4.72729 19.2616 4.49855 19.0165C3.43284 17.8745 2.63956 16.5052 2.1784 15.0118C2.07906 14.6901 2.19383 14.3406 2.46441 14.1409L3.77351 13.1746C4.14639 12.9001 4.36661 12.4642 4.36661 12.0006C4.36661 11.537 4.14639 11.101 3.77303 10.8262L2.46474 9.86153C2.19376 9.66173 2.07889 9.31185 2.17857 8.9899C2.64053 7.49774 3.43424 6.12999 4.49996 4.98957C4.72893 4.74454 5.08728 4.67094 5.394 4.80594L6.86846 5.45491C7.29272 5.64146 7.78046 5.61328 8.18264 5.37786C8.58304 5.14514 8.84969 4.73596 8.90112 4.2754L9.08018 2.66588C9.11764 2.32976 9.36407 2.05462 9.69355 1.9812C10.4488 1.81291 11.2194 1.72348 12.0114 1.71436C12.7842 1.72328 13.554 1.81275 14.3083 1.9813C14.6376 2.05488 14.8839 2.32993 14.9213 2.66588L15.1005 4.27662C15.1816 5.0162 15.8048 5.57635 16.5478 5.57713C16.7475 5.57745 16.9451 5.53577 17.1296 5.45397L18.6043 4.80489C18.911 4.66989 19.2694 4.74349 19.4983 4.98851C20.5641 6.12893 21.3578 7.49669 21.8197 8.98888C21.9193 9.31056 21.8047 9.66028 21.534 9.86016L20.2269 10.8255C19.854 11.1 19.6288 11.536 19.6288 11.9995C19.6288 12.4631 19.854 12.8991 20.2278 13.1741L21.536 14.1399C21.8068 14.3397 21.9215 14.6894 21.8219 15.0112C21.36 16.5031 20.5668 17.8708 19.5017 19.0114C19.273 19.2563 18.9149 19.3301 18.6082 19.1956ZM13.9399 19.0257C14.1415 18.4016 14.5621 17.8533 15.1617 17.5061C15.9175 17.0685 16.8462 17.0183 17.6437 17.368L18.7957 17.8737C19.5354 17.0176 20.1082 16.0297 20.4843 14.9616L19.4655 14.2096L19.4647 14.209C18.7699 13.6972 18.3431 12.8809 18.3431 11.9995C18.3431 11.1188 18.7694 10.3024 19.4636 9.7909L19.4646 9.79013L20.4822 9.03859C20.106 7.97042 19.5329 6.98261 18.7929 6.12662L17.6507 6.62938L17.6487 6.63025C17.3011 6.78399 16.9264 6.86335 16.5464 6.86284C15.1472 6.86104 13.9756 5.80657 13.8226 4.41829L13.8224 4.4168L13.6832 3.16548C13.1318 3.06283 12.5725 3.00749 12.0114 3.00016C11.4336 3.00766 10.8706 3.06316 10.3182 3.16569L10.1789 4.41818C10.0824 5.28235 9.58247 6.05067 8.83041 6.48847C8.07395 6.93053 7.15266 6.9844 6.35051 6.63168L5.20541 6.12767C4.46549 6.9836 3.89243 7.9713 3.51617 9.03936L4.53605 9.79142C5.23834 10.3088 5.65233 11.1289 5.65233 12.0006C5.65233 12.872 5.23857 13.6922 4.53653 14.2094L3.51587 14.9628C3.89165 16.0324 4.46464 17.0216 5.20482 17.8789L6.358 17.3728C7.15517 17.024 8.07083 17.0756 8.82424 17.5108C9.57792 17.946 10.0796 18.7132 10.1778 19.5772L10.1783 19.581L10.317 20.8361C11.4282 21.0547 12.5712 21.0547 13.6824 20.8361L13.8214 19.5787C13.8423 19.39 13.8821 19.2047 13.9399 19.0257Z" fill="#FFA62B"/>
</svg>
