<svg width="144" height="86" viewBox="0 0 144 86" fill="none" xmlns="http://www.w3.org/2000/svg">
<path d="M0.000234373 59.96C0.453568 58.3867 0.893568 56.6 1.32023 54.6C1.77357 52.6 2.20023 50.56 2.60023 48.48C3.0269 46.3733 3.4269 44.3867 3.80023 42.52C4.1469 40.8133 4.48023 39.08 4.80023 37.32C5.12023 35.56 5.44023 33.7867 5.76023 32L12.0002 31C11.6536 32.7867 11.3069 34.56 10.9602 36.32C10.6136 38.0533 10.2669 39.7867 9.92023 41.52C9.5469 43.3867 9.16023 45.36 8.76023 47.44C8.36023 49.52 7.97357 51.5733 7.60023 53.6C7.2269 55.6 6.88023 57.4667 6.56023 59.2C6.08023 59.2 5.48023 59.24 4.76023 59.32C4.04023 59.3733 3.32023 59.4533 2.60023 59.56C1.88023 59.64 1.2669 59.72 0.760234 59.8C0.280234 59.88 0.026901 59.9333 0.000234373 59.96ZM11.848 60.04C12.1414 58.5733 12.4347 57.12 12.728 55.68C13.048 54.2133 13.3414 52.7733 13.608 51.36C14.6214 46.2933 15.448 41.44 16.088 36.8C15.7947 36.7467 15.488 36.72 15.168 36.72C14.848 36.6933 14.5414 36.6933 14.248 36.72C13.608 36.7733 12.9814 36.6933 12.368 36.48C12.3947 36.2667 12.408 36.04 12.408 35.8C12.408 35.5333 12.408 35.2667 12.408 35C12.408 34.7067 12.408 34.4267 12.408 34.16C12.408 33.8667 12.4214 33.5867 12.448 33.32C12.4747 33.0267 12.488 32.72 12.488 32.4C12.488 32.0533 12.5014 31.7067 12.528 31.36C13.2214 31.4133 13.9147 31.4533 14.608 31.48C15.3014 31.5067 15.9947 31.52 16.688 31.52C18.6614 31.52 20.5414 31.4533 22.328 31.32C24.1414 31.1867 25.808 31.0267 27.328 30.84L26.888 33L26.528 34.88C26.3947 35.5733 26.2747 36.12 26.168 36.52C25.8747 36.6 25.5814 36.6667 25.288 36.72C24.9947 36.7733 24.7014 36.8133 24.408 36.84C24.1147 36.8667 23.808 36.9067 23.488 36.96C23.1947 37.0133 22.9014 37.0667 22.608 37.12C22.208 39.0933 21.8747 40.8 21.608 42.24C21.368 43.68 21.1414 45.0667 20.928 46.4C20.7414 47.7067 20.5147 49.1467 20.248 50.72C19.7947 53.4133 19.3947 56.1467 19.048 58.92L11.848 60.04ZM23.0602 60.04L28.3002 31.6L40.9402 30.52C40.7536 31.1067 40.5936 31.7067 40.4602 32.32C40.3269 32.8267 40.1936 33.36 40.0602 33.92C39.9536 34.4533 39.8602 34.9333 39.7802 35.36C39.4336 35.3867 38.9402 35.4133 38.3002 35.44C37.6602 35.44 37.0069 35.4533 36.3402 35.48C35.6736 35.48 35.1002 35.48 34.6202 35.48C34.1402 35.48 33.8869 35.48 33.8602 35.48L32.4602 42.64L34.7802 42.52C35.0736 42.4933 35.3669 42.48 35.6602 42.48C35.9802 42.48 36.2869 42.48 36.5802 42.48C36.8736 42.48 37.1402 42.48 37.3802 42.48C37.6202 42.48 37.8069 42.4667 37.9402 42.44C37.8869 42.8133 37.8336 43.1867 37.7802 43.56C37.7536 43.9067 37.7136 44.2667 37.6602 44.64L37.3002 46.84C37.1669 46.8667 36.9936 46.88 36.7802 46.88C36.5669 46.88 36.3136 46.88 36.0202 46.88C35.7269 46.9067 35.4202 46.92 35.1002 46.92C34.7802 46.92 34.4736 46.9333 34.1802 46.96C33.8336 46.9867 33.4736 47 33.1002 47C32.7269 47 32.3269 47.0133 31.9002 47.04L30.5402 54.4L36.3802 53.48L35.9802 58.04L23.0602 60.04ZM35.173 59.76C36.3464 56.1867 37.4664 52.7067 38.533 49.32C38.9864 47.9333 39.453 46.4533 39.933 44.88C40.413 43.3067 40.893 41.7333 41.373 40.16C41.853 38.56 42.3064 37.0267 42.733 35.56C43.1597 34.0933 43.5197 32.7867 43.813 31.64C45.2797 31.64 46.6664 31.56 47.973 31.4C48.6397 31.32 49.3197 31.24 50.013 31.16C50.733 31.08 51.4664 31.0133 52.213 30.96L51.973 32.92C51.9197 33.2933 51.8664 33.68 51.813 34.08C51.7597 34.4533 51.7064 34.84 51.653 35.24C51.5997 35.64 51.533 36.0533 51.453 36.48C51.373 36.88 51.3064 37.2933 51.253 37.72C51.1464 38.5467 50.9864 39.7067 50.773 41.2C50.5597 42.6667 50.3064 44.2667 50.013 46H50.533C51.3064 43.9733 51.9464 42.2933 52.453 40.96C52.9597 39.6 53.373 38.4933 53.693 37.64C54.1464 36.3867 54.6397 35.12 55.173 33.84C55.7064 32.56 56.1464 31.5733 56.493 30.88C57.133 30.8267 57.893 30.7467 58.773 30.64C59.6797 30.5067 60.5864 30.36 61.493 30.2C62.4264 30.04 63.2264 29.9067 63.893 29.8C63.5197 32.04 63.173 34.3067 62.853 36.6C62.5597 38.8667 62.293 41.04 62.053 43.12C61.8397 45.1733 61.653 47.0267 61.493 48.68C61.333 50.3333 61.1864 51.9733 61.053 53.6C60.9197 55.2 60.7864 56.7867 60.653 58.36L53.693 59.6C53.693 59.5467 53.733 58.9467 53.813 57.8C53.893 56.6533 54.0264 55.2267 54.213 53.52C54.3997 51.8133 54.5864 50.2 54.773 48.68C54.9597 47.1333 55.1464 45.8667 55.333 44.88H54.973C54.3064 46.9067 53.493 49.12 52.533 51.52C51.5997 53.92 50.6797 56.5733 49.773 59.48C48.8397 59.5067 48.0397 59.5467 47.373 59.6C46.7064 59.6267 45.933 59.6667 45.053 59.72L46.333 44.88H45.733C45.7064 45.1733 45.5864 45.7467 45.373 46.6C45.1597 47.4267 44.9064 48.3867 44.613 49.48C44.3197 50.5467 44.013 51.6133 43.693 52.68C42.493 56.8667 41.853 59.08 41.773 59.32L35.173 59.76Z" fill="#489EB5"/>
<path d="M75.7912 60.08C74.7245 60.08 73.6578 59.8 72.5912 59.24C71.5245 58.6533 70.4978 57.7333 69.5112 56.48L72.4712 50.68C72.7645 51.1867 73.1912 51.6667 73.7512 52.12C74.3378 52.5733 74.9512 52.9333 75.5912 53.2C76.2312 53.4667 76.7778 53.6 77.2312 53.6C77.9245 53.6 78.5778 53.3867 79.1912 52.96C79.8312 52.5333 80.1512 51.96 80.1512 51.24C80.1512 50.3067 79.7245 49.4533 78.8712 48.68C78.0178 47.9067 77.0578 47.1467 75.9912 46.4C74.9512 45.6533 73.9912 44.8133 73.1112 43.88C72.2578 42.92 71.8312 41.8267 71.8312 40.6C71.8312 39.2133 72.2312 37.9333 73.0312 36.76C73.8312 35.56 74.8712 34.52 76.1512 33.64C77.4312 32.7333 78.7912 32.04 80.2312 31.56C81.6978 31.0533 83.0845 30.8 84.3912 30.8C85.3245 30.8 86.1912 30.96 86.9912 31.28C87.7912 31.5733 88.4312 32.0667 88.9112 32.76C89.3912 33.4533 89.6312 34.3867 89.6312 35.56C89.6312 35.7467 89.6178 35.9333 89.5912 36.12C89.5912 36.3067 89.5778 36.4933 89.5512 36.68C89.5245 36.8667 89.4845 37.0667 89.4312 37.28C89.4045 37.4667 89.3778 37.6667 89.3512 37.88L83.5512 39.56C83.6045 39.3467 83.6445 39.1333 83.6712 38.92C83.7245 38.7067 83.7512 38.4933 83.7512 38.28C83.7512 37.48 83.6045 36.9067 83.3112 36.56C83.0445 36.1867 82.6845 36 82.2312 36C81.9912 36 81.6445 36.1333 81.1912 36.4C80.7378 36.64 80.3245 36.9867 79.9512 37.44C79.6045 37.8667 79.4312 38.3467 79.4312 38.88C79.4312 39.76 79.7912 40.4933 80.5112 41.08C81.2578 41.64 82.1112 42.2133 83.0712 42.8C83.5245 43.0667 84.0312 43.4933 84.5912 44.08C85.1512 44.64 85.6312 45.4133 86.0312 46.4C86.4578 47.36 86.6712 48.6 86.6712 50.12C86.6712 52.0933 86.1778 53.8267 85.1912 55.32C84.2312 56.8133 82.9245 57.9867 81.2712 58.84C79.6178 59.6667 77.7912 60.08 75.7912 60.08ZM86.4587 60.08C87.232 56.3467 87.952 52.7067 88.6187 49.16C88.992 47 89.3653 44.8133 89.7387 42.6C90.1387 40.3867 90.4987 38.2667 90.8187 36.24C91.1387 34.2133 91.3787 32.4 91.5387 30.8C92.2587 30.8267 92.8453 30.8667 93.2987 30.92C93.7787 30.9467 94.2187 30.9733 94.6187 31C95.0453 31.0267 95.512 31.0533 96.0187 31.08C96.552 31.08 97.2187 31.08 98.0187 31.08C97.5653 32.9733 97.112 34.8667 96.6587 36.76C96.232 38.6533 95.832 40.56 95.4587 42.48L99.4187 42.04C99.6053 41.1067 99.7787 40.1867 99.9387 39.28C100.125 38.3467 100.285 37.4267 100.419 36.52C100.552 35.64 100.712 34.7467 100.899 33.84C101.112 32.9067 101.339 31.9733 101.579 31.04C102.539 30.88 103.512 30.76 104.499 30.68C105.485 30.5733 106.312 30.5067 106.979 30.48C107.645 30.4267 107.979 30.4 107.979 30.4C107.632 31.4667 107.285 32.72 106.939 34.16C106.592 35.6 106.259 37.12 105.939 38.72C105.619 40.32 105.312 41.92 105.019 43.52C104.725 45.0933 104.459 46.56 104.219 47.92C103.925 49.6267 103.645 51.3467 103.379 53.08C103.112 54.7867 102.845 56.5333 102.579 58.32L96.3387 59.04C96.5253 58.24 96.6853 57.4533 96.8187 56.68C96.9787 55.88 97.1253 55.1067 97.2587 54.36C97.5253 53.08 97.792 51.7467 98.0587 50.36C98.352 48.9733 98.5787 47.7867 98.7387 46.8L94.8587 47.16C94.752 47.6667 94.6453 48.2133 94.5387 48.8C94.4587 49.3867 94.352 50.0133 94.2187 50.68C94.0853 51.3467 93.952 52 93.8187 52.64C93.712 53.2533 93.6053 53.8667 93.4987 54.48C93.3653 55.2 93.2187 55.92 93.0587 56.64C92.8987 57.36 92.752 58.08 92.6187 58.8L86.4587 60.08ZM111.035 60.16C109.275 60.16 107.835 59.48 106.715 58.12C105.595 56.76 105.035 54.7067 105.035 51.96C105.035 50.44 105.222 48.84 105.595 47.16C105.968 45.48 106.488 43.8267 107.155 42.2C107.822 40.5733 108.595 39.0667 109.475 37.68C110.888 35.44 112.515 33.6133 114.355 32.2C116.195 30.7867 118.128 30.08 120.155 30.08C121.755 30.08 122.982 30.4933 123.835 31.32C124.715 32.12 125.328 33.16 125.675 34.44C126.022 35.6933 126.195 37 126.195 38.36C126.195 41.5333 125.702 44.4933 124.715 47.24C123.755 49.96 122.502 52.2667 120.955 54.16C119.408 56.1067 117.755 57.6 115.995 58.64C114.262 59.6533 112.608 60.16 111.035 60.16ZM113.195 53.56C114.395 53.56 115.448 53.16 116.355 52.36C117.288 51.56 118.075 50.5467 118.715 49.32C119.355 48.0667 119.835 46.76 120.155 45.4C120.475 44.04 120.635 42.8133 120.635 41.72C120.635 41.2933 120.595 40.84 120.515 40.36C120.435 39.8533 120.262 39.4133 119.995 39.04C119.728 38.6667 119.315 38.48 118.755 38.48C117.528 38.48 116.422 38.9333 115.435 39.84C114.448 40.72 113.622 41.84 112.955 43.2C112.288 44.5867 111.795 45.9467 111.475 47.28C111.155 48.6133 110.995 49.8267 110.995 50.92C110.995 51.48 111.195 52.0667 111.595 52.68C111.995 53.2667 112.528 53.56 113.195 53.56ZM123.401 60.04C124.201 56.44 124.961 52.92 125.681 49.48C125.975 48.0933 126.268 46.6133 126.561 45.04C126.881 43.44 127.201 41.8267 127.521 40.2C127.841 38.5733 128.135 37.04 128.401 35.6C128.668 34.1333 128.881 32.8533 129.041 31.76C130.108 31.44 131.255 31.1467 132.481 30.88C133.735 30.6133 134.855 30.48 135.841 30.48C137.441 30.48 138.708 30.8267 139.641 31.52C140.575 32.1867 141.241 33.0933 141.641 34.24C142.041 35.3867 142.241 36.64 142.241 38C142.241 39.4933 141.961 40.9333 141.401 42.32C140.868 43.68 140.135 44.9067 139.201 46C138.295 47.0933 137.241 47.96 136.041 48.6C134.868 49.24 133.641 49.56 132.361 49.56H131.921C131.708 50.4667 131.508 51.4533 131.321 52.52C131.135 53.5867 130.975 54.5733 130.841 55.48C130.735 56.0133 130.641 56.5467 130.561 57.08C130.481 57.6133 130.401 58.1467 130.321 58.68L123.401 60.04ZM132.721 45.36C133.335 45.2 133.948 44.8 134.561 44.16C135.175 43.4933 135.681 42.6533 136.081 41.64C136.481 40.6267 136.681 39.52 136.681 38.32C136.681 37.3333 136.455 36.5867 136.001 36.08C135.575 35.5733 135.095 35.32 134.561 35.32C134.268 37.08 133.975 38.7467 133.681 40.32C133.388 41.8933 133.068 43.5733 132.721 45.36Z" fill="#FFA62B"/>
</svg>
