<svg width="171" height="200" viewBox="0 0 171 200" fill="none" xmlns="http://www.w3.org/2000/svg">
<path d="M85.4819 0L6.50146 45.5997V154.399L85.4819 199.999L164.462 154.399V45.5997L85.4819 0Z" fill="url(#paint0_linear_769_2227)"/>
<path d="M20.7979 146.152V53.847L85.4953 16.4933L150.193 53.847V146.152L85.4953 183.506L20.7979 146.152Z" fill="url(#paint1_linear_769_2227)"/>
<path d="M25.5498 143.404V56.5949L85.4863 21.9905L145.423 56.5949V143.404L85.4863 178.008L25.5498 143.404Z" fill="#736FA8"/>
<path opacity="0.5" d="M8.47626 45.8891C7.50162 48.8121 15.8934 52.4091 21.8069 51.1265C27.7203 49.8439 83.3053 17.2249 84.6513 14.3072C85.027 13.4934 85.0873 2.0874 84.6513 2.0874C82.6957 2.0874 8.95246 44.4615 8.47626 45.8891Z" fill="white"/>
<path opacity="0.5" d="M162.118 45.8891C163.093 48.8121 154.701 52.4091 148.788 51.1265C142.874 49.8439 87.8154 16.919 85.9434 14.3072C84.9761 12.9579 84.6587 2.0874 85.9434 2.0874C87.8979 2.0874 161.642 44.4615 162.118 45.8891Z" fill="white"/>
<path opacity="0.5" d="M8.39415 107.765C7.86398 111.018 6.57081 152.201 8.39415 152.519C10.2175 152.836 18.7871 146.964 19.2633 144.266C19.7395 141.569 19.8982 113.32 19.2633 110.621C18.6294 107.924 9.27778 102.345 8.39415 107.765Z" fill="url(#paint2_linear_769_2227)"/>
<path opacity="0.5" d="M162.264 107.765C162.795 111.018 164.088 152.201 162.264 152.519C160.441 152.836 151.872 146.964 151.395 144.266C150.919 141.569 150.76 113.32 151.395 110.621C152.03 107.924 161.381 102.345 162.264 107.765Z" fill="url(#paint3_linear_769_2227)"/>
<path opacity="0.5" d="M10.3801 153.643C11.3367 155.051 82.4651 197.108 83.5371 197.108C84.0757 197.108 84.7901 186.655 84.7901 185.49C84.7901 182.239 21.8874 148.834 20.7868 148.524C19.1603 148.065 9.41076 152.215 10.3801 153.643Z" fill="url(#paint4_linear_769_2227)"/>
<path opacity="0.5" d="M160.719 154.742C159.763 156.15 87.3002 198.068 86.2282 198.068C85.9953 198.068 85.9816 185.061 86.4642 184.578C88.7627 182.28 148.752 148.834 149.853 148.524C151.479 148.066 161.688 153.314 160.719 154.742Z" fill="url(#paint5_linear_769_2227)"/>
<path opacity="0.5" d="M28.295 141.092C24.0567 117.039 26.4187 115.523 56.2547 105.363C86.0906 95.2028 136.562 69.0064 140.992 80.3807C145.423 91.755 143.902 140.149 142.897 142.795C141.89 145.443 89.7881 175.384 85.4864 175.454C81.1836 175.524 28.7701 143.794 28.295 141.092Z" fill="url(#paint6_linear_769_2227)"/>
<path opacity="0.3" d="M144.135 57.1962C143.082 56.9412 88.919 25.6366 85.8606 25.8694C82.96 26.0895 45.219 43.7404 29.7466 57.0777C25.6205 60.6346 27.1285 113.742 30.9371 112.764C34.7457 111.786 37.5839 90.3232 79.4996 78.2643C120.773 66.3894 138.728 76.6631 143.205 78.5024C144.469 79.022 146.53 57.7762 144.135 57.1962Z" fill="white"/>
<path opacity="0.5" d="M20.7979 146.152V53.847L85.4953 16.4933L150.193 53.847V146.152L145.432 143.404C145.432 143.404 145.721 63.1661 143.995 60.6496C137.84 51.6702 89.979 29.8381 82.1237 32.269C74.0864 34.7559 31.5315 52.8734 26.7705 60.4919C25.1673 63.0571 25.5599 143.405 25.5599 143.405L20.7979 146.152Z" fill="url(#paint7_linear_769_2227)"/>
<path opacity="0.2" d="M97.5682 66.4486C113.687 73.7973 137.969 73.9253 140.191 72.5242C142.412 71.123 143.89 60.7784 140.399 59.0333C136.908 57.2883 109.245 42.5572 101.944 44.1435C94.6433 45.7309 94.7184 65.1491 97.5682 66.4486Z" fill="white"/>
<path d="M6.5025 78.7458C6.5025 78.5024 7.18504 48.0613 8.47397 45.8886C9.76396 43.7171 83.7813 2.67001 85.9338 2.08691C88.0862 1.5038 115.812 17.5122 115.812 17.5122L85.4819 0L6.50146 45.6008L6.5025 78.7458Z" fill="url(#paint8_linear_769_2227)"/>
<path d="M113.761 32.8149C113.761 32.8149 148.457 52.5548 148.933 54.7772C149.409 56.9995 150.189 116.653 150.189 116.653C150.189 116.653 150.517 56.391 150.189 53.847C149.861 51.3029 113.761 32.8149 113.761 32.8149Z" fill="white"/>
<path d="M20.7969 104.432C20.7969 104.432 19.6445 54.5309 20.2297 52.9117C20.8149 51.2926 85.4944 16.4925 85.4944 16.4925C85.4944 16.4925 23.0404 52.1974 21.7546 54.4589C20.4678 56.7215 20.7969 104.432 20.7969 104.432Z" fill="white"/>
<path d="M6.50098 154.4L85.4814 200L164.462 154.4V129.619C164.462 129.619 163.802 151.253 162.188 153.949C160.574 156.644 89.8277 197.791 86.2233 198.068C82.6189 198.346 10.2905 155.376 8.3963 152.52C6.50205 149.664 6.50201 98.9581 6.50201 98.9581L6.50098 154.4Z" fill="url(#paint9_linear_769_2227)"/>
<path d="M20.7826 122.524C20.7826 122.524 20.5593 143.812 21.7393 145.6C22.9203 147.386 53.6091 165.106 53.6091 165.106C53.6091 165.106 20.3593 147.917 20.0493 146.806C19.7392 145.695 20.7826 122.524 20.7826 122.524Z" fill="white"/>
<path opacity="0.5" d="M47.5077 165.536C45.1764 165.542 38.6439 168.158 40.0556 169.702C41.1953 170.949 80.3459 194.69 84.7862 196.322C86.235 196.854 86.0963 187.6 84.1524 184.609C83.3206 183.33 54.7302 165.517 47.5077 165.536Z" fill="white"/>
<path d="M113.308 17.9579C111.413 18.4701 117.751 26.4484 120.766 27.1627C123.781 27.877 127.907 25.733 126.48 24.2662C125.052 22.7973 116.244 17.1642 113.308 17.9579Z" fill="white"/>
<path d="M127.349 25.8689C124.474 26.6383 129.776 39.2433 132.045 41.4858C134.314 43.7283 154.47 47.6576 154.008 44.0246C153.545 40.3916 131.386 24.7884 127.349 25.8689Z" fill="white"/>
<path opacity="0.5" d="M121.91 165.748C120.209 173.177 120.481 177.557 121.434 177.604C122.386 177.651 156.924 156.865 157.866 155.951C158.807 155.036 152.329 149.07 149.662 149.479C146.995 149.887 122.545 162.971 121.91 165.748Z" fill="url(#paint10_linear_769_2227)"/>
<path opacity="0.5" d="M24.9762 55.966C24.1423 53.4632 21.5888 53.4791 21.3559 56.2686C21.1231 59.0582 20.7242 110.78 21.739 110.859C22.7539 110.939 24.8968 108.4 24.9762 107.209C25.0556 106.019 25.373 57.1565 24.9762 55.966Z" fill="url(#paint11_linear_769_2227)"/>
<path opacity="0.5" d="M145.99 56.2834C145.854 57.2686 145.355 106.098 145.99 106.098C146.625 106.098 149.481 103.797 149.481 102.607C149.481 101.416 148.767 55.2526 148.45 55.0145C148.133 54.7753 146.1 55.4865 145.99 56.2834Z" fill="url(#paint12_linear_769_2227)"/>
<path opacity="0.5" d="M85.4851 21.1906C85.4851 22.1504 57.6545 38.0329 56.9995 38.0329C56.3444 38.0329 56.5825 33.748 57.4757 33.1532C58.3688 32.5585 85.2861 16.3702 85.4851 16.9056C85.684 17.4411 85.4851 20.3916 85.4851 21.1906Z" fill="url(#paint13_linear_769_2227)"/>
<path d="M142.936 149.857C141.159 149.789 135.155 153.279 135.61 154.987C136.066 156.694 139.741 158.538 140.716 157.549C141.691 156.561 144.099 149.901 142.936 149.857Z" fill="#394773"/>
<path d="M145.218 151.056C144.608 151.619 143.276 153.619 144.544 154.597C145.812 155.574 149.542 152.997 148.992 152.239C148.439 151.483 146.008 150.329 145.218 151.056Z" fill="#394773"/>
<path opacity="0.5" d="M136.482 153.273C135.001 155.279 141.072 156.61 141.864 154.923C142.654 153.236 143.922 149.682 142.926 149.857C141.931 150.034 137.288 152.18 136.482 153.273Z" fill="url(#paint14_linear_769_2227)"/>
<path d="M135.626 154.496C135.626 154.496 136.121 156.203 137.921 157.26C139.335 158.09 140.553 157.904 140.913 157.289C140.913 157.289 139.808 158.729 137.969 157.871C135.087 156.525 135.626 154.496 135.626 154.496Z" fill="#DAE1EF"/>
<path opacity="0.5" d="M145.896 151.109C144.524 152.585 145.59 154.716 146.36 154.596C147.131 154.475 149.425 152.96 148.993 152.239C148.562 151.518 146.196 150.786 145.896 151.109Z" fill="url(#paint15_linear_769_2227)"/>
<path d="M145.223 151.056C145.223 151.056 143.963 152.788 144.468 153.786C144.974 154.784 145.689 154.78 145.689 154.78C145.689 154.78 144.059 155.728 143.758 154.616C143.24 152.692 145.223 151.056 145.223 151.056Z" fill="#DAE1EF"/>
<path d="M77.3568 20.6498C73.1016 19.5259 69.6634 22.2827 67.7987 24.4003C65.9331 26.5179 66.9733 27.7772 69.3194 27.3603C71.6634 26.9433 79.1494 21.1239 77.3568 20.6498Z" fill="#394773"/>
<path opacity="0.5" d="M77.3421 20.6504C74.4648 19.6683 70.8233 21.5753 69.6794 22.5902C68.5354 23.6051 70.7842 26.4814 72.3334 25.8676C73.8827 25.2549 78.6533 21.098 77.3421 20.6504Z" fill="url(#paint16_linear_769_2227)"/>
<path d="M68.858 23.3022C68.858 23.3022 64.0504 26.4516 64.5901 28.0115C65.1288 29.5724 70.893 26.7257 70.893 26.7257C70.893 26.7257 67.9045 27.7003 67.2272 26.3743C66.5489 25.0483 68.858 23.3022 68.858 23.3022Z" fill="white"/>
<path d="M23.5395 146.786C21.2759 147.352 27.9851 151.96 29.5714 152.198C31.1588 152.436 29.5936 148.395 28.8243 147.699C28.2603 147.189 24.8083 146.468 23.5395 146.786Z" fill="white"/>
<path d="M85.4231 151.227L3.89114 103.676C0.73971 110.861 0 117.604 0 117.604L5.3198 126.596L85.4231 173.121L165.526 126.596L170.351 117.604C170.351 117.604 170.36 110.861 167.431 103.676L85.4231 151.227Z" fill="url(#paint17_linear_769_2227)"/>
<path d="M5.3198 126.596L0 117.604L85.4231 167.647L170.351 117.604L165.526 126.596L85.4231 173.121L5.3198 126.596Z" fill="url(#paint18_linear_769_2227)"/>
<path opacity="0.5" d="M0 117.604L5.3198 126.596L6.53357 127.344L6.50605 130.022C6.50605 130.022 11.0777 132.351 20.0557 137.31C20.3595 137.478 25.6972 143.116 25.6972 143.116C25.6972 143.116 83.4018 178.008 85.4866 178.008C88.1787 178.008 145.426 142.344 145.426 142.344C145.426 142.344 149.885 138.6 150.329 138.339L164.466 130.936V127.213L165.527 126.597L170.352 117.605L85.4241 167.643L0 117.604Z" fill="url(#paint19_linear_769_2227)"/>
<path opacity="0.5" d="M85.4297 151.227V167.647L170.357 117.604C170.357 117.604 170.018 109.372 167.438 103.676L85.4297 151.227Z" fill="url(#paint20_linear_769_2227)"/>
<path opacity="0.5" d="M8.08322 107.285C6.52338 107.285 7.80177 121.092 12.5406 124.266C20.0667 129.308 65.4429 156.054 68.4144 156.086C70.4685 156.108 70.3605 144.379 69.7436 143.47C68.5753 141.746 10.4113 107.285 8.08322 107.285Z" fill="white"/>
<path opacity="0.5" d="M110.648 137.042C109.663 138.06 109.798 150.964 111.481 150.58C113.165 150.196 138.812 136.501 150.908 127.621C163.004 118.741 164.71 107.031 161.988 107.289C161.988 107.289 112.672 134.953 110.648 137.042Z" fill="white"/>
<path d="M43.8838 143.312C43.8838 143.312 82.9232 166.723 85.4228 166.723C87.9234 166.723 119.089 147.807 119.089 147.807C119.089 147.807 86.3751 168.549 85.4852 168.549C84.792 168.548 43.8838 143.312 43.8838 143.312Z" fill="white"/>
<path d="M85.4231 123.884L3.89114 76.3328C0.73971 83.5173 0 90.2606 0 90.2606L5.3198 99.2527L85.4231 145.777L165.526 99.2527L170.351 90.2606C170.351 90.2606 170.36 83.5173 167.431 76.3328L85.4231 123.884Z" fill="url(#paint21_linear_769_2227)"/>
<path d="M5.3198 99.2532L0 90.261L85.4231 140.304L170.351 90.261L165.526 99.2532L85.4231 145.779L5.3198 99.2532Z" fill="url(#paint22_linear_769_2227)"/>
<path opacity="0.5" d="M0 90.261L5.3198 99.2532L6.53357 100.001L6.50605 102.679C6.50605 102.679 11.0777 105.008 20.0557 109.967C20.3595 110.135 25.6972 115.773 25.6972 115.773C25.6972 115.773 83.4018 150.665 85.4866 150.665C88.1787 150.665 145.426 115.001 145.426 115.001C145.426 115.001 149.885 111.257 150.329 110.996L164.466 103.593V99.8701L165.527 99.2542L170.352 90.2621L85.4241 140.3L0 90.261Z" fill="url(#paint23_linear_769_2227)"/>
<path opacity="0.5" d="M85.4297 123.884V140.304L170.357 90.2609C170.357 90.2609 170.018 82.0287 167.438 76.3331L85.4297 123.884Z" fill="url(#paint24_linear_769_2227)"/>
<path opacity="0.5" d="M8.08322 79.9415C6.52338 79.9415 7.80177 93.7487 12.5406 96.9224C20.0667 101.964 65.4429 128.711 68.4144 128.742C70.4685 128.765 70.3605 117.035 69.7436 116.126C68.5753 114.402 10.4113 79.9415 8.08322 79.9415Z" fill="white"/>
<path opacity="0.5" d="M110.648 109.698C109.663 110.716 109.798 123.62 111.481 123.236C113.165 122.852 138.812 109.157 150.908 100.277C163.002 91.3972 164.71 79.6874 161.988 79.9457C161.988 79.9457 112.672 107.609 110.648 109.698Z" fill="white"/>
<path d="M43.8838 115.969C43.8838 115.969 82.9232 139.38 85.4228 139.38C87.9234 139.38 119.089 120.464 119.089 120.464C119.089 120.464 86.3751 141.206 85.4852 141.206C84.792 141.205 43.8838 115.969 43.8838 115.969Z" fill="white"/>
<path opacity="0.5" d="M85.6156 90.0665L68.1039 99.2735L71.448 79.7728L57.2803 65.9624L76.8587 63.1177L85.6156 45.3759L94.3715 63.1177L113.95 65.9624L99.7822 79.7728L103.127 99.2735L85.6156 90.0665Z" fill="url(#paint25_linear_769_2227)"/>
<path d="M111.916 66.6266L102.468 65.254L99.8857 64.8794L93.7511 63.9873L85.6281 47.527L77.504 63.9873L59.3394 66.6266L72.4837 79.4401L69.381 97.5323L85.6281 88.9899L101.875 97.5323L98.7725 79.4401L111.916 66.6266Z" fill="url(#paint26_linear_769_2227)"/>
<path opacity="0.5" d="M59.2358 66.6266L85.9944 73.6228L72.3802 79.4401L59.2358 66.6266Z" fill="url(#paint27_linear_769_2227)"/>
<path opacity="0.5" d="M111.798 66.6266L85.98 73.6228L98.6545 79.4401L111.798 66.6266Z" fill="url(#paint28_linear_769_2227)"/>
<path opacity="0.5" d="M85.5362 88.99L86.006 73.6229L69.2891 97.5324L85.5362 88.99Z" fill="url(#paint29_linear_769_2227)"/>
<path opacity="0.5" d="M101.767 97.5324L85.9894 73.6229L85.5195 88.99L101.767 97.5324Z" fill="url(#paint30_linear_769_2227)"/>
<path opacity="0.5" d="M85.5195 47.527L85.9894 73.6228L93.6425 63.9873L85.5195 47.527Z" fill="url(#paint31_linear_769_2227)"/>
<path opacity="0.5" d="M111.798 66.6268L85.98 73.623L93.6331 63.9874L111.798 66.6268Z" fill="url(#paint32_linear_769_2227)"/>
<path opacity="0.5" d="M111.798 66.6268L85.98 73.623L93.6331 63.9874L111.798 66.6268Z" fill="url(#paint33_linear_769_2227)"/>
<path opacity="0.5" d="M77.4005 63.9874L85.9944 73.623L59.2358 66.6268L77.4005 63.9874Z" fill="url(#paint34_linear_769_2227)"/>
<path opacity="0.8" d="M93.6499 69.7126C92.2996 70.8545 93.4531 71.6027 93.4531 71.6027L100.409 69.7179C100.409 69.7179 96.7707 67.0733 93.6499 69.7126Z" fill="white"/>
<path opacity="0.5" d="M69.3672 97.5325C69.3672 97.5325 81.6904 91.7269 85.6143 90.1109L101.861 97.5325L85.6143 88.9902L69.3672 97.5325Z" fill="url(#paint35_linear_769_2227)"/>
<path opacity="0.5" d="M59.2358 66.6266L85.9944 73.6228L71.3029 86.2638L59.2358 66.6266Z" fill="url(#paint36_linear_769_2227)"/>
<path opacity="0.5" d="M111.798 66.6266L85.98 73.6228L100.206 87.9475L111.798 66.6266Z" fill="url(#paint37_linear_769_2227)"/>
<path opacity="0.5" d="M69.3672 97.5318L85.991 73.6224L101.861 97.5318L85.6143 94.9645L69.3672 97.5318Z" fill="url(#paint38_linear_769_2227)"/>
<path opacity="0.4" d="M79.5768 61.1407C77.8487 65.9336 84.432 69.2788 85.3177 67.8057C86.2045 66.3326 85.6416 58.1014 84.5294 56.9892C83.4171 55.8769 80.2837 59.1787 79.5768 61.1407Z" fill="#F7FFFF"/>
<path opacity="0.4" d="M74.1889 85.691C77.6874 86.1651 79.6462 82.1807 80.3838 79.4398C81.5712 75.0226 67.8289 84.8285 74.1889 85.691Z" fill="#F7FFFF"/>
<defs>
<linearGradient id="paint0_linear_769_2227" x1="85.4821" y1="203.434" x2="85.4821" y2="31.9346" gradientUnits="userSpaceOnUse">
<stop offset="0.2103" stop-color="#98ABD2"/>
<stop offset="0.4881" stop-color="#72719D"/>
<stop offset="1" stop-color="#DAE1EF"/>
</linearGradient>
<linearGradient id="paint1_linear_769_2227" x1="85.4953" y1="26.8224" x2="85.4953" y2="183.061" gradientUnits="userSpaceOnUse">
<stop offset="0.2103" stop-color="#98ABD2"/>
<stop offset="0.4881" stop-color="#72719D"/>
<stop offset="1" stop-color="#DAE1EF"/>
</linearGradient>
<linearGradient id="paint2_linear_769_2227" x1="13.5678" y1="172.992" x2="13.5678" y2="78.4413" gradientUnits="userSpaceOnUse">
<stop stop-color="#705AB8"/>
<stop offset="1" stop-color="white"/>
</linearGradient>
<linearGradient id="paint3_linear_769_2227" x1="157.092" y1="172.992" x2="157.092" y2="78.4413" gradientUnits="userSpaceOnUse">
<stop stop-color="#705AB8"/>
<stop offset="1" stop-color="white"/>
</linearGradient>
<linearGradient id="paint4_linear_769_2227" x1="27.9781" y1="137.709" x2="66.1998" y2="199.7" gradientUnits="userSpaceOnUse">
<stop stop-color="#705AB8"/>
<stop offset="1" stop-color="white"/>
</linearGradient>
<linearGradient id="paint5_linear_769_2227" x1="113.139" y1="145.524" x2="140.516" y2="226.701" gradientUnits="userSpaceOnUse">
<stop stop-color="#705AB8"/>
<stop offset="1" stop-color="white"/>
</linearGradient>
<linearGradient id="paint6_linear_769_2227" x1="85.3277" y1="188.758" x2="85.3277" y2="58.0414" gradientUnits="userSpaceOnUse">
<stop stop-color="#705AB8"/>
<stop offset="1" stop-color="white"/>
</linearGradient>
<linearGradient id="paint7_linear_769_2227" x1="20.7983" y1="81.3226" x2="150.192" y2="81.3226" gradientUnits="userSpaceOnUse">
<stop stop-color="#8980EB"/>
<stop offset="1" stop-color="#705AB8"/>
</linearGradient>
<linearGradient id="paint8_linear_769_2227" x1="6.50305" y1="39.3729" x2="115.814" y2="39.3729" gradientUnits="userSpaceOnUse">
<stop stop-color="#728EE3"/>
<stop offset="1" stop-color="#836888"/>
</linearGradient>
<linearGradient id="paint9_linear_769_2227" x1="6.50151" y1="149.479" x2="164.462" y2="149.479" gradientUnits="userSpaceOnUse">
<stop stop-color="#728EE3"/>
<stop offset="1" stop-color="#836888"/>
</linearGradient>
<linearGradient id="paint10_linear_769_2227" x1="120.675" y1="163.531" x2="157.958" y2="163.531" gradientUnits="userSpaceOnUse">
<stop stop-color="#8980EB"/>
<stop offset="1" stop-color="#705AB8"/>
</linearGradient>
<linearGradient id="paint11_linear_769_2227" x1="21.0802" y1="82.496" x2="25.1718" y2="82.496" gradientUnits="userSpaceOnUse">
<stop stop-color="#8980EB"/>
<stop offset="1" stop-color="#705AB8"/>
</linearGradient>
<linearGradient id="paint12_linear_769_2227" x1="145.675" y1="80.5326" x2="149.482" y2="80.5326" gradientUnits="userSpaceOnUse">
<stop stop-color="#8980EB"/>
<stop offset="1" stop-color="#705AB8"/>
</linearGradient>
<linearGradient id="paint13_linear_769_2227" x1="56.6267" y1="27.4628" x2="85.5736" y2="27.4628" gradientUnits="userSpaceOnUse">
<stop stop-color="#8980EB"/>
<stop offset="1" stop-color="#705AB8"/>
</linearGradient>
<linearGradient id="paint14_linear_769_2227" x1="139.367" y1="151.354" x2="141.483" y2="155.345" gradientUnits="userSpaceOnUse">
<stop stop-color="#8980EB"/>
<stop offset="1" stop-color="#705AB8"/>
</linearGradient>
<linearGradient id="paint15_linear_769_2227" x1="146.134" y1="150.974" x2="147.726" y2="153.978" gradientUnits="userSpaceOnUse">
<stop stop-color="#8980EB"/>
<stop offset="1" stop-color="#705AB8"/>
</linearGradient>
<linearGradient id="paint16_linear_769_2227" x1="72.6974" y1="20.8179" x2="74.6796" y2="24.6768" gradientUnits="userSpaceOnUse">
<stop stop-color="#8980EB"/>
<stop offset="1" stop-color="#705AB8"/>
</linearGradient>
<linearGradient id="paint17_linear_769_2227" x1="85.1754" y1="47.231" x2="85.1754" y2="171.527" gradientUnits="userSpaceOnUse">
<stop offset="0.2103" stop-color="#98ABD2"/>
<stop offset="0.4881" stop-color="#72719D"/>
<stop offset="1" stop-color="#DAE1EF"/>
</linearGradient>
<linearGradient id="paint18_linear_769_2227" x1="0.000211648" y1="145.363" x2="170.351" y2="145.363" gradientUnits="userSpaceOnUse">
<stop offset="0.2103" stop-color="#98ABD2"/>
<stop offset="0.4881" stop-color="#72719D"/>
<stop offset="1" stop-color="#DAE1EF"/>
</linearGradient>
<linearGradient id="paint19_linear_769_2227" x1="85.1754" y1="179.046" x2="85.1754" y2="127.249" gradientUnits="userSpaceOnUse">
<stop stop-color="#8980EB"/>
<stop offset="1" stop-color="#705AB8"/>
</linearGradient>
<linearGradient id="paint20_linear_769_2227" x1="130.138" y1="169.166" x2="124.653" y2="104.744" gradientUnits="userSpaceOnUse">
<stop stop-color="#705AB8"/>
<stop offset="1" stop-color="white"/>
</linearGradient>
<linearGradient id="paint21_linear_769_2227" x1="85.1754" y1="19.8878" x2="85.1754" y2="144.184" gradientUnits="userSpaceOnUse">
<stop offset="0.2103" stop-color="#98ABD2"/>
<stop offset="0.4881" stop-color="#72719D"/>
<stop offset="1" stop-color="#DAE1EF"/>
</linearGradient>
<linearGradient id="paint22_linear_769_2227" x1="0.000211648" y1="118.02" x2="170.351" y2="118.02" gradientUnits="userSpaceOnUse">
<stop offset="0.2103" stop-color="#98ABD2"/>
<stop offset="0.4881" stop-color="#72719D"/>
<stop offset="1" stop-color="#DAE1EF"/>
</linearGradient>
<linearGradient id="paint23_linear_769_2227" x1="85.1754" y1="151.703" x2="85.1754" y2="99.9063" gradientUnits="userSpaceOnUse">
<stop stop-color="#8980EB"/>
<stop offset="1" stop-color="#705AB8"/>
</linearGradient>
<linearGradient id="paint24_linear_769_2227" x1="130.138" y1="141.823" x2="124.653" y2="77.4012" gradientUnits="userSpaceOnUse">
<stop stop-color="#705AB8"/>
<stop offset="1" stop-color="white"/>
</linearGradient>
<linearGradient id="paint25_linear_769_2227" x1="57.2804" y1="72.3243" x2="113.95" y2="72.3243" gradientUnits="userSpaceOnUse">
<stop stop-color="#8980EB"/>
<stop offset="1" stop-color="#705AB8"/>
</linearGradient>
<linearGradient id="paint26_linear_769_2227" x1="85.6277" y1="98.4724" x2="85.6277" y2="39.0453" gradientUnits="userSpaceOnUse">
<stop stop-color="#86759D"/>
<stop offset="0.3889" stop-color="#98ABD2"/>
<stop offset="1" stop-color="#DAE1EF"/>
</linearGradient>
<linearGradient id="paint27_linear_769_2227" x1="59.2357" y1="73.0335" x2="85.9947" y2="73.0335" gradientUnits="userSpaceOnUse">
<stop stop-color="#705AB8"/>
<stop offset="1" stop-color="white"/>
</linearGradient>
<linearGradient id="paint28_linear_769_2227" x1="85.9802" y1="73.0335" x2="111.798" y2="73.0335" gradientUnits="userSpaceOnUse">
<stop stop-color="#705AB8"/>
<stop offset="1" stop-color="white"/>
</linearGradient>
<linearGradient id="paint29_linear_769_2227" x1="69.2886" y1="85.5775" x2="86.0062" y2="85.5775" gradientUnits="userSpaceOnUse">
<stop stop-color="#705AB8"/>
<stop offset="1" stop-color="white"/>
</linearGradient>
<linearGradient id="paint30_linear_769_2227" x1="85.5192" y1="85.5775" x2="101.766" y2="85.5775" gradientUnits="userSpaceOnUse">
<stop stop-color="#705AB8"/>
<stop offset="1" stop-color="white"/>
</linearGradient>
<linearGradient id="paint31_linear_769_2227" x1="87.923" y1="51.4506" x2="91.5609" y2="84.7971" gradientUnits="userSpaceOnUse">
<stop stop-color="#BFD7FF"/>
<stop offset="1"/>
</linearGradient>
<linearGradient id="paint32_linear_769_2227" x1="85.9802" y1="68.8054" x2="111.798" y2="68.8054" gradientUnits="userSpaceOnUse">
<stop stop-color="#BFD7FF"/>
<stop offset="1"/>
</linearGradient>
<linearGradient id="paint33_linear_769_2227" x1="96.747" y1="50.4871" x2="100.385" y2="83.8336" gradientUnits="userSpaceOnUse">
<stop stop-color="#BFD7FF"/>
<stop offset="1"/>
</linearGradient>
<linearGradient id="paint34_linear_769_2227" x1="70.7822" y1="53.3214" x2="74.42" y2="86.6678" gradientUnits="userSpaceOnUse">
<stop stop-color="#BFD7FF"/>
<stop offset="1"/>
</linearGradient>
<linearGradient id="paint35_linear_769_2227" x1="69.3667" y1="93.2612" x2="101.861" y2="93.2612" gradientUnits="userSpaceOnUse">
<stop stop-color="#8980EB"/>
<stop offset="1" stop-color="#705AB8"/>
</linearGradient>
<linearGradient id="paint36_linear_769_2227" x1="59.2357" y1="76.4456" x2="85.9947" y2="76.4456" gradientUnits="userSpaceOnUse">
<stop stop-color="#8980EB"/>
<stop offset="1" stop-color="#705AB8"/>
</linearGradient>
<linearGradient id="paint37_linear_769_2227" x1="85.9802" y1="77.2874" x2="111.798" y2="77.2874" gradientUnits="userSpaceOnUse">
<stop stop-color="#8980EB"/>
<stop offset="1" stop-color="#705AB8"/>
</linearGradient>
<linearGradient id="paint38_linear_769_2227" x1="69.3667" y1="85.577" x2="101.861" y2="85.577" gradientUnits="userSpaceOnUse">
<stop stop-color="#8980EB"/>
<stop offset="1" stop-color="#705AB8"/>
</linearGradient>
</defs>
</svg>
