<svg width="85" height="70" viewBox="0 0 85 70" fill="none" xmlns="http://www.w3.org/2000/svg">
<path d="M16.1758 50.5018C16.1081 50.7361 6.22123 47.2995 6.22123 47.2995C1.83316 40.5693 0 35.2541 0 35.2541H16.8861L16.1758 50.5018Z" fill="url(#paint0_linear_769_1534)"/>
<path d="M3.2207 35.2544C3.2207 35.2544 7.16466 43.3989 7.88675 44.2801L16.4242 44.5085V43.9252C16.4242 43.9252 8.60885 43.9929 8.16434 43.6605C7.71983 43.3282 3.72075 35.2544 3.72075 35.2544H3.2207Z" fill="#394773"/>
<path d="M3.2207 35.2544L7.88675 44.2801C7.88675 44.2801 6.17869 41.8581 5.13719 39.7673C4.09569 37.6765 3.2207 35.2544 3.2207 35.2544Z" fill="white"/>
<path opacity="0.5" d="M4.43073 35.8073C5.08398 37.7541 7.68035 42.1755 8.22182 42.1755C8.7633 42.1755 15.0267 42.0645 15.6026 41.1618C16.1785 40.2591 16.6748 35.8965 16.1767 35.8073C15.6785 35.7181 4.13908 34.9383 4.43073 35.8073Z" fill="white"/>
<path opacity="0.5" d="M0.55658 35.5934C1.36232 37.5036 3.59782 42.3566 4.0142 42.4121C4.43058 42.4672 5.82628 42.6464 5.84738 42.0627C5.88069 41.1352 3.26437 35.7185 2.68144 35.5934C2.09814 35.4683 0.358939 35.1245 0.55658 35.5934Z" fill="white"/>
<path opacity="0.5" d="M4.42567 43.0507C4.35054 43.6525 6.59749 46.7586 6.97242 47.0084C7.34734 47.2582 14.9295 49.7054 15.4292 49.3568C15.9292 49.0081 16.1901 42.6032 15.7737 42.4174C15.357 42.2313 4.50895 42.3841 4.42567 43.0507Z" fill="url(#paint1_linear_769_1534)"/>
<path opacity="0.5" d="M11.2109 35.2544C11.2109 35.2544 12.5704 42.5535 12.2794 49.3567L16.1756 50.5018L16.8855 35.2544H11.2109Z" fill="url(#paint2_linear_769_1534)"/>
<path d="M68.5628 50.5017C68.6305 50.736 78.5174 47.2995 78.5174 47.2995C82.9055 40.5693 84.7386 35.254 84.7386 35.254H67.8525L68.5628 50.5017Z" fill="url(#paint3_linear_769_1534)"/>
<path d="M81.5164 35.2544C81.5164 35.2544 77.5725 43.3988 76.8504 44.2801L68.313 44.5084V43.9251C68.313 43.9251 76.1283 43.9929 76.5728 43.6605C77.0173 43.3281 81.0164 35.2544 81.0164 35.2544H81.5164Z" fill="#394773"/>
<path d="M81.5176 35.2544L76.8516 44.2801C76.8516 44.2801 78.5596 41.858 79.6011 39.7672C80.6426 37.6764 81.5176 35.2544 81.5176 35.2544Z" fill="white"/>
<path opacity="0.5" d="M80.3062 35.8073C79.653 37.7541 77.0566 42.1755 76.5152 42.1755C75.9737 42.1755 69.7102 42.0645 69.1343 41.1617C68.5584 40.259 68.0621 35.8965 68.5603 35.8073C69.0581 35.7181 80.5979 34.9382 80.3062 35.8073Z" fill="white"/>
<path opacity="0.5" d="M84.1841 35.5934C83.3784 37.5036 81.1429 42.3565 80.7266 42.4121C80.3098 42.4672 78.9145 42.6463 78.8934 42.0627C78.8601 41.1351 81.4764 35.7185 82.0593 35.5934C82.6426 35.4683 84.3818 35.1244 84.1841 35.5934Z" fill="white"/>
<path opacity="0.5" d="M80.3115 43.0507C80.3866 43.6525 78.1397 46.7585 77.7648 47.0084C77.3898 47.2582 69.8077 49.7054 69.308 49.3568C68.808 49.0081 68.5471 42.6032 68.9634 42.4174C69.3806 42.2312 80.2282 42.3841 80.3115 43.0507Z" fill="url(#paint4_linear_769_1534)"/>
<path opacity="0.5" d="M73.5271 35.2544C73.5271 35.2544 72.1677 42.5535 72.4586 49.3566L68.5624 50.5018L67.8525 35.2544H73.5271Z" fill="url(#paint5_linear_769_1534)"/>
<path d="M42.4808 0L14.8374 15.9602V54.0398L42.4808 70L70.1243 54.0398V15.9602L42.4808 0Z" fill="url(#paint6_linear_769_1534)"/>
<path d="M19.834 51.1536V18.8464L42.4783 5.77277L65.1226 18.8464V51.1536L42.4783 64.2273L19.834 51.1536Z" fill="url(#paint7_linear_769_1534)"/>
<path d="M21.5005 50.1913V19.8087L42.4785 7.69699L63.4566 19.8087V50.1913L42.4785 62.3034L21.5005 50.1913Z" fill="#736FA8"/>
<path opacity="0.5" d="M15.5258 16.0613C15.1845 17.0843 18.1218 18.3435 20.1915 17.8945C22.2612 17.4456 41.7162 6.02892 42.1877 5.00776C42.3191 4.72314 42.3402 0.730682 42.1877 0.730682C41.503 0.730682 15.6923 15.5617 15.5258 16.0613Z" fill="white"/>
<path opacity="0.5" d="M69.3002 16.0613C69.6411 17.0843 66.7042 18.3435 64.6342 17.8945C62.5641 17.4456 43.2934 5.92195 42.6379 5.00776C42.2992 4.53549 42.1882 0.730682 42.6379 0.730682C43.3226 0.730682 69.1337 15.5617 69.3002 16.0613Z" fill="white"/>
<path opacity="0.5" d="M15.4965 37.718C15.3107 38.8569 14.8585 53.2711 15.4965 53.3822C16.1346 53.4932 19.1344 51.4379 19.301 50.4937C19.4675 49.5496 19.523 39.6623 19.301 38.7181C19.0789 37.7735 15.806 35.8212 15.4965 37.718Z" fill="url(#paint8_linear_769_1534)"/>
<path opacity="0.5" d="M69.3518 37.718C69.5376 38.8569 69.9898 53.2711 69.3518 53.3822C68.7137 53.4932 65.7139 51.4379 65.5473 50.4937C65.3808 49.5496 65.3253 39.6623 65.5473 38.7181C65.7698 37.7735 69.0427 35.8212 69.3518 37.718Z" fill="url(#paint9_linear_769_1534)"/>
<path opacity="0.5" d="M16.1921 53.7751C16.5267 54.268 41.4224 68.988 41.7977 68.988C41.9861 68.988 42.2363 65.3298 42.2363 64.9219C42.2363 63.7841 20.2201 52.0921 19.8348 51.9837C19.2652 51.8231 15.8527 53.275 16.1921 53.7751Z" fill="url(#paint10_linear_769_1534)"/>
<path opacity="0.5" d="M68.8068 54.1596C68.4723 54.6526 43.1098 69.3237 42.7345 69.3237C42.6531 69.3237 42.6483 64.7713 42.8174 64.6021C43.6221 63.7975 64.6186 52.0918 65.0039 51.9833C65.5731 51.8231 69.1462 53.6596 68.8068 54.1596Z" fill="url(#paint11_linear_769_1534)"/>
<path opacity="0.5" d="M22.462 49.3825C20.9782 40.9638 21.8054 40.4331 32.2478 36.877C42.6902 33.3209 60.3558 24.152 61.9065 28.133C63.4573 32.1139 62.9254 49.0516 62.5731 49.978C62.2207 50.9048 43.9848 61.384 42.4792 61.4088C40.9736 61.4339 22.6289 50.3282 22.462 49.3825Z" fill="url(#paint12_linear_769_1534)"/>
<path opacity="0.3" d="M63.0057 20.0188C62.6375 19.9296 43.6798 8.97304 42.6095 9.05447C41.5943 9.13182 28.3849 15.3091 22.969 19.9774C21.5248 21.2221 22.0526 39.8098 23.3858 39.4678C24.7189 39.1254 25.7119 31.6135 40.3829 27.3931C54.8288 23.237 61.113 26.8327 62.6804 27.4763C63.1227 27.6581 63.8444 20.222 63.0057 20.0188Z" fill="white"/>
<path opacity="0.5" d="M19.834 51.1536V18.8468L42.4783 5.77277L65.1226 18.8468V51.1536L63.4564 50.1917C63.4564 50.1917 63.5574 22.1087 62.9534 21.2274C60.7993 18.0847 44.0476 10.4433 41.298 11.2938C38.4851 12.1643 23.5903 18.5056 21.924 21.1719C21.3629 22.0698 21.5002 50.1917 21.5002 50.1917L19.834 51.1536Z" fill="url(#paint13_linear_769_1534)"/>
<path opacity="0.2" d="M46.7074 23.2572C52.3494 25.8291 60.848 25.8739 61.6256 25.3835C62.4032 24.8931 62.9206 21.2726 61.6984 20.6615C60.4763 20.0505 50.7938 14.8947 48.2389 15.4503C45.684 16.0058 45.7099 22.8027 46.7074 23.2572Z" fill="white"/>
<path d="M14.8374 27.5612C14.8374 27.4761 15.0765 16.8215 15.5277 16.0613C15.9788 15.301 41.8857 0.93455 42.6393 0.730615C43.3928 0.52631 53.0969 6.12915 53.0969 6.12915L42.4808 0L14.8374 15.9602V27.5612Z" fill="url(#paint14_linear_769_1534)"/>
<path d="M52.3716 11.4851C52.3716 11.4851 64.5151 18.3941 64.682 19.1717C64.8485 19.9494 65.1217 40.8284 65.1217 40.8284C65.1217 40.8284 65.2364 19.7369 65.1217 18.8464C65.0066 17.9559 52.3716 11.4851 52.3716 11.4851Z" fill="white"/>
<path d="M19.8336 36.5514C19.8336 36.5514 19.4302 19.0859 19.6353 18.5193C19.8403 17.9526 42.4783 5.77277 42.4783 5.77277C42.4783 5.77277 20.619 18.2694 20.169 19.0611C19.7185 19.8524 19.8336 36.5514 19.8336 36.5514Z" fill="white"/>
<path d="M14.8334 54.0397L42.4768 70L70.1203 54.0397V45.3664C70.1203 45.3664 69.889 52.9383 69.3242 53.8817C68.7594 54.8251 43.9976 69.2264 42.7359 69.3238C41.4742 69.4211 16.1591 54.3817 15.4959 53.3821C14.833 52.3824 14.833 34.6352 14.833 34.6352L14.8334 54.0397Z" fill="url(#paint15_linear_769_1534)"/>
<path d="M19.8324 42.8838C19.8324 42.8838 19.7539 50.3347 20.1674 50.9602C20.5804 51.5857 31.3222 57.787 31.3222 57.787C31.3222 57.787 19.6847 51.7711 19.5759 51.3821C19.4671 50.9938 19.8324 42.8838 19.8324 42.8838Z" fill="white"/>
<path opacity="0.5" d="M29.1862 57.9374C28.3701 57.9396 26.0839 58.8553 26.578 59.3957C26.977 59.832 40.6797 68.1412 42.2342 68.7127C42.7412 68.8992 42.6928 65.6599 42.0121 64.6132C41.7208 64.1654 31.7144 57.9311 29.1862 57.9374Z" fill="white"/>
<path d="M52.2119 6.28528C51.5486 6.46442 53.7671 9.25695 54.8227 9.50715C55.8779 9.75698 57.3221 9.00675 56.8224 8.49303C56.3224 7.97931 53.2393 6.00732 52.2119 6.28528Z" fill="white"/>
<path d="M57.1291 9.05432C56.1231 9.32339 57.9789 13.7352 58.7728 14.5202C59.567 15.3052 66.6218 16.6802 66.4601 15.4089C66.2979 14.1371 58.5418 8.67606 57.1291 9.05432Z" fill="white"/>
<path opacity="0.5" d="M55.2279 58.012C54.6328 60.6124 54.7279 62.1451 55.0614 62.1614C55.3948 62.1776 67.4831 54.9026 67.8129 54.5825C68.1427 54.2623 65.875 52.1741 64.9419 52.3173C64.0081 52.4609 55.4504 57.0404 55.2279 58.012Z" fill="url(#paint16_linear_769_1534)"/>
<path opacity="0.5" d="M21.3009 19.5884C21.0089 18.7127 20.1151 18.7179 20.0336 19.6942C19.9522 20.6706 19.8126 38.7731 20.168 38.8008C20.5233 38.8286 21.2731 37.9399 21.3009 37.5232C21.3286 37.1064 21.4397 20.0051 21.3009 19.5884Z" fill="url(#paint17_linear_769_1534)"/>
<path opacity="0.5" d="M63.6532 19.6998C63.6054 20.0444 63.4311 37.135 63.6532 37.135C63.8752 37.135 64.8753 36.3296 64.8753 35.9128C64.8753 35.4961 64.6255 19.3386 64.5144 19.2553C64.4034 19.172 63.6916 19.4207 63.6532 19.6998Z" fill="url(#paint18_linear_769_1534)"/>
<path opacity="0.5" d="M42.4761 7.41709C42.4761 7.75316 32.735 13.312 32.5059 13.312C32.2768 13.312 32.3601 11.8122 32.6725 11.6039C32.9849 11.3955 42.4065 5.72972 42.4761 5.91737C42.5456 6.10502 42.4761 7.13728 42.4761 7.41709Z" fill="url(#paint19_linear_769_1534)"/>
<path d="M62.5826 52.4502C61.9609 52.4265 59.8593 53.6479 60.0189 54.2456C60.1784 54.8434 61.4645 55.4881 61.8058 55.1424C62.1474 54.7967 62.9898 52.4657 62.5826 52.4502Z" fill="#394773"/>
<path d="M63.3846 52.8698C63.1707 53.0671 62.7048 53.767 63.1485 54.109C63.5923 54.451 64.898 53.549 64.7052 53.284C64.512 53.019 63.6607 52.6155 63.3846 52.8698Z" fill="#394773"/>
<path opacity="0.5" d="M60.3272 53.6461C59.809 54.3478 61.9338 54.8138 62.2107 54.2234C62.4875 53.6327 62.9313 52.3888 62.5826 52.4506C62.2343 52.512 60.6095 53.2634 60.3272 53.6461Z" fill="url(#paint20_linear_769_1534)"/>
<path d="M60.0291 54.074C60.0291 54.074 60.2027 54.6717 60.8326 55.0415C61.3274 55.332 61.7538 55.2665 61.8796 55.0515C61.8796 55.0515 61.4929 55.5556 60.8493 55.255C59.8407 54.7842 60.0291 54.074 60.0291 54.074Z" fill="#DAE1EF"/>
<path opacity="0.5" d="M63.6188 52.8887C63.1387 53.4058 63.5118 54.1512 63.7812 54.1094C64.051 54.0672 64.8542 53.5368 64.7028 53.2844C64.5518 53.032 63.7235 52.7755 63.6188 52.8887Z" fill="url(#paint21_linear_769_1534)"/>
<path d="M63.3833 52.8699C63.3833 52.8699 62.9421 53.4762 63.119 53.8255C63.2963 54.1749 63.5461 54.1731 63.5461 54.1731C63.5461 54.1731 62.9758 54.5047 62.8707 54.1157C62.6889 53.4428 63.3833 52.8699 63.3833 52.8699Z" fill="#DAE1EF"/>
<path d="M39.633 7.228C38.144 6.83457 36.9404 7.79946 36.2875 8.54044C35.6346 9.28178 35.9988 9.7226 36.8197 9.5764C37.6407 9.43058 40.2607 7.39345 39.633 7.228Z" fill="#394773"/>
<path opacity="0.5" d="M39.6331 7.22806C38.626 6.88422 37.3517 7.55154 36.9513 7.90685C36.5508 8.26216 37.338 9.26888 37.8803 9.05421C38.4225 8.83954 40.092 7.38462 39.6331 7.22806Z" fill="url(#paint22_linear_769_1534)"/>
<path d="M36.6624 8.15622C36.6624 8.15622 34.9798 9.25843 35.1686 9.80472C35.3573 10.351 37.3744 9.35466 37.3744 9.35466C37.3744 9.35466 36.3285 9.69591 36.0917 9.23141C35.8544 8.76691 36.6624 8.15622 36.6624 8.15622Z" fill="white"/>
<path d="M20.7974 51.3753C20.005 51.5733 22.3534 53.1862 22.9089 53.2695C23.4645 53.3528 22.9167 51.9382 22.6477 51.695C22.45 51.5163 21.242 51.2642 20.7974 51.3753Z" fill="white"/>
<path d="M42.4567 52.9297L13.9201 36.287C12.8172 38.8016 12.5581 41.1618 12.5581 41.1618L14.4202 44.3093L42.457 60.593L70.4939 44.3093L72.1824 41.1618C72.1824 41.1618 72.1857 38.8016 71.1605 36.287L42.4567 52.9297Z" fill="url(#paint23_linear_769_1534)"/>
<path d="M14.4206 44.3092L12.5586 41.1617L42.4571 58.6768L72.1825 41.1617L70.4941 44.3092L42.4571 60.5926L14.4206 44.3092Z" fill="url(#paint24_linear_769_1534)"/>
<path opacity="0.5" d="M12.5586 41.1617L14.4206 44.3092L14.8455 44.5709L14.8359 45.508C14.8359 45.508 16.4359 46.3234 19.5786 48.0589C19.6852 48.1177 21.5527 50.0908 21.5527 50.0908C21.5527 50.0908 41.7495 62.3032 42.4794 62.3032C43.4217 62.3032 63.4589 49.821 63.4589 49.821C63.4589 49.821 65.0193 48.5104 65.1748 48.419L70.1228 45.8278V44.525L70.4941 44.3092L72.1825 41.1617L42.4575 58.675L12.5586 41.1617Z" fill="url(#paint25_linear_769_1534)"/>
<path opacity="0.5" d="M42.4541 52.9298V58.677L72.1791 41.1619C72.1791 41.1619 72.0603 38.2805 71.1572 36.287L42.4541 52.9298Z" fill="url(#paint26_linear_769_1534)"/>
<path opacity="0.5" d="M15.3872 37.5498C14.8413 37.5498 15.2887 42.3824 16.9472 43.4932C19.5813 45.2579 35.4633 54.6193 36.5037 54.6304C37.2224 54.6381 37.1847 50.5328 36.9689 50.2145C36.5595 49.6112 16.2018 37.5498 15.3872 37.5498Z" fill="white"/>
<path opacity="0.5" d="M51.2807 47.9649C50.9358 48.321 50.9827 52.8379 51.5723 52.7032C52.1619 52.5688 61.1387 47.7754 65.3717 44.6672C69.6051 41.5593 70.2024 37.4606 69.2497 37.5513C69.2497 37.5513 51.9887 47.2336 51.2807 47.9649Z" fill="white"/>
<path d="M27.9165 50.1596C27.9165 50.1596 41.5804 58.3533 42.4557 58.3533C43.3306 58.3533 54.2394 51.7323 54.2394 51.7323C54.2394 51.7323 42.7892 58.9921 42.4775 58.9921C42.2344 58.9921 27.9165 50.1596 27.9165 50.1596Z" fill="white"/>
<path opacity="0.5" d="M42.525 44.6603L36.3955 47.8829L37.5662 41.0576L32.6074 36.2242L39.4601 35.2282L42.525 29.0187L45.5896 35.2282L52.4422 36.2242L47.4834 41.0576L48.6541 47.8829L42.525 44.6603Z" fill="url(#paint27_linear_769_1534)"/>
<path d="M51.7252 36.4569L48.4182 35.9761L47.5148 35.8447L45.3674 35.5327L42.5241 29.7715L39.6806 35.5327L33.3228 36.4569L37.9237 40.9412L36.8373 47.2736L42.5241 44.2838L48.2106 47.2736L47.1247 40.9412L51.7252 36.4569Z" fill="url(#paint28_linear_769_1534)"/>
<path opacity="0.5" d="M33.29 36.457L42.6562 38.9053L37.8909 40.9413L33.29 36.457Z" fill="url(#paint29_linear_769_1534)"/>
<path opacity="0.5" d="M51.693 36.457L42.6567 38.9053L47.0926 40.9413L51.693 36.457Z" fill="url(#paint30_linear_769_1534)"/>
<path opacity="0.5" d="M42.492 44.2838L42.6567 38.9053L36.8052 47.2736L42.492 44.2838Z" fill="url(#paint31_linear_769_1534)"/>
<path opacity="0.5" d="M48.1776 47.2736L42.6559 38.9053L42.4912 44.2838L48.1776 47.2736Z" fill="url(#paint32_linear_769_1534)"/>
<path opacity="0.5" d="M42.4912 29.7714L42.6559 38.9052L45.3344 35.5327L42.4912 29.7714Z" fill="url(#paint33_linear_769_1534)"/>
<path opacity="0.5" d="M51.693 36.4571L42.6567 38.9054L45.3352 35.5329L51.693 36.4571Z" fill="url(#paint34_linear_769_1534)"/>
<path opacity="0.5" d="M51.693 36.4571L42.6567 38.9054L45.3352 35.5329L51.693 36.4571Z" fill="url(#paint35_linear_769_1534)"/>
<path opacity="0.5" d="M39.6479 35.5329L42.6562 38.9054L33.29 36.4571L39.6479 35.5329Z" fill="url(#paint36_linear_769_1534)"/>
<path opacity="0.8" d="M45.3366 37.5371C44.8639 37.9368 45.2674 38.1985 45.2674 38.1985L47.7016 37.5389C47.7016 37.5389 46.4288 36.6129 45.3366 37.5371Z" fill="white"/>
<path opacity="0.5" d="M36.8364 47.2738C36.8364 47.2738 41.1497 45.2418 42.5232 44.6759L48.21 47.2738L42.5232 44.284L36.8364 47.2738Z" fill="url(#paint37_linear_769_1534)"/>
<path opacity="0.5" d="M33.2896 36.457L42.6557 38.9053L37.5133 43.3297L33.2896 36.457Z" fill="url(#paint38_linear_769_1534)"/>
<path opacity="0.5" d="M51.6926 36.457L42.6562 38.9053L47.6354 43.9189L51.6926 36.457Z" fill="url(#paint39_linear_769_1534)"/>
<path opacity="0.5" d="M36.8364 47.2737L42.6554 38.9053L48.2097 47.2737L42.5232 46.3754L36.8364 47.2737Z" fill="url(#paint40_linear_769_1534)"/>
<path opacity="0.4" d="M40.4083 34.5364C39.8035 36.2138 42.1078 37.3849 42.418 36.8689C42.7282 36.353 42.5313 33.4723 42.1423 33.0833C41.7529 32.6944 40.6559 33.8499 40.4083 34.5364Z" fill="#F7FFFF"/>
<path opacity="0.4" d="M38.5211 43.1291C39.7458 43.2953 40.4312 41.9007 40.6892 40.9413C41.1049 39.3953 36.2952 42.8274 38.5211 43.1291Z" fill="#F7FFFF"/>
<path opacity="0.5" d="M42.525 25.7961L36.3955 29.0187L37.5662 22.1933L32.6074 17.36L39.4601 16.364L42.525 10.1545L45.5896 16.364L52.4422 17.36L47.4834 22.1933L48.6541 29.0187L42.525 25.7961Z" fill="url(#paint41_linear_769_1534)"/>
<path d="M51.7252 17.5928L48.4182 17.112L47.5148 16.9806L45.3674 16.6686L42.5241 10.9077L39.6806 16.6686L33.3228 17.5928L37.9237 22.0771L36.8373 28.4095L42.5241 25.4197L48.2106 28.4095L47.1247 22.0771L51.7252 17.5928Z" fill="url(#paint42_linear_769_1534)"/>
<path opacity="0.5" d="M33.29 17.5929L42.6562 20.0412L37.8909 22.0772L33.29 17.5929Z" fill="url(#paint43_linear_769_1534)"/>
<path opacity="0.5" d="M51.693 17.5929L42.6567 20.0412L47.0926 22.0772L51.693 17.5929Z" fill="url(#paint44_linear_769_1534)"/>
<path opacity="0.5" d="M42.492 25.4196L42.6567 20.0411L36.8052 28.4094L42.492 25.4196Z" fill="url(#paint45_linear_769_1534)"/>
<path opacity="0.5" d="M48.1776 28.4094L42.6559 20.0411L42.4912 25.4196L48.1776 28.4094Z" fill="url(#paint46_linear_769_1534)"/>
<path opacity="0.5" d="M42.4912 10.9077L42.6559 20.0411L45.3344 16.6686L42.4912 10.9077Z" fill="url(#paint47_linear_769_1534)"/>
<path opacity="0.5" d="M51.693 17.5929L42.6567 20.0412L45.3352 16.6687L51.693 17.5929Z" fill="url(#paint48_linear_769_1534)"/>
<path opacity="0.5" d="M51.693 17.5929L42.6567 20.0412L45.3352 16.6687L51.693 17.5929Z" fill="url(#paint49_linear_769_1534)"/>
<path opacity="0.5" d="M39.6479 16.6687L42.6562 20.0412L33.29 17.5929L39.6479 16.6687Z" fill="url(#paint50_linear_769_1534)"/>
<path opacity="0.8" d="M45.3366 18.6728C44.8639 19.0725 45.2674 19.3342 45.2674 19.3342L47.7016 18.6746C47.7016 18.6746 46.4288 17.7486 45.3366 18.6728Z" fill="white"/>
<path opacity="0.5" d="M36.8364 28.4095C36.8364 28.4095 41.1497 26.3776 42.5232 25.8117L48.21 28.4095L42.5232 25.4197L36.8364 28.4095Z" fill="url(#paint51_linear_769_1534)"/>
<path opacity="0.5" d="M33.2896 17.5929L42.6557 20.0412L37.5133 24.466L33.2896 17.5929Z" fill="url(#paint52_linear_769_1534)"/>
<path opacity="0.5" d="M51.6926 17.5929L42.6562 20.0412L47.6354 25.0552L51.6926 17.5929Z" fill="url(#paint53_linear_769_1534)"/>
<path opacity="0.5" d="M36.8364 28.4095L42.6554 20.0411L48.2097 28.4095L42.5232 27.5112L36.8364 28.4095Z" fill="url(#paint54_linear_769_1534)"/>
<path opacity="0.4" d="M40.4083 15.6723C39.8035 17.3497 42.1078 18.5207 42.418 18.0048C42.7282 17.4892 42.5313 14.6082 42.1423 14.2192C41.7529 13.8302 40.6559 14.9857 40.4083 15.6723Z" fill="#F7FFFF"/>
<path opacity="0.4" d="M38.5211 24.265C39.7458 24.4312 40.4312 23.0366 40.6892 22.0773C41.1049 20.5316 36.2952 23.9634 38.5211 24.265Z" fill="#F7FFFF"/>
<defs>
<linearGradient id="paint0_linear_769_1534" x1="8.44301" y1="50.4659" x2="8.44301" y2="35.3684" gradientUnits="userSpaceOnUse">
<stop offset="0.2103" stop-color="#98ABD2"/>
<stop offset="0.4881" stop-color="#72719D"/>
<stop offset="1" stop-color="#DAE1EF"/>
</linearGradient>
<linearGradient id="paint1_linear_769_1534" x1="10.2485" y1="48.9612" x2="10.1869" y2="41.8782" gradientUnits="userSpaceOnUse">
<stop stop-color="#705AB8"/>
<stop offset="1" stop-color="white"/>
</linearGradient>
<linearGradient id="paint2_linear_769_1534" x1="11.2111" y1="42.8781" x2="16.8858" y2="42.8781" gradientUnits="userSpaceOnUse">
<stop stop-color="#8980EB"/>
<stop offset="1" stop-color="#705AB8"/>
</linearGradient>
<linearGradient id="paint3_linear_769_1534" x1="76.2959" y1="50.4658" x2="76.2959" y2="35.3684" gradientUnits="userSpaceOnUse">
<stop offset="0.2103" stop-color="#98ABD2"/>
<stop offset="0.4881" stop-color="#72719D"/>
<stop offset="1" stop-color="#DAE1EF"/>
</linearGradient>
<linearGradient id="paint4_linear_769_1534" x1="74.4889" y1="48.9612" x2="74.5505" y2="41.8781" gradientUnits="userSpaceOnUse">
<stop stop-color="#705AB8"/>
<stop offset="1" stop-color="white"/>
</linearGradient>
<linearGradient id="paint5_linear_769_1534" x1="73.5272" y1="42.878" x2="67.8526" y2="42.878" gradientUnits="userSpaceOnUse">
<stop stop-color="#8980EB"/>
<stop offset="1" stop-color="#705AB8"/>
</linearGradient>
<linearGradient id="paint6_linear_769_1534" x1="42.4809" y1="71.2022" x2="42.4809" y2="11.1773" gradientUnits="userSpaceOnUse">
<stop offset="0.2103" stop-color="#98ABD2"/>
<stop offset="0.4881" stop-color="#72719D"/>
<stop offset="1" stop-color="#DAE1EF"/>
</linearGradient>
<linearGradient id="paint7_linear_769_1534" x1="42.4783" y1="9.38804" x2="42.4783" y2="64.0715" gradientUnits="userSpaceOnUse">
<stop offset="0.2103" stop-color="#98ABD2"/>
<stop offset="0.4881" stop-color="#72719D"/>
<stop offset="1" stop-color="#DAE1EF"/>
</linearGradient>
<linearGradient id="paint8_linear_769_1534" x1="17.3072" y1="60.5476" x2="17.3072" y2="27.4547" gradientUnits="userSpaceOnUse">
<stop stop-color="#705AB8"/>
<stop offset="1" stop-color="white"/>
</linearGradient>
<linearGradient id="paint9_linear_769_1534" x1="67.5413" y1="60.5476" x2="67.5413" y2="27.4547" gradientUnits="userSpaceOnUse">
<stop stop-color="#705AB8"/>
<stop offset="1" stop-color="white"/>
</linearGradient>
<linearGradient id="paint10_linear_769_1534" x1="22.3516" y1="48.1985" x2="35.7291" y2="69.8956" gradientUnits="userSpaceOnUse">
<stop stop-color="#705AB8"/>
<stop offset="1" stop-color="white"/>
</linearGradient>
<linearGradient id="paint11_linear_769_1534" x1="52.1535" y1="50.9335" x2="61.7354" y2="79.3455" gradientUnits="userSpaceOnUse">
<stop stop-color="#705AB8"/>
<stop offset="1" stop-color="white"/>
</linearGradient>
<linearGradient id="paint12_linear_769_1534" x1="42.4241" y1="66.0655" x2="42.4241" y2="20.3147" gradientUnits="userSpaceOnUse">
<stop stop-color="#705AB8"/>
<stop offset="1" stop-color="white"/>
</linearGradient>
<linearGradient id="paint13_linear_769_1534" x1="19.8339" y1="28.4631" x2="65.1227" y2="28.4631" gradientUnits="userSpaceOnUse">
<stop stop-color="#8980EB"/>
<stop offset="1" stop-color="#705AB8"/>
</linearGradient>
<linearGradient id="paint14_linear_769_1534" x1="14.8373" y1="13.7807" x2="53.0968" y2="13.7807" gradientUnits="userSpaceOnUse">
<stop stop-color="#728EE3"/>
<stop offset="1" stop-color="#836888"/>
</linearGradient>
<linearGradient id="paint15_linear_769_1534" x1="14.8333" y1="52.3176" x2="70.1204" y2="52.3176" gradientUnits="userSpaceOnUse">
<stop stop-color="#728EE3"/>
<stop offset="1" stop-color="#836888"/>
</linearGradient>
<linearGradient id="paint16_linear_769_1534" x1="54.7957" y1="57.2361" x2="67.845" y2="57.2361" gradientUnits="userSpaceOnUse">
<stop stop-color="#8980EB"/>
<stop offset="1" stop-color="#705AB8"/>
</linearGradient>
<linearGradient id="paint17_linear_769_1534" x1="19.9371" y1="28.874" x2="21.3691" y2="28.874" gradientUnits="userSpaceOnUse">
<stop stop-color="#8980EB"/>
<stop offset="1" stop-color="#705AB8"/>
</linearGradient>
<linearGradient id="paint18_linear_769_1534" x1="63.5429" y1="28.1868" x2="64.8751" y2="28.1868" gradientUnits="userSpaceOnUse">
<stop stop-color="#8980EB"/>
<stop offset="1" stop-color="#705AB8"/>
</linearGradient>
<linearGradient id="paint19_linear_769_1534" x1="32.3754" y1="9.61222" x2="42.5071" y2="9.61222" gradientUnits="userSpaceOnUse">
<stop stop-color="#8980EB"/>
<stop offset="1" stop-color="#705AB8"/>
</linearGradient>
<linearGradient id="paint20_linear_769_1534" x1="61.3372" y1="52.9741" x2="62.0776" y2="54.3712" gradientUnits="userSpaceOnUse">
<stop stop-color="#8980EB"/>
<stop offset="1" stop-color="#705AB8"/>
</linearGradient>
<linearGradient id="paint21_linear_769_1534" x1="63.7019" y1="52.8412" x2="64.2592" y2="53.8926" gradientUnits="userSpaceOnUse">
<stop stop-color="#8980EB"/>
<stop offset="1" stop-color="#705AB8"/>
</linearGradient>
<linearGradient id="paint22_linear_769_1534" x1="38.0076" y1="7.28641" x2="38.7013" y2="8.63696" gradientUnits="userSpaceOnUse">
<stop stop-color="#8980EB"/>
<stop offset="1" stop-color="#705AB8"/>
</linearGradient>
<linearGradient id="paint23_linear_769_1534" x1="42.37" y1="16.5312" x2="42.37" y2="60.035" gradientUnits="userSpaceOnUse">
<stop offset="0.2103" stop-color="#98ABD2"/>
<stop offset="0.4881" stop-color="#72719D"/>
<stop offset="1" stop-color="#DAE1EF"/>
</linearGradient>
<linearGradient id="paint24_linear_769_1534" x1="12.5586" y1="50.8772" x2="72.1824" y2="50.8772" gradientUnits="userSpaceOnUse">
<stop offset="0.2103" stop-color="#98ABD2"/>
<stop offset="0.4881" stop-color="#72719D"/>
<stop offset="1" stop-color="#DAE1EF"/>
</linearGradient>
<linearGradient id="paint25_linear_769_1534" x1="42.3704" y1="62.6662" x2="42.3704" y2="44.5375" gradientUnits="userSpaceOnUse">
<stop stop-color="#8980EB"/>
<stop offset="1" stop-color="#705AB8"/>
</linearGradient>
<linearGradient id="paint26_linear_769_1534" x1="58.1025" y1="59.2085" x2="56.1825" y2="36.6608" gradientUnits="userSpaceOnUse">
<stop stop-color="#705AB8"/>
<stop offset="1" stop-color="white"/>
</linearGradient>
<linearGradient id="paint27_linear_769_1534" x1="32.6075" y1="38.4507" x2="52.4423" y2="38.4507" gradientUnits="userSpaceOnUse">
<stop stop-color="#8980EB"/>
<stop offset="1" stop-color="#705AB8"/>
</linearGradient>
<linearGradient id="paint28_linear_769_1534" x1="42.524" y1="47.6026" x2="42.524" y2="26.8031" gradientUnits="userSpaceOnUse">
<stop stop-color="#86759D"/>
<stop offset="0.3889" stop-color="#98ABD2"/>
<stop offset="1" stop-color="#DAE1EF"/>
</linearGradient>
<linearGradient id="paint29_linear_769_1534" x1="33.2902" y1="38.699" x2="42.656" y2="38.699" gradientUnits="userSpaceOnUse">
<stop stop-color="#705AB8"/>
<stop offset="1" stop-color="white"/>
</linearGradient>
<linearGradient id="paint30_linear_769_1534" x1="42.6566" y1="38.699" x2="51.6931" y2="38.699" gradientUnits="userSpaceOnUse">
<stop stop-color="#705AB8"/>
<stop offset="1" stop-color="white"/>
</linearGradient>
<linearGradient id="paint31_linear_769_1534" x1="36.8052" y1="43.0894" x2="42.6566" y2="43.0894" gradientUnits="userSpaceOnUse">
<stop stop-color="#705AB8"/>
<stop offset="1" stop-color="white"/>
</linearGradient>
<linearGradient id="paint32_linear_769_1534" x1="42.4911" y1="43.0894" x2="48.1777" y2="43.0894" gradientUnits="userSpaceOnUse">
<stop stop-color="#705AB8"/>
<stop offset="1" stop-color="white"/>
</linearGradient>
<linearGradient id="paint33_linear_769_1534" x1="43.3324" y1="31.1449" x2="44.6057" y2="42.8162" gradientUnits="userSpaceOnUse">
<stop stop-color="#BFD7FF"/>
<stop offset="1"/>
</linearGradient>
<linearGradient id="paint34_linear_769_1534" x1="42.6566" y1="37.2193" x2="51.6931" y2="37.2193" gradientUnits="userSpaceOnUse">
<stop stop-color="#BFD7FF"/>
<stop offset="1"/>
</linearGradient>
<linearGradient id="paint35_linear_769_1534" x1="46.425" y1="30.8079" x2="47.6983" y2="42.4792" gradientUnits="userSpaceOnUse">
<stop stop-color="#BFD7FF"/>
<stop offset="1"/>
</linearGradient>
<linearGradient id="paint36_linear_769_1534" x1="37.3315" y1="31.7998" x2="38.6047" y2="43.4711" gradientUnits="userSpaceOnUse">
<stop stop-color="#BFD7FF"/>
<stop offset="1"/>
</linearGradient>
<linearGradient id="paint37_linear_769_1534" x1="36.8365" y1="45.7788" x2="48.2097" y2="45.7788" gradientUnits="userSpaceOnUse">
<stop stop-color="#8980EB"/>
<stop offset="1" stop-color="#705AB8"/>
</linearGradient>
<linearGradient id="paint38_linear_769_1534" x1="33.2897" y1="39.8933" x2="42.6555" y2="39.8933" gradientUnits="userSpaceOnUse">
<stop stop-color="#8980EB"/>
<stop offset="1" stop-color="#705AB8"/>
</linearGradient>
<linearGradient id="paint39_linear_769_1534" x1="42.6561" y1="40.1879" x2="51.6926" y2="40.1879" gradientUnits="userSpaceOnUse">
<stop stop-color="#8980EB"/>
<stop offset="1" stop-color="#705AB8"/>
</linearGradient>
<linearGradient id="paint40_linear_769_1534" x1="36.8365" y1="43.0894" x2="48.2097" y2="43.0894" gradientUnits="userSpaceOnUse">
<stop stop-color="#8980EB"/>
<stop offset="1" stop-color="#705AB8"/>
</linearGradient>
<linearGradient id="paint41_linear_769_1534" x1="32.6075" y1="19.5865" x2="52.4423" y2="19.5865" gradientUnits="userSpaceOnUse">
<stop stop-color="#8980EB"/>
<stop offset="1" stop-color="#705AB8"/>
</linearGradient>
<linearGradient id="paint42_linear_769_1534" x1="42.524" y1="28.7385" x2="42.524" y2="7.939" gradientUnits="userSpaceOnUse">
<stop stop-color="#86759D"/>
<stop offset="0.3889" stop-color="#98ABD2"/>
<stop offset="1" stop-color="#DAE1EF"/>
</linearGradient>
<linearGradient id="paint43_linear_769_1534" x1="33.2902" y1="19.835" x2="42.656" y2="19.835" gradientUnits="userSpaceOnUse">
<stop stop-color="#705AB8"/>
<stop offset="1" stop-color="white"/>
</linearGradient>
<linearGradient id="paint44_linear_769_1534" x1="42.6566" y1="19.835" x2="51.6931" y2="19.835" gradientUnits="userSpaceOnUse">
<stop stop-color="#705AB8"/>
<stop offset="1" stop-color="white"/>
</linearGradient>
<linearGradient id="paint45_linear_769_1534" x1="36.8052" y1="24.2253" x2="42.6566" y2="24.2253" gradientUnits="userSpaceOnUse">
<stop stop-color="#705AB8"/>
<stop offset="1" stop-color="white"/>
</linearGradient>
<linearGradient id="paint46_linear_769_1534" x1="42.4911" y1="24.2253" x2="48.1777" y2="24.2253" gradientUnits="userSpaceOnUse">
<stop stop-color="#705AB8"/>
<stop offset="1" stop-color="white"/>
</linearGradient>
<linearGradient id="paint47_linear_769_1534" x1="43.3324" y1="12.2808" x2="44.6057" y2="23.9522" gradientUnits="userSpaceOnUse">
<stop stop-color="#BFD7FF"/>
<stop offset="1"/>
</linearGradient>
<linearGradient id="paint48_linear_769_1534" x1="42.6566" y1="18.3551" x2="51.6931" y2="18.3551" gradientUnits="userSpaceOnUse">
<stop stop-color="#BFD7FF"/>
<stop offset="1"/>
</linearGradient>
<linearGradient id="paint49_linear_769_1534" x1="46.425" y1="11.9437" x2="47.6983" y2="23.615" gradientUnits="userSpaceOnUse">
<stop stop-color="#BFD7FF"/>
<stop offset="1"/>
</linearGradient>
<linearGradient id="paint50_linear_769_1534" x1="37.3315" y1="12.9356" x2="38.6047" y2="24.6069" gradientUnits="userSpaceOnUse">
<stop stop-color="#BFD7FF"/>
<stop offset="1"/>
</linearGradient>
<linearGradient id="paint51_linear_769_1534" x1="36.8365" y1="26.9146" x2="48.2097" y2="26.9146" gradientUnits="userSpaceOnUse">
<stop stop-color="#8980EB"/>
<stop offset="1" stop-color="#705AB8"/>
</linearGradient>
<linearGradient id="paint52_linear_769_1534" x1="33.2897" y1="21.0293" x2="42.6555" y2="21.0293" gradientUnits="userSpaceOnUse">
<stop stop-color="#8980EB"/>
<stop offset="1" stop-color="#705AB8"/>
</linearGradient>
<linearGradient id="paint53_linear_769_1534" x1="42.6561" y1="21.3239" x2="51.6926" y2="21.3239" gradientUnits="userSpaceOnUse">
<stop stop-color="#8980EB"/>
<stop offset="1" stop-color="#705AB8"/>
</linearGradient>
<linearGradient id="paint54_linear_769_1534" x1="36.8365" y1="24.2253" x2="48.2097" y2="24.2253" gradientUnits="userSpaceOnUse">
<stop stop-color="#8980EB"/>
<stop offset="1" stop-color="#705AB8"/>
</linearGradient>
</defs>
</svg>
