<svg width="26" height="25" viewBox="0 0 26 25" fill="none" xmlns="http://www.w3.org/2000/svg">
<rect width="24" height="24" transform="translate(0.439453 0.413086)" fill="#16697B"/>
<path d="M15.9302 10.8762L17.4302 4.37622L15.252 4.15031L20.2087 0.656738L24.0048 4.62588L20.9735 4.46117L16.9302 12.3762L15.9302 10.8762Z" fill="#FFA62B" stroke="#FFA62B"/>
<path d="M7.33057 16.7446L8.65711 8.63027C8.92478 8.62264 9.1866 8.61121 9.44257 8.59598C9.71023 8.57313 9.9662 8.54647 10.2106 8.51599C10.4433 8.4855 10.6818 8.46264 10.9262 8.44741C11.1706 8.42456 11.4091 8.40933 11.6418 8.4017L11.5895 8.63027C11.5779 8.70647 11.5546 8.79407 11.5197 8.89313C11.4964 8.98456 11.4731 9.09121 11.4498 9.21313C11.3917 9.47978 11.3219 9.78456 11.2404 10.1274C11.159 10.4703 11.0658 10.8512 10.9611 11.2703C10.8913 11.5293 10.8099 11.8417 10.7167 12.2074C10.6353 12.5731 10.5364 12.9884 10.42 13.4531H10.6818C10.8331 13.1026 10.9728 12.7826 11.1007 12.4931C11.2288 12.2036 11.3393 11.9484 11.4324 11.7274C11.5255 11.5065 11.6128 11.3084 11.6942 11.1331C11.7873 10.9503 11.8629 10.7865 11.9211 10.6417C12.1655 10.0779 12.3633 9.61693 12.5146 9.25884C12.6659 8.90076 12.7648 8.66836 12.8113 8.5617H12.9684C13.271 8.5617 13.5851 8.54647 13.9109 8.51599C14.2484 8.4855 14.5509 8.45121 14.8186 8.41313C14.807 8.44361 14.7837 8.56933 14.7487 8.79027C14.7138 9.01121 14.6731 9.2817 14.6266 9.6017C14.58 9.9217 14.5335 10.2531 14.4869 10.596C14.4055 11.2436 14.3298 11.8074 14.26 12.2874C14.2019 12.7674 14.1495 13.156 14.1029 13.4531H14.4171L16.0753 8.53884L17.2447 8.43599C17.4077 8.42076 17.5764 8.4055 17.7509 8.39027C17.9255 8.37504 18.1059 8.35979 18.292 8.34456C18.6295 8.31407 18.9495 8.27978 19.252 8.2417C18.9029 8.8817 18.5538 9.63599 18.2047 10.5046C17.8557 11.3731 17.5066 12.2531 17.1575 13.1446C16.9713 13.6322 16.7851 14.1274 16.5989 14.6303C16.4244 15.1255 16.2498 15.6322 16.0753 16.1503L12.1306 16.5846L12.8986 12.1731H12.6891L10.9611 16.3217L7.33057 16.7446Z" fill="#FFA62B"/>
<path fill-rule="evenodd" clip-rule="evenodd" d="M10.4302 9.37622L0.430176 24.3762L0.435255 24.3686L8.93018 9.37622H10.4302Z" fill="#FFA62B" stroke="#FFA62B"/>
</svg>
