<svg width="280" height="31" viewBox="0 0 280 31" fill="none" xmlns="http://www.w3.org/2000/svg">
<path d="M6.27994 30C5.21328 30 4.14661 29.72 3.07994 29.16C2.01327 28.5733 0.986608 27.6533 -5.85765e-05 26.4L2.95994 20.6C3.25328 21.1067 3.67994 21.5867 4.23994 22.04C4.82661 22.4933 5.43994 22.8533 6.07994 23.12C6.71994 23.3867 7.26661 23.52 7.71994 23.52C8.41328 23.52 9.06661 23.3067 9.67994 22.88C10.3199 22.4533 10.6399 21.88 10.6399 21.16C10.6399 20.2267 10.2133 19.3733 9.35994 18.6C8.50661 17.8267 7.54661 17.0667 6.47994 16.32C5.43994 15.5733 4.47994 14.7333 3.59994 13.8C2.74661 12.84 2.31994 11.7467 2.31994 10.52C2.31994 9.13333 2.71994 7.85333 3.51994 6.68C4.31994 5.48 5.35994 4.44 6.63994 3.56C7.91994 2.65333 9.27994 1.96 10.7199 1.48C12.1866 0.973331 13.5733 0.719997 14.8799 0.719997C15.8133 0.719997 16.6799 0.879997 17.4799 1.2C18.2799 1.49333 18.9199 1.98666 19.3999 2.68C19.8799 3.37333 20.1199 4.30666 20.1199 5.48C20.1199 5.66666 20.1066 5.85333 20.0799 6.04C20.0799 6.22666 20.0666 6.41333 20.0399 6.6C20.0133 6.78666 19.9733 6.98666 19.9199 7.2C19.8933 7.38666 19.8666 7.58666 19.8399 7.8L14.0399 9.48C14.0933 9.26666 14.1333 9.05333 14.1599 8.84C14.2133 8.62666 14.2399 8.41333 14.2399 8.2C14.2399 7.4 14.0933 6.82666 13.7999 6.48C13.5333 6.10666 13.1733 5.92 12.7199 5.92C12.4799 5.92 12.1333 6.05333 11.6799 6.32C11.2266 6.56 10.8133 6.90666 10.4399 7.36C10.0933 7.78666 9.91994 8.26666 9.91994 8.8C9.91994 9.68 10.2799 10.4133 10.9999 11C11.7466 11.56 12.5999 12.1333 13.5599 12.72C14.0133 12.9867 14.5199 13.4133 15.0799 14C15.6399 14.56 16.1199 15.3333 16.5199 16.32C16.9466 17.28 17.1599 18.52 17.1599 20.04C17.1599 22.0133 16.6666 23.7467 15.6799 25.24C14.7199 26.7333 13.4133 27.9067 11.7599 28.76C10.1066 29.5867 8.27994 30 6.27994 30ZM20.2274 29.96C20.5208 28.4933 20.8141 27.04 21.1074 25.6C21.4274 24.1333 21.7208 22.6933 21.9874 21.28C23.0008 16.2133 23.8274 11.36 24.4674 6.72C24.1741 6.66666 23.8674 6.64 23.5474 6.64C23.2274 6.61333 22.9208 6.61333 22.6274 6.64C21.9874 6.69333 21.3608 6.61333 20.7474 6.4C20.7741 6.18666 20.7874 5.96 20.7874 5.72C20.7874 5.45333 20.7874 5.18666 20.7874 4.92C20.7874 4.62666 20.7874 4.34666 20.7874 4.08C20.7874 3.78666 20.8008 3.50666 20.8274 3.24C20.8541 2.94666 20.8674 2.64 20.8674 2.32C20.8674 1.97333 20.8808 1.62666 20.9074 1.28C21.6008 1.33333 22.2941 1.37333 22.9874 1.4C23.6808 1.42666 24.3741 1.44 25.0674 1.44C27.0408 1.44 28.9208 1.37333 30.7074 1.24C32.5208 1.10666 34.1874 0.946663 35.7074 0.759997L35.2674 2.92L34.9074 4.8C34.7741 5.49333 34.6541 6.04 34.5474 6.44C34.2541 6.52 33.9608 6.58666 33.6674 6.64C33.3741 6.69333 33.0808 6.73333 32.7874 6.76C32.4941 6.78666 32.1874 6.82666 31.8674 6.88C31.5741 6.93333 31.2808 6.98666 30.9874 7.04C30.5874 9.01333 30.2541 10.72 29.9874 12.16C29.7474 13.6 29.5208 14.9867 29.3074 16.32C29.1208 17.6267 28.8941 19.0667 28.6274 20.64C28.1741 23.3333 27.7741 26.0667 27.4274 28.84L20.2274 29.96ZM41.4796 29.84C41.533 29.3867 41.5863 28.9467 41.6396 28.52C41.693 28.0933 41.7463 27.6667 41.7996 27.24L42.0396 25C42.0663 24.6267 42.093 24.28 42.1196 23.96C42.1463 23.64 42.173 23.3467 42.1996 23.08H38.7196L37.1196 28.84C36.533 28.92 35.8396 29.0133 35.0396 29.12C34.2396 29.2 33.493 29.28 32.7996 29.36C32.373 29.4133 31.9463 29.4667 31.5196 29.52C31.1196 29.5733 30.7063 29.6267 30.2796 29.68L33.4396 19.2C33.813 17.9467 34.2396 16.52 34.7196 14.92C35.1996 13.32 35.6796 11.68 36.1596 10C36.6663 8.32 37.133 6.74666 37.5596 5.28C38.013 3.78666 38.373 2.53333 38.6396 1.52C40.453 1.38666 42.293 1.22666 44.1596 1.04C46.053 0.85333 47.893 0.599997 49.6796 0.279996C49.5463 1.77333 49.413 3.46666 49.2796 5.36C49.173 7.22666 49.0663 9.16 48.9596 11.16C48.8796 13.16 48.7863 15.1333 48.6796 17.08C48.6263 18.92 48.5596 20.8267 48.4796 22.8C48.3996 24.7467 48.3196 26.7467 48.2396 28.8C47.8396 28.8533 47.4396 28.9067 47.0396 28.96C46.6396 29.0133 46.2396 29.0667 45.8396 29.12C45.173 29.2267 44.4396 29.3467 43.6396 29.48C42.8396 29.6133 42.1196 29.7333 41.4796 29.84ZM39.6796 19.08C39.8396 19.08 40.133 19.0667 40.5596 19.04C41.013 19.0133 41.4396 18.9867 41.8396 18.96C42.2396 18.9333 42.4796 18.92 42.5596 18.92C42.5596 18.5733 42.613 17.8667 42.7196 16.8C42.8263 15.7333 42.933 14.6133 43.0396 13.44C43.093 12.7467 43.1463 12.04 43.1996 11.32C43.2796 10.5733 43.3596 9.81333 43.4396 9.04L43.6796 5.56L43.0796 5.6L42.1596 9.04L39.6796 19.08ZM52.0243 29.96C52.3176 28.4933 52.611 27.04 52.9043 25.6C53.2243 24.1333 53.5176 22.6933 53.7843 21.28C54.7976 16.2133 55.6243 11.36 56.2643 6.72C55.971 6.66666 55.6643 6.64 55.3443 6.64C55.0243 6.61333 54.7177 6.61333 54.4243 6.64C53.7843 6.69333 53.1576 6.61333 52.5443 6.4C52.571 6.18666 52.5843 5.96 52.5843 5.72C52.5843 5.45333 52.5843 5.18666 52.5843 4.92C52.5843 4.62666 52.5843 4.34666 52.5843 4.08C52.5843 3.78666 52.5976 3.50666 52.6243 3.24C52.651 2.94666 52.6643 2.64 52.6643 2.32C52.6643 1.97333 52.6777 1.62666 52.7043 1.28C53.3976 1.33333 54.091 1.37333 54.7843 1.4C55.4776 1.42666 56.171 1.44 56.8643 1.44C58.8377 1.44 60.7177 1.37333 62.5043 1.24C64.3177 1.10666 65.9843 0.946663 67.5043 0.759997L67.0643 2.92L66.7043 4.8C66.571 5.49333 66.451 6.04 66.3443 6.44C66.051 6.52 65.7577 6.58666 65.4643 6.64C65.171 6.69333 64.8777 6.73333 64.5843 6.76C64.291 6.78666 63.9843 6.82666 63.6643 6.88C63.371 6.93333 63.0777 6.98666 62.7843 7.04C62.3843 9.01333 62.051 10.72 61.7843 12.16C61.5443 13.6 61.3177 14.9867 61.1043 16.32C60.9176 17.6267 60.691 19.0667 60.4243 20.64C59.971 23.3333 59.571 26.0667 59.2243 28.84L52.0243 29.96ZM69.7565 30C68.6898 30 67.6232 29.72 66.5565 29.16C65.4898 28.5733 64.4632 27.6533 63.4765 26.4L66.4365 20.6C66.7298 21.1067 67.1565 21.5867 67.7165 22.04C68.3032 22.4933 68.9165 22.8533 69.5565 23.12C70.1965 23.3867 70.7432 23.52 71.1965 23.52C71.8898 23.52 72.5432 23.3067 73.1565 22.88C73.7965 22.4533 74.1165 21.88 74.1165 21.16C74.1165 20.2267 73.6898 19.3733 72.8365 18.6C71.9832 17.8267 71.0232 17.0667 69.9565 16.32C68.9165 15.5733 67.9565 14.7333 67.0765 13.8C66.2232 12.84 65.7965 11.7467 65.7965 10.52C65.7965 9.13333 66.1965 7.85333 66.9965 6.68C67.7965 5.48 68.8365 4.44 70.1165 3.56C71.3965 2.65333 72.7565 1.96 74.1965 1.48C75.6632 0.973331 77.0498 0.719997 78.3565 0.719997C79.2898 0.719997 80.1565 0.879997 80.9565 1.2C81.7565 1.49333 82.3965 1.98666 82.8765 2.68C83.3565 3.37333 83.5965 4.30666 83.5965 5.48C83.5965 5.66666 83.5832 5.85333 83.5565 6.04C83.5565 6.22666 83.5432 6.41333 83.5165 6.6C83.4898 6.78666 83.4498 6.98666 83.3965 7.2C83.3698 7.38666 83.3432 7.58666 83.3165 7.8L77.5165 9.48C77.5698 9.26666 77.6098 9.05333 77.6365 8.84C77.6898 8.62666 77.7165 8.41333 77.7165 8.2C77.7165 7.4 77.5698 6.82666 77.2765 6.48C77.0098 6.10666 76.6498 5.92 76.1965 5.92C75.9565 5.92 75.6098 6.05333 75.1565 6.32C74.7032 6.56 74.2898 6.90666 73.9165 7.36C73.5698 7.78666 73.3965 8.26666 73.3965 8.8C73.3965 9.68 73.7565 10.4133 74.4765 11C75.2232 11.56 76.0765 12.1333 77.0365 12.72C77.4898 12.9867 77.9965 13.4133 78.5565 14C79.1165 14.56 79.5965 15.3333 79.9965 16.32C80.4232 17.28 80.6365 18.52 80.6365 20.04C80.6365 22.0133 80.1432 23.7467 79.1565 25.24C78.1965 26.7333 76.8898 27.9067 75.2365 28.76C73.5832 29.5867 71.7565 30 69.7565 30ZM119.535 30.12C119.162 30.12 118.789 30.0933 118.415 30.04C118.042 30.0133 117.669 29.9733 117.295 29.92L119.415 19.16C119.682 17.6933 119.962 16.1467 120.255 14.52C120.575 12.8667 120.882 11.24 121.175 9.64C121.469 8.01333 121.722 6.50666 121.935 5.12C122.175 3.73333 122.362 2.56 122.495 1.6C123.642 1.38666 124.802 1.18666 125.975 0.999996C127.149 0.81333 128.349 0.719997 129.575 0.719997C131.549 0.719997 133.109 1.13333 134.255 1.96C135.402 2.76 136.229 3.82666 136.735 5.16C137.242 6.46666 137.495 7.90666 137.495 9.48C137.495 10.8933 137.295 12.3867 136.895 13.96C136.495 15.5067 135.922 17.0533 135.175 18.6C134.455 20.12 133.589 21.56 132.575 22.92C131.002 25.0267 129.082 26.76 126.815 28.12C124.575 29.4533 122.149 30.12 119.535 30.12ZM124.295 25.08C125.229 24.4667 126.109 23.5333 126.935 22.28C127.789 21.0267 128.589 19.52 129.335 17.76C130.002 16.1333 130.522 14.6 130.895 13.16C131.269 11.6933 131.455 10.48 131.455 9.52C131.455 8.53333 131.175 7.76 130.615 7.2C130.082 6.64 129.229 6.36 128.055 6.36C127.629 8.65333 127.189 10.7733 126.735 12.72C126.309 14.6667 125.882 16.6267 125.455 18.6C125.055 20.5733 124.669 22.7333 124.295 25.08ZM145.152 29.84C145.205 29.3867 145.258 28.9467 145.312 28.52C145.365 28.0933 145.418 27.6667 145.472 27.24L145.712 25C145.738 24.6267 145.765 24.28 145.792 23.96C145.818 23.64 145.845 23.3467 145.872 23.08H142.392L140.792 28.84C140.205 28.92 139.512 29.0133 138.712 29.12C137.912 29.2 137.165 29.28 136.472 29.36C136.045 29.4133 135.618 29.4667 135.192 29.52C134.792 29.5733 134.378 29.6267 133.952 29.68L137.112 19.2C137.485 17.9467 137.912 16.52 138.392 14.92C138.872 13.32 139.352 11.68 139.832 10C140.338 8.32 140.805 6.74666 141.232 5.28C141.685 3.78666 142.045 2.53333 142.312 1.52C144.125 1.38666 145.965 1.22666 147.832 1.04C149.725 0.85333 151.565 0.599997 153.352 0.279996C153.218 1.77333 153.085 3.46666 152.952 5.36C152.845 7.22666 152.738 9.16 152.632 11.16C152.552 13.16 152.458 15.1333 152.352 17.08C152.298 18.92 152.232 20.8267 152.152 22.8C152.072 24.7467 151.992 26.7467 151.912 28.8C151.512 28.8533 151.112 28.9067 150.712 28.96C150.312 29.0133 149.912 29.0667 149.512 29.12C148.845 29.2267 148.112 29.3467 147.312 29.48C146.512 29.6133 145.792 29.7333 145.152 29.84ZM143.352 19.08C143.512 19.08 143.805 19.0667 144.232 19.04C144.685 19.0133 145.112 18.9867 145.512 18.96C145.912 18.9333 146.152 18.92 146.232 18.92C146.232 18.5733 146.285 17.8667 146.392 16.8C146.498 15.7333 146.605 14.6133 146.712 13.44C146.765 12.7467 146.818 12.04 146.872 11.32C146.952 10.5733 147.032 9.81333 147.112 9.04L147.352 5.56L146.752 5.6L145.832 9.04L143.352 19.08ZM158.936 30C157.87 30 156.803 29.72 155.736 29.16C154.67 28.5733 153.643 27.6533 152.656 26.4L155.616 20.6C155.91 21.1067 156.336 21.5867 156.896 22.04C157.483 22.4933 158.096 22.8533 158.736 23.12C159.376 23.3867 159.923 23.52 160.376 23.52C161.07 23.52 161.723 23.3067 162.336 22.88C162.976 22.4533 163.296 21.88 163.296 21.16C163.296 20.2267 162.87 19.3733 162.016 18.6C161.163 17.8267 160.203 17.0667 159.136 16.32C158.096 15.5733 157.136 14.7333 156.256 13.8C155.403 12.84 154.976 11.7467 154.976 10.52C154.976 9.13333 155.376 7.85333 156.176 6.68C156.976 5.48 158.016 4.44 159.296 3.56C160.576 2.65333 161.936 1.96 163.376 1.48C164.843 0.973331 166.23 0.719997 167.536 0.719997C168.47 0.719997 169.336 0.879997 170.136 1.2C170.936 1.49333 171.576 1.98666 172.056 2.68C172.536 3.37333 172.776 4.30666 172.776 5.48C172.776 5.66666 172.763 5.85333 172.736 6.04C172.736 6.22666 172.723 6.41333 172.696 6.6C172.67 6.78666 172.63 6.98666 172.576 7.2C172.55 7.38666 172.523 7.58666 172.496 7.8L166.696 9.48C166.75 9.26666 166.79 9.05333 166.816 8.84C166.87 8.62666 166.896 8.41333 166.896 8.2C166.896 7.4 166.75 6.82666 166.456 6.48C166.19 6.10666 165.83 5.92 165.376 5.92C165.136 5.92 164.79 6.05333 164.336 6.32C163.883 6.56 163.47 6.90666 163.096 7.36C162.75 7.78666 162.576 8.26666 162.576 8.8C162.576 9.68 162.936 10.4133 163.656 11C164.403 11.56 165.256 12.1333 166.216 12.72C166.67 12.9867 167.176 13.4133 167.736 14C168.296 14.56 168.776 15.3333 169.176 16.32C169.603 17.28 169.816 18.52 169.816 20.04C169.816 22.0133 169.323 23.7467 168.336 25.24C167.376 26.7333 166.07 27.9067 164.416 28.76C162.763 29.5867 160.936 30 158.936 30ZM169.604 30C170.377 26.2667 171.097 22.6267 171.764 19.08C172.137 16.92 172.51 14.7333 172.884 12.52C173.284 10.3067 173.644 8.18666 173.964 6.16C174.284 4.13333 174.524 2.32 174.684 0.719997C175.404 0.746664 175.99 0.786663 176.444 0.839996C176.924 0.866664 177.364 0.893331 177.764 0.919997C178.19 0.946664 178.657 0.97333 179.164 0.999996C179.697 0.999996 180.364 0.999996 181.164 0.999996C180.71 2.89333 180.257 4.78666 179.804 6.68C179.377 8.57333 178.977 10.48 178.604 12.4L182.564 11.96C182.75 11.0267 182.924 10.1067 183.084 9.2C183.27 8.26666 183.43 7.34666 183.564 6.44C183.697 5.56 183.857 4.66666 184.044 3.76C184.257 2.82666 184.484 1.89333 184.724 0.959997C185.684 0.799997 186.657 0.679997 187.644 0.599997C188.63 0.49333 189.457 0.426663 190.124 0.399997C190.79 0.346664 191.124 0.319998 191.124 0.319998C190.777 1.38666 190.43 2.64 190.084 4.08C189.737 5.52 189.404 7.04 189.084 8.64C188.764 10.24 188.457 11.84 188.164 13.44C187.87 15.0133 187.604 16.48 187.364 17.84C187.07 19.5467 186.79 21.2667 186.524 23C186.257 24.7067 185.99 26.4533 185.724 28.24L179.484 28.96C179.67 28.16 179.83 27.3733 179.964 26.6C180.124 25.8 180.27 25.0267 180.404 24.28C180.67 23 180.937 21.6667 181.204 20.28C181.497 18.8933 181.724 17.7067 181.884 16.72L178.004 17.08C177.897 17.5867 177.79 18.1333 177.684 18.72C177.604 19.3067 177.497 19.9333 177.364 20.6C177.23 21.2667 177.097 21.92 176.964 22.56C176.857 23.1733 176.75 23.7867 176.644 24.4C176.51 25.12 176.364 25.84 176.204 26.56C176.044 27.28 175.897 28 175.764 28.72L169.604 30ZM189.66 30.08C188.673 30.08 187.753 30 186.9 29.84C188.18 25.1733 189.193 20.48 189.94 15.76C190.713 11.0133 191.447 6.24 192.14 1.44C193.527 1.14666 194.967 0.89333 196.46 0.679998C197.953 0.439998 199.5 0.319998 201.1 0.319998C201.98 0.319998 202.913 0.479997 203.9 0.799996C204.887 1.09333 205.713 1.64 206.38 2.44C207.073 3.21333 207.42 4.32 207.42 5.76C207.42 7.09333 207.14 8.32 206.58 9.44C206.02 10.56 205.313 11.52 204.46 12.32C203.607 13.12 202.727 13.6933 201.82 14.04C202.193 14.2267 202.633 14.56 203.14 15.04C203.647 15.52 204.087 16.16 204.46 16.96C204.833 17.76 205.02 18.7333 205.02 19.88C205.02 21.48 204.54 22.9333 203.58 24.24C202.647 25.52 201.393 26.5867 199.82 27.44C198.3 28.2933 196.66 28.9467 194.9 29.4C193.14 29.8533 191.393 30.08 189.66 30.08ZM196.78 10.76C197.607 10.6 198.393 10.3867 199.14 10.12C199.887 9.85333 200.487 9.54666 200.94 9.2C201.42 8.85333 201.66 8.48 201.66 8.08C201.66 7.57333 201.46 7.17333 201.06 6.88C200.66 6.58666 200.18 6.37333 199.62 6.24C199.06 6.10666 198.54 6.04 198.06 6.04H197.66C197.473 7.10666 197.3 8.04 197.14 8.84C196.98 9.61333 196.86 10.2533 196.78 10.76ZM194.74 22C195.273 21.9467 195.86 21.8533 196.5 21.72C197.14 21.5867 197.753 21.3867 198.34 21.12C198.927 20.8267 199.407 20.4533 199.78 20C200.18 19.52 200.38 18.9467 200.38 18.28C200.38 17.64 200.167 17.1333 199.74 16.76C199.313 16.3867 198.793 16.12 198.18 15.96C197.593 15.7733 197.033 15.68 196.5 15.68H196.18C196.047 15.68 195.94 15.6933 195.86 15.72C195.7 16.7067 195.513 17.7467 195.3 18.84C195.087 19.9333 194.9 20.9867 194.74 22ZM211.289 30.08C209.529 30.08 208.089 29.4 206.969 28.04C205.849 26.68 205.289 24.6267 205.289 21.88C205.289 20.36 205.476 18.76 205.849 17.08C206.223 15.4 206.743 13.7467 207.409 12.12C208.076 10.4933 208.849 8.98666 209.729 7.6C211.143 5.36 212.769 3.53333 214.609 2.12C216.449 0.706663 218.383 -2.86102e-06 220.409 -2.86102e-06C222.009 -2.86102e-06 223.236 0.413331 224.089 1.24C224.969 2.04 225.583 3.08 225.929 4.36C226.276 5.61333 226.449 6.92 226.449 8.28C226.449 11.4533 225.956 14.4133 224.969 17.16C224.009 19.88 222.756 22.1867 221.209 24.08C219.663 26.0267 218.009 27.52 216.249 28.56C214.516 29.5733 212.863 30.08 211.289 30.08ZM213.449 23.48C214.649 23.48 215.703 23.08 216.609 22.28C217.543 21.48 218.329 20.4667 218.969 19.24C219.609 17.9867 220.089 16.68 220.409 15.32C220.729 13.96 220.889 12.7333 220.889 11.64C220.889 11.2133 220.849 10.76 220.769 10.28C220.689 9.77333 220.516 9.33333 220.249 8.96C219.983 8.58666 219.569 8.4 219.009 8.4C217.783 8.4 216.676 8.85333 215.689 9.76C214.703 10.64 213.876 11.76 213.209 13.12C212.543 14.5067 212.049 15.8667 211.729 17.2C211.409 18.5333 211.249 19.7467 211.249 20.84C211.249 21.4 211.449 21.9867 211.849 22.6C212.249 23.1867 212.783 23.48 213.449 23.48ZM234.136 29.84C234.189 29.3867 234.243 28.9467 234.296 28.52C234.349 28.0933 234.403 27.6667 234.456 27.24L234.696 25C234.723 24.6267 234.749 24.28 234.776 23.96C234.803 23.64 234.829 23.3467 234.856 23.08H231.376L229.776 28.84C229.189 28.92 228.496 29.0133 227.696 29.12C226.896 29.2 226.149 29.28 225.456 29.36C225.029 29.4133 224.603 29.4667 224.176 29.52C223.776 29.5733 223.363 29.6267 222.936 29.68L226.096 19.2C226.469 17.9467 226.896 16.52 227.376 14.92C227.856 13.32 228.336 11.68 228.816 10C229.323 8.32 229.789 6.74666 230.216 5.28C230.669 3.78666 231.029 2.53333 231.296 1.52C233.109 1.38666 234.949 1.22666 236.816 1.04C238.709 0.85333 240.549 0.599997 242.336 0.279996C242.203 1.77333 242.069 3.46666 241.936 5.36C241.829 7.22666 241.723 9.16 241.616 11.16C241.536 13.16 241.443 15.1333 241.336 17.08C241.283 18.92 241.216 20.8267 241.136 22.8C241.056 24.7467 240.976 26.7467 240.896 28.8C240.496 28.8533 240.096 28.9067 239.696 28.96C239.296 29.0133 238.896 29.0667 238.496 29.12C237.829 29.2267 237.096 29.3467 236.296 29.48C235.496 29.6133 234.776 29.7333 234.136 29.84ZM232.336 19.08C232.496 19.08 232.789 19.0667 233.216 19.04C233.669 19.0133 234.096 18.9867 234.496 18.96C234.896 18.9333 235.136 18.92 235.216 18.92C235.216 18.5733 235.269 17.8667 235.376 16.8C235.483 15.7333 235.589 14.6133 235.696 13.44C235.749 12.7467 235.803 12.04 235.856 11.32C235.936 10.5733 236.016 9.81333 236.096 9.04L236.336 5.56L235.736 5.6L234.816 9.04L232.336 19.08ZM241.241 29.96L243.321 19.56C243.641 17.64 243.987 15.6667 244.361 13.64C244.734 11.6133 245.081 9.61333 245.401 7.64C245.747 5.66666 246.014 3.81333 246.201 2.08C247.721 1.6 249.361 1.25333 251.121 1.04C252.881 0.799997 254.627 0.679998 256.361 0.679998C258.387 0.679998 259.761 1.12 260.481 2C261.227 2.88 261.601 4.06666 261.601 5.56C261.601 6.92 261.281 8.29333 260.641 9.68C260.001 11.04 259.161 12.28 258.121 13.4C257.107 14.4933 255.987 15.36 254.761 16C255.241 17.0667 255.747 18.24 256.281 19.52C256.841 20.7733 257.361 21.9733 257.841 23.12C258.107 23.7867 258.374 24.4533 258.641 25.12C258.934 25.7867 259.214 26.4533 259.481 27.12L253.281 29.28L251.841 24.48C251.441 23.1467 251.067 21.8667 250.721 20.64C250.401 19.3867 250.214 18.5067 250.161 18L249.641 18.16C249.561 18.5867 249.467 19.0533 249.361 19.56C249.281 20.04 249.187 20.5733 249.081 21.16C248.974 21.7467 248.867 22.32 248.761 22.88C248.654 23.4133 248.547 23.9467 248.441 24.48L247.721 28.28L241.241 29.96ZM250.641 12.6C251.121 12.5467 251.707 12.3467 252.401 12C253.121 11.6267 253.827 11.1733 254.521 10.64C255.241 10.1067 255.841 9.56 256.321 9C256.801 8.44 257.041 7.94666 257.041 7.52C257.041 6.98666 256.721 6.64 256.081 6.48C255.467 6.29333 254.654 6.2 253.641 6.2H252.761C252.601 6.22666 252.454 6.24 252.321 6.24C252.187 6.24 252.054 6.24 251.921 6.24L250.641 12.6ZM261.254 30.12C260.881 30.12 260.507 30.0933 260.134 30.04C259.761 30.0133 259.387 29.9733 259.014 29.92L261.134 19.16C261.401 17.6933 261.681 16.1467 261.974 14.52C262.294 12.8667 262.601 11.24 262.894 9.64C263.187 8.01333 263.441 6.50666 263.654 5.12C263.894 3.73333 264.081 2.56 264.214 1.6C265.361 1.38666 266.521 1.18666 267.694 0.999996C268.867 0.81333 270.067 0.719997 271.294 0.719997C273.267 0.719997 274.827 1.13333 275.974 1.96C277.121 2.76 277.947 3.82666 278.454 5.16C278.961 6.46666 279.214 7.90666 279.214 9.48C279.214 10.8933 279.014 12.3867 278.614 13.96C278.214 15.5067 277.641 17.0533 276.894 18.6C276.174 20.12 275.307 21.56 274.294 22.92C272.721 25.0267 270.801 26.76 268.534 28.12C266.294 29.4533 263.867 30.12 261.254 30.12ZM266.014 25.08C266.947 24.4667 267.827 23.5333 268.654 22.28C269.507 21.0267 270.307 19.52 271.054 17.76C271.721 16.1333 272.241 14.6 272.614 13.16C272.987 11.6933 273.174 10.48 273.174 9.52C273.174 8.53333 272.894 7.76 272.334 7.2C271.801 6.64 270.947 6.36 269.774 6.36C269.347 8.65333 268.907 10.7733 268.454 12.72C268.027 14.6667 267.601 16.6267 267.174 18.6C266.774 20.5733 266.387 22.7333 266.014 25.08Z" fill="#489EB5"/>
<path d="M96.6765 30.44C94.8632 30.44 93.3698 30.1333 92.1965 29.52C91.0232 28.9067 90.1432 28.08 89.5565 27.04C88.9965 25.9733 88.7165 24.7867 88.7165 23.48C88.7165 22.1467 88.9965 20.8133 89.5565 19.48C90.1432 18.1467 90.9565 16.96 91.9965 15.92C93.0365 14.88 94.2632 14.1733 95.6765 13.8C94.7965 13.3467 94.0365 12.7467 93.3965 12C92.7565 11.2267 92.4365 10.3467 92.4365 9.36C92.4365 7.54666 92.9298 5.96 93.9165 4.6C94.9298 3.24 96.2498 2.17333 97.8765 1.4C99.5032 0.626663 101.263 0.239996 103.157 0.239996C104.41 0.239996 105.557 0.53333 106.597 1.12C107.663 1.68 108.49 2.46666 109.077 3.48L105.797 7.16C105.45 6.84 105.13 6.57333 104.837 6.36C104.57 6.12 104.21 5.93333 103.757 5.8C103.303 5.66666 102.637 5.6 101.757 5.6C100.69 5.6 99.8898 5.94666 99.3565 6.64C98.8498 7.33333 98.5965 8.14666 98.5965 9.08C98.5965 10.12 98.8898 11 99.4765 11.72C100.063 12.4133 100.89 12.76 101.957 12.76H102.357C102.437 12.76 102.517 12.76 102.597 12.76C102.677 12.7333 102.757 12.7067 102.837 12.68C102.837 12.44 102.85 12.2667 102.877 12.16C102.903 12.08 102.917 12 102.917 11.92C102.917 11.84 102.93 11.7467 102.957 11.64C102.957 11.4 102.97 11.2267 102.997 11.12C103.53 11.12 104.037 11.12 104.517 11.12C105.023 11.0933 105.503 11.0667 105.957 11.04C106.41 11.0133 106.877 10.9867 107.357 10.96C107.837 10.9333 108.33 10.9067 108.837 10.88C108.783 11.04 108.757 11.24 108.757 11.48V12.48C109.05 12.48 109.45 12.4267 109.957 12.32C110.463 12.2133 111.023 12.0933 111.637 11.96L112.077 16.04C111.357 16.1467 110.703 16.2533 110.117 16.36C109.53 16.44 109.13 16.48 108.917 16.48C108.917 19.12 108.517 21.4933 107.717 23.6C106.917 25.7067 105.623 27.3733 103.837 28.6C102.05 29.8267 99.6632 30.44 96.6765 30.44ZM97.9965 25.4C98.9565 25.4 99.7165 25.08 100.277 24.44C100.863 23.8 101.303 23 101.597 22.04C101.917 21.08 102.143 20.1067 102.277 19.12C102.41 18.1333 102.503 17.3067 102.557 16.64C99.9432 16.8267 98.0365 17.4933 96.8365 18.64C95.6632 19.76 95.0765 21.0533 95.0765 22.52C95.0765 23.3733 95.3298 24.0667 95.8365 24.6C96.3698 25.1333 97.0898 25.4 97.9965 25.4Z" fill="#FFA62B"/>
</svg>
