<svg width="85" height="64" viewBox="0 0 85 64" fill="none" xmlns="http://www.w3.org/2000/svg">
<path opacity="0.2" d="M4.48047 47.2979C8.49735 53.3459 20.3691 54.2808 25.4116 50.6697C32.5684 45.544 32.1727 31.9965 39.6067 27.1959C53.2752 18.3759 69.9778 42.5981 80.5442 18.5321V63.5015H4.48047V47.2979Z" fill="#407BFF"/>
<path d="M17.3376 52.8948C16.0495 52.8944 14.764 52.7772 13.4971 52.5445C9.34413 51.7885 6.10845 49.9414 4.39233 47.3584C4.38113 47.3348 4.3788 47.308 4.38579 47.2828C4.39278 47.2577 4.40862 47.2359 4.43038 47.2215C4.45215 47.2071 4.47838 47.201 4.50426 47.2044C4.53014 47.2078 4.55393 47.2204 4.57125 47.2399C6.23193 49.7373 9.49785 51.5945 13.5349 52.3329C18.0709 53.1645 22.7027 52.4765 25.3487 50.5815C28.8363 48.0841 30.5525 43.4801 32.2106 39.0273C33.9419 34.3779 35.7386 29.5697 39.5489 27.1051C45.1836 23.4663 51.3475 25.4092 57.3123 27.2866C66.0164 30.0309 74.2417 32.6214 80.4459 18.4893C80.4597 18.4672 80.4809 18.4508 80.5057 18.4431C80.5306 18.4353 80.5574 18.4368 80.5812 18.4472C80.6051 18.4576 80.6244 18.4762 80.6356 18.4997C80.6469 18.5231 80.6493 18.5498 80.6425 18.5749C77.7823 25.0866 74.3425 28.5315 69.8292 29.4109C65.8476 30.1921 61.6694 28.8767 57.2468 27.4831C51.3324 25.6209 45.2138 23.7031 39.6648 27.279C35.91 29.7033 34.1208 34.4761 32.4097 39.0953C30.7415 43.5784 29.0127 48.2127 25.4747 50.7503C23.5393 52.1413 20.5632 52.8948 17.3376 52.8948Z" fill="#407BFF"/>
<path d="M10.7831 41.5775H0V63.5015H10.7831V41.5775Z" fill="#407BFF"/>
<path opacity="0.3" d="M10.7831 41.5775H0V63.5015H10.7831V41.5775Z" fill="black"/>
<path d="M28.5341 48.6058H17.751V63.5015H28.5341V48.6058Z" fill="#407BFF"/>
<path opacity="0.3" d="M28.5341 48.6058H17.751V63.5015H28.5341V48.6058Z" fill="black"/>
<path d="M46.285 36.0209H35.502V63.5015H46.285V36.0209Z" fill="#407BFF"/>
<path opacity="0.3" d="M46.285 36.0209H35.502V63.5015H46.285V36.0209Z" fill="black"/>
<path d="M64.0331 20.921H53.25V63.5015H64.0331V20.921Z" fill="#407BFF"/>
<path opacity="0.3" d="M64.0331 20.921H53.25V63.5015H64.0331V20.921Z" fill="black"/>
<path d="M81.7841 0H71.001V63.5015H81.7841V0Z" fill="#407BFF"/>
<path opacity="0.3" d="M81.7841 0H71.001V63.5015H81.7841V0Z" fill="black"/>
<path d="M13.6459 41.5775H2.86279V63.5015H13.6459V41.5775Z" fill="#407BFF"/>
<path opacity="0.1" d="M13.6459 41.5775H2.86279V63.5015H13.6459V41.5775Z" fill="black"/>
<path d="M31.3968 48.6058H20.6138V63.5015H31.3968V48.6058Z" fill="#407BFF"/>
<path opacity="0.1" d="M31.3968 48.6058H20.6138V63.5015H31.3968V48.6058Z" fill="black"/>
<path d="M49.1449 36.0209H38.3618V63.5015H49.1449V36.0209Z" fill="#407BFF"/>
<path opacity="0.1" d="M49.1449 36.0209H38.3618V63.5015H49.1449V36.0209Z" fill="black"/>
<path d="M66.8959 20.921H56.1128V63.5015H66.8959V20.921Z" fill="#407BFF"/>
<path opacity="0.1" d="M66.8959 20.921H56.1128V63.5015H66.8959V20.921Z" fill="black"/>
<path d="M84.6469 0H73.8638V63.5015H84.6469V0Z" fill="#407BFF"/>
<path opacity="0.1" d="M84.6469 0H73.8638V63.5015H84.6469V0Z" fill="black"/>
<path d="M62.4179 8.90568C61.7252 8.21261 60.7855 7.82311 59.8055 7.82288C58.8256 7.82264 57.8858 8.21168 57.1927 8.90442C56.4996 9.59716 56.1101 10.5369 56.1099 11.5168C56.1096 12.4967 56.4987 13.4366 57.1914 14.1296L59.8047 16.7404L62.4154 14.1271C62.7584 13.7845 63.0306 13.3776 63.2164 12.9297C63.4022 12.4819 63.4979 12.0018 63.4982 11.5169C63.4984 11.0321 63.4031 10.5519 63.2178 10.1039C63.0324 9.65581 62.7606 9.24867 62.4179 8.90568Z" fill="#407BFF"/>
<path opacity="0.1" d="M62.4179 8.90568C61.7252 8.21261 60.7855 7.82311 59.8055 7.82288C58.8256 7.82264 57.8858 8.21168 57.1927 8.90442C56.4996 9.59716 56.1101 10.5369 56.1099 11.5168C56.1096 12.4967 56.4987 13.4366 57.1914 14.1296L59.8047 16.7404L62.4154 14.1271C62.7584 13.7845 63.0306 13.3776 63.2164 12.9297C63.4022 12.4819 63.4979 12.0018 63.4982 11.5169C63.4984 11.0321 63.4031 10.5519 63.2178 10.1039C63.0324 9.65581 62.7606 9.24867 62.4179 8.90568Z" fill="black"/>
</svg>
